G04*
G04 #@! TF.GenerationSoftware,Altium Limited,Altium Designer,19.0.12 (326)*
G04*
G04 Layer_Color=16711935*
%FSLAX25Y25*%
%MOIN*%
G70*
G01*
G75*
%ADD126C,0.06000*%
G04:AMPARAMS|DCode=154|XSize=80mil|YSize=80mil|CornerRadius=40mil|HoleSize=0mil|Usage=FLASHONLY|Rotation=180.000|XOffset=0mil|YOffset=0mil|HoleType=Round|Shape=RoundedRectangle|*
%AMROUNDEDRECTD154*
21,1,0.08000,0.00000,0,0,180.0*
21,1,0.00000,0.08000,0,0,180.0*
1,1,0.08000,0.00000,0.00000*
1,1,0.08000,0.00000,0.00000*
1,1,0.08000,0.00000,0.00000*
1,1,0.08000,0.00000,0.00000*
%
%ADD154ROUNDEDRECTD154*%
%ADD179R,0.08400X0.08400*%
%ADD193C,0.08400*%
%ADD194O,0.13998X0.14000*%
%ADD195R,0.13998X0.14000*%
%ADD196O,0.06400X0.12400*%
%ADD197O,0.12400X0.06400*%
%ADD198R,0.06306X0.06306*%
%ADD199C,0.06306*%
%ADD200R,0.06306X0.06306*%
G04:AMPARAMS|DCode=201|XSize=137mil|YSize=87mil|CornerRadius=0mil|HoleSize=0mil|Usage=FLASHONLY|Rotation=180.000|XOffset=0mil|YOffset=0mil|HoleType=Round|Shape=Octagon|*
%AMOCTAGOND201*
4,1,8,-0.06850,0.02175,-0.06850,-0.02175,-0.04675,-0.04350,0.04675,-0.04350,0.06850,-0.02175,0.06850,0.02175,0.04675,0.04350,-0.04675,0.04350,-0.06850,0.02175,0.0*
%
%ADD201OCTAGOND201*%

%ADD202C,0.10400*%
%ADD203P,0.08010X8X292.5*%
%ADD204C,0.13450*%
%ADD205C,0.06200*%
G04:AMPARAMS|DCode=206|XSize=137mil|YSize=87mil|CornerRadius=0mil|HoleSize=0mil|Usage=FLASHONLY|Rotation=90.000|XOffset=0mil|YOffset=0mil|HoleType=Round|Shape=Octagon|*
%AMOCTAGOND206*
4,1,8,0.02175,0.06850,-0.02175,0.06850,-0.04350,0.04675,-0.04350,-0.04675,-0.02175,-0.06850,0.02175,-0.06850,0.04350,-0.04675,0.04350,0.04675,0.02175,0.06850,0.0*
%
%ADD206OCTAGOND206*%

%ADD366R,0.07045X0.03543*%
%ADD367R,0.03543X0.07045*%
%ADD368C,0.05400*%
G04:AMPARAMS|DCode=369|XSize=54mil|YSize=54mil|CornerRadius=27mil|HoleSize=0mil|Usage=FLASHONLY|Rotation=0.000|XOffset=0mil|YOffset=0mil|HoleType=Round|Shape=RoundedRectangle|*
%AMROUNDEDRECTD369*
21,1,0.05400,0.00000,0,0,0.0*
21,1,0.00000,0.05400,0,0,0.0*
1,1,0.05400,0.00000,0.00000*
1,1,0.05400,0.00000,0.00000*
1,1,0.05400,0.00000,0.00000*
1,1,0.05400,0.00000,0.00000*
%
%ADD369ROUNDEDRECTD369*%
G04:AMPARAMS|DCode=370|XSize=54mil|YSize=54mil|CornerRadius=27mil|HoleSize=0mil|Usage=FLASHONLY|Rotation=270.000|XOffset=0mil|YOffset=0mil|HoleType=Round|Shape=RoundedRectangle|*
%AMROUNDEDRECTD370*
21,1,0.05400,0.00000,0,0,270.0*
21,1,0.00000,0.05400,0,0,270.0*
1,1,0.05400,0.00000,0.00000*
1,1,0.05400,0.00000,0.00000*
1,1,0.05400,0.00000,0.00000*
1,1,0.05400,0.00000,0.00000*
%
%ADD370ROUNDEDRECTD370*%
G04:AMPARAMS|DCode=371|XSize=50mil|YSize=67mil|CornerRadius=13.5mil|HoleSize=0mil|Usage=FLASHONLY|Rotation=90.000|XOffset=0mil|YOffset=0mil|HoleType=Round|Shape=RoundedRectangle|*
%AMROUNDEDRECTD371*
21,1,0.05000,0.04000,0,0,90.0*
21,1,0.02300,0.06700,0,0,90.0*
1,1,0.02700,0.02000,0.01150*
1,1,0.02700,0.02000,-0.01150*
1,1,0.02700,-0.02000,-0.01150*
1,1,0.02700,-0.02000,0.01150*
%
%ADD371ROUNDEDRECTD371*%
G04:AMPARAMS|DCode=372|XSize=50mil|YSize=67mil|CornerRadius=13.5mil|HoleSize=0mil|Usage=FLASHONLY|Rotation=180.000|XOffset=0mil|YOffset=0mil|HoleType=Round|Shape=RoundedRectangle|*
%AMROUNDEDRECTD372*
21,1,0.05000,0.04000,0,0,180.0*
21,1,0.02300,0.06700,0,0,180.0*
1,1,0.02700,-0.01150,0.02000*
1,1,0.02700,0.01150,0.02000*
1,1,0.02700,0.01150,-0.02000*
1,1,0.02700,-0.01150,-0.02000*
%
%ADD372ROUNDEDRECTD372*%
G36*
X608559Y302827D02*
X622459D01*
Y311927D01*
X608559D01*
Y302827D01*
D02*
G37*
G36*
X661559D02*
X675459D01*
Y311927D01*
X661559D01*
Y302827D01*
D02*
G37*
G36*
X657805Y371913D02*
Y358013D01*
X666905D01*
Y371913D01*
X657805D01*
D02*
G37*
G36*
Y424913D02*
Y411013D01*
X666905D01*
Y424913D01*
X657805D01*
D02*
G37*
G54D126*
X456693Y540945D02*
D03*
X464567D02*
D03*
X470079Y535433D02*
D03*
Y527559D02*
D03*
X464567Y522047D02*
D03*
X456693D02*
D03*
X451181Y527559D02*
D03*
Y535433D02*
D03*
X346457Y29134D02*
D03*
X354331D02*
D03*
X359842Y23622D02*
D03*
Y15748D02*
D03*
X354331Y10236D02*
D03*
X346457D02*
D03*
X340945Y15748D02*
D03*
Y23622D02*
D03*
X732283Y10236D02*
D03*
X724409D02*
D03*
X718898Y15748D02*
D03*
Y23622D02*
D03*
X724409Y29134D02*
D03*
X732283D02*
D03*
X737795Y23622D02*
D03*
Y15748D02*
D03*
X23622Y10236D02*
D03*
X15748D02*
D03*
X10236Y15748D02*
D03*
Y23622D02*
D03*
X15748Y29134D02*
D03*
X23622D02*
D03*
X29134Y23622D02*
D03*
Y15748D02*
D03*
X23622Y522047D02*
D03*
X15748D02*
D03*
X10236Y527559D02*
D03*
Y535433D02*
D03*
X15748Y540945D02*
D03*
X23622D02*
D03*
X29134Y535433D02*
D03*
Y527559D02*
D03*
X732283Y522047D02*
D03*
X724409D02*
D03*
X718898Y527559D02*
D03*
Y535433D02*
D03*
X724409Y540945D02*
D03*
X732283D02*
D03*
X737795Y535433D02*
D03*
Y527559D02*
D03*
G54D154*
X37284Y520650D02*
D03*
X732810Y44538D02*
D03*
X708162Y521976D02*
D03*
G54D179*
X538389Y327258D02*
D03*
X640062Y37283D02*
D03*
X558762D02*
D03*
X477462D02*
D03*
X395407D02*
D03*
X313879D02*
D03*
X231824D02*
D03*
X150297D02*
D03*
X70044D02*
D03*
G54D193*
X414560Y514597D02*
D03*
X428339D02*
D03*
Y494912D02*
D03*
X414560D02*
D03*
X376860D02*
D03*
X390639D02*
D03*
Y514597D02*
D03*
X376860D02*
D03*
X339160D02*
D03*
X352940D02*
D03*
Y494912D02*
D03*
X339160D02*
D03*
X301460D02*
D03*
X315240D02*
D03*
Y514597D02*
D03*
X301460D02*
D03*
X263761D02*
D03*
X277540D02*
D03*
Y494912D02*
D03*
X263761D02*
D03*
X562011Y315447D02*
D03*
Y327258D02*
D03*
X550200Y315447D02*
D03*
Y327258D02*
D03*
X538389Y315447D02*
D03*
X640062Y49094D02*
D03*
X628251Y37283D02*
D03*
Y49094D02*
D03*
X546951D02*
D03*
Y37283D02*
D03*
X558762Y49094D02*
D03*
X477462D02*
D03*
X465651Y37283D02*
D03*
Y49094D02*
D03*
X383595D02*
D03*
Y37283D02*
D03*
X395407Y49094D02*
D03*
X313879D02*
D03*
X302068Y37283D02*
D03*
Y49094D02*
D03*
X220013D02*
D03*
Y37283D02*
D03*
X231824Y49094D02*
D03*
X150297D02*
D03*
X138486Y37283D02*
D03*
Y49094D02*
D03*
X58233D02*
D03*
Y37283D02*
D03*
X70044Y49094D02*
D03*
G54D194*
X692500Y461332D02*
D03*
Y428831D02*
D03*
Y396332D02*
D03*
Y363831D02*
D03*
Y201253D02*
D03*
Y233753D02*
D03*
Y266253D02*
D03*
Y298753D02*
D03*
Y331253D02*
D03*
G54D195*
Y168753D02*
D03*
G54D196*
X379035Y420653D02*
D03*
X389035D02*
D03*
X399035D02*
D03*
X379035Y396653D02*
D03*
X389035D02*
D03*
X399035D02*
D03*
X303000Y352053D02*
D03*
X293000D02*
D03*
X275700Y396653D02*
D03*
X265700D02*
D03*
X255700D02*
D03*
X337800D02*
D03*
X347800D02*
D03*
X357800D02*
D03*
X296750D02*
D03*
X306750D02*
D03*
X316750D02*
D03*
X357800Y420653D02*
D03*
X347800D02*
D03*
X337800D02*
D03*
X316750D02*
D03*
X306750D02*
D03*
X296750D02*
D03*
X275700D02*
D03*
X265700D02*
D03*
X255700D02*
D03*
X334500Y352053D02*
D03*
X324500D02*
D03*
X271300D02*
D03*
X261300D02*
D03*
G54D197*
X436024Y328898D02*
D03*
Y318898D02*
D03*
Y308898D02*
D03*
Y370472D02*
D03*
Y360472D02*
D03*
Y350472D02*
D03*
X459842Y308898D02*
D03*
Y318898D02*
D03*
Y328898D02*
D03*
Y350374D02*
D03*
Y360374D02*
D03*
Y370374D02*
D03*
G54D198*
X668427Y282716D02*
D03*
X587127D02*
D03*
X505827D02*
D03*
X423771Y282419D02*
D03*
X364303Y287596D02*
D03*
X218397Y282812D02*
D03*
X96870Y282716D02*
D03*
X178661D02*
D03*
X314476Y311639D02*
D03*
X190100Y316353D02*
D03*
X70300Y336053D02*
D03*
Y373547D02*
D03*
G54D199*
X668427Y272716D02*
D03*
X658427Y282716D02*
D03*
Y272716D02*
D03*
X648427Y282716D02*
D03*
Y272716D02*
D03*
X638427Y282716D02*
D03*
Y272716D02*
D03*
X587127D02*
D03*
X577127Y282716D02*
D03*
Y272716D02*
D03*
X567127Y282716D02*
D03*
Y272716D02*
D03*
X557127Y282716D02*
D03*
Y272716D02*
D03*
X505827D02*
D03*
X495827Y282716D02*
D03*
Y272716D02*
D03*
X485827Y282716D02*
D03*
Y272716D02*
D03*
X475827Y282716D02*
D03*
Y272716D02*
D03*
X423771Y272419D02*
D03*
X413771Y282419D02*
D03*
Y272419D02*
D03*
X403771Y282419D02*
D03*
Y272419D02*
D03*
X393771Y282419D02*
D03*
Y272419D02*
D03*
X364303Y277596D02*
D03*
X354303Y287596D02*
D03*
Y277596D02*
D03*
X344303Y287596D02*
D03*
Y277596D02*
D03*
X334303Y287596D02*
D03*
Y277596D02*
D03*
X218397Y272812D02*
D03*
X208397Y282812D02*
D03*
Y272812D02*
D03*
X198397Y282812D02*
D03*
Y272812D02*
D03*
X188397Y282812D02*
D03*
Y272812D02*
D03*
X96870Y272716D02*
D03*
X86870Y282716D02*
D03*
Y272716D02*
D03*
X76870Y282716D02*
D03*
Y272716D02*
D03*
X66870Y282716D02*
D03*
Y272716D02*
D03*
X126969Y288740D02*
D03*
X117205D02*
D03*
X178661Y272716D02*
D03*
X168661Y282716D02*
D03*
Y272716D02*
D03*
X158661Y282716D02*
D03*
Y272716D02*
D03*
X148661Y282716D02*
D03*
Y272716D02*
D03*
X495807Y337008D02*
D03*
X505807D02*
D03*
X495807Y327008D02*
D03*
X505807D02*
D03*
X495807Y317008D02*
D03*
X505807D02*
D03*
X495807Y307008D02*
D03*
X354476Y321639D02*
D03*
Y311639D02*
D03*
X344476Y321639D02*
D03*
Y311639D02*
D03*
X334476Y321639D02*
D03*
Y311639D02*
D03*
X324476Y321639D02*
D03*
Y311639D02*
D03*
X314476Y321639D02*
D03*
X80100Y306353D02*
D03*
Y316353D02*
D03*
X90100Y306353D02*
D03*
Y316353D02*
D03*
X100100Y306353D02*
D03*
Y316353D02*
D03*
X110100Y306353D02*
D03*
Y316353D02*
D03*
X120100Y306353D02*
D03*
Y316353D02*
D03*
X130100Y306353D02*
D03*
Y316353D02*
D03*
X140100Y306353D02*
D03*
Y316353D02*
D03*
X150100Y306353D02*
D03*
Y316353D02*
D03*
X160100Y306353D02*
D03*
Y316353D02*
D03*
X170100Y306353D02*
D03*
Y316353D02*
D03*
X180100Y306353D02*
D03*
Y316353D02*
D03*
X190100Y306353D02*
D03*
X110300Y346053D02*
D03*
Y336053D02*
D03*
X100300Y346053D02*
D03*
Y336053D02*
D03*
X90300Y346053D02*
D03*
Y336053D02*
D03*
X80300Y346053D02*
D03*
Y336053D02*
D03*
X70300Y346053D02*
D03*
X110300Y383546D02*
D03*
Y373547D02*
D03*
X100300Y383546D02*
D03*
Y373547D02*
D03*
X90300Y383546D02*
D03*
Y373547D02*
D03*
X80300Y383546D02*
D03*
Y373547D02*
D03*
X70300Y383546D02*
D03*
G54D200*
X136969Y288740D02*
D03*
X505807Y307008D02*
D03*
G54D201*
X615519Y300722D02*
D03*
Y314122D02*
D03*
X668519D02*
D03*
Y300722D02*
D03*
G54D202*
X18400Y465453D02*
D03*
Y493053D02*
D03*
G54D203*
X8600Y470353D02*
D03*
Y488153D02*
D03*
G54D204*
X25000Y372053D02*
D03*
Y419375D02*
D03*
G54D205*
X35700Y390753D02*
D03*
Y400674D02*
D03*
X43600D02*
D03*
Y390753D02*
D03*
G54D206*
X655700Y417953D02*
D03*
X669100D02*
D03*
Y364953D02*
D03*
X655700D02*
D03*
G54D366*
X57656Y381717D02*
D03*
G54D367*
X68110Y406893D02*
D03*
G54D368*
X246246Y443015D02*
D03*
X285168Y438101D02*
D03*
X327444Y437711D02*
D03*
X364728Y438101D02*
D03*
X414960Y438257D02*
D03*
X263874Y504323D02*
D03*
X277758D02*
D03*
X301626D02*
D03*
X315198D02*
D03*
X339222D02*
D03*
X352872D02*
D03*
X377052D02*
D03*
X390702D02*
D03*
X414648D02*
D03*
X428376D02*
D03*
X378838Y383996D02*
D03*
X691142Y150925D02*
D03*
X406960Y420653D02*
D03*
X88296Y40716D02*
D03*
X82212Y54288D02*
D03*
X41340Y42666D02*
D03*
X45786Y61776D02*
D03*
X659490Y39390D02*
D03*
X659334Y54990D02*
D03*
X598026Y53742D02*
D03*
X614718Y49842D02*
D03*
X576108Y38844D02*
D03*
X574860Y52026D02*
D03*
X516594Y53976D02*
D03*
X531960Y48906D02*
D03*
X494442Y39234D02*
D03*
X491010Y52416D02*
D03*
X435084Y53196D02*
D03*
X449670Y43836D02*
D03*
X412542Y39936D02*
D03*
X412464Y54366D02*
D03*
X365430Y40950D02*
D03*
Y55146D02*
D03*
X335322Y39624D02*
D03*
X333138Y55770D02*
D03*
X272858Y54288D02*
D03*
X290238Y49140D02*
D03*
X251706Y40092D02*
D03*
X244686Y56160D02*
D03*
X190086Y55068D02*
D03*
X205608Y48672D02*
D03*
X169260Y40014D02*
D03*
X127140Y49062D02*
D03*
X111072Y53976D02*
D03*
X165438Y55536D02*
D03*
X191437Y328287D02*
D03*
X289637Y325638D02*
D03*
X707928Y331631D02*
D03*
X38600Y409101D02*
D03*
X44900Y416853D02*
D03*
X285500Y401501D02*
D03*
X707928Y428819D02*
D03*
X264244Y385109D02*
D03*
X315500Y431501D02*
D03*
X285500Y391501D02*
D03*
X355500Y431501D02*
D03*
X328051Y396791D02*
D03*
X635700Y461410D02*
D03*
X512570Y400726D02*
D03*
X707928Y298871D02*
D03*
Y364235D02*
D03*
X38600Y379101D02*
D03*
X55413Y407150D02*
D03*
X707928Y234131D02*
D03*
X618540Y329837D02*
D03*
X448538Y459874D02*
D03*
X486595Y447051D02*
D03*
X36513Y290977D02*
D03*
X36583Y280205D02*
D03*
X509012Y365002D02*
D03*
X551212Y364601D02*
D03*
X595311Y364602D02*
D03*
X707928Y392003D02*
D03*
X254893Y327202D02*
D03*
X350886Y348661D02*
D03*
X165500Y421501D02*
D03*
X195500Y465438D02*
D03*
X185500Y455438D02*
D03*
Y465438D02*
D03*
X179921Y295709D02*
D03*
X245500Y331501D02*
D03*
X189567Y295905D02*
D03*
X335500Y341501D02*
D03*
X315500Y351501D02*
D03*
X278614Y352793D02*
D03*
X135500Y331501D02*
D03*
X55709Y351501D02*
D03*
X55500Y331501D02*
D03*
X26100Y301753D02*
D03*
X55500Y341501D02*
D03*
Y321501D02*
D03*
X29500Y341501D02*
D03*
X45709Y351501D02*
D03*
X65500Y391501D02*
D03*
X115500Y411501D02*
D03*
X145500D02*
D03*
X175500Y441501D02*
D03*
X613848Y450597D02*
D03*
X135500Y431501D02*
D03*
X115500D02*
D03*
X469012Y424650D02*
D03*
X562570Y404663D02*
D03*
X585311Y394602D02*
D03*
X541212Y394601D02*
D03*
X499012Y395002D02*
D03*
X35500Y441501D02*
D03*
X175500Y455438D02*
D03*
X707928Y468097D02*
D03*
G54D369*
X448200Y350332D02*
D03*
X424578Y328875D02*
D03*
X469657Y309092D02*
D03*
X481468Y324840D02*
D03*
G54D370*
X436024Y379368D02*
D03*
X518830Y430439D02*
D03*
X600300Y500701D02*
D03*
X344476Y329860D02*
D03*
G54D371*
X57579Y384816D02*
D03*
Y378816D02*
D03*
G54D372*
X71012Y406816D02*
D03*
X65012D02*
D03*
M02*
