G04*
G04 #@! TF.GenerationSoftware,Altium Limited,Altium Designer,19.0.12 (326)*
G04*
G04 Layer_Color=32896*
%FSLAX25Y25*%
%MOIN*%
G70*
G01*
G75*
%ADD18C,0.00400*%
%ADD19C,0.00500*%
%ADD26C,0.00600*%
G54D18*
X363229Y345340D02*
X364562D01*
Y343341D01*
X363229D01*
X364562Y344340D02*
X363896D01*
X362563Y343341D02*
Y345340D01*
X361563D01*
X361230Y345007D01*
Y344340D01*
X361563Y344007D01*
X362563D01*
X361896D02*
X361230Y343341D01*
X360563D02*
Y344674D01*
X359897Y345340D01*
X359230Y344674D01*
Y343341D01*
Y344340D01*
X360563D01*
X357231Y345007D02*
X357564Y345340D01*
X358231D01*
X358564Y345007D01*
Y344674D01*
X358231Y344340D01*
X357564D01*
X357231Y344007D01*
Y343674D01*
X357564Y343341D01*
X358231D01*
X358564Y343674D01*
X355232Y345340D02*
X356565D01*
Y343341D01*
X355232D01*
X356565Y344340D02*
X355898D01*
X147764Y338343D02*
Y337010D01*
X147097Y336343D01*
X146431Y337010D01*
Y338343D01*
X145764D02*
Y336343D01*
X144765D01*
X144431Y336677D01*
Y338010D01*
X144765Y338343D01*
X145764D01*
X143765D02*
Y336343D01*
X142765D01*
X142432Y336677D01*
Y338010D01*
X142765Y338343D01*
X143765D01*
X139766Y336343D02*
Y337676D01*
X139100Y338343D01*
X138433Y337676D01*
Y336343D01*
Y337343D01*
X139766D01*
X137767Y336343D02*
Y338343D01*
X136434Y336343D01*
Y338343D01*
X135768Y336343D02*
Y337676D01*
X135101Y338343D01*
X134435Y337676D01*
Y336343D01*
Y337343D01*
X135768D01*
X443380Y466727D02*
X443713Y467060D01*
Y467726D01*
X443380Y468060D01*
X443047D01*
X442714Y467726D01*
Y467393D01*
Y467726D01*
X442380Y468060D01*
X442047D01*
X441714Y467726D01*
Y467060D01*
X442047Y466727D01*
X441714Y468726D02*
X442047D01*
Y469059D01*
X441714D01*
Y468726D01*
X443380Y470392D02*
X443713Y470725D01*
Y471392D01*
X443380Y471725D01*
X443047D01*
X442714Y471392D01*
Y471059D01*
Y471392D01*
X442380Y471725D01*
X442047D01*
X441714Y471392D01*
Y470725D01*
X442047Y470392D01*
X443713Y472392D02*
X442380D01*
X441714Y473058D01*
X442380Y473725D01*
X443713D01*
X443380Y475724D02*
X443713Y475391D01*
Y474724D01*
X443380Y474391D01*
X442047D01*
X441714Y474724D01*
Y475391D01*
X442047Y475724D01*
X443380Y477723D02*
X443713Y477390D01*
Y476723D01*
X443380Y476390D01*
X442047D01*
X441714Y476723D01*
Y477390D01*
X442047Y477723D01*
X522749Y441426D02*
X524082D01*
Y440426D01*
X523416Y440760D01*
X523082D01*
X522749Y440426D01*
Y439760D01*
X523082Y439427D01*
X523749D01*
X524082Y439760D01*
X522083Y441426D02*
Y440093D01*
X521416Y439427D01*
X520750Y440093D01*
Y441426D01*
X520083Y441093D02*
X519750Y441426D01*
X519084D01*
X518750Y441093D01*
Y439760D01*
X519084Y439427D01*
X519750D01*
X520083Y439760D01*
Y441093D01*
X518084Y439093D02*
X516751D01*
X516085Y439427D02*
Y440760D01*
X515418Y441426D01*
X514752Y440760D01*
Y439427D01*
Y440426D01*
X516085D01*
X514085Y441426D02*
Y439760D01*
X513752Y439427D01*
X513086D01*
X512752Y439760D01*
Y441426D01*
X512086D02*
X510753Y439427D01*
Y441426D02*
X512086Y439427D01*
X383591Y356551D02*
X382258D01*
X382924D01*
Y354552D01*
X380258Y356218D02*
X380592Y356551D01*
X381258D01*
X381591Y356218D01*
Y354885D01*
X381258Y354552D01*
X380592D01*
X380258Y354885D01*
X378592Y354552D02*
Y356551D01*
X379592Y355552D01*
X378259D01*
X347272Y342673D02*
X345939D01*
X346605D01*
Y340674D01*
X343939Y342340D02*
X344273Y342673D01*
X344939D01*
X345272Y342340D01*
Y341007D01*
X344939Y340674D01*
X344273D01*
X343939Y341007D01*
X343273Y342340D02*
X342940Y342673D01*
X342273D01*
X341940Y342340D01*
Y342007D01*
X342273Y341674D01*
X342606D01*
X342273D01*
X341940Y341340D01*
Y341007D01*
X342273Y340674D01*
X342940D01*
X343273Y341007D01*
X282360Y344706D02*
X281027D01*
X281694D01*
Y342707D01*
X279028Y344373D02*
X279361Y344706D01*
X280027D01*
X280361Y344373D01*
Y343040D01*
X280027Y342707D01*
X279361D01*
X279028Y343040D01*
X278361Y342707D02*
X277695D01*
X278028D01*
Y344706D01*
X278361Y344373D01*
X317646Y344051D02*
X316313D01*
X316979D01*
Y342052D01*
X314313Y343718D02*
X314647Y344051D01*
X315313D01*
X315646Y343718D01*
Y342385D01*
X315313Y342052D01*
X314647D01*
X314313Y342385D01*
X312314Y342052D02*
X313647D01*
X312314Y343385D01*
Y343718D01*
X312647Y344051D01*
X313314D01*
X313647Y343718D01*
X269802Y331914D02*
X268469D01*
X269135D01*
Y329915D01*
X267803Y331914D02*
Y329915D01*
Y330914D01*
X266470D01*
Y331914D01*
Y329915D01*
X264470Y331914D02*
X265803D01*
Y329915D01*
X264470D01*
X265803Y330914D02*
X265137D01*
X263804Y329915D02*
Y331914D01*
X262804D01*
X262471Y331581D01*
Y330914D01*
X262804Y330581D01*
X263804D01*
X263138D02*
X262471Y329915D01*
X261805D02*
Y331914D01*
X261138Y331248D01*
X260472Y331914D01*
Y329915D01*
X259805D02*
X259139D01*
X259472D01*
Y331914D01*
X259805Y331581D01*
X240874Y332142D02*
X239541D01*
X240208D01*
Y330143D01*
X237542Y331809D02*
X237875Y332142D01*
X238541D01*
X238875Y331809D01*
Y330476D01*
X238541Y330143D01*
X237875D01*
X237542Y330476D01*
X235542Y330143D02*
X236875D01*
X235542Y331475D01*
Y331809D01*
X235876Y332142D01*
X236542D01*
X236875Y331809D01*
X297258Y332382D02*
X295925D01*
X296591D01*
Y330383D01*
X295259Y332382D02*
Y330383D01*
Y331382D01*
X293926D01*
Y332382D01*
Y330383D01*
X291926Y332382D02*
X293259D01*
Y330383D01*
X291926D01*
X293259Y331382D02*
X292593D01*
X291260Y330383D02*
Y332382D01*
X290260D01*
X289927Y332049D01*
Y331382D01*
X290260Y331049D01*
X291260D01*
X290594D02*
X289927Y330383D01*
X289261D02*
Y332382D01*
X288594Y331716D01*
X287928Y332382D01*
Y330383D01*
X287261Y332049D02*
X286928Y332382D01*
X286262D01*
X285928Y332049D01*
Y331716D01*
X286262Y331382D01*
X286595D01*
X286262D01*
X285928Y331049D01*
Y330716D01*
X286262Y330383D01*
X286928D01*
X287261Y330716D01*
X69783Y379366D02*
Y378033D01*
X69117Y377367D01*
X68450Y378033D01*
Y379366D01*
X67784D02*
Y377700D01*
X67451Y377367D01*
X66784D01*
X66451Y377700D01*
Y379366D01*
X64452Y379033D02*
X64785Y379366D01*
X65452D01*
X65785Y379033D01*
Y378700D01*
X65452Y378367D01*
X64785D01*
X64452Y378033D01*
Y377700D01*
X64785Y377367D01*
X65452D01*
X65785Y377700D01*
X63785Y379366D02*
Y377367D01*
X62786D01*
X62453Y377700D01*
Y378033D01*
X62786Y378367D01*
X63785D01*
X62786D01*
X62453Y378700D01*
Y379033D01*
X62786Y379366D01*
X63785D01*
X66563Y351009D02*
Y353008D01*
X65896Y352342D01*
X65230Y353008D01*
Y351009D01*
X63231Y352675D02*
X63564Y353008D01*
X64230D01*
X64564Y352675D01*
Y351342D01*
X64230Y351009D01*
X63564D01*
X63231Y351342D01*
X61231Y352675D02*
X61565Y353008D01*
X62231D01*
X62564Y352675D01*
Y351342D01*
X62231Y351009D01*
X61565D01*
X61231Y351342D01*
X60565Y353008D02*
Y351009D01*
Y351675D01*
X59232Y353008D01*
X60232Y352008D01*
X59232Y351009D01*
X68433Y340280D02*
Y342280D01*
X67767Y341613D01*
X67100Y342280D01*
Y340280D01*
X65101Y341947D02*
X65434Y342280D01*
X66101D01*
X66434Y341947D01*
Y340614D01*
X66101Y340280D01*
X65434D01*
X65101Y340614D01*
X63101Y341947D02*
X63435Y342280D01*
X64101D01*
X64434Y341947D01*
Y340614D01*
X64101Y340280D01*
X63435D01*
X63101Y340614D01*
X62435Y342280D02*
Y340280D01*
X61435D01*
X61102Y340614D01*
Y341947D01*
X61435Y342280D01*
X62435D01*
X60436Y340280D02*
Y341613D01*
X59769Y342280D01*
X59103Y341613D01*
Y340280D01*
Y341280D01*
X60436D01*
X40382Y348154D02*
Y350154D01*
X39715Y349487D01*
X39049Y350154D01*
Y348154D01*
X37050Y349820D02*
X37383Y350154D01*
X38049D01*
X38383Y349820D01*
Y348488D01*
X38049Y348154D01*
X37383D01*
X37050Y348488D01*
X36383Y350154D02*
Y348154D01*
X35383D01*
X35050Y348488D01*
Y349820D01*
X35383Y350154D01*
X36383D01*
X34384Y348154D02*
Y349487D01*
X33717Y350154D01*
X33051Y349487D01*
Y348154D01*
Y349154D01*
X34384D01*
X32384Y348154D02*
X31718D01*
X32051D01*
Y350154D01*
X32384Y349820D01*
X41858Y337820D02*
Y339819D01*
X41192Y339153D01*
X40525Y339819D01*
Y337820D01*
X38526Y339486D02*
X38859Y339819D01*
X39526D01*
X39859Y339486D01*
Y338153D01*
X39526Y337820D01*
X38859D01*
X38526Y338153D01*
X37859Y339819D02*
Y337820D01*
X36860D01*
X36527Y338153D01*
Y339486D01*
X36860Y339819D01*
X37859D01*
X35860Y337820D02*
Y339153D01*
X35194Y339819D01*
X34527Y339153D01*
Y337820D01*
Y338819D01*
X35860D01*
X33861Y339486D02*
X33528Y339819D01*
X32861D01*
X32528Y339486D01*
Y338153D01*
X32861Y337820D01*
X33528D01*
X33861Y338153D01*
Y339486D01*
X51209Y330832D02*
Y332831D01*
X50542Y332165D01*
X49876Y332831D01*
Y330832D01*
X47876Y332498D02*
X48210Y332831D01*
X48876D01*
X49209Y332498D01*
Y331165D01*
X48876Y330832D01*
X48210D01*
X47876Y331165D01*
X47210Y332831D02*
Y330832D01*
X46210D01*
X45877Y331165D01*
Y332498D01*
X46210Y332831D01*
X47210D01*
X45211Y330832D02*
Y332165D01*
X44544Y332831D01*
X43878Y332165D01*
Y330832D01*
Y331831D01*
X45211D01*
X43211Y332498D02*
X42878Y332831D01*
X42211D01*
X41878Y332498D01*
Y332165D01*
X42211Y331831D01*
X42545D01*
X42211D01*
X41878Y331498D01*
Y331165D01*
X42211Y330832D01*
X42878D01*
X43211Y331165D01*
X68827Y319316D02*
Y321315D01*
X68160Y320649D01*
X67494Y321315D01*
Y319316D01*
X65495Y320982D02*
X65828Y321315D01*
X66494D01*
X66827Y320982D01*
Y319649D01*
X66494Y319316D01*
X65828D01*
X65495Y319649D01*
X64828Y321315D02*
Y319316D01*
X63828D01*
X63495Y319649D01*
Y320982D01*
X63828Y321315D01*
X64828D01*
X62829Y319316D02*
Y320649D01*
X62162Y321315D01*
X61496Y320649D01*
Y319316D01*
Y320316D01*
X62829D01*
X59496Y319316D02*
X60829D01*
X59496Y320649D01*
Y320982D01*
X59830Y321315D01*
X60496D01*
X60829Y320982D01*
X124106Y423028D02*
X123773Y423361D01*
X123107D01*
X122773Y423028D01*
Y422695D01*
X123107Y422362D01*
X123440D01*
X123107D01*
X122773Y422029D01*
Y421695D01*
X123107Y421362D01*
X123773D01*
X124106Y421695D01*
X122107Y421362D02*
Y421695D01*
X121774D01*
Y421362D01*
X122107D01*
X120441Y423028D02*
X120107Y423361D01*
X119441D01*
X119108Y423028D01*
Y422695D01*
X119441Y422362D01*
X119774D01*
X119441D01*
X119108Y422029D01*
Y421695D01*
X119441Y421362D01*
X120107D01*
X120441Y421695D01*
X118441Y423361D02*
Y422029D01*
X117775Y421362D01*
X117109Y422029D01*
Y423361D01*
X144291Y427163D02*
X143958Y427496D01*
X143292D01*
X142958Y427163D01*
Y426830D01*
X143292Y426497D01*
X143625D01*
X143292D01*
X142958Y426163D01*
Y425830D01*
X143292Y425497D01*
X143958D01*
X144291Y425830D01*
X142292Y425497D02*
Y425830D01*
X141959D01*
Y425497D01*
X142292D01*
X140626Y427163D02*
X140293Y427496D01*
X139626D01*
X139293Y427163D01*
Y426830D01*
X139626Y426497D01*
X139959D01*
X139626D01*
X139293Y426163D01*
Y425830D01*
X139626Y425497D01*
X140293D01*
X140626Y425830D01*
X138627Y427496D02*
Y426163D01*
X137960Y425497D01*
X137294Y426163D01*
Y427496D01*
X136627D02*
X135961D01*
X136294D01*
Y425497D01*
X136627D01*
X135961D01*
X133961Y427496D02*
X134628D01*
X134961Y427163D01*
Y425830D01*
X134628Y425497D01*
X133961D01*
X133628Y425830D01*
Y427163D01*
X133961Y427496D01*
X158889Y428647D02*
X157556D01*
X156890Y429313D01*
X157556Y429979D01*
X158889D01*
Y430646D02*
X156890D01*
Y431645D01*
X157223Y431979D01*
X158556D01*
X158889Y431645D01*
Y430646D01*
Y432645D02*
X156890D01*
Y433645D01*
X157223Y433978D01*
X158556D01*
X158889Y433645D01*
Y432645D01*
X156890Y434645D02*
X158889D01*
Y435644D01*
X158556Y435977D01*
X157889D01*
X157556Y435644D01*
Y434645D01*
X158889Y436644D02*
X156890D01*
Y437977D01*
X158889Y438643D02*
X156890D01*
Y439976D01*
X180570Y433470D02*
Y432137D01*
X179903Y431471D01*
X179237Y432137D01*
Y433470D01*
X178571D02*
Y431471D01*
X177571D01*
X177238Y431804D01*
Y433137D01*
X177571Y433470D01*
X178571D01*
X176571D02*
Y431471D01*
X175572D01*
X175238Y431804D01*
Y433137D01*
X175572Y433470D01*
X176571D01*
X173572D02*
X174239D01*
X174572Y433137D01*
Y431804D01*
X174239Y431471D01*
X173572D01*
X173239Y431804D01*
Y433137D01*
X173572Y433470D01*
X172573D02*
Y431804D01*
X172239Y431471D01*
X171573D01*
X171240Y431804D01*
Y433470D01*
X170573D02*
X169240D01*
X169907D01*
Y431471D01*
X330701Y403480D02*
X329368D01*
Y403146D01*
X330701Y401814D01*
Y401480D01*
X329368D01*
X328701D02*
Y402813D01*
X328368D01*
X328035Y402480D01*
Y401480D01*
Y402480D01*
X327702Y402813D01*
X327368Y402480D01*
Y401480D01*
X326369Y402813D02*
X325702D01*
X325369Y402480D01*
Y401480D01*
X326369D01*
X326702Y401814D01*
X326369Y402147D01*
X325369D01*
X324703Y402813D02*
X323370Y401480D01*
X324036Y402147D01*
X323370Y402813D01*
X324703Y401480D01*
X289890Y387063D02*
Y386730D01*
X289223Y386064D01*
X288557Y386730D01*
Y387063D01*
X289223Y386064D02*
Y385064D01*
X287890D02*
Y386397D01*
X287557D01*
X287224Y386064D01*
Y385064D01*
Y386064D01*
X286891Y386397D01*
X286558Y386064D01*
Y385064D01*
X285558Y386397D02*
X284891D01*
X284558Y386064D01*
Y385064D01*
X285558D01*
X285891Y385397D01*
X285558Y385730D01*
X284558D01*
X283892Y386397D02*
X282559Y385064D01*
X283225Y385730D01*
X282559Y386397D01*
X283892Y385064D01*
X321976Y436965D02*
Y436631D01*
X321310Y435965D01*
X320643Y436631D01*
Y436965D01*
X321310Y435965D02*
Y434965D01*
X319977D02*
Y436298D01*
X319644D01*
X319310Y435965D01*
Y434965D01*
Y435965D01*
X318977Y436298D01*
X318644Y435965D01*
Y434965D01*
X317978D02*
X317311D01*
X317644D01*
Y436298D01*
X317978D01*
X316312Y434965D02*
Y436298D01*
X315312D01*
X314979Y435965D01*
Y434965D01*
X258591Y376827D02*
X257258Y374828D01*
Y376827D02*
X258591Y374828D01*
X256591D02*
Y376161D01*
X256258D01*
X255925Y375827D01*
Y374828D01*
Y375827D01*
X255592Y376161D01*
X255258Y375827D01*
Y374828D01*
X254259Y376161D02*
X253592D01*
X253259Y375827D01*
Y374828D01*
X254259D01*
X254592Y375161D01*
X254259Y375494D01*
X253259D01*
X252592Y376161D02*
X251260Y374828D01*
X251926Y375494D01*
X251260Y376161D01*
X252592Y374828D01*
X289398Y408520D02*
X288065Y406521D01*
Y408520D02*
X289398Y406521D01*
X287398D02*
Y407853D01*
X287065D01*
X286732Y407520D01*
Y406521D01*
Y407520D01*
X286399Y407853D01*
X286065Y407520D01*
Y406521D01*
X285399D02*
X284733D01*
X285066D01*
Y407853D01*
X285399D01*
X283733Y406521D02*
Y407853D01*
X282733D01*
X282400Y407520D01*
Y406521D01*
X196297Y469067D02*
Y470400D01*
Y469733D01*
X194298D01*
Y471066D02*
X196297D01*
X195631Y471733D01*
X196297Y472399D01*
X194298D01*
X195964Y474398D02*
X196297Y474065D01*
Y473399D01*
X195964Y473065D01*
X195631D01*
X195298Y473399D01*
Y474065D01*
X194964Y474398D01*
X194631D01*
X194298Y474065D01*
Y473399D01*
X194631Y473065D01*
X194298Y475065D02*
X195631Y476398D01*
X195964Y478397D02*
X196297Y478064D01*
Y477397D01*
X195964Y477064D01*
X195631D01*
X195298Y477397D01*
Y478064D01*
X194964Y478397D01*
X194631D01*
X194298Y478064D01*
Y477397D01*
X194631Y477064D01*
X196297Y479064D02*
X194298D01*
X194964Y479730D01*
X194298Y480396D01*
X196297D01*
Y481063D02*
X194298D01*
Y482062D01*
X194631Y482396D01*
X195964D01*
X196297Y482062D01*
Y481063D01*
Y483062D02*
Y483729D01*
Y483395D01*
X194298D01*
Y483062D01*
Y483729D01*
X196297Y485728D02*
Y485062D01*
X195964Y484728D01*
X194631D01*
X194298Y485062D01*
Y485728D01*
X194631Y486061D01*
X195964D01*
X196297Y485728D01*
X733167Y52908D02*
X734500D01*
Y51908D01*
X733834D01*
X734500D01*
Y50909D01*
X732501Y52908D02*
Y50909D01*
X731501D01*
X731168Y51242D01*
Y52575D01*
X731501Y52908D01*
X732501D01*
X730501D02*
X729168D01*
Y52575D01*
X730501Y51242D01*
Y50909D01*
X708567Y530408D02*
X709900D01*
Y529408D01*
X709234D01*
X709900D01*
Y528409D01*
X707901Y530408D02*
Y528409D01*
X706901D01*
X706568Y528742D01*
Y530075D01*
X706901Y530408D01*
X707901D01*
X704568D02*
X705235Y530075D01*
X705901Y529408D01*
Y528742D01*
X705568Y528409D01*
X704902D01*
X704568Y528742D01*
Y529075D01*
X704902Y529408D01*
X705901D01*
X37667Y529008D02*
X39000D01*
Y528008D01*
X38333D01*
X39000D01*
Y527009D01*
X37001Y529008D02*
Y527009D01*
X36001D01*
X35668Y527342D01*
Y528675D01*
X36001Y529008D01*
X37001D01*
X33668D02*
X35001D01*
Y528008D01*
X34335Y528342D01*
X34002D01*
X33668Y528008D01*
Y527342D01*
X34002Y527009D01*
X34668D01*
X35001Y527342D01*
X410748Y503748D02*
X409415D01*
X410081D01*
Y501749D01*
X408749D02*
Y503748D01*
X407749D01*
X407416Y503415D01*
Y502748D01*
X407749Y502415D01*
X408749D01*
X405416Y501749D02*
X406749D01*
X405416Y503082D01*
Y503415D01*
X405750Y503748D01*
X406416D01*
X406749Y503415D01*
X403750Y501749D02*
Y503748D01*
X404750Y502748D01*
X403417D01*
X401418Y503748D02*
X402751D01*
Y501749D01*
X401418D01*
X402751Y502748D02*
X402084D01*
X373074Y508428D02*
X371741D01*
X372408D01*
Y506429D01*
X371075D02*
Y508428D01*
X370075D01*
X369742Y508095D01*
Y507428D01*
X370075Y507095D01*
X371075D01*
X367742Y506429D02*
X369075D01*
X367742Y507762D01*
Y508095D01*
X368076Y508428D01*
X368742D01*
X369075Y508095D01*
X366076Y506429D02*
Y508428D01*
X367076Y507428D01*
X365743D01*
X365077Y508428D02*
Y506429D01*
X364077D01*
X363744Y506762D01*
Y508095D01*
X364077Y508428D01*
X365077D01*
X335634Y504294D02*
X334301D01*
X334967D01*
Y502295D01*
X333635D02*
Y504294D01*
X332635D01*
X332302Y503961D01*
Y503294D01*
X332635Y502961D01*
X333635D01*
X330302Y502295D02*
X331635D01*
X330302Y503628D01*
Y503961D01*
X330636Y504294D01*
X331302D01*
X331635Y503961D01*
X328636Y502295D02*
Y504294D01*
X329636Y503294D01*
X328303D01*
X326304Y503961D02*
X326637Y504294D01*
X327303D01*
X327637Y503961D01*
Y502628D01*
X327303Y502295D01*
X326637D01*
X326304Y502628D01*
X298272Y507960D02*
X296939D01*
X297605D01*
Y505961D01*
X296273D02*
Y507960D01*
X295273D01*
X294940Y507627D01*
Y506960D01*
X295273Y506627D01*
X296273D01*
X292940Y505961D02*
X294273D01*
X292940Y507294D01*
Y507627D01*
X293274Y507960D01*
X293940D01*
X294273Y507627D01*
X291274Y505961D02*
Y507960D01*
X292274Y506960D01*
X290941D01*
X290275Y507960D02*
Y505961D01*
X289275D01*
X288942Y506294D01*
Y506627D01*
X289275Y506960D01*
X290275D01*
X289275D01*
X288942Y507294D01*
Y507627D01*
X289275Y507960D01*
X290275D01*
X259740Y503826D02*
X258407D01*
X259073D01*
Y501827D01*
X257741D02*
Y503826D01*
X256741D01*
X256408Y503493D01*
Y502826D01*
X256741Y502493D01*
X257741D01*
X254408Y501827D02*
X255741D01*
X254408Y503160D01*
Y503493D01*
X254742Y503826D01*
X255408D01*
X255741Y503493D01*
X252742Y501827D02*
Y503826D01*
X253742Y502826D01*
X252409D01*
X251743Y501827D02*
Y503160D01*
X251076Y503826D01*
X250410Y503160D01*
Y501827D01*
Y502826D01*
X251743D01*
X441792Y504138D02*
X440459D01*
X441125D01*
Y502139D01*
X439793D02*
Y504138D01*
X438793D01*
X438460Y503805D01*
Y503138D01*
X438793Y502805D01*
X439793D01*
X436460Y502139D02*
X437793D01*
X436460Y503472D01*
Y503805D01*
X436794Y504138D01*
X437460D01*
X437793Y503805D01*
X435794D02*
X435461Y504138D01*
X434794D01*
X434461Y503805D01*
Y503472D01*
X434794Y503138D01*
X435127D01*
X434794D01*
X434461Y502805D01*
Y502472D01*
X434794Y502139D01*
X435461D01*
X435794Y502472D01*
X432462Y504138D02*
X433795D01*
Y502139D01*
X432462D01*
X433795Y503138D02*
X433128D01*
X403182Y509052D02*
X401849D01*
X402516D01*
Y507053D01*
X401183D02*
Y509052D01*
X400183D01*
X399850Y508719D01*
Y508052D01*
X400183Y507719D01*
X401183D01*
X397850Y507053D02*
X399183D01*
X397850Y508386D01*
Y508719D01*
X398184Y509052D01*
X398850D01*
X399183Y508719D01*
X397184D02*
X396851Y509052D01*
X396184D01*
X395851Y508719D01*
Y508386D01*
X396184Y508052D01*
X396517D01*
X396184D01*
X395851Y507719D01*
Y507386D01*
X396184Y507053D01*
X396851D01*
X397184Y507386D01*
X395185Y509052D02*
Y507053D01*
X394185D01*
X393852Y507386D01*
Y508719D01*
X394185Y509052D01*
X395185D01*
X365976Y504216D02*
X364643D01*
X365310D01*
Y502217D01*
X363977D02*
Y504216D01*
X362977D01*
X362644Y503883D01*
Y503216D01*
X362977Y502883D01*
X363977D01*
X360644Y502217D02*
X361977D01*
X360644Y503550D01*
Y503883D01*
X360978Y504216D01*
X361644D01*
X361977Y503883D01*
X359978D02*
X359645Y504216D01*
X358978D01*
X358645Y503883D01*
Y503550D01*
X358978Y503216D01*
X359312D01*
X358978D01*
X358645Y502883D01*
Y502550D01*
X358978Y502217D01*
X359645D01*
X359978Y502550D01*
X356646Y503883D02*
X356979Y504216D01*
X357645D01*
X357979Y503883D01*
Y502550D01*
X357645Y502217D01*
X356979D01*
X356646Y502550D01*
X328146Y508272D02*
X326813D01*
X327480D01*
Y506273D01*
X326147D02*
Y508272D01*
X325147D01*
X324814Y507939D01*
Y507272D01*
X325147Y506939D01*
X326147D01*
X322814Y506273D02*
X324147D01*
X322814Y507606D01*
Y507939D01*
X323148Y508272D01*
X323814D01*
X324147Y507939D01*
X322148D02*
X321815Y508272D01*
X321148D01*
X320815Y507939D01*
Y507606D01*
X321148Y507272D01*
X321481D01*
X321148D01*
X320815Y506939D01*
Y506606D01*
X321148Y506273D01*
X321815D01*
X322148Y506606D01*
X320149Y508272D02*
Y506273D01*
X319149D01*
X318816Y506606D01*
Y506939D01*
X319149Y507272D01*
X320149D01*
X319149D01*
X318816Y507606D01*
Y507939D01*
X319149Y508272D01*
X320149D01*
X290550Y503982D02*
X289217D01*
X289883D01*
Y501983D01*
X288551D02*
Y503982D01*
X287551D01*
X287218Y503649D01*
Y502982D01*
X287551Y502649D01*
X288551D01*
X285218Y501983D02*
X286551D01*
X285218Y503316D01*
Y503649D01*
X285552Y503982D01*
X286218D01*
X286551Y503649D01*
X284552D02*
X284219Y503982D01*
X283552D01*
X283219Y503649D01*
Y503316D01*
X283552Y502982D01*
X283886D01*
X283552D01*
X283219Y502649D01*
Y502316D01*
X283552Y501983D01*
X284219D01*
X284552Y502316D01*
X282553Y501983D02*
Y503316D01*
X281886Y503982D01*
X281220Y503316D01*
Y501983D01*
Y502982D01*
X282553D01*
X425646Y442830D02*
X424313D01*
X424979D01*
Y440831D01*
X423647D02*
Y442830D01*
X422647D01*
X422314Y442497D01*
Y441830D01*
X422647Y441497D01*
X423647D01*
X421647Y440831D02*
X420981D01*
X421314D01*
Y442830D01*
X421647Y442497D01*
X419981Y440831D02*
X419315D01*
X419648D01*
Y442830D01*
X419981Y442497D01*
X416982Y442830D02*
X418315D01*
Y440831D01*
X416982D01*
X418315Y441830D02*
X417649D01*
X375648Y442128D02*
X374315D01*
X374981D01*
Y440129D01*
X373649D02*
Y442128D01*
X372649D01*
X372316Y441795D01*
Y441128D01*
X372649Y440795D01*
X373649D01*
X371649Y440129D02*
X370983D01*
X371316D01*
Y442128D01*
X371649Y441795D01*
X369983Y440129D02*
X369317D01*
X369650D01*
Y442128D01*
X369983Y441795D01*
X368317Y442128D02*
Y440129D01*
X367317D01*
X366984Y440462D01*
Y441795D01*
X367317Y442128D01*
X368317D01*
X338988Y441738D02*
X337655D01*
X338321D01*
Y439739D01*
X336989D02*
Y441738D01*
X335989D01*
X335656Y441405D01*
Y440738D01*
X335989Y440405D01*
X336989D01*
X334989Y439739D02*
X334323D01*
X334656D01*
Y441738D01*
X334989Y441405D01*
X333323Y439739D02*
X332657D01*
X332990D01*
Y441738D01*
X333323Y441405D01*
X330324D02*
X330657Y441738D01*
X331324D01*
X331657Y441405D01*
Y440072D01*
X331324Y439739D01*
X330657D01*
X330324Y440072D01*
X297102Y442752D02*
X295769D01*
X296435D01*
Y440753D01*
X295103D02*
Y442752D01*
X294103D01*
X293770Y442419D01*
Y441752D01*
X294103Y441419D01*
X295103D01*
X293103Y440753D02*
X292437D01*
X292770D01*
Y442752D01*
X293103Y442419D01*
X291437Y440753D02*
X290771D01*
X291104D01*
Y442752D01*
X291437Y442419D01*
X289771Y442752D02*
Y440753D01*
X288771D01*
X288438Y441086D01*
Y441419D01*
X288771Y441752D01*
X289771D01*
X288771D01*
X288438Y442086D01*
Y442419D01*
X288771Y442752D01*
X289771D01*
X258492Y440334D02*
X257159D01*
X257825D01*
Y438335D01*
X256493D02*
Y440334D01*
X255493D01*
X255160Y440001D01*
Y439334D01*
X255493Y439001D01*
X256493D01*
X254493Y438335D02*
X253827D01*
X254160D01*
Y440334D01*
X254493Y440001D01*
X252827Y438335D02*
X252161D01*
X252494D01*
Y440334D01*
X252827Y440001D01*
X251161Y438335D02*
Y439668D01*
X250495Y440334D01*
X249828Y439668D01*
Y438335D01*
Y439334D01*
X251161D01*
X617000Y56908D02*
X615667D01*
X616333D01*
Y54909D01*
X615001D02*
Y56908D01*
X614001D01*
X613668Y56575D01*
Y55908D01*
X614001Y55575D01*
X615001D01*
X612002Y54909D02*
Y56908D01*
X613001Y55908D01*
X611668D01*
X611002Y54909D02*
X610335D01*
X610669D01*
Y56908D01*
X611002Y56575D01*
X609336Y56908D02*
Y54909D01*
Y55908D01*
X608003D01*
Y56908D01*
Y54909D01*
X534300Y56008D02*
X532967D01*
X533634D01*
Y54009D01*
X532301D02*
Y56008D01*
X531301D01*
X530968Y55675D01*
Y55008D01*
X531301Y54675D01*
X532301D01*
X529302Y54009D02*
Y56008D01*
X530301Y55008D01*
X528968D01*
X528302Y54009D02*
X527635D01*
X527969D01*
Y56008D01*
X528302Y55675D01*
X525303D02*
X525636Y56008D01*
X526302D01*
X526636Y55675D01*
Y54342D01*
X526302Y54009D01*
X525636D01*
X525303Y54342D01*
Y55008D01*
X525969D01*
X451986Y50898D02*
X450653D01*
X451320D01*
Y48899D01*
X449987D02*
Y50898D01*
X448987D01*
X448654Y50565D01*
Y49898D01*
X448987Y49565D01*
X449987D01*
X446988Y48899D02*
Y50898D01*
X447987Y49898D01*
X446654D01*
X445988Y48899D02*
X445322D01*
X445655D01*
Y50898D01*
X445988Y50565D01*
X442989Y50898D02*
X444322D01*
Y49898D01*
X443655D01*
X444322D01*
Y48899D01*
X367771Y62269D02*
X366438D01*
X367104D01*
Y60270D01*
X365771D02*
Y62269D01*
X364772D01*
X364438Y61936D01*
Y61269D01*
X364772Y60936D01*
X365771D01*
X362772Y60270D02*
Y62269D01*
X363772Y61269D01*
X362439D01*
X361772Y60270D02*
X361106D01*
X361439D01*
Y62269D01*
X361772Y61936D01*
X358773Y62269D02*
X360106D01*
Y60270D01*
X358773D01*
X360106Y61269D02*
X359440D01*
X292506Y56265D02*
X291173D01*
X291839D01*
Y54266D01*
X290506D02*
Y56265D01*
X289507D01*
X289173Y55932D01*
Y55266D01*
X289507Y54932D01*
X290506D01*
X287507Y54266D02*
Y56265D01*
X288507Y55266D01*
X287174D01*
X286508Y54266D02*
X285841D01*
X286174D01*
Y56265D01*
X286508Y55932D01*
X284841Y56265D02*
Y54266D01*
X283842D01*
X283509Y54599D01*
Y55932D01*
X283842Y56265D01*
X284841D01*
X207931Y55801D02*
X206598D01*
X207265D01*
Y53802D01*
X205932D02*
Y55801D01*
X204932D01*
X204599Y55468D01*
Y54802D01*
X204932Y54469D01*
X205932D01*
X202933Y53802D02*
Y55801D01*
X203932Y54802D01*
X202600D01*
X201933Y53802D02*
X201267D01*
X201600D01*
Y55801D01*
X201933Y55468D01*
X198934D02*
X199267Y55801D01*
X199934D01*
X200267Y55468D01*
Y54135D01*
X199934Y53802D01*
X199267D01*
X198934Y54135D01*
X129390Y56187D02*
X128057D01*
X128724D01*
Y54188D01*
X127391D02*
Y56187D01*
X126391D01*
X126058Y55854D01*
Y55188D01*
X126391Y54854D01*
X127391D01*
X124392Y54188D02*
Y56187D01*
X125392Y55188D01*
X124059D01*
X123392Y54188D02*
X122726D01*
X123059D01*
Y56187D01*
X123392Y55854D01*
X121726Y56187D02*
Y54188D01*
X120727D01*
X120393Y54521D01*
Y54854D01*
X120727Y55188D01*
X121726D01*
X120727D01*
X120393Y55521D01*
Y55854D01*
X120727Y56187D01*
X121726D01*
X48128Y68901D02*
X46795D01*
X47461D01*
Y66902D01*
X46128D02*
Y68901D01*
X45129D01*
X44795Y68568D01*
Y67902D01*
X45129Y67568D01*
X46128D01*
X43129Y66902D02*
Y68901D01*
X44129Y67902D01*
X42796D01*
X42130Y66902D02*
X41463D01*
X41796D01*
Y68901D01*
X42130Y68568D01*
X40464Y66902D02*
Y68235D01*
X39797Y68901D01*
X39131Y68235D01*
Y66902D01*
Y67902D01*
X40464D01*
X600300Y60808D02*
X598967D01*
X599634D01*
Y58809D01*
X598301D02*
Y60808D01*
X597301D01*
X596968Y60475D01*
Y59808D01*
X597301Y59475D01*
X598301D01*
X596301Y60475D02*
X595968Y60808D01*
X595302D01*
X594968Y60475D01*
Y60142D01*
X595302Y59808D01*
X595635D01*
X595302D01*
X594968Y59475D01*
Y59142D01*
X595302Y58809D01*
X595968D01*
X596301Y59142D01*
X593302Y58809D02*
Y60808D01*
X594302Y59808D01*
X592969D01*
X592303Y60808D02*
Y58809D01*
Y59808D01*
X590970D01*
Y60808D01*
Y58809D01*
X518900Y61108D02*
X517567D01*
X518233D01*
Y59109D01*
X516901D02*
Y61108D01*
X515901D01*
X515568Y60775D01*
Y60108D01*
X515901Y59775D01*
X516901D01*
X514901Y60775D02*
X514568Y61108D01*
X513902D01*
X513568Y60775D01*
Y60442D01*
X513902Y60108D01*
X514235D01*
X513902D01*
X513568Y59775D01*
Y59442D01*
X513902Y59109D01*
X514568D01*
X514901Y59442D01*
X511902Y59109D02*
Y61108D01*
X512902Y60108D01*
X511569D01*
X509570Y60775D02*
X509903Y61108D01*
X510569D01*
X510903Y60775D01*
Y59442D01*
X510569Y59109D01*
X509903D01*
X509570Y59442D01*
Y60108D01*
X510236D01*
X437400Y60308D02*
X436067D01*
X436733D01*
Y58309D01*
X435401D02*
Y60308D01*
X434401D01*
X434068Y59975D01*
Y59308D01*
X434401Y58975D01*
X435401D01*
X433401Y59975D02*
X433068Y60308D01*
X432402D01*
X432068Y59975D01*
Y59642D01*
X432402Y59308D01*
X432735D01*
X432402D01*
X432068Y58975D01*
Y58642D01*
X432402Y58309D01*
X433068D01*
X433401Y58642D01*
X430402Y58309D02*
Y60308D01*
X431402Y59308D01*
X430069D01*
X428070Y60308D02*
X429403D01*
Y59308D01*
X428736D01*
X429403D01*
Y58309D01*
X367752Y48043D02*
X366419D01*
X367085D01*
Y46044D01*
X365752D02*
Y48043D01*
X364753D01*
X364419Y47710D01*
Y47043D01*
X364753Y46710D01*
X365752D01*
X363753Y47710D02*
X363420Y48043D01*
X362753D01*
X362420Y47710D01*
Y47377D01*
X362753Y47043D01*
X363087D01*
X362753D01*
X362420Y46710D01*
Y46377D01*
X362753Y46044D01*
X363420D01*
X363753Y46377D01*
X360754Y46044D02*
Y48043D01*
X361754Y47043D01*
X360421D01*
X358421Y48043D02*
X359754D01*
Y46044D01*
X358421D01*
X359754Y47043D02*
X359088D01*
X275207Y61383D02*
X273874D01*
X274540D01*
Y59384D01*
X273207D02*
Y61383D01*
X272208D01*
X271874Y61050D01*
Y60384D01*
X272208Y60050D01*
X273207D01*
X271208Y61050D02*
X270875Y61383D01*
X270208D01*
X269875Y61050D01*
Y60717D01*
X270208Y60384D01*
X270542D01*
X270208D01*
X269875Y60050D01*
Y59717D01*
X270208Y59384D01*
X270875D01*
X271208Y59717D01*
X268209Y59384D02*
Y61383D01*
X269209Y60384D01*
X267876D01*
X267209Y61383D02*
Y59384D01*
X266210D01*
X265877Y59717D01*
Y61050D01*
X266210Y61383D01*
X267209D01*
X192390Y62168D02*
X191057D01*
X191724D01*
Y60168D01*
X190391D02*
Y62168D01*
X189391D01*
X189058Y61834D01*
Y61168D01*
X189391Y60835D01*
X190391D01*
X188392Y61834D02*
X188058Y62168D01*
X187392D01*
X187059Y61834D01*
Y61501D01*
X187392Y61168D01*
X187725D01*
X187392D01*
X187059Y60835D01*
Y60501D01*
X187392Y60168D01*
X188058D01*
X188392Y60501D01*
X185393Y60168D02*
Y62168D01*
X186392Y61168D01*
X185059D01*
X183060Y61834D02*
X183393Y62168D01*
X184060D01*
X184393Y61834D01*
Y60501D01*
X184060Y60168D01*
X183393D01*
X183060Y60501D01*
X113403Y61071D02*
X112071D01*
X112737D01*
Y59072D01*
X111404D02*
Y61071D01*
X110404D01*
X110071Y60738D01*
Y60072D01*
X110404Y59738D01*
X111404D01*
X109405Y60738D02*
X109072Y61071D01*
X108405D01*
X108072Y60738D01*
Y60405D01*
X108405Y60072D01*
X108738D01*
X108405D01*
X108072Y59738D01*
Y59405D01*
X108405Y59072D01*
X109072D01*
X109405Y59405D01*
X106406Y59072D02*
Y61071D01*
X107405Y60072D01*
X106072D01*
X105406Y61071D02*
Y59072D01*
X104406D01*
X104073Y59405D01*
Y59738D01*
X104406Y60072D01*
X105406D01*
X104406D01*
X104073Y60405D01*
Y60738D01*
X104406Y61071D01*
X105406D01*
X43663Y49761D02*
X42330D01*
X42996D01*
Y47762D01*
X41664D02*
Y49761D01*
X40664D01*
X40330Y49428D01*
Y48762D01*
X40664Y48428D01*
X41664D01*
X39664Y49428D02*
X39331Y49761D01*
X38664D01*
X38331Y49428D01*
Y49095D01*
X38664Y48762D01*
X38998D01*
X38664D01*
X38331Y48428D01*
Y48095D01*
X38664Y47762D01*
X39331D01*
X39664Y48095D01*
X36665Y47762D02*
Y49761D01*
X37665Y48762D01*
X36332D01*
X35665Y47762D02*
Y49095D01*
X34999Y49761D01*
X34332Y49095D01*
Y47762D01*
Y48762D01*
X35665D01*
X661641Y62085D02*
X660308D01*
X660975D01*
Y60086D01*
X659642D02*
Y62085D01*
X658642D01*
X658309Y61752D01*
Y61086D01*
X658642Y60752D01*
X659642D01*
X657643Y61752D02*
X657309Y62085D01*
X656643D01*
X656310Y61752D01*
Y61419D01*
X656643Y61086D01*
X656976D01*
X656643D01*
X656310Y60752D01*
Y60419D01*
X656643Y60086D01*
X657309D01*
X657643Y60419D01*
X655643Y62085D02*
Y60086D01*
Y61086D01*
X654310D01*
Y62085D01*
Y60086D01*
X577167Y59121D02*
X575834D01*
X576501D01*
Y57122D01*
X575168D02*
Y59121D01*
X574168D01*
X573835Y58788D01*
Y58122D01*
X574168Y57788D01*
X575168D01*
X573169Y58788D02*
X572835Y59121D01*
X572169D01*
X571836Y58788D01*
Y58455D01*
X572169Y58122D01*
X572502D01*
X572169D01*
X571836Y57788D01*
Y57455D01*
X572169Y57122D01*
X572835D01*
X573169Y57455D01*
X569836Y58788D02*
X570169Y59121D01*
X570836D01*
X571169Y58788D01*
Y57455D01*
X570836Y57122D01*
X570169D01*
X569836Y57455D01*
Y58122D01*
X570503D01*
X493317Y59511D02*
X491984D01*
X492651D01*
Y57512D01*
X491318D02*
Y59511D01*
X490318D01*
X489985Y59178D01*
Y58512D01*
X490318Y58179D01*
X491318D01*
X489319Y59178D02*
X488985Y59511D01*
X488319D01*
X487986Y59178D01*
Y58845D01*
X488319Y58512D01*
X488652D01*
X488319D01*
X487986Y58179D01*
Y57845D01*
X488319Y57512D01*
X488985D01*
X489319Y57845D01*
X485986Y59511D02*
X487319D01*
Y58512D01*
X486653D01*
X487319D01*
Y57512D01*
X414727Y61459D02*
X413394D01*
X414060D01*
Y59460D01*
X412727D02*
Y61459D01*
X411728D01*
X411395Y61126D01*
Y60459D01*
X411728Y60126D01*
X412727D01*
X410728Y61126D02*
X410395Y61459D01*
X409728D01*
X409395Y61126D01*
Y60793D01*
X409728Y60459D01*
X410062D01*
X409728D01*
X409395Y60126D01*
Y59793D01*
X409728Y59460D01*
X410395D01*
X410728Y59793D01*
X407396Y61459D02*
X408729D01*
Y59460D01*
X407396D01*
X408729Y60459D02*
X408062D01*
X335428Y62865D02*
X334095D01*
X334761D01*
Y60866D01*
X333429D02*
Y62865D01*
X332429D01*
X332096Y62532D01*
Y61866D01*
X332429Y61532D01*
X333429D01*
X331429Y62532D02*
X331096Y62865D01*
X330430D01*
X330096Y62532D01*
Y62199D01*
X330430Y61866D01*
X330763D01*
X330430D01*
X330096Y61532D01*
Y61199D01*
X330430Y60866D01*
X331096D01*
X331429Y61199D01*
X329430Y62865D02*
Y60866D01*
X328430D01*
X328097Y61199D01*
Y62532D01*
X328430Y62865D01*
X329430D01*
X247031Y63260D02*
X245698D01*
X246365D01*
Y61260D01*
X245032D02*
Y63260D01*
X244032D01*
X243699Y62926D01*
Y62260D01*
X244032Y61927D01*
X245032D01*
X243033Y62926D02*
X242699Y63260D01*
X242033D01*
X241700Y62926D01*
Y62593D01*
X242033Y62260D01*
X242366D01*
X242033D01*
X241700Y61927D01*
Y61593D01*
X242033Y61260D01*
X242699D01*
X243033Y61593D01*
X239700Y62926D02*
X240034Y63260D01*
X240700D01*
X241033Y62926D01*
Y61593D01*
X240700Y61260D01*
X240034D01*
X239700Y61593D01*
X167710Y62631D02*
X166378D01*
X167044D01*
Y60632D01*
X165711D02*
Y62631D01*
X164711D01*
X164378Y62298D01*
Y61632D01*
X164711Y61299D01*
X165711D01*
X163712Y62298D02*
X163379Y62631D01*
X162712D01*
X162379Y62298D01*
Y61965D01*
X162712Y61632D01*
X163045D01*
X162712D01*
X162379Y61299D01*
Y60965D01*
X162712Y60632D01*
X163379D01*
X163712Y60965D01*
X161713Y62631D02*
Y60632D01*
X160713D01*
X160380Y60965D01*
Y61299D01*
X160713Y61632D01*
X161713D01*
X160713D01*
X160380Y61965D01*
Y62298D01*
X160713Y62631D01*
X161713D01*
X84476Y61383D02*
X83143D01*
X83809D01*
Y59384D01*
X82477D02*
Y61383D01*
X81477D01*
X81144Y61050D01*
Y60384D01*
X81477Y60050D01*
X82477D01*
X80477Y61050D02*
X80144Y61383D01*
X79478D01*
X79144Y61050D01*
Y60717D01*
X79478Y60384D01*
X79811D01*
X79478D01*
X79144Y60050D01*
Y59717D01*
X79478Y59384D01*
X80144D01*
X80477Y59717D01*
X78478Y59384D02*
Y60717D01*
X77811Y61383D01*
X77145Y60717D01*
Y59384D01*
Y60384D01*
X78478D01*
X686634Y154620D02*
X685301D01*
X685967D01*
Y152621D01*
X684635D02*
Y154620D01*
X683635D01*
X683302Y154287D01*
Y153620D01*
X683635Y153287D01*
X684635D01*
X682635Y154287D02*
X682302Y154620D01*
X681636D01*
X681302Y154287D01*
Y153954D01*
X681636Y153620D01*
X681969D01*
X681636D01*
X681302Y153287D01*
Y152954D01*
X681636Y152621D01*
X682302D01*
X682635Y152954D01*
X680636Y154287D02*
X680303Y154620D01*
X679636D01*
X679303Y154287D01*
Y153954D01*
X679636Y153620D01*
X679970D01*
X679636D01*
X679303Y153287D01*
Y152954D01*
X679636Y152621D01*
X680303D01*
X680636Y152954D01*
X711492Y328639D02*
X710160D01*
X710826D01*
Y326639D01*
X709493D02*
Y328639D01*
X708494D01*
X708160Y328306D01*
Y327639D01*
X708494Y327306D01*
X709493D01*
X706161Y328639D02*
X707494D01*
Y327639D01*
X706827Y327972D01*
X706494D01*
X706161Y327639D01*
Y326973D01*
X706494Y326639D01*
X707161D01*
X707494Y326973D01*
X705494Y326639D02*
X704828D01*
X705161D01*
Y328639D01*
X705494Y328306D01*
X661795Y46514D02*
X660462D01*
X661128D01*
Y44514D01*
X659795D02*
Y46514D01*
X658796D01*
X658462Y46180D01*
Y45514D01*
X658796Y45181D01*
X659795D01*
X657796Y44514D02*
X657129D01*
X657463D01*
Y46514D01*
X657796Y46180D01*
X654797Y44514D02*
X656130D01*
X654797Y45847D01*
Y46180D01*
X655130Y46514D01*
X655797D01*
X656130Y46180D01*
X654131Y46514D02*
Y44514D01*
Y45514D01*
X652798D01*
Y46514D01*
Y44514D01*
X578413Y45968D02*
X577080D01*
X577746D01*
Y43968D01*
X576413D02*
Y45968D01*
X575414D01*
X575080Y45634D01*
Y44968D01*
X575414Y44635D01*
X576413D01*
X574414Y43968D02*
X573747D01*
X574081D01*
Y45968D01*
X574414Y45634D01*
X571415Y43968D02*
X572748D01*
X571415Y45301D01*
Y45634D01*
X571748Y45968D01*
X572415D01*
X572748Y45634D01*
X569416D02*
X569749Y45968D01*
X570415D01*
X570749Y45634D01*
Y44302D01*
X570415Y43968D01*
X569749D01*
X569416Y44302D01*
Y44968D01*
X570082D01*
X496747Y46358D02*
X495414D01*
X496080D01*
Y44358D01*
X494747D02*
Y46358D01*
X493748D01*
X493414Y46025D01*
Y45358D01*
X493748Y45025D01*
X494747D01*
X492748Y44358D02*
X492081D01*
X492415D01*
Y46358D01*
X492748Y46025D01*
X489749Y44358D02*
X491082D01*
X489749Y45691D01*
Y46025D01*
X490082Y46358D01*
X490749D01*
X491082Y46025D01*
X487750Y46358D02*
X489082D01*
Y45358D01*
X488416D01*
X489082D01*
Y44358D01*
X414802Y47058D02*
X413469D01*
X414136D01*
Y45058D01*
X412803D02*
Y47058D01*
X411803D01*
X411470Y46724D01*
Y46058D01*
X411803Y45725D01*
X412803D01*
X410804Y45058D02*
X410137D01*
X410470D01*
Y47058D01*
X410804Y46724D01*
X407804Y45058D02*
X409137D01*
X407804Y46391D01*
Y46724D01*
X408138Y47058D01*
X408804D01*
X409137Y46724D01*
X405805Y47058D02*
X407138D01*
Y45058D01*
X405805D01*
X407138Y46058D02*
X406472D01*
X337609Y46748D02*
X336277D01*
X336943D01*
Y44748D01*
X335610D02*
Y46748D01*
X334610D01*
X334277Y46415D01*
Y45748D01*
X334610Y45415D01*
X335610D01*
X333611Y44748D02*
X332944D01*
X333277D01*
Y46748D01*
X333611Y46415D01*
X330612Y44748D02*
X331944D01*
X330612Y46081D01*
Y46415D01*
X330945Y46748D01*
X331611D01*
X331944Y46415D01*
X329945Y46748D02*
Y44748D01*
X328945D01*
X328612Y45082D01*
Y46415D01*
X328945Y46748D01*
X329945D01*
X254049Y47220D02*
X252716D01*
X253382D01*
Y45221D01*
X252049D02*
Y47220D01*
X251050D01*
X250717Y46887D01*
Y46220D01*
X251050Y45887D01*
X252049D01*
X250050Y45221D02*
X249384D01*
X249717D01*
Y47220D01*
X250050Y46887D01*
X247051Y45221D02*
X248384D01*
X247051Y46553D01*
Y46887D01*
X247384Y47220D01*
X248051D01*
X248384Y46887D01*
X245052D02*
X245385Y47220D01*
X246052D01*
X246385Y46887D01*
Y45554D01*
X246052Y45221D01*
X245385D01*
X245052Y45554D01*
X171530Y47138D02*
X170197D01*
X170864D01*
Y45138D01*
X169531D02*
Y47138D01*
X168531D01*
X168198Y46804D01*
Y46138D01*
X168531Y45805D01*
X169531D01*
X167531Y45138D02*
X166865D01*
X167198D01*
Y47138D01*
X167531Y46804D01*
X164532Y45138D02*
X165865D01*
X164532Y46471D01*
Y46804D01*
X164866Y47138D01*
X165532D01*
X165865Y46804D01*
X163866Y47138D02*
Y45138D01*
X162866D01*
X162533Y45472D01*
Y45805D01*
X162866Y46138D01*
X163866D01*
X162866D01*
X162533Y46471D01*
Y46804D01*
X162866Y47138D01*
X163866D01*
X90557Y47840D02*
X89224D01*
X89891D01*
Y45840D01*
X88558D02*
Y47840D01*
X87558D01*
X87225Y47506D01*
Y46840D01*
X87558Y46507D01*
X88558D01*
X86559Y45840D02*
X85892D01*
X86225D01*
Y47840D01*
X86559Y47506D01*
X83560Y45840D02*
X84893D01*
X83560Y47173D01*
Y47506D01*
X83893Y47840D01*
X84559D01*
X84893Y47506D01*
X82893Y45840D02*
Y47173D01*
X82227Y47840D01*
X81560Y47173D01*
Y45840D01*
Y46840D01*
X82893D01*
X411528Y427308D02*
X410195D01*
X410861D01*
Y425309D01*
X409529D02*
Y427308D01*
X408529D01*
X408196Y426975D01*
Y426308D01*
X408529Y425975D01*
X409529D01*
X407529Y426975D02*
X407196Y427308D01*
X406530D01*
X406196Y426975D01*
Y426642D01*
X406530Y426308D01*
X406196Y425975D01*
Y425642D01*
X406530Y425309D01*
X407196D01*
X407529Y425642D01*
Y425975D01*
X407196Y426308D01*
X407529Y426642D01*
Y426975D01*
X407196Y426308D02*
X406530D01*
X404197Y425309D02*
X405530D01*
X404197Y426642D01*
Y426975D01*
X404530Y427308D01*
X405197D01*
X405530Y426975D01*
X384150Y380196D02*
X382817D01*
X383484D01*
Y378197D01*
X382151D02*
Y380196D01*
X381151D01*
X380818Y379863D01*
Y379196D01*
X381151Y378863D01*
X382151D01*
X380151Y378197D02*
X379485D01*
X379818D01*
Y380196D01*
X380151Y379863D01*
X378485Y378530D02*
X378152Y378197D01*
X377485D01*
X377152Y378530D01*
Y379863D01*
X377485Y380196D01*
X378152D01*
X378485Y379863D01*
Y379530D01*
X378152Y379196D01*
X377152D01*
X426900Y335952D02*
X425567D01*
X426233D01*
Y333953D01*
X424901D02*
Y335952D01*
X423901D01*
X423568Y335619D01*
Y334952D01*
X423901Y334619D01*
X424901D01*
X422901Y333953D02*
X422235D01*
X422568D01*
Y335952D01*
X422901Y335619D01*
X421235D02*
X420902Y335952D01*
X420235D01*
X419902Y335619D01*
Y335286D01*
X420235Y334952D01*
X419902Y334619D01*
Y334286D01*
X420235Y333953D01*
X420902D01*
X421235Y334286D01*
Y334619D01*
X420902Y334952D01*
X421235Y335286D01*
Y335619D01*
X420902Y334952D02*
X420235D01*
X472000Y316152D02*
X470667D01*
X471334D01*
Y314153D01*
X470001D02*
Y316152D01*
X469001D01*
X468668Y315819D01*
Y315152D01*
X469001Y314819D01*
X470001D01*
X468001Y314153D02*
X467335D01*
X467668D01*
Y316152D01*
X468001Y315819D01*
X466335Y316152D02*
X465002D01*
Y315819D01*
X466335Y314486D01*
Y314153D01*
X438300Y386452D02*
X436967D01*
X437634D01*
Y384453D01*
X436301D02*
Y386452D01*
X435301D01*
X434968Y386119D01*
Y385452D01*
X435301Y385119D01*
X436301D01*
X434301Y386119D02*
X433968Y386452D01*
X433302D01*
X432968Y386119D01*
Y385786D01*
X433302Y385452D01*
X432968Y385119D01*
Y384786D01*
X433302Y384453D01*
X433968D01*
X434301Y384786D01*
Y385119D01*
X433968Y385452D01*
X434301Y385786D01*
Y386119D01*
X433968Y385452D02*
X433302D01*
X450500Y357452D02*
X449167D01*
X449833D01*
Y355453D01*
X448501D02*
Y357452D01*
X447501D01*
X447168Y357119D01*
Y356452D01*
X447501Y356119D01*
X448501D01*
X445168Y355453D02*
X446501D01*
X445168Y356786D01*
Y357119D01*
X445502Y357452D01*
X446168D01*
X446501Y357119D01*
X483800Y331952D02*
X482467D01*
X483134D01*
Y329953D01*
X481801D02*
Y331952D01*
X480801D01*
X480468Y331619D01*
Y330952D01*
X480801Y330619D01*
X481801D01*
X479801Y329953D02*
X479135D01*
X479468D01*
Y331952D01*
X479801Y331619D01*
X521981Y436289D02*
X520648D01*
X521314D01*
Y434290D01*
X519981D02*
Y436289D01*
X518982D01*
X518649Y435956D01*
Y435290D01*
X518982Y434956D01*
X519981D01*
X517982Y436289D02*
X516649D01*
Y435956D01*
X517982Y434623D01*
Y434290D01*
X47200Y423952D02*
X45867D01*
X46534D01*
Y421953D01*
X45201D02*
Y423952D01*
X44201D01*
X43868Y423619D01*
Y422952D01*
X44201Y422619D01*
X45201D01*
X41868Y423952D02*
X42535Y423619D01*
X43201Y422952D01*
Y422286D01*
X42868Y421953D01*
X42202D01*
X41868Y422286D01*
Y422619D01*
X42202Y422952D01*
X43201D01*
X40900Y416152D02*
X39567D01*
X40233D01*
Y414153D01*
X38901D02*
Y416152D01*
X37901D01*
X37568Y415819D01*
Y415152D01*
X37901Y414819D01*
X38901D01*
X35568Y416152D02*
X36901D01*
Y415152D01*
X36235Y415486D01*
X35902D01*
X35568Y415152D01*
Y414486D01*
X35902Y414153D01*
X36568D01*
X36901Y414486D01*
X602600Y507752D02*
X601267D01*
X601933D01*
Y505753D01*
X600601D02*
Y507752D01*
X599601D01*
X599268Y507419D01*
Y506752D01*
X599601Y506419D01*
X600601D01*
X597268Y507752D02*
X597935Y507419D01*
X598601Y506752D01*
Y506086D01*
X598268Y505753D01*
X597602D01*
X597268Y506086D01*
Y506419D01*
X597602Y506752D01*
X598601D01*
X596602Y506086D02*
X596269Y505753D01*
X595602D01*
X595269Y506086D01*
Y507419D01*
X595602Y507752D01*
X596269D01*
X596602Y507419D01*
Y507086D01*
X596269Y506752D01*
X595269D01*
X340625Y335225D02*
X339292D01*
X339959D01*
Y333226D01*
X338626D02*
Y335225D01*
X337626D01*
X337293Y334892D01*
Y334226D01*
X337626Y333892D01*
X338626D01*
X335627Y333226D02*
Y335225D01*
X336626Y334226D01*
X335294D01*
X285405Y328838D02*
X284072D01*
X284739D01*
Y326839D01*
X283406D02*
Y328838D01*
X282406D01*
X282073Y328505D01*
Y327839D01*
X282406Y327505D01*
X283406D01*
X281406Y326839D02*
X280740D01*
X281073D01*
Y328838D01*
X281406Y328505D01*
X279740D02*
X279407Y328838D01*
X278741D01*
X278407Y328505D01*
Y327172D01*
X278741Y326839D01*
X279407D01*
X279740Y327172D01*
Y328505D01*
X241071Y335882D02*
X239738D01*
X240404D01*
Y333883D01*
X239071D02*
Y335882D01*
X238072D01*
X237739Y335549D01*
Y334882D01*
X238072Y334549D01*
X239071D01*
X237072Y334216D02*
X236739Y333883D01*
X236072D01*
X235739Y334216D01*
Y335549D01*
X236072Y335882D01*
X236739D01*
X237072Y335549D01*
Y335216D01*
X236739Y334882D01*
X235739D01*
X704089Y430287D02*
X702757D01*
X703423D01*
Y428287D01*
X702090D02*
Y430287D01*
X701090D01*
X700757Y429953D01*
Y429287D01*
X701090Y428954D01*
X702090D01*
X699091Y428287D02*
Y430287D01*
X700091Y429287D01*
X698758D01*
X698091Y429953D02*
X697758Y430287D01*
X697092D01*
X696758Y429953D01*
Y429620D01*
X697092Y429287D01*
X697425D01*
X697092D01*
X696758Y428954D01*
Y428620D01*
X697092Y428287D01*
X697758D01*
X698091Y428620D01*
X705744Y304692D02*
X704411D01*
X705078D01*
Y302693D01*
X703745D02*
Y304692D01*
X702745D01*
X702412Y304359D01*
Y303692D01*
X702745Y303359D01*
X703745D01*
X700746Y302693D02*
Y304692D01*
X701745Y303692D01*
X700412D01*
X699746Y304359D02*
X699413Y304692D01*
X698746D01*
X698413Y304359D01*
Y304026D01*
X698746Y303692D01*
X698413Y303359D01*
Y303026D01*
X698746Y302693D01*
X699413D01*
X699746Y303026D01*
Y303359D01*
X699413Y303692D01*
X699746Y304026D01*
Y304359D01*
X699413Y303692D02*
X698746D01*
X709800Y359604D02*
X708467D01*
X709133D01*
Y357605D01*
X707801D02*
Y359604D01*
X706801D01*
X706468Y359271D01*
Y358604D01*
X706801Y358271D01*
X707801D01*
X704802Y357605D02*
Y359604D01*
X705801Y358604D01*
X704468D01*
X702802Y357605D02*
Y359604D01*
X703802Y358604D01*
X702469D01*
X48245Y383468D02*
X46912D01*
X47579D01*
Y381468D01*
X46246D02*
Y383468D01*
X45246D01*
X44913Y383135D01*
Y382468D01*
X45246Y382135D01*
X46246D01*
X42913Y383468D02*
X43580Y383135D01*
X44246Y382468D01*
Y381802D01*
X43913Y381468D01*
X43247D01*
X42913Y381802D01*
Y382135D01*
X43247Y382468D01*
X44246D01*
X42247Y383135D02*
X41914Y383468D01*
X41247D01*
X40914Y383135D01*
Y381802D01*
X41247Y381468D01*
X41914D01*
X42247Y381802D01*
Y383135D01*
X56288Y404022D02*
X54955D01*
X55622D01*
Y402022D01*
X54289D02*
Y404022D01*
X53289D01*
X52956Y403688D01*
Y403022D01*
X53289Y402689D01*
X54289D01*
X50956Y404022D02*
X51623Y403688D01*
X52289Y403022D01*
Y402356D01*
X51956Y402022D01*
X51290D01*
X50956Y402356D01*
Y402689D01*
X51290Y403022D01*
X52289D01*
X50290Y402022D02*
X49624D01*
X49957D01*
Y404022D01*
X50290Y403688D01*
X714168Y228954D02*
X712835D01*
X713502D01*
Y226955D01*
X712169D02*
Y228954D01*
X711169D01*
X710836Y228621D01*
Y227954D01*
X711169Y227621D01*
X712169D01*
X710169Y228954D02*
X708836D01*
Y228621D01*
X710169Y227288D01*
Y226955D01*
X708170Y227288D02*
X707837Y226955D01*
X707170D01*
X706837Y227288D01*
Y228621D01*
X707170Y228954D01*
X707837D01*
X708170Y228621D01*
Y228288D01*
X707837Y227954D01*
X706837D01*
X622514Y326801D02*
X621181D01*
X621847D01*
Y324801D01*
X620515D02*
Y326801D01*
X619515D01*
X619182Y326467D01*
Y325801D01*
X619515Y325468D01*
X620515D01*
X617516Y324801D02*
Y326801D01*
X618515Y325801D01*
X617182D01*
X615183Y326801D02*
X615849Y326467D01*
X616516Y325801D01*
Y325134D01*
X616183Y324801D01*
X615516D01*
X615183Y325134D01*
Y325468D01*
X615516Y325801D01*
X616516D01*
X448003Y467117D02*
Y468450D01*
Y467783D01*
X446004D01*
Y469116D02*
X448003D01*
Y470116D01*
X447670Y470449D01*
X447004D01*
X446670Y470116D01*
Y469116D01*
X446004Y472115D02*
X448003D01*
X447004Y471115D01*
Y472448D01*
X448003Y473115D02*
Y474448D01*
X447670D01*
X446337Y473115D01*
X446004D01*
X489918Y442674D02*
X488585D01*
X489252D01*
Y440675D01*
X487919D02*
Y442674D01*
X486919D01*
X486586Y442341D01*
Y441674D01*
X486919Y441341D01*
X487919D01*
X485919Y442341D02*
X485586Y442674D01*
X484920D01*
X484586Y442341D01*
Y442008D01*
X484920Y441674D01*
X485253D01*
X484920D01*
X484586Y441341D01*
Y441008D01*
X484920Y440675D01*
X485586D01*
X485919Y441008D01*
X482587Y442674D02*
X483253Y442341D01*
X483920Y441674D01*
Y441008D01*
X483587Y440675D01*
X482920D01*
X482587Y441008D01*
Y441341D01*
X482920Y441674D01*
X483920D01*
X48438Y291510D02*
X47105D01*
X47771D01*
Y289511D01*
X46439D02*
Y291510D01*
X45439D01*
X45106Y291177D01*
Y290510D01*
X45439Y290177D01*
X46439D01*
X44439Y291510D02*
X43106D01*
Y291177D01*
X44439Y289844D01*
Y289511D01*
X42440Y291177D02*
X42107Y291510D01*
X41440D01*
X41107Y291177D01*
Y290844D01*
X41440Y290510D01*
X41107Y290177D01*
Y289844D01*
X41440Y289511D01*
X42107D01*
X42440Y289844D01*
Y290177D01*
X42107Y290510D01*
X42440Y290844D01*
Y291177D01*
X42107Y290510D02*
X41440D01*
X36972Y276378D02*
X35639D01*
X36305D01*
Y274379D01*
X34973D02*
Y276378D01*
X33973D01*
X33640Y276045D01*
Y275378D01*
X33973Y275045D01*
X34973D01*
X32973Y276378D02*
X31640D01*
Y276045D01*
X32973Y274712D01*
Y274379D01*
X29974D02*
Y276378D01*
X30974Y275378D01*
X29641D01*
X187326Y325594D02*
Y326927D01*
Y326261D01*
X185327D01*
Y327594D02*
X187326D01*
Y328593D01*
X186993Y328927D01*
X186326D01*
X185993Y328593D01*
Y327594D01*
X187326Y329593D02*
Y330926D01*
X186993D01*
X185660Y329593D01*
X185327D01*
X187326Y332925D02*
Y331592D01*
X186326D01*
X186660Y332259D01*
Y332592D01*
X186326Y332925D01*
X185660D01*
X185327Y332592D01*
Y331926D01*
X185660Y331592D01*
X175159Y292631D02*
Y293964D01*
Y293297D01*
X173160D01*
Y294630D02*
X175159D01*
Y295630D01*
X174826Y295963D01*
X174160D01*
X173826Y295630D01*
Y294630D01*
X175159Y296629D02*
Y297962D01*
X174826D01*
X173493Y296629D01*
X173160D01*
X175159Y299962D02*
X174826Y299295D01*
X174160Y298629D01*
X173493D01*
X173160Y298962D01*
Y299628D01*
X173493Y299962D01*
X173826D01*
X174160Y299628D01*
Y298629D01*
X195673Y294425D02*
Y295758D01*
Y295091D01*
X193674D01*
Y296424D02*
X195673D01*
Y297424D01*
X195340Y297757D01*
X194674D01*
X194340Y297424D01*
Y296424D01*
X195673Y298424D02*
Y299756D01*
X195340D01*
X194007Y298424D01*
X193674D01*
X195673Y300423D02*
Y301756D01*
X195340D01*
X194007Y300423D01*
X193674D01*
X498603Y364383D02*
X499936D01*
X499269D01*
Y366382D01*
X500602D02*
Y364383D01*
X501602D01*
X501935Y364716D01*
Y365383D01*
X501602Y365716D01*
X500602D01*
X503601Y366382D02*
Y364383D01*
X502601Y365383D01*
X503934D01*
X504601Y364716D02*
X504934Y364383D01*
X505601D01*
X505934Y364716D01*
Y366049D01*
X505601Y366382D01*
X504934D01*
X504601Y366049D01*
Y364716D01*
X545915Y368101D02*
X547247D01*
X546581D01*
Y370101D01*
X547914D02*
Y368101D01*
X548913D01*
X549247Y368435D01*
Y369101D01*
X548913Y369434D01*
X547914D01*
X549913Y368435D02*
X550246Y368101D01*
X550913D01*
X551246Y368435D01*
Y368768D01*
X550913Y369101D01*
X550580D01*
X550913D01*
X551246Y369434D01*
Y369767D01*
X550913Y370101D01*
X550246D01*
X549913Y369767D01*
X551912D02*
X552246Y370101D01*
X552912D01*
X553245Y369767D01*
Y368435D01*
X552912Y368101D01*
X552246D01*
X551912Y368435D01*
Y368768D01*
X552246Y369101D01*
X553245D01*
X591006Y362880D02*
X589673D01*
X590340D01*
Y360881D01*
X589007D02*
Y362880D01*
X588007D01*
X587674Y362547D01*
Y361880D01*
X588007Y361547D01*
X589007D01*
X587007Y362547D02*
X586674Y362880D01*
X586008D01*
X585674Y362547D01*
Y362214D01*
X586008Y361880D01*
X586341D01*
X586008D01*
X585674Y361547D01*
Y361214D01*
X586008Y360881D01*
X586674D01*
X587007Y361214D01*
X585008Y362547D02*
X584675Y362880D01*
X584008D01*
X583675Y362547D01*
Y362214D01*
X584008Y361880D01*
X583675Y361547D01*
Y361214D01*
X584008Y360881D01*
X584675D01*
X585008Y361214D01*
Y361547D01*
X584675Y361880D01*
X585008Y362214D01*
Y362547D01*
X584675Y361880D02*
X584008D01*
X709176Y475200D02*
X707843D01*
X708509D01*
Y473201D01*
X707177D02*
Y475200D01*
X706177D01*
X705844Y474867D01*
Y474200D01*
X706177Y473867D01*
X707177D01*
X705177Y474867D02*
X704844Y475200D01*
X704178D01*
X703844Y474867D01*
Y474534D01*
X704178Y474200D01*
X704511D01*
X704178D01*
X703844Y473867D01*
Y473534D01*
X704178Y473201D01*
X704844D01*
X705177Y473534D01*
X703178Y475200D02*
X701845D01*
Y474867D01*
X703178Y473534D01*
Y473201D01*
X716586Y388074D02*
X715253D01*
X715919D01*
Y386075D01*
X714587D02*
Y388074D01*
X713587D01*
X713254Y387741D01*
Y387074D01*
X713587Y386741D01*
X714587D01*
X711254Y388074D02*
X712587D01*
Y387074D01*
X711921Y387408D01*
X711588D01*
X711254Y387074D01*
Y386408D01*
X711588Y386075D01*
X712254D01*
X712587Y386408D01*
X709255Y388074D02*
X710588D01*
Y387074D01*
X709922Y387408D01*
X709588D01*
X709255Y387074D01*
Y386408D01*
X709588Y386075D01*
X710255D01*
X710588Y386408D01*
X268788Y326376D02*
X267455D01*
X268122D01*
Y324377D01*
X266789D02*
Y326376D01*
X265789D01*
X265456Y326043D01*
Y325376D01*
X265789Y325043D01*
X266789D01*
X264789Y324377D02*
X264123D01*
X264456D01*
Y326376D01*
X264789Y326043D01*
X263123D02*
X262790Y326376D01*
X262123D01*
X261790Y326043D01*
Y324710D01*
X262123Y324377D01*
X262790D01*
X263123Y324710D01*
Y326043D01*
X261124Y324377D02*
X260457D01*
X260790D01*
Y326376D01*
X261124Y326043D01*
X364026Y349074D02*
X362693D01*
X363359D01*
Y347075D01*
X362027D02*
Y349074D01*
X361027D01*
X360694Y348741D01*
Y348074D01*
X361027Y347741D01*
X362027D01*
X358694Y349074D02*
X360027D01*
Y348074D01*
X359361Y348408D01*
X359028D01*
X358694Y348074D01*
Y347408D01*
X359028Y347075D01*
X359694D01*
X360027Y347408D01*
X357028Y347075D02*
Y349074D01*
X358028Y348074D01*
X356695D01*
X164021Y410921D02*
Y412254D01*
Y411588D01*
X162022D01*
Y412921D02*
X164021D01*
Y413920D01*
X163688Y414254D01*
X163022D01*
X162689Y413920D01*
Y412921D01*
X164021Y416253D02*
Y414920D01*
X163022D01*
X163355Y415587D01*
Y415920D01*
X163022Y416253D01*
X162355D01*
X162022Y415920D01*
Y415253D01*
X162355Y414920D01*
X164021Y418252D02*
X163688Y417586D01*
X163022Y416919D01*
X162355D01*
X162022Y417253D01*
Y417919D01*
X162355Y418252D01*
X162689D01*
X163022Y417919D01*
Y416919D01*
X192648Y468301D02*
Y469634D01*
Y468968D01*
X190649D01*
Y470301D02*
X192648D01*
Y471301D01*
X192315Y471634D01*
X191649D01*
X191315Y471301D01*
Y470301D01*
X190649Y473300D02*
X192648D01*
X191649Y472300D01*
Y473633D01*
X190982Y474299D02*
X190649Y474633D01*
Y475299D01*
X190982Y475632D01*
X192315D01*
X192648Y475299D01*
Y474633D01*
X192315Y474299D01*
X191982D01*
X191649Y474633D01*
Y475632D01*
X185773Y444039D02*
Y445372D01*
Y444706D01*
X183773D01*
Y446039D02*
X185773D01*
Y447039D01*
X185439Y447372D01*
X184773D01*
X184440Y447039D01*
Y446039D01*
X185773Y449371D02*
Y448038D01*
X184773D01*
X185106Y448705D01*
Y449038D01*
X184773Y449371D01*
X184106D01*
X183773Y449038D01*
Y448371D01*
X184106Y448038D01*
X183773Y451370D02*
Y450037D01*
X185106Y451370D01*
X185439D01*
X185773Y451037D01*
Y450371D01*
X185439Y450037D01*
X185945Y469168D02*
Y470500D01*
Y469834D01*
X183946D01*
Y471167D02*
X185945D01*
Y472166D01*
X185612Y472500D01*
X184945D01*
X184612Y472166D01*
Y471167D01*
X185945Y474499D02*
Y473166D01*
X184945D01*
X185279Y473833D01*
Y474166D01*
X184945Y474499D01*
X184279D01*
X183946Y474166D01*
Y473499D01*
X184279Y473166D01*
X185612Y475166D02*
X185945Y475499D01*
Y476165D01*
X185612Y476498D01*
X184279D01*
X183946Y476165D01*
Y475499D01*
X184279Y475166D01*
X185612D01*
X171796Y450339D02*
Y451672D01*
Y451005D01*
X169797D01*
Y452338D02*
X171796D01*
Y453338D01*
X171463Y453671D01*
X170797D01*
X170463Y453338D01*
Y452338D01*
X171796Y455670D02*
Y454337D01*
X170797D01*
X171130Y455004D01*
Y455337D01*
X170797Y455670D01*
X170130D01*
X169797Y455337D01*
Y454671D01*
X170130Y454337D01*
X171463Y456337D02*
X171796Y456670D01*
Y457336D01*
X171463Y457670D01*
X171130D01*
X170797Y457336D01*
Y457003D01*
Y457336D01*
X170463Y457670D01*
X170130D01*
X169797Y457336D01*
Y456670D01*
X170130Y456337D01*
X22655Y304736D02*
X21322D01*
X21989D01*
Y302737D01*
X20656D02*
Y304736D01*
X19656D01*
X19323Y304403D01*
Y303737D01*
X19656Y303403D01*
X20656D01*
X18656Y302737D02*
X17990D01*
X18323D01*
Y304736D01*
X18656Y304403D01*
X16990D02*
X16657Y304736D01*
X15991D01*
X15657Y304403D01*
Y304070D01*
X15991Y303737D01*
X16324D01*
X15991D01*
X15657Y303403D01*
Y303070D01*
X15991Y302737D01*
X16657D01*
X16990Y303070D01*
X40185Y344445D02*
X38852D01*
X39518D01*
Y342446D01*
X38186D02*
Y344445D01*
X37186D01*
X36853Y344112D01*
Y343445D01*
X37186Y343112D01*
X38186D01*
X36186Y342446D02*
X35520D01*
X35853D01*
Y344445D01*
X36186Y344112D01*
X33520Y342446D02*
Y344445D01*
X34520Y343445D01*
X33187D01*
X65677Y345626D02*
X64344D01*
X65011D01*
Y343627D01*
X63678D02*
Y345626D01*
X62678D01*
X62345Y345293D01*
Y344626D01*
X62678Y344293D01*
X63678D01*
X61678Y343627D02*
X61012D01*
X61345D01*
Y345626D01*
X61678Y345293D01*
X58679Y345626D02*
X60012D01*
Y344626D01*
X59346Y344960D01*
X59013D01*
X58679Y344626D01*
Y343960D01*
X59013Y343627D01*
X59679D01*
X60012Y343960D01*
X66760Y324465D02*
X65427D01*
X66093D01*
Y322465D01*
X64761D02*
Y324465D01*
X63761D01*
X63428Y324132D01*
Y323465D01*
X63761Y323132D01*
X64761D01*
X62761Y322465D02*
X62095D01*
X62428D01*
Y324465D01*
X62761Y324132D01*
X59762Y324465D02*
X60429Y324132D01*
X61095Y323465D01*
Y322799D01*
X60762Y322465D01*
X60095D01*
X59762Y322799D01*
Y323132D01*
X60095Y323465D01*
X61095D01*
X42165Y355567D02*
X40832D01*
X41499D01*
Y353568D01*
X40166D02*
Y355567D01*
X39166D01*
X38833Y355234D01*
Y354568D01*
X39166Y354234D01*
X40166D01*
X36834Y353568D02*
X38167D01*
X36834Y354901D01*
Y355234D01*
X37167Y355567D01*
X37833D01*
X38167Y355234D01*
X36167D02*
X35834Y355567D01*
X35168D01*
X34834Y355234D01*
Y353901D01*
X35168Y353568D01*
X35834D01*
X36167Y353901D01*
Y355234D01*
X66071Y355961D02*
X64738D01*
X65404D01*
Y353961D01*
X64072D02*
Y355961D01*
X63072D01*
X62739Y355628D01*
Y354961D01*
X63072Y354628D01*
X64072D01*
X60739Y353961D02*
X62072D01*
X60739Y355294D01*
Y355628D01*
X61072Y355961D01*
X61739D01*
X62072Y355628D01*
X60073Y353961D02*
X59406D01*
X59740D01*
Y355961D01*
X60073Y355628D01*
X52252Y335764D02*
X50919D01*
X51586D01*
Y333765D01*
X50253D02*
Y335764D01*
X49253D01*
X48920Y335431D01*
Y334764D01*
X49253Y334431D01*
X50253D01*
X46920Y333765D02*
X48253D01*
X46920Y335098D01*
Y335431D01*
X47254Y335764D01*
X47920D01*
X48253Y335431D01*
X44921Y333765D02*
X46254D01*
X44921Y335098D01*
Y335431D01*
X45254Y335764D01*
X45921D01*
X46254Y335431D01*
X181953Y437911D02*
X180620D01*
X181286D01*
Y435912D01*
X179953D02*
Y437911D01*
X178954D01*
X178621Y437578D01*
Y436912D01*
X178954Y436578D01*
X179953D01*
X176621Y435912D02*
X177954D01*
X176621Y437245D01*
Y437578D01*
X176954Y437911D01*
X177621D01*
X177954Y437578D01*
X174622Y437911D02*
X175288Y437578D01*
X175955Y436912D01*
Y436245D01*
X175621Y435912D01*
X174955D01*
X174622Y436245D01*
Y436578D01*
X174955Y436912D01*
X175955D01*
X140382Y341296D02*
X139049D01*
X139715D01*
Y339296D01*
X138382D02*
Y341296D01*
X137383D01*
X137050Y340962D01*
Y340296D01*
X137383Y339963D01*
X138382D01*
X135050Y339296D02*
X136383D01*
X135050Y340629D01*
Y340962D01*
X135383Y341296D01*
X136050D01*
X136383Y340962D01*
X134384Y341296D02*
X133051D01*
Y340962D01*
X134384Y339629D01*
Y339296D01*
X114519Y408446D02*
X113186D01*
X113852D01*
Y406446D01*
X112520D02*
Y408446D01*
X111520D01*
X111187Y408112D01*
Y407446D01*
X111520Y407113D01*
X112520D01*
X109187Y406446D02*
X110520D01*
X109187Y407779D01*
Y408112D01*
X109520Y408446D01*
X110187D01*
X110520Y408112D01*
X108521Y406779D02*
X108187Y406446D01*
X107521D01*
X107188Y406779D01*
Y408112D01*
X107521Y408446D01*
X108187D01*
X108521Y408112D01*
Y407779D01*
X108187Y407446D01*
X107188D01*
X36764Y447021D02*
X35431D01*
X36098D01*
Y445022D01*
X34765D02*
Y447021D01*
X33765D01*
X33432Y446688D01*
Y446021D01*
X33765Y445688D01*
X34765D01*
X32765Y446688D02*
X32432Y447021D01*
X31766D01*
X31432Y446688D01*
Y446355D01*
X31766Y446021D01*
X32099D01*
X31766D01*
X31432Y445688D01*
Y445355D01*
X31766Y445022D01*
X32432D01*
X32765Y445355D01*
X30766Y446688D02*
X30433Y447021D01*
X29766D01*
X29433Y446688D01*
Y445355D01*
X29766Y445022D01*
X30433D01*
X30766Y445355D01*
Y446688D01*
X75556Y391231D02*
X74223D01*
X74890D01*
Y389232D01*
X73557D02*
Y391231D01*
X72557D01*
X72224Y390898D01*
Y390232D01*
X72557Y389898D01*
X73557D01*
X71558Y390898D02*
X71224Y391231D01*
X70558D01*
X70225Y390898D01*
Y390565D01*
X70558Y390232D01*
X70891D01*
X70558D01*
X70225Y389898D01*
Y389565D01*
X70558Y389232D01*
X71224D01*
X71558Y389565D01*
X69558Y389232D02*
X68892D01*
X69225D01*
Y391231D01*
X69558Y390898D01*
X146287Y417378D02*
X144955D01*
X145621D01*
Y415379D01*
X144288D02*
Y417378D01*
X143288D01*
X142955Y417045D01*
Y416378D01*
X143288Y416045D01*
X144288D01*
X142289Y417045D02*
X141955Y417378D01*
X141289D01*
X140956Y417045D01*
Y416712D01*
X141289Y416378D01*
X141622D01*
X141289D01*
X140956Y416045D01*
Y415712D01*
X141289Y415379D01*
X141955D01*
X142289Y415712D01*
X138956Y415379D02*
X140289D01*
X138956Y416712D01*
Y417045D01*
X139290Y417378D01*
X139956D01*
X140289Y417045D01*
X465418Y425417D02*
X464085D01*
X464751D01*
Y423418D01*
X463419D02*
Y425417D01*
X462419D01*
X462086Y425084D01*
Y424418D01*
X462419Y424085D01*
X463419D01*
X461419Y425084D02*
X461086Y425417D01*
X460420D01*
X460086Y425084D01*
Y424751D01*
X460420Y424418D01*
X460753D01*
X460420D01*
X460086Y424085D01*
Y423751D01*
X460420Y423418D01*
X461086D01*
X461419Y423751D01*
X458087Y425417D02*
X459420D01*
Y424418D01*
X458753Y424751D01*
X458420D01*
X458087Y424418D01*
Y423751D01*
X458420Y423418D01*
X459087D01*
X459420Y423751D01*
X493322Y388975D02*
X494655D01*
X493989D01*
Y390974D01*
X495321D02*
Y388975D01*
X496321D01*
X496654Y389308D01*
Y389975D01*
X496321Y390308D01*
X495321D01*
X498654Y388975D02*
X497321D01*
Y389975D01*
X497987Y389642D01*
X498320D01*
X498654Y389975D01*
Y390641D01*
X498320Y390974D01*
X497654D01*
X497321Y390641D01*
X499320Y389308D02*
X499653Y388975D01*
X500320D01*
X500653Y389308D01*
Y389642D01*
X500320Y389975D01*
X500653Y390308D01*
Y390641D01*
X500320Y390974D01*
X499653D01*
X499320Y390641D01*
Y390308D01*
X499653Y389975D01*
X499320Y389642D01*
Y389308D01*
X499653Y389975D02*
X500320D01*
X515070Y407977D02*
X513737D01*
X514404D01*
Y405978D01*
X513071D02*
Y407977D01*
X512071D01*
X511738Y407644D01*
Y406978D01*
X512071Y406644D01*
X513071D01*
X509739Y407977D02*
X511072D01*
Y406978D01*
X510405Y407311D01*
X510072D01*
X509739Y406978D01*
Y406311D01*
X510072Y405978D01*
X510738D01*
X511072Y406311D01*
X509072D02*
X508739Y405978D01*
X508073D01*
X507739Y406311D01*
Y407644D01*
X508073Y407977D01*
X508739D01*
X509072Y407644D01*
Y407311D01*
X508739Y406978D01*
X507739D01*
X539370Y400788D02*
X538037D01*
X538703D01*
Y398789D01*
X537371D02*
Y400788D01*
X536371D01*
X536038Y400455D01*
Y399788D01*
X536371Y399455D01*
X537371D01*
X534038Y400788D02*
X534705Y400455D01*
X535371Y399788D01*
Y399122D01*
X535038Y398789D01*
X534372D01*
X534038Y399122D01*
Y399455D01*
X534372Y399788D01*
X535371D01*
X532039Y398789D02*
X533372D01*
X532039Y400122D01*
Y400455D01*
X532372Y400788D01*
X533039D01*
X533372Y400455D01*
X559328Y402825D02*
X557995D01*
X558661D01*
Y400826D01*
X557328D02*
Y402825D01*
X556329D01*
X555995Y402492D01*
Y401825D01*
X556329Y401492D01*
X557328D01*
X553996Y402825D02*
X554663Y402492D01*
X555329Y401825D01*
Y401159D01*
X554996Y400826D01*
X554329D01*
X553996Y401159D01*
Y401492D01*
X554329Y401825D01*
X555329D01*
X553330Y402492D02*
X552996Y402825D01*
X552330D01*
X551997Y402492D01*
Y402159D01*
X552330Y401825D01*
X552663D01*
X552330D01*
X551997Y401492D01*
Y401159D01*
X552330Y400826D01*
X552996D01*
X553330Y401159D01*
X581490Y392286D02*
X580157D01*
X580824D01*
Y390287D01*
X579491D02*
Y392286D01*
X578491D01*
X578158Y391953D01*
Y391286D01*
X578491Y390953D01*
X579491D01*
X576158Y392286D02*
X576825Y391953D01*
X577491Y391286D01*
Y390620D01*
X577158Y390287D01*
X576492D01*
X576158Y390620D01*
Y390953D01*
X576492Y391286D01*
X577491D01*
X574492Y390287D02*
Y392286D01*
X575492Y391286D01*
X574159D01*
X618943Y440478D02*
Y441811D01*
Y441145D01*
X616944D01*
Y442478D02*
X618943D01*
Y443477D01*
X618610Y443810D01*
X617944D01*
X617610Y443477D01*
Y442478D01*
X618943Y445810D02*
X618610Y445143D01*
X617944Y444477D01*
X617277D01*
X616944Y444810D01*
Y445476D01*
X617277Y445810D01*
X617610D01*
X617944Y445476D01*
Y444477D01*
X618943Y447809D02*
Y446476D01*
X617944D01*
X618277Y447143D01*
Y447476D01*
X617944Y447809D01*
X617277D01*
X616944Y447476D01*
Y446809D01*
X617277Y446476D01*
X638439Y450489D02*
Y451822D01*
Y451156D01*
X636440D01*
Y452489D02*
X638439D01*
Y453488D01*
X638106Y453822D01*
X637440D01*
X637107Y453488D01*
Y452489D01*
X638439Y455821D02*
X638106Y455154D01*
X637440Y454488D01*
X636773D01*
X636440Y454821D01*
Y455488D01*
X636773Y455821D01*
X637107D01*
X637440Y455488D01*
Y454488D01*
X638439Y457820D02*
X638106Y457154D01*
X637440Y456487D01*
X636773D01*
X636440Y456820D01*
Y457487D01*
X636773Y457820D01*
X637107D01*
X637440Y457487D01*
Y456487D01*
X283920Y347592D02*
X282587D01*
X283254D01*
Y345593D01*
X281921D02*
Y347592D01*
X280921D01*
X280588Y347259D01*
Y346592D01*
X280921Y346259D01*
X281921D01*
X279921Y345593D02*
X279255D01*
X279588D01*
Y347592D01*
X279921Y347259D01*
X278255D02*
X277922Y347592D01*
X277256D01*
X276922Y347259D01*
Y345926D01*
X277256Y345593D01*
X277922D01*
X278255Y345926D01*
Y347259D01*
X274923Y347592D02*
X275589Y347259D01*
X276256Y346592D01*
Y345926D01*
X275923Y345593D01*
X275256D01*
X274923Y345926D01*
Y346259D01*
X275256Y346592D01*
X276256D01*
X317843Y347299D02*
X316510D01*
X317176D01*
Y345300D01*
X315843D02*
Y347299D01*
X314843D01*
X314510Y346966D01*
Y346300D01*
X314843Y345967D01*
X315843D01*
X313844Y345300D02*
X313177D01*
X313511D01*
Y347299D01*
X313844Y346966D01*
X312178D02*
X311844Y347299D01*
X311178D01*
X310845Y346966D01*
Y345633D01*
X311178Y345300D01*
X311844D01*
X312178Y345633D01*
Y346966D01*
X310178Y347299D02*
X308845D01*
Y346966D01*
X310178Y345633D01*
Y345300D01*
X346632Y346812D02*
X345299D01*
X345966D01*
Y344813D01*
X344633D02*
Y346812D01*
X343633D01*
X343300Y346479D01*
Y345812D01*
X343633Y345479D01*
X344633D01*
X342633Y344813D02*
X341967D01*
X342300D01*
Y346812D01*
X342633Y346479D01*
X340967D02*
X340634Y346812D01*
X339967D01*
X339634Y346479D01*
Y345146D01*
X339967Y344813D01*
X340634D01*
X340967Y345146D01*
Y346479D01*
X338968D02*
X338634Y346812D01*
X337968D01*
X337635Y346479D01*
Y346146D01*
X337968Y345812D01*
X337635Y345479D01*
Y345146D01*
X337968Y344813D01*
X338634D01*
X338968Y345146D01*
Y345479D01*
X338634Y345812D01*
X338968Y346146D01*
Y346479D01*
X338634Y345812D02*
X337968D01*
X148059Y430567D02*
X146726D01*
X147393D01*
Y428568D01*
X146060D02*
Y430567D01*
X145060D01*
X144727Y430234D01*
Y429567D01*
X145060Y429234D01*
X146060D01*
X144060Y428568D02*
X143394D01*
X143727D01*
Y430567D01*
X144060Y430234D01*
X141061Y428568D02*
X142394D01*
X141061Y429901D01*
Y430234D01*
X141394Y430567D01*
X142061D01*
X142394Y430234D01*
X140395D02*
X140062Y430567D01*
X139395D01*
X139062Y430234D01*
Y429901D01*
X139395Y429567D01*
X139062Y429234D01*
Y428901D01*
X139395Y428568D01*
X140062D01*
X140395Y428901D01*
Y429234D01*
X140062Y429567D01*
X140395Y429901D01*
Y430234D01*
X140062Y429567D02*
X139395D01*
X124992Y427200D02*
X123659D01*
X124326D01*
Y425201D01*
X122993D02*
Y427200D01*
X121993D01*
X121660Y426867D01*
Y426200D01*
X121993Y425867D01*
X122993D01*
X120993Y425201D02*
X120327D01*
X120660D01*
Y427200D01*
X120993Y426867D01*
X117994Y425201D02*
X119327D01*
X117994Y426534D01*
Y426867D01*
X118328Y427200D01*
X118994D01*
X119327Y426867D01*
X117328Y425534D02*
X116995Y425201D01*
X116328D01*
X115995Y425534D01*
Y426867D01*
X116328Y427200D01*
X116995D01*
X117328Y426867D01*
Y426534D01*
X116995Y426200D01*
X115995D01*
X73067Y415552D02*
X73734D01*
X73400D01*
Y413886D01*
X73734Y413553D01*
X74067D01*
X74400Y413886D01*
X72401Y413553D02*
Y415552D01*
X71401D01*
X71068Y415219D01*
Y414552D01*
X71401Y414219D01*
X72401D01*
X69068Y413553D02*
X70401D01*
X69068Y414886D01*
Y415219D01*
X69402Y415552D01*
X70068D01*
X70401Y415219D01*
G54D19*
X50233Y387869D02*
Y388702D01*
Y388286D01*
X52316D01*
X52733Y388702D01*
Y389119D01*
X52316Y389535D01*
X52733Y387036D02*
X50233D01*
Y385787D01*
X50650Y385370D01*
X51483D01*
X51900Y385787D01*
Y387036D01*
X52733Y384537D02*
Y383704D01*
Y384120D01*
X50233D01*
X50650Y384537D01*
G54D26*
X54579Y388316D02*
X53872Y388023D01*
X53579Y387316D01*
Y376316D02*
X53872Y375609D01*
X54579Y375316D01*
X60579D02*
X61286Y375609D01*
X61579Y376316D01*
Y387316D02*
X61286Y388023D01*
X60579Y388316D01*
X62512Y410816D02*
X61805Y410523D01*
X61512Y409816D01*
X74512D02*
X74219Y410523D01*
X73512Y410816D01*
Y402816D02*
X74219Y403109D01*
X74512Y403816D01*
X61512D02*
X61805Y403109D01*
X62512Y402816D01*
X61579Y376316D02*
Y387316D01*
X54579Y375316D02*
X60579D01*
X54579Y388316D02*
X60579D01*
X53579Y376316D02*
Y387316D01*
X62512Y402816D02*
X73512D01*
X61512Y403816D02*
Y409816D01*
X74512Y403816D02*
Y409816D01*
X62512Y410816D02*
X73512D01*
X395315Y287537D02*
X392316D01*
Y289036D01*
X392816Y289536D01*
X394815D01*
X395315Y289036D01*
Y287537D01*
Y290536D02*
Y291535D01*
Y291036D01*
X392316D01*
Y290536D01*
Y291535D01*
Y293035D02*
X395315D01*
Y294534D01*
X394815Y295034D01*
X393815D01*
X393316Y294534D01*
Y293035D01*
Y294035D02*
X392316Y295034D01*
X395315Y298033D02*
Y296034D01*
X393815D01*
X394315Y297034D01*
Y297533D01*
X393815Y298033D01*
X392816D01*
X392316Y297533D01*
Y296534D01*
X392816Y296034D01*
X395237Y256074D02*
Y254075D01*
X392238D01*
Y256074D01*
X393738Y254075D02*
Y255074D01*
X392238Y257074D02*
X395237D01*
X392238Y259073D01*
X395237D01*
X394737Y262072D02*
X395237Y261572D01*
Y260573D01*
X394737Y260073D01*
X392738D01*
X392238Y260573D01*
Y261572D01*
X392738Y262072D01*
X392238Y263072D02*
X395237D01*
X392238Y265071D01*
X395237D01*
Y268070D02*
Y266071D01*
X392238D01*
Y268070D01*
X393738Y266071D02*
Y267071D01*
X404565Y289302D02*
X405065Y288802D01*
Y287803D01*
X404565Y287303D01*
X404065D01*
X403566Y287803D01*
Y288802D01*
X403066Y289302D01*
X402566D01*
X402066Y288802D01*
Y287803D01*
X402566Y287303D01*
X405065Y290302D02*
Y292301D01*
Y291301D01*
X402066D01*
X405065Y295300D02*
Y293301D01*
X402066D01*
Y295300D01*
X403566Y293301D02*
Y294301D01*
X402066Y296300D02*
X405065D01*
Y297799D01*
X404565Y298299D01*
X403566D01*
X403066Y297799D01*
Y296300D01*
X405065Y301298D02*
Y299299D01*
X403566D01*
X404065Y300299D01*
Y300798D01*
X403566Y301298D01*
X402566D01*
X402066Y300798D01*
Y299799D01*
X402566Y299299D01*
X412316Y287849D02*
X415315D01*
X414315Y288848D01*
X415315Y289848D01*
X412316D01*
X411816Y290848D02*
Y292847D01*
X412316Y293847D02*
X414315D01*
Y295346D01*
X413815Y295846D01*
X412316D01*
X414815Y298845D02*
X415315Y298345D01*
Y297346D01*
X414815Y296846D01*
X412816D01*
X412316Y297346D01*
Y298345D01*
X412816Y298845D01*
X414815Y301844D02*
X415315Y301344D01*
Y300345D01*
X414815Y299845D01*
X414315D01*
X413815Y300345D01*
Y301344D01*
X413315Y301844D01*
X412816D01*
X412316Y301344D01*
Y300345D01*
X412816Y299845D01*
X415315Y304843D02*
Y302844D01*
X413815D01*
X414315Y303844D01*
Y304343D01*
X413815Y304843D01*
X412816D01*
X412316Y304343D01*
Y303344D01*
X412816Y302844D01*
X404753Y256152D02*
Y254153D01*
X401754D01*
Y256152D01*
X403254Y254153D02*
Y255152D01*
X401754Y257152D02*
X404753D01*
X401754Y259151D01*
X404753D01*
X404253Y262150D02*
X404753Y261650D01*
Y260651D01*
X404253Y260151D01*
X402254D01*
X401754Y260651D01*
Y261650D01*
X402254Y262150D01*
X404753Y263150D02*
X401754D01*
Y264649D01*
X402254Y265149D01*
X402754D01*
X403254Y264649D01*
Y263150D01*
Y264649D01*
X403753Y265149D01*
X404253D01*
X404753Y264649D01*
Y263150D01*
Y268148D02*
Y266149D01*
X401754D01*
Y268148D01*
X403254Y266149D02*
Y267148D01*
X729887Y290977D02*
Y293976D01*
X728888Y292976D01*
X727888Y293976D01*
Y290977D01*
X725389Y293976D02*
X726389D01*
X726888Y293476D01*
Y291477D01*
X726389Y290977D01*
X725389D01*
X724889Y291477D01*
Y293476D01*
X725389Y293976D01*
X721890Y293476D02*
X722390Y293976D01*
X723389D01*
X723889Y293476D01*
Y292976D01*
X723389Y292477D01*
X722390D01*
X721890Y291977D01*
Y291477D01*
X722390Y290977D01*
X723389D01*
X723889Y291477D01*
X718891Y293976D02*
X720890D01*
Y292477D01*
X719891D01*
X720890D01*
Y290977D01*
X715892Y293976D02*
X717891D01*
Y290977D01*
X715892D01*
X717891Y292477D02*
X716892D01*
X714892Y293976D02*
X712893D01*
X713893D01*
Y290977D01*
X709894Y293476D02*
X710394Y293976D01*
X711393D01*
X711893Y293476D01*
Y292976D01*
X711393Y292477D01*
X710394D01*
X709894Y291977D01*
Y291477D01*
X710394Y290977D01*
X711393D01*
X711893Y291477D01*
X708394Y290477D02*
X707895Y290977D01*
Y291477D01*
X708394D01*
Y290977D01*
X707895D01*
X708394Y290477D01*
X708894Y289977D01*
X738635Y288937D02*
X740634D01*
Y287438D01*
X739634D01*
X740634D01*
Y285938D01*
X737635D02*
Y287938D01*
X736635Y288937D01*
X735636Y287938D01*
Y285938D01*
Y287438D01*
X737635D01*
X734636Y285938D02*
Y288937D01*
X732636Y285938D01*
Y288937D01*
X729637Y288437D02*
X730137Y288937D01*
X731137D01*
X731637Y288437D01*
Y287938D01*
X731137Y287438D01*
X730137D01*
X729637Y286938D01*
Y286438D01*
X730137Y285938D01*
X731137D01*
X731637Y286438D01*
X728138Y285438D02*
X727638Y285938D01*
Y286438D01*
X728138D01*
Y285938D01*
X727638D01*
X728138Y285438D01*
X728638Y284939D01*
X722640Y285938D02*
Y287938D01*
X721640Y288937D01*
X720640Y287938D01*
Y285938D01*
Y287438D01*
X722640D01*
X719641Y285938D02*
Y288937D01*
X717641Y285938D01*
Y288937D01*
X716642D02*
Y285938D01*
X715142D01*
X714642Y286438D01*
Y288437D01*
X715142Y288937D01*
X716642D01*
X710644D02*
Y285938D01*
X708644D01*
X706145Y288937D02*
X707145D01*
X707645Y288437D01*
Y286438D01*
X707145Y285938D01*
X706145D01*
X705645Y286438D01*
Y288437D01*
X706145Y288937D01*
X702646Y288437D02*
X703146Y288937D01*
X704146D01*
X704646Y288437D01*
Y286438D01*
X704146Y285938D01*
X703146D01*
X702646Y286438D01*
Y287438D01*
X703646D01*
X701647Y288937D02*
X700647D01*
X701147D01*
Y285938D01*
X701647D01*
X700647D01*
X697148Y288437D02*
X697648Y288937D01*
X698647D01*
X699147Y288437D01*
Y286438D01*
X698647Y285938D01*
X697648D01*
X697148Y286438D01*
X415049Y256542D02*
Y254543D01*
X412050D01*
Y256542D01*
X413550Y254543D02*
Y255542D01*
X412050Y257542D02*
X415049D01*
X412050Y259541D01*
X415049D01*
X414549Y262540D02*
X415049Y262040D01*
Y261041D01*
X414549Y260541D01*
X412550D01*
X412050Y261041D01*
Y262040D01*
X412550Y262540D01*
X412050Y263540D02*
X414049D01*
X415049Y264540D01*
X414049Y265539D01*
X412050D01*
X413550D01*
Y263540D01*
X415049Y268538D02*
Y266539D01*
X412050D01*
Y268538D01*
X413550Y266539D02*
Y267538D01*
X436829Y273836D02*
X437328Y274336D01*
X438328D01*
X438828Y273836D01*
Y271837D01*
X438328Y271337D01*
X437328D01*
X436829Y271837D01*
Y272836D01*
X437828D01*
X435829Y271337D02*
Y274336D01*
X433830Y271337D01*
Y274336D01*
X432830D02*
Y271337D01*
X431330D01*
X430831Y271837D01*
Y273836D01*
X431330Y274336D01*
X432830D01*
X433007Y284320D02*
X435006D01*
Y282820D01*
X434006Y283320D01*
X433506D01*
X433007Y282820D01*
Y281821D01*
X433506Y281321D01*
X434506D01*
X435006Y281821D01*
X432007Y284320D02*
Y282320D01*
X431007Y281321D01*
X430008Y282320D01*
Y284320D01*
X742740Y463252D02*
Y460253D01*
Y461752D01*
X740740D01*
Y463252D01*
Y460253D01*
X739741Y463252D02*
X737742D01*
X738741D01*
Y460253D01*
X736742Y463252D02*
Y460253D01*
X735242D01*
X734742Y460753D01*
Y461252D01*
X735242Y461752D01*
X736742D01*
X735242D01*
X734742Y462252D01*
Y462752D01*
X735242Y463252D01*
X736742D01*
X733743D02*
Y460253D01*
X732243D01*
X731743Y460753D01*
Y462752D01*
X732243Y463252D01*
X733743D01*
X726245D02*
X727245D01*
X727745Y462752D01*
Y460753D01*
X727245Y460253D01*
X726245D01*
X725745Y460753D01*
Y462752D01*
X726245Y463252D01*
X724746D02*
Y460753D01*
X724246Y460253D01*
X723246D01*
X722746Y460753D01*
Y463252D01*
X721747D02*
X719747D01*
X720747D01*
Y460253D01*
X715749Y461752D02*
X713749D01*
X742740Y430258D02*
Y427259D01*
Y428758D01*
X740740D01*
Y430258D01*
Y427259D01*
X739741Y430258D02*
X737742D01*
X738741D01*
Y427259D01*
X736742Y430258D02*
Y427259D01*
X735242D01*
X734742Y427759D01*
Y428258D01*
X735242Y428758D01*
X736742D01*
X735242D01*
X734742Y429258D01*
Y429758D01*
X735242Y430258D01*
X736742D01*
X733743D02*
Y427259D01*
X732243D01*
X731743Y427759D01*
Y429758D01*
X732243Y430258D01*
X733743D01*
X726245D02*
X727245D01*
X727745Y429758D01*
Y427759D01*
X727245Y427259D01*
X726245D01*
X725745Y427759D01*
Y429758D01*
X726245Y430258D01*
X724746D02*
Y427759D01*
X724246Y427259D01*
X723246D01*
X722746Y427759D01*
Y430258D01*
X721747D02*
X719747D01*
X720747D01*
Y427259D01*
X715749Y428758D02*
X713749D01*
X714749Y429758D02*
Y427759D01*
X719747Y397389D02*
X720247Y397888D01*
X721247D01*
X721747Y397389D01*
Y395389D01*
X721247Y394889D01*
X720247D01*
X719747Y395389D01*
Y396389D01*
X720747D01*
X718748Y394889D02*
Y397888D01*
X716748Y394889D01*
Y397888D01*
X715749D02*
Y394889D01*
X714249D01*
X713749Y395389D01*
Y397389D01*
X714249Y397888D01*
X715749D01*
X733243Y365284D02*
Y363285D01*
X732243Y362285D01*
X731244Y363285D01*
Y365284D01*
X730244D02*
X729244D01*
X729744D01*
Y362285D01*
X730244D01*
X729244D01*
X727745D02*
Y365284D01*
X725745Y362285D01*
Y365284D01*
X721747D02*
Y362285D01*
X720247D01*
X719747Y362785D01*
Y363285D01*
X720247Y363785D01*
X721747D01*
X720247D01*
X719747Y364285D01*
Y364785D01*
X720247Y365284D01*
X721747D01*
X716748D02*
X718748D01*
Y362285D01*
X716748D01*
X718748Y363785D02*
X717748D01*
X715749Y365284D02*
Y362285D01*
X714249D01*
X713749Y362785D01*
Y364785D01*
X714249Y365284D01*
X715749D01*
X719747Y331946D02*
X720247Y332446D01*
X721247D01*
X721747Y331946D01*
Y329947D01*
X721247Y329447D01*
X720247D01*
X719747Y329947D01*
Y330946D01*
X720747D01*
X718748Y329447D02*
Y332446D01*
X716748Y329447D01*
Y332446D01*
X715749D02*
Y329447D01*
X714249D01*
X713749Y329947D01*
Y331946D01*
X714249Y332446D01*
X715749D01*
X733243Y299530D02*
Y297530D01*
X732243Y296531D01*
X731244Y297530D01*
Y299530D01*
X730244D02*
X729244D01*
X729744D01*
Y296531D01*
X730244D01*
X729244D01*
X727745D02*
Y299530D01*
X725745Y296531D01*
Y299530D01*
X721747D02*
Y297530D01*
X720747Y296531D01*
X719747Y297530D01*
Y299530D01*
X718748Y296531D02*
Y299530D01*
X717248D01*
X716748Y299030D01*
Y298030D01*
X717248Y297530D01*
X718748D01*
X715749Y299530D02*
Y296531D01*
X714749Y297530D01*
X713749Y296531D01*
Y299530D01*
X712750Y296531D02*
Y299530D01*
X711250D01*
X710750Y299030D01*
Y298030D01*
X711250Y297530D01*
X712750D01*
X711750D02*
X710750Y296531D01*
X719747Y267830D02*
X720247Y268330D01*
X721247D01*
X721747Y267830D01*
Y265831D01*
X721247Y265331D01*
X720247D01*
X719747Y265831D01*
Y266830D01*
X720747D01*
X718748Y265331D02*
Y268330D01*
X716748Y265331D01*
Y268330D01*
X715749D02*
Y265331D01*
X714249D01*
X713749Y265831D01*
Y267830D01*
X714249Y268330D01*
X715749D01*
X736242Y235336D02*
Y233336D01*
X735242Y232337D01*
X734243Y233336D01*
Y235336D01*
X733243D02*
X732243D01*
X732743D01*
Y232337D01*
X733243D01*
X732243D01*
X730744D02*
Y235336D01*
X728744Y232337D01*
Y235336D01*
X724746Y232337D02*
Y235336D01*
X723746Y234336D01*
X722746Y235336D01*
Y232337D01*
X720247Y235336D02*
X721247D01*
X721747Y234836D01*
Y232837D01*
X721247Y232337D01*
X720247D01*
X719747Y232837D01*
Y234836D01*
X720247Y235336D01*
X718748D02*
X716748D01*
X717748D01*
Y232337D01*
X715749D02*
X714749D01*
X715249D01*
Y235336D01*
X715749Y234836D01*
X736242Y170206D02*
Y168206D01*
X735242Y167207D01*
X734243Y168206D01*
Y170206D01*
X733243D02*
X732243D01*
X732743D01*
Y167207D01*
X733243D01*
X732243D01*
X730744D02*
Y170206D01*
X728744Y167207D01*
Y170206D01*
X724746Y167207D02*
Y170206D01*
X723746Y169206D01*
X722746Y170206D01*
Y167207D01*
X720247Y170206D02*
X721247D01*
X721747Y169706D01*
Y167707D01*
X721247Y167207D01*
X720247D01*
X719747Y167707D01*
Y169706D01*
X720247Y170206D01*
X718748D02*
X716748D01*
X717748D01*
Y167207D01*
X713749D02*
X715749D01*
X713749Y169206D01*
Y169706D01*
X714249Y170206D01*
X715249D01*
X715749Y169706D01*
X390156Y405234D02*
X387490D01*
X400218D02*
X397552D01*
X398885Y406567D02*
Y403901D01*
X346038Y294544D02*
Y292544D01*
X343039D01*
Y294544D01*
X344539Y292544D02*
Y293544D01*
X343039Y295543D02*
X346038D01*
Y297043D01*
X345538Y297543D01*
X344539D01*
X344039Y297043D01*
Y295543D01*
Y296543D02*
X343039Y297543D01*
Y298542D02*
X345039D01*
X346038Y299542D01*
X345039Y300542D01*
X343039D01*
X344539D01*
Y298542D01*
X345538Y303541D02*
X346038Y303041D01*
Y302041D01*
X345538Y301541D01*
X345039D01*
X344539Y302041D01*
Y303041D01*
X344039Y303541D01*
X343539D01*
X343039Y303041D01*
Y302041D01*
X343539Y301541D01*
X346038Y306540D02*
Y304540D01*
X343039D01*
Y306540D01*
X344539Y304540D02*
Y305540D01*
X315519Y301138D02*
X316019Y300638D01*
Y299639D01*
X315519Y299139D01*
X313520D01*
X313020Y299639D01*
Y300638D01*
X313520Y301138D01*
X314519D01*
Y300138D01*
X313020Y302138D02*
X316019D01*
X313020Y304137D01*
X316019D01*
Y305137D02*
X313020D01*
Y306636D01*
X313520Y307136D01*
X315519D01*
X316019Y306636D01*
Y305137D01*
X335302Y296776D02*
X335802Y297276D01*
Y298276D01*
X335302Y298776D01*
X334803D01*
X334303Y298276D01*
Y297776D01*
Y298276D01*
X333803Y298776D01*
X333303D01*
X332803Y298276D01*
Y297276D01*
X333303Y296776D01*
X332803Y299776D02*
X333303D01*
Y300275D01*
X332803D01*
Y299776D01*
X335302Y302275D02*
X335802Y302775D01*
Y303774D01*
X335302Y304274D01*
X334803D01*
X334303Y303774D01*
Y303274D01*
Y303774D01*
X333803Y304274D01*
X333303D01*
X332803Y303774D01*
Y302775D01*
X333303Y302275D01*
X335802Y305274D02*
X333803D01*
X332803Y306273D01*
X333803Y307273D01*
X335802D01*
X325763Y302417D02*
Y300418D01*
X324263D01*
X324763Y301418D01*
Y301918D01*
X324263Y302417D01*
X323264D01*
X322764Y301918D01*
Y300918D01*
X323264Y300418D01*
X325763Y303417D02*
X323763D01*
X322764Y304417D01*
X323763Y305417D01*
X325763D01*
X380406Y411708D02*
X377740D01*
X379073Y413041D02*
Y410375D01*
X390312Y411786D02*
X387646D01*
X332803Y326206D02*
X334803D01*
Y327705D01*
X334303Y328205D01*
X332803D01*
Y329205D02*
X335802D01*
Y330704D01*
X335302Y331204D01*
X334303D01*
X333803Y330704D01*
Y329205D01*
Y330204D02*
X332803Y331204D01*
X335302Y334203D02*
X335802Y333703D01*
Y332703D01*
X335302Y332204D01*
X334803D01*
X334303Y332703D01*
Y333703D01*
X333803Y334203D01*
X333303D01*
X332803Y333703D01*
Y332703D01*
X333303Y332204D01*
X335802Y335203D02*
Y337202D01*
Y336202D01*
X332803D01*
X284575Y431665D02*
X282575Y428666D01*
Y431665D02*
X284575Y428666D01*
X281576Y430166D02*
X279576D01*
X278577Y428666D02*
Y431665D01*
X277577Y430665D01*
X276577Y431665D01*
Y428666D01*
X275578Y431665D02*
X274578D01*
X275078D01*
Y428666D01*
X275578D01*
X274578D01*
X273078D02*
Y431665D01*
X271079Y428666D01*
Y431665D01*
X315723Y326206D02*
X313224D01*
X312724Y326705D01*
Y327705D01*
X313224Y328205D01*
X315723D01*
Y329205D02*
Y331204D01*
Y330204D01*
X312724D01*
X315723Y332204D02*
X312724Y334203D01*
X315723D02*
X312724Y332204D01*
X315723Y335203D02*
X312724D01*
Y336702D01*
X313224Y337202D01*
X315224D01*
X315723Y336702D01*
Y335203D01*
X719747Y202310D02*
X720247Y202810D01*
X721247D01*
X721747Y202310D01*
Y200311D01*
X721247Y199811D01*
X720247D01*
X719747Y200311D01*
Y201310D01*
X720747D01*
X718748Y199811D02*
Y202810D01*
X716748Y199811D01*
Y202810D01*
X715749D02*
Y199811D01*
X714249D01*
X713749Y200311D01*
Y202310D01*
X714249Y202810D01*
X715749D01*
X345546Y328599D02*
Y326599D01*
X344047D01*
X344547Y327599D01*
Y328099D01*
X344047Y328599D01*
X343047D01*
X342547Y328099D01*
Y327099D01*
X343047Y326599D01*
X345546Y329598D02*
X343547D01*
X342547Y330598D01*
X343547Y331598D01*
X345546D01*
X312473Y431689D02*
Y431190D01*
X311473Y430190D01*
X310473Y431190D01*
Y431689D01*
X311473Y430190D02*
Y428690D01*
X309474Y430190D02*
X307474D01*
X306475Y428690D02*
Y431689D01*
X305475Y430690D01*
X304475Y431689D01*
Y428690D01*
X303476Y431689D02*
X302476D01*
X302976D01*
Y428690D01*
X303476D01*
X302476D01*
X300977D02*
Y431689D01*
X298977Y428690D01*
Y431689D01*
X314567Y389224D02*
Y388724D01*
X313567Y387725D01*
X312567Y388724D01*
Y389224D01*
X313567Y387725D02*
Y386225D01*
X311568Y387725D02*
X309569D01*
X308569Y386225D02*
Y389224D01*
X307569Y388225D01*
X306570Y389224D01*
Y386225D01*
X305570D02*
Y388225D01*
X304570Y389224D01*
X303570Y388225D01*
Y386225D01*
Y387725D01*
X305570D01*
X302571Y389224D02*
X300571Y386225D01*
Y389224D02*
X302571Y386225D01*
X351370Y431940D02*
X349371D01*
Y431440D01*
X351370Y429441D01*
Y428941D01*
X349371D01*
X348371Y430441D02*
X346372D01*
X345372Y428941D02*
Y431940D01*
X344372Y430940D01*
X343373Y431940D01*
Y428941D01*
X342373Y431940D02*
X341373D01*
X341873D01*
Y428941D01*
X342373D01*
X341373D01*
X339874D02*
Y431940D01*
X337874Y428941D01*
Y431940D01*
X273104Y388352D02*
X271105Y385353D01*
Y388352D02*
X273104Y385353D01*
X270105Y386852D02*
X268106D01*
X267106Y385353D02*
Y388352D01*
X266106Y387352D01*
X265107Y388352D01*
Y385353D01*
X264107D02*
Y387352D01*
X263107Y388352D01*
X262107Y387352D01*
Y385353D01*
Y386852D01*
X264107D01*
X261108Y388352D02*
X259108Y385353D01*
Y388352D02*
X261108Y385353D01*
X355594Y388629D02*
X353595D01*
Y388129D01*
X355594Y386130D01*
Y385630D01*
X353595D01*
X352595Y387130D02*
X350596D01*
X349596Y385630D02*
Y388629D01*
X348597Y387630D01*
X347597Y388629D01*
Y385630D01*
X346597D02*
Y387630D01*
X345598Y388629D01*
X344598Y387630D01*
Y385630D01*
Y387130D01*
X346597D01*
X343598Y388629D02*
X341599Y385630D01*
Y388629D02*
X343598Y385630D01*
X325664Y325517D02*
X323165D01*
X322665Y326016D01*
Y327016D01*
X323165Y327516D01*
X325664D01*
X322665Y328516D02*
X325664D01*
Y330015D01*
X325165Y330515D01*
X324165D01*
X323665Y330015D01*
Y328516D01*
Y329515D02*
X322665Y330515D01*
X325664Y331515D02*
X322665Y333514D01*
X325664D02*
X322665Y331515D01*
X325664Y334514D02*
X322665D01*
Y336013D01*
X323165Y336513D01*
X325165D01*
X325664Y336013D01*
Y334514D01*
X355283Y328402D02*
X355783Y327902D01*
Y326902D01*
X355283Y326402D01*
X353283D01*
X352783Y326902D01*
Y327902D01*
X353283Y328402D01*
X354283D01*
Y327402D01*
X352783Y329401D02*
X355783D01*
X352783Y331401D01*
X355783D01*
Y332400D02*
X352783D01*
Y333900D01*
X353283Y334400D01*
X355283D01*
X355783Y333900D01*
Y332400D01*
X169416Y408149D02*
X172415D01*
Y409648D01*
X171915Y410148D01*
X170915D01*
X170416Y409648D01*
Y408149D01*
Y409148D02*
X169416Y410148D01*
X172415Y413147D02*
Y411148D01*
X169416D01*
Y413147D01*
X170915Y411148D02*
Y412148D01*
X171915Y416146D02*
X172415Y415646D01*
Y414647D01*
X171915Y414147D01*
X171415D01*
X170915Y414647D01*
Y415646D01*
X170416Y416146D01*
X169916D01*
X169416Y415646D01*
Y414647D01*
X169916Y414147D01*
X172415Y419145D02*
Y417146D01*
X169416D01*
Y419145D01*
X170915Y417146D02*
Y418146D01*
X172415Y420145D02*
Y422144D01*
Y421144D01*
X169416D01*
X181353Y467088D02*
X181853Y466588D01*
Y465589D01*
X181353Y465089D01*
X180853D01*
X180353Y465589D01*
Y466588D01*
X179854Y467088D01*
X179354D01*
X178854Y466588D01*
Y465589D01*
X179354Y465089D01*
X181853Y468088D02*
X178854D01*
X179854Y469088D01*
X178854Y470087D01*
X181853D01*
Y472586D02*
Y471587D01*
X181353Y471087D01*
X179354D01*
X178854Y471587D01*
Y472586D01*
X179354Y473086D01*
X181353D01*
X181853Y472586D01*
X178854Y474086D02*
X180853Y476085D01*
X181853Y477085D02*
Y479084D01*
Y478085D01*
X178854D01*
X181853Y480084D02*
X178854D01*
Y481583D01*
X179354Y482083D01*
X181353D01*
X181853Y481583D01*
Y480084D01*
Y484582D02*
Y483583D01*
X181353Y483083D01*
X179354D01*
X178854Y483583D01*
Y484582D01*
X179354Y485082D01*
X181353D01*
X181853Y484582D01*
X167813Y452375D02*
Y454374D01*
Y453374D01*
X164814D01*
X167813Y455374D02*
X164814D01*
Y456873D01*
X165314Y457373D01*
X167313D01*
X167813Y456873D01*
Y455374D01*
Y458373D02*
Y459373D01*
Y458873D01*
X164814D01*
Y458373D01*
Y459373D01*
X192461Y430847D02*
Y432846D01*
Y431846D01*
X189462D01*
X191961Y435845D02*
X192461Y435345D01*
Y434346D01*
X191961Y433846D01*
X189962D01*
X189462Y434346D01*
Y435345D01*
X189962Y435845D01*
X192461Y436845D02*
X189462D01*
X190462D01*
X192461Y438844D01*
X190962Y437345D01*
X189462Y438844D01*
Y439844D02*
X191461Y441843D01*
X191961Y444842D02*
X192461Y444342D01*
Y443343D01*
X191961Y442843D01*
X191461D01*
X190962Y443343D01*
Y444342D01*
X190462Y444842D01*
X189962D01*
X189462Y444342D01*
Y443343D01*
X189962Y442843D01*
X192461Y445842D02*
X189462D01*
X190462Y446842D01*
X189462Y447841D01*
X192461D01*
X191961Y450840D02*
X192461Y450340D01*
Y449341D01*
X191961Y448841D01*
X189962D01*
X189462Y449341D01*
Y450340D01*
X189962Y450840D01*
X192461Y451840D02*
X189462D01*
Y453839D01*
X192461Y454839D02*
X189462D01*
X190462D01*
X192461Y456838D01*
X190962Y455339D01*
X189462Y456838D01*
M02*
