G04*
G04 #@! TF.GenerationSoftware,Altium Limited,Altium Designer,19.0.12 (326)*
G04*
G04 Layer_Color=8421504*
%FSLAX25Y25*%
%MOIN*%
G70*
G01*
G75*
%ADD40O,0.05900X0.11900*%
%ADD41O,0.11900X0.05900*%
%ADD42R,0.02756X0.03543*%
%ADD43R,0.01181X0.02359*%
%ADD44R,0.01201X0.01024*%
%ADD45C,0.05000*%
G04:AMPARAMS|DCode=46|XSize=20mil|YSize=22mil|CornerRadius=3.4mil|HoleSize=0mil|Usage=FLASHONLY|Rotation=180.000|XOffset=0mil|YOffset=0mil|HoleType=Round|Shape=RoundedRectangle|*
%AMROUNDEDRECTD46*
21,1,0.02000,0.01520,0,0,180.0*
21,1,0.01320,0.02200,0,0,180.0*
1,1,0.00680,-0.00660,0.00760*
1,1,0.00680,0.00660,0.00760*
1,1,0.00680,0.00660,-0.00760*
1,1,0.00680,-0.00660,-0.00760*
%
%ADD46ROUNDEDRECTD46*%
%ADD47R,0.01454X0.01454*%
G04:AMPARAMS|DCode=48|XSize=20mil|YSize=22mil|CornerRadius=3.4mil|HoleSize=0mil|Usage=FLASHONLY|Rotation=270.000|XOffset=0mil|YOffset=0mil|HoleType=Round|Shape=RoundedRectangle|*
%AMROUNDEDRECTD48*
21,1,0.02000,0.01520,0,0,270.0*
21,1,0.01320,0.02200,0,0,270.0*
1,1,0.00680,-0.00760,-0.00660*
1,1,0.00680,-0.00760,0.00660*
1,1,0.00680,0.00760,0.00660*
1,1,0.00680,0.00760,-0.00660*
%
%ADD48ROUNDEDRECTD48*%
%ADD49R,0.02950X0.02162*%
%ADD50O,0.01375X0.04524*%
G04:AMPARAMS|DCode=51|XSize=27.13mil|YSize=37.37mil|CornerRadius=4.83mil|HoleSize=0mil|Usage=FLASHONLY|Rotation=0.000|XOffset=0mil|YOffset=0mil|HoleType=Round|Shape=RoundedRectangle|*
%AMROUNDEDRECTD51*
21,1,0.02713,0.02772,0,0,0.0*
21,1,0.01748,0.03737,0,0,0.0*
1,1,0.00965,0.00874,-0.01386*
1,1,0.00965,-0.00874,-0.01386*
1,1,0.00965,-0.00874,0.01386*
1,1,0.00965,0.00874,0.01386*
%
%ADD51ROUNDEDRECTD51*%
%ADD52R,0.00984X0.01378*%
%ADD53R,0.03343X0.06099*%
%ADD54R,0.01769X0.00784*%
%ADD55R,0.01965X0.01769*%
%ADD56R,0.01769X0.01965*%
%ADD57R,0.02950X0.04721*%
G04:AMPARAMS|DCode=58|XSize=27.13mil|YSize=37.37mil|CornerRadius=4.83mil|HoleSize=0mil|Usage=FLASHONLY|Rotation=90.000|XOffset=0mil|YOffset=0mil|HoleType=Round|Shape=RoundedRectangle|*
%AMROUNDEDRECTD58*
21,1,0.02713,0.02772,0,0,90.0*
21,1,0.01748,0.03737,0,0,90.0*
1,1,0.00965,0.01386,0.00874*
1,1,0.00965,0.01386,-0.00874*
1,1,0.00965,-0.01386,-0.00874*
1,1,0.00965,-0.01386,0.00874*
%
%ADD58ROUNDEDRECTD58*%
%ADD59R,0.05312X0.02162*%
%ADD60R,0.06887X0.02162*%
%ADD61O,0.02950X0.00902*%
%ADD62O,0.00902X0.02950*%
%ADD63R,0.05800X0.02200*%
%ADD64R,0.01378X0.00984*%
%ADD65R,0.01454X0.01454*%
%ADD66R,0.04600X0.04600*%
%ADD67R,0.04600X0.04600*%
%ADD68R,0.02162X0.02950*%
%ADD69R,0.07700X0.07700*%
%ADD70R,0.07700X0.07700*%
%ADD71R,0.04131X0.06493*%
%ADD72R,0.01965X0.03737*%
%ADD73R,0.04328X0.12989*%
%ADD74R,0.02753X0.03540*%
%ADD75R,0.06493X0.04131*%
%ADD76R,0.00587X0.02359*%
%ADD77R,0.00587X0.02162*%
%ADD78R,0.09643X0.15351*%
%ADD79R,0.02700X0.03700*%
%ADD80O,0.04524X0.00784*%
%ADD81O,0.00784X0.04524*%
%ADD82R,0.19879X0.19879*%
%ADD83R,0.03737X0.02556*%
%ADD84R,0.04524X0.03934*%
%ADD85R,0.04524X0.04328*%
%ADD86R,0.04524X0.05509*%
%ADD87R,0.02531X0.03737*%
%ADD88R,0.03343X0.05312*%
%ADD89O,0.02162X0.05706*%
%ADD90R,0.02753X0.10824*%
%ADD91R,0.01375X0.00902*%
%ADD92O,0.06887X0.00781*%
%ADD93O,0.00781X0.06887*%
%ADD94R,0.04524X0.03343*%
%ADD95O,0.08855X0.02162*%
%ADD96R,0.03147X0.02162*%
%ADD97R,0.02200X0.02200*%
%ADD98R,0.03737X0.03343*%
%ADD99R,0.03343X0.01375*%
%ADD100R,0.07800X0.07800*%
%ADD101R,0.02950X0.01965*%
%ADD102O,0.05509X0.01965*%
%ADD103R,0.03265X0.02438*%
%ADD104R,0.10430X0.03540*%
%ADD105R,0.04800X0.08100*%
%ADD106R,0.15942X0.13580*%
%ADD107R,0.04721X0.01965*%
%ADD108R,0.09249X0.12005*%
%ADD109R,0.13186X0.05312*%
%ADD110R,0.02600X0.05400*%
%ADD111R,0.05400X0.02600*%
%ADD112R,0.03540X0.10430*%
%ADD113R,0.02438X0.03265*%
%ADD114R,0.02200X0.02200*%
G36*
X656727Y437889D02*
X653184D01*
Y440251D01*
X656727D01*
Y437889D01*
D02*
G37*
G36*
X652593Y434050D02*
X650231D01*
Y437594D01*
X652593D01*
Y434050D01*
D02*
G37*
G36*
X649542D02*
X647180D01*
Y437594D01*
X649542D01*
Y434050D01*
D02*
G37*
G36*
X646392D02*
X644030D01*
Y437594D01*
X646392D01*
Y434050D01*
D02*
G37*
G36*
X643341D02*
X640979D01*
Y437594D01*
X643341D01*
Y434050D01*
D02*
G37*
G36*
X656727Y432771D02*
X653184D01*
Y435133D01*
X656727D01*
Y432771D01*
D02*
G37*
G36*
X652593Y429523D02*
X650231D01*
Y433066D01*
X652593D01*
Y429523D01*
D02*
G37*
G36*
X649542D02*
X647180D01*
Y433066D01*
X649542D01*
Y429523D01*
D02*
G37*
G36*
X646392D02*
X644030D01*
Y433066D01*
X646392D01*
Y429523D01*
D02*
G37*
G36*
X643341D02*
X640979D01*
Y433066D01*
X643341D01*
Y429523D01*
D02*
G37*
G36*
X656727Y427751D02*
X653184D01*
Y430113D01*
X656727D01*
Y427751D01*
D02*
G37*
G36*
X652593Y424995D02*
X650231D01*
Y428539D01*
X652593D01*
Y424995D01*
D02*
G37*
G36*
X649542D02*
X647180D01*
Y428539D01*
X649542D01*
Y424995D01*
D02*
G37*
G36*
X646392D02*
X644030D01*
Y428539D01*
X646392D01*
Y424995D01*
D02*
G37*
G36*
X643341D02*
X640979D01*
Y428539D01*
X643341D01*
Y424995D01*
D02*
G37*
G36*
X656727Y422633D02*
X653184D01*
Y424995D01*
X656727D01*
Y422633D01*
D02*
G37*
G36*
X539883Y383075D02*
X539883Y380676D01*
X537582Y378376D01*
X530083Y378376D01*
X528683Y379776D01*
X528682Y383975D01*
X530082Y385375D01*
X537583Y385376D01*
X539883Y383075D01*
D02*
G37*
G36*
X513661Y338756D02*
X510118D01*
Y341118D01*
X513661D01*
Y338756D01*
D02*
G37*
G36*
X509134D02*
X505591D01*
Y341118D01*
X509134D01*
Y338756D01*
D02*
G37*
G36*
X504606D02*
X501063D01*
Y341118D01*
X504606D01*
Y338756D01*
D02*
G37*
G36*
X600010Y338356D02*
X596467D01*
Y340719D01*
X600010D01*
Y338356D01*
D02*
G37*
G36*
X595483D02*
X591940D01*
Y340719D01*
X595483D01*
Y338356D01*
D02*
G37*
G36*
X590955D02*
X587412D01*
Y340719D01*
X590955D01*
Y338356D01*
D02*
G37*
G36*
X556011Y338356D02*
X552468D01*
Y340718D01*
X556011D01*
Y338356D01*
D02*
G37*
G36*
X551483D02*
X547940D01*
Y340718D01*
X551483D01*
Y338356D01*
D02*
G37*
G36*
X546956D02*
X543413D01*
Y340718D01*
X546956D01*
Y338356D01*
D02*
G37*
G36*
X513661Y335705D02*
X510118D01*
Y338067D01*
X513661D01*
Y335705D01*
D02*
G37*
G36*
X509134D02*
X505591D01*
Y338067D01*
X509134D01*
Y335705D01*
D02*
G37*
G36*
X504606D02*
X501063D01*
Y338067D01*
X504606D01*
Y335705D01*
D02*
G37*
G36*
X600010Y335305D02*
X596467D01*
Y337667D01*
X600010D01*
Y335305D01*
D02*
G37*
G36*
X595483D02*
X591940D01*
Y337667D01*
X595483D01*
Y335305D01*
D02*
G37*
G36*
X590955D02*
X587412D01*
Y337667D01*
X590955D01*
Y335305D01*
D02*
G37*
G36*
X556011Y335305D02*
X552468D01*
Y337667D01*
X556011D01*
Y335305D01*
D02*
G37*
G36*
X551483D02*
X547940D01*
Y337667D01*
X551483D01*
Y335305D01*
D02*
G37*
G36*
X546956D02*
X543413D01*
Y337667D01*
X546956D01*
Y335305D01*
D02*
G37*
G36*
X513661Y332555D02*
X510118D01*
Y334917D01*
X513661D01*
Y332555D01*
D02*
G37*
G36*
X509134D02*
X505591D01*
Y334917D01*
X509134D01*
Y332555D01*
D02*
G37*
G36*
X504606D02*
X501063D01*
Y334917D01*
X504606D01*
Y332555D01*
D02*
G37*
G36*
X600010Y332155D02*
X596467D01*
Y334518D01*
X600010D01*
Y332155D01*
D02*
G37*
G36*
X595483D02*
X591940D01*
Y334518D01*
X595483D01*
Y332155D01*
D02*
G37*
G36*
X590955D02*
X587412D01*
Y334518D01*
X590955D01*
Y332155D01*
D02*
G37*
G36*
X556011Y332155D02*
X552468D01*
Y334517D01*
X556011D01*
Y332155D01*
D02*
G37*
G36*
X551483D02*
X547940D01*
Y334517D01*
X551483D01*
Y332155D01*
D02*
G37*
G36*
X546956D02*
X543413D01*
Y334517D01*
X546956D01*
Y332155D01*
D02*
G37*
G36*
X513661Y329504D02*
X510118D01*
Y331866D01*
X513661D01*
Y329504D01*
D02*
G37*
G36*
X509134D02*
X505591D01*
Y331866D01*
X509134D01*
Y329504D01*
D02*
G37*
G36*
X504606D02*
X501063D01*
Y331866D01*
X504606D01*
Y329504D01*
D02*
G37*
G36*
X600010Y329104D02*
X596467D01*
Y331467D01*
X600010D01*
Y329104D01*
D02*
G37*
G36*
X595483D02*
X591940D01*
Y331467D01*
X595483D01*
Y329104D01*
D02*
G37*
G36*
X590955D02*
X587412D01*
Y331467D01*
X590955D01*
Y329104D01*
D02*
G37*
G36*
X556011Y329104D02*
X552468D01*
Y331466D01*
X556011D01*
Y329104D01*
D02*
G37*
G36*
X551483D02*
X547940D01*
Y331466D01*
X551483D01*
Y329104D01*
D02*
G37*
G36*
X546956D02*
X543413D01*
Y331466D01*
X546956D01*
Y329104D01*
D02*
G37*
G36*
X516319Y325370D02*
X513957D01*
Y328913D01*
X516319D01*
Y325370D01*
D02*
G37*
G36*
X511201D02*
X508839D01*
Y328913D01*
X511201D01*
Y325370D01*
D02*
G37*
G36*
X506181D02*
X503819D01*
Y328913D01*
X506181D01*
Y325370D01*
D02*
G37*
G36*
X501063D02*
X498701D01*
Y328913D01*
X501063D01*
Y325370D01*
D02*
G37*
G36*
X602668Y324971D02*
X600306D01*
Y328514D01*
X602668D01*
Y324971D01*
D02*
G37*
G36*
X597550D02*
X595188D01*
Y328514D01*
X597550D01*
Y324971D01*
D02*
G37*
G36*
X592530D02*
X590168D01*
Y328514D01*
X592530D01*
Y324971D01*
D02*
G37*
G36*
X587412D02*
X585050D01*
Y328514D01*
X587412D01*
Y324971D01*
D02*
G37*
G36*
X558669Y324970D02*
X556306D01*
Y328513D01*
X558669D01*
Y324970D01*
D02*
G37*
G36*
X553550D02*
X551188D01*
Y328513D01*
X553550D01*
Y324970D01*
D02*
G37*
G36*
X548531D02*
X546169D01*
Y328513D01*
X548531D01*
Y324970D01*
D02*
G37*
G36*
X543413D02*
X541050D01*
Y328513D01*
X543413D01*
Y324970D01*
D02*
G37*
G36*
X372200Y322630D02*
X369326D01*
Y325465D01*
X372200D01*
Y322630D01*
D02*
G37*
G36*
X368421Y322591D02*
X365586D01*
Y325465D01*
X368421D01*
Y322591D01*
D02*
G37*
G36*
X372200Y318851D02*
X369365D01*
Y321725D01*
X372200D01*
Y318851D01*
D02*
G37*
G36*
X368460D02*
X365586D01*
Y321685D01*
X368460D01*
Y318851D01*
D02*
G37*
G36*
X312559Y236890D02*
X309685D01*
Y239724D01*
X312559D01*
Y236890D01*
D02*
G37*
G36*
X308780Y236850D02*
X305945D01*
Y239724D01*
X308780D01*
Y236850D01*
D02*
G37*
G36*
X246783Y236789D02*
X243909D01*
Y239624D01*
X246783D01*
Y236789D01*
D02*
G37*
G36*
X243004Y236750D02*
X240169D01*
Y239624D01*
X243004D01*
Y236750D01*
D02*
G37*
G36*
X312559Y233110D02*
X309724D01*
Y235984D01*
X312559D01*
Y233110D01*
D02*
G37*
G36*
X308819D02*
X305945D01*
Y235945D01*
X308819D01*
Y233110D01*
D02*
G37*
G36*
X246783Y233009D02*
X243948D01*
Y235883D01*
X246783D01*
Y233009D01*
D02*
G37*
G36*
X243043D02*
X240169D01*
Y235844D01*
X243043D01*
Y233009D01*
D02*
G37*
G54D40*
X389035Y377700D02*
D03*
X399035D02*
D03*
X379035D02*
D03*
X399035Y353700D02*
D03*
X379035D02*
D03*
X389035D02*
D03*
X303000Y309100D02*
D03*
X293000D02*
D03*
X265700Y353700D02*
D03*
X255700D02*
D03*
X275700D02*
D03*
X357800D02*
D03*
X337800D02*
D03*
X347800D02*
D03*
X316750D02*
D03*
X296750D02*
D03*
X306750D02*
D03*
X337800Y377700D02*
D03*
X357800D02*
D03*
X347800D02*
D03*
X296750D02*
D03*
X316750D02*
D03*
X306750D02*
D03*
X255700D02*
D03*
X275700D02*
D03*
X265700D02*
D03*
X334500Y309100D02*
D03*
X324500D02*
D03*
X271300D02*
D03*
X261300D02*
D03*
G54D41*
X436024Y265945D02*
D03*
Y285945D02*
D03*
Y275945D02*
D03*
Y307520D02*
D03*
Y327520D02*
D03*
Y317520D02*
D03*
X459842Y285945D02*
D03*
Y265945D02*
D03*
Y275945D02*
D03*
Y327421D02*
D03*
Y307421D02*
D03*
Y317421D02*
D03*
G54D42*
X645016Y130572D02*
D03*
X651905D02*
D03*
X648461D02*
D03*
X645291Y139746D02*
D03*
X647221Y135257D02*
D03*
X651098D02*
D03*
X648598Y139746D02*
D03*
X651905D02*
D03*
X656709D02*
D03*
X660016D02*
D03*
X657516Y135257D02*
D03*
X661394D02*
D03*
X663323Y139746D02*
D03*
X660153Y130572D02*
D03*
X656709D02*
D03*
X663598D02*
D03*
X661807Y125258D02*
D03*
X656807D02*
D03*
X651807D02*
D03*
X646807D02*
D03*
X645016Y102620D02*
D03*
X651905D02*
D03*
X648461D02*
D03*
X645291Y111793D02*
D03*
X647221Y107305D02*
D03*
X651098D02*
D03*
X648598Y111793D02*
D03*
X651905D02*
D03*
X656709D02*
D03*
X660016D02*
D03*
X657516Y107305D02*
D03*
X661394D02*
D03*
X663323Y111793D02*
D03*
X660154Y102620D02*
D03*
X656709D02*
D03*
X663598D02*
D03*
X661807Y97305D02*
D03*
X656807D02*
D03*
X651807D02*
D03*
X646807D02*
D03*
X609558Y125258D02*
D03*
X614558D02*
D03*
X619558D02*
D03*
X624558D02*
D03*
X626350Y130572D02*
D03*
X619460D02*
D03*
X622905D02*
D03*
X626074Y139746D02*
D03*
X624145Y135257D02*
D03*
X620267D02*
D03*
X622767Y139746D02*
D03*
X619460D02*
D03*
X614657D02*
D03*
X611350D02*
D03*
X613850Y135257D02*
D03*
X609972D02*
D03*
X608042Y139746D02*
D03*
X611212Y130572D02*
D03*
X614657D02*
D03*
X607767D02*
D03*
X607767Y102620D02*
D03*
X614657D02*
D03*
X611212D02*
D03*
X608042Y111793D02*
D03*
X609972Y107305D02*
D03*
X613850D02*
D03*
X611350Y111793D02*
D03*
X614657D02*
D03*
X619460D02*
D03*
X622767D02*
D03*
X620267Y107305D02*
D03*
X624145D02*
D03*
X626074Y111793D02*
D03*
X622905Y102620D02*
D03*
X619460D02*
D03*
X626350D02*
D03*
X624558Y97305D02*
D03*
X619558D02*
D03*
X614558D02*
D03*
X609558D02*
D03*
X563716Y130572D02*
D03*
X570606D02*
D03*
X567161D02*
D03*
X563991Y139746D02*
D03*
X565920Y135257D02*
D03*
X569798D02*
D03*
X567298Y139746D02*
D03*
X570606D02*
D03*
X575409D02*
D03*
X578716D02*
D03*
X576216Y135257D02*
D03*
X580094D02*
D03*
X582023Y139746D02*
D03*
X578854Y130572D02*
D03*
X575409D02*
D03*
X582298D02*
D03*
X580507Y125258D02*
D03*
X575507D02*
D03*
X570507D02*
D03*
X565507D02*
D03*
X526467Y130572D02*
D03*
X533357D02*
D03*
X529912D02*
D03*
X526743Y139746D02*
D03*
X528672Y135257D02*
D03*
X532550D02*
D03*
X530050Y139746D02*
D03*
X533357D02*
D03*
X538160D02*
D03*
X541467D02*
D03*
X538967Y135257D02*
D03*
X542845D02*
D03*
X544774Y139746D02*
D03*
X541605Y130572D02*
D03*
X538160D02*
D03*
X545050D02*
D03*
X543258Y125258D02*
D03*
X538258D02*
D03*
X533258D02*
D03*
X528258D02*
D03*
X526467Y102620D02*
D03*
X533357D02*
D03*
X529912D02*
D03*
X526743Y111793D02*
D03*
X528672Y107305D02*
D03*
X532550D02*
D03*
X530050Y111793D02*
D03*
X533357D02*
D03*
X538160D02*
D03*
X541467D02*
D03*
X538967Y107305D02*
D03*
X542845D02*
D03*
X544774Y111793D02*
D03*
X541605Y102620D02*
D03*
X538160D02*
D03*
X545050D02*
D03*
X543258Y97305D02*
D03*
X538258D02*
D03*
X533258D02*
D03*
X528258D02*
D03*
X400360Y130275D02*
D03*
X407250D02*
D03*
X403805D02*
D03*
X400636Y139448D02*
D03*
X402565Y134960D02*
D03*
X406443D02*
D03*
X403943Y139448D02*
D03*
X407250D02*
D03*
X412053D02*
D03*
X415360D02*
D03*
X412860Y134960D02*
D03*
X416738D02*
D03*
X418667Y139448D02*
D03*
X415498Y130275D02*
D03*
X412053D02*
D03*
X418943D02*
D03*
X417151Y124960D02*
D03*
X412151D02*
D03*
X407152D02*
D03*
X402151D02*
D03*
X445167Y130572D02*
D03*
X452057D02*
D03*
X448612D02*
D03*
X445442Y139746D02*
D03*
X447372Y135257D02*
D03*
X451250D02*
D03*
X448750Y139746D02*
D03*
X452057D02*
D03*
X456860D02*
D03*
X460167D02*
D03*
X457667Y135257D02*
D03*
X461545D02*
D03*
X463474Y139746D02*
D03*
X460305Y130572D02*
D03*
X456860D02*
D03*
X463750D02*
D03*
X461958Y125258D02*
D03*
X456958D02*
D03*
X451958D02*
D03*
X446958D02*
D03*
X482416Y130572D02*
D03*
X489305D02*
D03*
X485861D02*
D03*
X482691Y139746D02*
D03*
X484621Y135257D02*
D03*
X488498D02*
D03*
X485998Y139746D02*
D03*
X489305D02*
D03*
X494109D02*
D03*
X497416D02*
D03*
X494916Y135257D02*
D03*
X498794D02*
D03*
X500723Y139746D02*
D03*
X497553Y130572D02*
D03*
X494109D02*
D03*
X500998D02*
D03*
X499207Y125258D02*
D03*
X494207D02*
D03*
X489207D02*
D03*
X484207D02*
D03*
X482416Y102620D02*
D03*
X489305D02*
D03*
X485861D02*
D03*
X482691Y111793D02*
D03*
X484621Y107305D02*
D03*
X488498D02*
D03*
X485998Y111793D02*
D03*
X489305D02*
D03*
X494109D02*
D03*
X497416D02*
D03*
X494916Y107305D02*
D03*
X498794D02*
D03*
X500723Y111793D02*
D03*
X497554Y102620D02*
D03*
X494109D02*
D03*
X500998D02*
D03*
X499207Y97305D02*
D03*
X494207D02*
D03*
X489207D02*
D03*
X484207D02*
D03*
X445167Y102620D02*
D03*
X452057D02*
D03*
X448612D02*
D03*
X445442Y111793D02*
D03*
X447372Y107305D02*
D03*
X451250D02*
D03*
X448750Y111793D02*
D03*
X452057D02*
D03*
X456860D02*
D03*
X460167D02*
D03*
X457667Y107305D02*
D03*
X461545D02*
D03*
X463474Y111793D02*
D03*
X460305Y102620D02*
D03*
X456860D02*
D03*
X463750D02*
D03*
X461958Y97305D02*
D03*
X456958D02*
D03*
X451958D02*
D03*
X446958D02*
D03*
X363111Y130275D02*
D03*
X370001D02*
D03*
X366556D02*
D03*
X363387Y139448D02*
D03*
X365316Y134960D02*
D03*
X369194D02*
D03*
X366694Y139448D02*
D03*
X370001D02*
D03*
X374804D02*
D03*
X378111D02*
D03*
X375611Y134960D02*
D03*
X379489D02*
D03*
X381418Y139448D02*
D03*
X378249Y130275D02*
D03*
X374804D02*
D03*
X381694D02*
D03*
X379903Y124960D02*
D03*
X374903D02*
D03*
X369903D02*
D03*
X364903D02*
D03*
X363111Y102322D02*
D03*
X370001D02*
D03*
X366556D02*
D03*
X363387Y111495D02*
D03*
X365316Y107007D02*
D03*
X369194D02*
D03*
X366694Y111495D02*
D03*
X370001D02*
D03*
X374804D02*
D03*
X378111D02*
D03*
X375611Y107007D02*
D03*
X379489D02*
D03*
X381418Y111495D02*
D03*
X378249Y102322D02*
D03*
X374804D02*
D03*
X381694D02*
D03*
X379903Y97007D02*
D03*
X374903D02*
D03*
X369903D02*
D03*
X364903D02*
D03*
X400360Y102322D02*
D03*
X407250D02*
D03*
X403805D02*
D03*
X400636Y111495D02*
D03*
X402565Y107007D02*
D03*
X406443D02*
D03*
X403943Y111495D02*
D03*
X407250D02*
D03*
X412053D02*
D03*
X415360D02*
D03*
X412860Y107007D02*
D03*
X416738D02*
D03*
X418667Y111495D02*
D03*
X415498Y102322D02*
D03*
X412053D02*
D03*
X418943D02*
D03*
X417151Y97007D02*
D03*
X412151D02*
D03*
X407152D02*
D03*
X402151D02*
D03*
X281584Y130572D02*
D03*
X288474D02*
D03*
X285029D02*
D03*
X281860Y139746D02*
D03*
X283789Y135257D02*
D03*
X287667D02*
D03*
X285167Y139746D02*
D03*
X288474D02*
D03*
X293277D02*
D03*
X296584D02*
D03*
X294084Y135257D02*
D03*
X297962D02*
D03*
X299891Y139746D02*
D03*
X296722Y130572D02*
D03*
X293277D02*
D03*
X300167D02*
D03*
X298376Y125258D02*
D03*
X293376D02*
D03*
X288376D02*
D03*
X283376D02*
D03*
X318833Y102620D02*
D03*
X325723D02*
D03*
X322278D02*
D03*
X319109Y111793D02*
D03*
X321038Y107305D02*
D03*
X324916D02*
D03*
X322416Y111793D02*
D03*
X325723D02*
D03*
X330526D02*
D03*
X333833D02*
D03*
X331333Y107305D02*
D03*
X335211D02*
D03*
X337140Y111793D02*
D03*
X333971Y102620D02*
D03*
X330526D02*
D03*
X337416D02*
D03*
X335624Y97305D02*
D03*
X330624D02*
D03*
X325624D02*
D03*
X320624D02*
D03*
X318833Y130572D02*
D03*
X325723D02*
D03*
X322278D02*
D03*
X319109Y139746D02*
D03*
X321038Y135257D02*
D03*
X324916D02*
D03*
X322416Y139746D02*
D03*
X325723D02*
D03*
X330526D02*
D03*
X333833D02*
D03*
X331333Y135257D02*
D03*
X335211D02*
D03*
X337140Y139746D02*
D03*
X333971Y130572D02*
D03*
X330526D02*
D03*
X337416D02*
D03*
X335624Y125258D02*
D03*
X330624D02*
D03*
X325624D02*
D03*
X320624D02*
D03*
X236777Y130668D02*
D03*
X243667D02*
D03*
X240222D02*
D03*
X237053Y139842D02*
D03*
X238982Y135353D02*
D03*
X242860D02*
D03*
X240360Y139842D02*
D03*
X243667D02*
D03*
X248470D02*
D03*
X251778D02*
D03*
X249278Y135353D02*
D03*
X253155D02*
D03*
X255085Y139842D02*
D03*
X251915Y130668D02*
D03*
X248470D02*
D03*
X255360D02*
D03*
X253569Y125353D02*
D03*
X248569D02*
D03*
X243569D02*
D03*
X238569D02*
D03*
X281584Y102620D02*
D03*
X288474D02*
D03*
X285029D02*
D03*
X281860Y111793D02*
D03*
X283789Y107305D02*
D03*
X287667D02*
D03*
X285167Y111793D02*
D03*
X288474D02*
D03*
X293277D02*
D03*
X296584D02*
D03*
X294084Y107305D02*
D03*
X297962D02*
D03*
X299891Y111793D02*
D03*
X296722Y102620D02*
D03*
X293277D02*
D03*
X300167D02*
D03*
X298376Y97305D02*
D03*
X293376D02*
D03*
X288376D02*
D03*
X283376D02*
D03*
X236777Y102716D02*
D03*
X243667D02*
D03*
X240222D02*
D03*
X237053Y111889D02*
D03*
X238982Y107401D02*
D03*
X242860D02*
D03*
X240360Y111889D02*
D03*
X243667D02*
D03*
X248470D02*
D03*
X251778D02*
D03*
X249278Y107401D02*
D03*
X253155D02*
D03*
X255085Y111889D02*
D03*
X251915Y102716D02*
D03*
X248470D02*
D03*
X255360D02*
D03*
X253569Y97401D02*
D03*
X248569D02*
D03*
X243569D02*
D03*
X238569D02*
D03*
X199529Y130668D02*
D03*
X206418D02*
D03*
X202974D02*
D03*
X199804Y139842D02*
D03*
X201733Y135353D02*
D03*
X205611D02*
D03*
X203111Y139842D02*
D03*
X206418D02*
D03*
X211222D02*
D03*
X214529D02*
D03*
X212029Y135353D02*
D03*
X215907D02*
D03*
X217836Y139842D02*
D03*
X214667Y130668D02*
D03*
X211222D02*
D03*
X218111D02*
D03*
X216320Y125353D02*
D03*
X211320D02*
D03*
X206320D02*
D03*
X201320D02*
D03*
X199529Y102716D02*
D03*
X206418D02*
D03*
X202974D02*
D03*
X199804Y111889D02*
D03*
X201733Y107401D02*
D03*
X205611D02*
D03*
X203111Y111889D02*
D03*
X206418D02*
D03*
X211222D02*
D03*
X214529D02*
D03*
X212029Y107401D02*
D03*
X215907D02*
D03*
X217836Y111889D02*
D03*
X214667Y102716D02*
D03*
X211222D02*
D03*
X218111D02*
D03*
X216320Y97401D02*
D03*
X211320D02*
D03*
X206320D02*
D03*
X201320D02*
D03*
X155250Y130572D02*
D03*
X162140D02*
D03*
X158695D02*
D03*
X155526Y139746D02*
D03*
X157455Y135257D02*
D03*
X161333D02*
D03*
X158833Y139746D02*
D03*
X162140D02*
D03*
X166943D02*
D03*
X170250D02*
D03*
X167750Y135257D02*
D03*
X171628D02*
D03*
X173557Y139746D02*
D03*
X170388Y130572D02*
D03*
X166943D02*
D03*
X173833D02*
D03*
X172042Y125258D02*
D03*
X167042D02*
D03*
X162042D02*
D03*
X157042D02*
D03*
X118002Y130572D02*
D03*
X124891D02*
D03*
X121447D02*
D03*
X118277Y139746D02*
D03*
X120206Y135257D02*
D03*
X124084D02*
D03*
X121584Y139746D02*
D03*
X124891D02*
D03*
X129694D02*
D03*
X133002D02*
D03*
X130502Y135257D02*
D03*
X134379D02*
D03*
X136309Y139746D02*
D03*
X133139Y130572D02*
D03*
X129694D02*
D03*
X136584D02*
D03*
X134793Y125258D02*
D03*
X129793D02*
D03*
X124793D02*
D03*
X119793D02*
D03*
X118002Y102620D02*
D03*
X124891D02*
D03*
X121447D02*
D03*
X118277Y111793D02*
D03*
X120206Y107305D02*
D03*
X124084D02*
D03*
X121584Y111793D02*
D03*
X124891D02*
D03*
X129694D02*
D03*
X133002D02*
D03*
X130502Y107305D02*
D03*
X134379D02*
D03*
X136309Y111793D02*
D03*
X133139Y102620D02*
D03*
X129694D02*
D03*
X136584D02*
D03*
X134793Y97305D02*
D03*
X129793D02*
D03*
X124793D02*
D03*
X119793D02*
D03*
X155250Y102620D02*
D03*
X162140D02*
D03*
X158695D02*
D03*
X155526Y111793D02*
D03*
X157455Y107305D02*
D03*
X161333D02*
D03*
X158833Y111793D02*
D03*
X162140D02*
D03*
X166943D02*
D03*
X170250D02*
D03*
X167750Y107305D02*
D03*
X171628D02*
D03*
X173557Y111793D02*
D03*
X170388Y102620D02*
D03*
X166943D02*
D03*
X173833D02*
D03*
X172042Y97305D02*
D03*
X167042D02*
D03*
X162042D02*
D03*
X157042D02*
D03*
X563716Y102620D02*
D03*
X570606D02*
D03*
X567161D02*
D03*
X563991Y111793D02*
D03*
X565920Y107305D02*
D03*
X569798D02*
D03*
X567298Y111793D02*
D03*
X570606D02*
D03*
X575409D02*
D03*
X578716D02*
D03*
X576216Y107305D02*
D03*
X580094D02*
D03*
X582023Y111793D02*
D03*
X578854Y102620D02*
D03*
X575409D02*
D03*
X582298D02*
D03*
X580507Y97305D02*
D03*
X575507D02*
D03*
X570507D02*
D03*
X565507D02*
D03*
X36210Y130572D02*
D03*
X43100D02*
D03*
X39655D02*
D03*
X36486Y139746D02*
D03*
X38415Y135257D02*
D03*
X42293D02*
D03*
X39793Y139746D02*
D03*
X43100D02*
D03*
X47903D02*
D03*
X51210D02*
D03*
X48710Y135257D02*
D03*
X52588D02*
D03*
X54517Y139746D02*
D03*
X51348Y130572D02*
D03*
X47903D02*
D03*
X54793D02*
D03*
X53002Y125258D02*
D03*
X48002D02*
D03*
X43002D02*
D03*
X38002D02*
D03*
X73459Y130572D02*
D03*
X80349D02*
D03*
X76904D02*
D03*
X73735Y139746D02*
D03*
X75664Y135257D02*
D03*
X79542D02*
D03*
X77042Y139746D02*
D03*
X80349D02*
D03*
X85152D02*
D03*
X88459D02*
D03*
X85959Y135257D02*
D03*
X89837D02*
D03*
X91766Y139746D02*
D03*
X88597Y130572D02*
D03*
X85152D02*
D03*
X92042D02*
D03*
X90250Y125258D02*
D03*
X85250D02*
D03*
X80250D02*
D03*
X75250D02*
D03*
X73459Y102620D02*
D03*
X80349D02*
D03*
X76904D02*
D03*
X73735Y111793D02*
D03*
X75664Y107305D02*
D03*
X79542D02*
D03*
X77042Y111793D02*
D03*
X80349D02*
D03*
X85152D02*
D03*
X88459D02*
D03*
X85959Y107305D02*
D03*
X89837D02*
D03*
X91766Y111793D02*
D03*
X88597Y102620D02*
D03*
X85152D02*
D03*
X92042D02*
D03*
X90250Y97305D02*
D03*
X85250D02*
D03*
X80250D02*
D03*
X75250D02*
D03*
X36210Y102620D02*
D03*
X43100D02*
D03*
X39655D02*
D03*
X36486Y111793D02*
D03*
X38415Y107305D02*
D03*
X42293D02*
D03*
X39793Y111793D02*
D03*
X43100D02*
D03*
X47903D02*
D03*
X51210D02*
D03*
X48710Y107305D02*
D03*
X52588D02*
D03*
X54517Y111793D02*
D03*
X51348Y102620D02*
D03*
X47903D02*
D03*
X54793D02*
D03*
X53002Y97305D02*
D03*
X48002D02*
D03*
X43002D02*
D03*
X38002D02*
D03*
G54D43*
X461225Y417106D02*
D03*
Y419865D02*
D03*
G54D44*
X46627Y385050D02*
D03*
X46627Y383081D02*
D03*
Y381113D02*
D03*
X43971Y381113D02*
D03*
Y383081D02*
D03*
X43971Y385050D02*
D03*
G54D45*
X449763Y474737D02*
D03*
Y466863D02*
D03*
X455275Y461351D02*
D03*
X463149D02*
D03*
X468661Y466863D02*
D03*
Y474737D02*
D03*
X463149Y480249D02*
D03*
X455275D02*
D03*
X340158Y18937D02*
D03*
Y11063D02*
D03*
X345669Y5551D02*
D03*
X353543D02*
D03*
X359055Y11063D02*
D03*
Y18937D02*
D03*
X353543Y24449D02*
D03*
X345669D02*
D03*
X742049Y10863D02*
D03*
Y18737D02*
D03*
X736537Y24249D02*
D03*
X728663D02*
D03*
X723151Y18737D02*
D03*
Y10863D02*
D03*
X728663Y5351D02*
D03*
X736537D02*
D03*
X24449Y11063D02*
D03*
Y18937D02*
D03*
X18937Y24449D02*
D03*
X11063D02*
D03*
X5551Y18937D02*
D03*
Y11063D02*
D03*
X11063Y5551D02*
D03*
X18937D02*
D03*
X24449Y466863D02*
D03*
Y474737D02*
D03*
X18937Y480249D02*
D03*
X11063D02*
D03*
X5551Y474737D02*
D03*
Y466863D02*
D03*
X11063Y461351D02*
D03*
X18937D02*
D03*
X742049Y466863D02*
D03*
Y474737D02*
D03*
X736537Y480249D02*
D03*
X728663D02*
D03*
X723151Y474737D02*
D03*
Y466863D02*
D03*
X728663Y461351D02*
D03*
X736537D02*
D03*
G54D46*
X266469Y433573D02*
D03*
X262729D02*
D03*
X276141Y397439D02*
D03*
X272352D02*
D03*
X304169Y433573D02*
D03*
X300429D02*
D03*
X313841Y397439D02*
D03*
X310051D02*
D03*
X341868Y433573D02*
D03*
X338128D02*
D03*
X351541Y397439D02*
D03*
X347751D02*
D03*
X379568Y433573D02*
D03*
X375828D02*
D03*
X417268D02*
D03*
X413528D02*
D03*
X426940Y397439D02*
D03*
X423151D02*
D03*
X386026Y312990D02*
D03*
X382236D02*
D03*
X357246Y333740D02*
D03*
X361035D02*
D03*
X401857Y337977D02*
D03*
X398067D02*
D03*
X389067Y337976D02*
D03*
X392857D02*
D03*
X392492Y334053D02*
D03*
X396232D02*
D03*
X386026Y323324D02*
D03*
X382236D02*
D03*
X379530Y332773D02*
D03*
X375740D02*
D03*
X430120Y342517D02*
D03*
X426330D02*
D03*
X385927Y279919D02*
D03*
X382137D02*
D03*
X386026Y269961D02*
D03*
X382236D02*
D03*
X466773Y345765D02*
D03*
X470563D02*
D03*
X470573Y341533D02*
D03*
X466783D02*
D03*
X481665Y294880D02*
D03*
X477925D02*
D03*
X481709Y290746D02*
D03*
X477919D02*
D03*
X477910Y277458D02*
D03*
X481700D02*
D03*
X477910Y273423D02*
D03*
X481700D02*
D03*
X682946Y74054D02*
D03*
X686686D02*
D03*
X694248Y61468D02*
D03*
X698038D02*
D03*
X694148Y65864D02*
D03*
X697938D02*
D03*
X690070Y65708D02*
D03*
X686280D02*
D03*
X686266Y61566D02*
D03*
X690056D02*
D03*
X600709Y168269D02*
D03*
X604499D02*
D03*
X648957Y168300D02*
D03*
X652746D02*
D03*
X665746Y168200D02*
D03*
X661957D02*
D03*
X641457Y146100D02*
D03*
X637667D02*
D03*
X560157D02*
D03*
X556367D02*
D03*
X518819Y147895D02*
D03*
X522609D02*
D03*
X600119D02*
D03*
X603909D02*
D03*
X617423Y168171D02*
D03*
X613633D02*
D03*
X640228Y220669D02*
D03*
X644017D02*
D03*
X604125Y220966D02*
D03*
X607915D02*
D03*
X567657Y168300D02*
D03*
X571447D02*
D03*
X584446Y168200D02*
D03*
X580657D02*
D03*
X558928Y220669D02*
D03*
X562717D02*
D03*
X522825Y220966D02*
D03*
X526615D02*
D03*
X441525D02*
D03*
X445315D02*
D03*
X477628Y220669D02*
D03*
X481417D02*
D03*
X536123Y168171D02*
D03*
X532333D02*
D03*
X519410Y168269D02*
D03*
X523199D02*
D03*
X322774Y168300D02*
D03*
X326564D02*
D03*
X503147Y168200D02*
D03*
X499357D02*
D03*
X486357Y168300D02*
D03*
X490146D02*
D03*
X454823Y168171D02*
D03*
X451033D02*
D03*
X438109Y168269D02*
D03*
X441899D02*
D03*
X437519Y147895D02*
D03*
X441309D02*
D03*
X478857Y146100D02*
D03*
X475067D02*
D03*
X404301Y168002D02*
D03*
X408091D02*
D03*
X421091Y167902D02*
D03*
X417301D02*
D03*
X286586Y234643D02*
D03*
X290326D02*
D03*
X274136Y235726D02*
D03*
X270346D02*
D03*
X264637Y235923D02*
D03*
X260897D02*
D03*
X272511Y231887D02*
D03*
X268771D02*
D03*
X395572Y220372D02*
D03*
X399362D02*
D03*
X367619Y218797D02*
D03*
X371409D02*
D03*
X343839Y219131D02*
D03*
X340049D02*
D03*
X340159Y215050D02*
D03*
X343948D02*
D03*
X372767Y167873D02*
D03*
X368977D02*
D03*
X356054Y167972D02*
D03*
X359844D02*
D03*
X396801Y145802D02*
D03*
X393011D02*
D03*
X355463Y147598D02*
D03*
X359253D02*
D03*
X273936Y147895D02*
D03*
X277726D02*
D03*
X315274Y146100D02*
D03*
X311484D02*
D03*
X339564Y168200D02*
D03*
X335774D02*
D03*
X314045Y220669D02*
D03*
X317835D02*
D03*
X286092Y219094D02*
D03*
X289882D02*
D03*
X262176Y219429D02*
D03*
X258386D02*
D03*
X258631Y215348D02*
D03*
X262421D02*
D03*
X304148Y224828D02*
D03*
X307938D02*
D03*
X274527Y168269D02*
D03*
X278317D02*
D03*
X291240Y168171D02*
D03*
X287450D02*
D03*
X239834Y258757D02*
D03*
X236094D02*
D03*
X231832Y265057D02*
D03*
X235622D02*
D03*
X231832Y269191D02*
D03*
X235622D02*
D03*
X230582Y281395D02*
D03*
X234322D02*
D03*
X231989Y220765D02*
D03*
X235779D02*
D03*
X209185Y168267D02*
D03*
X205395D02*
D03*
X192471Y168365D02*
D03*
X196261D02*
D03*
X257508Y168296D02*
D03*
X253718D02*
D03*
X240719Y168396D02*
D03*
X244508D02*
D03*
X233219Y146196D02*
D03*
X229429D02*
D03*
X191881Y147991D02*
D03*
X195670D02*
D03*
X204037Y219190D02*
D03*
X207826D02*
D03*
X176576Y215444D02*
D03*
X180366D02*
D03*
X180120Y219525D02*
D03*
X176330D02*
D03*
X150462Y220669D02*
D03*
X154252D02*
D03*
X125127Y238287D02*
D03*
X121337D02*
D03*
X114360Y220966D02*
D03*
X118150D02*
D03*
X159191Y168300D02*
D03*
X162981D02*
D03*
X175981Y168200D02*
D03*
X172191D02*
D03*
X127657Y168171D02*
D03*
X123868D02*
D03*
X110944Y168269D02*
D03*
X114734D02*
D03*
X151691Y146100D02*
D03*
X147901D02*
D03*
X110354Y147895D02*
D03*
X114143D02*
D03*
X68671Y220669D02*
D03*
X72461D02*
D03*
X32568Y220966D02*
D03*
X36358D02*
D03*
X29153Y168269D02*
D03*
X32943D02*
D03*
X42076Y168171D02*
D03*
X45866D02*
D03*
X90400Y168200D02*
D03*
X94190D02*
D03*
X81190Y168300D02*
D03*
X77400D02*
D03*
X66110Y146100D02*
D03*
X69900D02*
D03*
X32352Y147895D02*
D03*
X28562D02*
D03*
X726080Y73508D02*
D03*
X729820D02*
D03*
X385451Y397439D02*
D03*
X389241D02*
D03*
X64818Y356576D02*
D03*
X61028D02*
D03*
X607946Y206400D02*
D03*
X604157D02*
D03*
X607972Y212403D02*
D03*
X604183D02*
D03*
X604173Y202598D02*
D03*
X607912D02*
D03*
X526647Y206400D02*
D03*
X522857D02*
D03*
X526673Y212403D02*
D03*
X522883D02*
D03*
X522872Y202598D02*
D03*
X526613D02*
D03*
X445346Y206400D02*
D03*
X441557D02*
D03*
X445372Y212403D02*
D03*
X441583D02*
D03*
X441573Y202598D02*
D03*
X445312D02*
D03*
X363291Y206102D02*
D03*
X359501D02*
D03*
X352096Y206987D02*
D03*
X348307D02*
D03*
X359517Y202301D02*
D03*
X363257D02*
D03*
X281764Y206400D02*
D03*
X277974D02*
D03*
X270569Y207285D02*
D03*
X266779D02*
D03*
X277990Y202598D02*
D03*
X281730D02*
D03*
X199708Y206496D02*
D03*
X195919D02*
D03*
X188514Y207381D02*
D03*
X184724D02*
D03*
X195934Y202694D02*
D03*
X199674D02*
D03*
X118181Y206400D02*
D03*
X114391D02*
D03*
X118207Y212403D02*
D03*
X114417D02*
D03*
X114407Y202598D02*
D03*
X118147D02*
D03*
X481763Y266139D02*
D03*
X477974D02*
D03*
X478200Y306297D02*
D03*
X481990D02*
D03*
X570609Y307576D02*
D03*
X566819D02*
D03*
X538870Y300687D02*
D03*
X535080D02*
D03*
X509244Y302261D02*
D03*
X505454D02*
D03*
X133976Y238307D02*
D03*
X130187D02*
D03*
X32626Y212403D02*
D03*
X36416D02*
D03*
X32600Y206400D02*
D03*
X36390D02*
D03*
X95973Y253942D02*
D03*
X92183D02*
D03*
X151839Y284060D02*
D03*
X155628D02*
D03*
X121661Y254490D02*
D03*
X117871D02*
D03*
X710450Y61928D02*
D03*
X714239D02*
D03*
X722050Y61828D02*
D03*
X718260D02*
D03*
X722039Y66228D02*
D03*
X718250D02*
D03*
X714250Y66128D02*
D03*
X710460D02*
D03*
X570654Y466685D02*
D03*
X566865D02*
D03*
X138491Y305998D02*
D03*
X134702D02*
D03*
X14868Y223268D02*
D03*
X18658D02*
D03*
X137800Y326048D02*
D03*
X134010D02*
D03*
X90800Y358200D02*
D03*
X94590D02*
D03*
X104000D02*
D03*
X100210D02*
D03*
X288389Y336688D02*
D03*
X284599D02*
D03*
X277463Y291139D02*
D03*
X273673D02*
D03*
X138305Y298214D02*
D03*
X142095D02*
D03*
X36000Y311248D02*
D03*
X39790D02*
D03*
X36000Y307148D02*
D03*
X39790D02*
D03*
X35101Y283548D02*
D03*
X38891D02*
D03*
X38900Y271348D02*
D03*
X35110D02*
D03*
X38900Y275348D02*
D03*
X35110D02*
D03*
X297596Y336659D02*
D03*
X301385D02*
D03*
X54314Y422394D02*
D03*
X58104D02*
D03*
X54316Y426500D02*
D03*
X58105D02*
D03*
X537856Y349031D02*
D03*
X534066D02*
D03*
X58133Y430490D02*
D03*
X54343D02*
D03*
X64100Y380100D02*
D03*
X67890D02*
D03*
X64100Y384500D02*
D03*
X67890D02*
D03*
X119600Y381800D02*
D03*
X123390D02*
D03*
X119500Y376300D02*
D03*
X123290D02*
D03*
X130600Y357100D02*
D03*
X126810D02*
D03*
X412896Y296061D02*
D03*
X409106D02*
D03*
X442805Y389027D02*
D03*
X439015D02*
D03*
X420249Y374846D02*
D03*
X416460D02*
D03*
X273230Y323718D02*
D03*
X269441D02*
D03*
X271248Y336560D02*
D03*
X267458D02*
D03*
X263075Y323403D02*
D03*
X259286D02*
D03*
X310136Y323846D02*
D03*
X306346D02*
D03*
X297242Y324198D02*
D03*
X301031D02*
D03*
X288376Y324315D02*
D03*
X284587D02*
D03*
X14269Y263666D02*
D03*
X18059D02*
D03*
X263388Y336316D02*
D03*
X259598D02*
D03*
X420249Y379570D02*
D03*
X416460D02*
D03*
X188300Y404037D02*
D03*
X192090D02*
D03*
X182900Y403937D02*
D03*
X179110D02*
D03*
X267452Y280670D02*
D03*
X263662D02*
D03*
X323552Y336016D02*
D03*
X319762D02*
D03*
X321442Y323848D02*
D03*
X317652D02*
D03*
X286967Y280694D02*
D03*
X283177D02*
D03*
X333442Y328135D02*
D03*
X337232D02*
D03*
X337262Y331973D02*
D03*
X333472D02*
D03*
X333462Y324198D02*
D03*
X337252D02*
D03*
X40156Y404214D02*
D03*
X36366D02*
D03*
X55314Y407064D02*
D03*
X59104D02*
D03*
X310174Y336622D02*
D03*
X306384D02*
D03*
X561314Y468851D02*
D03*
X557524D02*
D03*
X557235Y464818D02*
D03*
X553445D02*
D03*
G54D47*
X261844Y429694D02*
D03*
X264599D02*
D03*
X256259Y399604D02*
D03*
X259015D02*
D03*
X299543Y429694D02*
D03*
X302299D02*
D03*
X293959Y399604D02*
D03*
X296715D02*
D03*
X337243Y429694D02*
D03*
X339999D02*
D03*
X331659Y399604D02*
D03*
X334415D02*
D03*
X341732Y392997D02*
D03*
X344488D02*
D03*
X369359Y399604D02*
D03*
X372115D02*
D03*
X374943Y429694D02*
D03*
X377699D02*
D03*
X412643D02*
D03*
X415399D02*
D03*
X352750Y295470D02*
D03*
X349994D02*
D03*
X624903Y231791D02*
D03*
X627659D02*
D03*
X607876Y230906D02*
D03*
X605120D02*
D03*
X607580Y224803D02*
D03*
X604824D02*
D03*
X526576Y230906D02*
D03*
X523820D02*
D03*
X523524Y224803D02*
D03*
X526280D02*
D03*
X462303Y231791D02*
D03*
X465059D02*
D03*
X445276Y230906D02*
D03*
X442520D02*
D03*
X442224Y224803D02*
D03*
X444980D02*
D03*
X306370Y246651D02*
D03*
X309125D02*
D03*
X357905Y220962D02*
D03*
X360661D02*
D03*
X344342Y222872D02*
D03*
X341586D02*
D03*
X348555Y211120D02*
D03*
X345799D02*
D03*
X276378Y221260D02*
D03*
X279134D02*
D03*
X262815Y223169D02*
D03*
X260059D02*
D03*
X267028Y211417D02*
D03*
X264272D02*
D03*
X245149Y246651D02*
D03*
X247905D02*
D03*
X194322Y221356D02*
D03*
X197078D02*
D03*
X184972Y211513D02*
D03*
X182216D02*
D03*
X180759Y223265D02*
D03*
X178004D02*
D03*
X135138Y231791D02*
D03*
X137894D02*
D03*
X118110Y230906D02*
D03*
X115354D02*
D03*
X115059Y224803D02*
D03*
X117815D02*
D03*
X543603Y231791D02*
D03*
X546359D02*
D03*
X53347D02*
D03*
X56102D02*
D03*
X36319Y230906D02*
D03*
X33563D02*
D03*
X33268Y224803D02*
D03*
X36024D02*
D03*
X248791Y257281D02*
D03*
X246035D02*
D03*
X409815Y399604D02*
D03*
X407059D02*
D03*
X629972Y217285D02*
D03*
X632728D02*
D03*
X548672D02*
D03*
X551428D02*
D03*
X467372D02*
D03*
X470128D02*
D03*
X385316Y216987D02*
D03*
X388072D02*
D03*
X303789Y217285D02*
D03*
X306545D02*
D03*
X221733Y217381D02*
D03*
X224489D02*
D03*
X140206Y217285D02*
D03*
X142962D02*
D03*
X385602Y392911D02*
D03*
X382846D02*
D03*
X58415Y217285D02*
D03*
X61171D02*
D03*
X89370Y249705D02*
D03*
X92126D02*
D03*
X298130Y392406D02*
D03*
X300886D02*
D03*
X353445Y337402D02*
D03*
X356201D02*
D03*
G54D48*
X251633Y414141D02*
D03*
Y417931D02*
D03*
X280999Y430103D02*
D03*
Y433843D02*
D03*
X318699Y430103D02*
D03*
Y433843D02*
D03*
X356398Y430103D02*
D03*
Y433843D02*
D03*
X394098Y430103D02*
D03*
Y433843D02*
D03*
X431798Y430103D02*
D03*
Y433843D02*
D03*
X473647Y429109D02*
D03*
Y432898D02*
D03*
X477695Y429098D02*
D03*
Y432888D02*
D03*
X483547Y429109D02*
D03*
Y432898D02*
D03*
X404401Y302611D02*
D03*
Y306401D02*
D03*
X408830Y302655D02*
D03*
Y306395D02*
D03*
X414834Y306425D02*
D03*
Y302635D02*
D03*
X418870Y302625D02*
D03*
Y306415D02*
D03*
X371272Y306365D02*
D03*
Y310155D02*
D03*
X357775Y319109D02*
D03*
Y315319D02*
D03*
X357649Y327064D02*
D03*
Y323324D02*
D03*
X422708Y357576D02*
D03*
Y361316D02*
D03*
X418377Y357546D02*
D03*
Y361336D02*
D03*
X414047Y361346D02*
D03*
Y357557D02*
D03*
X416657Y259174D02*
D03*
Y262963D02*
D03*
X411627Y262973D02*
D03*
Y259183D02*
D03*
X396144Y259174D02*
D03*
Y262963D02*
D03*
X388555Y262891D02*
D03*
Y259151D02*
D03*
X452925Y340913D02*
D03*
Y344702D02*
D03*
X448693Y340943D02*
D03*
Y344683D02*
D03*
X682398Y52320D02*
D03*
Y48530D02*
D03*
X667657Y121800D02*
D03*
Y125590D02*
D03*
X637857Y153900D02*
D03*
Y150110D02*
D03*
X641457Y124900D02*
D03*
Y121110D02*
D03*
X629957Y121100D02*
D03*
Y124890D02*
D03*
X603692Y143890D02*
D03*
Y140100D02*
D03*
X603389Y121300D02*
D03*
Y117510D02*
D03*
X586357Y121800D02*
D03*
Y125590D02*
D03*
X556557Y153900D02*
D03*
Y150110D02*
D03*
X560157Y124900D02*
D03*
Y121110D02*
D03*
X548657Y121100D02*
D03*
Y124890D02*
D03*
X522089Y121300D02*
D03*
Y117510D02*
D03*
X522392Y143890D02*
D03*
Y140100D02*
D03*
X625247Y224300D02*
D03*
Y228090D02*
D03*
X616684Y228043D02*
D03*
Y224254D02*
D03*
X535384Y228043D02*
D03*
Y224254D02*
D03*
X462647Y224300D02*
D03*
Y228090D02*
D03*
X454084Y228043D02*
D03*
Y224254D02*
D03*
X515031Y230972D02*
D03*
Y234761D02*
D03*
X441092Y143890D02*
D03*
Y140100D02*
D03*
X505057Y121800D02*
D03*
Y125590D02*
D03*
X475257Y153900D02*
D03*
Y150110D02*
D03*
X478857Y124900D02*
D03*
Y121110D02*
D03*
X467357Y121100D02*
D03*
Y124890D02*
D03*
X440789Y121300D02*
D03*
Y117510D02*
D03*
X298425Y239439D02*
D03*
Y243228D02*
D03*
X294460Y239466D02*
D03*
Y243206D02*
D03*
X298425Y229084D02*
D03*
Y232874D02*
D03*
X294362Y232872D02*
D03*
Y229132D02*
D03*
X282452Y235756D02*
D03*
Y231966D02*
D03*
X278318Y235756D02*
D03*
Y231966D02*
D03*
X269067Y243827D02*
D03*
Y240037D02*
D03*
X264834Y243779D02*
D03*
Y240039D02*
D03*
X321232Y238353D02*
D03*
Y242143D02*
D03*
X325366Y238384D02*
D03*
Y242124D02*
D03*
X324873Y233856D02*
D03*
Y230116D02*
D03*
X423001Y121502D02*
D03*
Y125292D02*
D03*
X393201Y153602D02*
D03*
Y149812D02*
D03*
X359036Y143592D02*
D03*
Y139802D02*
D03*
X396801Y124602D02*
D03*
Y120812D02*
D03*
X385301Y120802D02*
D03*
Y124592D02*
D03*
X358734Y121002D02*
D03*
Y117212D02*
D03*
X277509Y143890D02*
D03*
Y140100D02*
D03*
X311674Y153900D02*
D03*
Y150110D02*
D03*
X315274Y124900D02*
D03*
Y121110D02*
D03*
X303774Y121100D02*
D03*
Y124890D02*
D03*
X341474Y121800D02*
D03*
Y125590D02*
D03*
X255090Y228541D02*
D03*
Y232281D02*
D03*
X231862Y253688D02*
D03*
Y257478D02*
D03*
X239933Y266632D02*
D03*
Y270372D02*
D03*
X232748Y230116D02*
D03*
Y233856D02*
D03*
X229619Y153996D02*
D03*
Y150206D02*
D03*
X277207Y121300D02*
D03*
Y117510D02*
D03*
X259419Y121896D02*
D03*
Y125686D02*
D03*
X233219Y124996D02*
D03*
Y121206D02*
D03*
X221719Y121196D02*
D03*
Y124986D02*
D03*
X195454Y143986D02*
D03*
Y140196D02*
D03*
X195151Y121396D02*
D03*
Y117606D02*
D03*
X135482Y224300D02*
D03*
Y228090D02*
D03*
X126919Y228043D02*
D03*
Y224254D02*
D03*
X148091Y153900D02*
D03*
Y150110D02*
D03*
X113927Y143890D02*
D03*
Y140100D02*
D03*
X177891Y121800D02*
D03*
Y125590D02*
D03*
X151691Y124900D02*
D03*
Y121110D02*
D03*
X140191Y121100D02*
D03*
Y124890D02*
D03*
X113624Y121300D02*
D03*
Y117510D02*
D03*
X543947Y224300D02*
D03*
Y228090D02*
D03*
X99775Y214988D02*
D03*
Y211198D02*
D03*
X53690Y224300D02*
D03*
Y228090D02*
D03*
X45128Y228043D02*
D03*
Y224254D02*
D03*
X96100Y125590D02*
D03*
Y121800D02*
D03*
X66300Y150110D02*
D03*
Y153900D02*
D03*
X69900Y121110D02*
D03*
Y124900D02*
D03*
X58400Y124890D02*
D03*
Y121100D02*
D03*
X32135Y140100D02*
D03*
Y143890D02*
D03*
X31833Y117510D02*
D03*
Y121300D02*
D03*
X129500Y372410D02*
D03*
Y376200D02*
D03*
X672019Y418379D02*
D03*
Y414589D02*
D03*
X181976Y285517D02*
D03*
Y289306D02*
D03*
X707750Y53228D02*
D03*
Y49438D02*
D03*
X225100Y392138D02*
D03*
Y388348D02*
D03*
X52016Y265191D02*
D03*
Y268981D02*
D03*
X237472Y377291D02*
D03*
Y373501D02*
D03*
X60567Y263300D02*
D03*
Y267090D02*
D03*
X176779Y285723D02*
D03*
Y289513D02*
D03*
X64433Y263300D02*
D03*
Y267090D02*
D03*
X68300Y263300D02*
D03*
Y267090D02*
D03*
X56700Y267100D02*
D03*
Y263310D02*
D03*
X167803Y289208D02*
D03*
Y285418D02*
D03*
X213400Y392248D02*
D03*
Y388458D02*
D03*
X221000Y389648D02*
D03*
Y393438D02*
D03*
X217300Y393948D02*
D03*
Y390158D02*
D03*
X291683Y283986D02*
D03*
Y280196D02*
D03*
X229893Y289299D02*
D03*
Y285509D02*
D03*
X236881Y292350D02*
D03*
Y288561D02*
D03*
X231763Y277094D02*
D03*
Y273305D02*
D03*
X443476Y368138D02*
D03*
Y364348D02*
D03*
X209400Y386848D02*
D03*
Y390638D02*
D03*
X493769Y355836D02*
D03*
Y359626D02*
D03*
Y351860D02*
D03*
Y348070D02*
D03*
X136000Y368400D02*
D03*
Y372190D02*
D03*
X129500Y381700D02*
D03*
Y385490D02*
D03*
X629748Y414244D02*
D03*
Y418034D02*
D03*
X580811Y345997D02*
D03*
Y349787D02*
D03*
X536810Y342191D02*
D03*
Y338401D02*
D03*
X580911Y342197D02*
D03*
Y338408D02*
D03*
X629548Y410244D02*
D03*
Y406454D02*
D03*
X202452Y422091D02*
D03*
Y418302D02*
D03*
X177409Y394090D02*
D03*
Y390300D02*
D03*
X271652Y285212D02*
D03*
Y281422D02*
D03*
X291661Y291649D02*
D03*
Y287859D02*
D03*
X52016Y255841D02*
D03*
Y259631D02*
D03*
X22567Y402479D02*
D03*
Y406269D02*
D03*
X592635Y454518D02*
D03*
Y458308D02*
D03*
Y462318D02*
D03*
Y466108D02*
D03*
G54D49*
X251633Y403836D02*
D03*
Y410529D02*
D03*
X289626Y399801D02*
D03*
Y406494D02*
D03*
X327519Y398718D02*
D03*
Y405411D02*
D03*
X364921Y399505D02*
D03*
Y406198D02*
D03*
X402421Y399801D02*
D03*
Y406494D02*
D03*
X399972Y307183D02*
D03*
Y300490D02*
D03*
X394854Y300490D02*
D03*
Y307183D02*
D03*
X406814Y264466D02*
D03*
Y257773D02*
D03*
X401686Y257773D02*
D03*
Y264466D02*
D03*
X457551Y346749D02*
D03*
Y340057D02*
D03*
X462177Y340057D02*
D03*
Y346749D02*
D03*
X620917Y229884D02*
D03*
Y223191D02*
D03*
X612354Y229884D02*
D03*
Y223191D02*
D03*
X539616Y229884D02*
D03*
Y223191D02*
D03*
X531053Y229884D02*
D03*
Y223191D02*
D03*
X458317Y229884D02*
D03*
Y223191D02*
D03*
X449754Y229884D02*
D03*
Y223191D02*
D03*
X131151Y229884D02*
D03*
Y223191D02*
D03*
X122588Y229884D02*
D03*
Y223191D02*
D03*
X49360Y229884D02*
D03*
Y223191D02*
D03*
X40797Y229884D02*
D03*
Y223191D02*
D03*
X33633Y242517D02*
D03*
Y249210D02*
D03*
X287452Y290995D02*
D03*
Y284302D02*
D03*
X282152Y284302D02*
D03*
Y290995D02*
D03*
X262252Y284576D02*
D03*
Y291268D02*
D03*
X267652Y291168D02*
D03*
Y284476D02*
D03*
G54D50*
X263444Y402673D02*
D03*
X266003D02*
D03*
X268563D02*
D03*
X271122D02*
D03*
X273681D02*
D03*
X276240D02*
D03*
X278799D02*
D03*
X263444Y425114D02*
D03*
X266003D02*
D03*
X268563D02*
D03*
X271122D02*
D03*
X273681D02*
D03*
X276240D02*
D03*
X278799D02*
D03*
X301144Y402673D02*
D03*
X303703D02*
D03*
X306262D02*
D03*
X308821D02*
D03*
X311381D02*
D03*
X313939D02*
D03*
X316499D02*
D03*
X301144Y425114D02*
D03*
X303703D02*
D03*
X306262D02*
D03*
X308821D02*
D03*
X311381D02*
D03*
X313939D02*
D03*
X316499D02*
D03*
X338844Y402673D02*
D03*
X341403D02*
D03*
X343962D02*
D03*
X346521D02*
D03*
X349080D02*
D03*
X351639D02*
D03*
X354198D02*
D03*
X338844Y425114D02*
D03*
X341403D02*
D03*
X343962D02*
D03*
X346521D02*
D03*
X349080D02*
D03*
X351639D02*
D03*
X354198D02*
D03*
X376544Y402673D02*
D03*
X379103D02*
D03*
X381662D02*
D03*
X384221D02*
D03*
X386780D02*
D03*
X389339D02*
D03*
X391898D02*
D03*
X376544Y425114D02*
D03*
X379103D02*
D03*
X381662D02*
D03*
X384221D02*
D03*
X386780D02*
D03*
X389339D02*
D03*
X391898D02*
D03*
X414244Y402673D02*
D03*
X416803D02*
D03*
X419362D02*
D03*
X421921D02*
D03*
X424480D02*
D03*
X427039D02*
D03*
X429598D02*
D03*
X414244Y425114D02*
D03*
X416803D02*
D03*
X419362D02*
D03*
X421921D02*
D03*
X424480D02*
D03*
X427039D02*
D03*
X429598D02*
D03*
G54D51*
X276358Y433273D02*
D03*
X271004D02*
D03*
X314058D02*
D03*
X308703D02*
D03*
X351757D02*
D03*
X346403D02*
D03*
X389457D02*
D03*
X384103D02*
D03*
X427157D02*
D03*
X421803D02*
D03*
X438437Y341533D02*
D03*
X443791D02*
D03*
X482964Y261120D02*
D03*
X477610D02*
D03*
X681983Y79436D02*
D03*
X687337D02*
D03*
X616507Y174765D02*
D03*
X611153D02*
D03*
X649780Y174700D02*
D03*
X655134D02*
D03*
X568479D02*
D03*
X573834D02*
D03*
X535207Y174765D02*
D03*
X529853D02*
D03*
X453907D02*
D03*
X448553D02*
D03*
X323597Y174700D02*
D03*
X328951D02*
D03*
X487180D02*
D03*
X492534D02*
D03*
X405124Y174402D02*
D03*
X410478D02*
D03*
X371851Y174468D02*
D03*
X366497D02*
D03*
X290324Y174765D02*
D03*
X284970D02*
D03*
X208269Y174861D02*
D03*
X202915D02*
D03*
X241541Y174796D02*
D03*
X246896D02*
D03*
X126742Y174765D02*
D03*
X121387D02*
D03*
X160014Y174700D02*
D03*
X165368D02*
D03*
X39596Y174765D02*
D03*
X44950D02*
D03*
X83577Y174700D02*
D03*
X78223D02*
D03*
X602984Y190415D02*
D03*
X608338D02*
D03*
X663554Y188939D02*
D03*
X658200D02*
D03*
X602885Y196911D02*
D03*
X608239D02*
D03*
X663554Y194450D02*
D03*
X658200D02*
D03*
X521684Y190415D02*
D03*
X527038D02*
D03*
X582254Y188939D02*
D03*
X576900D02*
D03*
X521585Y196911D02*
D03*
X526939D02*
D03*
X582254Y194450D02*
D03*
X576900D02*
D03*
X440383Y190415D02*
D03*
X445738D02*
D03*
X500954Y188939D02*
D03*
X495600D02*
D03*
X440285Y196911D02*
D03*
X445639D02*
D03*
X500954Y194450D02*
D03*
X495600D02*
D03*
X358328Y190117D02*
D03*
X363682D02*
D03*
X418899Y188641D02*
D03*
X413544D02*
D03*
X358229Y196613D02*
D03*
X363584D02*
D03*
X418899Y194153D02*
D03*
X413544D02*
D03*
X276801Y190415D02*
D03*
X282155D02*
D03*
X337372Y188939D02*
D03*
X332017D02*
D03*
X276702Y196911D02*
D03*
X282057D02*
D03*
X337372Y194450D02*
D03*
X332017D02*
D03*
X194745Y190511D02*
D03*
X200100D02*
D03*
X255316Y189034D02*
D03*
X249962D02*
D03*
X194647Y197007D02*
D03*
X200001D02*
D03*
X255316Y194546D02*
D03*
X249962D02*
D03*
X113218Y190415D02*
D03*
X118572D02*
D03*
X173789Y188939D02*
D03*
X168435D02*
D03*
X113120Y196911D02*
D03*
X118474D02*
D03*
X173789Y194450D02*
D03*
X168435D02*
D03*
X86643D02*
D03*
X91998D02*
D03*
X36683Y196911D02*
D03*
X31328D02*
D03*
X86643Y188939D02*
D03*
X91998D02*
D03*
X36781Y190415D02*
D03*
X31427D02*
D03*
X108077Y366300D02*
D03*
X102723D02*
D03*
Y416900D02*
D03*
X108077D02*
D03*
X162889Y390555D02*
D03*
X157534D02*
D03*
X122471Y357748D02*
D03*
X117117D02*
D03*
X592917Y281225D02*
D03*
X598272D02*
D03*
X730315Y78578D02*
D03*
X724961D02*
D03*
X503141Y313857D02*
D03*
X497787D02*
D03*
X532925Y305509D02*
D03*
X538279D02*
D03*
G54D52*
X393742Y393620D02*
D03*
X397286D02*
D03*
X260504Y332281D02*
D03*
X264047D02*
D03*
X65244Y277367D02*
D03*
X61701D02*
D03*
X72232Y255812D02*
D03*
X68689D02*
D03*
X288555Y328443D02*
D03*
X292098D02*
D03*
X294165Y332478D02*
D03*
X297708D02*
D03*
X310504Y327950D02*
D03*
X314047D02*
D03*
X274283Y327753D02*
D03*
X270740D02*
D03*
X39372Y303041D02*
D03*
X35828D02*
D03*
X35028Y287548D02*
D03*
X38572D02*
D03*
Y263277D02*
D03*
X35028D02*
D03*
Y279448D02*
D03*
X38572D02*
D03*
Y267348D02*
D03*
X35028D02*
D03*
X325366Y327753D02*
D03*
X321822D02*
D03*
X353374Y314590D02*
D03*
X349831D02*
D03*
Y318724D02*
D03*
X353374D02*
D03*
X25750Y263854D02*
D03*
X22207D02*
D03*
X35828Y315248D02*
D03*
X39372D02*
D03*
G54D53*
X481295Y422698D02*
D03*
G54D54*
X485036Y419746D02*
D03*
X477555Y425651D02*
D03*
Y423683D02*
D03*
Y421714D02*
D03*
Y419746D02*
D03*
X485036Y425651D02*
D03*
Y423683D02*
D03*
Y421714D02*
D03*
G54D55*
X483195Y415998D02*
D03*
X479425D02*
D03*
X263191Y327820D02*
D03*
X259421D02*
D03*
X137170Y302156D02*
D03*
X133400D02*
D03*
X32630Y202500D02*
D03*
X36400D02*
D03*
X593694Y286438D02*
D03*
X597464D02*
D03*
X19415Y190575D02*
D03*
X15645D02*
D03*
X271951Y332576D02*
D03*
X268181D02*
D03*
X213566Y418600D02*
D03*
X209796D02*
D03*
X140370Y364400D02*
D03*
X136600D02*
D03*
X64200Y399400D02*
D03*
X67970D02*
D03*
X137370Y318248D02*
D03*
X133600D02*
D03*
X197900Y386448D02*
D03*
X201670D02*
D03*
X138270Y322148D02*
D03*
X134500D02*
D03*
X161600Y385600D02*
D03*
X157830D02*
D03*
X483249Y362996D02*
D03*
X479479D02*
D03*
X522607Y350822D02*
D03*
X526377D02*
D03*
X570362Y351097D02*
D03*
X566592D02*
D03*
X432757Y368727D02*
D03*
X436526D02*
D03*
X288371Y332554D02*
D03*
X284601D02*
D03*
X300984Y328349D02*
D03*
X297214D02*
D03*
X310178Y332390D02*
D03*
X306408D02*
D03*
X319770Y331874D02*
D03*
X323539D02*
D03*
X333492Y335910D02*
D03*
X337262D02*
D03*
X195304Y436344D02*
D03*
X191534D02*
D03*
X57906Y277248D02*
D03*
X54136D02*
D03*
X574739Y466685D02*
D03*
X578509D02*
D03*
X553509Y460878D02*
D03*
X557279D02*
D03*
X588578Y466488D02*
D03*
X584808D02*
D03*
G54D56*
X488695Y415428D02*
D03*
Y419198D02*
D03*
X516630Y383320D02*
D03*
Y387090D02*
D03*
X455087Y412921D02*
D03*
Y416691D02*
D03*
X455187Y420851D02*
D03*
Y424621D02*
D03*
X467387Y416721D02*
D03*
Y420491D02*
D03*
X257652Y284552D02*
D03*
Y288322D02*
D03*
X140200Y372100D02*
D03*
Y368330D02*
D03*
X147132Y292167D02*
D03*
Y288397D02*
D03*
X68000Y409270D02*
D03*
Y405500D02*
D03*
X118600Y405000D02*
D03*
Y408770D02*
D03*
X139400Y334318D02*
D03*
Y330548D02*
D03*
X139900Y348948D02*
D03*
Y345178D02*
D03*
X236708Y333900D02*
D03*
Y337670D02*
D03*
X222900Y285348D02*
D03*
Y289118D02*
D03*
X139900Y352748D02*
D03*
Y356518D02*
D03*
X216400Y288970D02*
D03*
Y285200D02*
D03*
X239933Y324180D02*
D03*
Y327950D02*
D03*
X205600Y386178D02*
D03*
Y389948D02*
D03*
X137626Y288833D02*
D03*
Y292603D02*
D03*
X47400Y319600D02*
D03*
Y323370D02*
D03*
X614718Y349022D02*
D03*
Y352792D02*
D03*
X122736Y408780D02*
D03*
Y405010D02*
D03*
X610647Y409865D02*
D03*
Y413635D02*
D03*
X151240Y292161D02*
D03*
Y288391D02*
D03*
X56960Y364295D02*
D03*
Y368065D02*
D03*
X56966Y360256D02*
D03*
Y356486D02*
D03*
X277952Y285048D02*
D03*
Y281278D02*
D03*
X72200Y263030D02*
D03*
Y266800D02*
D03*
X290526Y275690D02*
D03*
Y271920D02*
D03*
X592977Y444736D02*
D03*
Y448506D02*
D03*
X561235Y460818D02*
D03*
Y464588D02*
D03*
G54D57*
X485709Y407504D02*
D03*
X492796D02*
D03*
G54D58*
X505212Y373520D02*
D03*
Y378874D02*
D03*
X510912Y373520D02*
D03*
Y378874D02*
D03*
X516730Y378867D02*
D03*
Y373513D02*
D03*
X418771Y289348D02*
D03*
Y294702D02*
D03*
X478811Y311001D02*
D03*
Y316356D02*
D03*
X554873Y163624D02*
D03*
Y168978D02*
D03*
X549262Y163624D02*
D03*
Y168978D02*
D03*
X636172Y163624D02*
D03*
Y168978D02*
D03*
X630562Y163624D02*
D03*
Y168978D02*
D03*
X668257Y134223D02*
D03*
Y139577D02*
D03*
X640557Y133723D02*
D03*
Y139077D02*
D03*
X630757Y134523D02*
D03*
Y139877D02*
D03*
X603200Y128598D02*
D03*
Y133953D02*
D03*
X586957Y134223D02*
D03*
Y139577D02*
D03*
X559257Y133723D02*
D03*
Y139077D02*
D03*
X549457Y134523D02*
D03*
Y139877D02*
D03*
X521900Y128598D02*
D03*
Y133953D02*
D03*
X309990Y163624D02*
D03*
Y168978D02*
D03*
X304380Y163624D02*
D03*
Y168978D02*
D03*
X473572Y163624D02*
D03*
Y168978D02*
D03*
X467962Y163624D02*
D03*
Y168978D02*
D03*
X505657Y134223D02*
D03*
Y139577D02*
D03*
X477957Y133723D02*
D03*
Y139077D02*
D03*
X468157Y134523D02*
D03*
Y139877D02*
D03*
X440600Y128598D02*
D03*
Y133953D02*
D03*
X391517Y163326D02*
D03*
Y168680D02*
D03*
X385907Y163326D02*
D03*
Y168680D02*
D03*
X423601Y133925D02*
D03*
Y139279D02*
D03*
X395901Y133425D02*
D03*
Y138779D02*
D03*
X386101Y134225D02*
D03*
Y139579D02*
D03*
X358544Y128301D02*
D03*
Y133655D02*
D03*
X277017Y128598D02*
D03*
Y133953D02*
D03*
X314374Y133723D02*
D03*
Y139077D02*
D03*
X304574Y134523D02*
D03*
Y139877D02*
D03*
X342074Y134223D02*
D03*
Y139577D02*
D03*
X227934Y163719D02*
D03*
Y169074D02*
D03*
X222324Y163719D02*
D03*
Y169074D02*
D03*
X260018Y134319D02*
D03*
Y139673D02*
D03*
X232318Y133819D02*
D03*
Y139173D02*
D03*
X222518Y134619D02*
D03*
Y139973D02*
D03*
X194962Y128694D02*
D03*
Y134049D02*
D03*
X146407Y163624D02*
D03*
Y168978D02*
D03*
X140797Y163624D02*
D03*
Y168978D02*
D03*
X150791Y133723D02*
D03*
Y139077D02*
D03*
X140991Y134523D02*
D03*
Y139877D02*
D03*
X113435Y128598D02*
D03*
Y133953D02*
D03*
X178491Y134223D02*
D03*
Y139577D02*
D03*
X64616Y168978D02*
D03*
Y163624D02*
D03*
X59005Y168978D02*
D03*
Y163624D02*
D03*
X96700Y139577D02*
D03*
Y134223D02*
D03*
X69000Y139077D02*
D03*
Y133723D02*
D03*
X59200Y134523D02*
D03*
Y139877D02*
D03*
X31643Y133953D02*
D03*
Y128598D02*
D03*
X620100Y347153D02*
D03*
Y352507D02*
D03*
X608318Y179962D02*
D03*
Y185317D02*
D03*
X527018Y179962D02*
D03*
Y185317D02*
D03*
X445718Y179962D02*
D03*
Y185317D02*
D03*
X363663Y179665D02*
D03*
Y185019D02*
D03*
X282135Y179962D02*
D03*
Y185317D02*
D03*
X200080Y180058D02*
D03*
Y185413D02*
D03*
X118553Y179962D02*
D03*
Y185317D02*
D03*
X36761Y179962D02*
D03*
Y185317D02*
D03*
X557005Y432807D02*
D03*
Y438161D02*
D03*
X142300Y294125D02*
D03*
Y288771D02*
D03*
X138287Y409985D02*
D03*
Y415339D02*
D03*
X164798Y412969D02*
D03*
Y418324D02*
D03*
X35900Y297425D02*
D03*
Y292071D02*
D03*
X134600Y345925D02*
D03*
Y340571D02*
D03*
X561980Y301257D02*
D03*
Y306612D02*
D03*
X676547Y414402D02*
D03*
Y419757D02*
D03*
X134600Y335825D02*
D03*
Y330471D02*
D03*
G54D59*
X523196Y375970D02*
D03*
Y387781D02*
D03*
G54D60*
X523983Y381876D02*
D03*
G54D61*
X362473Y319205D02*
D03*
Y325111D02*
D03*
X375313D02*
D03*
Y319205D02*
D03*
X315672Y240354D02*
D03*
Y238386D02*
D03*
Y236417D02*
D03*
Y234449D02*
D03*
Y232480D02*
D03*
X302832D02*
D03*
Y234449D02*
D03*
Y236417D02*
D03*
Y238386D02*
D03*
Y240354D02*
D03*
X249896Y240253D02*
D03*
Y238285D02*
D03*
Y236316D02*
D03*
Y234348D02*
D03*
Y232380D02*
D03*
X237056D02*
D03*
Y234348D02*
D03*
Y236316D02*
D03*
Y238285D02*
D03*
Y240253D02*
D03*
X430456Y374798D02*
D03*
Y376767D02*
D03*
Y378735D02*
D03*
Y380704D02*
D03*
Y382672D02*
D03*
X443251D02*
D03*
Y380704D02*
D03*
Y378735D02*
D03*
Y376767D02*
D03*
Y374798D02*
D03*
G54D62*
X364956Y328578D02*
D03*
X366925D02*
D03*
X368893D02*
D03*
X370862D02*
D03*
X372830D02*
D03*
Y315738D02*
D03*
X370862D02*
D03*
X368893D02*
D03*
X366925D02*
D03*
X364956D02*
D03*
X306299Y242837D02*
D03*
X312205D02*
D03*
Y229997D02*
D03*
X306299D02*
D03*
X240523Y242737D02*
D03*
X246429D02*
D03*
Y229896D02*
D03*
X240523D02*
D03*
X439806Y372338D02*
D03*
X433901D02*
D03*
Y385133D02*
D03*
X439806D02*
D03*
G54D63*
X413706Y313076D02*
D03*
Y318076D02*
D03*
Y328076D02*
D03*
X391979Y313076D02*
D03*
Y318076D02*
D03*
Y328076D02*
D03*
X413706Y323076D02*
D03*
X391979D02*
D03*
X391732Y279961D02*
D03*
X413459D02*
D03*
X391732Y284961D02*
D03*
Y274961D02*
D03*
Y269961D02*
D03*
X413459Y284961D02*
D03*
Y274961D02*
D03*
Y269961D02*
D03*
G54D64*
X384421Y337202D02*
D03*
Y333659D02*
D03*
X278079Y324887D02*
D03*
Y328430D02*
D03*
X106496Y255020D02*
D03*
Y251476D02*
D03*
G54D65*
X412373Y350913D02*
D03*
Y348157D02*
D03*
X391606Y294584D02*
D03*
Y297340D02*
D03*
X282846Y240746D02*
D03*
Y243501D02*
D03*
X114161Y252269D02*
D03*
Y255025D02*
D03*
X110913Y252269D02*
D03*
Y255025D02*
D03*
X99496Y252367D02*
D03*
Y255123D02*
D03*
X242012Y387175D02*
D03*
Y384419D02*
D03*
X314004Y337091D02*
D03*
Y334335D02*
D03*
X277783Y337288D02*
D03*
Y334532D02*
D03*
G54D66*
X418673Y344289D02*
D03*
Y335955D02*
D03*
X675464Y425347D02*
D03*
Y433681D02*
D03*
G54D67*
X404992Y291336D02*
D03*
X413326D02*
D03*
X484741Y301480D02*
D03*
X476407D02*
D03*
X476579Y255509D02*
D03*
X484913D02*
D03*
X513850Y302753D02*
D03*
X522184D02*
D03*
X5768Y412876D02*
D03*
X14101D02*
D03*
Y400676D02*
D03*
X5768D02*
D03*
Y406776D02*
D03*
X14101D02*
D03*
X577696Y302264D02*
D03*
X569362D02*
D03*
X544095D02*
D03*
X552428D02*
D03*
G54D68*
X476448Y286415D02*
D03*
X483141D02*
D03*
X476448Y281789D02*
D03*
X483141D02*
D03*
X662865Y220472D02*
D03*
X656173D02*
D03*
X608543Y216635D02*
D03*
X601850D02*
D03*
X581914Y216908D02*
D03*
X588607D02*
D03*
X520550Y216635D02*
D03*
X527243D02*
D03*
X439250D02*
D03*
X445943D02*
D03*
X500719Y218289D02*
D03*
X507412D02*
D03*
X418466Y220151D02*
D03*
X425158D02*
D03*
X334815Y222832D02*
D03*
X328122D02*
D03*
X352098Y211612D02*
D03*
X358791D02*
D03*
X357019Y216730D02*
D03*
X363712D02*
D03*
X346921Y221297D02*
D03*
X353614D02*
D03*
X275492Y217028D02*
D03*
X282185D02*
D03*
X270571Y211910D02*
D03*
X277264D02*
D03*
X265394Y221595D02*
D03*
X272087D02*
D03*
X252529Y222141D02*
D03*
X245836D02*
D03*
X183338Y221690D02*
D03*
X190031D02*
D03*
X193437Y217124D02*
D03*
X200130D02*
D03*
X188515Y212005D02*
D03*
X195208D02*
D03*
X164354Y221435D02*
D03*
X171046D02*
D03*
X112085Y216635D02*
D03*
X118778D02*
D03*
X91730Y220279D02*
D03*
X98423D02*
D03*
X30294Y216635D02*
D03*
X36987D02*
D03*
X348945Y331481D02*
D03*
X342252D02*
D03*
X342350Y336796D02*
D03*
X349043D02*
D03*
G54D69*
X639054Y354740D02*
D03*
Y338966D02*
D03*
X662357Y88900D02*
D03*
Y73126D02*
D03*
X662257Y64100D02*
D03*
Y48326D02*
D03*
X606057Y88700D02*
D03*
Y72926D02*
D03*
Y64000D02*
D03*
Y48226D02*
D03*
X581057Y88900D02*
D03*
Y73126D02*
D03*
X580957Y64100D02*
D03*
Y48326D02*
D03*
X524757Y88700D02*
D03*
Y72926D02*
D03*
Y64000D02*
D03*
Y48226D02*
D03*
X499757Y88900D02*
D03*
Y73126D02*
D03*
X499657Y64100D02*
D03*
Y48326D02*
D03*
X443457Y88700D02*
D03*
Y72926D02*
D03*
Y64000D02*
D03*
Y48226D02*
D03*
X417701Y88602D02*
D03*
Y72828D02*
D03*
X417601Y63802D02*
D03*
Y48028D02*
D03*
X361401Y88402D02*
D03*
Y72628D02*
D03*
Y63702D02*
D03*
Y47928D02*
D03*
X336174Y88900D02*
D03*
Y73126D02*
D03*
X336074Y64100D02*
D03*
Y48326D02*
D03*
X279874Y64000D02*
D03*
Y48226D02*
D03*
Y88700D02*
D03*
Y72926D02*
D03*
X254118Y88996D02*
D03*
Y73222D02*
D03*
X254018Y64196D02*
D03*
Y48422D02*
D03*
X197819Y88796D02*
D03*
Y73022D02*
D03*
Y64096D02*
D03*
Y48322D02*
D03*
X172591Y88900D02*
D03*
Y73126D02*
D03*
X172491Y64100D02*
D03*
Y48326D02*
D03*
X116291Y88700D02*
D03*
Y72926D02*
D03*
Y64000D02*
D03*
Y48226D02*
D03*
X90800Y88900D02*
D03*
Y73126D02*
D03*
X90700Y64100D02*
D03*
Y48326D02*
D03*
X34500Y88700D02*
D03*
Y72926D02*
D03*
Y64000D02*
D03*
Y48226D02*
D03*
X489112Y329997D02*
D03*
Y314223D02*
D03*
X575511Y314023D02*
D03*
Y329797D02*
D03*
X531412Y329597D02*
D03*
Y313823D02*
D03*
G54D70*
X680452Y96752D02*
D03*
X696226D02*
D03*
X656452Y290082D02*
D03*
X672226D02*
D03*
X731950Y96752D02*
D03*
X716176D02*
D03*
X661068Y406154D02*
D03*
X676842D02*
D03*
G54D71*
X680827Y86612D02*
D03*
X691457D02*
D03*
X657531Y182246D02*
D03*
X668161D02*
D03*
X576231D02*
D03*
X586861D02*
D03*
X494931D02*
D03*
X505561D02*
D03*
X412875Y181948D02*
D03*
X423505D02*
D03*
X331348Y182246D02*
D03*
X341978D02*
D03*
X249292Y182342D02*
D03*
X259922D02*
D03*
X167765Y182246D02*
D03*
X178395D02*
D03*
X85974D02*
D03*
X96604D02*
D03*
X588597Y266604D02*
D03*
X599030D02*
D03*
X731528Y86378D02*
D03*
X721095D02*
D03*
G54D72*
X695576Y45651D02*
D03*
X688096D02*
D03*
Y56281D02*
D03*
X691836D02*
D03*
X695576D02*
D03*
X720690Y56343D02*
D03*
X716950D02*
D03*
X713209D02*
D03*
Y45713D02*
D03*
X720690D02*
D03*
G54D73*
X667368Y158132D02*
D03*
X643746D02*
D03*
X624361D02*
D03*
X600739D02*
D03*
X586068D02*
D03*
X562446D02*
D03*
X519439D02*
D03*
X543061D02*
D03*
X341185D02*
D03*
X317563D02*
D03*
X504768D02*
D03*
X481146D02*
D03*
X438139D02*
D03*
X461761D02*
D03*
X422712Y157834D02*
D03*
X399090D02*
D03*
X356084D02*
D03*
X379706D02*
D03*
X274557Y158132D02*
D03*
X298179D02*
D03*
X259130Y158227D02*
D03*
X235507D02*
D03*
X192501D02*
D03*
X216123D02*
D03*
X110974Y158132D02*
D03*
X134596D02*
D03*
X177602D02*
D03*
X153980D02*
D03*
X52805D02*
D03*
X29183D02*
D03*
X72189D02*
D03*
X95811D02*
D03*
G54D74*
X646807Y147580D02*
D03*
X651807D02*
D03*
X656807D02*
D03*
X661807D02*
D03*
X646807Y119627D02*
D03*
X651807D02*
D03*
X656807D02*
D03*
X661807D02*
D03*
X624558Y147580D02*
D03*
X619558D02*
D03*
X614558D02*
D03*
X609558D02*
D03*
Y119627D02*
D03*
X614558D02*
D03*
X619558D02*
D03*
X624558D02*
D03*
X565507Y147580D02*
D03*
X570507D02*
D03*
X575507D02*
D03*
X580507D02*
D03*
X528258D02*
D03*
X533258D02*
D03*
X538258D02*
D03*
X543258D02*
D03*
X528258Y119627D02*
D03*
X533258D02*
D03*
X538258D02*
D03*
X543258D02*
D03*
X402151Y147283D02*
D03*
X407152D02*
D03*
X412151D02*
D03*
X417151D02*
D03*
X446958Y147580D02*
D03*
X451958D02*
D03*
X456958D02*
D03*
X461958D02*
D03*
X484207D02*
D03*
X489207D02*
D03*
X494207D02*
D03*
X499207D02*
D03*
X484207Y119627D02*
D03*
X489207D02*
D03*
X494207D02*
D03*
X499207D02*
D03*
X446958D02*
D03*
X451958D02*
D03*
X456958D02*
D03*
X461958D02*
D03*
X364903Y147283D02*
D03*
X369903D02*
D03*
X374903D02*
D03*
X379903D02*
D03*
X364903Y119330D02*
D03*
X369903D02*
D03*
X374903D02*
D03*
X379903D02*
D03*
X402151D02*
D03*
X407152D02*
D03*
X412151D02*
D03*
X417151D02*
D03*
X283376Y147580D02*
D03*
X288376D02*
D03*
X293376D02*
D03*
X298376D02*
D03*
X320624Y119627D02*
D03*
X325624D02*
D03*
X330624D02*
D03*
X335624D02*
D03*
X320624Y147580D02*
D03*
X325624D02*
D03*
X330624D02*
D03*
X335624D02*
D03*
X238569Y147676D02*
D03*
X243569D02*
D03*
X248569D02*
D03*
X253569D02*
D03*
X283376Y119627D02*
D03*
X288376D02*
D03*
X293376D02*
D03*
X298376D02*
D03*
X238569Y119723D02*
D03*
X243569D02*
D03*
X248569D02*
D03*
X253569D02*
D03*
X201320Y147676D02*
D03*
X206320D02*
D03*
X211320D02*
D03*
X216320D02*
D03*
X201320Y119723D02*
D03*
X206320D02*
D03*
X211320D02*
D03*
X216320D02*
D03*
X157042Y147580D02*
D03*
X162042D02*
D03*
X167042D02*
D03*
X172042D02*
D03*
X119793D02*
D03*
X124793D02*
D03*
X129793D02*
D03*
X134793D02*
D03*
X119793Y119627D02*
D03*
X124793D02*
D03*
X129793D02*
D03*
X134793D02*
D03*
X157042D02*
D03*
X162042D02*
D03*
X167042D02*
D03*
X172042D02*
D03*
X565507D02*
D03*
X570507D02*
D03*
X575507D02*
D03*
X580507D02*
D03*
X38002Y147580D02*
D03*
X43002D02*
D03*
X48002D02*
D03*
X53002D02*
D03*
X75250D02*
D03*
X80250D02*
D03*
X85250D02*
D03*
X90250D02*
D03*
X75250Y119627D02*
D03*
X80250D02*
D03*
X85250D02*
D03*
X90250D02*
D03*
X38002D02*
D03*
X43002D02*
D03*
X48002D02*
D03*
X53002D02*
D03*
G54D75*
X635857Y123815D02*
D03*
Y113185D02*
D03*
X554557Y123815D02*
D03*
Y113185D02*
D03*
X473257Y123815D02*
D03*
Y113185D02*
D03*
X391201Y123517D02*
D03*
Y112887D02*
D03*
X309674Y123815D02*
D03*
Y113185D02*
D03*
X227619Y123911D02*
D03*
Y113281D02*
D03*
X146091Y123815D02*
D03*
Y113185D02*
D03*
X64300Y123815D02*
D03*
Y113185D02*
D03*
X627588Y353486D02*
D03*
Y343054D02*
D03*
G54D76*
X279403Y243729D02*
D03*
G54D77*
X277435D02*
D03*
X275466D02*
D03*
X273498D02*
D03*
X279403Y240462D02*
D03*
X277435D02*
D03*
X275466D02*
D03*
X273498D02*
D03*
G54D78*
X634157Y52301D02*
D03*
Y83600D02*
D03*
X552857D02*
D03*
Y52301D02*
D03*
X389501Y83302D02*
D03*
Y52003D02*
D03*
X471557Y83600D02*
D03*
Y52301D02*
D03*
X307974Y83600D02*
D03*
Y52301D02*
D03*
X225919Y83696D02*
D03*
Y52397D02*
D03*
X144391Y83600D02*
D03*
Y52301D02*
D03*
X62600Y83600D02*
D03*
Y52301D02*
D03*
G54D79*
X521151Y258561D02*
D03*
X515801D02*
D03*
G54D80*
X77883Y185730D02*
D03*
Y187698D02*
D03*
Y189667D02*
D03*
Y191635D02*
D03*
Y193604D02*
D03*
Y195572D02*
D03*
Y197541D02*
D03*
Y199509D02*
D03*
Y201478D02*
D03*
Y203447D02*
D03*
Y205415D02*
D03*
Y207383D02*
D03*
X45600D02*
D03*
Y205415D02*
D03*
Y203447D02*
D03*
Y201478D02*
D03*
Y199509D02*
D03*
Y197541D02*
D03*
Y195572D02*
D03*
Y193604D02*
D03*
Y191635D02*
D03*
Y189667D02*
D03*
Y187698D02*
D03*
Y185730D02*
D03*
X127391D02*
D03*
Y187698D02*
D03*
Y189667D02*
D03*
Y191635D02*
D03*
Y193604D02*
D03*
Y195572D02*
D03*
Y197541D02*
D03*
Y199509D02*
D03*
Y201478D02*
D03*
Y203447D02*
D03*
Y205415D02*
D03*
Y207383D02*
D03*
X159675D02*
D03*
Y205415D02*
D03*
Y203447D02*
D03*
Y201478D02*
D03*
Y199509D02*
D03*
Y197541D02*
D03*
Y195572D02*
D03*
Y193604D02*
D03*
Y191635D02*
D03*
Y189667D02*
D03*
Y187698D02*
D03*
Y185730D02*
D03*
X241202Y185826D02*
D03*
Y187794D02*
D03*
Y189763D02*
D03*
Y191731D02*
D03*
Y193700D02*
D03*
Y195668D02*
D03*
Y197637D02*
D03*
Y199605D02*
D03*
Y201574D02*
D03*
Y203542D02*
D03*
Y205511D02*
D03*
Y207479D02*
D03*
X208918D02*
D03*
Y205511D02*
D03*
Y203542D02*
D03*
Y201574D02*
D03*
Y199605D02*
D03*
Y197637D02*
D03*
Y195668D02*
D03*
Y193700D02*
D03*
Y191731D02*
D03*
Y189763D02*
D03*
Y187794D02*
D03*
Y185826D02*
D03*
X290974Y185730D02*
D03*
Y187698D02*
D03*
Y189667D02*
D03*
Y191635D02*
D03*
Y193604D02*
D03*
Y195572D02*
D03*
Y197541D02*
D03*
Y199509D02*
D03*
Y201478D02*
D03*
Y203447D02*
D03*
Y205415D02*
D03*
Y207383D02*
D03*
X323257D02*
D03*
Y205415D02*
D03*
Y203447D02*
D03*
Y201478D02*
D03*
Y199509D02*
D03*
Y197541D02*
D03*
Y195572D02*
D03*
Y193604D02*
D03*
Y191635D02*
D03*
Y189667D02*
D03*
Y187698D02*
D03*
Y185730D02*
D03*
X404785Y185432D02*
D03*
Y187401D02*
D03*
Y189369D02*
D03*
Y191338D02*
D03*
Y193306D02*
D03*
Y195275D02*
D03*
Y197243D02*
D03*
Y199212D02*
D03*
Y201180D02*
D03*
Y203149D02*
D03*
Y205117D02*
D03*
Y207086D02*
D03*
X372501D02*
D03*
Y205117D02*
D03*
Y203149D02*
D03*
Y201180D02*
D03*
Y199212D02*
D03*
Y197243D02*
D03*
Y195275D02*
D03*
Y193306D02*
D03*
Y191338D02*
D03*
Y189369D02*
D03*
Y187401D02*
D03*
Y185432D02*
D03*
X454557Y185730D02*
D03*
Y187698D02*
D03*
Y189667D02*
D03*
Y191635D02*
D03*
Y193604D02*
D03*
Y195572D02*
D03*
Y197541D02*
D03*
Y199509D02*
D03*
Y201478D02*
D03*
Y203447D02*
D03*
Y205415D02*
D03*
Y207383D02*
D03*
X486840D02*
D03*
Y205415D02*
D03*
Y203447D02*
D03*
Y201478D02*
D03*
Y199509D02*
D03*
Y197541D02*
D03*
Y195572D02*
D03*
Y193604D02*
D03*
Y191635D02*
D03*
Y189667D02*
D03*
Y187698D02*
D03*
Y185730D02*
D03*
X649440D02*
D03*
Y187698D02*
D03*
Y189667D02*
D03*
Y191635D02*
D03*
Y193604D02*
D03*
Y195572D02*
D03*
Y197541D02*
D03*
Y199509D02*
D03*
Y201478D02*
D03*
Y203447D02*
D03*
Y205415D02*
D03*
Y207383D02*
D03*
X617157D02*
D03*
Y205415D02*
D03*
Y203447D02*
D03*
Y201478D02*
D03*
Y199509D02*
D03*
Y197541D02*
D03*
Y195572D02*
D03*
Y193604D02*
D03*
Y191635D02*
D03*
Y189667D02*
D03*
Y187698D02*
D03*
Y185730D02*
D03*
X535857D02*
D03*
Y187698D02*
D03*
Y189667D02*
D03*
Y191635D02*
D03*
Y193604D02*
D03*
Y195572D02*
D03*
Y197541D02*
D03*
Y199509D02*
D03*
Y201478D02*
D03*
Y203447D02*
D03*
Y205415D02*
D03*
Y207383D02*
D03*
X568140D02*
D03*
Y205415D02*
D03*
Y203447D02*
D03*
Y201478D02*
D03*
Y199509D02*
D03*
Y197541D02*
D03*
Y195572D02*
D03*
Y193604D02*
D03*
Y191635D02*
D03*
Y189667D02*
D03*
Y187698D02*
D03*
Y185730D02*
D03*
G54D81*
X72569Y212698D02*
D03*
X70600D02*
D03*
X68632D02*
D03*
X66663D02*
D03*
X64694D02*
D03*
X62726D02*
D03*
X60757D02*
D03*
X58789D02*
D03*
X56820D02*
D03*
X54852D02*
D03*
X52883D02*
D03*
X50915D02*
D03*
Y180415D02*
D03*
X52883D02*
D03*
X54852D02*
D03*
X56820D02*
D03*
X58789D02*
D03*
X60757D02*
D03*
X62726D02*
D03*
X64694D02*
D03*
X66663D02*
D03*
X68632D02*
D03*
X70600D02*
D03*
X72569D02*
D03*
X154360D02*
D03*
X152391D02*
D03*
X150423D02*
D03*
X148454D02*
D03*
X146486D02*
D03*
X144517D02*
D03*
X142549D02*
D03*
X140580D02*
D03*
X138612D02*
D03*
X136643D02*
D03*
X134675D02*
D03*
X132706D02*
D03*
Y212698D02*
D03*
X134675D02*
D03*
X136643D02*
D03*
X138612D02*
D03*
X140580D02*
D03*
X142549D02*
D03*
X144517D02*
D03*
X146486D02*
D03*
X148454D02*
D03*
X150423D02*
D03*
X152391D02*
D03*
X154360D02*
D03*
X235887Y212794D02*
D03*
X233918D02*
D03*
X231950D02*
D03*
X229981D02*
D03*
X228013D02*
D03*
X226045D02*
D03*
X224076D02*
D03*
X222108D02*
D03*
X220139D02*
D03*
X218170D02*
D03*
X216202D02*
D03*
X214233D02*
D03*
Y180511D02*
D03*
X216202D02*
D03*
X218170D02*
D03*
X220139D02*
D03*
X222108D02*
D03*
X224076D02*
D03*
X226045D02*
D03*
X228013D02*
D03*
X229981D02*
D03*
X231950D02*
D03*
X233918D02*
D03*
X235887D02*
D03*
X317943Y180415D02*
D03*
X315974D02*
D03*
X314005D02*
D03*
X312037D02*
D03*
X310068D02*
D03*
X308100D02*
D03*
X306132D02*
D03*
X304163D02*
D03*
X302194D02*
D03*
X300226D02*
D03*
X298257D02*
D03*
X296289D02*
D03*
Y212698D02*
D03*
X298257D02*
D03*
X300226D02*
D03*
X302194D02*
D03*
X304163D02*
D03*
X306132D02*
D03*
X308100D02*
D03*
X310068D02*
D03*
X312037D02*
D03*
X314005D02*
D03*
X315974D02*
D03*
X317943D02*
D03*
X399470Y212401D02*
D03*
X397501D02*
D03*
X395533D02*
D03*
X393564D02*
D03*
X391596D02*
D03*
X389627D02*
D03*
X387659D02*
D03*
X385690D02*
D03*
X383722D02*
D03*
X381753D02*
D03*
X379785D02*
D03*
X377816D02*
D03*
Y180117D02*
D03*
X379785D02*
D03*
X381753D02*
D03*
X383722D02*
D03*
X385690D02*
D03*
X387659D02*
D03*
X389627D02*
D03*
X391596D02*
D03*
X393564D02*
D03*
X395533D02*
D03*
X397501D02*
D03*
X399470D02*
D03*
X481525Y180415D02*
D03*
X479557D02*
D03*
X477588D02*
D03*
X475620D02*
D03*
X473651D02*
D03*
X471683D02*
D03*
X469714D02*
D03*
X467746D02*
D03*
X465777D02*
D03*
X463809D02*
D03*
X461840D02*
D03*
X459872D02*
D03*
Y212698D02*
D03*
X461840D02*
D03*
X463809D02*
D03*
X465777D02*
D03*
X467746D02*
D03*
X469714D02*
D03*
X471683D02*
D03*
X473651D02*
D03*
X475620D02*
D03*
X477588D02*
D03*
X479557D02*
D03*
X481525D02*
D03*
X644125D02*
D03*
X642157D02*
D03*
X640188D02*
D03*
X638220D02*
D03*
X636251D02*
D03*
X634283D02*
D03*
X632314D02*
D03*
X630346D02*
D03*
X628377D02*
D03*
X626409D02*
D03*
X624440D02*
D03*
X622472D02*
D03*
Y180415D02*
D03*
X624440D02*
D03*
X626409D02*
D03*
X628377D02*
D03*
X630346D02*
D03*
X632314D02*
D03*
X634283D02*
D03*
X636251D02*
D03*
X638220D02*
D03*
X640188D02*
D03*
X642157D02*
D03*
X644125D02*
D03*
X562825D02*
D03*
X560857D02*
D03*
X558888D02*
D03*
X556920D02*
D03*
X554951D02*
D03*
X552983D02*
D03*
X551014D02*
D03*
X549046D02*
D03*
X547077D02*
D03*
X545109D02*
D03*
X543140D02*
D03*
X541172D02*
D03*
Y212698D02*
D03*
X543140D02*
D03*
X545109D02*
D03*
X547077D02*
D03*
X549046D02*
D03*
X551014D02*
D03*
X552983D02*
D03*
X554951D02*
D03*
X556920D02*
D03*
X558888D02*
D03*
X560857D02*
D03*
X562825D02*
D03*
G54D82*
X61742Y196557D02*
D03*
X143533D02*
D03*
X225060Y196653D02*
D03*
X307116Y196557D02*
D03*
X388643Y196259D02*
D03*
X470698Y196557D02*
D03*
X633298D02*
D03*
X551998D02*
D03*
G54D83*
X23190Y306757D02*
D03*
Y302427D02*
D03*
Y298096D02*
D03*
Y293765D02*
D03*
Y289435D02*
D03*
Y285104D02*
D03*
Y280773D02*
D03*
Y276443D02*
D03*
G54D84*
X19056Y311187D02*
D03*
G54D85*
X8859Y310990D02*
D03*
G54D86*
X17324Y270045D02*
D03*
G54D87*
X12796Y269159D02*
D03*
G54D88*
X8269Y269947D02*
D03*
G54D89*
X8002Y195515D02*
D03*
X13002D02*
D03*
X18002D02*
D03*
X23002D02*
D03*
X8002Y216775D02*
D03*
X13002D02*
D03*
X18002D02*
D03*
X23002D02*
D03*
G54D90*
X175900Y411845D02*
D03*
Y427829D02*
D03*
X180900Y411845D02*
D03*
Y427829D02*
D03*
X185900Y411845D02*
D03*
Y427829D02*
D03*
X190900Y411845D02*
D03*
Y427829D02*
D03*
X195900Y411845D02*
D03*
Y427829D02*
D03*
G54D91*
X463786Y416517D02*
D03*
Y418486D02*
D03*
Y420454D02*
D03*
X458668D02*
D03*
Y418486D02*
D03*
Y416517D02*
D03*
G54D92*
X230035Y371959D02*
D03*
Y369990D02*
D03*
Y368022D02*
D03*
Y366054D02*
D03*
Y364085D02*
D03*
Y362117D02*
D03*
Y360148D02*
D03*
Y358179D02*
D03*
Y356211D02*
D03*
Y354242D02*
D03*
Y352274D02*
D03*
Y350306D02*
D03*
Y348337D02*
D03*
Y346369D02*
D03*
Y344400D02*
D03*
Y342431D02*
D03*
Y340463D02*
D03*
Y338494D02*
D03*
Y336526D02*
D03*
Y334558D02*
D03*
Y332589D02*
D03*
Y330621D02*
D03*
Y328652D02*
D03*
Y326683D02*
D03*
Y324715D02*
D03*
Y322746D02*
D03*
Y320778D02*
D03*
Y318810D02*
D03*
Y316841D02*
D03*
Y314872D02*
D03*
Y312904D02*
D03*
Y310935D02*
D03*
Y308967D02*
D03*
Y306998D02*
D03*
Y305030D02*
D03*
Y303061D02*
D03*
X146965D02*
D03*
Y305030D02*
D03*
Y306998D02*
D03*
Y308967D02*
D03*
Y310935D02*
D03*
Y312904D02*
D03*
Y314872D02*
D03*
Y316841D02*
D03*
Y318810D02*
D03*
Y320778D02*
D03*
Y322746D02*
D03*
Y324715D02*
D03*
Y326683D02*
D03*
Y328652D02*
D03*
Y330621D02*
D03*
Y332589D02*
D03*
Y334558D02*
D03*
Y336526D02*
D03*
Y338494D02*
D03*
Y340463D02*
D03*
Y342431D02*
D03*
Y344400D02*
D03*
Y346369D02*
D03*
Y348337D02*
D03*
Y350306D02*
D03*
Y352274D02*
D03*
Y354242D02*
D03*
Y356211D02*
D03*
Y358179D02*
D03*
Y360148D02*
D03*
Y362117D02*
D03*
Y364085D02*
D03*
Y366054D02*
D03*
Y368022D02*
D03*
Y369990D02*
D03*
Y371959D02*
D03*
G54D93*
X222949Y295975D02*
D03*
X220980D02*
D03*
X219012D02*
D03*
X217043D02*
D03*
X215075D02*
D03*
X213106D02*
D03*
X211138D02*
D03*
X209169D02*
D03*
X207201D02*
D03*
X205232D02*
D03*
X203264D02*
D03*
X201295D02*
D03*
X199327D02*
D03*
X197358D02*
D03*
X195390D02*
D03*
X193421D02*
D03*
X191453D02*
D03*
X189484D02*
D03*
X187516D02*
D03*
X185547D02*
D03*
X183579D02*
D03*
X181610D02*
D03*
X179642D02*
D03*
X177673D02*
D03*
X175705D02*
D03*
X173736D02*
D03*
X171768D02*
D03*
X169799D02*
D03*
X167831D02*
D03*
X165862D02*
D03*
X163894D02*
D03*
X161925D02*
D03*
X159957D02*
D03*
X157988D02*
D03*
X156020D02*
D03*
X154051D02*
D03*
Y379046D02*
D03*
X156020D02*
D03*
X157988D02*
D03*
X159957D02*
D03*
X161925D02*
D03*
X163894D02*
D03*
X165862D02*
D03*
X167831D02*
D03*
X169799D02*
D03*
X171768D02*
D03*
X173736D02*
D03*
X175705D02*
D03*
X177673D02*
D03*
X179642D02*
D03*
X181610D02*
D03*
X183579D02*
D03*
X185547D02*
D03*
X187516D02*
D03*
X189484D02*
D03*
X191453D02*
D03*
X193421D02*
D03*
X195390D02*
D03*
X197358D02*
D03*
X199327D02*
D03*
X201295D02*
D03*
X203264D02*
D03*
X205232D02*
D03*
X207201D02*
D03*
X209169D02*
D03*
X211138D02*
D03*
X213106D02*
D03*
X215075D02*
D03*
X217043D02*
D03*
X219012D02*
D03*
X220980D02*
D03*
X222949D02*
D03*
G54D94*
X144214Y418477D02*
D03*
X158781D02*
D03*
Y409816D02*
D03*
X144214D02*
D03*
G54D95*
X111512Y374400D02*
D03*
Y379400D02*
D03*
Y384400D02*
D03*
Y389400D02*
D03*
Y394400D02*
D03*
Y399400D02*
D03*
Y404400D02*
D03*
Y409400D02*
D03*
X75488Y374400D02*
D03*
Y379400D02*
D03*
Y384400D02*
D03*
Y389400D02*
D03*
Y394400D02*
D03*
Y399400D02*
D03*
Y404400D02*
D03*
Y409400D02*
D03*
G54D96*
X624951Y415484D02*
D03*
Y411744D02*
D03*
Y408004D02*
D03*
X614912D02*
D03*
Y411744D02*
D03*
Y415484D02*
D03*
X576711Y345738D02*
D03*
Y341997D02*
D03*
Y338257D02*
D03*
X566672D02*
D03*
Y341997D02*
D03*
Y345738D02*
D03*
X532676Y345802D02*
D03*
Y342062D02*
D03*
Y338322D02*
D03*
X522637D02*
D03*
Y342062D02*
D03*
Y345802D02*
D03*
X489548Y357878D02*
D03*
Y354137D02*
D03*
Y350397D02*
D03*
X479509D02*
D03*
Y354137D02*
D03*
Y357878D02*
D03*
G54D97*
X675858Y445327D02*
D03*
Y454058D02*
D03*
X605611Y311497D02*
D03*
Y320228D02*
D03*
X518084Y287822D02*
D03*
Y296553D02*
D03*
X561312Y311497D02*
D03*
Y320228D02*
D03*
G54D98*
X58209Y459758D02*
D03*
X49547Y475900D02*
D03*
Y459758D02*
D03*
X58209Y475900D02*
D03*
G54D99*
X59746Y384656D02*
D03*
X53053D02*
D03*
Y381506D02*
D03*
X59746D02*
D03*
G54D100*
X436853Y378735D02*
D03*
G54D101*
X27961Y402574D02*
D03*
Y398637D02*
D03*
X35048Y400605D02*
D03*
G54D102*
X48342Y410161D02*
D03*
Y415161D02*
D03*
X22555Y410161D02*
D03*
Y415161D02*
D03*
G54D103*
X52346Y359623D02*
D03*
Y364860D02*
D03*
X133295Y288607D02*
D03*
Y293843D02*
D03*
G54D104*
X601198Y442276D02*
D03*
Y429480D02*
D03*
X614288Y442276D02*
D03*
Y429480D02*
D03*
G54D105*
X581935Y434918D02*
D03*
X566335D02*
D03*
G54D106*
X548737Y447689D02*
D03*
X511335D02*
D03*
G54D107*
X587869Y446518D02*
D03*
Y451518D02*
D03*
Y456518D02*
D03*
Y461518D02*
D03*
X567200Y446518D02*
D03*
Y451518D02*
D03*
Y456518D02*
D03*
Y461518D02*
D03*
G54D108*
X577535Y454018D02*
D03*
G54D109*
X632832Y374478D02*
D03*
X612360D02*
D03*
X640476Y295308D02*
D03*
X620004D02*
D03*
G54D110*
X601211Y347736D02*
D03*
X596211D02*
D03*
X591211D02*
D03*
X586211D02*
D03*
X542212Y347736D02*
D03*
X547212D02*
D03*
X552212D02*
D03*
X557212D02*
D03*
X499862Y348136D02*
D03*
X504862D02*
D03*
X509862D02*
D03*
X514862D02*
D03*
G54D111*
X633961Y423795D02*
D03*
Y428794D02*
D03*
Y433794D02*
D03*
Y438795D02*
D03*
G54D112*
X518520Y407236D02*
D03*
X531316D02*
D03*
X518520Y420327D02*
D03*
X531316D02*
D03*
G54D113*
X162818Y395900D02*
D03*
X157582D02*
D03*
X135605Y395893D02*
D03*
X130369D02*
D03*
X112842Y357407D02*
D03*
X107606D02*
D03*
G54D114*
X7869Y389000D02*
D03*
X16600D02*
D03*
M02*
