G04*
G04 #@! TF.GenerationSoftware,Altium Limited,Altium Designer,19.0.12 (326)*
G04*
G04 Layer_Color=8388736*
%FSLAX25Y25*%
%MOIN*%
G70*
G01*
G75*
%ADD114C,0.12205*%
%ADD115R,0.10400X0.16800*%
%ADD116R,0.16800X0.10400*%
G04:AMPARAMS|DCode=117|XSize=26mil|YSize=28mil|CornerRadius=6.4mil|HoleSize=0mil|Usage=FLASHONLY|Rotation=180.000|XOffset=0mil|YOffset=0mil|HoleType=Round|Shape=RoundedRectangle|*
%AMROUNDEDRECTD117*
21,1,0.02600,0.01520,0,0,180.0*
21,1,0.01320,0.02800,0,0,180.0*
1,1,0.01280,-0.00660,0.00760*
1,1,0.01280,0.00660,0.00760*
1,1,0.01280,0.00660,-0.00760*
1,1,0.01280,-0.00660,-0.00760*
%
%ADD117ROUNDEDRECTD117*%
%ADD118R,0.09455X0.28156*%
%ADD119R,0.13786X0.05912*%
%ADD120R,0.02762X0.03550*%
%ADD121R,0.02565X0.02368*%
%ADD122R,0.01581X0.01975*%
%ADD123R,0.02054X0.02054*%
%ADD124R,0.01975X0.01581*%
G04:AMPARAMS|DCode=125|XSize=26mil|YSize=28mil|CornerRadius=6.4mil|HoleSize=0mil|Usage=FLASHONLY|Rotation=90.000|XOffset=0mil|YOffset=0mil|HoleType=Round|Shape=RoundedRectangle|*
%AMROUNDEDRECTD125*
21,1,0.02600,0.01520,0,0,90.0*
21,1,0.01320,0.02800,0,0,90.0*
1,1,0.01280,0.00760,0.00660*
1,1,0.01280,0.00760,-0.00660*
1,1,0.01280,-0.00760,-0.00660*
1,1,0.01280,-0.00760,0.00660*
%
%ADD125ROUNDEDRECTD125*%
%ADD126C,0.06000*%
%ADD127R,0.02054X0.02054*%
%ADD128R,0.03550X0.02762*%
%ADD129O,0.01975X0.05124*%
G04:AMPARAMS|DCode=130|XSize=33.13mil|YSize=43.37mil|CornerRadius=7.83mil|HoleSize=0mil|Usage=FLASHONLY|Rotation=0.000|XOffset=0mil|YOffset=0mil|HoleType=Round|Shape=RoundedRectangle|*
%AMROUNDEDRECTD130*
21,1,0.03313,0.02772,0,0,0.0*
21,1,0.01748,0.04337,0,0,0.0*
1,1,0.01565,0.00874,-0.01386*
1,1,0.01565,-0.00874,-0.01386*
1,1,0.01565,-0.00874,0.01386*
1,1,0.01565,0.00874,0.01386*
%
%ADD130ROUNDEDRECTD130*%
%ADD131R,0.03943X0.06699*%
%ADD132R,0.02368X0.01384*%
%ADD133R,0.02368X0.02565*%
%ADD134R,0.03550X0.05321*%
G04:AMPARAMS|DCode=135|XSize=33.13mil|YSize=43.37mil|CornerRadius=7.83mil|HoleSize=0mil|Usage=FLASHONLY|Rotation=90.000|XOffset=0mil|YOffset=0mil|HoleType=Round|Shape=RoundedRectangle|*
%AMROUNDEDRECTD135*
21,1,0.03313,0.02772,0,0,90.0*
21,1,0.01748,0.04337,0,0,90.0*
1,1,0.01565,0.01386,0.00874*
1,1,0.01565,0.01386,-0.00874*
1,1,0.01565,-0.01386,-0.00874*
1,1,0.01565,-0.01386,0.00874*
%
%ADD135ROUNDEDRECTD135*%
%ADD136R,0.05912X0.02762*%
%ADD137R,0.07487X0.02762*%
%ADD138R,0.08471X0.08471*%
%ADD139O,0.03550X0.01502*%
%ADD140O,0.01502X0.03550*%
%ADD141R,0.06400X0.02800*%
%ADD142R,0.05200X0.05200*%
%ADD143R,0.05200X0.05200*%
%ADD144R,0.08300X0.08300*%
%ADD145R,0.08300X0.08300*%
%ADD146R,0.04731X0.07093*%
%ADD147R,0.02565X0.04337*%
%ADD148R,0.04928X0.13589*%
%ADD149R,0.03353X0.04140*%
%ADD150R,0.07093X0.04731*%
%ADD151R,0.01187X0.02959*%
%ADD152R,0.01187X0.02762*%
%ADD153R,0.08471X0.08471*%
G04:AMPARAMS|DCode=154|XSize=80mil|YSize=80mil|CornerRadius=40mil|HoleSize=0mil|Usage=FLASHONLY|Rotation=180.000|XOffset=0mil|YOffset=0mil|HoleType=Round|Shape=RoundedRectangle|*
%AMROUNDEDRECTD154*
21,1,0.08000,0.00000,0,0,180.0*
21,1,0.00000,0.08000,0,0,180.0*
1,1,0.08000,0.00000,0.00000*
1,1,0.08000,0.00000,0.00000*
1,1,0.08000,0.00000,0.00000*
1,1,0.08000,0.00000,0.00000*
%
%ADD154ROUNDEDRECTD154*%
%ADD155R,0.03300X0.04300*%
%ADD156O,0.05124X0.01384*%
%ADD157O,0.01384X0.05124*%
%ADD158R,0.20479X0.20479*%
%ADD159R,0.04337X0.03156*%
%ADD160R,0.05124X0.04534*%
%ADD161R,0.05124X0.04928*%
%ADD162R,0.05124X0.06109*%
%ADD163R,0.03131X0.04337*%
%ADD164R,0.03943X0.05912*%
%ADD165O,0.02762X0.06306*%
%ADD166R,0.03353X0.11424*%
%ADD167R,0.02598X0.02126*%
%ADD168R,0.02451X0.06063*%
%ADD169O,0.07487X0.01381*%
%ADD170O,0.01381X0.07487*%
%ADD171R,0.05124X0.03943*%
%ADD172O,0.09455X0.02762*%
G04:AMPARAMS|DCode=173|XSize=80mil|YSize=80mil|CornerRadius=40mil|HoleSize=0mil|Usage=FLASHONLY|Rotation=270.000|XOffset=0mil|YOffset=0mil|HoleType=Round|Shape=RoundedRectangle|*
%AMROUNDEDRECTD173*
21,1,0.08000,0.00000,0,0,270.0*
21,1,0.00000,0.08000,0,0,270.0*
1,1,0.08000,0.00000,0.00000*
1,1,0.08000,0.00000,0.00000*
1,1,0.08000,0.00000,0.00000*
1,1,0.08000,0.00000,0.00000*
%
%ADD173ROUNDEDRECTD173*%
%ADD174R,0.03747X0.02762*%
%ADD175R,0.02800X0.02800*%
%ADD176R,0.04337X0.03943*%
%ADD177R,0.03943X0.01975*%
%ADD178R,0.01680X0.01463*%
%ADD179R,0.08400X0.08400*%
%ADD180R,0.03550X0.02565*%
%ADD181O,0.06109X0.02565*%
%ADD182R,0.03865X0.03038*%
%ADD183R,0.11030X0.04140*%
%ADD184R,0.05400X0.08700*%
%ADD185R,0.16542X0.14179*%
%ADD186R,0.05321X0.02565*%
%ADD187R,0.09849X0.12605*%
%ADD188R,0.03200X0.06000*%
%ADD189R,0.06000X0.03200*%
%ADD190R,0.04140X0.11030*%
%ADD191R,0.03038X0.03865*%
%ADD192R,0.02800X0.02800*%
%ADD193C,0.08400*%
%ADD194O,0.13998X0.14000*%
%ADD195R,0.13998X0.14000*%
%ADD196O,0.06400X0.12400*%
%ADD197O,0.12400X0.06400*%
%ADD198R,0.06306X0.06306*%
%ADD199C,0.06306*%
%ADD200R,0.06306X0.06306*%
G04:AMPARAMS|DCode=201|XSize=137mil|YSize=87mil|CornerRadius=0mil|HoleSize=0mil|Usage=FLASHONLY|Rotation=180.000|XOffset=0mil|YOffset=0mil|HoleType=Round|Shape=Octagon|*
%AMOCTAGOND201*
4,1,8,-0.06850,0.02175,-0.06850,-0.02175,-0.04675,-0.04350,0.04675,-0.04350,0.06850,-0.02175,0.06850,0.02175,0.04675,0.04350,-0.04675,0.04350,-0.06850,0.02175,0.0*
%
%ADD201OCTAGOND201*%

%ADD202C,0.10400*%
%ADD203P,0.08010X8X292.5*%
%ADD204C,0.13450*%
%ADD205C,0.06200*%
G04:AMPARAMS|DCode=206|XSize=137mil|YSize=87mil|CornerRadius=0mil|HoleSize=0mil|Usage=FLASHONLY|Rotation=90.000|XOffset=0mil|YOffset=0mil|HoleType=Round|Shape=Octagon|*
%AMOCTAGOND206*
4,1,8,0.02175,0.06850,-0.02175,0.06850,-0.04350,0.04675,-0.04350,-0.04675,-0.02175,-0.06850,0.02175,-0.06850,0.04350,-0.04675,0.04350,0.04675,0.02175,0.06850,0.0*
%
%ADD206OCTAGOND206*%

G36*
X657121Y464995D02*
X653085D01*
Y465979D01*
X639699D01*
Y482515D01*
X653085D01*
Y483499D01*
X657121D01*
Y464995D01*
D02*
G37*
G36*
X47633Y423141D02*
X42928D01*
X42929Y423141D01*
X42928D01*
Y428932D01*
X47633D01*
Y423141D01*
D02*
G37*
G36*
X537605Y428766D02*
X537643Y428754D01*
X537678Y428736D01*
X537708Y428711D01*
X540267Y426152D01*
X540292Y426121D01*
X540311Y426086D01*
X540322Y426049D01*
X540326Y426010D01*
Y423647D01*
X540322Y423608D01*
X540311Y423570D01*
X540292Y423536D01*
X540267Y423505D01*
X537708Y420946D01*
X537678Y420921D01*
X537643Y420903D01*
X537605Y420891D01*
X537566Y420887D01*
X530086D01*
X530047Y420891D01*
X530009Y420903D01*
X529974Y420921D01*
X529944Y420946D01*
X527365Y423525D01*
X527365Y423525D01*
X527354Y423539D01*
X527340Y423555D01*
X527328Y423578D01*
X527321Y423590D01*
X527310Y423628D01*
X527306Y423667D01*
X527306Y423667D01*
Y425990D01*
X527310Y426029D01*
X527321Y426067D01*
X527340Y426101D01*
X527365Y426132D01*
X529944Y428711D01*
X529944Y428711D01*
X529960Y428724D01*
X529974Y428736D01*
X530009Y428754D01*
X530047Y428766D01*
X530086Y428769D01*
X537566D01*
X537605Y428766D01*
D02*
G37*
G36*
X223953Y418036D02*
X153069Y418036D01*
X153069Y426009D01*
X223934D01*
X223953Y418036D01*
D02*
G37*
G36*
X515630Y371964D02*
X516614D01*
Y367929D01*
X498110D01*
Y371964D01*
X499094D01*
Y385350D01*
X515630D01*
Y371964D01*
D02*
G37*
G36*
X601979Y371565D02*
X602963D01*
Y367530D01*
X584459D01*
Y371565D01*
X585443D01*
Y384951D01*
X601979D01*
Y371565D01*
D02*
G37*
G36*
X557979Y371564D02*
X558964D01*
Y367529D01*
X540460D01*
Y371564D01*
X541444D01*
Y384950D01*
X557979D01*
Y371564D01*
D02*
G37*
G36*
X234083Y345635D02*
X232153D01*
X225913Y345620D01*
X225913Y416501D01*
X234083Y416501D01*
Y345635D01*
D02*
G37*
G36*
X151012Y345032D02*
X142842Y345032D01*
Y415896D01*
X151012Y415916D01*
X151012Y345032D01*
D02*
G37*
G36*
X223931Y343036D02*
X223931Y334965D01*
X153066D01*
X153047Y343036D01*
X223931Y343036D01*
D02*
G37*
G36*
X257033Y185767D02*
X257071Y185756D01*
X257106Y185737D01*
X257136Y185712D01*
X257161Y185681D01*
X257180Y185647D01*
X257191Y185609D01*
X257195Y185570D01*
Y180058D01*
X257191Y180019D01*
X257180Y179981D01*
X257161Y179946D01*
X257136Y179916D01*
X257106Y179891D01*
X257071Y179872D01*
X257033Y179861D01*
X256994Y179857D01*
X255246D01*
Y176716D01*
X256994D01*
X257033Y176712D01*
X257071Y176700D01*
X257106Y176682D01*
X257136Y176657D01*
X257161Y176626D01*
X257180Y176592D01*
X257191Y176554D01*
X257195Y176515D01*
Y171003D01*
X257191Y170964D01*
X257180Y170926D01*
X257161Y170891D01*
X257136Y170861D01*
X257106Y170836D01*
X257071Y170817D01*
X257033Y170806D01*
X256994Y170802D01*
X255246D01*
Y166436D01*
X255242Y166397D01*
X255231Y166359D01*
X255212Y166324D01*
X255187Y166294D01*
X255157Y166269D01*
X255122Y166250D01*
X255084Y166239D01*
X255045Y166235D01*
X252093D01*
X252053Y166239D01*
X252015Y166250D01*
X251981Y166269D01*
X251950Y166294D01*
X251925Y166324D01*
X251907Y166359D01*
X251895Y166397D01*
X251891Y166436D01*
Y168440D01*
X250226D01*
Y166436D01*
X250223Y166397D01*
X250211Y166359D01*
X250193Y166324D01*
X250168Y166294D01*
X250137Y166269D01*
X250102Y166250D01*
X250065Y166239D01*
X250026Y166235D01*
X246856D01*
X246817Y166239D01*
X246779Y166250D01*
X246745Y166269D01*
X246714Y166294D01*
X246689Y166324D01*
X246671Y166359D01*
X246659Y166397D01*
X246655Y166436D01*
Y185570D01*
X246659Y185609D01*
X246671Y185647D01*
X246689Y185681D01*
X246714Y185712D01*
X246745Y185737D01*
X246779Y185756D01*
X246817Y185767D01*
X246856Y185771D01*
X256994D01*
X257033Y185767D01*
D02*
G37*
G36*
X245321D02*
X245358Y185756D01*
X245393Y185737D01*
X245424Y185712D01*
X245448Y185681D01*
X245467Y185647D01*
X245479Y185609D01*
X245482Y185570D01*
Y166436D01*
X245479Y166397D01*
X245467Y166359D01*
X245448Y166324D01*
X245424Y166294D01*
X245393Y166269D01*
X245358Y166250D01*
X245321Y166239D01*
X245281Y166235D01*
X242112D01*
X242073Y166239D01*
X242035Y166250D01*
X242001Y166269D01*
X241970Y166294D01*
X241945Y166324D01*
X241927Y166359D01*
X241915Y166397D01*
X241911Y166436D01*
Y168440D01*
X240246D01*
Y166436D01*
X240242Y166397D01*
X240231Y166359D01*
X240212Y166324D01*
X240187Y166294D01*
X240157Y166269D01*
X240122Y166250D01*
X240084Y166239D01*
X240045Y166235D01*
X237092D01*
X237053Y166239D01*
X237016Y166250D01*
X236981Y166269D01*
X236950Y166294D01*
X236925Y166324D01*
X236907Y166359D01*
X236895Y166397D01*
X236892Y166436D01*
Y170802D01*
X235144D01*
X235104Y170806D01*
X235067Y170817D01*
X235032Y170836D01*
X235001Y170861D01*
X234977Y170891D01*
X234958Y170926D01*
X234946Y170964D01*
X234943Y171003D01*
Y176515D01*
X234946Y176554D01*
X234958Y176592D01*
X234977Y176626D01*
X235001Y176657D01*
X235032Y176682D01*
X235067Y176700D01*
X235104Y176712D01*
X235144Y176716D01*
X236892D01*
Y179857D01*
X235144D01*
X235104Y179861D01*
X235067Y179872D01*
X235032Y179891D01*
X235001Y179916D01*
X234977Y179946D01*
X234958Y179981D01*
X234946Y180019D01*
X234943Y180058D01*
Y185570D01*
X234946Y185609D01*
X234958Y185647D01*
X234977Y185681D01*
X235001Y185712D01*
X235032Y185737D01*
X235067Y185756D01*
X235104Y185767D01*
X235144Y185771D01*
X245281D01*
X245321Y185767D01*
D02*
G37*
G36*
X219784D02*
X219822Y185756D01*
X219857Y185737D01*
X219887Y185712D01*
X219912Y185681D01*
X219931Y185647D01*
X219942Y185609D01*
X219946Y185570D01*
Y180058D01*
X219942Y180019D01*
X219931Y179981D01*
X219912Y179946D01*
X219887Y179916D01*
X219857Y179891D01*
X219822Y179872D01*
X219784Y179861D01*
X219745Y179857D01*
X217997D01*
Y176716D01*
X219745D01*
X219784Y176712D01*
X219822Y176700D01*
X219857Y176682D01*
X219887Y176657D01*
X219912Y176626D01*
X219931Y176592D01*
X219942Y176554D01*
X219946Y176515D01*
Y171003D01*
X219942Y170964D01*
X219931Y170926D01*
X219912Y170891D01*
X219887Y170861D01*
X219857Y170836D01*
X219822Y170817D01*
X219784Y170806D01*
X219745Y170802D01*
X217997D01*
Y166436D01*
X217993Y166397D01*
X217982Y166359D01*
X217964Y166324D01*
X217938Y166294D01*
X217908Y166269D01*
X217873Y166250D01*
X217836Y166239D01*
X217796Y166235D01*
X214844D01*
X214804Y166239D01*
X214767Y166250D01*
X214732Y166269D01*
X214702Y166294D01*
X214677Y166324D01*
X214658Y166359D01*
X214647Y166397D01*
X214643Y166436D01*
Y168440D01*
X212978D01*
Y166436D01*
X212974Y166397D01*
X212962Y166359D01*
X212944Y166324D01*
X212919Y166294D01*
X212888Y166269D01*
X212854Y166250D01*
X212816Y166239D01*
X212777Y166235D01*
X209607D01*
X209568Y166239D01*
X209530Y166250D01*
X209496Y166269D01*
X209465Y166294D01*
X209440Y166324D01*
X209422Y166359D01*
X209410Y166397D01*
X209406Y166436D01*
Y185570D01*
X209410Y185609D01*
X209422Y185647D01*
X209440Y185681D01*
X209465Y185712D01*
X209496Y185737D01*
X209530Y185756D01*
X209568Y185767D01*
X209607Y185771D01*
X219745D01*
X219784Y185767D01*
D02*
G37*
G36*
X208072D02*
X208109Y185756D01*
X208144Y185737D01*
X208175Y185712D01*
X208200Y185681D01*
X208218Y185647D01*
X208230Y185609D01*
X208234Y185570D01*
Y166436D01*
X208230Y166397D01*
X208218Y166359D01*
X208200Y166324D01*
X208175Y166294D01*
X208144Y166269D01*
X208109Y166250D01*
X208072Y166239D01*
X208033Y166235D01*
X204863D01*
X204824Y166239D01*
X204786Y166250D01*
X204752Y166269D01*
X204721Y166294D01*
X204696Y166324D01*
X204678Y166359D01*
X204666Y166397D01*
X204662Y166436D01*
Y168440D01*
X202997D01*
Y166436D01*
X202993Y166397D01*
X202982Y166359D01*
X202963Y166324D01*
X202939Y166294D01*
X202908Y166269D01*
X202873Y166250D01*
X202836Y166239D01*
X202796Y166235D01*
X199844D01*
X199804Y166239D01*
X199767Y166250D01*
X199732Y166269D01*
X199701Y166294D01*
X199677Y166324D01*
X199658Y166359D01*
X199647Y166397D01*
X199643Y166436D01*
Y170802D01*
X197895D01*
X197856Y170806D01*
X197818Y170817D01*
X197783Y170836D01*
X197753Y170861D01*
X197728Y170891D01*
X197709Y170926D01*
X197698Y170964D01*
X197694Y171003D01*
Y176515D01*
X197698Y176554D01*
X197709Y176592D01*
X197728Y176626D01*
X197753Y176657D01*
X197783Y176682D01*
X197818Y176700D01*
X197856Y176712D01*
X197895Y176716D01*
X199643D01*
Y179857D01*
X197895D01*
X197856Y179861D01*
X197818Y179872D01*
X197783Y179891D01*
X197753Y179916D01*
X197728Y179946D01*
X197709Y179981D01*
X197698Y180019D01*
X197694Y180058D01*
Y185570D01*
X197698Y185609D01*
X197709Y185647D01*
X197728Y185681D01*
X197753Y185712D01*
X197783Y185737D01*
X197818Y185756D01*
X197856Y185767D01*
X197895Y185771D01*
X208033D01*
X208072Y185767D01*
D02*
G37*
G36*
X665272Y185671D02*
X665309Y185660D01*
X665344Y185641D01*
X665374Y185616D01*
X665399Y185586D01*
X665418Y185551D01*
X665429Y185513D01*
X665433Y185474D01*
Y179962D01*
X665429Y179923D01*
X665418Y179885D01*
X665399Y179850D01*
X665374Y179820D01*
X665344Y179795D01*
X665309Y179777D01*
X665272Y179765D01*
X665232Y179761D01*
X663484D01*
Y176620D01*
X665232D01*
X665272Y176616D01*
X665309Y176604D01*
X665344Y176586D01*
X665374Y176561D01*
X665399Y176531D01*
X665418Y176496D01*
X665429Y176458D01*
X665433Y176419D01*
Y170907D01*
X665429Y170868D01*
X665418Y170830D01*
X665399Y170795D01*
X665374Y170765D01*
X665344Y170740D01*
X665309Y170721D01*
X665272Y170710D01*
X665232Y170706D01*
X663484D01*
Y166340D01*
X663481Y166301D01*
X663469Y166263D01*
X663450Y166228D01*
X663425Y166198D01*
X663395Y166173D01*
X663360Y166154D01*
X663323Y166143D01*
X663283Y166139D01*
X660331D01*
X660291Y166143D01*
X660254Y166154D01*
X660219Y166173D01*
X660189Y166198D01*
X660164Y166228D01*
X660145Y166263D01*
X660134Y166301D01*
X660130Y166340D01*
Y168344D01*
X658465D01*
Y166340D01*
X658461Y166301D01*
X658449Y166263D01*
X658431Y166228D01*
X658406Y166198D01*
X658375Y166173D01*
X658341Y166154D01*
X658303Y166143D01*
X658264Y166139D01*
X655094D01*
X655055Y166143D01*
X655018Y166154D01*
X654983Y166173D01*
X654952Y166198D01*
X654927Y166228D01*
X654909Y166263D01*
X654897Y166301D01*
X654893Y166340D01*
Y185474D01*
X654897Y185513D01*
X654909Y185551D01*
X654927Y185586D01*
X654952Y185616D01*
X654983Y185641D01*
X655018Y185660D01*
X655055Y185671D01*
X655094Y185675D01*
X665232D01*
X665272Y185671D01*
D02*
G37*
G36*
X653559D02*
X653597Y185660D01*
X653631Y185641D01*
X653662Y185616D01*
X653687Y185586D01*
X653705Y185551D01*
X653717Y185513D01*
X653721Y185474D01*
Y166340D01*
X653717Y166301D01*
X653705Y166263D01*
X653687Y166228D01*
X653662Y166198D01*
X653631Y166173D01*
X653597Y166154D01*
X653559Y166143D01*
X653520Y166139D01*
X650350D01*
X650311Y166143D01*
X650273Y166154D01*
X650239Y166173D01*
X650208Y166198D01*
X650183Y166228D01*
X650165Y166263D01*
X650153Y166301D01*
X650149Y166340D01*
Y168344D01*
X648484D01*
Y166340D01*
X648481Y166301D01*
X648469Y166263D01*
X648451Y166228D01*
X648425Y166198D01*
X648395Y166173D01*
X648360Y166154D01*
X648323Y166143D01*
X648283Y166139D01*
X645331D01*
X645292Y166143D01*
X645254Y166154D01*
X645219Y166173D01*
X645189Y166198D01*
X645164Y166228D01*
X645145Y166263D01*
X645134Y166301D01*
X645130Y166340D01*
Y170706D01*
X643382D01*
X643343Y170710D01*
X643305Y170721D01*
X643270Y170740D01*
X643240Y170765D01*
X643215Y170795D01*
X643196Y170830D01*
X643185Y170868D01*
X643181Y170907D01*
Y176419D01*
X643185Y176458D01*
X643196Y176496D01*
X643215Y176531D01*
X643240Y176561D01*
X643270Y176586D01*
X643305Y176604D01*
X643343Y176616D01*
X643382Y176620D01*
X645130D01*
Y179761D01*
X643382D01*
X643343Y179765D01*
X643305Y179777D01*
X643270Y179795D01*
X643240Y179820D01*
X643215Y179850D01*
X643196Y179885D01*
X643185Y179923D01*
X643181Y179962D01*
Y185474D01*
X643185Y185513D01*
X643196Y185551D01*
X643215Y185586D01*
X643240Y185616D01*
X643270Y185641D01*
X643305Y185660D01*
X643343Y185671D01*
X643382Y185675D01*
X653520D01*
X653559Y185671D01*
D02*
G37*
G36*
X628023D02*
X628060Y185660D01*
X628095Y185641D01*
X628126Y185616D01*
X628151Y185586D01*
X628169Y185551D01*
X628181Y185513D01*
X628184Y185474D01*
Y179962D01*
X628181Y179923D01*
X628169Y179885D01*
X628151Y179850D01*
X628126Y179820D01*
X628095Y179795D01*
X628060Y179777D01*
X628023Y179765D01*
X627983Y179761D01*
X626236D01*
Y176620D01*
X627983D01*
X628023Y176616D01*
X628060Y176604D01*
X628095Y176586D01*
X628126Y176561D01*
X628151Y176531D01*
X628169Y176496D01*
X628181Y176458D01*
X628184Y176419D01*
Y170907D01*
X628181Y170868D01*
X628169Y170830D01*
X628151Y170795D01*
X628126Y170765D01*
X628095Y170740D01*
X628060Y170721D01*
X628023Y170710D01*
X627983Y170706D01*
X626236D01*
Y166340D01*
X626232Y166301D01*
X626220Y166263D01*
X626202Y166228D01*
X626177Y166198D01*
X626146Y166173D01*
X626112Y166154D01*
X626074Y166143D01*
X626035Y166139D01*
X623082D01*
X623043Y166143D01*
X623005Y166154D01*
X622970Y166173D01*
X622940Y166198D01*
X622915Y166228D01*
X622896Y166263D01*
X622885Y166301D01*
X622881Y166340D01*
Y168344D01*
X621216D01*
Y166340D01*
X621212Y166301D01*
X621201Y166263D01*
X621182Y166228D01*
X621157Y166198D01*
X621127Y166173D01*
X621092Y166154D01*
X621054Y166143D01*
X621015Y166139D01*
X617846D01*
X617806Y166143D01*
X617769Y166154D01*
X617734Y166173D01*
X617703Y166198D01*
X617678Y166228D01*
X617660Y166263D01*
X617649Y166301D01*
X617645Y166340D01*
Y185474D01*
X617649Y185513D01*
X617660Y185551D01*
X617678Y185586D01*
X617703Y185616D01*
X617734Y185641D01*
X617769Y185660D01*
X617806Y185671D01*
X617846Y185675D01*
X627983D01*
X628023Y185671D01*
D02*
G37*
G36*
X616310D02*
X616348Y185660D01*
X616383Y185641D01*
X616413Y185616D01*
X616438Y185586D01*
X616457Y185551D01*
X616468Y185513D01*
X616472Y185474D01*
Y166340D01*
X616468Y166301D01*
X616457Y166263D01*
X616438Y166228D01*
X616413Y166198D01*
X616383Y166173D01*
X616348Y166154D01*
X616310Y166143D01*
X616271Y166139D01*
X613102D01*
X613062Y166143D01*
X613025Y166154D01*
X612990Y166173D01*
X612959Y166198D01*
X612934Y166228D01*
X612916Y166263D01*
X612904Y166301D01*
X612901Y166340D01*
Y168344D01*
X611236D01*
Y166340D01*
X611232Y166301D01*
X611220Y166263D01*
X611202Y166228D01*
X611177Y166198D01*
X611146Y166173D01*
X611111Y166154D01*
X611074Y166143D01*
X611035Y166139D01*
X608082D01*
X608043Y166143D01*
X608005Y166154D01*
X607970Y166173D01*
X607940Y166198D01*
X607915Y166228D01*
X607896Y166263D01*
X607885Y166301D01*
X607881Y166340D01*
Y170706D01*
X606133D01*
X606094Y170710D01*
X606056Y170721D01*
X606021Y170740D01*
X605991Y170765D01*
X605966Y170795D01*
X605947Y170830D01*
X605936Y170868D01*
X605932Y170907D01*
Y176419D01*
X605936Y176458D01*
X605947Y176496D01*
X605966Y176531D01*
X605991Y176561D01*
X606021Y176586D01*
X606056Y176604D01*
X606094Y176616D01*
X606133Y176620D01*
X607881D01*
Y179761D01*
X606133D01*
X606094Y179765D01*
X606056Y179777D01*
X606021Y179795D01*
X605991Y179820D01*
X605966Y179850D01*
X605947Y179885D01*
X605936Y179923D01*
X605932Y179962D01*
Y185474D01*
X605936Y185513D01*
X605947Y185551D01*
X605966Y185586D01*
X605991Y185616D01*
X606021Y185641D01*
X606056Y185660D01*
X606094Y185671D01*
X606133Y185675D01*
X616271D01*
X616310Y185671D01*
D02*
G37*
G36*
X583972D02*
X584009Y185660D01*
X584044Y185641D01*
X584074Y185616D01*
X584099Y185586D01*
X584118Y185551D01*
X584129Y185513D01*
X584133Y185474D01*
Y179962D01*
X584129Y179923D01*
X584118Y179885D01*
X584099Y179850D01*
X584074Y179820D01*
X584044Y179795D01*
X584009Y179777D01*
X583972Y179765D01*
X583932Y179761D01*
X582184D01*
Y176620D01*
X583932D01*
X583972Y176616D01*
X584009Y176604D01*
X584044Y176586D01*
X584074Y176561D01*
X584099Y176531D01*
X584118Y176496D01*
X584129Y176458D01*
X584133Y176419D01*
Y170907D01*
X584129Y170868D01*
X584118Y170830D01*
X584099Y170795D01*
X584074Y170765D01*
X584044Y170740D01*
X584009Y170721D01*
X583972Y170710D01*
X583932Y170706D01*
X582184D01*
Y166340D01*
X582181Y166301D01*
X582169Y166263D01*
X582151Y166228D01*
X582126Y166198D01*
X582095Y166173D01*
X582060Y166154D01*
X582023Y166143D01*
X581983Y166139D01*
X579031D01*
X578992Y166143D01*
X578954Y166154D01*
X578919Y166173D01*
X578889Y166198D01*
X578864Y166228D01*
X578845Y166263D01*
X578834Y166301D01*
X578830Y166340D01*
Y168344D01*
X577165D01*
Y166340D01*
X577161Y166301D01*
X577149Y166263D01*
X577131Y166228D01*
X577106Y166198D01*
X577075Y166173D01*
X577041Y166154D01*
X577003Y166143D01*
X576964Y166139D01*
X573794D01*
X573755Y166143D01*
X573717Y166154D01*
X573683Y166173D01*
X573652Y166198D01*
X573627Y166228D01*
X573609Y166263D01*
X573597Y166301D01*
X573594Y166340D01*
Y185474D01*
X573597Y185513D01*
X573609Y185551D01*
X573627Y185586D01*
X573652Y185616D01*
X573683Y185641D01*
X573717Y185660D01*
X573755Y185671D01*
X573794Y185675D01*
X583932D01*
X583972Y185671D01*
D02*
G37*
G36*
X572259D02*
X572297Y185660D01*
X572331Y185641D01*
X572362Y185616D01*
X572387Y185586D01*
X572405Y185551D01*
X572417Y185513D01*
X572421Y185474D01*
Y166340D01*
X572417Y166301D01*
X572405Y166263D01*
X572387Y166228D01*
X572362Y166198D01*
X572331Y166173D01*
X572297Y166154D01*
X572259Y166143D01*
X572220Y166139D01*
X569050D01*
X569011Y166143D01*
X568973Y166154D01*
X568939Y166173D01*
X568908Y166198D01*
X568883Y166228D01*
X568865Y166263D01*
X568853Y166301D01*
X568849Y166340D01*
Y168344D01*
X567184D01*
Y166340D01*
X567180Y166301D01*
X567169Y166263D01*
X567150Y166228D01*
X567126Y166198D01*
X567095Y166173D01*
X567060Y166154D01*
X567023Y166143D01*
X566983Y166139D01*
X564031D01*
X563991Y166143D01*
X563954Y166154D01*
X563919Y166173D01*
X563889Y166198D01*
X563864Y166228D01*
X563845Y166263D01*
X563834Y166301D01*
X563830Y166340D01*
Y170706D01*
X562082D01*
X562043Y170710D01*
X562005Y170721D01*
X561970Y170740D01*
X561940Y170765D01*
X561915Y170795D01*
X561896Y170830D01*
X561885Y170868D01*
X561881Y170907D01*
Y176419D01*
X561885Y176458D01*
X561896Y176496D01*
X561915Y176531D01*
X561940Y176561D01*
X561970Y176586D01*
X562005Y176604D01*
X562043Y176616D01*
X562082Y176620D01*
X563830D01*
Y179761D01*
X562082D01*
X562043Y179765D01*
X562005Y179777D01*
X561970Y179795D01*
X561940Y179820D01*
X561915Y179850D01*
X561896Y179885D01*
X561885Y179923D01*
X561881Y179962D01*
Y185474D01*
X561885Y185513D01*
X561896Y185551D01*
X561915Y185586D01*
X561940Y185616D01*
X561970Y185641D01*
X562005Y185660D01*
X562043Y185671D01*
X562082Y185675D01*
X572220D01*
X572259Y185671D01*
D02*
G37*
G36*
X546723D02*
X546760Y185660D01*
X546795Y185641D01*
X546826Y185616D01*
X546851Y185586D01*
X546869Y185551D01*
X546881Y185513D01*
X546884Y185474D01*
Y179962D01*
X546881Y179923D01*
X546869Y179885D01*
X546851Y179850D01*
X546826Y179820D01*
X546795Y179795D01*
X546760Y179777D01*
X546723Y179765D01*
X546683Y179761D01*
X544936D01*
Y176620D01*
X546683D01*
X546723Y176616D01*
X546760Y176604D01*
X546795Y176586D01*
X546826Y176561D01*
X546851Y176531D01*
X546869Y176496D01*
X546881Y176458D01*
X546884Y176419D01*
Y170907D01*
X546881Y170868D01*
X546869Y170830D01*
X546851Y170795D01*
X546826Y170765D01*
X546795Y170740D01*
X546760Y170721D01*
X546723Y170710D01*
X546683Y170706D01*
X544936D01*
Y166340D01*
X544932Y166301D01*
X544920Y166263D01*
X544902Y166228D01*
X544877Y166198D01*
X544846Y166173D01*
X544811Y166154D01*
X544774Y166143D01*
X544735Y166139D01*
X541782D01*
X541743Y166143D01*
X541705Y166154D01*
X541670Y166173D01*
X541640Y166198D01*
X541615Y166228D01*
X541596Y166263D01*
X541585Y166301D01*
X541581Y166340D01*
Y168344D01*
X539916D01*
Y166340D01*
X539912Y166301D01*
X539901Y166263D01*
X539882Y166228D01*
X539857Y166198D01*
X539827Y166173D01*
X539792Y166154D01*
X539754Y166143D01*
X539715Y166139D01*
X536546D01*
X536506Y166143D01*
X536469Y166154D01*
X536434Y166173D01*
X536404Y166198D01*
X536378Y166228D01*
X536360Y166263D01*
X536348Y166301D01*
X536345Y166340D01*
Y185474D01*
X536348Y185513D01*
X536360Y185551D01*
X536378Y185586D01*
X536404Y185616D01*
X536434Y185641D01*
X536469Y185660D01*
X536506Y185671D01*
X536546Y185675D01*
X546683D01*
X546723Y185671D01*
D02*
G37*
G36*
X535010D02*
X535048Y185660D01*
X535082Y185641D01*
X535113Y185616D01*
X535138Y185586D01*
X535156Y185551D01*
X535168Y185513D01*
X535172Y185474D01*
Y166340D01*
X535168Y166301D01*
X535156Y166263D01*
X535138Y166228D01*
X535113Y166198D01*
X535082Y166173D01*
X535048Y166154D01*
X535010Y166143D01*
X534971Y166139D01*
X531802D01*
X531762Y166143D01*
X531725Y166154D01*
X531690Y166173D01*
X531660Y166198D01*
X531635Y166228D01*
X531616Y166263D01*
X531604Y166301D01*
X531601Y166340D01*
Y168344D01*
X529936D01*
Y166340D01*
X529932Y166301D01*
X529920Y166263D01*
X529902Y166228D01*
X529877Y166198D01*
X529846Y166173D01*
X529811Y166154D01*
X529774Y166143D01*
X529735Y166139D01*
X526782D01*
X526743Y166143D01*
X526705Y166154D01*
X526670Y166173D01*
X526640Y166198D01*
X526615Y166228D01*
X526596Y166263D01*
X526585Y166301D01*
X526581Y166340D01*
Y170706D01*
X524833D01*
X524794Y170710D01*
X524756Y170721D01*
X524721Y170740D01*
X524691Y170765D01*
X524666Y170795D01*
X524647Y170830D01*
X524636Y170868D01*
X524632Y170907D01*
Y176419D01*
X524636Y176458D01*
X524647Y176496D01*
X524666Y176531D01*
X524691Y176561D01*
X524721Y176586D01*
X524756Y176604D01*
X524794Y176616D01*
X524833Y176620D01*
X526581D01*
Y179761D01*
X524833D01*
X524794Y179765D01*
X524756Y179777D01*
X524721Y179795D01*
X524691Y179820D01*
X524666Y179850D01*
X524647Y179885D01*
X524636Y179923D01*
X524632Y179962D01*
Y185474D01*
X524636Y185513D01*
X524647Y185551D01*
X524666Y185586D01*
X524691Y185616D01*
X524721Y185641D01*
X524756Y185660D01*
X524794Y185671D01*
X524833Y185675D01*
X534971D01*
X535010Y185671D01*
D02*
G37*
G36*
X502671D02*
X502709Y185660D01*
X502744Y185641D01*
X502774Y185616D01*
X502799Y185586D01*
X502818Y185551D01*
X502829Y185513D01*
X502833Y185474D01*
Y179962D01*
X502829Y179923D01*
X502818Y179885D01*
X502799Y179850D01*
X502774Y179820D01*
X502744Y179795D01*
X502709Y179777D01*
X502671Y179765D01*
X502632Y179761D01*
X500884D01*
Y176620D01*
X502632D01*
X502671Y176616D01*
X502709Y176604D01*
X502744Y176586D01*
X502774Y176561D01*
X502799Y176531D01*
X502818Y176496D01*
X502829Y176458D01*
X502833Y176419D01*
Y170907D01*
X502829Y170868D01*
X502818Y170830D01*
X502799Y170795D01*
X502774Y170765D01*
X502744Y170740D01*
X502709Y170721D01*
X502671Y170710D01*
X502632Y170706D01*
X500884D01*
Y166340D01*
X500880Y166301D01*
X500869Y166263D01*
X500850Y166228D01*
X500826Y166198D01*
X500795Y166173D01*
X500760Y166154D01*
X500723Y166143D01*
X500683Y166139D01*
X497731D01*
X497691Y166143D01*
X497654Y166154D01*
X497619Y166173D01*
X497589Y166198D01*
X497564Y166228D01*
X497545Y166263D01*
X497534Y166301D01*
X497530Y166340D01*
Y168344D01*
X495865D01*
Y166340D01*
X495861Y166301D01*
X495849Y166263D01*
X495831Y166228D01*
X495806Y166198D01*
X495775Y166173D01*
X495741Y166154D01*
X495703Y166143D01*
X495664Y166139D01*
X492494D01*
X492455Y166143D01*
X492417Y166154D01*
X492383Y166173D01*
X492352Y166198D01*
X492327Y166228D01*
X492309Y166263D01*
X492297Y166301D01*
X492294Y166340D01*
Y185474D01*
X492297Y185513D01*
X492309Y185551D01*
X492327Y185586D01*
X492352Y185616D01*
X492383Y185641D01*
X492417Y185660D01*
X492455Y185671D01*
X492494Y185675D01*
X502632D01*
X502671Y185671D01*
D02*
G37*
G36*
X490959D02*
X490997Y185660D01*
X491031Y185641D01*
X491062Y185616D01*
X491087Y185586D01*
X491105Y185551D01*
X491117Y185513D01*
X491121Y185474D01*
Y166340D01*
X491117Y166301D01*
X491105Y166263D01*
X491087Y166228D01*
X491062Y166198D01*
X491031Y166173D01*
X490997Y166154D01*
X490959Y166143D01*
X490920Y166139D01*
X487750D01*
X487711Y166143D01*
X487673Y166154D01*
X487639Y166173D01*
X487608Y166198D01*
X487583Y166228D01*
X487565Y166263D01*
X487553Y166301D01*
X487549Y166340D01*
Y168344D01*
X485884D01*
Y166340D01*
X485881Y166301D01*
X485869Y166263D01*
X485850Y166228D01*
X485825Y166198D01*
X485795Y166173D01*
X485760Y166154D01*
X485723Y166143D01*
X485683Y166139D01*
X482731D01*
X482691Y166143D01*
X482654Y166154D01*
X482619Y166173D01*
X482589Y166198D01*
X482564Y166228D01*
X482545Y166263D01*
X482534Y166301D01*
X482530Y166340D01*
Y170706D01*
X480782D01*
X480743Y170710D01*
X480705Y170721D01*
X480670Y170740D01*
X480640Y170765D01*
X480615Y170795D01*
X480596Y170830D01*
X480585Y170868D01*
X480581Y170907D01*
Y176419D01*
X480585Y176458D01*
X480596Y176496D01*
X480615Y176531D01*
X480640Y176561D01*
X480670Y176586D01*
X480705Y176604D01*
X480743Y176616D01*
X480782Y176620D01*
X482530D01*
Y179761D01*
X480782D01*
X480743Y179765D01*
X480705Y179777D01*
X480670Y179795D01*
X480640Y179820D01*
X480615Y179850D01*
X480596Y179885D01*
X480585Y179923D01*
X480581Y179962D01*
Y185474D01*
X480585Y185513D01*
X480596Y185551D01*
X480615Y185586D01*
X480640Y185616D01*
X480670Y185641D01*
X480705Y185660D01*
X480743Y185671D01*
X480782Y185675D01*
X490920D01*
X490959Y185671D01*
D02*
G37*
G36*
X465423D02*
X465460Y185660D01*
X465495Y185641D01*
X465526Y185616D01*
X465551Y185586D01*
X465569Y185551D01*
X465581Y185513D01*
X465584Y185474D01*
Y179962D01*
X465581Y179923D01*
X465569Y179885D01*
X465551Y179850D01*
X465526Y179820D01*
X465495Y179795D01*
X465460Y179777D01*
X465423Y179765D01*
X465383Y179761D01*
X463636D01*
Y176620D01*
X465383D01*
X465423Y176616D01*
X465460Y176604D01*
X465495Y176586D01*
X465526Y176561D01*
X465551Y176531D01*
X465569Y176496D01*
X465581Y176458D01*
X465584Y176419D01*
Y170907D01*
X465581Y170868D01*
X465569Y170830D01*
X465551Y170795D01*
X465526Y170765D01*
X465495Y170740D01*
X465460Y170721D01*
X465423Y170710D01*
X465383Y170706D01*
X463636D01*
Y166340D01*
X463632Y166301D01*
X463620Y166263D01*
X463602Y166228D01*
X463577Y166198D01*
X463546Y166173D01*
X463512Y166154D01*
X463474Y166143D01*
X463435Y166139D01*
X460482D01*
X460443Y166143D01*
X460405Y166154D01*
X460370Y166173D01*
X460340Y166198D01*
X460315Y166228D01*
X460296Y166263D01*
X460285Y166301D01*
X460281Y166340D01*
Y168344D01*
X458616D01*
Y166340D01*
X458612Y166301D01*
X458601Y166263D01*
X458582Y166228D01*
X458557Y166198D01*
X458527Y166173D01*
X458492Y166154D01*
X458454Y166143D01*
X458415Y166139D01*
X455246D01*
X455206Y166143D01*
X455169Y166154D01*
X455134Y166173D01*
X455103Y166198D01*
X455079Y166228D01*
X455060Y166263D01*
X455049Y166301D01*
X455045Y166340D01*
Y185474D01*
X455049Y185513D01*
X455060Y185551D01*
X455079Y185586D01*
X455103Y185616D01*
X455134Y185641D01*
X455169Y185660D01*
X455206Y185671D01*
X455246Y185675D01*
X465383D01*
X465423Y185671D01*
D02*
G37*
G36*
X453710D02*
X453748Y185660D01*
X453783Y185641D01*
X453813Y185616D01*
X453838Y185586D01*
X453857Y185551D01*
X453868Y185513D01*
X453872Y185474D01*
Y166340D01*
X453868Y166301D01*
X453857Y166263D01*
X453838Y166228D01*
X453813Y166198D01*
X453783Y166173D01*
X453748Y166154D01*
X453710Y166143D01*
X453671Y166139D01*
X450502D01*
X450462Y166143D01*
X450425Y166154D01*
X450390Y166173D01*
X450359Y166198D01*
X450335Y166228D01*
X450316Y166263D01*
X450304Y166301D01*
X450301Y166340D01*
Y168344D01*
X448636D01*
Y166340D01*
X448632Y166301D01*
X448620Y166263D01*
X448602Y166228D01*
X448577Y166198D01*
X448546Y166173D01*
X448512Y166154D01*
X448474Y166143D01*
X448435Y166139D01*
X445482D01*
X445443Y166143D01*
X445405Y166154D01*
X445370Y166173D01*
X445340Y166198D01*
X445315Y166228D01*
X445296Y166263D01*
X445285Y166301D01*
X445281Y166340D01*
Y170706D01*
X443533D01*
X443494Y170710D01*
X443456Y170721D01*
X443421Y170740D01*
X443391Y170765D01*
X443366Y170795D01*
X443347Y170830D01*
X443336Y170868D01*
X443332Y170907D01*
Y176419D01*
X443336Y176458D01*
X443347Y176496D01*
X443366Y176531D01*
X443391Y176561D01*
X443421Y176586D01*
X443456Y176604D01*
X443494Y176616D01*
X443533Y176620D01*
X445281D01*
Y179761D01*
X443533D01*
X443494Y179765D01*
X443456Y179777D01*
X443421Y179795D01*
X443391Y179820D01*
X443366Y179850D01*
X443347Y179885D01*
X443336Y179923D01*
X443332Y179962D01*
Y185474D01*
X443336Y185513D01*
X443347Y185551D01*
X443366Y185586D01*
X443391Y185616D01*
X443421Y185641D01*
X443456Y185660D01*
X443494Y185671D01*
X443533Y185675D01*
X453671D01*
X453710Y185671D01*
D02*
G37*
G36*
X339089D02*
X339126Y185660D01*
X339161Y185641D01*
X339192Y185616D01*
X339217Y185586D01*
X339235Y185551D01*
X339247Y185513D01*
X339250Y185474D01*
Y179962D01*
X339247Y179923D01*
X339235Y179885D01*
X339217Y179850D01*
X339192Y179820D01*
X339161Y179795D01*
X339126Y179777D01*
X339089Y179765D01*
X339050Y179761D01*
X337302D01*
Y176620D01*
X339050D01*
X339089Y176616D01*
X339126Y176604D01*
X339161Y176586D01*
X339192Y176561D01*
X339217Y176531D01*
X339235Y176496D01*
X339247Y176458D01*
X339250Y176419D01*
Y170907D01*
X339247Y170868D01*
X339235Y170830D01*
X339217Y170795D01*
X339192Y170765D01*
X339161Y170740D01*
X339126Y170721D01*
X339089Y170710D01*
X339050Y170706D01*
X337302D01*
Y166340D01*
X337298Y166301D01*
X337286Y166263D01*
X337268Y166228D01*
X337243Y166198D01*
X337212Y166173D01*
X337178Y166154D01*
X337140Y166143D01*
X337101Y166139D01*
X334148D01*
X334109Y166143D01*
X334071Y166154D01*
X334036Y166173D01*
X334006Y166198D01*
X333981Y166228D01*
X333962Y166263D01*
X333951Y166301D01*
X333947Y166340D01*
Y168344D01*
X332282D01*
Y166340D01*
X332278Y166301D01*
X332267Y166263D01*
X332248Y166228D01*
X332223Y166198D01*
X332193Y166173D01*
X332158Y166154D01*
X332120Y166143D01*
X332081Y166139D01*
X328912D01*
X328873Y166143D01*
X328835Y166154D01*
X328800Y166173D01*
X328770Y166198D01*
X328745Y166228D01*
X328726Y166263D01*
X328715Y166301D01*
X328711Y166340D01*
Y185474D01*
X328715Y185513D01*
X328726Y185551D01*
X328745Y185586D01*
X328770Y185616D01*
X328800Y185641D01*
X328835Y185660D01*
X328873Y185671D01*
X328912Y185675D01*
X339050D01*
X339089Y185671D01*
D02*
G37*
G36*
X327376D02*
X327414Y185660D01*
X327449Y185641D01*
X327479Y185616D01*
X327504Y185586D01*
X327523Y185551D01*
X327534Y185513D01*
X327538Y185474D01*
Y166340D01*
X327534Y166301D01*
X327523Y166263D01*
X327504Y166228D01*
X327479Y166198D01*
X327449Y166173D01*
X327414Y166154D01*
X327376Y166143D01*
X327337Y166139D01*
X324168D01*
X324129Y166143D01*
X324091Y166154D01*
X324056Y166173D01*
X324026Y166198D01*
X324001Y166228D01*
X323982Y166263D01*
X323971Y166301D01*
X323967Y166340D01*
Y168344D01*
X322302D01*
Y166340D01*
X322298Y166301D01*
X322286Y166263D01*
X322268Y166228D01*
X322243Y166198D01*
X322212Y166173D01*
X322178Y166154D01*
X322140Y166143D01*
X322101Y166139D01*
X319148D01*
X319109Y166143D01*
X319071Y166154D01*
X319036Y166173D01*
X319006Y166198D01*
X318981Y166228D01*
X318962Y166263D01*
X318951Y166301D01*
X318947Y166340D01*
Y170706D01*
X317199D01*
X317160Y170710D01*
X317122Y170721D01*
X317088Y170740D01*
X317057Y170765D01*
X317032Y170795D01*
X317014Y170830D01*
X317002Y170868D01*
X316998Y170907D01*
Y176419D01*
X317002Y176458D01*
X317014Y176496D01*
X317032Y176531D01*
X317057Y176561D01*
X317088Y176586D01*
X317122Y176604D01*
X317160Y176616D01*
X317199Y176620D01*
X318947D01*
Y179761D01*
X317199D01*
X317160Y179765D01*
X317122Y179777D01*
X317088Y179795D01*
X317057Y179820D01*
X317032Y179850D01*
X317014Y179885D01*
X317002Y179923D01*
X316998Y179962D01*
Y185474D01*
X317002Y185513D01*
X317014Y185551D01*
X317032Y185586D01*
X317057Y185616D01*
X317088Y185641D01*
X317122Y185660D01*
X317160Y185671D01*
X317199Y185675D01*
X327337D01*
X327376Y185671D01*
D02*
G37*
G36*
X301840D02*
X301878Y185660D01*
X301912Y185641D01*
X301943Y185616D01*
X301968Y185586D01*
X301986Y185551D01*
X301998Y185513D01*
X302002Y185474D01*
Y179962D01*
X301998Y179923D01*
X301986Y179885D01*
X301968Y179850D01*
X301943Y179820D01*
X301912Y179795D01*
X301878Y179777D01*
X301840Y179765D01*
X301801Y179761D01*
X300053D01*
Y176620D01*
X301801D01*
X301840Y176616D01*
X301878Y176604D01*
X301912Y176586D01*
X301943Y176561D01*
X301968Y176531D01*
X301986Y176496D01*
X301998Y176458D01*
X302002Y176419D01*
Y170907D01*
X301998Y170868D01*
X301986Y170830D01*
X301968Y170795D01*
X301943Y170765D01*
X301912Y170740D01*
X301878Y170721D01*
X301840Y170710D01*
X301801Y170706D01*
X300053D01*
Y166340D01*
X300049Y166301D01*
X300038Y166263D01*
X300019Y166228D01*
X299994Y166198D01*
X299964Y166173D01*
X299929Y166154D01*
X299891Y166143D01*
X299852Y166139D01*
X296899D01*
X296860Y166143D01*
X296822Y166154D01*
X296788Y166173D01*
X296757Y166198D01*
X296732Y166228D01*
X296713Y166263D01*
X296702Y166301D01*
X296698Y166340D01*
Y168344D01*
X295033D01*
Y166340D01*
X295029Y166301D01*
X295018Y166263D01*
X294999Y166228D01*
X294974Y166198D01*
X294944Y166173D01*
X294909Y166154D01*
X294871Y166143D01*
X294832Y166139D01*
X291663D01*
X291624Y166143D01*
X291586Y166154D01*
X291551Y166173D01*
X291521Y166198D01*
X291496Y166228D01*
X291477Y166263D01*
X291466Y166301D01*
X291462Y166340D01*
Y185474D01*
X291466Y185513D01*
X291477Y185551D01*
X291496Y185586D01*
X291521Y185616D01*
X291551Y185641D01*
X291586Y185660D01*
X291624Y185671D01*
X291663Y185675D01*
X301801D01*
X301840Y185671D01*
D02*
G37*
G36*
X290127D02*
X290165Y185660D01*
X290200Y185641D01*
X290230Y185616D01*
X290255Y185586D01*
X290274Y185551D01*
X290285Y185513D01*
X290289Y185474D01*
Y166340D01*
X290285Y166301D01*
X290274Y166263D01*
X290255Y166228D01*
X290230Y166198D01*
X290200Y166173D01*
X290165Y166154D01*
X290127Y166143D01*
X290088Y166139D01*
X286919D01*
X286880Y166143D01*
X286842Y166154D01*
X286807Y166173D01*
X286777Y166198D01*
X286752Y166228D01*
X286733Y166263D01*
X286722Y166301D01*
X286718Y166340D01*
Y168344D01*
X285053D01*
Y166340D01*
X285049Y166301D01*
X285038Y166263D01*
X285019Y166228D01*
X284994Y166198D01*
X284964Y166173D01*
X284929Y166154D01*
X284891Y166143D01*
X284852Y166139D01*
X281899D01*
X281860Y166143D01*
X281822Y166154D01*
X281787Y166173D01*
X281757Y166198D01*
X281732Y166228D01*
X281714Y166263D01*
X281702Y166301D01*
X281698Y166340D01*
Y170706D01*
X279950D01*
X279911Y170710D01*
X279873Y170721D01*
X279839Y170740D01*
X279808Y170765D01*
X279783Y170795D01*
X279765Y170830D01*
X279753Y170868D01*
X279749Y170907D01*
Y176419D01*
X279753Y176458D01*
X279765Y176496D01*
X279783Y176531D01*
X279808Y176561D01*
X279839Y176586D01*
X279873Y176604D01*
X279911Y176616D01*
X279950Y176620D01*
X281698D01*
Y179761D01*
X279950D01*
X279911Y179765D01*
X279873Y179777D01*
X279839Y179795D01*
X279808Y179820D01*
X279783Y179850D01*
X279765Y179885D01*
X279753Y179923D01*
X279749Y179962D01*
Y185474D01*
X279753Y185513D01*
X279765Y185551D01*
X279783Y185586D01*
X279808Y185616D01*
X279839Y185641D01*
X279873Y185660D01*
X279911Y185671D01*
X279950Y185675D01*
X290088D01*
X290127Y185671D01*
D02*
G37*
G36*
X175506D02*
X175544Y185660D01*
X175578Y185641D01*
X175609Y185616D01*
X175634Y185586D01*
X175653Y185551D01*
X175664Y185513D01*
X175668Y185474D01*
Y179962D01*
X175664Y179923D01*
X175653Y179885D01*
X175634Y179850D01*
X175609Y179820D01*
X175578Y179795D01*
X175544Y179777D01*
X175506Y179765D01*
X175467Y179761D01*
X173719D01*
Y176620D01*
X175467D01*
X175506Y176616D01*
X175544Y176604D01*
X175578Y176586D01*
X175609Y176561D01*
X175634Y176531D01*
X175653Y176496D01*
X175664Y176458D01*
X175668Y176419D01*
Y170907D01*
X175664Y170868D01*
X175653Y170830D01*
X175634Y170795D01*
X175609Y170765D01*
X175578Y170740D01*
X175544Y170721D01*
X175506Y170710D01*
X175467Y170706D01*
X173719D01*
Y166340D01*
X173715Y166301D01*
X173704Y166263D01*
X173685Y166228D01*
X173660Y166198D01*
X173630Y166173D01*
X173595Y166154D01*
X173557Y166143D01*
X173518Y166139D01*
X170565D01*
X170526Y166143D01*
X170488Y166154D01*
X170454Y166173D01*
X170423Y166198D01*
X170398Y166228D01*
X170380Y166263D01*
X170368Y166301D01*
X170364Y166340D01*
Y168344D01*
X168699D01*
Y166340D01*
X168695Y166301D01*
X168684Y166263D01*
X168666Y166228D01*
X168640Y166198D01*
X168610Y166173D01*
X168575Y166154D01*
X168538Y166143D01*
X168498Y166139D01*
X165329D01*
X165290Y166143D01*
X165252Y166154D01*
X165217Y166173D01*
X165187Y166198D01*
X165162Y166228D01*
X165143Y166263D01*
X165132Y166301D01*
X165128Y166340D01*
Y185474D01*
X165132Y185513D01*
X165143Y185551D01*
X165162Y185586D01*
X165187Y185616D01*
X165217Y185641D01*
X165252Y185660D01*
X165290Y185671D01*
X165329Y185675D01*
X175467D01*
X175506Y185671D01*
D02*
G37*
G36*
X163794D02*
X163831Y185660D01*
X163866Y185641D01*
X163896Y185616D01*
X163921Y185586D01*
X163940Y185551D01*
X163951Y185513D01*
X163955Y185474D01*
Y166340D01*
X163951Y166301D01*
X163940Y166263D01*
X163921Y166228D01*
X163896Y166198D01*
X163866Y166173D01*
X163831Y166154D01*
X163794Y166143D01*
X163754Y166139D01*
X160585D01*
X160546Y166143D01*
X160508Y166154D01*
X160473Y166173D01*
X160443Y166198D01*
X160418Y166228D01*
X160399Y166263D01*
X160388Y166301D01*
X160384Y166340D01*
Y168344D01*
X158719D01*
Y166340D01*
X158715Y166301D01*
X158704Y166263D01*
X158685Y166228D01*
X158660Y166198D01*
X158630Y166173D01*
X158595Y166154D01*
X158557Y166143D01*
X158518Y166139D01*
X155565D01*
X155526Y166143D01*
X155488Y166154D01*
X155454Y166173D01*
X155423Y166198D01*
X155398Y166228D01*
X155380Y166263D01*
X155368Y166301D01*
X155364Y166340D01*
Y170706D01*
X153616D01*
X153577Y170710D01*
X153540Y170721D01*
X153505Y170740D01*
X153474Y170765D01*
X153449Y170795D01*
X153431Y170830D01*
X153419Y170868D01*
X153416Y170907D01*
Y176419D01*
X153419Y176458D01*
X153431Y176496D01*
X153449Y176531D01*
X153474Y176561D01*
X153505Y176586D01*
X153540Y176604D01*
X153577Y176616D01*
X153616Y176620D01*
X155364D01*
Y179761D01*
X153616D01*
X153577Y179765D01*
X153540Y179777D01*
X153505Y179795D01*
X153474Y179820D01*
X153449Y179850D01*
X153431Y179885D01*
X153419Y179923D01*
X153416Y179962D01*
Y185474D01*
X153419Y185513D01*
X153431Y185551D01*
X153449Y185586D01*
X153474Y185616D01*
X153505Y185641D01*
X153540Y185660D01*
X153577Y185671D01*
X153616Y185675D01*
X163754D01*
X163794Y185671D01*
D02*
G37*
G36*
X138257D02*
X138295Y185660D01*
X138330Y185641D01*
X138360Y185616D01*
X138385Y185586D01*
X138404Y185551D01*
X138415Y185513D01*
X138419Y185474D01*
Y179962D01*
X138415Y179923D01*
X138404Y179885D01*
X138385Y179850D01*
X138360Y179820D01*
X138330Y179795D01*
X138295Y179777D01*
X138257Y179765D01*
X138218Y179761D01*
X136470D01*
Y176620D01*
X138218D01*
X138257Y176616D01*
X138295Y176604D01*
X138330Y176586D01*
X138360Y176561D01*
X138385Y176531D01*
X138404Y176496D01*
X138415Y176458D01*
X138419Y176419D01*
Y170907D01*
X138415Y170868D01*
X138404Y170830D01*
X138385Y170795D01*
X138360Y170765D01*
X138330Y170740D01*
X138295Y170721D01*
X138257Y170710D01*
X138218Y170706D01*
X136470D01*
Y166340D01*
X136466Y166301D01*
X136455Y166263D01*
X136436Y166228D01*
X136411Y166198D01*
X136381Y166173D01*
X136346Y166154D01*
X136309Y166143D01*
X136269Y166139D01*
X133317D01*
X133277Y166143D01*
X133240Y166154D01*
X133205Y166173D01*
X133174Y166198D01*
X133149Y166228D01*
X133131Y166263D01*
X133119Y166301D01*
X133115Y166340D01*
Y168344D01*
X131450D01*
Y166340D01*
X131447Y166301D01*
X131435Y166263D01*
X131417Y166228D01*
X131392Y166198D01*
X131361Y166173D01*
X131326Y166154D01*
X131289Y166143D01*
X131250Y166139D01*
X128080D01*
X128041Y166143D01*
X128003Y166154D01*
X127969Y166173D01*
X127938Y166198D01*
X127913Y166228D01*
X127895Y166263D01*
X127883Y166301D01*
X127879Y166340D01*
Y185474D01*
X127883Y185513D01*
X127895Y185551D01*
X127913Y185586D01*
X127938Y185616D01*
X127969Y185641D01*
X128003Y185660D01*
X128041Y185671D01*
X128080Y185675D01*
X138218D01*
X138257Y185671D01*
D02*
G37*
G36*
X126545D02*
X126582Y185660D01*
X126617Y185641D01*
X126648Y185616D01*
X126673Y185586D01*
X126691Y185551D01*
X126703Y185513D01*
X126707Y185474D01*
Y166340D01*
X126703Y166301D01*
X126691Y166263D01*
X126673Y166228D01*
X126648Y166198D01*
X126617Y166173D01*
X126582Y166154D01*
X126545Y166143D01*
X126505Y166139D01*
X123336D01*
X123297Y166143D01*
X123259Y166154D01*
X123224Y166173D01*
X123194Y166198D01*
X123169Y166228D01*
X123151Y166263D01*
X123139Y166301D01*
X123135Y166340D01*
Y168344D01*
X121470D01*
Y166340D01*
X121466Y166301D01*
X121455Y166263D01*
X121436Y166228D01*
X121411Y166198D01*
X121381Y166173D01*
X121346Y166154D01*
X121309Y166143D01*
X121269Y166139D01*
X118316D01*
X118277Y166143D01*
X118240Y166154D01*
X118205Y166173D01*
X118174Y166198D01*
X118149Y166228D01*
X118131Y166263D01*
X118119Y166301D01*
X118115Y166340D01*
Y170706D01*
X116368D01*
X116329Y170710D01*
X116291Y170721D01*
X116256Y170740D01*
X116226Y170765D01*
X116201Y170795D01*
X116182Y170830D01*
X116171Y170868D01*
X116167Y170907D01*
Y176419D01*
X116171Y176458D01*
X116182Y176496D01*
X116201Y176531D01*
X116226Y176561D01*
X116256Y176586D01*
X116291Y176604D01*
X116329Y176616D01*
X116368Y176620D01*
X118115D01*
Y179761D01*
X116368D01*
X116329Y179765D01*
X116291Y179777D01*
X116256Y179795D01*
X116226Y179820D01*
X116201Y179850D01*
X116182Y179885D01*
X116171Y179923D01*
X116167Y179962D01*
Y185474D01*
X116171Y185513D01*
X116182Y185551D01*
X116201Y185586D01*
X116226Y185616D01*
X116256Y185641D01*
X116291Y185660D01*
X116329Y185671D01*
X116368Y185675D01*
X126505D01*
X126545Y185671D01*
D02*
G37*
G36*
X93715D02*
X93752Y185660D01*
X93787Y185641D01*
X93818Y185616D01*
X93843Y185586D01*
X93861Y185551D01*
X93873Y185513D01*
X93876Y185474D01*
Y179962D01*
X93873Y179923D01*
X93861Y179885D01*
X93843Y179850D01*
X93818Y179820D01*
X93787Y179795D01*
X93752Y179777D01*
X93715Y179765D01*
X93676Y179761D01*
X91928D01*
Y176620D01*
X93676D01*
X93715Y176616D01*
X93752Y176604D01*
X93787Y176586D01*
X93818Y176561D01*
X93843Y176531D01*
X93861Y176496D01*
X93873Y176458D01*
X93876Y176419D01*
Y170907D01*
X93873Y170868D01*
X93861Y170830D01*
X93843Y170795D01*
X93818Y170765D01*
X93787Y170740D01*
X93752Y170721D01*
X93715Y170710D01*
X93676Y170706D01*
X91928D01*
Y166340D01*
X91924Y166301D01*
X91912Y166263D01*
X91894Y166228D01*
X91869Y166198D01*
X91838Y166173D01*
X91804Y166154D01*
X91766Y166143D01*
X91727Y166139D01*
X88774D01*
X88735Y166143D01*
X88697Y166154D01*
X88662Y166173D01*
X88632Y166198D01*
X88607Y166228D01*
X88588Y166263D01*
X88577Y166301D01*
X88573Y166340D01*
Y168344D01*
X86908D01*
Y166340D01*
X86904Y166301D01*
X86893Y166263D01*
X86874Y166228D01*
X86849Y166198D01*
X86819Y166173D01*
X86784Y166154D01*
X86746Y166143D01*
X86707Y166139D01*
X83538D01*
X83499Y166143D01*
X83461Y166154D01*
X83426Y166173D01*
X83396Y166198D01*
X83371Y166228D01*
X83352Y166263D01*
X83341Y166301D01*
X83337Y166340D01*
Y185474D01*
X83341Y185513D01*
X83352Y185551D01*
X83371Y185586D01*
X83396Y185616D01*
X83426Y185641D01*
X83461Y185660D01*
X83499Y185671D01*
X83538Y185675D01*
X93676D01*
X93715Y185671D01*
D02*
G37*
G36*
X82002D02*
X82040Y185660D01*
X82075Y185641D01*
X82105Y185616D01*
X82130Y185586D01*
X82149Y185551D01*
X82160Y185513D01*
X82164Y185474D01*
Y166340D01*
X82160Y166301D01*
X82149Y166263D01*
X82130Y166228D01*
X82105Y166198D01*
X82075Y166173D01*
X82040Y166154D01*
X82002Y166143D01*
X81963Y166139D01*
X78794D01*
X78754Y166143D01*
X78717Y166154D01*
X78682Y166173D01*
X78651Y166198D01*
X78627Y166228D01*
X78608Y166263D01*
X78597Y166301D01*
X78593Y166340D01*
Y168344D01*
X76928D01*
Y166340D01*
X76924Y166301D01*
X76912Y166263D01*
X76894Y166228D01*
X76869Y166198D01*
X76838Y166173D01*
X76804Y166154D01*
X76766Y166143D01*
X76727Y166139D01*
X73774D01*
X73735Y166143D01*
X73697Y166154D01*
X73662Y166173D01*
X73632Y166198D01*
X73607Y166228D01*
X73588Y166263D01*
X73577Y166301D01*
X73573Y166340D01*
Y170706D01*
X71825D01*
X71786Y170710D01*
X71748Y170721D01*
X71714Y170740D01*
X71683Y170765D01*
X71658Y170795D01*
X71640Y170830D01*
X71628Y170868D01*
X71624Y170907D01*
Y176419D01*
X71628Y176458D01*
X71640Y176496D01*
X71658Y176531D01*
X71683Y176561D01*
X71714Y176586D01*
X71748Y176604D01*
X71786Y176616D01*
X71825Y176620D01*
X73573D01*
Y179761D01*
X71825D01*
X71786Y179765D01*
X71748Y179777D01*
X71714Y179795D01*
X71683Y179820D01*
X71658Y179850D01*
X71640Y179885D01*
X71628Y179923D01*
X71624Y179962D01*
Y185474D01*
X71628Y185513D01*
X71640Y185551D01*
X71658Y185586D01*
X71683Y185616D01*
X71714Y185641D01*
X71748Y185660D01*
X71786Y185671D01*
X71825Y185675D01*
X81963D01*
X82002Y185671D01*
D02*
G37*
G36*
X56466D02*
X56504Y185660D01*
X56538Y185641D01*
X56569Y185616D01*
X56594Y185586D01*
X56612Y185551D01*
X56624Y185513D01*
X56628Y185474D01*
Y179962D01*
X56624Y179923D01*
X56612Y179885D01*
X56594Y179850D01*
X56569Y179820D01*
X56538Y179795D01*
X56504Y179777D01*
X56466Y179765D01*
X56427Y179761D01*
X54679D01*
Y176620D01*
X56427D01*
X56466Y176616D01*
X56504Y176604D01*
X56538Y176586D01*
X56569Y176561D01*
X56594Y176531D01*
X56612Y176496D01*
X56624Y176458D01*
X56628Y176419D01*
Y170907D01*
X56624Y170868D01*
X56612Y170830D01*
X56594Y170795D01*
X56569Y170765D01*
X56538Y170740D01*
X56504Y170721D01*
X56466Y170710D01*
X56427Y170706D01*
X54679D01*
Y166340D01*
X54675Y166301D01*
X54664Y166263D01*
X54645Y166228D01*
X54620Y166198D01*
X54590Y166173D01*
X54555Y166154D01*
X54517Y166143D01*
X54478Y166139D01*
X51525D01*
X51486Y166143D01*
X51448Y166154D01*
X51414Y166173D01*
X51383Y166198D01*
X51358Y166228D01*
X51340Y166263D01*
X51328Y166301D01*
X51324Y166340D01*
Y168344D01*
X49659D01*
Y166340D01*
X49655Y166301D01*
X49644Y166263D01*
X49625Y166228D01*
X49600Y166198D01*
X49570Y166173D01*
X49535Y166154D01*
X49497Y166143D01*
X49458Y166139D01*
X46289D01*
X46250Y166143D01*
X46212Y166154D01*
X46177Y166173D01*
X46147Y166198D01*
X46122Y166228D01*
X46103Y166263D01*
X46092Y166301D01*
X46088Y166340D01*
Y185474D01*
X46092Y185513D01*
X46103Y185551D01*
X46122Y185586D01*
X46147Y185616D01*
X46177Y185641D01*
X46212Y185660D01*
X46250Y185671D01*
X46289Y185675D01*
X56427D01*
X56466Y185671D01*
D02*
G37*
G36*
X44753D02*
X44791Y185660D01*
X44826Y185641D01*
X44856Y185616D01*
X44881Y185586D01*
X44900Y185551D01*
X44911Y185513D01*
X44915Y185474D01*
Y166340D01*
X44911Y166301D01*
X44900Y166263D01*
X44881Y166228D01*
X44856Y166198D01*
X44826Y166173D01*
X44791Y166154D01*
X44753Y166143D01*
X44714Y166139D01*
X41545D01*
X41506Y166143D01*
X41468Y166154D01*
X41433Y166173D01*
X41403Y166198D01*
X41378Y166228D01*
X41359Y166263D01*
X41348Y166301D01*
X41344Y166340D01*
Y168344D01*
X39679D01*
Y166340D01*
X39675Y166301D01*
X39664Y166263D01*
X39645Y166228D01*
X39620Y166198D01*
X39590Y166173D01*
X39555Y166154D01*
X39517Y166143D01*
X39478Y166139D01*
X36525D01*
X36486Y166143D01*
X36448Y166154D01*
X36413Y166173D01*
X36383Y166198D01*
X36358Y166228D01*
X36340Y166263D01*
X36328Y166301D01*
X36324Y166340D01*
Y170706D01*
X34576D01*
X34537Y170710D01*
X34499Y170721D01*
X34465Y170740D01*
X34434Y170765D01*
X34409Y170795D01*
X34391Y170830D01*
X34379Y170868D01*
X34375Y170907D01*
Y176419D01*
X34379Y176458D01*
X34391Y176496D01*
X34409Y176531D01*
X34434Y176561D01*
X34465Y176586D01*
X34499Y176604D01*
X34537Y176616D01*
X34576Y176620D01*
X36324D01*
Y179761D01*
X34576D01*
X34537Y179765D01*
X34499Y179777D01*
X34465Y179795D01*
X34434Y179820D01*
X34409Y179850D01*
X34391Y179885D01*
X34379Y179923D01*
X34375Y179962D01*
Y185474D01*
X34379Y185513D01*
X34391Y185551D01*
X34409Y185586D01*
X34434Y185616D01*
X34465Y185641D01*
X34499Y185660D01*
X34537Y185671D01*
X34576Y185675D01*
X44714D01*
X44753Y185671D01*
D02*
G37*
G36*
X420616Y185373D02*
X420654Y185362D01*
X420688Y185343D01*
X420719Y185318D01*
X420744Y185288D01*
X420762Y185253D01*
X420774Y185215D01*
X420778Y185176D01*
Y179665D01*
X420774Y179625D01*
X420762Y179588D01*
X420744Y179553D01*
X420719Y179522D01*
X420688Y179497D01*
X420654Y179479D01*
X420616Y179467D01*
X420577Y179464D01*
X418829D01*
Y176322D01*
X420577D01*
X420616Y176318D01*
X420654Y176307D01*
X420688Y176288D01*
X420719Y176263D01*
X420744Y176233D01*
X420762Y176198D01*
X420774Y176160D01*
X420778Y176121D01*
Y170609D01*
X420774Y170570D01*
X420762Y170532D01*
X420744Y170498D01*
X420719Y170467D01*
X420688Y170442D01*
X420654Y170424D01*
X420616Y170412D01*
X420577Y170408D01*
X418829D01*
Y166042D01*
X418825Y166003D01*
X418814Y165965D01*
X418795Y165931D01*
X418770Y165900D01*
X418740Y165875D01*
X418705Y165857D01*
X418667Y165845D01*
X418628Y165841D01*
X415675D01*
X415636Y165845D01*
X415598Y165857D01*
X415563Y165875D01*
X415533Y165900D01*
X415508Y165931D01*
X415489Y165965D01*
X415478Y166003D01*
X415474Y166042D01*
Y168046D01*
X413809D01*
Y166042D01*
X413805Y166003D01*
X413794Y165965D01*
X413775Y165931D01*
X413750Y165900D01*
X413720Y165875D01*
X413685Y165857D01*
X413647Y165845D01*
X413608Y165841D01*
X410439D01*
X410400Y165845D01*
X410362Y165857D01*
X410327Y165875D01*
X410297Y165900D01*
X410272Y165931D01*
X410253Y165965D01*
X410242Y166003D01*
X410238Y166042D01*
Y185176D01*
X410242Y185215D01*
X410253Y185253D01*
X410272Y185288D01*
X410297Y185318D01*
X410327Y185343D01*
X410362Y185362D01*
X410400Y185373D01*
X410439Y185377D01*
X420577D01*
X420616Y185373D01*
D02*
G37*
G36*
X408903D02*
X408941Y185362D01*
X408976Y185343D01*
X409006Y185318D01*
X409031Y185288D01*
X409050Y185253D01*
X409061Y185215D01*
X409065Y185176D01*
Y166042D01*
X409061Y166003D01*
X409050Y165965D01*
X409031Y165931D01*
X409006Y165900D01*
X408976Y165875D01*
X408941Y165857D01*
X408903Y165845D01*
X408864Y165841D01*
X405695D01*
X405656Y165845D01*
X405618Y165857D01*
X405583Y165875D01*
X405553Y165900D01*
X405528Y165931D01*
X405509Y165965D01*
X405498Y166003D01*
X405494Y166042D01*
Y168046D01*
X403829D01*
Y166042D01*
X403825Y166003D01*
X403814Y165965D01*
X403795Y165931D01*
X403770Y165900D01*
X403740Y165875D01*
X403705Y165857D01*
X403667Y165845D01*
X403628Y165841D01*
X400675D01*
X400636Y165845D01*
X400598Y165857D01*
X400563Y165875D01*
X400533Y165900D01*
X400508Y165931D01*
X400489Y165965D01*
X400478Y166003D01*
X400474Y166042D01*
Y170408D01*
X398726D01*
X398687Y170412D01*
X398649Y170424D01*
X398615Y170442D01*
X398584Y170467D01*
X398559Y170498D01*
X398541Y170532D01*
X398529Y170570D01*
X398525Y170609D01*
Y176121D01*
X398529Y176160D01*
X398541Y176198D01*
X398559Y176233D01*
X398584Y176263D01*
X398615Y176288D01*
X398649Y176307D01*
X398687Y176318D01*
X398726Y176322D01*
X400474D01*
Y179464D01*
X398726D01*
X398687Y179467D01*
X398649Y179479D01*
X398615Y179497D01*
X398584Y179522D01*
X398559Y179553D01*
X398541Y179588D01*
X398529Y179625D01*
X398525Y179665D01*
Y185176D01*
X398529Y185215D01*
X398541Y185253D01*
X398559Y185288D01*
X398584Y185318D01*
X398615Y185343D01*
X398649Y185362D01*
X398687Y185373D01*
X398726Y185377D01*
X408864D01*
X408903Y185373D01*
D02*
G37*
G36*
X383367D02*
X383405Y185362D01*
X383439Y185343D01*
X383470Y185318D01*
X383495Y185288D01*
X383513Y185253D01*
X383525Y185215D01*
X383529Y185176D01*
Y179665D01*
X383525Y179625D01*
X383513Y179588D01*
X383495Y179553D01*
X383470Y179522D01*
X383439Y179497D01*
X383405Y179479D01*
X383367Y179467D01*
X383328Y179464D01*
X381580D01*
Y176322D01*
X383328D01*
X383367Y176318D01*
X383405Y176307D01*
X383439Y176288D01*
X383470Y176263D01*
X383495Y176233D01*
X383513Y176198D01*
X383525Y176160D01*
X383529Y176121D01*
Y170609D01*
X383525Y170570D01*
X383513Y170532D01*
X383495Y170498D01*
X383470Y170467D01*
X383439Y170442D01*
X383405Y170424D01*
X383367Y170412D01*
X383328Y170408D01*
X381580D01*
Y166042D01*
X381576Y166003D01*
X381565Y165965D01*
X381546Y165931D01*
X381521Y165900D01*
X381491Y165875D01*
X381456Y165857D01*
X381418Y165845D01*
X381379Y165841D01*
X378426D01*
X378387Y165845D01*
X378349Y165857D01*
X378315Y165875D01*
X378284Y165900D01*
X378259Y165931D01*
X378241Y165965D01*
X378229Y166003D01*
X378225Y166042D01*
Y168046D01*
X376560D01*
Y166042D01*
X376556Y166003D01*
X376545Y165965D01*
X376526Y165931D01*
X376501Y165900D01*
X376471Y165875D01*
X376436Y165857D01*
X376399Y165845D01*
X376359Y165841D01*
X373190D01*
X373151Y165845D01*
X373113Y165857D01*
X373078Y165875D01*
X373048Y165900D01*
X373023Y165931D01*
X373004Y165965D01*
X372993Y166003D01*
X372989Y166042D01*
Y185176D01*
X372993Y185215D01*
X373004Y185253D01*
X373023Y185288D01*
X373048Y185318D01*
X373078Y185343D01*
X373113Y185362D01*
X373151Y185373D01*
X373190Y185377D01*
X383328D01*
X383367Y185373D01*
D02*
G37*
G36*
X371655D02*
X371692Y185362D01*
X371727Y185343D01*
X371757Y185318D01*
X371782Y185288D01*
X371801Y185253D01*
X371812Y185215D01*
X371816Y185176D01*
Y166042D01*
X371812Y166003D01*
X371801Y165965D01*
X371782Y165931D01*
X371757Y165900D01*
X371727Y165875D01*
X371692Y165857D01*
X371655Y165845D01*
X371615Y165841D01*
X368446D01*
X368407Y165845D01*
X368369Y165857D01*
X368334Y165875D01*
X368304Y165900D01*
X368279Y165931D01*
X368260Y165965D01*
X368249Y166003D01*
X368245Y166042D01*
Y168046D01*
X366580D01*
Y166042D01*
X366576Y166003D01*
X366565Y165965D01*
X366546Y165931D01*
X366521Y165900D01*
X366491Y165875D01*
X366456Y165857D01*
X366418Y165845D01*
X366379Y165841D01*
X363426D01*
X363387Y165845D01*
X363349Y165857D01*
X363315Y165875D01*
X363284Y165900D01*
X363259Y165931D01*
X363241Y165965D01*
X363229Y166003D01*
X363225Y166042D01*
Y170408D01*
X361477D01*
X361438Y170412D01*
X361401Y170424D01*
X361366Y170442D01*
X361335Y170467D01*
X361310Y170498D01*
X361292Y170532D01*
X361280Y170570D01*
X361277Y170609D01*
Y176121D01*
X361280Y176160D01*
X361292Y176198D01*
X361310Y176233D01*
X361335Y176263D01*
X361366Y176288D01*
X361401Y176307D01*
X361438Y176318D01*
X361477Y176322D01*
X363225D01*
Y179464D01*
X361477D01*
X361438Y179467D01*
X361401Y179479D01*
X361366Y179497D01*
X361335Y179522D01*
X361310Y179553D01*
X361292Y179588D01*
X361280Y179625D01*
X361277Y179665D01*
Y185176D01*
X361280Y185215D01*
X361292Y185253D01*
X361310Y185288D01*
X361335Y185318D01*
X361366Y185343D01*
X361401Y185362D01*
X361438Y185373D01*
X361477Y185377D01*
X371615D01*
X371655Y185373D01*
D02*
G37*
G36*
X257033Y157814D02*
X257071Y157803D01*
X257106Y157784D01*
X257136Y157759D01*
X257161Y157729D01*
X257180Y157694D01*
X257191Y157656D01*
X257195Y157617D01*
Y152105D01*
X257191Y152066D01*
X257180Y152028D01*
X257161Y151994D01*
X257136Y151963D01*
X257106Y151938D01*
X257071Y151920D01*
X257033Y151908D01*
X256994Y151904D01*
X255246D01*
Y148763D01*
X256994D01*
X257033Y148759D01*
X257071Y148748D01*
X257106Y148729D01*
X257136Y148704D01*
X257161Y148674D01*
X257180Y148639D01*
X257191Y148601D01*
X257195Y148562D01*
Y143050D01*
X257191Y143011D01*
X257180Y142973D01*
X257161Y142939D01*
X257136Y142908D01*
X257106Y142883D01*
X257071Y142865D01*
X257033Y142853D01*
X256994Y142849D01*
X255246D01*
Y138483D01*
X255242Y138444D01*
X255231Y138406D01*
X255212Y138372D01*
X255187Y138341D01*
X255157Y138316D01*
X255122Y138298D01*
X255084Y138286D01*
X255045Y138282D01*
X252093D01*
X252053Y138286D01*
X252015Y138298D01*
X251981Y138316D01*
X251950Y138341D01*
X251925Y138372D01*
X251907Y138406D01*
X251895Y138444D01*
X251891Y138483D01*
Y140487D01*
X250226D01*
Y138483D01*
X250223Y138444D01*
X250211Y138406D01*
X250193Y138372D01*
X250168Y138341D01*
X250137Y138316D01*
X250102Y138298D01*
X250065Y138286D01*
X250026Y138282D01*
X246856D01*
X246817Y138286D01*
X246779Y138298D01*
X246745Y138316D01*
X246714Y138341D01*
X246689Y138372D01*
X246671Y138406D01*
X246659Y138444D01*
X246655Y138483D01*
Y157617D01*
X246659Y157656D01*
X246671Y157694D01*
X246689Y157729D01*
X246714Y157759D01*
X246745Y157784D01*
X246779Y157803D01*
X246817Y157814D01*
X246856Y157818D01*
X256994D01*
X257033Y157814D01*
D02*
G37*
G36*
X245321D02*
X245358Y157803D01*
X245393Y157784D01*
X245424Y157759D01*
X245448Y157729D01*
X245467Y157694D01*
X245479Y157656D01*
X245482Y157617D01*
Y138483D01*
X245479Y138444D01*
X245467Y138406D01*
X245448Y138372D01*
X245424Y138341D01*
X245393Y138316D01*
X245358Y138298D01*
X245321Y138286D01*
X245281Y138282D01*
X242112D01*
X242073Y138286D01*
X242035Y138298D01*
X242001Y138316D01*
X241970Y138341D01*
X241945Y138372D01*
X241927Y138406D01*
X241915Y138444D01*
X241911Y138483D01*
Y140487D01*
X240246D01*
Y138483D01*
X240242Y138444D01*
X240231Y138406D01*
X240212Y138372D01*
X240187Y138341D01*
X240157Y138316D01*
X240122Y138298D01*
X240084Y138286D01*
X240045Y138282D01*
X237092D01*
X237053Y138286D01*
X237016Y138298D01*
X236981Y138316D01*
X236950Y138341D01*
X236925Y138372D01*
X236907Y138406D01*
X236895Y138444D01*
X236892Y138483D01*
Y142849D01*
X235144D01*
X235104Y142853D01*
X235067Y142865D01*
X235032Y142883D01*
X235001Y142908D01*
X234977Y142939D01*
X234958Y142973D01*
X234946Y143011D01*
X234943Y143050D01*
Y148562D01*
X234946Y148601D01*
X234958Y148639D01*
X234977Y148674D01*
X235001Y148704D01*
X235032Y148729D01*
X235067Y148748D01*
X235104Y148759D01*
X235144Y148763D01*
X236892D01*
Y151904D01*
X235144D01*
X235104Y151908D01*
X235067Y151920D01*
X235032Y151938D01*
X235001Y151963D01*
X234977Y151994D01*
X234958Y152028D01*
X234946Y152066D01*
X234943Y152105D01*
Y157617D01*
X234946Y157656D01*
X234958Y157694D01*
X234977Y157729D01*
X235001Y157759D01*
X235032Y157784D01*
X235067Y157803D01*
X235104Y157814D01*
X235144Y157818D01*
X245281D01*
X245321Y157814D01*
D02*
G37*
G36*
X219784D02*
X219822Y157803D01*
X219857Y157784D01*
X219887Y157759D01*
X219912Y157729D01*
X219931Y157694D01*
X219942Y157656D01*
X219946Y157617D01*
Y152105D01*
X219942Y152066D01*
X219931Y152028D01*
X219912Y151994D01*
X219887Y151963D01*
X219857Y151938D01*
X219822Y151920D01*
X219784Y151908D01*
X219745Y151904D01*
X217997D01*
Y148763D01*
X219745D01*
X219784Y148759D01*
X219822Y148748D01*
X219857Y148729D01*
X219887Y148704D01*
X219912Y148674D01*
X219931Y148639D01*
X219942Y148601D01*
X219946Y148562D01*
Y143050D01*
X219942Y143011D01*
X219931Y142973D01*
X219912Y142939D01*
X219887Y142908D01*
X219857Y142883D01*
X219822Y142865D01*
X219784Y142853D01*
X219745Y142849D01*
X217997D01*
Y138483D01*
X217993Y138444D01*
X217982Y138406D01*
X217964Y138372D01*
X217938Y138341D01*
X217908Y138316D01*
X217873Y138298D01*
X217836Y138286D01*
X217796Y138282D01*
X214844D01*
X214804Y138286D01*
X214767Y138298D01*
X214732Y138316D01*
X214702Y138341D01*
X214677Y138372D01*
X214658Y138406D01*
X214647Y138444D01*
X214643Y138483D01*
Y140487D01*
X212978D01*
Y138483D01*
X212974Y138444D01*
X212962Y138406D01*
X212944Y138372D01*
X212919Y138341D01*
X212888Y138316D01*
X212854Y138298D01*
X212816Y138286D01*
X212777Y138282D01*
X209607D01*
X209568Y138286D01*
X209530Y138298D01*
X209496Y138316D01*
X209465Y138341D01*
X209440Y138372D01*
X209422Y138406D01*
X209410Y138444D01*
X209406Y138483D01*
Y157617D01*
X209410Y157656D01*
X209422Y157694D01*
X209440Y157729D01*
X209465Y157759D01*
X209496Y157784D01*
X209530Y157803D01*
X209568Y157814D01*
X209607Y157818D01*
X219745D01*
X219784Y157814D01*
D02*
G37*
G36*
X208072D02*
X208109Y157803D01*
X208144Y157784D01*
X208175Y157759D01*
X208200Y157729D01*
X208218Y157694D01*
X208230Y157656D01*
X208234Y157617D01*
Y138483D01*
X208230Y138444D01*
X208218Y138406D01*
X208200Y138372D01*
X208175Y138341D01*
X208144Y138316D01*
X208109Y138298D01*
X208072Y138286D01*
X208033Y138282D01*
X204863D01*
X204824Y138286D01*
X204786Y138298D01*
X204752Y138316D01*
X204721Y138341D01*
X204696Y138372D01*
X204678Y138406D01*
X204666Y138444D01*
X204662Y138483D01*
Y140487D01*
X202997D01*
Y138483D01*
X202993Y138444D01*
X202982Y138406D01*
X202963Y138372D01*
X202939Y138341D01*
X202908Y138316D01*
X202873Y138298D01*
X202836Y138286D01*
X202796Y138282D01*
X199844D01*
X199804Y138286D01*
X199767Y138298D01*
X199732Y138316D01*
X199701Y138341D01*
X199677Y138372D01*
X199658Y138406D01*
X199647Y138444D01*
X199643Y138483D01*
Y142849D01*
X197895D01*
X197856Y142853D01*
X197818Y142865D01*
X197783Y142883D01*
X197753Y142908D01*
X197728Y142939D01*
X197709Y142973D01*
X197698Y143011D01*
X197694Y143050D01*
Y148562D01*
X197698Y148601D01*
X197709Y148639D01*
X197728Y148674D01*
X197753Y148704D01*
X197783Y148729D01*
X197818Y148748D01*
X197856Y148759D01*
X197895Y148763D01*
X199643D01*
Y151904D01*
X197895D01*
X197856Y151908D01*
X197818Y151920D01*
X197783Y151938D01*
X197753Y151963D01*
X197728Y151994D01*
X197709Y152028D01*
X197698Y152066D01*
X197694Y152105D01*
Y157617D01*
X197698Y157656D01*
X197709Y157694D01*
X197728Y157729D01*
X197753Y157759D01*
X197783Y157784D01*
X197818Y157803D01*
X197856Y157814D01*
X197895Y157818D01*
X208033D01*
X208072Y157814D01*
D02*
G37*
G36*
X665272Y157718D02*
X665309Y157707D01*
X665344Y157688D01*
X665374Y157663D01*
X665399Y157633D01*
X665418Y157598D01*
X665429Y157560D01*
X665433Y157521D01*
Y152009D01*
X665429Y151970D01*
X665418Y151933D01*
X665399Y151898D01*
X665374Y151867D01*
X665344Y151842D01*
X665309Y151824D01*
X665272Y151812D01*
X665232Y151808D01*
X663484D01*
Y148667D01*
X665232D01*
X665272Y148663D01*
X665309Y148652D01*
X665344Y148633D01*
X665374Y148608D01*
X665399Y148578D01*
X665418Y148543D01*
X665429Y148505D01*
X665433Y148466D01*
Y142954D01*
X665429Y142915D01*
X665418Y142877D01*
X665399Y142843D01*
X665374Y142812D01*
X665344Y142787D01*
X665309Y142769D01*
X665272Y142757D01*
X665232Y142753D01*
X663484D01*
Y138387D01*
X663481Y138348D01*
X663469Y138311D01*
X663450Y138276D01*
X663425Y138245D01*
X663395Y138220D01*
X663360Y138202D01*
X663323Y138190D01*
X663283Y138186D01*
X660331D01*
X660291Y138190D01*
X660254Y138202D01*
X660219Y138220D01*
X660189Y138245D01*
X660164Y138276D01*
X660145Y138311D01*
X660134Y138348D01*
X660130Y138387D01*
Y140391D01*
X658465D01*
Y138387D01*
X658461Y138348D01*
X658449Y138311D01*
X658431Y138276D01*
X658406Y138245D01*
X658375Y138220D01*
X658341Y138202D01*
X658303Y138190D01*
X658264Y138186D01*
X655094D01*
X655055Y138190D01*
X655018Y138202D01*
X654983Y138220D01*
X654952Y138245D01*
X654927Y138276D01*
X654909Y138311D01*
X654897Y138348D01*
X654893Y138387D01*
Y157521D01*
X654897Y157560D01*
X654909Y157598D01*
X654927Y157633D01*
X654952Y157663D01*
X654983Y157688D01*
X655018Y157707D01*
X655055Y157718D01*
X655094Y157722D01*
X665232D01*
X665272Y157718D01*
D02*
G37*
G36*
X653559D02*
X653597Y157707D01*
X653631Y157688D01*
X653662Y157663D01*
X653687Y157633D01*
X653705Y157598D01*
X653717Y157560D01*
X653721Y157521D01*
Y138387D01*
X653717Y138348D01*
X653705Y138311D01*
X653687Y138276D01*
X653662Y138245D01*
X653631Y138220D01*
X653597Y138202D01*
X653559Y138190D01*
X653520Y138186D01*
X650350D01*
X650311Y138190D01*
X650273Y138202D01*
X650239Y138220D01*
X650208Y138245D01*
X650183Y138276D01*
X650165Y138311D01*
X650153Y138348D01*
X650149Y138387D01*
Y140391D01*
X648484D01*
Y138387D01*
X648481Y138348D01*
X648469Y138311D01*
X648451Y138276D01*
X648425Y138245D01*
X648395Y138220D01*
X648360Y138202D01*
X648323Y138190D01*
X648283Y138186D01*
X645331D01*
X645292Y138190D01*
X645254Y138202D01*
X645219Y138220D01*
X645189Y138245D01*
X645164Y138276D01*
X645145Y138311D01*
X645134Y138348D01*
X645130Y138387D01*
Y142753D01*
X643382D01*
X643343Y142757D01*
X643305Y142769D01*
X643270Y142787D01*
X643240Y142812D01*
X643215Y142843D01*
X643196Y142877D01*
X643185Y142915D01*
X643181Y142954D01*
Y148466D01*
X643185Y148505D01*
X643196Y148543D01*
X643215Y148578D01*
X643240Y148608D01*
X643270Y148633D01*
X643305Y148652D01*
X643343Y148663D01*
X643382Y148667D01*
X645130D01*
Y151808D01*
X643382D01*
X643343Y151812D01*
X643305Y151824D01*
X643270Y151842D01*
X643240Y151867D01*
X643215Y151898D01*
X643196Y151933D01*
X643185Y151970D01*
X643181Y152009D01*
Y157521D01*
X643185Y157560D01*
X643196Y157598D01*
X643215Y157633D01*
X643240Y157663D01*
X643270Y157688D01*
X643305Y157707D01*
X643343Y157718D01*
X643382Y157722D01*
X653520D01*
X653559Y157718D01*
D02*
G37*
G36*
X628023D02*
X628060Y157707D01*
X628095Y157688D01*
X628126Y157663D01*
X628151Y157633D01*
X628169Y157598D01*
X628181Y157560D01*
X628184Y157521D01*
Y152009D01*
X628181Y151970D01*
X628169Y151933D01*
X628151Y151898D01*
X628126Y151867D01*
X628095Y151842D01*
X628060Y151824D01*
X628023Y151812D01*
X627983Y151808D01*
X626236D01*
Y148667D01*
X627983D01*
X628023Y148663D01*
X628060Y148652D01*
X628095Y148633D01*
X628126Y148608D01*
X628151Y148578D01*
X628169Y148543D01*
X628181Y148505D01*
X628184Y148466D01*
Y142954D01*
X628181Y142915D01*
X628169Y142877D01*
X628151Y142843D01*
X628126Y142812D01*
X628095Y142787D01*
X628060Y142769D01*
X628023Y142757D01*
X627983Y142753D01*
X626236D01*
Y138387D01*
X626232Y138348D01*
X626220Y138311D01*
X626202Y138276D01*
X626177Y138245D01*
X626146Y138220D01*
X626112Y138202D01*
X626074Y138190D01*
X626035Y138186D01*
X623082D01*
X623043Y138190D01*
X623005Y138202D01*
X622970Y138220D01*
X622940Y138245D01*
X622915Y138276D01*
X622896Y138311D01*
X622885Y138348D01*
X622881Y138387D01*
Y140391D01*
X621216D01*
Y138387D01*
X621212Y138348D01*
X621201Y138311D01*
X621182Y138276D01*
X621157Y138245D01*
X621127Y138220D01*
X621092Y138202D01*
X621054Y138190D01*
X621015Y138186D01*
X617846D01*
X617806Y138190D01*
X617769Y138202D01*
X617734Y138220D01*
X617703Y138245D01*
X617678Y138276D01*
X617660Y138311D01*
X617649Y138348D01*
X617645Y138387D01*
Y157521D01*
X617649Y157560D01*
X617660Y157598D01*
X617678Y157633D01*
X617703Y157663D01*
X617734Y157688D01*
X617769Y157707D01*
X617806Y157718D01*
X617846Y157722D01*
X627983D01*
X628023Y157718D01*
D02*
G37*
G36*
X616310D02*
X616348Y157707D01*
X616383Y157688D01*
X616413Y157663D01*
X616438Y157633D01*
X616457Y157598D01*
X616468Y157560D01*
X616472Y157521D01*
Y138387D01*
X616468Y138348D01*
X616457Y138311D01*
X616438Y138276D01*
X616413Y138245D01*
X616383Y138220D01*
X616348Y138202D01*
X616310Y138190D01*
X616271Y138186D01*
X613102D01*
X613062Y138190D01*
X613025Y138202D01*
X612990Y138220D01*
X612959Y138245D01*
X612934Y138276D01*
X612916Y138311D01*
X612904Y138348D01*
X612901Y138387D01*
Y140391D01*
X611236D01*
Y138387D01*
X611232Y138348D01*
X611220Y138311D01*
X611202Y138276D01*
X611177Y138245D01*
X611146Y138220D01*
X611111Y138202D01*
X611074Y138190D01*
X611035Y138186D01*
X608082D01*
X608043Y138190D01*
X608005Y138202D01*
X607970Y138220D01*
X607940Y138245D01*
X607915Y138276D01*
X607896Y138311D01*
X607885Y138348D01*
X607881Y138387D01*
Y142753D01*
X606133D01*
X606094Y142757D01*
X606056Y142769D01*
X606021Y142787D01*
X605991Y142812D01*
X605966Y142843D01*
X605947Y142877D01*
X605936Y142915D01*
X605932Y142954D01*
Y148466D01*
X605936Y148505D01*
X605947Y148543D01*
X605966Y148578D01*
X605991Y148608D01*
X606021Y148633D01*
X606056Y148652D01*
X606094Y148663D01*
X606133Y148667D01*
X607881D01*
Y151808D01*
X606133D01*
X606094Y151812D01*
X606056Y151824D01*
X606021Y151842D01*
X605991Y151867D01*
X605966Y151898D01*
X605947Y151933D01*
X605936Y151970D01*
X605932Y152009D01*
Y157521D01*
X605936Y157560D01*
X605947Y157598D01*
X605966Y157633D01*
X605991Y157663D01*
X606021Y157688D01*
X606056Y157707D01*
X606094Y157718D01*
X606133Y157722D01*
X616271D01*
X616310Y157718D01*
D02*
G37*
G36*
X583972D02*
X584009Y157707D01*
X584044Y157688D01*
X584074Y157663D01*
X584099Y157633D01*
X584118Y157598D01*
X584129Y157560D01*
X584133Y157521D01*
Y152009D01*
X584129Y151970D01*
X584118Y151933D01*
X584099Y151898D01*
X584074Y151867D01*
X584044Y151842D01*
X584009Y151824D01*
X583972Y151812D01*
X583932Y151808D01*
X582184D01*
Y148667D01*
X583932D01*
X583972Y148663D01*
X584009Y148652D01*
X584044Y148633D01*
X584074Y148608D01*
X584099Y148578D01*
X584118Y148543D01*
X584129Y148505D01*
X584133Y148466D01*
Y142954D01*
X584129Y142915D01*
X584118Y142877D01*
X584099Y142843D01*
X584074Y142812D01*
X584044Y142787D01*
X584009Y142769D01*
X583972Y142757D01*
X583932Y142753D01*
X582184D01*
Y138387D01*
X582181Y138348D01*
X582169Y138311D01*
X582151Y138276D01*
X582126Y138245D01*
X582095Y138220D01*
X582060Y138202D01*
X582023Y138190D01*
X581983Y138186D01*
X579031D01*
X578992Y138190D01*
X578954Y138202D01*
X578919Y138220D01*
X578889Y138245D01*
X578864Y138276D01*
X578845Y138311D01*
X578834Y138348D01*
X578830Y138387D01*
Y140391D01*
X577165D01*
Y138387D01*
X577161Y138348D01*
X577149Y138311D01*
X577131Y138276D01*
X577106Y138245D01*
X577075Y138220D01*
X577041Y138202D01*
X577003Y138190D01*
X576964Y138186D01*
X573794D01*
X573755Y138190D01*
X573717Y138202D01*
X573683Y138220D01*
X573652Y138245D01*
X573627Y138276D01*
X573609Y138311D01*
X573597Y138348D01*
X573594Y138387D01*
Y157521D01*
X573597Y157560D01*
X573609Y157598D01*
X573627Y157633D01*
X573652Y157663D01*
X573683Y157688D01*
X573717Y157707D01*
X573755Y157718D01*
X573794Y157722D01*
X583932D01*
X583972Y157718D01*
D02*
G37*
G36*
X572259D02*
X572297Y157707D01*
X572331Y157688D01*
X572362Y157663D01*
X572387Y157633D01*
X572405Y157598D01*
X572417Y157560D01*
X572421Y157521D01*
Y138387D01*
X572417Y138348D01*
X572405Y138311D01*
X572387Y138276D01*
X572362Y138245D01*
X572331Y138220D01*
X572297Y138202D01*
X572259Y138190D01*
X572220Y138186D01*
X569050D01*
X569011Y138190D01*
X568973Y138202D01*
X568939Y138220D01*
X568908Y138245D01*
X568883Y138276D01*
X568865Y138311D01*
X568853Y138348D01*
X568849Y138387D01*
Y140391D01*
X567184D01*
Y138387D01*
X567180Y138348D01*
X567169Y138311D01*
X567150Y138276D01*
X567126Y138245D01*
X567095Y138220D01*
X567060Y138202D01*
X567023Y138190D01*
X566983Y138186D01*
X564031D01*
X563991Y138190D01*
X563954Y138202D01*
X563919Y138220D01*
X563889Y138245D01*
X563864Y138276D01*
X563845Y138311D01*
X563834Y138348D01*
X563830Y138387D01*
Y142753D01*
X562082D01*
X562043Y142757D01*
X562005Y142769D01*
X561970Y142787D01*
X561940Y142812D01*
X561915Y142843D01*
X561896Y142877D01*
X561885Y142915D01*
X561881Y142954D01*
Y148466D01*
X561885Y148505D01*
X561896Y148543D01*
X561915Y148578D01*
X561940Y148608D01*
X561970Y148633D01*
X562005Y148652D01*
X562043Y148663D01*
X562082Y148667D01*
X563830D01*
Y151808D01*
X562082D01*
X562043Y151812D01*
X562005Y151824D01*
X561970Y151842D01*
X561940Y151867D01*
X561915Y151898D01*
X561896Y151933D01*
X561885Y151970D01*
X561881Y152009D01*
Y157521D01*
X561885Y157560D01*
X561896Y157598D01*
X561915Y157633D01*
X561940Y157663D01*
X561970Y157688D01*
X562005Y157707D01*
X562043Y157718D01*
X562082Y157722D01*
X572220D01*
X572259Y157718D01*
D02*
G37*
G36*
X546723D02*
X546760Y157707D01*
X546795Y157688D01*
X546826Y157663D01*
X546851Y157633D01*
X546869Y157598D01*
X546881Y157560D01*
X546884Y157521D01*
Y152009D01*
X546881Y151970D01*
X546869Y151933D01*
X546851Y151898D01*
X546826Y151867D01*
X546795Y151842D01*
X546760Y151824D01*
X546723Y151812D01*
X546683Y151808D01*
X544936D01*
Y148667D01*
X546683D01*
X546723Y148663D01*
X546760Y148652D01*
X546795Y148633D01*
X546826Y148608D01*
X546851Y148578D01*
X546869Y148543D01*
X546881Y148505D01*
X546884Y148466D01*
Y142954D01*
X546881Y142915D01*
X546869Y142877D01*
X546851Y142843D01*
X546826Y142812D01*
X546795Y142787D01*
X546760Y142769D01*
X546723Y142757D01*
X546683Y142753D01*
X544936D01*
Y138387D01*
X544932Y138348D01*
X544920Y138311D01*
X544902Y138276D01*
X544877Y138245D01*
X544846Y138220D01*
X544811Y138202D01*
X544774Y138190D01*
X544735Y138186D01*
X541782D01*
X541743Y138190D01*
X541705Y138202D01*
X541670Y138220D01*
X541640Y138245D01*
X541615Y138276D01*
X541596Y138311D01*
X541585Y138348D01*
X541581Y138387D01*
Y140391D01*
X539916D01*
Y138387D01*
X539912Y138348D01*
X539901Y138311D01*
X539882Y138276D01*
X539857Y138245D01*
X539827Y138220D01*
X539792Y138202D01*
X539754Y138190D01*
X539715Y138186D01*
X536546D01*
X536506Y138190D01*
X536469Y138202D01*
X536434Y138220D01*
X536404Y138245D01*
X536378Y138276D01*
X536360Y138311D01*
X536348Y138348D01*
X536345Y138387D01*
Y157521D01*
X536348Y157560D01*
X536360Y157598D01*
X536378Y157633D01*
X536404Y157663D01*
X536434Y157688D01*
X536469Y157707D01*
X536506Y157718D01*
X536546Y157722D01*
X546683D01*
X546723Y157718D01*
D02*
G37*
G36*
X535010D02*
X535048Y157707D01*
X535082Y157688D01*
X535113Y157663D01*
X535138Y157633D01*
X535156Y157598D01*
X535168Y157560D01*
X535172Y157521D01*
Y138387D01*
X535168Y138348D01*
X535156Y138311D01*
X535138Y138276D01*
X535113Y138245D01*
X535082Y138220D01*
X535048Y138202D01*
X535010Y138190D01*
X534971Y138186D01*
X531802D01*
X531762Y138190D01*
X531725Y138202D01*
X531690Y138220D01*
X531660Y138245D01*
X531635Y138276D01*
X531616Y138311D01*
X531604Y138348D01*
X531601Y138387D01*
Y140391D01*
X529936D01*
Y138387D01*
X529932Y138348D01*
X529920Y138311D01*
X529902Y138276D01*
X529877Y138245D01*
X529846Y138220D01*
X529811Y138202D01*
X529774Y138190D01*
X529735Y138186D01*
X526782D01*
X526743Y138190D01*
X526705Y138202D01*
X526670Y138220D01*
X526640Y138245D01*
X526615Y138276D01*
X526596Y138311D01*
X526585Y138348D01*
X526581Y138387D01*
Y142753D01*
X524833D01*
X524794Y142757D01*
X524756Y142769D01*
X524721Y142787D01*
X524691Y142812D01*
X524666Y142843D01*
X524647Y142877D01*
X524636Y142915D01*
X524632Y142954D01*
Y148466D01*
X524636Y148505D01*
X524647Y148543D01*
X524666Y148578D01*
X524691Y148608D01*
X524721Y148633D01*
X524756Y148652D01*
X524794Y148663D01*
X524833Y148667D01*
X526581D01*
Y151808D01*
X524833D01*
X524794Y151812D01*
X524756Y151824D01*
X524721Y151842D01*
X524691Y151867D01*
X524666Y151898D01*
X524647Y151933D01*
X524636Y151970D01*
X524632Y152009D01*
Y157521D01*
X524636Y157560D01*
X524647Y157598D01*
X524666Y157633D01*
X524691Y157663D01*
X524721Y157688D01*
X524756Y157707D01*
X524794Y157718D01*
X524833Y157722D01*
X534971D01*
X535010Y157718D01*
D02*
G37*
G36*
X502671D02*
X502709Y157707D01*
X502744Y157688D01*
X502774Y157663D01*
X502799Y157633D01*
X502818Y157598D01*
X502829Y157560D01*
X502833Y157521D01*
Y152009D01*
X502829Y151970D01*
X502818Y151933D01*
X502799Y151898D01*
X502774Y151867D01*
X502744Y151842D01*
X502709Y151824D01*
X502671Y151812D01*
X502632Y151808D01*
X500884D01*
Y148667D01*
X502632D01*
X502671Y148663D01*
X502709Y148652D01*
X502744Y148633D01*
X502774Y148608D01*
X502799Y148578D01*
X502818Y148543D01*
X502829Y148505D01*
X502833Y148466D01*
Y142954D01*
X502829Y142915D01*
X502818Y142877D01*
X502799Y142843D01*
X502774Y142812D01*
X502744Y142787D01*
X502709Y142769D01*
X502671Y142757D01*
X502632Y142753D01*
X500884D01*
Y138387D01*
X500880Y138348D01*
X500869Y138311D01*
X500850Y138276D01*
X500826Y138245D01*
X500795Y138220D01*
X500760Y138202D01*
X500723Y138190D01*
X500683Y138186D01*
X497731D01*
X497691Y138190D01*
X497654Y138202D01*
X497619Y138220D01*
X497589Y138245D01*
X497564Y138276D01*
X497545Y138311D01*
X497534Y138348D01*
X497530Y138387D01*
Y140391D01*
X495865D01*
Y138387D01*
X495861Y138348D01*
X495849Y138311D01*
X495831Y138276D01*
X495806Y138245D01*
X495775Y138220D01*
X495741Y138202D01*
X495703Y138190D01*
X495664Y138186D01*
X492494D01*
X492455Y138190D01*
X492417Y138202D01*
X492383Y138220D01*
X492352Y138245D01*
X492327Y138276D01*
X492309Y138311D01*
X492297Y138348D01*
X492294Y138387D01*
Y157521D01*
X492297Y157560D01*
X492309Y157598D01*
X492327Y157633D01*
X492352Y157663D01*
X492383Y157688D01*
X492417Y157707D01*
X492455Y157718D01*
X492494Y157722D01*
X502632D01*
X502671Y157718D01*
D02*
G37*
G36*
X490959D02*
X490997Y157707D01*
X491031Y157688D01*
X491062Y157663D01*
X491087Y157633D01*
X491105Y157598D01*
X491117Y157560D01*
X491121Y157521D01*
Y138387D01*
X491117Y138348D01*
X491105Y138311D01*
X491087Y138276D01*
X491062Y138245D01*
X491031Y138220D01*
X490997Y138202D01*
X490959Y138190D01*
X490920Y138186D01*
X487750D01*
X487711Y138190D01*
X487673Y138202D01*
X487639Y138220D01*
X487608Y138245D01*
X487583Y138276D01*
X487565Y138311D01*
X487553Y138348D01*
X487549Y138387D01*
Y140391D01*
X485884D01*
Y138387D01*
X485881Y138348D01*
X485869Y138311D01*
X485850Y138276D01*
X485825Y138245D01*
X485795Y138220D01*
X485760Y138202D01*
X485723Y138190D01*
X485683Y138186D01*
X482731D01*
X482691Y138190D01*
X482654Y138202D01*
X482619Y138220D01*
X482589Y138245D01*
X482564Y138276D01*
X482545Y138311D01*
X482534Y138348D01*
X482530Y138387D01*
Y142753D01*
X480782D01*
X480743Y142757D01*
X480705Y142769D01*
X480670Y142787D01*
X480640Y142812D01*
X480615Y142843D01*
X480596Y142877D01*
X480585Y142915D01*
X480581Y142954D01*
Y148466D01*
X480585Y148505D01*
X480596Y148543D01*
X480615Y148578D01*
X480640Y148608D01*
X480670Y148633D01*
X480705Y148652D01*
X480743Y148663D01*
X480782Y148667D01*
X482530D01*
Y151808D01*
X480782D01*
X480743Y151812D01*
X480705Y151824D01*
X480670Y151842D01*
X480640Y151867D01*
X480615Y151898D01*
X480596Y151933D01*
X480585Y151970D01*
X480581Y152009D01*
Y157521D01*
X480585Y157560D01*
X480596Y157598D01*
X480615Y157633D01*
X480640Y157663D01*
X480670Y157688D01*
X480705Y157707D01*
X480743Y157718D01*
X480782Y157722D01*
X490920D01*
X490959Y157718D01*
D02*
G37*
G36*
X465423D02*
X465460Y157707D01*
X465495Y157688D01*
X465526Y157663D01*
X465551Y157633D01*
X465569Y157598D01*
X465581Y157560D01*
X465584Y157521D01*
Y152009D01*
X465581Y151970D01*
X465569Y151933D01*
X465551Y151898D01*
X465526Y151867D01*
X465495Y151842D01*
X465460Y151824D01*
X465423Y151812D01*
X465383Y151808D01*
X463636D01*
Y148667D01*
X465383D01*
X465423Y148663D01*
X465460Y148652D01*
X465495Y148633D01*
X465526Y148608D01*
X465551Y148578D01*
X465569Y148543D01*
X465581Y148505D01*
X465584Y148466D01*
Y142954D01*
X465581Y142915D01*
X465569Y142877D01*
X465551Y142843D01*
X465526Y142812D01*
X465495Y142787D01*
X465460Y142769D01*
X465423Y142757D01*
X465383Y142753D01*
X463636D01*
Y138387D01*
X463632Y138348D01*
X463620Y138311D01*
X463602Y138276D01*
X463577Y138245D01*
X463546Y138220D01*
X463512Y138202D01*
X463474Y138190D01*
X463435Y138186D01*
X460482D01*
X460443Y138190D01*
X460405Y138202D01*
X460370Y138220D01*
X460340Y138245D01*
X460315Y138276D01*
X460296Y138311D01*
X460285Y138348D01*
X460281Y138387D01*
Y140391D01*
X458616D01*
Y138387D01*
X458612Y138348D01*
X458601Y138311D01*
X458582Y138276D01*
X458557Y138245D01*
X458527Y138220D01*
X458492Y138202D01*
X458454Y138190D01*
X458415Y138186D01*
X455246D01*
X455206Y138190D01*
X455169Y138202D01*
X455134Y138220D01*
X455103Y138245D01*
X455079Y138276D01*
X455060Y138311D01*
X455049Y138348D01*
X455045Y138387D01*
Y157521D01*
X455049Y157560D01*
X455060Y157598D01*
X455079Y157633D01*
X455103Y157663D01*
X455134Y157688D01*
X455169Y157707D01*
X455206Y157718D01*
X455246Y157722D01*
X465383D01*
X465423Y157718D01*
D02*
G37*
G36*
X453710D02*
X453748Y157707D01*
X453783Y157688D01*
X453813Y157663D01*
X453838Y157633D01*
X453857Y157598D01*
X453868Y157560D01*
X453872Y157521D01*
Y138387D01*
X453868Y138348D01*
X453857Y138311D01*
X453838Y138276D01*
X453813Y138245D01*
X453783Y138220D01*
X453748Y138202D01*
X453710Y138190D01*
X453671Y138186D01*
X450502D01*
X450462Y138190D01*
X450425Y138202D01*
X450390Y138220D01*
X450359Y138245D01*
X450335Y138276D01*
X450316Y138311D01*
X450304Y138348D01*
X450301Y138387D01*
Y140391D01*
X448636D01*
Y138387D01*
X448632Y138348D01*
X448620Y138311D01*
X448602Y138276D01*
X448577Y138245D01*
X448546Y138220D01*
X448512Y138202D01*
X448474Y138190D01*
X448435Y138186D01*
X445482D01*
X445443Y138190D01*
X445405Y138202D01*
X445370Y138220D01*
X445340Y138245D01*
X445315Y138276D01*
X445296Y138311D01*
X445285Y138348D01*
X445281Y138387D01*
Y142753D01*
X443533D01*
X443494Y142757D01*
X443456Y142769D01*
X443421Y142787D01*
X443391Y142812D01*
X443366Y142843D01*
X443347Y142877D01*
X443336Y142915D01*
X443332Y142954D01*
Y148466D01*
X443336Y148505D01*
X443347Y148543D01*
X443366Y148578D01*
X443391Y148608D01*
X443421Y148633D01*
X443456Y148652D01*
X443494Y148663D01*
X443533Y148667D01*
X445281D01*
Y151808D01*
X443533D01*
X443494Y151812D01*
X443456Y151824D01*
X443421Y151842D01*
X443391Y151867D01*
X443366Y151898D01*
X443347Y151933D01*
X443336Y151970D01*
X443332Y152009D01*
Y157521D01*
X443336Y157560D01*
X443347Y157598D01*
X443366Y157633D01*
X443391Y157663D01*
X443421Y157688D01*
X443456Y157707D01*
X443494Y157718D01*
X443533Y157722D01*
X453671D01*
X453710Y157718D01*
D02*
G37*
G36*
X339089D02*
X339126Y157707D01*
X339161Y157688D01*
X339192Y157663D01*
X339217Y157633D01*
X339235Y157598D01*
X339247Y157560D01*
X339250Y157521D01*
Y152009D01*
X339247Y151970D01*
X339235Y151933D01*
X339217Y151898D01*
X339192Y151867D01*
X339161Y151842D01*
X339126Y151824D01*
X339089Y151812D01*
X339050Y151808D01*
X337302D01*
Y148667D01*
X339050D01*
X339089Y148663D01*
X339126Y148652D01*
X339161Y148633D01*
X339192Y148608D01*
X339217Y148578D01*
X339235Y148543D01*
X339247Y148505D01*
X339250Y148466D01*
Y142954D01*
X339247Y142915D01*
X339235Y142877D01*
X339217Y142843D01*
X339192Y142812D01*
X339161Y142787D01*
X339126Y142769D01*
X339089Y142757D01*
X339050Y142753D01*
X337302D01*
Y138387D01*
X337298Y138348D01*
X337286Y138311D01*
X337268Y138276D01*
X337243Y138245D01*
X337212Y138220D01*
X337178Y138202D01*
X337140Y138190D01*
X337101Y138186D01*
X334148D01*
X334109Y138190D01*
X334071Y138202D01*
X334036Y138220D01*
X334006Y138245D01*
X333981Y138276D01*
X333962Y138311D01*
X333951Y138348D01*
X333947Y138387D01*
Y140391D01*
X332282D01*
Y138387D01*
X332278Y138348D01*
X332267Y138311D01*
X332248Y138276D01*
X332223Y138245D01*
X332193Y138220D01*
X332158Y138202D01*
X332120Y138190D01*
X332081Y138186D01*
X328912D01*
X328873Y138190D01*
X328835Y138202D01*
X328800Y138220D01*
X328770Y138245D01*
X328745Y138276D01*
X328726Y138311D01*
X328715Y138348D01*
X328711Y138387D01*
Y157521D01*
X328715Y157560D01*
X328726Y157598D01*
X328745Y157633D01*
X328770Y157663D01*
X328800Y157688D01*
X328835Y157707D01*
X328873Y157718D01*
X328912Y157722D01*
X339050D01*
X339089Y157718D01*
D02*
G37*
G36*
X327376D02*
X327414Y157707D01*
X327449Y157688D01*
X327479Y157663D01*
X327504Y157633D01*
X327523Y157598D01*
X327534Y157560D01*
X327538Y157521D01*
Y138387D01*
X327534Y138348D01*
X327523Y138311D01*
X327504Y138276D01*
X327479Y138245D01*
X327449Y138220D01*
X327414Y138202D01*
X327376Y138190D01*
X327337Y138186D01*
X324168D01*
X324129Y138190D01*
X324091Y138202D01*
X324056Y138220D01*
X324026Y138245D01*
X324001Y138276D01*
X323982Y138311D01*
X323971Y138348D01*
X323967Y138387D01*
Y140391D01*
X322302D01*
Y138387D01*
X322298Y138348D01*
X322286Y138311D01*
X322268Y138276D01*
X322243Y138245D01*
X322212Y138220D01*
X322178Y138202D01*
X322140Y138190D01*
X322101Y138186D01*
X319148D01*
X319109Y138190D01*
X319071Y138202D01*
X319036Y138220D01*
X319006Y138245D01*
X318981Y138276D01*
X318962Y138311D01*
X318951Y138348D01*
X318947Y138387D01*
Y142753D01*
X317199D01*
X317160Y142757D01*
X317122Y142769D01*
X317088Y142787D01*
X317057Y142812D01*
X317032Y142843D01*
X317014Y142877D01*
X317002Y142915D01*
X316998Y142954D01*
Y148466D01*
X317002Y148505D01*
X317014Y148543D01*
X317032Y148578D01*
X317057Y148608D01*
X317088Y148633D01*
X317122Y148652D01*
X317160Y148663D01*
X317199Y148667D01*
X318947D01*
Y151808D01*
X317199D01*
X317160Y151812D01*
X317122Y151824D01*
X317088Y151842D01*
X317057Y151867D01*
X317032Y151898D01*
X317014Y151933D01*
X317002Y151970D01*
X316998Y152009D01*
Y157521D01*
X317002Y157560D01*
X317014Y157598D01*
X317032Y157633D01*
X317057Y157663D01*
X317088Y157688D01*
X317122Y157707D01*
X317160Y157718D01*
X317199Y157722D01*
X327337D01*
X327376Y157718D01*
D02*
G37*
G36*
X301840D02*
X301878Y157707D01*
X301912Y157688D01*
X301943Y157663D01*
X301968Y157633D01*
X301986Y157598D01*
X301998Y157560D01*
X302002Y157521D01*
Y152009D01*
X301998Y151970D01*
X301986Y151933D01*
X301968Y151898D01*
X301943Y151867D01*
X301912Y151842D01*
X301878Y151824D01*
X301840Y151812D01*
X301801Y151808D01*
X300053D01*
Y148667D01*
X301801D01*
X301840Y148663D01*
X301878Y148652D01*
X301912Y148633D01*
X301943Y148608D01*
X301968Y148578D01*
X301986Y148543D01*
X301998Y148505D01*
X302002Y148466D01*
Y142954D01*
X301998Y142915D01*
X301986Y142877D01*
X301968Y142843D01*
X301943Y142812D01*
X301912Y142787D01*
X301878Y142769D01*
X301840Y142757D01*
X301801Y142753D01*
X300053D01*
Y138387D01*
X300049Y138348D01*
X300038Y138311D01*
X300019Y138276D01*
X299994Y138245D01*
X299964Y138220D01*
X299929Y138202D01*
X299891Y138190D01*
X299852Y138186D01*
X296899D01*
X296860Y138190D01*
X296822Y138202D01*
X296788Y138220D01*
X296757Y138245D01*
X296732Y138276D01*
X296713Y138311D01*
X296702Y138348D01*
X296698Y138387D01*
Y140391D01*
X295033D01*
Y138387D01*
X295029Y138348D01*
X295018Y138311D01*
X294999Y138276D01*
X294974Y138245D01*
X294944Y138220D01*
X294909Y138202D01*
X294871Y138190D01*
X294832Y138186D01*
X291663D01*
X291624Y138190D01*
X291586Y138202D01*
X291551Y138220D01*
X291521Y138245D01*
X291496Y138276D01*
X291477Y138311D01*
X291466Y138348D01*
X291462Y138387D01*
Y157521D01*
X291466Y157560D01*
X291477Y157598D01*
X291496Y157633D01*
X291521Y157663D01*
X291551Y157688D01*
X291586Y157707D01*
X291624Y157718D01*
X291663Y157722D01*
X301801D01*
X301840Y157718D01*
D02*
G37*
G36*
X290127D02*
X290165Y157707D01*
X290200Y157688D01*
X290230Y157663D01*
X290255Y157633D01*
X290274Y157598D01*
X290285Y157560D01*
X290289Y157521D01*
Y138387D01*
X290285Y138348D01*
X290274Y138311D01*
X290255Y138276D01*
X290230Y138245D01*
X290200Y138220D01*
X290165Y138202D01*
X290127Y138190D01*
X290088Y138186D01*
X286919D01*
X286880Y138190D01*
X286842Y138202D01*
X286807Y138220D01*
X286777Y138245D01*
X286752Y138276D01*
X286733Y138311D01*
X286722Y138348D01*
X286718Y138387D01*
Y140391D01*
X285053D01*
Y138387D01*
X285049Y138348D01*
X285038Y138311D01*
X285019Y138276D01*
X284994Y138245D01*
X284964Y138220D01*
X284929Y138202D01*
X284891Y138190D01*
X284852Y138186D01*
X281899D01*
X281860Y138190D01*
X281822Y138202D01*
X281787Y138220D01*
X281757Y138245D01*
X281732Y138276D01*
X281714Y138311D01*
X281702Y138348D01*
X281698Y138387D01*
Y142753D01*
X279950D01*
X279911Y142757D01*
X279873Y142769D01*
X279839Y142787D01*
X279808Y142812D01*
X279783Y142843D01*
X279765Y142877D01*
X279753Y142915D01*
X279749Y142954D01*
Y148466D01*
X279753Y148505D01*
X279765Y148543D01*
X279783Y148578D01*
X279808Y148608D01*
X279839Y148633D01*
X279873Y148652D01*
X279911Y148663D01*
X279950Y148667D01*
X281698D01*
Y151808D01*
X279950D01*
X279911Y151812D01*
X279873Y151824D01*
X279839Y151842D01*
X279808Y151867D01*
X279783Y151898D01*
X279765Y151933D01*
X279753Y151970D01*
X279749Y152009D01*
Y157521D01*
X279753Y157560D01*
X279765Y157598D01*
X279783Y157633D01*
X279808Y157663D01*
X279839Y157688D01*
X279873Y157707D01*
X279911Y157718D01*
X279950Y157722D01*
X290088D01*
X290127Y157718D01*
D02*
G37*
G36*
X175506D02*
X175544Y157707D01*
X175578Y157688D01*
X175609Y157663D01*
X175634Y157633D01*
X175653Y157598D01*
X175664Y157560D01*
X175668Y157521D01*
Y152009D01*
X175664Y151970D01*
X175653Y151933D01*
X175634Y151898D01*
X175609Y151867D01*
X175578Y151842D01*
X175544Y151824D01*
X175506Y151812D01*
X175467Y151808D01*
X173719D01*
Y148667D01*
X175467D01*
X175506Y148663D01*
X175544Y148652D01*
X175578Y148633D01*
X175609Y148608D01*
X175634Y148578D01*
X175653Y148543D01*
X175664Y148505D01*
X175668Y148466D01*
Y142954D01*
X175664Y142915D01*
X175653Y142877D01*
X175634Y142843D01*
X175609Y142812D01*
X175578Y142787D01*
X175544Y142769D01*
X175506Y142757D01*
X175467Y142753D01*
X173719D01*
Y138387D01*
X173715Y138348D01*
X173704Y138311D01*
X173685Y138276D01*
X173660Y138245D01*
X173630Y138220D01*
X173595Y138202D01*
X173557Y138190D01*
X173518Y138186D01*
X170565D01*
X170526Y138190D01*
X170488Y138202D01*
X170454Y138220D01*
X170423Y138245D01*
X170398Y138276D01*
X170380Y138311D01*
X170368Y138348D01*
X170364Y138387D01*
Y140391D01*
X168699D01*
Y138387D01*
X168695Y138348D01*
X168684Y138311D01*
X168666Y138276D01*
X168640Y138245D01*
X168610Y138220D01*
X168575Y138202D01*
X168538Y138190D01*
X168498Y138186D01*
X165329D01*
X165290Y138190D01*
X165252Y138202D01*
X165217Y138220D01*
X165187Y138245D01*
X165162Y138276D01*
X165143Y138311D01*
X165132Y138348D01*
X165128Y138387D01*
Y157521D01*
X165132Y157560D01*
X165143Y157598D01*
X165162Y157633D01*
X165187Y157663D01*
X165217Y157688D01*
X165252Y157707D01*
X165290Y157718D01*
X165329Y157722D01*
X175467D01*
X175506Y157718D01*
D02*
G37*
G36*
X163794D02*
X163831Y157707D01*
X163866Y157688D01*
X163896Y157663D01*
X163921Y157633D01*
X163940Y157598D01*
X163951Y157560D01*
X163955Y157521D01*
Y138387D01*
X163951Y138348D01*
X163940Y138311D01*
X163921Y138276D01*
X163896Y138245D01*
X163866Y138220D01*
X163831Y138202D01*
X163794Y138190D01*
X163754Y138186D01*
X160585D01*
X160546Y138190D01*
X160508Y138202D01*
X160473Y138220D01*
X160443Y138245D01*
X160418Y138276D01*
X160399Y138311D01*
X160388Y138348D01*
X160384Y138387D01*
Y140391D01*
X158719D01*
Y138387D01*
X158715Y138348D01*
X158704Y138311D01*
X158685Y138276D01*
X158660Y138245D01*
X158630Y138220D01*
X158595Y138202D01*
X158557Y138190D01*
X158518Y138186D01*
X155565D01*
X155526Y138190D01*
X155488Y138202D01*
X155454Y138220D01*
X155423Y138245D01*
X155398Y138276D01*
X155380Y138311D01*
X155368Y138348D01*
X155364Y138387D01*
Y142753D01*
X153616D01*
X153577Y142757D01*
X153540Y142769D01*
X153505Y142787D01*
X153474Y142812D01*
X153449Y142843D01*
X153431Y142877D01*
X153419Y142915D01*
X153416Y142954D01*
Y148466D01*
X153419Y148505D01*
X153431Y148543D01*
X153449Y148578D01*
X153474Y148608D01*
X153505Y148633D01*
X153540Y148652D01*
X153577Y148663D01*
X153616Y148667D01*
X155364D01*
Y151808D01*
X153616D01*
X153577Y151812D01*
X153540Y151824D01*
X153505Y151842D01*
X153474Y151867D01*
X153449Y151898D01*
X153431Y151933D01*
X153419Y151970D01*
X153416Y152009D01*
Y157521D01*
X153419Y157560D01*
X153431Y157598D01*
X153449Y157633D01*
X153474Y157663D01*
X153505Y157688D01*
X153540Y157707D01*
X153577Y157718D01*
X153616Y157722D01*
X163754D01*
X163794Y157718D01*
D02*
G37*
G36*
X138257D02*
X138295Y157707D01*
X138330Y157688D01*
X138360Y157663D01*
X138385Y157633D01*
X138404Y157598D01*
X138415Y157560D01*
X138419Y157521D01*
Y152009D01*
X138415Y151970D01*
X138404Y151933D01*
X138385Y151898D01*
X138360Y151867D01*
X138330Y151842D01*
X138295Y151824D01*
X138257Y151812D01*
X138218Y151808D01*
X136470D01*
Y148667D01*
X138218D01*
X138257Y148663D01*
X138295Y148652D01*
X138330Y148633D01*
X138360Y148608D01*
X138385Y148578D01*
X138404Y148543D01*
X138415Y148505D01*
X138419Y148466D01*
Y142954D01*
X138415Y142915D01*
X138404Y142877D01*
X138385Y142843D01*
X138360Y142812D01*
X138330Y142787D01*
X138295Y142769D01*
X138257Y142757D01*
X138218Y142753D01*
X136470D01*
Y138387D01*
X136466Y138348D01*
X136455Y138311D01*
X136436Y138276D01*
X136411Y138245D01*
X136381Y138220D01*
X136346Y138202D01*
X136309Y138190D01*
X136269Y138186D01*
X133317D01*
X133277Y138190D01*
X133240Y138202D01*
X133205Y138220D01*
X133174Y138245D01*
X133149Y138276D01*
X133131Y138311D01*
X133119Y138348D01*
X133115Y138387D01*
Y140391D01*
X131450D01*
Y138387D01*
X131447Y138348D01*
X131435Y138311D01*
X131417Y138276D01*
X131392Y138245D01*
X131361Y138220D01*
X131326Y138202D01*
X131289Y138190D01*
X131250Y138186D01*
X128080D01*
X128041Y138190D01*
X128003Y138202D01*
X127969Y138220D01*
X127938Y138245D01*
X127913Y138276D01*
X127895Y138311D01*
X127883Y138348D01*
X127879Y138387D01*
Y157521D01*
X127883Y157560D01*
X127895Y157598D01*
X127913Y157633D01*
X127938Y157663D01*
X127969Y157688D01*
X128003Y157707D01*
X128041Y157718D01*
X128080Y157722D01*
X138218D01*
X138257Y157718D01*
D02*
G37*
G36*
X126545D02*
X126582Y157707D01*
X126617Y157688D01*
X126648Y157663D01*
X126673Y157633D01*
X126691Y157598D01*
X126703Y157560D01*
X126707Y157521D01*
Y138387D01*
X126703Y138348D01*
X126691Y138311D01*
X126673Y138276D01*
X126648Y138245D01*
X126617Y138220D01*
X126582Y138202D01*
X126545Y138190D01*
X126505Y138186D01*
X123336D01*
X123297Y138190D01*
X123259Y138202D01*
X123224Y138220D01*
X123194Y138245D01*
X123169Y138276D01*
X123151Y138311D01*
X123139Y138348D01*
X123135Y138387D01*
Y140391D01*
X121470D01*
Y138387D01*
X121466Y138348D01*
X121455Y138311D01*
X121436Y138276D01*
X121411Y138245D01*
X121381Y138220D01*
X121346Y138202D01*
X121309Y138190D01*
X121269Y138186D01*
X118316D01*
X118277Y138190D01*
X118240Y138202D01*
X118205Y138220D01*
X118174Y138245D01*
X118149Y138276D01*
X118131Y138311D01*
X118119Y138348D01*
X118115Y138387D01*
Y142753D01*
X116368D01*
X116329Y142757D01*
X116291Y142769D01*
X116256Y142787D01*
X116226Y142812D01*
X116201Y142843D01*
X116182Y142877D01*
X116171Y142915D01*
X116167Y142954D01*
Y148466D01*
X116171Y148505D01*
X116182Y148543D01*
X116201Y148578D01*
X116226Y148608D01*
X116256Y148633D01*
X116291Y148652D01*
X116329Y148663D01*
X116368Y148667D01*
X118115D01*
Y151808D01*
X116368D01*
X116329Y151812D01*
X116291Y151824D01*
X116256Y151842D01*
X116226Y151867D01*
X116201Y151898D01*
X116182Y151933D01*
X116171Y151970D01*
X116167Y152009D01*
Y157521D01*
X116171Y157560D01*
X116182Y157598D01*
X116201Y157633D01*
X116226Y157663D01*
X116256Y157688D01*
X116291Y157707D01*
X116329Y157718D01*
X116368Y157722D01*
X126505D01*
X126545Y157718D01*
D02*
G37*
G36*
X93715D02*
X93752Y157707D01*
X93787Y157688D01*
X93818Y157663D01*
X93843Y157633D01*
X93861Y157598D01*
X93873Y157560D01*
X93876Y157521D01*
Y152009D01*
X93873Y151970D01*
X93861Y151933D01*
X93843Y151898D01*
X93818Y151867D01*
X93787Y151842D01*
X93752Y151824D01*
X93715Y151812D01*
X93676Y151808D01*
X91928D01*
Y148667D01*
X93676D01*
X93715Y148663D01*
X93752Y148652D01*
X93787Y148633D01*
X93818Y148608D01*
X93843Y148578D01*
X93861Y148543D01*
X93873Y148505D01*
X93876Y148466D01*
Y142954D01*
X93873Y142915D01*
X93861Y142877D01*
X93843Y142843D01*
X93818Y142812D01*
X93787Y142787D01*
X93752Y142769D01*
X93715Y142757D01*
X93676Y142753D01*
X91928D01*
Y138387D01*
X91924Y138348D01*
X91912Y138311D01*
X91894Y138276D01*
X91869Y138245D01*
X91838Y138220D01*
X91804Y138202D01*
X91766Y138190D01*
X91727Y138186D01*
X88774D01*
X88735Y138190D01*
X88697Y138202D01*
X88662Y138220D01*
X88632Y138245D01*
X88607Y138276D01*
X88588Y138311D01*
X88577Y138348D01*
X88573Y138387D01*
Y140391D01*
X86908D01*
Y138387D01*
X86904Y138348D01*
X86893Y138311D01*
X86874Y138276D01*
X86849Y138245D01*
X86819Y138220D01*
X86784Y138202D01*
X86746Y138190D01*
X86707Y138186D01*
X83538D01*
X83499Y138190D01*
X83461Y138202D01*
X83426Y138220D01*
X83396Y138245D01*
X83371Y138276D01*
X83352Y138311D01*
X83341Y138348D01*
X83337Y138387D01*
Y157521D01*
X83341Y157560D01*
X83352Y157598D01*
X83371Y157633D01*
X83396Y157663D01*
X83426Y157688D01*
X83461Y157707D01*
X83499Y157718D01*
X83538Y157722D01*
X93676D01*
X93715Y157718D01*
D02*
G37*
G36*
X82002D02*
X82040Y157707D01*
X82075Y157688D01*
X82105Y157663D01*
X82130Y157633D01*
X82149Y157598D01*
X82160Y157560D01*
X82164Y157521D01*
Y138387D01*
X82160Y138348D01*
X82149Y138311D01*
X82130Y138276D01*
X82105Y138245D01*
X82075Y138220D01*
X82040Y138202D01*
X82002Y138190D01*
X81963Y138186D01*
X78794D01*
X78754Y138190D01*
X78717Y138202D01*
X78682Y138220D01*
X78651Y138245D01*
X78627Y138276D01*
X78608Y138311D01*
X78597Y138348D01*
X78593Y138387D01*
Y140391D01*
X76928D01*
Y138387D01*
X76924Y138348D01*
X76912Y138311D01*
X76894Y138276D01*
X76869Y138245D01*
X76838Y138220D01*
X76804Y138202D01*
X76766Y138190D01*
X76727Y138186D01*
X73774D01*
X73735Y138190D01*
X73697Y138202D01*
X73662Y138220D01*
X73632Y138245D01*
X73607Y138276D01*
X73588Y138311D01*
X73577Y138348D01*
X73573Y138387D01*
Y142753D01*
X71825D01*
X71786Y142757D01*
X71748Y142769D01*
X71714Y142787D01*
X71683Y142812D01*
X71658Y142843D01*
X71640Y142877D01*
X71628Y142915D01*
X71624Y142954D01*
Y148466D01*
X71628Y148505D01*
X71640Y148543D01*
X71658Y148578D01*
X71683Y148608D01*
X71714Y148633D01*
X71748Y148652D01*
X71786Y148663D01*
X71825Y148667D01*
X73573D01*
Y151808D01*
X71825D01*
X71786Y151812D01*
X71748Y151824D01*
X71714Y151842D01*
X71683Y151867D01*
X71658Y151898D01*
X71640Y151933D01*
X71628Y151970D01*
X71624Y152009D01*
Y157521D01*
X71628Y157560D01*
X71640Y157598D01*
X71658Y157633D01*
X71683Y157663D01*
X71714Y157688D01*
X71748Y157707D01*
X71786Y157718D01*
X71825Y157722D01*
X81963D01*
X82002Y157718D01*
D02*
G37*
G36*
X56466D02*
X56504Y157707D01*
X56538Y157688D01*
X56569Y157663D01*
X56594Y157633D01*
X56612Y157598D01*
X56624Y157560D01*
X56628Y157521D01*
Y152009D01*
X56624Y151970D01*
X56612Y151933D01*
X56594Y151898D01*
X56569Y151867D01*
X56538Y151842D01*
X56504Y151824D01*
X56466Y151812D01*
X56427Y151808D01*
X54679D01*
Y148667D01*
X56427D01*
X56466Y148663D01*
X56504Y148652D01*
X56538Y148633D01*
X56569Y148608D01*
X56594Y148578D01*
X56612Y148543D01*
X56624Y148505D01*
X56628Y148466D01*
Y142954D01*
X56624Y142915D01*
X56612Y142877D01*
X56594Y142843D01*
X56569Y142812D01*
X56538Y142787D01*
X56504Y142769D01*
X56466Y142757D01*
X56427Y142753D01*
X54679D01*
Y138387D01*
X54675Y138348D01*
X54664Y138311D01*
X54645Y138276D01*
X54620Y138245D01*
X54590Y138220D01*
X54555Y138202D01*
X54517Y138190D01*
X54478Y138186D01*
X51525D01*
X51486Y138190D01*
X51448Y138202D01*
X51414Y138220D01*
X51383Y138245D01*
X51358Y138276D01*
X51340Y138311D01*
X51328Y138348D01*
X51324Y138387D01*
Y140391D01*
X49659D01*
Y138387D01*
X49655Y138348D01*
X49644Y138311D01*
X49625Y138276D01*
X49600Y138245D01*
X49570Y138220D01*
X49535Y138202D01*
X49497Y138190D01*
X49458Y138186D01*
X46289D01*
X46250Y138190D01*
X46212Y138202D01*
X46177Y138220D01*
X46147Y138245D01*
X46122Y138276D01*
X46103Y138311D01*
X46092Y138348D01*
X46088Y138387D01*
Y157521D01*
X46092Y157560D01*
X46103Y157598D01*
X46122Y157633D01*
X46147Y157663D01*
X46177Y157688D01*
X46212Y157707D01*
X46250Y157718D01*
X46289Y157722D01*
X56427D01*
X56466Y157718D01*
D02*
G37*
G36*
X44753D02*
X44791Y157707D01*
X44826Y157688D01*
X44856Y157663D01*
X44881Y157633D01*
X44900Y157598D01*
X44911Y157560D01*
X44915Y157521D01*
Y138387D01*
X44911Y138348D01*
X44900Y138311D01*
X44881Y138276D01*
X44856Y138245D01*
X44826Y138220D01*
X44791Y138202D01*
X44753Y138190D01*
X44714Y138186D01*
X41545D01*
X41506Y138190D01*
X41468Y138202D01*
X41433Y138220D01*
X41403Y138245D01*
X41378Y138276D01*
X41359Y138311D01*
X41348Y138348D01*
X41344Y138387D01*
Y140391D01*
X39679D01*
Y138387D01*
X39675Y138348D01*
X39664Y138311D01*
X39645Y138276D01*
X39620Y138245D01*
X39590Y138220D01*
X39555Y138202D01*
X39517Y138190D01*
X39478Y138186D01*
X36525D01*
X36486Y138190D01*
X36448Y138202D01*
X36413Y138220D01*
X36383Y138245D01*
X36358Y138276D01*
X36340Y138311D01*
X36328Y138348D01*
X36324Y138387D01*
Y142753D01*
X34576D01*
X34537Y142757D01*
X34499Y142769D01*
X34465Y142787D01*
X34434Y142812D01*
X34409Y142843D01*
X34391Y142877D01*
X34379Y142915D01*
X34375Y142954D01*
Y148466D01*
X34379Y148505D01*
X34391Y148543D01*
X34409Y148578D01*
X34434Y148608D01*
X34465Y148633D01*
X34499Y148652D01*
X34537Y148663D01*
X34576Y148667D01*
X36324D01*
Y151808D01*
X34576D01*
X34537Y151812D01*
X34499Y151824D01*
X34465Y151842D01*
X34434Y151867D01*
X34409Y151898D01*
X34391Y151933D01*
X34379Y151970D01*
X34375Y152009D01*
Y157521D01*
X34379Y157560D01*
X34391Y157598D01*
X34409Y157633D01*
X34434Y157663D01*
X34465Y157688D01*
X34499Y157707D01*
X34537Y157718D01*
X34576Y157722D01*
X44714D01*
X44753Y157718D01*
D02*
G37*
G36*
X420616Y157421D02*
X420654Y157409D01*
X420688Y157391D01*
X420719Y157366D01*
X420744Y157335D01*
X420762Y157300D01*
X420774Y157263D01*
X420778Y157223D01*
Y151712D01*
X420774Y151672D01*
X420762Y151635D01*
X420744Y151600D01*
X420719Y151570D01*
X420688Y151545D01*
X420654Y151526D01*
X420616Y151515D01*
X420577Y151511D01*
X418829D01*
Y148369D01*
X420577D01*
X420616Y148365D01*
X420654Y148354D01*
X420688Y148336D01*
X420719Y148310D01*
X420744Y148280D01*
X420762Y148245D01*
X420774Y148208D01*
X420778Y148168D01*
Y142657D01*
X420774Y142617D01*
X420762Y142580D01*
X420744Y142545D01*
X420719Y142515D01*
X420688Y142490D01*
X420654Y142471D01*
X420616Y142459D01*
X420577Y142456D01*
X418829D01*
Y138090D01*
X418825Y138050D01*
X418814Y138013D01*
X418795Y137978D01*
X418770Y137948D01*
X418740Y137923D01*
X418705Y137904D01*
X418667Y137893D01*
X418628Y137889D01*
X415675D01*
X415636Y137893D01*
X415598Y137904D01*
X415563Y137923D01*
X415533Y137948D01*
X415508Y137978D01*
X415489Y138013D01*
X415478Y138050D01*
X415474Y138090D01*
Y140093D01*
X413809D01*
Y138090D01*
X413805Y138050D01*
X413794Y138013D01*
X413775Y137978D01*
X413750Y137948D01*
X413720Y137923D01*
X413685Y137904D01*
X413647Y137893D01*
X413608Y137889D01*
X410439D01*
X410400Y137893D01*
X410362Y137904D01*
X410327Y137923D01*
X410297Y137948D01*
X410272Y137978D01*
X410253Y138013D01*
X410242Y138050D01*
X410238Y138090D01*
Y157223D01*
X410242Y157263D01*
X410253Y157300D01*
X410272Y157335D01*
X410297Y157366D01*
X410327Y157391D01*
X410362Y157409D01*
X410400Y157421D01*
X410439Y157424D01*
X420577D01*
X420616Y157421D01*
D02*
G37*
G36*
X408903D02*
X408941Y157409D01*
X408976Y157391D01*
X409006Y157366D01*
X409031Y157335D01*
X409050Y157300D01*
X409061Y157263D01*
X409065Y157223D01*
Y138090D01*
X409061Y138050D01*
X409050Y138013D01*
X409031Y137978D01*
X409006Y137948D01*
X408976Y137923D01*
X408941Y137904D01*
X408903Y137893D01*
X408864Y137889D01*
X405695D01*
X405656Y137893D01*
X405618Y137904D01*
X405583Y137923D01*
X405553Y137948D01*
X405528Y137978D01*
X405509Y138013D01*
X405498Y138050D01*
X405494Y138090D01*
Y140093D01*
X403829D01*
Y138090D01*
X403825Y138050D01*
X403814Y138013D01*
X403795Y137978D01*
X403770Y137948D01*
X403740Y137923D01*
X403705Y137904D01*
X403667Y137893D01*
X403628Y137889D01*
X400675D01*
X400636Y137893D01*
X400598Y137904D01*
X400563Y137923D01*
X400533Y137948D01*
X400508Y137978D01*
X400489Y138013D01*
X400478Y138050D01*
X400474Y138090D01*
Y142456D01*
X398726D01*
X398687Y142459D01*
X398649Y142471D01*
X398615Y142490D01*
X398584Y142515D01*
X398559Y142545D01*
X398541Y142580D01*
X398529Y142617D01*
X398525Y142657D01*
Y148168D01*
X398529Y148208D01*
X398541Y148245D01*
X398559Y148280D01*
X398584Y148310D01*
X398615Y148336D01*
X398649Y148354D01*
X398687Y148365D01*
X398726Y148369D01*
X400474D01*
Y151511D01*
X398726D01*
X398687Y151515D01*
X398649Y151526D01*
X398615Y151545D01*
X398584Y151570D01*
X398559Y151600D01*
X398541Y151635D01*
X398529Y151672D01*
X398525Y151712D01*
Y157223D01*
X398529Y157263D01*
X398541Y157300D01*
X398559Y157335D01*
X398584Y157366D01*
X398615Y157391D01*
X398649Y157409D01*
X398687Y157421D01*
X398726Y157424D01*
X408864D01*
X408903Y157421D01*
D02*
G37*
G36*
X383367D02*
X383405Y157409D01*
X383439Y157391D01*
X383470Y157366D01*
X383495Y157335D01*
X383513Y157300D01*
X383525Y157263D01*
X383529Y157223D01*
Y151712D01*
X383525Y151672D01*
X383513Y151635D01*
X383495Y151600D01*
X383470Y151570D01*
X383439Y151545D01*
X383405Y151526D01*
X383367Y151515D01*
X383328Y151511D01*
X381580D01*
Y148369D01*
X383328D01*
X383367Y148365D01*
X383405Y148354D01*
X383439Y148336D01*
X383470Y148310D01*
X383495Y148280D01*
X383513Y148245D01*
X383525Y148208D01*
X383529Y148168D01*
Y142657D01*
X383525Y142617D01*
X383513Y142580D01*
X383495Y142545D01*
X383470Y142515D01*
X383439Y142490D01*
X383405Y142471D01*
X383367Y142459D01*
X383328Y142456D01*
X381580D01*
Y138090D01*
X381576Y138050D01*
X381565Y138013D01*
X381546Y137978D01*
X381521Y137948D01*
X381491Y137923D01*
X381456Y137904D01*
X381418Y137893D01*
X381379Y137889D01*
X378426D01*
X378387Y137893D01*
X378349Y137904D01*
X378315Y137923D01*
X378284Y137948D01*
X378259Y137978D01*
X378241Y138013D01*
X378229Y138050D01*
X378225Y138090D01*
Y140093D01*
X376560D01*
Y138090D01*
X376556Y138050D01*
X376545Y138013D01*
X376526Y137978D01*
X376501Y137948D01*
X376471Y137923D01*
X376436Y137904D01*
X376399Y137893D01*
X376359Y137889D01*
X373190D01*
X373151Y137893D01*
X373113Y137904D01*
X373078Y137923D01*
X373048Y137948D01*
X373023Y137978D01*
X373004Y138013D01*
X372993Y138050D01*
X372989Y138090D01*
Y157223D01*
X372993Y157263D01*
X373004Y157300D01*
X373023Y157335D01*
X373048Y157366D01*
X373078Y157391D01*
X373113Y157409D01*
X373151Y157421D01*
X373190Y157424D01*
X383328D01*
X383367Y157421D01*
D02*
G37*
G36*
X371655D02*
X371692Y157409D01*
X371727Y157391D01*
X371757Y157366D01*
X371782Y157335D01*
X371801Y157300D01*
X371812Y157263D01*
X371816Y157223D01*
Y138090D01*
X371812Y138050D01*
X371801Y138013D01*
X371782Y137978D01*
X371757Y137948D01*
X371727Y137923D01*
X371692Y137904D01*
X371655Y137893D01*
X371615Y137889D01*
X368446D01*
X368407Y137893D01*
X368369Y137904D01*
X368334Y137923D01*
X368304Y137948D01*
X368279Y137978D01*
X368260Y138013D01*
X368249Y138050D01*
X368245Y138090D01*
Y140093D01*
X366580D01*
Y138090D01*
X366576Y138050D01*
X366565Y138013D01*
X366546Y137978D01*
X366521Y137948D01*
X366491Y137923D01*
X366456Y137904D01*
X366418Y137893D01*
X366379Y137889D01*
X363426D01*
X363387Y137893D01*
X363349Y137904D01*
X363315Y137923D01*
X363284Y137948D01*
X363259Y137978D01*
X363241Y138013D01*
X363229Y138050D01*
X363225Y138090D01*
Y142456D01*
X361477D01*
X361438Y142459D01*
X361401Y142471D01*
X361366Y142490D01*
X361335Y142515D01*
X361310Y142545D01*
X361292Y142580D01*
X361280Y142617D01*
X361277Y142657D01*
Y148168D01*
X361280Y148208D01*
X361292Y148245D01*
X361310Y148280D01*
X361335Y148310D01*
X361366Y148336D01*
X361401Y148354D01*
X361438Y148365D01*
X361477Y148369D01*
X363225D01*
Y151511D01*
X361477D01*
X361438Y151515D01*
X361401Y151526D01*
X361366Y151545D01*
X361335Y151570D01*
X361310Y151600D01*
X361292Y151635D01*
X361280Y151672D01*
X361277Y151712D01*
Y157223D01*
X361280Y157263D01*
X361292Y157300D01*
X361310Y157335D01*
X361335Y157366D01*
X361366Y157391D01*
X361401Y157409D01*
X361438Y157421D01*
X361477Y157424D01*
X371615D01*
X371655Y157421D01*
D02*
G37*
G54D114*
X19291Y285276D02*
X19208Y286280D01*
X18961Y287257D01*
X18556Y288180D01*
X18005Y289024D01*
X17322Y289765D01*
X16527Y290384D01*
X15640Y290864D01*
X14687Y291191D01*
X13693Y291357D01*
X12685D01*
X11691Y291191D01*
X10738Y290864D01*
X9851Y290384D01*
X9056Y289765D01*
X8373Y289024D01*
X7822Y288180D01*
X7417Y287257D01*
X7170Y286280D01*
X7087Y285276D01*
X7170Y284271D01*
X7417Y283294D01*
X7822Y282371D01*
X8373Y281527D01*
X9056Y280786D01*
X9851Y280167D01*
X10738Y279687D01*
X11691Y279360D01*
X12685Y279194D01*
X13693D01*
X14687Y279360D01*
X15640Y279687D01*
X16527Y280167D01*
X17322Y280786D01*
X18005Y281527D01*
X18556Y282371D01*
X18961Y283294D01*
X19208Y284271D01*
X19291Y285276D01*
X221602Y310053D02*
X221519Y311057D01*
X221272Y312034D01*
X220867Y312957D01*
X220316Y313801D01*
X219633Y314542D01*
X218838Y315161D01*
X217951Y315641D01*
X216998Y315968D01*
X216004Y316134D01*
X214996D01*
X214002Y315968D01*
X213049Y315641D01*
X212162Y315161D01*
X211367Y314542D01*
X210684Y313801D01*
X210133Y312957D01*
X209728Y312034D01*
X209481Y311057D01*
X209398Y310053D01*
X209481Y309048D01*
X209728Y308071D01*
X210133Y307148D01*
X210684Y306305D01*
X211367Y305563D01*
X212162Y304944D01*
X213049Y304464D01*
X214002Y304137D01*
X214996Y303971D01*
X216004D01*
X216998Y304137D01*
X217951Y304464D01*
X218838Y304944D01*
X219633Y305563D01*
X220316Y306305D01*
X220867Y307148D01*
X221272Y308071D01*
X221519Y309048D01*
X221602Y310053D01*
X43002Y476253D02*
X42919Y477257D01*
X42672Y478234D01*
X42267Y479157D01*
X41716Y480001D01*
X41033Y480742D01*
X40238Y481361D01*
X39351Y481841D01*
X38398Y482168D01*
X37404Y482334D01*
X36396D01*
X35402Y482168D01*
X34449Y481841D01*
X33562Y481361D01*
X32767Y480742D01*
X32084Y480001D01*
X31533Y479157D01*
X31128Y478234D01*
X30881Y477257D01*
X30798Y476253D01*
X30881Y475248D01*
X31128Y474271D01*
X31533Y473348D01*
X32084Y472505D01*
X32767Y471763D01*
X33562Y471144D01*
X34449Y470664D01*
X35402Y470337D01*
X36396Y470171D01*
X37404D01*
X38398Y470337D01*
X39351Y470664D01*
X40238Y471144D01*
X41033Y471763D01*
X41716Y472505D01*
X42267Y473348D01*
X42672Y474271D01*
X42919Y475248D01*
X43002Y476253D01*
G54D115*
X368793Y365110D02*
D03*
G54D116*
X309253Y279470D02*
D03*
X243477Y279369D02*
D03*
X436853Y421588D02*
D03*
G54D117*
X371409Y261750D02*
D03*
X367619D02*
D03*
X337252Y367150D02*
D03*
X333462D02*
D03*
X337232Y371088D02*
D03*
X333442D02*
D03*
X333472Y374926D02*
D03*
X337262D02*
D03*
X317652Y366801D02*
D03*
X321442D02*
D03*
X319762Y378969D02*
D03*
X323552D02*
D03*
X306346Y366798D02*
D03*
X310136D02*
D03*
X306384Y379575D02*
D03*
X310174D02*
D03*
X301385Y379612D02*
D03*
X297595D02*
D03*
X301031Y367150D02*
D03*
X297242D02*
D03*
X284587Y367267D02*
D03*
X288376D02*
D03*
X284599Y379641D02*
D03*
X288389D02*
D03*
X269440Y366671D02*
D03*
X273230D02*
D03*
X259286Y366355D02*
D03*
X263075D02*
D03*
X267458Y379512D02*
D03*
X271248D02*
D03*
X259598Y379269D02*
D03*
X263388D02*
D03*
X266469Y476526D02*
D03*
X262729D02*
D03*
X276141Y440391D02*
D03*
X272351D02*
D03*
X304169Y476526D02*
D03*
X300429D02*
D03*
X313841Y440391D02*
D03*
X310051D02*
D03*
X341868Y476526D02*
D03*
X338128D02*
D03*
X351541Y440391D02*
D03*
X347751D02*
D03*
X379568Y476526D02*
D03*
X375828D02*
D03*
X417268D02*
D03*
X413528D02*
D03*
X426940Y440391D02*
D03*
X423151D02*
D03*
X386026Y355943D02*
D03*
X382236D02*
D03*
X357246Y376693D02*
D03*
X361035D02*
D03*
X401857Y380930D02*
D03*
X398067D02*
D03*
X389067Y380929D02*
D03*
X392857D02*
D03*
X392492Y377005D02*
D03*
X396232D02*
D03*
X386026Y366277D02*
D03*
X382236D02*
D03*
X379529Y375726D02*
D03*
X375740D02*
D03*
X430120Y385470D02*
D03*
X426330D02*
D03*
X385927Y322872D02*
D03*
X382137D02*
D03*
X386026Y312913D02*
D03*
X382236D02*
D03*
X466773Y388718D02*
D03*
X470563D02*
D03*
X470573Y384486D02*
D03*
X466783D02*
D03*
X481665Y337832D02*
D03*
X477925D02*
D03*
X481709Y333698D02*
D03*
X477919D02*
D03*
X477910Y320411D02*
D03*
X481700D02*
D03*
X477910Y316375D02*
D03*
X481700D02*
D03*
X682946Y117007D02*
D03*
X686686D02*
D03*
X694248Y104420D02*
D03*
X698038D02*
D03*
X694148Y108817D02*
D03*
X697938D02*
D03*
X690070Y108661D02*
D03*
X686280D02*
D03*
X686266Y104519D02*
D03*
X690056D02*
D03*
X600709Y211222D02*
D03*
X604499D02*
D03*
X648957Y211253D02*
D03*
X652746D02*
D03*
X665746Y211153D02*
D03*
X661957D02*
D03*
X641457Y189053D02*
D03*
X637667D02*
D03*
X560157D02*
D03*
X556367D02*
D03*
X518819Y190848D02*
D03*
X522609D02*
D03*
X600119D02*
D03*
X603909D02*
D03*
X617423Y211124D02*
D03*
X613633D02*
D03*
X640228Y263622D02*
D03*
X644017D02*
D03*
X607925Y263919D02*
D03*
X604135D02*
D03*
X567657Y211253D02*
D03*
X571447D02*
D03*
X584446Y211153D02*
D03*
X580657D02*
D03*
X558927Y263622D02*
D03*
X562717D02*
D03*
X526625Y263919D02*
D03*
X522835D02*
D03*
X445325D02*
D03*
X441535D02*
D03*
X477628Y263622D02*
D03*
X481417D02*
D03*
X536123Y211124D02*
D03*
X532333D02*
D03*
X519409Y211222D02*
D03*
X523199D02*
D03*
X322774Y211253D02*
D03*
X326564D02*
D03*
X503147Y211153D02*
D03*
X499357D02*
D03*
X486357Y211253D02*
D03*
X490146D02*
D03*
X454823Y211124D02*
D03*
X451033D02*
D03*
X438109Y211222D02*
D03*
X441899D02*
D03*
X437519Y190848D02*
D03*
X441309D02*
D03*
X478857Y189053D02*
D03*
X475067D02*
D03*
X404301Y210955D02*
D03*
X408091D02*
D03*
X421091Y210855D02*
D03*
X417301D02*
D03*
X286586Y277596D02*
D03*
X290326D02*
D03*
X274136Y278679D02*
D03*
X270346D02*
D03*
X264637Y278875D02*
D03*
X260897D02*
D03*
X272511Y274840D02*
D03*
X268771D02*
D03*
X395572Y263324D02*
D03*
X399362D02*
D03*
X343839Y262084D02*
D03*
X340049D02*
D03*
X340159Y258003D02*
D03*
X343948D02*
D03*
X372767Y210826D02*
D03*
X368977D02*
D03*
X356054Y210924D02*
D03*
X359844D02*
D03*
X396801Y188755D02*
D03*
X393011D02*
D03*
X355463Y190550D02*
D03*
X359253D02*
D03*
X273936Y190848D02*
D03*
X277726D02*
D03*
X315274Y189053D02*
D03*
X311484D02*
D03*
X339564Y211153D02*
D03*
X335774D02*
D03*
X314045Y263622D02*
D03*
X317835D02*
D03*
X286092Y262047D02*
D03*
X289882D02*
D03*
X262176Y262382D02*
D03*
X258386D02*
D03*
X258631Y258300D02*
D03*
X262421D02*
D03*
X304148Y267781D02*
D03*
X307938D02*
D03*
X274527Y211222D02*
D03*
X278316D02*
D03*
X291240Y211124D02*
D03*
X287450D02*
D03*
X239834Y301710D02*
D03*
X236094D02*
D03*
X231832Y308009D02*
D03*
X235622D02*
D03*
X231832Y312143D02*
D03*
X235622D02*
D03*
X230582Y324348D02*
D03*
X234322D02*
D03*
X231989Y263718D02*
D03*
X235779D02*
D03*
X209185Y211220D02*
D03*
X205395D02*
D03*
X192471Y211318D02*
D03*
X196261D02*
D03*
X257508Y211249D02*
D03*
X253718D02*
D03*
X240718Y211349D02*
D03*
X244508D02*
D03*
X233218Y189149D02*
D03*
X229429D02*
D03*
X191881Y190944D02*
D03*
X195670D02*
D03*
X204037Y262143D02*
D03*
X207826D02*
D03*
X176576Y258396D02*
D03*
X180366D02*
D03*
X180120Y262478D02*
D03*
X176330D02*
D03*
X150462Y263622D02*
D03*
X154252D02*
D03*
X125127Y281240D02*
D03*
X121337D02*
D03*
X118160Y263919D02*
D03*
X114370D02*
D03*
X159191Y211253D02*
D03*
X162981D02*
D03*
X175981Y211153D02*
D03*
X172191D02*
D03*
X127657Y211124D02*
D03*
X123868D02*
D03*
X110944Y211222D02*
D03*
X114734D02*
D03*
X151691Y189053D02*
D03*
X147901D02*
D03*
X110354Y190848D02*
D03*
X114143D02*
D03*
X68671Y263622D02*
D03*
X72461D02*
D03*
X32568Y263919D02*
D03*
X36358D02*
D03*
X29153Y211222D02*
D03*
X32943D02*
D03*
X42076Y211124D02*
D03*
X45866D02*
D03*
X90400Y211153D02*
D03*
X94190D02*
D03*
X81190Y211253D02*
D03*
X77400D02*
D03*
X66110Y189053D02*
D03*
X69900D02*
D03*
X32352Y190848D02*
D03*
X28562D02*
D03*
X726080Y116461D02*
D03*
X729820D02*
D03*
X385451Y440391D02*
D03*
X389241D02*
D03*
X64817Y399528D02*
D03*
X61028D02*
D03*
X607946Y249353D02*
D03*
X604157D02*
D03*
X611921Y254827D02*
D03*
X608132D02*
D03*
X604173Y245551D02*
D03*
X607912D02*
D03*
X526647Y249353D02*
D03*
X522857D02*
D03*
X530721Y255122D02*
D03*
X526931D02*
D03*
X522872Y245551D02*
D03*
X526612D02*
D03*
X445346Y249353D02*
D03*
X441557D02*
D03*
X449421Y255122D02*
D03*
X445632D02*
D03*
X441573Y245551D02*
D03*
X445312D02*
D03*
X363291Y249055D02*
D03*
X359501D02*
D03*
X367728Y254039D02*
D03*
X363938D02*
D03*
X359517Y245253D02*
D03*
X363257D02*
D03*
X281764Y249353D02*
D03*
X277974D02*
D03*
X285347Y255417D02*
D03*
X281557D02*
D03*
X277990Y245551D02*
D03*
X281730D02*
D03*
X199708Y249449D02*
D03*
X195919D02*
D03*
X203457Y255319D02*
D03*
X199667D02*
D03*
X195934Y245647D02*
D03*
X199674D02*
D03*
X118181Y249353D02*
D03*
X114391D02*
D03*
X122158Y255024D02*
D03*
X118368D02*
D03*
X114407Y245551D02*
D03*
X118147D02*
D03*
X481763Y309092D02*
D03*
X477974D02*
D03*
X478200Y349250D02*
D03*
X481990D02*
D03*
X570609Y350529D02*
D03*
X566819D02*
D03*
X538870Y343639D02*
D03*
X535080D02*
D03*
X509244Y345214D02*
D03*
X505454D02*
D03*
X133976Y281260D02*
D03*
X130187D02*
D03*
X40513Y260929D02*
D03*
X44303D02*
D03*
X32600Y249353D02*
D03*
X36390D02*
D03*
X95972Y296895D02*
D03*
X92183D02*
D03*
X151839Y327013D02*
D03*
X155628D02*
D03*
X121661Y297443D02*
D03*
X117871D02*
D03*
X710450Y104881D02*
D03*
X714239D02*
D03*
X722050Y104781D02*
D03*
X718260D02*
D03*
X722039Y109181D02*
D03*
X718250D02*
D03*
X714250Y109081D02*
D03*
X710460D02*
D03*
X570654Y509638D02*
D03*
X566864D02*
D03*
X138491Y348951D02*
D03*
X134702D02*
D03*
X14868Y266221D02*
D03*
X18658D02*
D03*
X137800Y369001D02*
D03*
X134010D02*
D03*
X90800Y401153D02*
D03*
X94590D02*
D03*
X104000D02*
D03*
X100210D02*
D03*
X277463Y334092D02*
D03*
X273673D02*
D03*
X138305Y341166D02*
D03*
X142095D02*
D03*
X36000Y354201D02*
D03*
X39790D02*
D03*
X36000Y350101D02*
D03*
X39790D02*
D03*
X35101Y326501D02*
D03*
X38891D02*
D03*
X38900Y314301D02*
D03*
X35110D02*
D03*
X38900Y318301D02*
D03*
X35110D02*
D03*
X54314Y465347D02*
D03*
X58104D02*
D03*
X54316Y469453D02*
D03*
X58105D02*
D03*
X537856Y391983D02*
D03*
X534066D02*
D03*
X58133Y473443D02*
D03*
X54343D02*
D03*
X64100Y423053D02*
D03*
X67890D02*
D03*
X64100Y427453D02*
D03*
X67890D02*
D03*
X119600Y424753D02*
D03*
X123390D02*
D03*
X119500Y419253D02*
D03*
X123290D02*
D03*
X130600Y400053D02*
D03*
X126810D02*
D03*
X412896Y339013D02*
D03*
X409106D02*
D03*
X442805Y431979D02*
D03*
X439015D02*
D03*
X420249Y417798D02*
D03*
X416460D02*
D03*
X14269Y306619D02*
D03*
X18059D02*
D03*
X420249Y422523D02*
D03*
X416460D02*
D03*
X188300Y446990D02*
D03*
X192090D02*
D03*
X182900Y446890D02*
D03*
X179110D02*
D03*
X267452Y323623D02*
D03*
X263662D02*
D03*
X286967Y323646D02*
D03*
X283177D02*
D03*
X40156Y447167D02*
D03*
X36366D02*
D03*
X55314Y450017D02*
D03*
X59104D02*
D03*
X561314Y511803D02*
D03*
X557524D02*
D03*
X557235Y507771D02*
D03*
X553445D02*
D03*
G54D118*
X635716Y75323D02*
D03*
Y125283D02*
D03*
X554564Y75323D02*
D03*
Y125283D02*
D03*
X473148Y75323D02*
D03*
Y125283D02*
D03*
X391302Y75323D02*
D03*
Y125283D02*
D03*
X309535Y75323D02*
D03*
Y125283D02*
D03*
X227651Y75323D02*
D03*
Y125283D02*
D03*
X146281Y75323D02*
D03*
Y125283D02*
D03*
X64350Y75323D02*
D03*
Y125283D02*
D03*
G54D119*
X620004Y338261D02*
D03*
X640476D02*
D03*
X612360Y417431D02*
D03*
X632832D02*
D03*
G54D120*
X342252Y374434D02*
D03*
X348945D02*
D03*
X349043Y379749D02*
D03*
X342350D02*
D03*
X476448Y329368D02*
D03*
X483141D02*
D03*
X476448Y324742D02*
D03*
X483141D02*
D03*
X662865Y263425D02*
D03*
X656173D02*
D03*
X608543Y259588D02*
D03*
X601850D02*
D03*
X581914Y259861D02*
D03*
X588606D02*
D03*
X520550Y259588D02*
D03*
X527243D02*
D03*
X439250D02*
D03*
X445943D02*
D03*
X500719Y261242D02*
D03*
X507412D02*
D03*
X418466Y263104D02*
D03*
X425158D02*
D03*
X334815Y265785D02*
D03*
X328122D02*
D03*
X352059Y255614D02*
D03*
X358752D02*
D03*
X357571Y260437D02*
D03*
X364264D02*
D03*
X346921Y264249D02*
D03*
X353614D02*
D03*
X275484Y260634D02*
D03*
X282177D02*
D03*
X270563Y255909D02*
D03*
X277256D02*
D03*
X265394Y264744D02*
D03*
X272087D02*
D03*
X252528Y265094D02*
D03*
X245835D02*
D03*
X183338Y264643D02*
D03*
X190031D02*
D03*
X193496Y260535D02*
D03*
X200189D02*
D03*
X188515Y255844D02*
D03*
X195208D02*
D03*
X164354Y264388D02*
D03*
X171046D02*
D03*
X112085Y259588D02*
D03*
X118778D02*
D03*
X91730Y263232D02*
D03*
X98423D02*
D03*
X30294Y259588D02*
D03*
X36987D02*
D03*
G54D121*
X337262Y378863D02*
D03*
X333492D02*
D03*
X323539Y374827D02*
D03*
X319770D02*
D03*
X306408Y375342D02*
D03*
X310178D02*
D03*
X297214Y371302D02*
D03*
X300984D02*
D03*
X284601Y375507D02*
D03*
X288371D02*
D03*
X259421Y370772D02*
D03*
X263191D02*
D03*
X268181Y375529D02*
D03*
X271951D02*
D03*
X483195Y458951D02*
D03*
X479425D02*
D03*
X137170Y345109D02*
D03*
X133400D02*
D03*
X32630Y245453D02*
D03*
X36400D02*
D03*
X593694Y329390D02*
D03*
X597464D02*
D03*
X19415Y233527D02*
D03*
X15645D02*
D03*
X213566Y461553D02*
D03*
X209796D02*
D03*
X140370Y407353D02*
D03*
X136600D02*
D03*
X64200Y442353D02*
D03*
X67970D02*
D03*
X137370Y361201D02*
D03*
X133600D02*
D03*
X197900Y429401D02*
D03*
X201670D02*
D03*
X138270Y365101D02*
D03*
X134500D02*
D03*
X161600Y428553D02*
D03*
X157830D02*
D03*
X483249Y405948D02*
D03*
X479479D02*
D03*
X522607Y393775D02*
D03*
X526377D02*
D03*
X570362Y394050D02*
D03*
X566592D02*
D03*
X432757Y411679D02*
D03*
X436526D02*
D03*
X195304Y479297D02*
D03*
X191534D02*
D03*
X57906Y320201D02*
D03*
X54136D02*
D03*
X574739Y509638D02*
D03*
X578509D02*
D03*
X553509Y503831D02*
D03*
X557279D02*
D03*
X588578Y509441D02*
D03*
X584808D02*
D03*
G54D122*
X321822Y370706D02*
D03*
X325366D02*
D03*
X314047Y370903D02*
D03*
X310503D02*
D03*
X297708Y375431D02*
D03*
X294165D02*
D03*
X292098Y371395D02*
D03*
X288555D02*
D03*
X270740Y370706D02*
D03*
X274283D02*
D03*
X264047Y375234D02*
D03*
X260504D02*
D03*
X393742Y436573D02*
D03*
X397285D02*
D03*
X65244Y320320D02*
D03*
X61701D02*
D03*
X72232Y298765D02*
D03*
X68689D02*
D03*
X39372Y345994D02*
D03*
X35828D02*
D03*
X35028Y330501D02*
D03*
X38572D02*
D03*
Y306230D02*
D03*
X35028D02*
D03*
Y322401D02*
D03*
X38572D02*
D03*
Y310301D02*
D03*
X35028D02*
D03*
X353374Y357543D02*
D03*
X349831D02*
D03*
Y361677D02*
D03*
X353374D02*
D03*
X25750Y306806D02*
D03*
X22207D02*
D03*
X35828Y358201D02*
D03*
X39372D02*
D03*
G54D123*
X314004Y377288D02*
D03*
Y380044D02*
D03*
X277783Y377485D02*
D03*
Y380241D02*
D03*
X412373Y393866D02*
D03*
Y391110D02*
D03*
X391606Y337537D02*
D03*
Y340293D02*
D03*
X282846Y283698D02*
D03*
Y286454D02*
D03*
X114161Y295221D02*
D03*
Y297977D02*
D03*
X110913Y295221D02*
D03*
Y297977D02*
D03*
X99496Y295320D02*
D03*
Y298076D02*
D03*
X242012Y430127D02*
D03*
Y427372D02*
D03*
G54D124*
X278079Y371383D02*
D03*
Y367839D02*
D03*
X384421Y380155D02*
D03*
Y376612D02*
D03*
X106496Y297972D02*
D03*
Y294429D02*
D03*
G54D125*
X213400Y431411D02*
D03*
Y435201D02*
D03*
X221000Y436391D02*
D03*
Y432601D02*
D03*
X217300Y433111D02*
D03*
Y436901D02*
D03*
X209400Y433591D02*
D03*
Y429801D02*
D03*
X237472Y416454D02*
D03*
Y420244D02*
D03*
X251633Y457094D02*
D03*
Y460883D02*
D03*
X280999Y473056D02*
D03*
Y476796D02*
D03*
X318699Y473056D02*
D03*
Y476796D02*
D03*
X356398Y473056D02*
D03*
Y476796D02*
D03*
X394098Y473056D02*
D03*
Y476796D02*
D03*
X431798Y473056D02*
D03*
Y476796D02*
D03*
X473647Y472061D02*
D03*
Y475851D02*
D03*
X477695Y472051D02*
D03*
Y475841D02*
D03*
X483547Y472061D02*
D03*
Y475851D02*
D03*
X404401Y345564D02*
D03*
Y349354D02*
D03*
X408830Y345608D02*
D03*
Y349348D02*
D03*
X414834Y349378D02*
D03*
Y345588D02*
D03*
X418870Y345578D02*
D03*
Y349368D02*
D03*
X371272Y349318D02*
D03*
Y353108D02*
D03*
X357775Y362062D02*
D03*
Y358272D02*
D03*
X357649Y370017D02*
D03*
Y366277D02*
D03*
X422708Y400529D02*
D03*
Y404269D02*
D03*
X418377Y400499D02*
D03*
Y404289D02*
D03*
X414047Y404299D02*
D03*
Y400509D02*
D03*
X416657Y302126D02*
D03*
Y305916D02*
D03*
X411627Y305926D02*
D03*
Y302136D02*
D03*
X396144Y302126D02*
D03*
Y305916D02*
D03*
X388555Y305844D02*
D03*
Y302104D02*
D03*
X452925Y383865D02*
D03*
Y387655D02*
D03*
X448692Y383895D02*
D03*
Y387635D02*
D03*
X682398Y95273D02*
D03*
Y91483D02*
D03*
X667657Y164753D02*
D03*
Y168543D02*
D03*
X637857Y196853D02*
D03*
Y193063D02*
D03*
X641457Y167853D02*
D03*
Y164063D02*
D03*
X629957Y164053D02*
D03*
Y167843D02*
D03*
X603692Y186843D02*
D03*
Y183053D02*
D03*
X603389Y164253D02*
D03*
Y160463D02*
D03*
X586357Y164753D02*
D03*
Y168543D02*
D03*
X556557Y196853D02*
D03*
Y193063D02*
D03*
X560157Y167853D02*
D03*
Y164063D02*
D03*
X548657Y164053D02*
D03*
Y167843D02*
D03*
X522089Y164253D02*
D03*
Y160463D02*
D03*
X522392Y186843D02*
D03*
Y183053D02*
D03*
X625247Y267253D02*
D03*
Y271042D02*
D03*
X616684Y270996D02*
D03*
Y267206D02*
D03*
X535384Y270996D02*
D03*
Y267206D02*
D03*
X462647Y267253D02*
D03*
Y271042D02*
D03*
X454084Y270996D02*
D03*
Y267206D02*
D03*
X515031Y273924D02*
D03*
Y277714D02*
D03*
X441092Y186843D02*
D03*
Y183053D02*
D03*
X505057Y164753D02*
D03*
Y168543D02*
D03*
X475257Y196853D02*
D03*
Y193063D02*
D03*
X478857Y167853D02*
D03*
Y164063D02*
D03*
X467357Y164053D02*
D03*
Y167843D02*
D03*
X440789Y164253D02*
D03*
Y160463D02*
D03*
X298425Y282391D02*
D03*
Y286181D02*
D03*
X294460Y282419D02*
D03*
Y286159D02*
D03*
X298425Y272037D02*
D03*
Y275827D02*
D03*
X294362Y275824D02*
D03*
Y272084D02*
D03*
X282452Y278709D02*
D03*
Y274919D02*
D03*
X278318Y278709D02*
D03*
Y274919D02*
D03*
X269066Y286779D02*
D03*
Y282990D02*
D03*
X264834Y286732D02*
D03*
Y282992D02*
D03*
X321232Y281306D02*
D03*
Y285096D02*
D03*
X325366Y281336D02*
D03*
Y285076D02*
D03*
X324873Y276809D02*
D03*
Y273068D02*
D03*
X423001Y164455D02*
D03*
Y168245D02*
D03*
X393201Y196555D02*
D03*
Y192765D02*
D03*
X359036Y186545D02*
D03*
Y182755D02*
D03*
X396801Y167555D02*
D03*
Y163765D02*
D03*
X385301Y163755D02*
D03*
Y167545D02*
D03*
X358734Y163955D02*
D03*
Y160165D02*
D03*
X277509Y186843D02*
D03*
Y183053D02*
D03*
X311674Y196853D02*
D03*
Y193063D02*
D03*
X315274Y167853D02*
D03*
Y164063D02*
D03*
X303774Y164053D02*
D03*
Y167843D02*
D03*
X341474Y164753D02*
D03*
Y168543D02*
D03*
X255090Y271494D02*
D03*
Y275234D02*
D03*
X231862Y296641D02*
D03*
Y300431D02*
D03*
X239933Y309584D02*
D03*
Y313324D02*
D03*
X232748Y273068D02*
D03*
Y276809D02*
D03*
X229618Y196949D02*
D03*
Y193159D02*
D03*
X277207Y164253D02*
D03*
Y160463D02*
D03*
X259418Y164849D02*
D03*
Y168639D02*
D03*
X233218Y167949D02*
D03*
Y164159D02*
D03*
X221718Y164149D02*
D03*
Y167938D02*
D03*
X195454Y186938D02*
D03*
Y183149D02*
D03*
X195151Y164349D02*
D03*
Y160559D02*
D03*
X135482Y267253D02*
D03*
Y271042D02*
D03*
X126919Y270996D02*
D03*
Y267206D02*
D03*
X148091Y196853D02*
D03*
Y193063D02*
D03*
X113927Y186843D02*
D03*
Y183053D02*
D03*
X177891Y164753D02*
D03*
Y168543D02*
D03*
X151691Y167853D02*
D03*
Y164063D02*
D03*
X140191Y164053D02*
D03*
Y167843D02*
D03*
X113624Y164253D02*
D03*
Y160463D02*
D03*
X543947Y267253D02*
D03*
Y271042D02*
D03*
X99775Y257941D02*
D03*
Y254151D02*
D03*
X53690Y267253D02*
D03*
Y271042D02*
D03*
X45127Y270996D02*
D03*
Y267206D02*
D03*
X96100Y168543D02*
D03*
Y164753D02*
D03*
X66300Y193063D02*
D03*
Y196853D02*
D03*
X69900Y164063D02*
D03*
Y167853D02*
D03*
X58400Y167843D02*
D03*
Y164053D02*
D03*
X32135Y183053D02*
D03*
Y186843D02*
D03*
X31833Y160463D02*
D03*
Y164253D02*
D03*
X129500Y415363D02*
D03*
Y419153D02*
D03*
X672019Y461332D02*
D03*
Y457542D02*
D03*
X181976Y328469D02*
D03*
Y332259D02*
D03*
X707750Y96181D02*
D03*
Y92391D02*
D03*
X225100Y435091D02*
D03*
Y431301D02*
D03*
X52016Y308144D02*
D03*
Y311934D02*
D03*
X60567Y306253D02*
D03*
Y310043D02*
D03*
X176779Y328676D02*
D03*
Y332466D02*
D03*
X64433Y306253D02*
D03*
Y310043D02*
D03*
X68300Y306253D02*
D03*
Y310043D02*
D03*
X56700Y310053D02*
D03*
Y306263D02*
D03*
X167803Y332161D02*
D03*
Y328371D02*
D03*
X291683Y326939D02*
D03*
Y323149D02*
D03*
X229893Y332252D02*
D03*
Y328462D02*
D03*
X236881Y335303D02*
D03*
Y331513D02*
D03*
X231763Y320047D02*
D03*
Y316257D02*
D03*
X443476Y411091D02*
D03*
Y407301D02*
D03*
X493769Y398788D02*
D03*
Y402578D02*
D03*
Y394813D02*
D03*
Y391023D02*
D03*
X136000Y411353D02*
D03*
Y415143D02*
D03*
X129500Y424653D02*
D03*
Y428443D02*
D03*
X629748Y457197D02*
D03*
Y460987D02*
D03*
X580811Y388950D02*
D03*
Y392740D02*
D03*
X536810Y385143D02*
D03*
Y381353D02*
D03*
X580911Y385150D02*
D03*
Y381360D02*
D03*
X629548Y453197D02*
D03*
Y449407D02*
D03*
X202452Y465044D02*
D03*
Y461254D02*
D03*
X177409Y437043D02*
D03*
Y433253D02*
D03*
X271652Y328165D02*
D03*
Y324375D02*
D03*
X291661Y334602D02*
D03*
Y330812D02*
D03*
X52016Y298794D02*
D03*
Y302584D02*
D03*
X22567Y445432D02*
D03*
Y449221D02*
D03*
X592635Y497471D02*
D03*
Y501261D02*
D03*
Y505271D02*
D03*
Y509061D02*
D03*
G54D126*
X451181Y535433D02*
D03*
Y527559D02*
D03*
X456693Y522047D02*
D03*
X464567D02*
D03*
X470079Y527559D02*
D03*
Y535433D02*
D03*
X464567Y540945D02*
D03*
X456693D02*
D03*
X340945Y23622D02*
D03*
Y15748D02*
D03*
X346457Y10236D02*
D03*
X354331D02*
D03*
X359842Y15748D02*
D03*
Y23622D02*
D03*
X354331Y29134D02*
D03*
X346457D02*
D03*
X737795Y15748D02*
D03*
Y23622D02*
D03*
X732283Y29134D02*
D03*
X724409D02*
D03*
X718898Y23622D02*
D03*
Y15748D02*
D03*
X724409Y10236D02*
D03*
X732283D02*
D03*
X29134Y15748D02*
D03*
Y23622D02*
D03*
X23622Y29134D02*
D03*
X15748D02*
D03*
X10236Y23622D02*
D03*
Y15748D02*
D03*
X15748Y10236D02*
D03*
X23622D02*
D03*
X29134Y527559D02*
D03*
Y535433D02*
D03*
X23622Y540945D02*
D03*
X15748D02*
D03*
X10236Y535433D02*
D03*
Y527559D02*
D03*
X15748Y522047D02*
D03*
X23622D02*
D03*
X737795Y527559D02*
D03*
Y535433D02*
D03*
X732283Y540945D02*
D03*
X724409D02*
D03*
X718898Y535433D02*
D03*
Y527559D02*
D03*
X724409Y522047D02*
D03*
X732283D02*
D03*
G54D127*
X261844Y472646D02*
D03*
X264599D02*
D03*
X256259Y442557D02*
D03*
X259015D02*
D03*
X299543Y472646D02*
D03*
X302299D02*
D03*
X293959Y442557D02*
D03*
X296715D02*
D03*
X337243Y472646D02*
D03*
X339999D02*
D03*
X331659Y442557D02*
D03*
X334415D02*
D03*
X341732Y435950D02*
D03*
X344488D02*
D03*
X369359Y442557D02*
D03*
X372115D02*
D03*
X374943Y472646D02*
D03*
X377699D02*
D03*
X412643D02*
D03*
X415399D02*
D03*
X352750Y338423D02*
D03*
X349994D02*
D03*
X624903Y274744D02*
D03*
X627659D02*
D03*
X607876Y273858D02*
D03*
X605120D02*
D03*
X607580Y267756D02*
D03*
X604824D02*
D03*
X526576Y273858D02*
D03*
X523820D02*
D03*
X523524Y267756D02*
D03*
X526280D02*
D03*
X462303Y274744D02*
D03*
X465059D02*
D03*
X445276Y273858D02*
D03*
X442520D02*
D03*
X442224Y267756D02*
D03*
X444980D02*
D03*
X306370Y289604D02*
D03*
X309125D02*
D03*
X358555Y265260D02*
D03*
X361311D02*
D03*
X344342Y265824D02*
D03*
X341586D02*
D03*
X348555Y254072D02*
D03*
X345799D02*
D03*
X276378Y264508D02*
D03*
X279134D02*
D03*
X262815Y266122D02*
D03*
X260059D02*
D03*
X267027Y254370D02*
D03*
X264272D02*
D03*
X245149Y289604D02*
D03*
X247905D02*
D03*
X194382Y264866D02*
D03*
X197138D02*
D03*
X184972Y254466D02*
D03*
X182216D02*
D03*
X180759Y266218D02*
D03*
X178004D02*
D03*
X135138Y274744D02*
D03*
X137894D02*
D03*
X118110Y273858D02*
D03*
X115354D02*
D03*
X115059Y267756D02*
D03*
X117815D02*
D03*
X543603Y274744D02*
D03*
X546359D02*
D03*
X53346D02*
D03*
X56102D02*
D03*
X36319Y273858D02*
D03*
X33563D02*
D03*
X33268Y267756D02*
D03*
X36024D02*
D03*
X248791Y300234D02*
D03*
X246035D02*
D03*
X409815Y442557D02*
D03*
X407059D02*
D03*
X629972Y260238D02*
D03*
X632727D02*
D03*
X548672D02*
D03*
X551428D02*
D03*
X467372D02*
D03*
X470127D02*
D03*
X385316Y259940D02*
D03*
X388072D02*
D03*
X303789Y260238D02*
D03*
X306545D02*
D03*
X221733Y260334D02*
D03*
X224489D02*
D03*
X140206Y260238D02*
D03*
X142962D02*
D03*
X385602Y435864D02*
D03*
X382846D02*
D03*
X58415Y260238D02*
D03*
X61171D02*
D03*
X89370Y292657D02*
D03*
X92126D02*
D03*
X298130Y435359D02*
D03*
X300886D02*
D03*
X353445Y380354D02*
D03*
X356201D02*
D03*
G54D128*
X251633Y446789D02*
D03*
Y453482D02*
D03*
X289626Y442754D02*
D03*
Y449446D02*
D03*
X327519Y441671D02*
D03*
Y448364D02*
D03*
X364921Y442458D02*
D03*
Y449151D02*
D03*
X402421Y442754D02*
D03*
Y449446D02*
D03*
X399972Y350135D02*
D03*
Y343443D02*
D03*
X394854Y343443D02*
D03*
Y350135D02*
D03*
X406814Y307419D02*
D03*
Y300726D02*
D03*
X401686Y300726D02*
D03*
Y307419D02*
D03*
X457551Y389702D02*
D03*
Y383009D02*
D03*
X462177Y383009D02*
D03*
Y389702D02*
D03*
X620917Y272836D02*
D03*
Y266143D02*
D03*
X612354Y272836D02*
D03*
Y266143D02*
D03*
X539616Y272836D02*
D03*
Y266143D02*
D03*
X531053Y272836D02*
D03*
Y266143D02*
D03*
X458317Y272836D02*
D03*
Y266143D02*
D03*
X449754Y272836D02*
D03*
Y266143D02*
D03*
X131151Y272836D02*
D03*
Y266143D02*
D03*
X122588Y272836D02*
D03*
Y266143D02*
D03*
X49360Y272836D02*
D03*
Y266143D02*
D03*
X40797Y272836D02*
D03*
Y266143D02*
D03*
X33633Y285470D02*
D03*
Y292163D02*
D03*
X287452Y333947D02*
D03*
Y327254D02*
D03*
X282152Y327254D02*
D03*
Y333947D02*
D03*
X262252Y327528D02*
D03*
Y334221D02*
D03*
X267652Y334121D02*
D03*
Y327428D02*
D03*
G54D129*
X263444Y445626D02*
D03*
X266003D02*
D03*
X268563D02*
D03*
X271122D02*
D03*
X273681D02*
D03*
X276240D02*
D03*
X278799D02*
D03*
X263444Y468067D02*
D03*
X266003D02*
D03*
X268563D02*
D03*
X271122D02*
D03*
X273681D02*
D03*
X276240D02*
D03*
X278799D02*
D03*
X301144Y445626D02*
D03*
X303703D02*
D03*
X306262D02*
D03*
X308821D02*
D03*
X311380D02*
D03*
X313939D02*
D03*
X316498D02*
D03*
X301144Y468067D02*
D03*
X303703D02*
D03*
X306262D02*
D03*
X308821D02*
D03*
X311380D02*
D03*
X313939D02*
D03*
X316498D02*
D03*
X338844Y445626D02*
D03*
X341403D02*
D03*
X343962D02*
D03*
X346521D02*
D03*
X349080D02*
D03*
X351639D02*
D03*
X354198D02*
D03*
X338844Y468067D02*
D03*
X341403D02*
D03*
X343962D02*
D03*
X346521D02*
D03*
X349080D02*
D03*
X351639D02*
D03*
X354198D02*
D03*
X376544Y445626D02*
D03*
X379103D02*
D03*
X381662D02*
D03*
X384221D02*
D03*
X386780D02*
D03*
X389339D02*
D03*
X391898D02*
D03*
X376544Y468067D02*
D03*
X379103D02*
D03*
X381662D02*
D03*
X384221D02*
D03*
X386780D02*
D03*
X389339D02*
D03*
X391898D02*
D03*
X414244Y445626D02*
D03*
X416803D02*
D03*
X419362D02*
D03*
X421921D02*
D03*
X424480D02*
D03*
X427039D02*
D03*
X429598D02*
D03*
X414244Y468067D02*
D03*
X416803D02*
D03*
X419362D02*
D03*
X421921D02*
D03*
X424480D02*
D03*
X427039D02*
D03*
X429598D02*
D03*
G54D130*
X276358Y476226D02*
D03*
X271003D02*
D03*
X314058D02*
D03*
X308703D02*
D03*
X351757D02*
D03*
X346403D02*
D03*
X389457D02*
D03*
X384103D02*
D03*
X427157D02*
D03*
X421803D02*
D03*
X438437Y384486D02*
D03*
X443791D02*
D03*
X482964Y304072D02*
D03*
X477610D02*
D03*
X681983Y122389D02*
D03*
X687337D02*
D03*
X616507Y217718D02*
D03*
X611153D02*
D03*
X649780Y217653D02*
D03*
X655134D02*
D03*
X568479D02*
D03*
X573834D02*
D03*
X535207Y217718D02*
D03*
X529853D02*
D03*
X453907D02*
D03*
X448553D02*
D03*
X323597Y217653D02*
D03*
X328951D02*
D03*
X487180D02*
D03*
X492534D02*
D03*
X405124Y217355D02*
D03*
X410478D02*
D03*
X371851Y217420D02*
D03*
X366497D02*
D03*
X290324Y217718D02*
D03*
X284970D02*
D03*
X208269Y217814D02*
D03*
X202915D02*
D03*
X241541Y217749D02*
D03*
X246896D02*
D03*
X126742Y217718D02*
D03*
X121387D02*
D03*
X160014Y217653D02*
D03*
X165368D02*
D03*
X39596Y217718D02*
D03*
X44950D02*
D03*
X83577Y217653D02*
D03*
X78223D02*
D03*
X602983Y233368D02*
D03*
X608338D02*
D03*
X663554Y231891D02*
D03*
X658200D02*
D03*
X602885Y239864D02*
D03*
X608239D02*
D03*
X663554Y237403D02*
D03*
X658200D02*
D03*
X521683Y233368D02*
D03*
X527038D02*
D03*
X582254Y231891D02*
D03*
X576900D02*
D03*
X521585Y239864D02*
D03*
X526939D02*
D03*
X582254Y237403D02*
D03*
X576900D02*
D03*
X440383Y233368D02*
D03*
X445738D02*
D03*
X500954Y231891D02*
D03*
X495600D02*
D03*
X440285Y239864D02*
D03*
X445639D02*
D03*
X500954Y237403D02*
D03*
X495600D02*
D03*
X358328Y233070D02*
D03*
X363682D02*
D03*
X418899Y231594D02*
D03*
X413544D02*
D03*
X358229Y239566D02*
D03*
X363584D02*
D03*
X418899Y237105D02*
D03*
X413544D02*
D03*
X276801Y233368D02*
D03*
X282155D02*
D03*
X337372Y231891D02*
D03*
X332017D02*
D03*
X276702Y239864D02*
D03*
X282057D02*
D03*
X337372Y237403D02*
D03*
X332017D02*
D03*
X194745Y233464D02*
D03*
X200100D02*
D03*
X255316Y231987D02*
D03*
X249962D02*
D03*
X194647Y239960D02*
D03*
X200001D02*
D03*
X255316Y237499D02*
D03*
X249962D02*
D03*
X113218Y233368D02*
D03*
X118572D02*
D03*
X173789Y231891D02*
D03*
X168435D02*
D03*
X113120Y239864D02*
D03*
X118474D02*
D03*
X173789Y237403D02*
D03*
X168435D02*
D03*
X86643D02*
D03*
X91998D02*
D03*
X36683Y239864D02*
D03*
X31328D02*
D03*
X86643Y231891D02*
D03*
X91998D02*
D03*
X36781Y233368D02*
D03*
X31427D02*
D03*
X108077Y409253D02*
D03*
X102723D02*
D03*
Y459853D02*
D03*
X108077D02*
D03*
X162889Y433508D02*
D03*
X157534D02*
D03*
X122471Y400701D02*
D03*
X117117D02*
D03*
X592917Y324178D02*
D03*
X598272D02*
D03*
X730315Y121531D02*
D03*
X724961D02*
D03*
X503141Y356809D02*
D03*
X497787D02*
D03*
X532925Y348462D02*
D03*
X538279D02*
D03*
G54D131*
X481295Y465651D02*
D03*
G54D132*
X485036Y462698D02*
D03*
X477555Y468604D02*
D03*
Y466635D02*
D03*
Y464667D02*
D03*
Y462698D02*
D03*
X485036Y468604D02*
D03*
Y466635D02*
D03*
Y464667D02*
D03*
G54D133*
X488695Y458381D02*
D03*
Y462151D02*
D03*
X516630Y426273D02*
D03*
Y430043D02*
D03*
X455087Y455874D02*
D03*
Y459644D02*
D03*
X455187Y463804D02*
D03*
Y467574D02*
D03*
X467387Y459674D02*
D03*
Y463444D02*
D03*
X257652Y327505D02*
D03*
Y331275D02*
D03*
X140200Y415053D02*
D03*
Y411283D02*
D03*
X147132Y335120D02*
D03*
Y331350D02*
D03*
X68000Y452223D02*
D03*
Y448453D02*
D03*
X118600Y447953D02*
D03*
Y451723D02*
D03*
X139400Y377271D02*
D03*
Y373501D02*
D03*
X139900Y391901D02*
D03*
Y388131D02*
D03*
X236708Y376853D02*
D03*
Y380623D02*
D03*
X222900Y328301D02*
D03*
Y332071D02*
D03*
X139900Y395701D02*
D03*
Y399471D02*
D03*
X216400Y331923D02*
D03*
Y328153D02*
D03*
X239933Y367133D02*
D03*
Y370903D02*
D03*
X205600Y429131D02*
D03*
Y432901D02*
D03*
X137626Y331786D02*
D03*
Y335556D02*
D03*
X47400Y362553D02*
D03*
Y366323D02*
D03*
X614718Y391975D02*
D03*
Y395745D02*
D03*
X122736Y451732D02*
D03*
Y447962D02*
D03*
X610647Y452817D02*
D03*
Y456588D02*
D03*
X151240Y335114D02*
D03*
Y331344D02*
D03*
X56960Y407248D02*
D03*
Y411018D02*
D03*
X56966Y403208D02*
D03*
Y399439D02*
D03*
X277952Y328001D02*
D03*
Y324231D02*
D03*
X72200Y305983D02*
D03*
Y309753D02*
D03*
X290526Y318643D02*
D03*
Y314873D02*
D03*
X592977Y487689D02*
D03*
Y491459D02*
D03*
X561235Y503771D02*
D03*
Y507541D02*
D03*
G54D134*
X485709Y450457D02*
D03*
X492796D02*
D03*
G54D135*
X505212Y416472D02*
D03*
Y421827D02*
D03*
X510912Y416472D02*
D03*
Y421827D02*
D03*
X516730Y421820D02*
D03*
Y416465D02*
D03*
X418771Y332301D02*
D03*
Y337655D02*
D03*
X478811Y353954D02*
D03*
Y359309D02*
D03*
X554872Y206576D02*
D03*
Y211931D02*
D03*
X549262Y206576D02*
D03*
Y211931D02*
D03*
X636172Y206576D02*
D03*
Y211931D02*
D03*
X630562Y206576D02*
D03*
Y211931D02*
D03*
X668257Y177176D02*
D03*
Y182530D02*
D03*
X640557Y176676D02*
D03*
Y182030D02*
D03*
X630757Y177476D02*
D03*
Y182830D02*
D03*
X603200Y171551D02*
D03*
Y176906D02*
D03*
X586957Y177176D02*
D03*
Y182530D02*
D03*
X559257Y176676D02*
D03*
Y182030D02*
D03*
X549457Y177476D02*
D03*
Y182830D02*
D03*
X521900Y171551D02*
D03*
Y176906D02*
D03*
X309990Y206576D02*
D03*
Y211931D02*
D03*
X304380Y206576D02*
D03*
Y211931D02*
D03*
X473572Y206576D02*
D03*
Y211931D02*
D03*
X467962Y206576D02*
D03*
Y211931D02*
D03*
X505657Y177176D02*
D03*
Y182530D02*
D03*
X477957Y176676D02*
D03*
Y182030D02*
D03*
X468157Y177476D02*
D03*
Y182830D02*
D03*
X440600Y171551D02*
D03*
Y176906D02*
D03*
X391517Y206279D02*
D03*
Y211633D02*
D03*
X385907Y206279D02*
D03*
Y211633D02*
D03*
X423601Y176878D02*
D03*
Y182232D02*
D03*
X395901Y176378D02*
D03*
Y181732D02*
D03*
X386101Y177178D02*
D03*
Y182532D02*
D03*
X358544Y171254D02*
D03*
Y176608D02*
D03*
X277017Y171551D02*
D03*
Y176906D02*
D03*
X314374Y176676D02*
D03*
Y182030D02*
D03*
X304574Y177476D02*
D03*
Y182830D02*
D03*
X342074Y177176D02*
D03*
Y182530D02*
D03*
X227934Y206672D02*
D03*
Y212027D02*
D03*
X222324Y206672D02*
D03*
Y212027D02*
D03*
X260018Y177271D02*
D03*
Y182626D02*
D03*
X232318Y176771D02*
D03*
Y182126D02*
D03*
X222518Y177571D02*
D03*
Y182926D02*
D03*
X194962Y171647D02*
D03*
Y177001D02*
D03*
X146407Y206576D02*
D03*
Y211931D02*
D03*
X140797Y206576D02*
D03*
Y211931D02*
D03*
X150791Y176676D02*
D03*
Y182030D02*
D03*
X140991Y177476D02*
D03*
Y182830D02*
D03*
X113435Y171551D02*
D03*
Y176906D02*
D03*
X178491Y177176D02*
D03*
Y182530D02*
D03*
X64616Y211931D02*
D03*
Y206576D02*
D03*
X59005Y211931D02*
D03*
Y206576D02*
D03*
X96700Y182530D02*
D03*
Y177176D02*
D03*
X69000Y182030D02*
D03*
Y176676D02*
D03*
X59200Y177476D02*
D03*
Y182830D02*
D03*
X31643Y176906D02*
D03*
Y171551D02*
D03*
X620100Y390106D02*
D03*
Y395460D02*
D03*
X608318Y222915D02*
D03*
Y228269D02*
D03*
X527018Y222915D02*
D03*
Y228269D02*
D03*
X445718Y222915D02*
D03*
Y228269D02*
D03*
X363663Y222617D02*
D03*
Y227972D02*
D03*
X282135Y222915D02*
D03*
Y228269D02*
D03*
X200080Y223011D02*
D03*
Y228365D02*
D03*
X118553Y222915D02*
D03*
Y228269D02*
D03*
X36761Y222915D02*
D03*
Y228269D02*
D03*
X557005Y475760D02*
D03*
Y481114D02*
D03*
X142300Y337078D02*
D03*
Y331724D02*
D03*
X138287Y452938D02*
D03*
Y458292D02*
D03*
X164798Y455922D02*
D03*
Y461277D02*
D03*
X35900Y340378D02*
D03*
Y335024D02*
D03*
X134600Y388878D02*
D03*
Y383524D02*
D03*
X561980Y344210D02*
D03*
Y349565D02*
D03*
X676547Y457355D02*
D03*
Y462709D02*
D03*
X134600Y378778D02*
D03*
Y373424D02*
D03*
G54D136*
X523196Y418923D02*
D03*
Y430734D02*
D03*
G54D137*
X523983Y424828D02*
D03*
G54D138*
X368893Y365110D02*
D03*
G54D139*
X362473Y362158D02*
D03*
Y368063D02*
D03*
X375313D02*
D03*
Y362158D02*
D03*
X315672Y283307D02*
D03*
Y281339D02*
D03*
Y279370D02*
D03*
Y277402D02*
D03*
Y275433D02*
D03*
X302832D02*
D03*
Y277402D02*
D03*
Y279370D02*
D03*
Y281339D02*
D03*
Y283307D02*
D03*
X249896Y283206D02*
D03*
Y281238D02*
D03*
Y279269D02*
D03*
Y277301D02*
D03*
Y275332D02*
D03*
X237056D02*
D03*
Y277301D02*
D03*
Y279269D02*
D03*
Y281238D02*
D03*
Y283206D02*
D03*
X430456Y417751D02*
D03*
Y419720D02*
D03*
Y421688D02*
D03*
Y423657D02*
D03*
Y425625D02*
D03*
X443251D02*
D03*
Y423657D02*
D03*
Y421688D02*
D03*
Y419720D02*
D03*
Y417751D02*
D03*
G54D140*
X364956Y371531D02*
D03*
X366924D02*
D03*
X368893D02*
D03*
X370862D02*
D03*
X372830D02*
D03*
Y358691D02*
D03*
X370862D02*
D03*
X368893D02*
D03*
X366924D02*
D03*
X364956D02*
D03*
X306299Y285790D02*
D03*
X312205D02*
D03*
Y272950D02*
D03*
X306299D02*
D03*
X240523Y285689D02*
D03*
X246429D02*
D03*
Y272849D02*
D03*
X240523D02*
D03*
X439806Y415290D02*
D03*
X433901D02*
D03*
Y428086D02*
D03*
X439806D02*
D03*
G54D141*
X413706Y356029D02*
D03*
Y361029D02*
D03*
Y371029D02*
D03*
X391979Y356029D02*
D03*
Y361029D02*
D03*
Y371029D02*
D03*
X413706Y366029D02*
D03*
X391979D02*
D03*
X391732Y322913D02*
D03*
X413459D02*
D03*
X391732Y327913D02*
D03*
Y317913D02*
D03*
Y312913D02*
D03*
X413459Y327913D02*
D03*
Y317913D02*
D03*
Y312913D02*
D03*
G54D142*
X418673Y387242D02*
D03*
Y378908D02*
D03*
X675464Y468300D02*
D03*
Y476634D02*
D03*
G54D143*
X404992Y334289D02*
D03*
X413326D02*
D03*
X484741Y344433D02*
D03*
X476407D02*
D03*
X476579Y298462D02*
D03*
X484913D02*
D03*
X513850Y345706D02*
D03*
X522184D02*
D03*
X5767Y455829D02*
D03*
X14101D02*
D03*
Y443629D02*
D03*
X5767D02*
D03*
Y449729D02*
D03*
X14101D02*
D03*
X577696Y345216D02*
D03*
X569362D02*
D03*
X544095D02*
D03*
X552428D02*
D03*
G54D144*
X639054Y397693D02*
D03*
Y381919D02*
D03*
X605436Y31724D02*
D03*
Y47498D02*
D03*
X525018Y31646D02*
D03*
Y47420D02*
D03*
X443976Y32893D02*
D03*
Y48667D02*
D03*
X350454Y147520D02*
D03*
Y131746D02*
D03*
X360984Y38900D02*
D03*
Y54674D02*
D03*
X280800Y32947D02*
D03*
Y48721D02*
D03*
X199134Y32635D02*
D03*
Y48409D02*
D03*
X116532Y33674D02*
D03*
Y49448D02*
D03*
X489112Y372950D02*
D03*
Y357176D02*
D03*
X575511Y356976D02*
D03*
Y372750D02*
D03*
X531412Y372550D02*
D03*
Y356776D02*
D03*
G54D145*
X680452Y139705D02*
D03*
X696226D02*
D03*
X675892Y36347D02*
D03*
X660118D02*
D03*
X675892Y50543D02*
D03*
X660118D02*
D03*
X578218Y54131D02*
D03*
X593992D02*
D03*
Y29639D02*
D03*
X578218D02*
D03*
X593992Y41807D02*
D03*
X578218D02*
D03*
X496864Y54053D02*
D03*
X512638D02*
D03*
Y29483D02*
D03*
X496864D02*
D03*
X512638Y41417D02*
D03*
X496864D02*
D03*
X414964Y54911D02*
D03*
X430738D02*
D03*
Y30234D02*
D03*
X414964D02*
D03*
X430738Y42245D02*
D03*
X414964D02*
D03*
X349306Y41651D02*
D03*
X333532D02*
D03*
X349306Y53741D02*
D03*
X333532D02*
D03*
X252620Y53976D02*
D03*
X268394D02*
D03*
Y29743D02*
D03*
X252620D02*
D03*
X268394Y41730D02*
D03*
X252620D02*
D03*
X170330Y55121D02*
D03*
X186104D02*
D03*
X185974Y29640D02*
D03*
X170200D02*
D03*
X186052Y42276D02*
D03*
X170278D02*
D03*
X90458Y53664D02*
D03*
X106232D02*
D03*
X106258Y29718D02*
D03*
X90484D02*
D03*
X106258Y41652D02*
D03*
X90484D02*
D03*
X21818Y56237D02*
D03*
X37592D02*
D03*
X21818Y44069D02*
D03*
X37592D02*
D03*
X656452Y333035D02*
D03*
X672226D02*
D03*
X731950Y139705D02*
D03*
X716176D02*
D03*
X661068Y449107D02*
D03*
X676842D02*
D03*
G54D146*
X680827Y129565D02*
D03*
X691457D02*
D03*
X657531Y225198D02*
D03*
X668161D02*
D03*
X576231D02*
D03*
X586861D02*
D03*
X494931D02*
D03*
X505561D02*
D03*
X412875Y224901D02*
D03*
X423505D02*
D03*
X331348Y225198D02*
D03*
X341978D02*
D03*
X249292Y225294D02*
D03*
X259922D02*
D03*
X167765Y225198D02*
D03*
X178395D02*
D03*
X85974D02*
D03*
X96604D02*
D03*
X588597Y309557D02*
D03*
X599030D02*
D03*
X731528Y129331D02*
D03*
X721095D02*
D03*
G54D147*
X695576Y88604D02*
D03*
X688096D02*
D03*
Y99234D02*
D03*
X691836D02*
D03*
X695576D02*
D03*
X720690Y99296D02*
D03*
X716950D02*
D03*
X713209D02*
D03*
Y88666D02*
D03*
X720690D02*
D03*
G54D148*
X667368Y201084D02*
D03*
X643746D02*
D03*
X624361D02*
D03*
X600739D02*
D03*
X586068D02*
D03*
X562446D02*
D03*
X519439D02*
D03*
X543061D02*
D03*
X341185D02*
D03*
X317563D02*
D03*
X504768D02*
D03*
X481146D02*
D03*
X438139D02*
D03*
X461761D02*
D03*
X422712Y200786D02*
D03*
X399090D02*
D03*
X356084D02*
D03*
X379706D02*
D03*
X274557Y201084D02*
D03*
X298179D02*
D03*
X259130Y201180D02*
D03*
X235507D02*
D03*
X192501D02*
D03*
X216123D02*
D03*
X110974Y201084D02*
D03*
X134596D02*
D03*
X177602D02*
D03*
X153980D02*
D03*
X52805D02*
D03*
X29183D02*
D03*
X72189D02*
D03*
X95811D02*
D03*
G54D149*
X646807Y190533D02*
D03*
X651807D02*
D03*
X656807D02*
D03*
X661807D02*
D03*
X646807Y162580D02*
D03*
X651807D02*
D03*
X656807D02*
D03*
X661807D02*
D03*
X624558Y190533D02*
D03*
X619558D02*
D03*
X614558D02*
D03*
X609558D02*
D03*
Y162580D02*
D03*
X614558D02*
D03*
X619558D02*
D03*
X624558D02*
D03*
X565507Y190533D02*
D03*
X570507D02*
D03*
X575507D02*
D03*
X580507D02*
D03*
X528258D02*
D03*
X533258D02*
D03*
X538258D02*
D03*
X543258D02*
D03*
X528258Y162580D02*
D03*
X533258D02*
D03*
X538258D02*
D03*
X543258D02*
D03*
X402151Y190235D02*
D03*
X407152D02*
D03*
X412151D02*
D03*
X417151D02*
D03*
X446958Y190533D02*
D03*
X451958D02*
D03*
X456958D02*
D03*
X461958D02*
D03*
X484207D02*
D03*
X489207D02*
D03*
X494207D02*
D03*
X499207D02*
D03*
X484207Y162580D02*
D03*
X489207D02*
D03*
X494207D02*
D03*
X499207D02*
D03*
X446958D02*
D03*
X451958D02*
D03*
X456958D02*
D03*
X461958D02*
D03*
X364903Y190235D02*
D03*
X369903D02*
D03*
X374903D02*
D03*
X379903D02*
D03*
X364903Y162283D02*
D03*
X369903D02*
D03*
X374903D02*
D03*
X379903D02*
D03*
X402151D02*
D03*
X407152D02*
D03*
X412151D02*
D03*
X417151D02*
D03*
X283376Y190533D02*
D03*
X288376D02*
D03*
X293376D02*
D03*
X298376D02*
D03*
X320624Y162580D02*
D03*
X325624D02*
D03*
X330624D02*
D03*
X335624D02*
D03*
X320624Y190533D02*
D03*
X325624D02*
D03*
X330624D02*
D03*
X335624D02*
D03*
X238569Y190629D02*
D03*
X243569D02*
D03*
X248569D02*
D03*
X253569D02*
D03*
X283376Y162580D02*
D03*
X288376D02*
D03*
X293376D02*
D03*
X298376D02*
D03*
X238569Y162676D02*
D03*
X243569D02*
D03*
X248569D02*
D03*
X253569D02*
D03*
X201320Y190629D02*
D03*
X206320D02*
D03*
X211320D02*
D03*
X216320D02*
D03*
X201320Y162676D02*
D03*
X206320D02*
D03*
X211320D02*
D03*
X216320D02*
D03*
X157042Y190533D02*
D03*
X162042D02*
D03*
X167042D02*
D03*
X172042D02*
D03*
X119793D02*
D03*
X124793D02*
D03*
X129793D02*
D03*
X134793D02*
D03*
X119793Y162580D02*
D03*
X124793D02*
D03*
X129793D02*
D03*
X134793D02*
D03*
X157042D02*
D03*
X162042D02*
D03*
X167042D02*
D03*
X172042D02*
D03*
X565507D02*
D03*
X570507D02*
D03*
X575507D02*
D03*
X580507D02*
D03*
X38001Y190533D02*
D03*
X43001D02*
D03*
X48002D02*
D03*
X53001D02*
D03*
X75250D02*
D03*
X80250D02*
D03*
X85250D02*
D03*
X90250D02*
D03*
X75250Y162580D02*
D03*
X80250D02*
D03*
X85250D02*
D03*
X90250D02*
D03*
X38001D02*
D03*
X43001D02*
D03*
X48002D02*
D03*
X53001D02*
D03*
G54D150*
X635857Y166768D02*
D03*
Y156138D02*
D03*
X554557Y166768D02*
D03*
Y156138D02*
D03*
X473257Y166768D02*
D03*
Y156138D02*
D03*
X391201Y166470D02*
D03*
Y155840D02*
D03*
X309674Y166768D02*
D03*
Y156138D02*
D03*
X227618Y166864D02*
D03*
Y156234D02*
D03*
X146091Y166768D02*
D03*
Y156138D02*
D03*
X64300Y166768D02*
D03*
Y156138D02*
D03*
X627588Y396439D02*
D03*
Y386006D02*
D03*
G54D151*
X279403Y286682D02*
D03*
G54D152*
X277435D02*
D03*
X275466D02*
D03*
X273498D02*
D03*
X279403Y283414D02*
D03*
X277435D02*
D03*
X275466D02*
D03*
X273498D02*
D03*
G54D153*
X309252Y279370D02*
D03*
X243476Y279269D02*
D03*
G54D154*
X379626Y275197D02*
D03*
X732732Y44616D02*
D03*
G54D155*
X521151Y301513D02*
D03*
X515801D02*
D03*
G54D156*
X77883Y228683D02*
D03*
Y230651D02*
D03*
Y232620D02*
D03*
Y234588D02*
D03*
Y236557D02*
D03*
Y238525D02*
D03*
Y240494D02*
D03*
Y242462D02*
D03*
Y244431D02*
D03*
Y246399D02*
D03*
Y248368D02*
D03*
Y250336D02*
D03*
X45600D02*
D03*
Y248368D02*
D03*
Y246399D02*
D03*
Y244431D02*
D03*
Y242462D02*
D03*
Y240494D02*
D03*
Y238525D02*
D03*
Y236557D02*
D03*
Y234588D02*
D03*
Y232620D02*
D03*
Y230651D02*
D03*
Y228683D02*
D03*
X127391D02*
D03*
Y230651D02*
D03*
Y232620D02*
D03*
Y234588D02*
D03*
Y236557D02*
D03*
Y238525D02*
D03*
Y240494D02*
D03*
Y242462D02*
D03*
Y244431D02*
D03*
Y246399D02*
D03*
Y248368D02*
D03*
Y250336D02*
D03*
X159675D02*
D03*
Y248368D02*
D03*
Y246399D02*
D03*
Y244431D02*
D03*
Y242462D02*
D03*
Y240494D02*
D03*
Y238525D02*
D03*
Y236557D02*
D03*
Y234588D02*
D03*
Y232620D02*
D03*
Y230651D02*
D03*
Y228683D02*
D03*
X241202Y228779D02*
D03*
Y230747D02*
D03*
Y232716D02*
D03*
Y234684D02*
D03*
Y236653D02*
D03*
Y238621D02*
D03*
Y240590D02*
D03*
Y242558D02*
D03*
Y244527D02*
D03*
Y246495D02*
D03*
Y248464D02*
D03*
Y250432D02*
D03*
X208918D02*
D03*
Y248464D02*
D03*
Y246495D02*
D03*
Y244527D02*
D03*
Y242558D02*
D03*
Y240590D02*
D03*
Y238621D02*
D03*
Y236653D02*
D03*
Y234684D02*
D03*
Y232716D02*
D03*
Y230747D02*
D03*
Y228779D02*
D03*
X290974Y228683D02*
D03*
Y230651D02*
D03*
Y232620D02*
D03*
Y234588D02*
D03*
Y236557D02*
D03*
Y238525D02*
D03*
Y240494D02*
D03*
Y242462D02*
D03*
Y244431D02*
D03*
Y246399D02*
D03*
Y248368D02*
D03*
Y250336D02*
D03*
X323257D02*
D03*
Y248368D02*
D03*
Y246399D02*
D03*
Y244431D02*
D03*
Y242462D02*
D03*
Y240494D02*
D03*
Y238525D02*
D03*
Y236557D02*
D03*
Y234588D02*
D03*
Y232620D02*
D03*
Y230651D02*
D03*
Y228683D02*
D03*
X404785Y228385D02*
D03*
Y230353D02*
D03*
Y232322D02*
D03*
Y234291D02*
D03*
Y236259D02*
D03*
Y238228D02*
D03*
Y240196D02*
D03*
Y242164D02*
D03*
Y244133D02*
D03*
Y246101D02*
D03*
Y248070D02*
D03*
Y250039D02*
D03*
X372501D02*
D03*
Y248070D02*
D03*
Y246101D02*
D03*
Y244133D02*
D03*
Y242164D02*
D03*
Y240196D02*
D03*
Y238228D02*
D03*
Y236259D02*
D03*
Y234291D02*
D03*
Y232322D02*
D03*
Y230353D02*
D03*
Y228385D02*
D03*
X454557Y228683D02*
D03*
Y230651D02*
D03*
Y232620D02*
D03*
Y234588D02*
D03*
Y236557D02*
D03*
Y238525D02*
D03*
Y240494D02*
D03*
Y242462D02*
D03*
Y244431D02*
D03*
Y246399D02*
D03*
Y248368D02*
D03*
Y250336D02*
D03*
X486840D02*
D03*
Y248368D02*
D03*
Y246399D02*
D03*
Y244431D02*
D03*
Y242462D02*
D03*
Y240494D02*
D03*
Y238525D02*
D03*
Y236557D02*
D03*
Y234588D02*
D03*
Y232620D02*
D03*
Y230651D02*
D03*
Y228683D02*
D03*
X649440D02*
D03*
Y230651D02*
D03*
Y232620D02*
D03*
Y234588D02*
D03*
Y236557D02*
D03*
Y238525D02*
D03*
Y240494D02*
D03*
Y242462D02*
D03*
Y244431D02*
D03*
Y246399D02*
D03*
Y248368D02*
D03*
Y250336D02*
D03*
X617157D02*
D03*
Y248368D02*
D03*
Y246399D02*
D03*
Y244431D02*
D03*
Y242462D02*
D03*
Y240494D02*
D03*
Y238525D02*
D03*
Y236557D02*
D03*
Y234588D02*
D03*
Y232620D02*
D03*
Y230651D02*
D03*
Y228683D02*
D03*
X535857D02*
D03*
Y230651D02*
D03*
Y232620D02*
D03*
Y234588D02*
D03*
Y236557D02*
D03*
Y238525D02*
D03*
Y240494D02*
D03*
Y242462D02*
D03*
Y244431D02*
D03*
Y246399D02*
D03*
Y248368D02*
D03*
Y250336D02*
D03*
X568140D02*
D03*
Y248368D02*
D03*
Y246399D02*
D03*
Y244431D02*
D03*
Y242462D02*
D03*
Y240494D02*
D03*
Y238525D02*
D03*
Y236557D02*
D03*
Y234588D02*
D03*
Y232620D02*
D03*
Y230651D02*
D03*
Y228683D02*
D03*
G54D157*
X72569Y255651D02*
D03*
X70600D02*
D03*
X68632D02*
D03*
X66663D02*
D03*
X64694D02*
D03*
X62726D02*
D03*
X60757D02*
D03*
X58789D02*
D03*
X56820D02*
D03*
X54852D02*
D03*
X52883D02*
D03*
X50915D02*
D03*
Y223368D02*
D03*
X52883D02*
D03*
X54852D02*
D03*
X56820D02*
D03*
X58789D02*
D03*
X60757D02*
D03*
X62726D02*
D03*
X64694D02*
D03*
X66663D02*
D03*
X68632D02*
D03*
X70600D02*
D03*
X72569D02*
D03*
X154360D02*
D03*
X152391D02*
D03*
X150423D02*
D03*
X148454D02*
D03*
X146486D02*
D03*
X144517D02*
D03*
X142549D02*
D03*
X140580D02*
D03*
X138612D02*
D03*
X136643D02*
D03*
X134675D02*
D03*
X132706D02*
D03*
Y255651D02*
D03*
X134675D02*
D03*
X136643D02*
D03*
X138612D02*
D03*
X140580D02*
D03*
X142549D02*
D03*
X144517D02*
D03*
X146486D02*
D03*
X148454D02*
D03*
X150423D02*
D03*
X152391D02*
D03*
X154360D02*
D03*
X235887Y255747D02*
D03*
X233918D02*
D03*
X231950D02*
D03*
X229981D02*
D03*
X228013D02*
D03*
X226045D02*
D03*
X224076D02*
D03*
X222107D02*
D03*
X220139D02*
D03*
X218170D02*
D03*
X216202D02*
D03*
X214233D02*
D03*
Y223464D02*
D03*
X216202D02*
D03*
X218170D02*
D03*
X220139D02*
D03*
X222107D02*
D03*
X224076D02*
D03*
X226045D02*
D03*
X228013D02*
D03*
X229981D02*
D03*
X231950D02*
D03*
X233918D02*
D03*
X235887D02*
D03*
X317943Y223368D02*
D03*
X315974D02*
D03*
X314005D02*
D03*
X312037D02*
D03*
X310068D02*
D03*
X308100D02*
D03*
X306132D02*
D03*
X304163D02*
D03*
X302194D02*
D03*
X300226D02*
D03*
X298257D02*
D03*
X296289D02*
D03*
Y255651D02*
D03*
X298257D02*
D03*
X300226D02*
D03*
X302194D02*
D03*
X304163D02*
D03*
X306132D02*
D03*
X308100D02*
D03*
X310068D02*
D03*
X312037D02*
D03*
X314005D02*
D03*
X315974D02*
D03*
X317943D02*
D03*
X399470Y255353D02*
D03*
X397501D02*
D03*
X395533D02*
D03*
X393564D02*
D03*
X391596D02*
D03*
X389627D02*
D03*
X387659D02*
D03*
X385690D02*
D03*
X383722D02*
D03*
X381753D02*
D03*
X379785D02*
D03*
X377816D02*
D03*
Y223070D02*
D03*
X379785D02*
D03*
X381753D02*
D03*
X383722D02*
D03*
X385690D02*
D03*
X387659D02*
D03*
X389627D02*
D03*
X391596D02*
D03*
X393564D02*
D03*
X395533D02*
D03*
X397501D02*
D03*
X399470D02*
D03*
X481525Y223368D02*
D03*
X479557D02*
D03*
X477588D02*
D03*
X475620D02*
D03*
X473651D02*
D03*
X471683D02*
D03*
X469714D02*
D03*
X467746D02*
D03*
X465777D02*
D03*
X463809D02*
D03*
X461840D02*
D03*
X459872D02*
D03*
Y255651D02*
D03*
X461840D02*
D03*
X463809D02*
D03*
X465777D02*
D03*
X467746D02*
D03*
X469714D02*
D03*
X471683D02*
D03*
X473651D02*
D03*
X475620D02*
D03*
X477588D02*
D03*
X479557D02*
D03*
X481525D02*
D03*
X644125D02*
D03*
X642157D02*
D03*
X640188D02*
D03*
X638220D02*
D03*
X636251D02*
D03*
X634283D02*
D03*
X632314D02*
D03*
X630346D02*
D03*
X628377D02*
D03*
X626409D02*
D03*
X624440D02*
D03*
X622472D02*
D03*
Y223368D02*
D03*
X624440D02*
D03*
X626409D02*
D03*
X628377D02*
D03*
X630346D02*
D03*
X632314D02*
D03*
X634283D02*
D03*
X636251D02*
D03*
X638220D02*
D03*
X640188D02*
D03*
X642157D02*
D03*
X644125D02*
D03*
X562825D02*
D03*
X560857D02*
D03*
X558888D02*
D03*
X556920D02*
D03*
X554951D02*
D03*
X552983D02*
D03*
X551014D02*
D03*
X549046D02*
D03*
X547077D02*
D03*
X545109D02*
D03*
X543140D02*
D03*
X541172D02*
D03*
Y255651D02*
D03*
X543140D02*
D03*
X545109D02*
D03*
X547077D02*
D03*
X549046D02*
D03*
X551014D02*
D03*
X552983D02*
D03*
X554951D02*
D03*
X556920D02*
D03*
X558888D02*
D03*
X560857D02*
D03*
X562825D02*
D03*
G54D158*
X61742Y239509D02*
D03*
X143533D02*
D03*
X225060Y239605D02*
D03*
X307116Y239509D02*
D03*
X388643Y239212D02*
D03*
X470698Y239509D02*
D03*
X633298D02*
D03*
X551998D02*
D03*
G54D159*
X23190Y349710D02*
D03*
Y345379D02*
D03*
Y341049D02*
D03*
Y336718D02*
D03*
Y332387D02*
D03*
Y328057D02*
D03*
Y323726D02*
D03*
Y319395D02*
D03*
G54D160*
X19056Y354139D02*
D03*
G54D161*
X8859Y353942D02*
D03*
G54D162*
X17324Y312998D02*
D03*
G54D163*
X12796Y312112D02*
D03*
G54D164*
X8269Y312899D02*
D03*
G54D165*
X8002Y238468D02*
D03*
X13002D02*
D03*
X18002D02*
D03*
X23002D02*
D03*
X8002Y259727D02*
D03*
X13002D02*
D03*
X18002D02*
D03*
X23002D02*
D03*
G54D166*
X175900Y454798D02*
D03*
Y470782D02*
D03*
X180900Y454798D02*
D03*
Y470782D02*
D03*
X185900Y454798D02*
D03*
Y470782D02*
D03*
X190900Y454798D02*
D03*
Y470782D02*
D03*
X195900Y454798D02*
D03*
Y470782D02*
D03*
G54D167*
X463786Y459470D02*
D03*
Y461439D02*
D03*
Y463407D02*
D03*
X458668D02*
D03*
Y461439D02*
D03*
Y459470D02*
D03*
G54D168*
X461227Y461439D02*
D03*
G54D169*
X230035Y414912D02*
D03*
Y412943D02*
D03*
Y410975D02*
D03*
Y409006D02*
D03*
Y407038D02*
D03*
Y405069D02*
D03*
Y403101D02*
D03*
Y401132D02*
D03*
Y399164D02*
D03*
Y397195D02*
D03*
Y395227D02*
D03*
Y393258D02*
D03*
Y391290D02*
D03*
Y389321D02*
D03*
Y387353D02*
D03*
Y385384D02*
D03*
Y383416D02*
D03*
Y381447D02*
D03*
Y379479D02*
D03*
Y377510D02*
D03*
Y375542D02*
D03*
Y373573D02*
D03*
Y371605D02*
D03*
Y369636D02*
D03*
Y367668D02*
D03*
Y365699D02*
D03*
Y363731D02*
D03*
Y361762D02*
D03*
Y359794D02*
D03*
Y357825D02*
D03*
Y355857D02*
D03*
Y353888D02*
D03*
Y351920D02*
D03*
Y349951D02*
D03*
Y347983D02*
D03*
Y346014D02*
D03*
X146965D02*
D03*
Y347983D02*
D03*
Y349951D02*
D03*
Y351920D02*
D03*
Y353888D02*
D03*
Y355857D02*
D03*
Y357825D02*
D03*
Y359794D02*
D03*
Y361762D02*
D03*
Y363731D02*
D03*
Y365699D02*
D03*
Y367668D02*
D03*
Y369636D02*
D03*
Y371605D02*
D03*
Y373573D02*
D03*
Y375542D02*
D03*
Y377510D02*
D03*
Y379479D02*
D03*
Y381447D02*
D03*
Y383416D02*
D03*
Y385384D02*
D03*
Y387353D02*
D03*
Y389321D02*
D03*
Y391290D02*
D03*
Y393258D02*
D03*
Y395227D02*
D03*
Y397195D02*
D03*
Y399164D02*
D03*
Y401132D02*
D03*
Y403101D02*
D03*
Y405069D02*
D03*
Y407038D02*
D03*
Y409006D02*
D03*
Y410975D02*
D03*
Y412943D02*
D03*
Y414912D02*
D03*
G54D170*
X222949Y338928D02*
D03*
X220980D02*
D03*
X219012D02*
D03*
X217043D02*
D03*
X215075D02*
D03*
X213106D02*
D03*
X211138D02*
D03*
X209169D02*
D03*
X207201D02*
D03*
X205232D02*
D03*
X203264D02*
D03*
X201295D02*
D03*
X199327D02*
D03*
X197358D02*
D03*
X195390D02*
D03*
X193421D02*
D03*
X191453D02*
D03*
X189484D02*
D03*
X187516D02*
D03*
X185547D02*
D03*
X183579D02*
D03*
X181610D02*
D03*
X179642D02*
D03*
X177673D02*
D03*
X175705D02*
D03*
X173736D02*
D03*
X171768D02*
D03*
X169799D02*
D03*
X167831D02*
D03*
X165862D02*
D03*
X163894D02*
D03*
X161925D02*
D03*
X159957D02*
D03*
X157988D02*
D03*
X156020D02*
D03*
X154051D02*
D03*
Y421998D02*
D03*
X156020D02*
D03*
X157988D02*
D03*
X159957D02*
D03*
X161925D02*
D03*
X163894D02*
D03*
X165862D02*
D03*
X167831D02*
D03*
X169799D02*
D03*
X171768D02*
D03*
X173736D02*
D03*
X175705D02*
D03*
X177673D02*
D03*
X179642D02*
D03*
X181610D02*
D03*
X183579D02*
D03*
X185547D02*
D03*
X187516D02*
D03*
X189484D02*
D03*
X191453D02*
D03*
X193421D02*
D03*
X195390D02*
D03*
X197358D02*
D03*
X199327D02*
D03*
X201295D02*
D03*
X203264D02*
D03*
X205232D02*
D03*
X207201D02*
D03*
X209169D02*
D03*
X211138D02*
D03*
X213106D02*
D03*
X215075D02*
D03*
X217043D02*
D03*
X219012D02*
D03*
X220980D02*
D03*
X222949D02*
D03*
G54D171*
X144214Y461430D02*
D03*
X158781D02*
D03*
Y452769D02*
D03*
X144214D02*
D03*
G54D172*
X111512Y417353D02*
D03*
Y422353D02*
D03*
Y427353D02*
D03*
Y432353D02*
D03*
Y437353D02*
D03*
Y442353D02*
D03*
Y447353D02*
D03*
Y452353D02*
D03*
X75488Y417353D02*
D03*
Y422353D02*
D03*
Y427353D02*
D03*
Y432353D02*
D03*
Y437353D02*
D03*
Y442353D02*
D03*
Y447353D02*
D03*
Y452353D02*
D03*
G54D173*
X708112Y521950D02*
D03*
X37112Y520750D02*
D03*
G54D174*
X624951Y458437D02*
D03*
Y454697D02*
D03*
Y450957D02*
D03*
X614912D02*
D03*
Y454697D02*
D03*
Y458437D02*
D03*
X576711Y388690D02*
D03*
Y384950D02*
D03*
Y381210D02*
D03*
X566672D02*
D03*
Y384950D02*
D03*
Y388690D02*
D03*
X532676Y388755D02*
D03*
Y385015D02*
D03*
Y381275D02*
D03*
X522637D02*
D03*
Y385015D02*
D03*
Y388755D02*
D03*
X489548Y400830D02*
D03*
Y397090D02*
D03*
Y393350D02*
D03*
X479509D02*
D03*
Y397090D02*
D03*
Y400830D02*
D03*
G54D175*
X675858Y488280D02*
D03*
Y497011D02*
D03*
X605611Y354450D02*
D03*
Y363181D02*
D03*
X518084Y330775D02*
D03*
Y339505D02*
D03*
X561312Y354450D02*
D03*
Y363180D02*
D03*
G54D176*
X60861Y482353D02*
D03*
X52199Y498495D02*
D03*
Y482353D02*
D03*
X60861Y498495D02*
D03*
G54D177*
X59746Y427609D02*
D03*
X53053D02*
D03*
Y424459D02*
D03*
X59746D02*
D03*
G54D178*
X43971Y428002D02*
D03*
X46627D02*
D03*
X43971Y426034D02*
D03*
Y424065D02*
D03*
X46627Y426034D02*
D03*
Y424065D02*
D03*
G54D179*
X436853Y421688D02*
D03*
X538389Y327258D02*
D03*
X640062Y37283D02*
D03*
X558762D02*
D03*
X477462D02*
D03*
X395407D02*
D03*
X313879D02*
D03*
X231824D02*
D03*
X150297D02*
D03*
X70044D02*
D03*
G54D180*
X27961Y445526D02*
D03*
Y441589D02*
D03*
X35048Y443558D02*
D03*
G54D181*
X48342Y453114D02*
D03*
Y458114D02*
D03*
X22555Y453114D02*
D03*
Y458114D02*
D03*
G54D182*
X52346Y402576D02*
D03*
Y407812D02*
D03*
X133295Y331560D02*
D03*
Y336796D02*
D03*
G54D183*
X601198Y485228D02*
D03*
Y472433D02*
D03*
X614288Y485228D02*
D03*
Y472433D02*
D03*
G54D184*
X581935Y477871D02*
D03*
X566335D02*
D03*
G54D185*
X548737Y490642D02*
D03*
X511335D02*
D03*
G54D186*
X587869Y489471D02*
D03*
Y494471D02*
D03*
Y499471D02*
D03*
Y504471D02*
D03*
X567200Y489471D02*
D03*
Y494471D02*
D03*
Y499471D02*
D03*
Y504471D02*
D03*
G54D187*
X577535Y496971D02*
D03*
G54D188*
X601211Y390689D02*
D03*
X596211D02*
D03*
X591211D02*
D03*
X586211D02*
D03*
X542212Y390688D02*
D03*
X547212D02*
D03*
X552212D02*
D03*
X557212D02*
D03*
X499862Y391089D02*
D03*
X504862D02*
D03*
X509862D02*
D03*
X514862D02*
D03*
G54D189*
X633961Y466747D02*
D03*
Y471747D02*
D03*
Y476747D02*
D03*
Y481747D02*
D03*
G54D190*
X518520Y450189D02*
D03*
X531316D02*
D03*
X518520Y463279D02*
D03*
X531316D02*
D03*
G54D191*
X162818Y438853D02*
D03*
X157582D02*
D03*
X135605Y438846D02*
D03*
X130369D02*
D03*
X112842Y400359D02*
D03*
X107606D02*
D03*
G54D192*
X7869Y431953D02*
D03*
X16600D02*
D03*
G54D193*
X414560Y514597D02*
D03*
X428339D02*
D03*
Y494912D02*
D03*
X414560D02*
D03*
X376860D02*
D03*
X390639D02*
D03*
Y514597D02*
D03*
X376860D02*
D03*
X339160D02*
D03*
X352940D02*
D03*
Y494912D02*
D03*
X339160D02*
D03*
X301460D02*
D03*
X315240D02*
D03*
Y514597D02*
D03*
X301460D02*
D03*
X263761D02*
D03*
X277540D02*
D03*
Y494912D02*
D03*
X263761D02*
D03*
X562011Y315447D02*
D03*
Y327258D02*
D03*
X550200Y315447D02*
D03*
Y327258D02*
D03*
X538389Y315447D02*
D03*
X640062Y49094D02*
D03*
X628251Y37283D02*
D03*
Y49094D02*
D03*
X546951D02*
D03*
Y37283D02*
D03*
X558762Y49094D02*
D03*
X477462D02*
D03*
X465651Y37283D02*
D03*
Y49094D02*
D03*
X383595D02*
D03*
Y37283D02*
D03*
X395407Y49094D02*
D03*
X313879D02*
D03*
X302068Y37283D02*
D03*
Y49094D02*
D03*
X220013D02*
D03*
Y37283D02*
D03*
X231824Y49094D02*
D03*
X150297D02*
D03*
X138486Y37283D02*
D03*
Y49094D02*
D03*
X58233D02*
D03*
Y37283D02*
D03*
X70044Y49094D02*
D03*
G54D194*
X692500Y461332D02*
D03*
Y428831D02*
D03*
Y396332D02*
D03*
Y363831D02*
D03*
Y201253D02*
D03*
Y233753D02*
D03*
Y266253D02*
D03*
Y298753D02*
D03*
Y331253D02*
D03*
G54D195*
Y168753D02*
D03*
G54D196*
X379035Y420653D02*
D03*
X389035D02*
D03*
X399035D02*
D03*
X379035Y396653D02*
D03*
X389035D02*
D03*
X399035D02*
D03*
X303000Y352053D02*
D03*
X293000D02*
D03*
X275700Y396653D02*
D03*
X265700D02*
D03*
X255700D02*
D03*
X337800D02*
D03*
X347800D02*
D03*
X357800D02*
D03*
X296750D02*
D03*
X306750D02*
D03*
X316750D02*
D03*
X357800Y420653D02*
D03*
X347800D02*
D03*
X337800D02*
D03*
X316750D02*
D03*
X306750D02*
D03*
X296750D02*
D03*
X275700D02*
D03*
X265700D02*
D03*
X255700D02*
D03*
X334500Y352053D02*
D03*
X324500D02*
D03*
X271300D02*
D03*
X261300D02*
D03*
G54D197*
X436024Y328898D02*
D03*
Y318898D02*
D03*
Y308898D02*
D03*
Y370472D02*
D03*
Y360472D02*
D03*
Y350472D02*
D03*
X459842Y308898D02*
D03*
Y318898D02*
D03*
Y328898D02*
D03*
Y350374D02*
D03*
Y360374D02*
D03*
Y370374D02*
D03*
G54D198*
X668427Y282716D02*
D03*
X587127D02*
D03*
X505827D02*
D03*
X423771Y282419D02*
D03*
X364303Y287596D02*
D03*
X218397Y282812D02*
D03*
X96870Y282716D02*
D03*
X178661D02*
D03*
X314476Y311639D02*
D03*
X190100Y316353D02*
D03*
X70300Y336053D02*
D03*
Y373547D02*
D03*
G54D199*
X668427Y272716D02*
D03*
X658427Y282716D02*
D03*
Y272716D02*
D03*
X648427Y282716D02*
D03*
Y272716D02*
D03*
X638427Y282716D02*
D03*
Y272716D02*
D03*
X587127D02*
D03*
X577127Y282716D02*
D03*
Y272716D02*
D03*
X567127Y282716D02*
D03*
Y272716D02*
D03*
X557127Y282716D02*
D03*
Y272716D02*
D03*
X505827D02*
D03*
X495827Y282716D02*
D03*
Y272716D02*
D03*
X485827Y282716D02*
D03*
Y272716D02*
D03*
X475827Y282716D02*
D03*
Y272716D02*
D03*
X423771Y272419D02*
D03*
X413771Y282419D02*
D03*
Y272419D02*
D03*
X403771Y282419D02*
D03*
Y272419D02*
D03*
X393771Y282419D02*
D03*
Y272419D02*
D03*
X364303Y277596D02*
D03*
X354303Y287596D02*
D03*
Y277596D02*
D03*
X344303Y287596D02*
D03*
Y277596D02*
D03*
X334303Y287596D02*
D03*
Y277596D02*
D03*
X218397Y272812D02*
D03*
X208397Y282812D02*
D03*
Y272812D02*
D03*
X198397Y282812D02*
D03*
Y272812D02*
D03*
X188397Y282812D02*
D03*
Y272812D02*
D03*
X96870Y272716D02*
D03*
X86870Y282716D02*
D03*
Y272716D02*
D03*
X76870Y282716D02*
D03*
Y272716D02*
D03*
X66870Y282716D02*
D03*
Y272716D02*
D03*
X126969Y288740D02*
D03*
X117205D02*
D03*
X178661Y272716D02*
D03*
X168661Y282716D02*
D03*
Y272716D02*
D03*
X158661Y282716D02*
D03*
Y272716D02*
D03*
X148661Y282716D02*
D03*
Y272716D02*
D03*
X495807Y337008D02*
D03*
X505807D02*
D03*
X495807Y327008D02*
D03*
X505807D02*
D03*
X495807Y317008D02*
D03*
X505807D02*
D03*
X495807Y307008D02*
D03*
X354476Y321639D02*
D03*
Y311639D02*
D03*
X344476Y321639D02*
D03*
Y311639D02*
D03*
X334476Y321639D02*
D03*
Y311639D02*
D03*
X324476Y321639D02*
D03*
Y311639D02*
D03*
X314476Y321639D02*
D03*
X80100Y306353D02*
D03*
Y316353D02*
D03*
X90100Y306353D02*
D03*
Y316353D02*
D03*
X100100Y306353D02*
D03*
Y316353D02*
D03*
X110100Y306353D02*
D03*
Y316353D02*
D03*
X120100Y306353D02*
D03*
Y316353D02*
D03*
X130100Y306353D02*
D03*
Y316353D02*
D03*
X140100Y306353D02*
D03*
Y316353D02*
D03*
X150100Y306353D02*
D03*
Y316353D02*
D03*
X160100Y306353D02*
D03*
Y316353D02*
D03*
X170100Y306353D02*
D03*
Y316353D02*
D03*
X180100Y306353D02*
D03*
Y316353D02*
D03*
X190100Y306353D02*
D03*
X110300Y346053D02*
D03*
Y336053D02*
D03*
X100300Y346053D02*
D03*
Y336053D02*
D03*
X90300Y346053D02*
D03*
Y336053D02*
D03*
X80300Y346053D02*
D03*
Y336053D02*
D03*
X70300Y346053D02*
D03*
X110300Y383546D02*
D03*
Y373547D02*
D03*
X100300Y383546D02*
D03*
Y373547D02*
D03*
X90300Y383546D02*
D03*
Y373547D02*
D03*
X80300Y383546D02*
D03*
Y373547D02*
D03*
X70300Y383546D02*
D03*
G54D200*
X136969Y288740D02*
D03*
X505807Y307008D02*
D03*
G54D201*
X615519Y300722D02*
D03*
Y314122D02*
D03*
X668519D02*
D03*
Y300722D02*
D03*
G54D202*
X18400Y465453D02*
D03*
Y493053D02*
D03*
G54D203*
X8600Y470353D02*
D03*
Y488153D02*
D03*
G54D204*
X25000Y372053D02*
D03*
Y419375D02*
D03*
G54D205*
X35700Y390753D02*
D03*
Y400674D02*
D03*
X43600D02*
D03*
Y390753D02*
D03*
G54D206*
X655700Y417953D02*
D03*
X669100D02*
D03*
Y364953D02*
D03*
X655700D02*
D03*
M02*
