G04*
G04 #@! TF.GenerationSoftware,Altium Limited,Altium Designer,19.0.12 (326)*
G04*
G04 Layer_Color=16711935*
%FSLAX25Y25*%
%MOIN*%
G70*
G01*
G75*
%ADD12C,0.01000*%
%ADD15C,0.00800*%
%ADD16C,0.00100*%
%ADD292C,0.01500*%
G54D12*
X1184582Y171274D02*
Y165276D01*
X1187581D01*
X1188581Y166275D01*
Y167275D01*
X1187581Y168275D01*
X1184582D01*
X1187581D01*
X1188581Y169274D01*
Y170274D01*
X1187581Y171274D01*
X1184582D01*
X1191580Y165276D02*
X1193579D01*
X1194579Y166275D01*
Y168275D01*
X1193579Y169274D01*
X1191580D01*
X1190580Y168275D01*
Y166275D01*
X1191580Y165276D01*
X1197578Y169274D02*
X1199577D01*
X1200577Y168275D01*
Y165276D01*
X1197578D01*
X1196578Y166275D01*
X1197578Y167275D01*
X1200577D01*
X1202576Y169274D02*
Y165276D01*
Y167275D01*
X1203576Y168275D01*
X1204576Y169274D01*
X1205575D01*
X1212573Y171274D02*
Y165276D01*
X1209574D01*
X1208574Y166275D01*
Y168275D01*
X1209574Y169274D01*
X1212573D01*
X1220571Y171274D02*
Y165276D01*
X1224569D01*
X1227568Y169274D02*
X1229568D01*
X1230567Y168275D01*
Y165276D01*
X1227568D01*
X1226569Y166275D01*
X1227568Y167275D01*
X1230567D01*
X1232567Y169274D02*
Y166275D01*
X1233566Y165276D01*
X1236565D01*
Y164276D01*
X1235566Y163276D01*
X1234566D01*
X1236565Y165276D02*
Y169274D01*
X1241564Y165276D02*
X1239564D01*
X1238565Y166275D01*
Y168275D01*
X1239564Y169274D01*
X1241564D01*
X1242563Y168275D01*
Y167275D01*
X1238565D01*
X1244563Y169274D02*
Y165276D01*
Y167275D01*
X1245562Y168275D01*
X1246562Y169274D01*
X1247562D01*
X1260558Y170274D02*
X1259558Y171274D01*
X1257559D01*
X1256559Y170274D01*
Y169274D01*
X1257559Y168275D01*
X1259558D01*
X1260558Y167275D01*
Y166275D01*
X1259558Y165276D01*
X1257559D01*
X1256559Y166275D01*
X1263557Y170274D02*
Y169274D01*
X1262557D01*
X1264556D01*
X1263557D01*
Y166275D01*
X1264556Y165276D01*
X1268555Y169274D02*
X1270554D01*
X1271554Y168275D01*
Y165276D01*
X1268555D01*
X1267555Y166275D01*
X1268555Y167275D01*
X1271554D01*
X1277552Y169274D02*
X1274553D01*
X1273553Y168275D01*
Y166275D01*
X1274553Y165276D01*
X1277552D01*
X1279552D02*
Y171274D01*
Y167275D02*
X1282551Y169274D01*
X1279552Y167275D02*
X1282551Y165276D01*
X1130595Y141276D02*
Y147274D01*
X1127596Y144275D01*
X1131595D01*
X1130595Y117276D02*
Y123274D01*
X1127596Y120275D01*
X1131595D01*
X1133594Y117276D02*
Y118275D01*
X1134594D01*
Y117276D01*
X1133594D01*
X1142591D02*
X1138593D01*
X1142591Y121274D01*
Y122274D01*
X1141592Y123274D01*
X1139592D01*
X1138593Y122274D01*
X1130595Y93276D02*
Y99274D01*
X1127596Y96275D01*
X1131595D01*
X1133594Y93276D02*
Y94275D01*
X1134594D01*
Y93276D01*
X1133594D01*
X1142591D02*
X1138593D01*
X1142591Y97274D01*
Y98274D01*
X1141592Y99274D01*
X1139592D01*
X1138593Y98274D01*
X1130595Y69276D02*
Y75274D01*
X1127596Y72275D01*
X1131595D01*
X1133594Y69276D02*
Y70275D01*
X1134594D01*
Y69276D01*
X1133594D01*
X1142591D02*
X1138593D01*
X1142591Y73274D01*
Y74274D01*
X1141592Y75274D01*
X1139592D01*
X1138593Y74274D01*
X1130595Y45276D02*
Y51274D01*
X1127596Y48275D01*
X1131595D01*
X1133594Y45276D02*
Y46275D01*
X1134594D01*
Y45276D01*
X1133594D01*
X1142591D02*
X1138593D01*
X1142591Y49274D01*
Y50274D01*
X1141592Y51274D01*
X1139592D01*
X1138593Y50274D01*
X1130595Y21276D02*
Y27274D01*
X1127596Y24275D01*
X1131595D01*
X1133594Y21276D02*
Y22275D01*
X1134594D01*
Y21276D01*
X1133594D01*
X1142591D02*
X1138593D01*
X1142591Y25274D01*
Y26274D01*
X1141592Y27274D01*
X1139592D01*
X1138593Y26274D01*
X1130595Y-2724D02*
Y3274D01*
X1127596Y275D01*
X1131595D01*
Y170274D02*
X1130595Y171274D01*
X1128596D01*
X1127596Y170274D01*
Y166275D01*
X1128596Y165276D01*
X1130595D01*
X1131595Y166275D01*
X1134594Y165276D02*
X1136593D01*
X1137593Y166275D01*
Y168275D01*
X1136593Y169274D01*
X1134594D01*
X1133594Y168275D01*
Y166275D01*
X1134594Y165276D01*
X1139592D02*
Y169274D01*
X1142591D01*
X1143591Y168275D01*
Y165276D01*
X1145590D02*
X1148589D01*
X1149589Y166275D01*
X1148589Y167275D01*
X1146590D01*
X1145590Y168275D01*
X1146590Y169274D01*
X1149589D01*
X1152588Y170274D02*
Y169274D01*
X1151588D01*
X1153588D01*
X1152588D01*
Y166275D01*
X1153588Y165276D01*
X1157586Y169274D02*
X1159586D01*
X1160585Y168275D01*
Y165276D01*
X1157586D01*
X1156587Y166275D01*
X1157586Y167275D01*
X1160585D01*
X1162585Y165276D02*
Y169274D01*
X1165584D01*
X1166584Y168275D01*
Y165276D01*
X1169582Y170274D02*
Y169274D01*
X1168583D01*
X1170582D01*
X1169582D01*
Y166275D01*
X1170582Y165276D01*
X1062613Y146274D02*
X1063612Y147274D01*
X1065612D01*
X1066611Y146274D01*
Y142275D01*
X1065612Y141276D01*
X1063612D01*
X1062613Y142275D01*
Y146274D01*
X1068611Y141276D02*
Y142275D01*
X1069610D01*
Y141276D01*
X1068611D01*
X1076608D02*
Y147274D01*
X1073609Y144275D01*
X1077608D01*
X1079607Y146274D02*
X1080607Y147274D01*
X1082606D01*
X1083606Y146274D01*
Y142275D01*
X1082606Y141276D01*
X1080607D01*
X1079607Y142275D01*
Y146274D01*
X1085605Y141276D02*
Y145274D01*
X1086605D01*
X1087605Y144275D01*
Y141276D01*
Y144275D01*
X1088604Y145274D01*
X1089604Y144275D01*
Y141276D01*
X1091603D02*
X1093603D01*
X1092603D01*
Y145274D01*
X1091603D01*
X1096602Y141276D02*
X1098601D01*
X1097601D01*
Y147274D01*
X1096602D01*
X1062613Y134274D02*
X1063612Y135274D01*
X1065612D01*
X1066611Y134274D01*
Y133274D01*
X1065612Y132275D01*
X1064612D01*
X1065612D01*
X1066611Y131275D01*
Y130275D01*
X1065612Y129276D01*
X1063612D01*
X1062613Y130275D01*
X1068611Y129276D02*
Y130275D01*
X1069610D01*
Y129276D01*
X1068611D01*
X1073609Y134274D02*
X1074609Y135274D01*
X1076608D01*
X1077608Y134274D01*
Y130275D01*
X1076608Y129276D01*
X1074609D01*
X1073609Y130275D01*
Y134274D01*
X1079607Y135274D02*
X1083606D01*
Y134274D01*
X1079607Y130275D01*
Y129276D01*
X1085605D02*
Y133274D01*
X1086605D01*
X1087605Y132275D01*
Y129276D01*
Y132275D01*
X1088604Y133274D01*
X1089604Y132275D01*
Y129276D01*
X1091603D02*
X1093603D01*
X1092603D01*
Y133274D01*
X1091603D01*
X1096602Y129276D02*
X1098601D01*
X1097601D01*
Y135274D01*
X1096602D01*
X1065612Y117276D02*
Y123274D01*
X1062613Y120275D01*
X1066611D01*
X1068611Y117276D02*
Y118275D01*
X1069610D01*
Y117276D01*
X1068611D01*
X1073609Y123274D02*
X1077608D01*
Y122274D01*
X1073609Y118275D01*
Y117276D01*
X1083606D02*
X1079607D01*
X1083606Y121274D01*
Y122274D01*
X1082606Y123274D01*
X1080607D01*
X1079607Y122274D01*
X1085605Y117276D02*
Y121274D01*
X1086605D01*
X1087605Y120275D01*
Y117276D01*
Y120275D01*
X1088604Y121274D01*
X1089604Y120275D01*
Y117276D01*
X1091603D02*
X1093603D01*
X1092603D01*
Y121274D01*
X1091603D01*
X1096602Y117276D02*
X1098601D01*
X1097601D01*
Y123274D01*
X1096602D01*
X1062613Y105276D02*
X1064612D01*
X1063612D01*
Y111274D01*
X1062613Y110274D01*
X1067611Y105276D02*
Y106275D01*
X1068611D01*
Y105276D01*
X1067611D01*
X1072609Y110274D02*
X1073609Y111274D01*
X1075608D01*
X1076608Y110274D01*
Y109274D01*
X1075608Y108275D01*
X1074609D01*
X1075608D01*
X1076608Y107275D01*
Y106275D01*
X1075608Y105276D01*
X1073609D01*
X1072609Y106275D01*
X1078607Y110274D02*
X1079607Y111274D01*
X1081606D01*
X1082606Y110274D01*
Y109274D01*
X1081606Y108275D01*
X1082606Y107275D01*
Y106275D01*
X1081606Y105276D01*
X1079607D01*
X1078607Y106275D01*
Y107275D01*
X1079607Y108275D01*
X1078607Y109274D01*
Y110274D01*
X1079607Y108275D02*
X1081606D01*
X1084606Y105276D02*
Y109274D01*
X1085605D01*
X1086605Y108275D01*
Y105276D01*
Y108275D01*
X1087605Y109274D01*
X1088604Y108275D01*
Y105276D01*
X1090604D02*
X1092603D01*
X1091603D01*
Y109274D01*
X1090604D01*
X1095602Y105276D02*
X1097601D01*
X1096602D01*
Y111274D01*
X1095602D01*
X1062613Y93276D02*
X1064612D01*
X1063612D01*
Y99274D01*
X1062613Y98274D01*
X1067611Y94275D02*
X1068611Y93276D01*
X1070610D01*
X1071610Y94275D01*
Y98274D01*
X1070610Y99274D01*
X1068611D01*
X1067611Y98274D01*
Y97274D01*
X1068611Y96275D01*
X1071610D01*
X1073609Y93276D02*
Y94275D01*
X1074609D01*
Y93276D01*
X1073609D01*
X1082606Y99274D02*
X1080607Y98274D01*
X1078607Y96275D01*
Y94275D01*
X1079607Y93276D01*
X1081606D01*
X1082606Y94275D01*
Y95275D01*
X1081606Y96275D01*
X1078607D01*
X1084606Y94275D02*
X1085605Y93276D01*
X1087605D01*
X1088604Y94275D01*
Y98274D01*
X1087605Y99274D01*
X1085605D01*
X1084606Y98274D01*
Y97274D01*
X1085605Y96275D01*
X1088604D01*
X1090604Y93276D02*
Y97274D01*
X1091603D01*
X1092603Y96275D01*
Y93276D01*
Y96275D01*
X1093603Y97274D01*
X1094602Y96275D01*
Y93276D01*
X1096602D02*
X1098601D01*
X1097601D01*
Y97274D01*
X1096602D01*
X1101600Y93276D02*
X1103599D01*
X1102600D01*
Y99274D01*
X1101600D01*
X1062613Y81276D02*
X1064612D01*
X1063612D01*
Y87274D01*
X1062613Y86274D01*
X1067611Y81276D02*
Y82275D01*
X1068611D01*
Y81276D01*
X1067611D01*
X1072609Y86274D02*
X1073609Y87274D01*
X1075608D01*
X1076608Y86274D01*
Y85274D01*
X1075608Y84275D01*
X1074609D01*
X1075608D01*
X1076608Y83275D01*
Y82275D01*
X1075608Y81276D01*
X1073609D01*
X1072609Y82275D01*
X1078607Y86274D02*
X1079607Y87274D01*
X1081606D01*
X1082606Y86274D01*
Y85274D01*
X1081606Y84275D01*
X1082606Y83275D01*
Y82275D01*
X1081606Y81276D01*
X1079607D01*
X1078607Y82275D01*
Y83275D01*
X1079607Y84275D01*
X1078607Y85274D01*
Y86274D01*
X1079607Y84275D02*
X1081606D01*
X1084606Y81276D02*
Y85274D01*
X1085605D01*
X1086605Y84275D01*
Y81276D01*
Y84275D01*
X1087605Y85274D01*
X1088604Y84275D01*
Y81276D01*
X1090604D02*
X1092603D01*
X1091603D01*
Y85274D01*
X1090604D01*
X1095602Y81276D02*
X1097601D01*
X1096602D01*
Y87274D01*
X1095602D01*
X1062613Y70275D02*
X1063612Y69276D01*
X1065612D01*
X1066611Y70275D01*
Y74274D01*
X1065612Y75274D01*
X1063612D01*
X1062613Y74274D01*
Y73274D01*
X1063612Y72275D01*
X1066611D01*
X1068611Y69276D02*
Y70275D01*
X1069610D01*
Y69276D01*
X1068611D01*
X1076608D02*
Y75274D01*
X1073609Y72275D01*
X1077608D01*
X1083606Y75274D02*
X1079607D01*
Y72275D01*
X1081606Y73274D01*
X1082606D01*
X1083606Y72275D01*
Y70275D01*
X1082606Y69276D01*
X1080607D01*
X1079607Y70275D01*
X1085605Y69276D02*
Y73274D01*
X1086605D01*
X1087605Y72275D01*
Y69276D01*
Y72275D01*
X1088604Y73274D01*
X1089604Y72275D01*
Y69276D01*
X1091603D02*
X1093603D01*
X1092603D01*
Y73274D01*
X1091603D01*
X1096602Y69276D02*
X1098601D01*
X1097601D01*
Y75274D01*
X1096602D01*
X1062613Y57276D02*
X1064612D01*
X1063612D01*
Y63274D01*
X1062613Y62274D01*
X1067611Y57276D02*
Y58275D01*
X1068611D01*
Y57276D01*
X1067611D01*
X1072609Y62274D02*
X1073609Y63274D01*
X1075608D01*
X1076608Y62274D01*
Y61274D01*
X1075608Y60275D01*
X1074609D01*
X1075608D01*
X1076608Y59275D01*
Y58275D01*
X1075608Y57276D01*
X1073609D01*
X1072609Y58275D01*
X1078607Y62274D02*
X1079607Y63274D01*
X1081606D01*
X1082606Y62274D01*
Y61274D01*
X1081606Y60275D01*
X1082606Y59275D01*
Y58275D01*
X1081606Y57276D01*
X1079607D01*
X1078607Y58275D01*
Y59275D01*
X1079607Y60275D01*
X1078607Y61274D01*
Y62274D01*
X1079607Y60275D02*
X1081606D01*
X1084606Y57276D02*
Y61274D01*
X1085605D01*
X1086605Y60275D01*
Y57276D01*
Y60275D01*
X1087605Y61274D01*
X1088604Y60275D01*
Y57276D01*
X1090604D02*
X1092603D01*
X1091603D01*
Y61274D01*
X1090604D01*
X1095602Y57276D02*
X1097601D01*
X1096602D01*
Y63274D01*
X1095602D01*
X1062613Y45276D02*
X1064612D01*
X1063612D01*
Y51274D01*
X1062613Y50274D01*
X1067611Y46275D02*
X1068611Y45276D01*
X1070610D01*
X1071610Y46275D01*
Y50274D01*
X1070610Y51274D01*
X1068611D01*
X1067611Y50274D01*
Y49274D01*
X1068611Y48275D01*
X1071610D01*
X1073609Y45276D02*
Y46275D01*
X1074609D01*
Y45276D01*
X1073609D01*
X1082606Y51274D02*
X1080607Y50274D01*
X1078607Y48275D01*
Y46275D01*
X1079607Y45276D01*
X1081606D01*
X1082606Y46275D01*
Y47275D01*
X1081606Y48275D01*
X1078607D01*
X1084606Y46275D02*
X1085605Y45276D01*
X1087605D01*
X1088604Y46275D01*
Y50274D01*
X1087605Y51274D01*
X1085605D01*
X1084606Y50274D01*
Y49274D01*
X1085605Y48275D01*
X1088604D01*
X1090604Y45276D02*
Y49274D01*
X1091603D01*
X1092603Y48275D01*
Y45276D01*
Y48275D01*
X1093603Y49274D01*
X1094602Y48275D01*
Y45276D01*
X1096602D02*
X1098601D01*
X1097601D01*
Y49274D01*
X1096602D01*
X1101600Y45276D02*
X1103599D01*
X1102600D01*
Y51274D01*
X1101600D01*
X1062613Y33276D02*
X1064612D01*
X1063612D01*
Y39274D01*
X1062613Y38274D01*
X1067611Y33276D02*
Y34275D01*
X1068611D01*
Y33276D01*
X1067611D01*
X1072609Y38274D02*
X1073609Y39274D01*
X1075608D01*
X1076608Y38274D01*
Y37274D01*
X1075608Y36275D01*
X1074609D01*
X1075608D01*
X1076608Y35275D01*
Y34275D01*
X1075608Y33276D01*
X1073609D01*
X1072609Y34275D01*
X1078607Y38274D02*
X1079607Y39274D01*
X1081606D01*
X1082606Y38274D01*
Y37274D01*
X1081606Y36275D01*
X1082606Y35275D01*
Y34275D01*
X1081606Y33276D01*
X1079607D01*
X1078607Y34275D01*
Y35275D01*
X1079607Y36275D01*
X1078607Y37274D01*
Y38274D01*
X1079607Y36275D02*
X1081606D01*
X1084606Y33276D02*
Y37274D01*
X1085605D01*
X1086605Y36275D01*
Y33276D01*
Y36275D01*
X1087605Y37274D01*
X1088604Y36275D01*
Y33276D01*
X1090604D02*
X1092603D01*
X1091603D01*
Y37274D01*
X1090604D01*
X1095602Y33276D02*
X1097601D01*
X1096602D01*
Y39274D01*
X1095602D01*
X1065612Y21276D02*
Y27274D01*
X1062613Y24275D01*
X1066611D01*
X1068611Y21276D02*
Y22275D01*
X1069610D01*
Y21276D01*
X1068611D01*
X1073609Y27274D02*
X1077608D01*
Y26274D01*
X1073609Y22275D01*
Y21276D01*
X1083606D02*
X1079607D01*
X1083606Y25274D01*
Y26274D01*
X1082606Y27274D01*
X1080607D01*
X1079607Y26274D01*
X1085605Y21276D02*
Y25274D01*
X1086605D01*
X1087605Y24275D01*
Y21276D01*
Y24275D01*
X1088604Y25274D01*
X1089604Y24275D01*
Y21276D01*
X1091603D02*
X1093603D01*
X1092603D01*
Y25274D01*
X1091603D01*
X1096602Y21276D02*
X1098601D01*
X1097601D01*
Y27274D01*
X1096602D01*
X1062613Y14274D02*
X1063612Y15274D01*
X1065612D01*
X1066611Y14274D01*
Y13274D01*
X1065612Y12275D01*
X1064612D01*
X1065612D01*
X1066611Y11275D01*
Y10275D01*
X1065612Y9276D01*
X1063612D01*
X1062613Y10275D01*
X1068611Y9276D02*
Y10275D01*
X1069610D01*
Y9276D01*
X1068611D01*
X1073609Y14274D02*
X1074609Y15274D01*
X1076608D01*
X1077608Y14274D01*
Y10275D01*
X1076608Y9276D01*
X1074609D01*
X1073609Y10275D01*
Y14274D01*
X1079607Y15274D02*
X1083606D01*
Y14274D01*
X1079607Y10275D01*
Y9276D01*
X1085605D02*
Y13274D01*
X1086605D01*
X1087605Y12275D01*
Y9276D01*
Y12275D01*
X1088604Y13274D01*
X1089604Y12275D01*
Y9276D01*
X1091603D02*
X1093603D01*
X1092603D01*
Y13274D01*
X1091603D01*
X1096602Y9276D02*
X1098601D01*
X1097601D01*
Y15274D01*
X1096602D01*
X1062613Y2274D02*
X1063612Y3274D01*
X1065612D01*
X1066611Y2274D01*
Y-1725D01*
X1065612Y-2724D01*
X1063612D01*
X1062613Y-1725D01*
Y2274D01*
X1068611Y-2724D02*
Y-1725D01*
X1069610D01*
Y-2724D01*
X1068611D01*
X1076608D02*
Y3274D01*
X1073609Y275D01*
X1077608D01*
X1079607Y2274D02*
X1080607Y3274D01*
X1082606D01*
X1083606Y2274D01*
Y-1725D01*
X1082606Y-2724D01*
X1080607D01*
X1079607Y-1725D01*
Y2274D01*
X1085605Y-2724D02*
Y1274D01*
X1086605D01*
X1087605Y275D01*
Y-2724D01*
Y275D01*
X1088604Y1274D01*
X1089604Y275D01*
Y-2724D01*
X1091603D02*
X1093603D01*
X1092603D01*
Y1274D01*
X1091603D01*
X1096602Y-2724D02*
X1098601D01*
X1097601D01*
Y3274D01*
X1096602D01*
X1062613Y171274D02*
X1066611D01*
X1064612D01*
Y165276D01*
X1068611Y171274D02*
Y165276D01*
Y168275D01*
X1069610Y169274D01*
X1071610D01*
X1072609Y168275D01*
Y165276D01*
X1074609D02*
X1076608D01*
X1075608D01*
Y169274D01*
X1074609D01*
X1083606D02*
X1080607D01*
X1079607Y168275D01*
Y166275D01*
X1080607Y165276D01*
X1083606D01*
X1085605D02*
Y171274D01*
Y167275D02*
X1088604Y169274D01*
X1085605Y167275D02*
X1088604Y165276D01*
X1091603D02*
Y169274D01*
X1094602D01*
X1095602Y168275D01*
Y165276D01*
X1100600D02*
X1098601D01*
X1097601Y166275D01*
Y168275D01*
X1098601Y169274D01*
X1100600D01*
X1101600Y168275D01*
Y167275D01*
X1097601D01*
X1103599Y165276D02*
X1106598D01*
X1107598Y166275D01*
X1106598Y167275D01*
X1104599D01*
X1103599Y168275D01*
X1104599Y169274D01*
X1107598D01*
X1109597Y165276D02*
X1112596D01*
X1113596Y166275D01*
X1112596Y167275D01*
X1110597D01*
X1109597Y168275D01*
X1110597Y169274D01*
X1113596D01*
X980635Y146274D02*
X979635Y147274D01*
X977636D01*
X976636Y146274D01*
Y145274D01*
X977636Y144275D01*
X979635D01*
X980635Y143275D01*
Y142275D01*
X979635Y141276D01*
X977636D01*
X976636Y142275D01*
X983634Y141276D02*
X985633D01*
X986633Y142275D01*
Y144275D01*
X985633Y145274D01*
X983634D01*
X982634Y144275D01*
Y142275D01*
X983634Y141276D01*
X988632D02*
X990631D01*
X989632D01*
Y147274D01*
X988632D01*
X997629D02*
Y141276D01*
X994630D01*
X993630Y142275D01*
Y144275D01*
X994630Y145274D01*
X997629D01*
X1002627Y141276D02*
X1000628D01*
X999628Y142275D01*
Y144275D01*
X1000628Y145274D01*
X1002627D01*
X1003627Y144275D01*
Y143275D01*
X999628D01*
X1005626Y145274D02*
Y141276D01*
Y143275D01*
X1006626Y144275D01*
X1007626Y145274D01*
X1008626D01*
X1017623Y141276D02*
Y147274D01*
X1020622D01*
X1021621Y146274D01*
Y144275D01*
X1020622Y143275D01*
X1017623D01*
X1019622D02*
X1021621Y141276D01*
X1026620D02*
X1024620D01*
X1023621Y142275D01*
Y144275D01*
X1024620Y145274D01*
X1026620D01*
X1027619Y144275D01*
Y143275D01*
X1023621D01*
X1029619Y141276D02*
X1032618D01*
X1033617Y142275D01*
X1032618Y143275D01*
X1030618D01*
X1029619Y144275D01*
X1030618Y145274D01*
X1033617D01*
X1035617Y141276D02*
X1037616D01*
X1036617D01*
Y145274D01*
X1035617D01*
X1040615Y141276D02*
X1043614D01*
X1044614Y142275D01*
X1043614Y143275D01*
X1041615D01*
X1040615Y144275D01*
X1041615Y145274D01*
X1044614D01*
X1047613Y146274D02*
Y145274D01*
X1046613D01*
X1048613D01*
X1047613D01*
Y142275D01*
X1048613Y141276D01*
X980635Y134274D02*
X979635Y135274D01*
X977636D01*
X976636Y134274D01*
Y130275D01*
X977636Y129276D01*
X979635D01*
X980635Y130275D01*
X983634Y129276D02*
X985633D01*
X986633Y130275D01*
Y132275D01*
X985633Y133274D01*
X983634D01*
X982634Y132275D01*
Y130275D01*
X983634Y129276D01*
X988632Y127276D02*
Y133274D01*
X991631D01*
X992631Y132275D01*
Y130275D01*
X991631Y129276D01*
X988632D01*
X994630Y127276D02*
Y133274D01*
X997629D01*
X998629Y132275D01*
Y130275D01*
X997629Y129276D01*
X994630D01*
X1003627D02*
X1001628D01*
X1000628Y130275D01*
Y132275D01*
X1001628Y133274D01*
X1003627D01*
X1004627Y132275D01*
Y131275D01*
X1000628D01*
X1006626Y133274D02*
Y129276D01*
Y131275D01*
X1007626Y132275D01*
X1008626Y133274D01*
X1009625D01*
X980635Y123274D02*
X976636D01*
Y120275D01*
X978635D01*
X976636D01*
Y117276D01*
X982634D02*
Y123274D01*
X985633D01*
X986633Y122274D01*
Y120275D01*
X985633Y119275D01*
X982634D01*
X984633D02*
X986633Y117276D01*
X988632Y120275D02*
X992631D01*
X997629Y117276D02*
Y123274D01*
X994630Y120275D01*
X998629D01*
X1006626Y123274D02*
X1010625D01*
X1008626D01*
Y117276D01*
X1016623Y122274D02*
X1015623Y123274D01*
X1013624D01*
X1012624Y122274D01*
Y118275D01*
X1013624Y117276D01*
X1015623D01*
X1016623Y118275D01*
Y120275D01*
X1014624D01*
X1018622Y117276D02*
X1020622D01*
X1019622D01*
Y123274D01*
X1018622Y122274D01*
X1023621Y123274D02*
X1027619D01*
Y122274D01*
X1023621Y118275D01*
Y117276D01*
X1029619Y122274D02*
X1030618Y123274D01*
X1032618D01*
X1033617Y122274D01*
Y118275D01*
X1032618Y117276D01*
X1030618D01*
X1029619Y118275D01*
Y122274D01*
X980635Y110274D02*
X979635Y111274D01*
X977636D01*
X976636Y110274D01*
Y106275D01*
X977636Y105276D01*
X979635D01*
X980635Y106275D01*
X983634Y105276D02*
X985633D01*
X986633Y106275D01*
Y108275D01*
X985633Y109274D01*
X983634D01*
X982634Y108275D01*
Y106275D01*
X983634Y105276D01*
X988632Y103276D02*
Y109274D01*
X991631D01*
X992631Y108275D01*
Y106275D01*
X991631Y105276D01*
X988632D01*
X994630Y103276D02*
Y109274D01*
X997629D01*
X998629Y108275D01*
Y106275D01*
X997629Y105276D01*
X994630D01*
X1003627D02*
X1001628D01*
X1000628Y106275D01*
Y108275D01*
X1001628Y109274D01*
X1003627D01*
X1004627Y108275D01*
Y107275D01*
X1000628D01*
X1006626Y109274D02*
Y105276D01*
Y107275D01*
X1007626Y108275D01*
X1008626Y109274D01*
X1009625D01*
X980635Y99274D02*
X976636D01*
Y96275D01*
X978635D01*
X976636D01*
Y93276D01*
X982634D02*
Y99274D01*
X985633D01*
X986633Y98274D01*
Y96275D01*
X985633Y95275D01*
X982634D01*
X984633D02*
X986633Y93276D01*
X988632Y96275D02*
X992631D01*
X997629Y93276D02*
Y99274D01*
X994630Y96275D01*
X998629D01*
X1006626Y99274D02*
X1010625D01*
X1008626D01*
Y93276D01*
X1016623Y98274D02*
X1015623Y99274D01*
X1013624D01*
X1012624Y98274D01*
Y94275D01*
X1013624Y93276D01*
X1015623D01*
X1016623Y94275D01*
Y96275D01*
X1014624D01*
X1018622Y93276D02*
X1020622D01*
X1019622D01*
Y99274D01*
X1018622Y98274D01*
X1023621Y99274D02*
X1027619D01*
Y98274D01*
X1023621Y94275D01*
Y93276D01*
X1029619Y98274D02*
X1030618Y99274D01*
X1032618D01*
X1033617Y98274D01*
Y94275D01*
X1032618Y93276D01*
X1030618D01*
X1029619Y94275D01*
Y98274D01*
X980635Y86274D02*
X979635Y87274D01*
X977636D01*
X976636Y86274D01*
Y82275D01*
X977636Y81276D01*
X979635D01*
X980635Y82275D01*
X983634Y81276D02*
X985633D01*
X986633Y82275D01*
Y84275D01*
X985633Y85274D01*
X983634D01*
X982634Y84275D01*
Y82275D01*
X983634Y81276D01*
X988632Y79276D02*
Y85274D01*
X991631D01*
X992631Y84275D01*
Y82275D01*
X991631Y81276D01*
X988632D01*
X994630Y79276D02*
Y85274D01*
X997629D01*
X998629Y84275D01*
Y82275D01*
X997629Y81276D01*
X994630D01*
X1003627D02*
X1001628D01*
X1000628Y82275D01*
Y84275D01*
X1001628Y85274D01*
X1003627D01*
X1004627Y84275D01*
Y83275D01*
X1000628D01*
X1006626Y85274D02*
Y81276D01*
Y83275D01*
X1007626Y84275D01*
X1008626Y85274D01*
X1009625D01*
X980635Y75274D02*
X976636D01*
Y72275D01*
X978635D01*
X976636D01*
Y69276D01*
X982634D02*
Y75274D01*
X985633D01*
X986633Y74274D01*
Y72275D01*
X985633Y71275D01*
X982634D01*
X984633D02*
X986633Y69276D01*
X988632Y72275D02*
X992631D01*
X997629Y69276D02*
Y75274D01*
X994630Y72275D01*
X998629D01*
X1006626Y75274D02*
X1010625D01*
X1008626D01*
Y69276D01*
X1016623Y74274D02*
X1015623Y75274D01*
X1013624D01*
X1012624Y74274D01*
Y70275D01*
X1013624Y69276D01*
X1015623D01*
X1016623Y70275D01*
Y72275D01*
X1014624D01*
X1018622Y69276D02*
X1020622D01*
X1019622D01*
Y75274D01*
X1018622Y74274D01*
X1023621Y75274D02*
X1027619D01*
Y74274D01*
X1023621Y70275D01*
Y69276D01*
X1029619Y74274D02*
X1030618Y75274D01*
X1032618D01*
X1033617Y74274D01*
Y70275D01*
X1032618Y69276D01*
X1030618D01*
X1029619Y70275D01*
Y74274D01*
X980635Y62274D02*
X979635Y63274D01*
X977636D01*
X976636Y62274D01*
Y58275D01*
X977636Y57276D01*
X979635D01*
X980635Y58275D01*
X983634Y57276D02*
X985633D01*
X986633Y58275D01*
Y60275D01*
X985633Y61274D01*
X983634D01*
X982634Y60275D01*
Y58275D01*
X983634Y57276D01*
X988632Y55276D02*
Y61274D01*
X991631D01*
X992631Y60275D01*
Y58275D01*
X991631Y57276D01*
X988632D01*
X994630Y55276D02*
Y61274D01*
X997629D01*
X998629Y60275D01*
Y58275D01*
X997629Y57276D01*
X994630D01*
X1003627D02*
X1001628D01*
X1000628Y58275D01*
Y60275D01*
X1001628Y61274D01*
X1003627D01*
X1004627Y60275D01*
Y59275D01*
X1000628D01*
X1006626Y61274D02*
Y57276D01*
Y59275D01*
X1007626Y60275D01*
X1008626Y61274D01*
X1009625D01*
X980635Y51274D02*
X976636D01*
Y48275D01*
X978635D01*
X976636D01*
Y45276D01*
X982634D02*
Y51274D01*
X985633D01*
X986633Y50274D01*
Y48275D01*
X985633Y47275D01*
X982634D01*
X984633D02*
X986633Y45276D01*
X988632Y48275D02*
X992631D01*
X997629Y45276D02*
Y51274D01*
X994630Y48275D01*
X998629D01*
X1006626Y51274D02*
X1010625D01*
X1008626D01*
Y45276D01*
X1016623Y50274D02*
X1015623Y51274D01*
X1013624D01*
X1012624Y50274D01*
Y46275D01*
X1013624Y45276D01*
X1015623D01*
X1016623Y46275D01*
Y48275D01*
X1014624D01*
X1018622Y45276D02*
X1020622D01*
X1019622D01*
Y51274D01*
X1018622Y50274D01*
X1023621Y51274D02*
X1027619D01*
Y50274D01*
X1023621Y46275D01*
Y45276D01*
X1029619Y50274D02*
X1030618Y51274D01*
X1032618D01*
X1033617Y50274D01*
Y46275D01*
X1032618Y45276D01*
X1030618D01*
X1029619Y46275D01*
Y50274D01*
X980635Y38274D02*
X979635Y39274D01*
X977636D01*
X976636Y38274D01*
Y34275D01*
X977636Y33276D01*
X979635D01*
X980635Y34275D01*
X983634Y33276D02*
X985633D01*
X986633Y34275D01*
Y36275D01*
X985633Y37274D01*
X983634D01*
X982634Y36275D01*
Y34275D01*
X983634Y33276D01*
X988632Y31276D02*
Y37274D01*
X991631D01*
X992631Y36275D01*
Y34275D01*
X991631Y33276D01*
X988632D01*
X994630Y31276D02*
Y37274D01*
X997629D01*
X998629Y36275D01*
Y34275D01*
X997629Y33276D01*
X994630D01*
X1003627D02*
X1001628D01*
X1000628Y34275D01*
Y36275D01*
X1001628Y37274D01*
X1003627D01*
X1004627Y36275D01*
Y35275D01*
X1000628D01*
X1006626Y37274D02*
Y33276D01*
Y35275D01*
X1007626Y36275D01*
X1008626Y37274D01*
X1009625D01*
X980635Y27274D02*
X976636D01*
Y24275D01*
X978635D01*
X976636D01*
Y21276D01*
X982634D02*
Y27274D01*
X985633D01*
X986633Y26274D01*
Y24275D01*
X985633Y23275D01*
X982634D01*
X984633D02*
X986633Y21276D01*
X988632Y24275D02*
X992631D01*
X997629Y21276D02*
Y27274D01*
X994630Y24275D01*
X998629D01*
X1006626Y27274D02*
X1010625D01*
X1008626D01*
Y21276D01*
X1016623Y26274D02*
X1015623Y27274D01*
X1013624D01*
X1012624Y26274D01*
Y22275D01*
X1013624Y21276D01*
X1015623D01*
X1016623Y22275D01*
Y24275D01*
X1014624D01*
X1018622Y21276D02*
X1020622D01*
X1019622D01*
Y27274D01*
X1018622Y26274D01*
X1023621Y27274D02*
X1027619D01*
Y26274D01*
X1023621Y22275D01*
Y21276D01*
X1029619Y26274D02*
X1030618Y27274D01*
X1032618D01*
X1033617Y26274D01*
Y22275D01*
X1032618Y21276D01*
X1030618D01*
X1029619Y22275D01*
Y26274D01*
X980635Y14274D02*
X979635Y15274D01*
X977636D01*
X976636Y14274D01*
Y10275D01*
X977636Y9276D01*
X979635D01*
X980635Y10275D01*
X983634Y9276D02*
X985633D01*
X986633Y10275D01*
Y12275D01*
X985633Y13274D01*
X983634D01*
X982634Y12275D01*
Y10275D01*
X983634Y9276D01*
X988632Y7276D02*
Y13274D01*
X991631D01*
X992631Y12275D01*
Y10275D01*
X991631Y9276D01*
X988632D01*
X994630Y7276D02*
Y13274D01*
X997629D01*
X998629Y12275D01*
Y10275D01*
X997629Y9276D01*
X994630D01*
X1003627D02*
X1001628D01*
X1000628Y10275D01*
Y12275D01*
X1001628Y13274D01*
X1003627D01*
X1004627Y12275D01*
Y11275D01*
X1000628D01*
X1006626Y13274D02*
Y9276D01*
Y11275D01*
X1007626Y12275D01*
X1008626Y13274D01*
X1009625D01*
X980635Y2274D02*
X979635Y3274D01*
X977636D01*
X976636Y2274D01*
Y1274D01*
X977636Y275D01*
X979635D01*
X980635Y-725D01*
Y-1725D01*
X979635Y-2724D01*
X977636D01*
X976636Y-1725D01*
X983634Y-2724D02*
X985633D01*
X986633Y-1725D01*
Y275D01*
X985633Y1274D01*
X983634D01*
X982634Y275D01*
Y-1725D01*
X983634Y-2724D01*
X988632D02*
X990631D01*
X989632D01*
Y3274D01*
X988632D01*
X997629D02*
Y-2724D01*
X994630D01*
X993630Y-1725D01*
Y275D01*
X994630Y1274D01*
X997629D01*
X1002627Y-2724D02*
X1000628D01*
X999628Y-1725D01*
Y275D01*
X1000628Y1274D01*
X1002627D01*
X1003627Y275D01*
Y-725D01*
X999628D01*
X1005626Y1274D02*
Y-2724D01*
Y-725D01*
X1006626Y275D01*
X1007626Y1274D01*
X1008626D01*
X1017623Y-2724D02*
Y3274D01*
X1020622D01*
X1021621Y2274D01*
Y275D01*
X1020622Y-725D01*
X1017623D01*
X1019622D02*
X1021621Y-2724D01*
X1026620D02*
X1024620D01*
X1023621Y-1725D01*
Y275D01*
X1024620Y1274D01*
X1026620D01*
X1027619Y275D01*
Y-725D01*
X1023621D01*
X1029619Y-2724D02*
X1032618D01*
X1033617Y-1725D01*
X1032618Y-725D01*
X1030618D01*
X1029619Y275D01*
X1030618Y1274D01*
X1033617D01*
X1035617Y-2724D02*
X1037616D01*
X1036617D01*
Y1274D01*
X1035617D01*
X1040615Y-2724D02*
X1043614D01*
X1044614Y-1725D01*
X1043614Y-725D01*
X1041615D01*
X1040615Y275D01*
X1041615Y1274D01*
X1044614D01*
X1047613Y2274D02*
Y1274D01*
X1046613D01*
X1048613D01*
X1047613D01*
Y-1725D01*
X1048613Y-2724D01*
X976636Y165276D02*
Y171274D01*
X978635Y169274D01*
X980635Y171274D01*
Y165276D01*
X983634Y169274D02*
X985633D01*
X986633Y168275D01*
Y165276D01*
X983634D01*
X982634Y166275D01*
X983634Y167275D01*
X986633D01*
X989632Y170274D02*
Y169274D01*
X988632D01*
X990631D01*
X989632D01*
Y166275D01*
X990631Y165276D01*
X996629D02*
X994630D01*
X993630Y166275D01*
Y168275D01*
X994630Y169274D01*
X996629D01*
X997629Y168275D01*
Y167275D01*
X993630D01*
X999628Y169274D02*
Y165276D01*
Y167275D01*
X1000628Y168275D01*
X1001628Y169274D01*
X1002627D01*
X1005626Y165276D02*
X1007626D01*
X1006626D01*
Y169274D01*
X1005626D01*
X1011625D02*
X1013624D01*
X1014624Y168275D01*
Y165276D01*
X1011625D01*
X1010625Y166275D01*
X1011625Y167275D01*
X1014624D01*
X1016623Y165276D02*
X1018622D01*
X1017623D01*
Y171274D01*
X1016623D01*
X883661Y159274D02*
X887660D01*
X885661D01*
Y153276D01*
X890659D02*
X892659D01*
X893658Y154275D01*
Y156275D01*
X892659Y157274D01*
X890659D01*
X889660Y156275D01*
Y154275D01*
X890659Y153276D01*
X895658Y151276D02*
Y157274D01*
X898657D01*
X899656Y156275D01*
Y154275D01*
X898657Y153276D01*
X895658D01*
X910653Y159274D02*
X908653D01*
X907654Y158274D01*
Y154275D01*
X908653Y153276D01*
X910653D01*
X911652Y154275D01*
Y158274D01*
X910653Y159274D01*
X913652Y157274D02*
X915651Y153276D01*
X917650Y157274D01*
X922649Y153276D02*
X920650D01*
X919650Y154275D01*
Y156275D01*
X920650Y157274D01*
X922649D01*
X923648Y156275D01*
Y155275D01*
X919650D01*
X925648Y157274D02*
Y153276D01*
Y155275D01*
X926647Y156275D01*
X927647Y157274D01*
X928647D01*
X931646Y153276D02*
X933645D01*
X932646D01*
Y159274D01*
X931646D01*
X937644Y157274D02*
X939643D01*
X940643Y156275D01*
Y153276D01*
X937644D01*
X936644Y154275D01*
X937644Y155275D01*
X940643D01*
X942642Y157274D02*
Y154275D01*
X943642Y153276D01*
X946641D01*
Y152276D01*
X945641Y151276D01*
X944642D01*
X946641Y153276D02*
Y157274D01*
X883661Y147274D02*
X887660D01*
X885661D01*
Y141276D01*
X890659D02*
X892659D01*
X893658Y142275D01*
Y144275D01*
X892659Y145274D01*
X890659D01*
X889660Y144275D01*
Y142275D01*
X890659Y141276D01*
X895658Y139276D02*
Y145274D01*
X898657D01*
X899656Y144275D01*
Y142275D01*
X898657Y141276D01*
X895658D01*
X911652Y146274D02*
X910653Y147274D01*
X908653D01*
X907654Y146274D01*
Y145274D01*
X908653Y144275D01*
X910653D01*
X911652Y143275D01*
Y142275D01*
X910653Y141276D01*
X908653D01*
X907654Y142275D01*
X914651Y141276D02*
X916651D01*
X917650Y142275D01*
Y144275D01*
X916651Y145274D01*
X914651D01*
X913652Y144275D01*
Y142275D01*
X914651Y141276D01*
X919650D02*
X921649D01*
X920650D01*
Y147274D01*
X919650D01*
X928647D02*
Y141276D01*
X925648D01*
X924648Y142275D01*
Y144275D01*
X925648Y145274D01*
X928647D01*
X933645Y141276D02*
X931646D01*
X930646Y142275D01*
Y144275D01*
X931646Y145274D01*
X933645D01*
X934645Y144275D01*
Y143275D01*
X930646D01*
X936644Y145274D02*
Y141276D01*
Y143275D01*
X937644Y144275D01*
X938644Y145274D01*
X939643D01*
X883661Y135274D02*
X887660D01*
X885661D01*
Y129276D01*
X890659D02*
X892659D01*
X893658Y130275D01*
Y132275D01*
X892659Y133274D01*
X890659D01*
X889660Y132275D01*
Y130275D01*
X890659Y129276D01*
X895658Y127276D02*
Y133274D01*
X898657D01*
X899656Y132275D01*
Y130275D01*
X898657Y129276D01*
X895658D01*
X907654Y135274D02*
Y129276D01*
X911652D01*
X914651Y133274D02*
X916651D01*
X917650Y132275D01*
Y129276D01*
X914651D01*
X913652Y130275D01*
X914651Y131275D01*
X917650D01*
X919650Y133274D02*
Y130275D01*
X920650Y129276D01*
X923648D01*
Y128276D01*
X922649Y127276D01*
X921649D01*
X923648Y129276D02*
Y133274D01*
X928647Y129276D02*
X926647D01*
X925648Y130275D01*
Y132275D01*
X926647Y133274D01*
X928647D01*
X929647Y132275D01*
Y131275D01*
X925648D01*
X931646Y133274D02*
Y129276D01*
Y131275D01*
X932646Y132275D01*
X933645Y133274D01*
X934645D01*
X883661Y123274D02*
Y117276D01*
X886660D01*
X887660Y118275D01*
Y122274D01*
X886660Y123274D01*
X883661D01*
X889660Y117276D02*
X891659D01*
X890659D01*
Y121274D01*
X889660D01*
X897657Y117276D02*
X895658D01*
X894658Y118275D01*
Y120275D01*
X895658Y121274D01*
X897657D01*
X898657Y120275D01*
Y119275D01*
X894658D01*
X900656Y117276D02*
X902655D01*
X901656D01*
Y123274D01*
X900656D01*
X908653Y117276D02*
X906654D01*
X905654Y118275D01*
Y120275D01*
X906654Y121274D01*
X908653D01*
X909653Y120275D01*
Y119275D01*
X905654D01*
X915651Y121274D02*
X912652D01*
X911652Y120275D01*
Y118275D01*
X912652Y117276D01*
X915651D01*
X918650Y122274D02*
Y121274D01*
X917650D01*
X919650D01*
X918650D01*
Y118275D01*
X919650Y117276D01*
X922649Y121274D02*
Y117276D01*
Y119275D01*
X923648Y120275D01*
X924648Y121274D01*
X925648D01*
X928647Y117276D02*
X930646D01*
X929647D01*
Y121274D01*
X928647D01*
X937644D02*
X934645D01*
X933645Y120275D01*
Y118275D01*
X934645Y117276D01*
X937644D01*
X939643D02*
X941643D01*
X940643D01*
Y123274D01*
X939643Y122274D01*
X883661Y111274D02*
X887660D01*
X885661D01*
Y105276D01*
X890659D02*
X892659D01*
X893658Y106275D01*
Y108275D01*
X892659Y109274D01*
X890659D01*
X889660Y108275D01*
Y106275D01*
X890659Y105276D01*
X895658Y103276D02*
Y109274D01*
X898657D01*
X899656Y108275D01*
Y106275D01*
X898657Y105276D01*
X895658D01*
X911652Y110274D02*
X910653Y111274D01*
X908653D01*
X907654Y110274D01*
Y106275D01*
X908653Y105276D01*
X910653D01*
X911652Y106275D01*
Y108275D01*
X909653D01*
X913652Y105276D02*
Y111274D01*
X917650Y105276D01*
Y111274D01*
X919650D02*
Y105276D01*
X922649D01*
X923648Y106275D01*
Y110274D01*
X922649Y111274D01*
X919650D01*
X883661Y99274D02*
Y93276D01*
X886660D01*
X887660Y94275D01*
Y98274D01*
X886660Y99274D01*
X883661D01*
X889660Y93276D02*
X891659D01*
X890659D01*
Y97274D01*
X889660D01*
X897657Y93276D02*
X895658D01*
X894658Y94275D01*
Y96275D01*
X895658Y97274D01*
X897657D01*
X898657Y96275D01*
Y95275D01*
X894658D01*
X900656Y93276D02*
X902655D01*
X901656D01*
Y99274D01*
X900656D01*
X908653Y93276D02*
X906654D01*
X905654Y94275D01*
Y96275D01*
X906654Y97274D01*
X908653D01*
X909653Y96275D01*
Y95275D01*
X905654D01*
X915651Y97274D02*
X912652D01*
X911652Y96275D01*
Y94275D01*
X912652Y93276D01*
X915651D01*
X918650Y98274D02*
Y97274D01*
X917650D01*
X919650D01*
X918650D01*
Y94275D01*
X919650Y93276D01*
X922649Y97274D02*
Y93276D01*
Y95275D01*
X923648Y96275D01*
X924648Y97274D01*
X925648D01*
X928647Y93276D02*
X930646D01*
X929647D01*
Y97274D01*
X928647D01*
X937644D02*
X934645D01*
X933645Y96275D01*
Y94275D01*
X934645Y93276D01*
X937644D01*
X939643Y98274D02*
X940643Y99274D01*
X942642D01*
X943642Y98274D01*
Y97274D01*
X942642Y96275D01*
X941643D01*
X942642D01*
X943642Y95275D01*
Y94275D01*
X942642Y93276D01*
X940643D01*
X939643Y94275D01*
X883661Y81276D02*
Y87274D01*
X886660D01*
X887660Y86274D01*
Y84275D01*
X886660Y83275D01*
X883661D01*
X890659Y81276D02*
X892659D01*
X893658Y82275D01*
Y84275D01*
X892659Y85274D01*
X890659D01*
X889660Y84275D01*
Y82275D01*
X890659Y81276D01*
X895658Y85274D02*
Y82275D01*
X896657Y81276D01*
X897657Y82275D01*
X898657Y81276D01*
X899656Y82275D01*
Y85274D01*
X904655Y81276D02*
X902655D01*
X901656Y82275D01*
Y84275D01*
X902655Y85274D01*
X904655D01*
X905654Y84275D01*
Y83275D01*
X901656D01*
X907654Y85274D02*
Y81276D01*
Y83275D01*
X908653Y84275D01*
X909653Y85274D01*
X910653D01*
X919650Y81276D02*
Y87274D01*
X922649D01*
X923648Y86274D01*
Y84275D01*
X922649Y83275D01*
X919650D01*
X925648Y81276D02*
X927647D01*
X926647D01*
Y87274D01*
X925648D01*
X931646Y85274D02*
X933645D01*
X934645Y84275D01*
Y81276D01*
X931646D01*
X930646Y82275D01*
X931646Y83275D01*
X934645D01*
X936644Y81276D02*
Y85274D01*
X939643D01*
X940643Y84275D01*
Y81276D01*
X945641D02*
X943642D01*
X942642Y82275D01*
Y84275D01*
X943642Y85274D01*
X945641D01*
X946641Y84275D01*
Y83275D01*
X942642D01*
X883661Y75274D02*
Y69276D01*
X886660D01*
X887660Y70275D01*
Y74274D01*
X886660Y75274D01*
X883661D01*
X889660Y69276D02*
X891659D01*
X890659D01*
Y73274D01*
X889660D01*
X897657Y69276D02*
X895658D01*
X894658Y70275D01*
Y72275D01*
X895658Y73274D01*
X897657D01*
X898657Y72275D01*
Y71275D01*
X894658D01*
X900656Y69276D02*
X902655D01*
X901656D01*
Y75274D01*
X900656D01*
X908653Y69276D02*
X906654D01*
X905654Y70275D01*
Y72275D01*
X906654Y73274D01*
X908653D01*
X909653Y72275D01*
Y71275D01*
X905654D01*
X915651Y73274D02*
X912652D01*
X911652Y72275D01*
Y70275D01*
X912652Y69276D01*
X915651D01*
X918650Y74274D02*
Y73274D01*
X917650D01*
X919650D01*
X918650D01*
Y70275D01*
X919650Y69276D01*
X922649Y73274D02*
Y69276D01*
Y71275D01*
X923648Y72275D01*
X924648Y73274D01*
X925648D01*
X928647Y69276D02*
X930646D01*
X929647D01*
Y73274D01*
X928647D01*
X937644D02*
X934645D01*
X933645Y72275D01*
Y70275D01*
X934645Y69276D01*
X937644D01*
X949640Y75274D02*
X945641D01*
Y72275D01*
X947641Y73274D01*
X948640D01*
X949640Y72275D01*
Y70275D01*
X948640Y69276D01*
X946641D01*
X945641Y70275D01*
X883661Y57276D02*
Y63274D01*
X885661Y61274D01*
X887660Y63274D01*
Y57276D01*
X889660D02*
X891659D01*
X890659D01*
Y61274D01*
X889660D01*
X898657Y63274D02*
Y57276D01*
X895658D01*
X894658Y58275D01*
Y60275D01*
X895658Y61274D01*
X898657D01*
X900656Y57276D02*
X902655D01*
X901656D01*
Y63274D01*
X900656Y62274D01*
X883661Y51274D02*
Y45276D01*
X886660D01*
X887660Y46275D01*
Y50274D01*
X886660Y51274D01*
X883661D01*
X889660Y45276D02*
X891659D01*
X890659D01*
Y49274D01*
X889660D01*
X897657Y45276D02*
X895658D01*
X894658Y46275D01*
Y48275D01*
X895658Y49274D01*
X897657D01*
X898657Y48275D01*
Y47275D01*
X894658D01*
X900656Y45276D02*
X902655D01*
X901656D01*
Y51274D01*
X900656D01*
X908653Y45276D02*
X906654D01*
X905654Y46275D01*
Y48275D01*
X906654Y49274D01*
X908653D01*
X909653Y48275D01*
Y47275D01*
X905654D01*
X915651Y49274D02*
X912652D01*
X911652Y48275D01*
Y46275D01*
X912652Y45276D01*
X915651D01*
X918650Y50274D02*
Y49274D01*
X917650D01*
X919650D01*
X918650D01*
Y46275D01*
X919650Y45276D01*
X922649Y49274D02*
Y45276D01*
Y47275D01*
X923648Y48275D01*
X924648Y49274D01*
X925648D01*
X928647Y45276D02*
X930646D01*
X929647D01*
Y49274D01*
X928647D01*
X937644D02*
X934645D01*
X933645Y48275D01*
Y46275D01*
X934645Y45276D01*
X937644D01*
X948640D02*
Y51274D01*
X945641Y48275D01*
X949640D01*
X883661Y39274D02*
Y33276D01*
X886660D01*
X887660Y34275D01*
Y35275D01*
X886660Y36275D01*
X883661D01*
X886660D01*
X887660Y37274D01*
Y38274D01*
X886660Y39274D01*
X883661D01*
X890659Y33276D02*
X892659D01*
X893658Y34275D01*
Y36275D01*
X892659Y37274D01*
X890659D01*
X889660Y36275D01*
Y34275D01*
X890659Y33276D01*
X896657Y38274D02*
Y37274D01*
X895658D01*
X897657D01*
X896657D01*
Y34275D01*
X897657Y33276D01*
X910653Y38274D02*
X909653Y39274D01*
X907654D01*
X906654Y38274D01*
Y34275D01*
X907654Y33276D01*
X909653D01*
X910653Y34275D01*
Y36275D01*
X908653D01*
X912652Y33276D02*
Y39274D01*
X916651Y33276D01*
Y39274D01*
X918650D02*
Y33276D01*
X921649D01*
X922649Y34275D01*
Y38274D01*
X921649Y39274D01*
X918650D01*
X883661Y27274D02*
Y21276D01*
X886660D01*
X887660Y22275D01*
Y26274D01*
X886660Y27274D01*
X883661D01*
X889660Y21276D02*
X891659D01*
X890659D01*
Y25274D01*
X889660D01*
X897657Y21276D02*
X895658D01*
X894658Y22275D01*
Y24275D01*
X895658Y25274D01*
X897657D01*
X898657Y24275D01*
Y23275D01*
X894658D01*
X900656Y21276D02*
X902655D01*
X901656D01*
Y27274D01*
X900656D01*
X908653Y21276D02*
X906654D01*
X905654Y22275D01*
Y24275D01*
X906654Y25274D01*
X908653D01*
X909653Y24275D01*
Y23275D01*
X905654D01*
X915651Y25274D02*
X912652D01*
X911652Y24275D01*
Y22275D01*
X912652Y21276D01*
X915651D01*
X918650Y26274D02*
Y25274D01*
X917650D01*
X919650D01*
X918650D01*
Y22275D01*
X919650Y21276D01*
X922649Y25274D02*
Y21276D01*
Y23275D01*
X923648Y24275D01*
X924648Y25274D01*
X925648D01*
X928647Y21276D02*
X930646D01*
X929647D01*
Y25274D01*
X928647D01*
X937644D02*
X934645D01*
X933645Y24275D01*
Y22275D01*
X934645Y21276D01*
X937644D01*
X943642D02*
X939643D01*
X943642Y25274D01*
Y26274D01*
X942642Y27274D01*
X940643D01*
X939643Y26274D01*
X883661Y15274D02*
Y9276D01*
X886660D01*
X887660Y10275D01*
Y11275D01*
X886660Y12275D01*
X883661D01*
X886660D01*
X887660Y13274D01*
Y14274D01*
X886660Y15274D01*
X883661D01*
X890659Y9276D02*
X892659D01*
X893658Y10275D01*
Y12275D01*
X892659Y13274D01*
X890659D01*
X889660Y12275D01*
Y10275D01*
X890659Y9276D01*
X896657Y14274D02*
Y13274D01*
X895658D01*
X897657D01*
X896657D01*
Y10275D01*
X897657Y9276D01*
X901656Y14274D02*
Y13274D01*
X900656D01*
X902655D01*
X901656D01*
Y10275D01*
X902655Y9276D01*
X906654D02*
X908653D01*
X909653Y10275D01*
Y12275D01*
X908653Y13274D01*
X906654D01*
X905654Y12275D01*
Y10275D01*
X906654Y9276D01*
X911652D02*
Y13274D01*
X912652D01*
X913652Y12275D01*
Y9276D01*
Y12275D01*
X914651Y13274D01*
X915651Y12275D01*
Y9276D01*
X923648Y15274D02*
Y9276D01*
X927647D01*
X930646Y13274D02*
X932646D01*
X933645Y12275D01*
Y9276D01*
X930646D01*
X929647Y10275D01*
X930646Y11275D01*
X933645D01*
X935645Y13274D02*
Y10275D01*
X936644Y9276D01*
X939643D01*
Y8276D01*
X938644Y7276D01*
X937644D01*
X939643Y9276D02*
Y13274D01*
X944642Y9276D02*
X942642D01*
X941643Y10275D01*
Y12275D01*
X942642Y13274D01*
X944642D01*
X945641Y12275D01*
Y11275D01*
X941643D01*
X947641Y13274D02*
Y9276D01*
Y11275D01*
X948640Y12275D01*
X949640Y13274D01*
X950640D01*
X883661Y3274D02*
Y-2724D01*
X886660D01*
X887660Y-1725D01*
Y-725D01*
X886660Y275D01*
X883661D01*
X886660D01*
X887660Y1274D01*
Y2274D01*
X886660Y3274D01*
X883661D01*
X890659Y-2724D02*
X892659D01*
X893658Y-1725D01*
Y275D01*
X892659Y1274D01*
X890659D01*
X889660Y275D01*
Y-1725D01*
X890659Y-2724D01*
X896657Y2274D02*
Y1274D01*
X895658D01*
X897657D01*
X896657D01*
Y-1725D01*
X897657Y-2724D01*
X901656Y2274D02*
Y1274D01*
X900656D01*
X902655D01*
X901656D01*
Y-1725D01*
X902655Y-2724D01*
X906654D02*
X908653D01*
X909653Y-1725D01*
Y275D01*
X908653Y1274D01*
X906654D01*
X905654Y275D01*
Y-1725D01*
X906654Y-2724D01*
X911652D02*
Y1274D01*
X912652D01*
X913652Y275D01*
Y-2724D01*
Y275D01*
X914651Y1274D01*
X915651Y275D01*
Y-2724D01*
X927647Y2274D02*
X926647Y3274D01*
X924648D01*
X923648Y2274D01*
Y1274D01*
X924648Y275D01*
X926647D01*
X927647Y-725D01*
Y-1725D01*
X926647Y-2724D01*
X924648D01*
X923648Y-1725D01*
X930646Y-2724D02*
X932646D01*
X933645Y-1725D01*
Y275D01*
X932646Y1274D01*
X930646D01*
X929647Y275D01*
Y-1725D01*
X930646Y-2724D01*
X935645D02*
X937644D01*
X936644D01*
Y3274D01*
X935645D01*
X944642D02*
Y-2724D01*
X941643D01*
X940643Y-1725D01*
Y275D01*
X941643Y1274D01*
X944642D01*
X949640Y-2724D02*
X947641D01*
X946641Y-1725D01*
Y275D01*
X947641Y1274D01*
X949640D01*
X950640Y275D01*
Y-725D01*
X946641D01*
X952639Y1274D02*
Y-2724D01*
Y-725D01*
X953639Y275D01*
X954638Y1274D01*
X955638D01*
X883661Y-8726D02*
Y-14724D01*
X886660D01*
X887660Y-13725D01*
Y-12725D01*
X886660Y-11725D01*
X883661D01*
X886660D01*
X887660Y-10726D01*
Y-9726D01*
X886660Y-8726D01*
X883661D01*
X890659Y-14724D02*
X892659D01*
X893658Y-13725D01*
Y-11725D01*
X892659Y-10726D01*
X890659D01*
X889660Y-11725D01*
Y-13725D01*
X890659Y-14724D01*
X896657Y-9726D02*
Y-10726D01*
X895658D01*
X897657D01*
X896657D01*
Y-13725D01*
X897657Y-14724D01*
X901656Y-9726D02*
Y-10726D01*
X900656D01*
X902655D01*
X901656D01*
Y-13725D01*
X902655Y-14724D01*
X906654D02*
X908653D01*
X909653Y-13725D01*
Y-11725D01*
X908653Y-10726D01*
X906654D01*
X905654Y-11725D01*
Y-13725D01*
X906654Y-14724D01*
X911652D02*
Y-10726D01*
X912652D01*
X913652Y-11725D01*
Y-14724D01*
Y-11725D01*
X914651Y-10726D01*
X915651Y-11725D01*
Y-14724D01*
X926647Y-8726D02*
X924648D01*
X923648Y-9726D01*
Y-13725D01*
X924648Y-14724D01*
X926647D01*
X927647Y-13725D01*
Y-9726D01*
X926647Y-8726D01*
X929647Y-10726D02*
X931646Y-14724D01*
X933645Y-10726D01*
X938644Y-14724D02*
X936644D01*
X935645Y-13725D01*
Y-11725D01*
X936644Y-10726D01*
X938644D01*
X939643Y-11725D01*
Y-12725D01*
X935645D01*
X941643Y-10726D02*
Y-14724D01*
Y-12725D01*
X942642Y-11725D01*
X943642Y-10726D01*
X944642D01*
X947641Y-14724D02*
X949640D01*
X948640D01*
Y-8726D01*
X947641D01*
X953639Y-10726D02*
X955638D01*
X956638Y-11725D01*
Y-14724D01*
X953639D01*
X952639Y-13725D01*
X953639Y-12725D01*
X956638D01*
X958637Y-10726D02*
Y-13725D01*
X959637Y-14724D01*
X962636D01*
Y-15724D01*
X961636Y-16724D01*
X960637D01*
X962636Y-14724D02*
Y-10726D01*
X883661Y165276D02*
Y171274D01*
X887660Y165276D01*
Y171274D01*
X890659Y169274D02*
X892659D01*
X893658Y168275D01*
Y165276D01*
X890659D01*
X889660Y166275D01*
X890659Y167275D01*
X893658D01*
X895658Y165276D02*
Y169274D01*
X896657D01*
X897657Y168275D01*
Y165276D01*
Y168275D01*
X898657Y169274D01*
X899656Y168275D01*
Y165276D01*
X904655D02*
X902655D01*
X901656Y166275D01*
Y168275D01*
X902655Y169274D01*
X904655D01*
X905654Y168275D01*
Y167275D01*
X901656D01*
X842670Y153276D02*
X844670D01*
X843670D01*
Y159274D01*
X842670Y158274D01*
X846669Y141276D02*
X842670D01*
X846669Y145274D01*
Y146274D01*
X845669Y147274D01*
X843670D01*
X842670Y146274D01*
Y134274D02*
X843670Y135274D01*
X845669D01*
X846669Y134274D01*
Y133274D01*
X845669Y132275D01*
X844670D01*
X845669D01*
X846669Y131275D01*
Y130275D01*
X845669Y129276D01*
X843670D01*
X842670Y130275D01*
X845669Y117276D02*
Y123274D01*
X842670Y120275D01*
X846669D01*
Y111274D02*
X842670D01*
Y108275D01*
X844670Y109274D01*
X845669D01*
X846669Y108275D01*
Y106275D01*
X845669Y105276D01*
X843670D01*
X842670Y106275D01*
X846669Y99274D02*
X844670Y98274D01*
X842670Y96275D01*
Y94275D01*
X843670Y93276D01*
X845669D01*
X846669Y94275D01*
Y95275D01*
X845669Y96275D01*
X842670D01*
Y87274D02*
X846669D01*
Y86274D01*
X842670Y82275D01*
Y81276D01*
Y74274D02*
X843670Y75274D01*
X845669D01*
X846669Y74274D01*
Y73274D01*
X845669Y72275D01*
X846669Y71275D01*
Y70275D01*
X845669Y69276D01*
X843670D01*
X842670Y70275D01*
Y71275D01*
X843670Y72275D01*
X842670Y73274D01*
Y74274D01*
X843670Y72275D02*
X845669D01*
X842670Y58275D02*
X843670Y57276D01*
X845669D01*
X846669Y58275D01*
Y62274D01*
X845669Y63274D01*
X843670D01*
X842670Y62274D01*
Y61274D01*
X843670Y60275D01*
X846669D01*
X842670Y45276D02*
X844670D01*
X843670D01*
Y51274D01*
X842670Y50274D01*
X847668D02*
X848668Y51274D01*
X850668D01*
X851667Y50274D01*
Y46275D01*
X850668Y45276D01*
X848668D01*
X847668Y46275D01*
Y50274D01*
X842670Y33276D02*
X844670D01*
X843670D01*
Y39274D01*
X842670Y38274D01*
X847668Y33276D02*
X849668D01*
X848668D01*
Y39274D01*
X847668Y38274D01*
X842670Y21276D02*
X844670D01*
X843670D01*
Y27274D01*
X842670Y26274D01*
X851667Y21276D02*
X847668D01*
X851667Y25274D01*
Y26274D01*
X850668Y27274D01*
X848668D01*
X847668Y26274D01*
X842670Y9276D02*
X844670D01*
X843670D01*
Y15274D01*
X842670Y14274D01*
X847668D02*
X848668Y15274D01*
X850668D01*
X851667Y14274D01*
Y13274D01*
X850668Y12275D01*
X849668D01*
X850668D01*
X851667Y11275D01*
Y10275D01*
X850668Y9276D01*
X848668D01*
X847668Y10275D01*
X842670Y-2724D02*
X844670D01*
X843670D01*
Y3274D01*
X842670Y2274D01*
X850668Y-2724D02*
Y3274D01*
X847668Y275D01*
X851667D01*
X842670Y-14724D02*
X844670D01*
X843670D01*
Y-8726D01*
X842670Y-9726D01*
X851667Y-8726D02*
X847668D01*
Y-11725D01*
X849668Y-10726D01*
X850668D01*
X851667Y-11725D01*
Y-13725D01*
X850668Y-14724D01*
X848668D01*
X847668Y-13725D01*
X842670Y171274D02*
Y165276D01*
X846669D01*
X849668Y169274D02*
X851667D01*
X852667Y168275D01*
Y165276D01*
X849668D01*
X848668Y166275D01*
X849668Y167275D01*
X852667D01*
X854666Y169274D02*
Y166275D01*
X855666Y165276D01*
X858665D01*
Y164276D01*
X857665Y163276D01*
X856666D01*
X858665Y165276D02*
Y169274D01*
X863663Y165276D02*
X861664D01*
X860664Y166275D01*
Y168275D01*
X861664Y169274D01*
X863663D01*
X864663Y168275D01*
Y167275D01*
X860664D01*
X866662Y169274D02*
Y165276D01*
Y167275D01*
X867662Y168275D01*
X868662Y169274D01*
X869661D01*
G54D15*
X818003Y36833D02*
X817003Y37833D01*
X815004D01*
X814004Y36833D01*
Y32834D01*
X815004Y31835D01*
X817003D01*
X818003Y32834D01*
Y34834D01*
X816003D01*
X820002Y31835D02*
Y37833D01*
X823001D01*
X824001Y36833D01*
Y34834D01*
X823001Y33834D01*
X820002D01*
X826000Y36833D02*
X827000Y37833D01*
X828999D01*
X829999Y36833D01*
Y35833D01*
X828999Y34834D01*
X827999D01*
X828999D01*
X829999Y33834D01*
Y32834D01*
X828999Y31835D01*
X827000D01*
X826000Y32834D01*
X817522Y-11293D02*
X816523Y-10293D01*
X814523D01*
X813524Y-11293D01*
Y-15292D01*
X814523Y-16291D01*
X816523D01*
X817522Y-15292D01*
Y-13292D01*
X815523D01*
X819522Y-10293D02*
Y-16291D01*
X822521D01*
X823520Y-15292D01*
Y-14292D01*
X822521Y-13292D01*
X819522D01*
X822521D01*
X823520Y-12293D01*
Y-11293D01*
X822521Y-10293D01*
X819522D01*
X828519D02*
X826519D01*
X825520Y-11293D01*
Y-15292D01*
X826519Y-16291D01*
X828519D01*
X829519Y-15292D01*
Y-11293D01*
X828519Y-10293D01*
X824739Y61424D02*
X823739Y62423D01*
X821740D01*
X820740Y61424D01*
Y57425D01*
X821740Y56425D01*
X823739D01*
X824739Y57425D01*
Y59424D01*
X822740D01*
X826738Y56425D02*
X828738D01*
X827738D01*
Y62423D01*
X826738Y61424D01*
X816022Y171707D02*
X812024D01*
Y168708D01*
X814023D01*
X812024D01*
Y165709D01*
X818022D02*
X820021D01*
X819021D01*
Y169707D01*
X818022D01*
X823020Y165709D02*
X825019D01*
X824020D01*
Y171707D01*
X823020D01*
X831017Y165709D02*
X829018D01*
X828018Y166708D01*
Y168708D01*
X829018Y169707D01*
X831017D01*
X832017Y168708D01*
Y167708D01*
X828018D01*
X817522Y207D02*
X816523Y1207D01*
X814523D01*
X813524Y207D01*
Y-3792D01*
X814523Y-4791D01*
X816523D01*
X817522Y-3792D01*
Y-1792D01*
X815523D01*
X819522Y1207D02*
Y-4791D01*
X822521D01*
X823520Y-3792D01*
Y-2792D01*
X822521Y-1792D01*
X819522D01*
X822521D01*
X823520Y-793D01*
Y207D01*
X822521Y1207D01*
X819522D01*
X829519Y207D02*
X828519Y1207D01*
X826519D01*
X825520Y207D01*
Y-793D01*
X826519Y-1792D01*
X828519D01*
X829519Y-2792D01*
Y-3792D01*
X828519Y-4791D01*
X826519D01*
X825520Y-3792D01*
X817003Y157333D02*
X816003Y158333D01*
X814004D01*
X813004Y157333D01*
Y153334D01*
X814004Y152335D01*
X816003D01*
X817003Y153334D01*
Y155334D01*
X815003D01*
X819002Y158333D02*
X823001D01*
X821001D01*
Y152335D01*
X827999Y158333D02*
X826000D01*
X825000Y157333D01*
Y153334D01*
X826000Y152335D01*
X827999D01*
X828999Y153334D01*
Y157333D01*
X827999Y158333D01*
X817003Y145333D02*
X816003Y146333D01*
X814004D01*
X813004Y145333D01*
Y141334D01*
X814004Y140335D01*
X816003D01*
X817003Y141334D01*
Y143334D01*
X815003D01*
X819002Y146333D02*
X823001D01*
X821001D01*
Y140335D01*
X828999Y145333D02*
X827999Y146333D01*
X826000D01*
X825000Y145333D01*
Y144333D01*
X826000Y143334D01*
X827999D01*
X828999Y142334D01*
Y141334D01*
X827999Y140335D01*
X826000D01*
X825000Y141334D01*
X818522Y11707D02*
X817523Y12707D01*
X815523D01*
X814524Y11707D01*
Y7708D01*
X815523Y6709D01*
X817523D01*
X818522Y7708D01*
Y9708D01*
X816523D01*
X820522Y12707D02*
Y6709D01*
X823521D01*
X824520Y7708D01*
Y8708D01*
X823521Y9708D01*
X820522D01*
X823521D01*
X824520Y10707D01*
Y11707D01*
X823521Y12707D01*
X820522D01*
X826520D02*
Y6709D01*
X830519D01*
X817003Y133333D02*
X816003Y134333D01*
X814004D01*
X813004Y133333D01*
Y129334D01*
X814004Y128335D01*
X816003D01*
X817003Y129334D01*
Y131334D01*
X815003D01*
X819002Y134333D02*
X823001D01*
X821001D01*
Y128335D01*
X825000Y134333D02*
Y128335D01*
X828999D01*
X818239Y85424D02*
X817239Y86423D01*
X815240D01*
X814240Y85424D01*
Y81425D01*
X815240Y80425D01*
X817239D01*
X818239Y81425D01*
Y83424D01*
X816239D01*
X820238Y80425D02*
Y86423D01*
X823237D01*
X824237Y85424D01*
Y83424D01*
X823237Y82424D01*
X820238D01*
X830235Y80425D02*
X826236D01*
X830235Y84424D01*
Y85424D01*
X829235Y86423D01*
X827236D01*
X826236Y85424D01*
X818239Y108924D02*
X817239Y109923D01*
X815240D01*
X814240Y108924D01*
Y104925D01*
X815240Y103925D01*
X817239D01*
X818239Y104925D01*
Y106924D01*
X816239D01*
X820238Y103925D02*
Y109923D01*
X823237D01*
X824237Y108924D01*
Y106924D01*
X823237Y105924D01*
X820238D01*
X826236Y103925D02*
X828236D01*
X827236D01*
Y109923D01*
X826236Y108924D01*
X786681Y579866D02*
Y587864D01*
X792013Y579866D01*
Y587864D01*
X798677D02*
X796011D01*
X794678Y586531D01*
Y581199D01*
X796011Y579866D01*
X798677D01*
X800010Y581199D01*
Y586531D01*
X798677Y587864D01*
X802676D02*
X808008D01*
X805342D01*
Y579866D01*
X816005Y587864D02*
X810673D01*
Y579866D01*
X816005D01*
X810673Y583865D02*
X813339D01*
X824002Y586531D02*
X822670Y587864D01*
X820004D01*
X818671Y586531D01*
Y585198D01*
X820004Y583865D01*
X822670D01*
X824002Y582532D01*
Y581199D01*
X822670Y579866D01*
X820004D01*
X818671Y581199D01*
X837331Y579866D02*
X834666Y582532D01*
Y585198D01*
X837331Y587864D01*
X841330D02*
Y581199D01*
X842663Y579866D01*
X845329D01*
X846662Y581199D01*
Y587864D01*
X849327Y579866D02*
Y587864D01*
X854659Y579866D01*
Y587864D01*
X857325D02*
Y579866D01*
X862656D01*
X870654Y587864D02*
X865322D01*
Y579866D01*
X870654D01*
X865322Y583865D02*
X867988D01*
X878651Y586531D02*
X877318Y587864D01*
X874653D01*
X873320Y586531D01*
Y585198D01*
X874653Y583865D01*
X877318D01*
X878651Y582532D01*
Y581199D01*
X877318Y579866D01*
X874653D01*
X873320Y581199D01*
X886649Y586531D02*
X885316Y587864D01*
X882650D01*
X881317Y586531D01*
Y585198D01*
X882650Y583865D01*
X885316D01*
X886649Y582532D01*
Y581199D01*
X885316Y579866D01*
X882650D01*
X881317Y581199D01*
X902644Y586531D02*
X901311Y587864D01*
X898645D01*
X897312Y586531D01*
Y585198D01*
X898645Y583865D01*
X901311D01*
X902644Y582532D01*
Y581199D01*
X901311Y579866D01*
X898645D01*
X897312Y581199D01*
X905309Y579866D02*
Y587864D01*
X909308D01*
X910641Y586531D01*
Y583865D01*
X909308Y582532D01*
X905309D01*
X918638Y587864D02*
X913307D01*
Y579866D01*
X918638D01*
X913307Y583865D02*
X915973D01*
X926636Y586531D02*
X925303Y587864D01*
X922637D01*
X921304Y586531D01*
Y581199D01*
X922637Y579866D01*
X925303D01*
X926636Y581199D01*
X929302Y587864D02*
X931967D01*
X930634D01*
Y579866D01*
X929302D01*
X931967D01*
X941298Y587864D02*
X935966D01*
Y583865D01*
X938632D01*
X935966D01*
Y579866D01*
X943964Y587864D02*
X946629D01*
X945296D01*
Y579866D01*
X943964D01*
X946629D01*
X955960Y587864D02*
X950628D01*
Y579866D01*
X955960D01*
X950628Y583865D02*
X953294D01*
X958625Y587864D02*
Y579866D01*
X962624D01*
X963957Y581199D01*
Y586531D01*
X962624Y587864D01*
X958625D01*
X978619D02*
X975953D01*
X974620Y586531D01*
Y581199D01*
X975953Y579866D01*
X978619D01*
X979952Y581199D01*
Y586531D01*
X978619Y587864D01*
X982618D02*
X987949D01*
X985283D01*
Y579866D01*
X990615Y587864D02*
Y579866D01*
Y583865D01*
X995947D01*
Y587864D01*
Y579866D01*
X1003944Y587864D02*
X998612D01*
Y579866D01*
X1003944D01*
X998612Y583865D02*
X1001278D01*
X1006610Y579866D02*
Y587864D01*
X1010609D01*
X1011942Y586531D01*
Y583865D01*
X1010609Y582532D01*
X1006610D01*
X1009276D02*
X1011942Y579866D01*
X1014607Y587864D02*
Y579866D01*
X1017273Y582532D01*
X1019939Y579866D01*
Y587864D01*
X1022605D02*
X1025270D01*
X1023938D01*
Y579866D01*
X1022605D01*
X1025270D01*
X1034601Y586531D02*
X1033268Y587864D01*
X1030602D01*
X1029269Y586531D01*
Y585198D01*
X1030602Y583865D01*
X1033268D01*
X1034601Y582532D01*
Y581199D01*
X1033268Y579866D01*
X1030602D01*
X1029269Y581199D01*
X1042598Y587864D02*
X1037267D01*
Y579866D01*
X1042598D01*
X1037267Y583865D02*
X1039932D01*
X1045264Y579866D02*
X1047930Y582532D01*
Y585198D01*
X1045264Y587864D01*
X796524Y550339D02*
X799189D01*
X797857D01*
Y558336D01*
X796524Y557003D01*
X803188Y550339D02*
Y551672D01*
X804521D01*
Y550339D01*
X803188D01*
X823182Y558336D02*
X817850D01*
Y554337D01*
X820516D01*
X817850D01*
Y550339D01*
X825848D02*
Y555670D01*
X828513Y558336D01*
X831179Y555670D01*
Y550339D01*
Y554337D01*
X825848D01*
X833845Y558336D02*
Y550339D01*
X837844D01*
X839176Y551672D01*
Y553004D01*
X837844Y554337D01*
X833845D01*
X837844D01*
X839176Y555670D01*
Y557003D01*
X837844Y558336D01*
X833845D01*
X841842Y550339D02*
Y558336D01*
X845841D01*
X847174Y557003D01*
Y554337D01*
X845841Y553004D01*
X841842D01*
X844508D02*
X847174Y550339D01*
X849840Y558336D02*
X852505D01*
X851173D01*
Y550339D01*
X849840D01*
X852505D01*
X861836Y557003D02*
X860503Y558336D01*
X857837D01*
X856504Y557003D01*
Y551672D01*
X857837Y550339D01*
X860503D01*
X861836Y551672D01*
X864502Y550339D02*
Y555670D01*
X867167Y558336D01*
X869833Y555670D01*
Y550339D01*
Y554337D01*
X864502D01*
X872499Y558336D02*
X877831D01*
X875165D01*
Y550339D01*
X885828Y558336D02*
X880496D01*
Y550339D01*
X885828D01*
X880496Y554337D02*
X883162D01*
X896491Y550339D02*
Y558336D01*
X900490D01*
X901823Y557003D01*
Y554337D01*
X900490Y553004D01*
X896491D01*
X909820Y557003D02*
X908487Y558336D01*
X905822D01*
X904489Y557003D01*
Y551672D01*
X905822Y550339D01*
X908487D01*
X909820Y551672D01*
X912486Y558336D02*
Y550339D01*
X916485D01*
X917818Y551672D01*
Y553004D01*
X916485Y554337D01*
X912486D01*
X916485D01*
X917818Y555670D01*
Y557003D01*
X916485Y558336D01*
X912486D01*
X928481D02*
X931147D01*
X929814D01*
Y550339D01*
X928481D01*
X931147D01*
X935145D02*
Y558336D01*
X940477Y550339D01*
Y558336D01*
X951140Y550339D02*
Y555670D01*
X953806Y558336D01*
X956472Y555670D01*
Y550339D01*
Y554337D01*
X951140D01*
X964469Y557003D02*
X963136Y558336D01*
X960470D01*
X959138Y557003D01*
Y551672D01*
X960470Y550339D01*
X963136D01*
X964469Y551672D01*
X972467Y557003D02*
X971134Y558336D01*
X968468D01*
X967135Y557003D01*
Y551672D01*
X968468Y550339D01*
X971134D01*
X972467Y551672D01*
X979131Y558336D02*
X976465D01*
X975132Y557003D01*
Y551672D01*
X976465Y550339D01*
X979131D01*
X980464Y551672D01*
Y557003D01*
X979131Y558336D01*
X983130Y550339D02*
Y558336D01*
X987129D01*
X988461Y557003D01*
Y554337D01*
X987129Y553004D01*
X983130D01*
X985796D02*
X988461Y550339D01*
X991127Y558336D02*
Y550339D01*
X995126D01*
X996459Y551672D01*
Y557003D01*
X995126Y558336D01*
X991127D01*
X999125Y550339D02*
Y555670D01*
X1001791Y558336D01*
X1004456Y555670D01*
Y550339D01*
Y554337D01*
X999125D01*
X1007122Y550339D02*
Y558336D01*
X1012454Y550339D01*
Y558336D01*
X1020451Y557003D02*
X1019118Y558336D01*
X1016452D01*
X1015119Y557003D01*
Y551672D01*
X1016452Y550339D01*
X1019118D01*
X1020451Y551672D01*
X1028448Y558336D02*
X1023117D01*
Y550339D01*
X1028448D01*
X1023117Y554337D02*
X1025783D01*
X1039112Y558336D02*
Y550339D01*
X1041778Y553004D01*
X1044443Y550339D01*
Y558336D01*
X1047109D02*
X1049775D01*
X1048442D01*
Y550339D01*
X1047109D01*
X1049775D01*
X1053774Y558336D02*
X1059105D01*
X1056439D01*
Y550339D01*
X1061771Y558336D02*
Y550339D01*
Y554337D01*
X1067103D01*
Y558336D01*
Y550339D01*
X1077766Y558336D02*
X1080432D01*
X1079099D01*
Y550339D01*
X1077766D01*
X1080432D01*
X1084430D02*
Y558336D01*
X1088429D01*
X1089762Y557003D01*
Y554337D01*
X1088429Y553004D01*
X1084430D01*
X1097759Y557003D02*
X1096426Y558336D01*
X1093761D01*
X1092428Y557003D01*
Y551672D01*
X1093761Y550339D01*
X1096426D01*
X1097759Y551672D01*
X1100425Y554337D02*
X1105757D01*
X1108423Y550339D02*
Y555670D01*
X1111088Y558336D01*
X1113754Y555670D01*
Y550339D01*
Y554337D01*
X1108423D01*
X1116420D02*
X1121752D01*
X1129749Y558336D02*
X1127083Y557003D01*
X1124417Y554337D01*
Y551672D01*
X1125750Y550339D01*
X1128416D01*
X1129749Y551672D01*
Y553004D01*
X1128416Y554337D01*
X1124417D01*
X1132415Y557003D02*
X1133748Y558336D01*
X1136414D01*
X1137747Y557003D01*
Y551672D01*
X1136414Y550339D01*
X1133748D01*
X1132415Y551672D01*
Y557003D01*
X1140412D02*
X1141745Y558336D01*
X1144411D01*
X1145744Y557003D01*
Y551672D01*
X1144411Y550339D01*
X1141745D01*
X1140412Y551672D01*
Y557003D01*
X1161739D02*
X1160406Y558336D01*
X1157740D01*
X1156407Y557003D01*
Y551672D01*
X1157740Y550339D01*
X1160406D01*
X1161739Y551672D01*
X1164404Y558336D02*
Y550339D01*
X1169736D01*
X1172402D02*
Y555670D01*
X1175068Y558336D01*
X1177734Y555670D01*
Y550339D01*
Y554337D01*
X1172402D01*
X1185731Y557003D02*
X1184398Y558336D01*
X1181732D01*
X1180399Y557003D01*
Y555670D01*
X1181732Y554337D01*
X1184398D01*
X1185731Y553004D01*
Y551672D01*
X1184398Y550339D01*
X1181732D01*
X1180399Y551672D01*
X1193728Y557003D02*
X1192395Y558336D01*
X1189730D01*
X1188397Y557003D01*
Y555670D01*
X1189730Y554337D01*
X1192395D01*
X1193728Y553004D01*
Y551672D01*
X1192395Y550339D01*
X1189730D01*
X1188397Y551672D01*
X1209723Y550339D02*
X1204391D01*
X1209723Y555670D01*
Y557003D01*
X1208390Y558336D01*
X1205725D01*
X1204391Y557003D01*
X1223052Y550339D02*
X1220386Y553004D01*
Y555670D01*
X1223052Y558336D01*
X1227051D02*
Y550339D01*
X1232382D01*
X1235048D02*
Y555670D01*
X1237714Y558336D01*
X1240380Y555670D01*
Y550339D01*
Y554337D01*
X1235048D01*
X1243046Y558336D02*
X1248377D01*
X1245712D01*
Y550339D01*
X1256375Y558336D02*
X1251043D01*
Y550339D01*
X1256375D01*
X1251043Y554337D02*
X1253709D01*
X1264372Y557003D02*
X1263039Y558336D01*
X1260373D01*
X1259041Y557003D01*
Y555670D01*
X1260373Y554337D01*
X1263039D01*
X1264372Y553004D01*
Y551672D01*
X1263039Y550339D01*
X1260373D01*
X1259041Y551672D01*
X1267038Y558336D02*
X1272369D01*
X1269704D01*
Y550339D01*
X1283033D02*
Y558336D01*
X1287031D01*
X1288364Y557003D01*
Y554337D01*
X1287031Y553004D01*
X1283033D01*
X1285699D02*
X1288364Y550339D01*
X1296362Y558336D02*
X1291030D01*
Y550339D01*
X1296362D01*
X1291030Y554337D02*
X1293696D01*
X1299028Y558336D02*
Y553004D01*
X1301693Y550339D01*
X1304359Y553004D01*
Y558336D01*
X1307025D02*
X1309691D01*
X1308358D01*
Y550339D01*
X1307025D01*
X1309691D01*
X1319021Y557003D02*
X1317688Y558336D01*
X1315022D01*
X1313690Y557003D01*
Y555670D01*
X1315022Y554337D01*
X1317688D01*
X1319021Y553004D01*
Y551672D01*
X1317688Y550339D01*
X1315022D01*
X1313690Y551672D01*
X1321687Y558336D02*
X1324353D01*
X1323020D01*
Y550339D01*
X1321687D01*
X1324353D01*
X1332350Y558336D02*
X1329684D01*
X1328351Y557003D01*
Y551672D01*
X1329684Y550339D01*
X1332350D01*
X1333683Y551672D01*
Y557003D01*
X1332350Y558336D01*
X1336349Y550339D02*
Y558336D01*
X1341680Y550339D01*
Y558336D01*
X1344346Y550339D02*
X1347012Y553004D01*
Y555670D01*
X1344346Y558336D01*
X801855Y520811D02*
X796524D01*
X801855Y526143D01*
Y527476D01*
X800522Y528808D01*
X797857D01*
X796524Y527476D01*
X804521Y520811D02*
Y522144D01*
X805854D01*
Y520811D01*
X804521D01*
X819183Y528808D02*
X824515D01*
X821849D01*
Y520811D01*
X827180Y528808D02*
Y520811D01*
Y524810D01*
X832512D01*
Y528808D01*
Y520811D01*
X840509Y528808D02*
X835178D01*
Y520811D01*
X840509D01*
X835178Y524810D02*
X837844D01*
X851173Y520811D02*
Y528808D01*
X855171D01*
X856504Y527476D01*
Y524810D01*
X855171Y523477D01*
X851173D01*
X864502Y527476D02*
X863169Y528808D01*
X860503D01*
X859170Y527476D01*
Y522144D01*
X860503Y520811D01*
X863169D01*
X864502Y522144D01*
X867167Y528808D02*
Y520811D01*
X871166D01*
X872499Y522144D01*
Y523477D01*
X871166Y524810D01*
X867167D01*
X871166D01*
X872499Y526143D01*
Y527476D01*
X871166Y528808D01*
X867167D01*
X883162Y520811D02*
Y528808D01*
X885828Y526143D01*
X888494Y528808D01*
Y520811D01*
X891160Y528808D02*
Y522144D01*
X892492Y520811D01*
X895158D01*
X896491Y522144D01*
Y528808D01*
X904489Y527476D02*
X903156Y528808D01*
X900490D01*
X899157Y527476D01*
Y526143D01*
X900490Y524810D01*
X903156D01*
X904489Y523477D01*
Y522144D01*
X903156Y520811D01*
X900490D01*
X899157Y522144D01*
X907154Y528808D02*
X912486D01*
X909820D01*
Y520811D01*
X923149Y528808D02*
Y520811D01*
X927148D01*
X928481Y522144D01*
Y523477D01*
X927148Y524810D01*
X923149D01*
X927148D01*
X928481Y526143D01*
Y527476D01*
X927148Y528808D01*
X923149D01*
X936478D02*
X931147D01*
Y520811D01*
X936478D01*
X931147Y524810D02*
X933813D01*
X947141Y528808D02*
Y520811D01*
X952473D01*
X960470Y528808D02*
X955139D01*
Y520811D01*
X960470D01*
X955139Y524810D02*
X957805D01*
X963136Y520811D02*
Y526143D01*
X965802Y528808D01*
X968468Y526143D01*
Y520811D01*
Y524810D01*
X963136D01*
X971134Y528808D02*
Y520811D01*
X975132D01*
X976465Y522144D01*
Y527476D01*
X975132Y528808D01*
X971134D01*
X992460D02*
X987129D01*
Y524810D01*
X989794D01*
X987129D01*
Y520811D01*
X995126D02*
Y528808D01*
X999125D01*
X1000458Y527476D01*
Y524810D01*
X999125Y523477D01*
X995126D01*
X997792D02*
X1000458Y520811D01*
X1008455Y528808D02*
X1003123D01*
Y520811D01*
X1008455D01*
X1003123Y524810D02*
X1005789D01*
X1016452Y528808D02*
X1011121D01*
Y520811D01*
X1016452D01*
X1011121Y524810D02*
X1013787D01*
X1027116Y520811D02*
Y526143D01*
X1029781Y528808D01*
X1032447Y526143D01*
Y520811D01*
Y524810D01*
X1027116D01*
X1040445Y527476D02*
X1039112Y528808D01*
X1036446D01*
X1035113Y527476D01*
Y526143D01*
X1036446Y524810D01*
X1039112D01*
X1040445Y523477D01*
Y522144D01*
X1039112Y520811D01*
X1036446D01*
X1035113Y522144D01*
X1048442Y527476D02*
X1047109Y528808D01*
X1044443D01*
X1043110Y527476D01*
Y526143D01*
X1044443Y524810D01*
X1047109D01*
X1048442Y523477D01*
Y522144D01*
X1047109Y520811D01*
X1044443D01*
X1043110Y522144D01*
X1056439Y528808D02*
X1051108D01*
Y520811D01*
X1056439D01*
X1051108Y524810D02*
X1053774D01*
X1059105Y520811D02*
Y528808D01*
X1061771Y526143D01*
X1064437Y528808D01*
Y520811D01*
X1067103Y528808D02*
Y520811D01*
X1071101D01*
X1072434Y522144D01*
Y523477D01*
X1071101Y524810D01*
X1067103D01*
X1071101D01*
X1072434Y526143D01*
Y527476D01*
X1071101Y528808D01*
X1067103D01*
X1075100D02*
Y520811D01*
X1080432D01*
X1083097Y528808D02*
Y527476D01*
X1085763Y524810D01*
X1088429Y527476D01*
Y528808D01*
X1085763Y524810D02*
Y520811D01*
X1099092D02*
Y528808D01*
X1103091D01*
X1104424Y527476D01*
Y524810D01*
X1103091Y523477D01*
X1099092D01*
X1107090Y520811D02*
Y528808D01*
X1111088D01*
X1112421Y527476D01*
Y524810D01*
X1111088Y523477D01*
X1107090D01*
X1109756D02*
X1112421Y520811D01*
X1119086Y528808D02*
X1116420D01*
X1115087Y527476D01*
Y522144D01*
X1116420Y520811D01*
X1119086D01*
X1120419Y522144D01*
Y527476D01*
X1119086Y528808D01*
X1128416Y527476D02*
X1127083Y528808D01*
X1124417D01*
X1123085Y527476D01*
Y522144D01*
X1124417Y520811D01*
X1127083D01*
X1128416Y522144D01*
X1136414Y528808D02*
X1131082D01*
Y520811D01*
X1136414D01*
X1131082Y524810D02*
X1133748D01*
X1144411Y527476D02*
X1143078Y528808D01*
X1140412D01*
X1139079Y527476D01*
Y526143D01*
X1140412Y524810D01*
X1143078D01*
X1144411Y523477D01*
Y522144D01*
X1143078Y520811D01*
X1140412D01*
X1139079Y522144D01*
X1152408Y527476D02*
X1151075Y528808D01*
X1148410D01*
X1147077Y527476D01*
Y526143D01*
X1148410Y524810D01*
X1151075D01*
X1152408Y523477D01*
Y522144D01*
X1151075Y520811D01*
X1148410D01*
X1147077Y522144D01*
X1168403Y527476D02*
X1167070Y528808D01*
X1164404D01*
X1163072Y527476D01*
Y522144D01*
X1164404Y520811D01*
X1167070D01*
X1168403Y522144D01*
X1175068Y528808D02*
X1172402D01*
X1171069Y527476D01*
Y522144D01*
X1172402Y520811D01*
X1175068D01*
X1176401Y522144D01*
Y527476D01*
X1175068Y528808D01*
X1179066Y520811D02*
Y528808D01*
X1181732Y526143D01*
X1184398Y528808D01*
Y520811D01*
X1187064D02*
Y528808D01*
X1191063D01*
X1192395Y527476D01*
Y524810D01*
X1191063Y523477D01*
X1187064D01*
X1195061Y520811D02*
Y526143D01*
X1197727Y528808D01*
X1200393Y526143D01*
Y520811D01*
Y524810D01*
X1195061D01*
X1203059Y528808D02*
X1208390D01*
X1205724D01*
Y520811D01*
X1211056Y528808D02*
X1213722D01*
X1212389D01*
Y520811D01*
X1211056D01*
X1213722D01*
X1217721Y528808D02*
Y520811D01*
X1221719D01*
X1223052Y522144D01*
Y523477D01*
X1221719Y524810D01*
X1217721D01*
X1221719D01*
X1223052Y526143D01*
Y527476D01*
X1221719Y528808D01*
X1217721D01*
X1225718D02*
Y520811D01*
X1231050D01*
X1239047Y528808D02*
X1233715D01*
Y520811D01*
X1239047D01*
X1233715Y524810D02*
X1236381D01*
X1241713Y520811D02*
Y522144D01*
X1243046D01*
Y520811D01*
X1241713D01*
X796524Y488105D02*
X797857Y489438D01*
X800522D01*
X801855Y488105D01*
Y486773D01*
X800522Y485440D01*
X799189D01*
X800522D01*
X801855Y484107D01*
Y482774D01*
X800522Y481441D01*
X797857D01*
X796524Y482774D01*
X804521Y481441D02*
Y482774D01*
X805854D01*
Y481441D01*
X804521D01*
X819183Y489438D02*
Y481441D01*
X824515D01*
X827180D02*
Y486773D01*
X829846Y489438D01*
X832512Y486773D01*
Y481441D01*
Y485440D01*
X827180D01*
X835178Y481441D02*
Y489438D01*
X837844Y486773D01*
X840509Y489438D01*
Y481441D01*
X843175Y489438D02*
X845841D01*
X844508D01*
Y481441D01*
X843175D01*
X845841D01*
X849840D02*
Y489438D01*
X855171Y481441D01*
Y489438D01*
X857837Y481441D02*
Y486773D01*
X860503Y489438D01*
X863169Y486773D01*
Y481441D01*
Y485440D01*
X857837D01*
X865835Y489438D02*
X871166D01*
X868500D01*
Y481441D01*
X879163Y489438D02*
X873832D01*
Y481441D01*
X879163D01*
X873832Y485440D02*
X876498D01*
X889827Y481441D02*
Y486773D01*
X892492Y489438D01*
X895158Y486773D01*
Y481441D01*
Y485440D01*
X889827D01*
X897824Y481441D02*
Y489438D01*
X903156Y481441D01*
Y489438D01*
X905822D02*
Y481441D01*
X909820D01*
X911153Y482774D01*
Y488105D01*
X909820Y489438D01*
X905822D01*
X921816Y481441D02*
Y489438D01*
X925815D01*
X927148Y488105D01*
Y485440D01*
X925815Y484107D01*
X921816D01*
X929814Y481441D02*
Y489438D01*
X933813D01*
X935145Y488105D01*
Y485440D01*
X933813Y484107D01*
X929814D01*
X932480D02*
X935145Y481441D01*
X943143Y489438D02*
X937811D01*
Y481441D01*
X943143D01*
X937811Y485440D02*
X940477D01*
X945809Y481441D02*
Y489438D01*
X949807D01*
X951140Y488105D01*
Y485440D01*
X949807Y484107D01*
X945809D01*
X953806Y481441D02*
Y489438D01*
X957805D01*
X959138Y488105D01*
Y485440D01*
X957805Y484107D01*
X953806D01*
X956472D02*
X959138Y481441D01*
X967135Y489438D02*
X961803D01*
Y481441D01*
X967135D01*
X961803Y485440D02*
X964469D01*
X975132Y488105D02*
X973800Y489438D01*
X971134D01*
X969801Y488105D01*
Y482774D01*
X971134Y481441D01*
X973800D01*
X975132Y482774D01*
Y485440D01*
X972467D01*
X985796Y489438D02*
X991127D01*
X988461D01*
Y481441D01*
X997792Y489438D02*
X995126D01*
X993793Y488105D01*
Y482774D01*
X995126Y481441D01*
X997792D01*
X999125Y482774D01*
Y488105D01*
X997792Y489438D01*
X1009788D02*
Y481441D01*
X1013787D01*
X1015119Y482774D01*
Y484107D01*
X1013787Y485440D01*
X1009788D01*
X1013787D01*
X1015119Y486773D01*
Y488105D01*
X1013787Y489438D01*
X1009788D01*
X1023117D02*
X1017785D01*
Y481441D01*
X1023117D01*
X1017785Y485440D02*
X1020451D01*
X1039112Y489438D02*
X1033780D01*
Y485440D01*
X1036446D01*
X1033780D01*
Y481441D01*
X1041778D02*
Y489438D01*
X1045776D01*
X1047109Y488105D01*
Y485440D01*
X1045776Y484107D01*
X1041778D01*
X1044443D02*
X1047109Y481441D01*
X1053774D02*
Y489438D01*
X1049775Y485440D01*
X1055107D01*
X1065770Y489438D02*
X1071101D01*
X1068436D01*
Y481441D01*
X1079099Y488105D02*
X1077766Y489438D01*
X1075100D01*
X1073767Y488105D01*
Y482774D01*
X1075100Y481441D01*
X1077766D01*
X1079099Y482774D01*
Y485440D01*
X1076433D01*
X1081765Y481441D02*
X1084430D01*
X1083097D01*
Y489438D01*
X1081765Y488105D01*
X1088429Y489438D02*
X1093761D01*
Y488105D01*
X1088429Y482774D01*
Y481441D01*
X1096426Y488105D02*
X1097759Y489438D01*
X1100425D01*
X1101758Y488105D01*
Y482774D01*
X1100425Y481441D01*
X1097759D01*
X1096426Y482774D01*
Y488105D01*
X800522Y451913D02*
Y459911D01*
X796524Y455912D01*
X801855D01*
X804521Y451913D02*
Y453246D01*
X805854D01*
Y451913D01*
X804521D01*
X819183D02*
Y459911D01*
X823182D01*
X824515Y458578D01*
Y455912D01*
X823182Y454579D01*
X819183D01*
X827180Y459911D02*
Y451913D01*
X832512D01*
X835178D02*
Y457245D01*
X837844Y459911D01*
X840509Y457245D01*
Y451913D01*
Y455912D01*
X835178D01*
X843175Y459911D02*
X848507D01*
X845841D01*
Y451913D01*
X851173Y459911D02*
X853838D01*
X852505D01*
Y451913D01*
X851173D01*
X853838D01*
X857837D02*
Y459911D01*
X863169Y451913D01*
Y459911D01*
X871166Y458578D02*
X869833Y459911D01*
X867167D01*
X865835Y458578D01*
Y453246D01*
X867167Y451913D01*
X869833D01*
X871166Y453246D01*
Y455912D01*
X868500D01*
X887161Y459911D02*
X881829D01*
Y455912D01*
X884495D01*
X881829D01*
Y451913D01*
X889827Y459911D02*
X892492D01*
X891160D01*
Y451913D01*
X889827D01*
X892492D01*
X896491D02*
Y459911D01*
X901823Y451913D01*
Y459911D01*
X904489D02*
X907154D01*
X905822D01*
Y451913D01*
X904489D01*
X907154D01*
X916485Y458578D02*
X915152Y459911D01*
X912486D01*
X911153Y458578D01*
Y457245D01*
X912486Y455912D01*
X915152D01*
X916485Y454579D01*
Y453246D01*
X915152Y451913D01*
X912486D01*
X911153Y453246D01*
X919151Y459911D02*
Y451913D01*
Y455912D01*
X924482D01*
Y459911D01*
Y451913D01*
X935145Y455912D02*
X940477D01*
X951140Y459911D02*
Y451913D01*
X955139D01*
X956472Y453246D01*
Y454579D01*
X955139Y455912D01*
X951140D01*
X955139D01*
X956472Y457245D01*
Y458578D01*
X955139Y459911D01*
X951140D01*
X963136D02*
X960470D01*
X959138Y458578D01*
Y453246D01*
X960470Y451913D01*
X963136D01*
X964469Y453246D01*
Y458578D01*
X963136Y459911D01*
X967135D02*
X972467D01*
X969801D01*
Y451913D01*
X975132Y459911D02*
Y451913D01*
Y455912D01*
X980464D01*
Y459911D01*
Y451913D01*
X996459Y458578D02*
X995126Y459911D01*
X992460D01*
X991127Y458578D01*
Y457245D01*
X992460Y455912D01*
X995126D01*
X996459Y454579D01*
Y453246D01*
X995126Y451913D01*
X992460D01*
X991127Y453246D01*
X999125Y459911D02*
X1001791D01*
X1000458D01*
Y451913D01*
X999125D01*
X1001791D01*
X1005789Y459911D02*
Y451913D01*
X1009788D01*
X1011121Y453246D01*
Y458578D01*
X1009788Y459911D01*
X1005789D01*
X1019118D02*
X1013787D01*
Y451913D01*
X1019118D01*
X1013787Y455912D02*
X1016452D01*
X1027116Y458578D02*
X1025783Y459911D01*
X1023117D01*
X1021784Y458578D01*
Y457245D01*
X1023117Y455912D01*
X1025783D01*
X1027116Y454579D01*
Y453246D01*
X1025783Y451913D01*
X1023117D01*
X1021784Y453246D01*
X1043110Y459911D02*
X1037779D01*
Y451913D01*
X1043110D01*
X1037779Y455912D02*
X1040445D01*
X1045776Y451913D02*
Y459911D01*
X1051108Y451913D01*
Y459911D01*
X1053774D02*
X1056439D01*
X1055107D01*
Y451913D01*
X1053774D01*
X1056439D01*
X1065770Y458578D02*
X1064437Y459911D01*
X1061771D01*
X1060438Y458578D01*
Y453246D01*
X1061771Y451913D01*
X1064437D01*
X1065770Y453246D01*
Y455912D01*
X1063104D01*
X1081765Y458578D02*
X1080432Y459911D01*
X1077766D01*
X1076433Y458578D01*
Y453246D01*
X1077766Y451913D01*
X1080432D01*
X1081765Y453246D01*
Y455912D01*
X1079099D01*
X1088429Y459911D02*
X1085763D01*
X1084430Y458578D01*
Y453246D01*
X1085763Y451913D01*
X1088429D01*
X1089762Y453246D01*
Y458578D01*
X1088429Y459911D01*
X1092428D02*
Y451913D01*
X1097759D01*
X1100425Y459911D02*
Y451913D01*
X1104424D01*
X1105757Y453246D01*
Y458578D01*
X1104424Y459911D01*
X1100425D01*
X1116420Y451913D02*
Y459911D01*
X1120419D01*
X1121752Y458578D01*
Y455912D01*
X1120419Y454579D01*
X1116420D01*
X1124417Y459911D02*
Y451913D01*
X1129749D01*
X1132415D02*
Y457245D01*
X1135081Y459911D01*
X1137747Y457245D01*
Y451913D01*
Y455912D01*
X1132415D01*
X1140412Y459911D02*
X1145744D01*
X1143078D01*
Y451913D01*
X1153741Y459911D02*
X1148410D01*
Y451913D01*
X1153741D01*
X1148410Y455912D02*
X1151075D01*
X1156407Y459911D02*
Y451913D01*
X1160406D01*
X1161739Y453246D01*
Y458578D01*
X1160406Y459911D01*
X1156407D01*
X801855Y430383D02*
X796524D01*
Y426384D01*
X799189Y427717D01*
X800522D01*
X801855Y426384D01*
Y423719D01*
X800522Y422386D01*
X797857D01*
X796524Y423719D01*
X804521Y422386D02*
Y423719D01*
X805854D01*
Y422386D01*
X804521D01*
X824515Y429050D02*
X823182Y430383D01*
X820516D01*
X819183Y429050D01*
Y427717D01*
X820516Y426384D01*
X823182D01*
X824515Y425052D01*
Y423719D01*
X823182Y422386D01*
X820516D01*
X819183Y423719D01*
X831179Y430383D02*
X828513D01*
X827180Y429050D01*
Y423719D01*
X828513Y422386D01*
X831179D01*
X832512Y423719D01*
Y429050D01*
X831179Y430383D01*
X835178D02*
Y422386D01*
X840509D01*
X843175Y430383D02*
Y422386D01*
X847174D01*
X848507Y423719D01*
Y429050D01*
X847174Y430383D01*
X843175D01*
X856504D02*
X851173D01*
Y422386D01*
X856504D01*
X851173Y426384D02*
X853838D01*
X859170Y422386D02*
Y430383D01*
X863169D01*
X864502Y429050D01*
Y426384D01*
X863169Y425052D01*
X859170D01*
X861836D02*
X864502Y422386D01*
X867167D02*
Y430383D01*
X869833Y427717D01*
X872499Y430383D01*
Y422386D01*
X875165D02*
Y427717D01*
X877831Y430383D01*
X880496Y427717D01*
Y422386D01*
Y426384D01*
X875165D01*
X888494Y429050D02*
X887161Y430383D01*
X884495D01*
X883162Y429050D01*
Y427717D01*
X884495Y426384D01*
X887161D01*
X888494Y425052D01*
Y423719D01*
X887161Y422386D01*
X884495D01*
X883162Y423719D01*
X891160Y430383D02*
Y422386D01*
Y425052D01*
X896491Y430383D01*
X892492Y426384D01*
X896491Y422386D01*
X907154Y426384D02*
X912486D01*
X923149Y430383D02*
Y422386D01*
X927148D01*
X928481Y423719D01*
Y425052D01*
X927148Y426384D01*
X923149D01*
X927148D01*
X928481Y427717D01*
Y429050D01*
X927148Y430383D01*
X923149D01*
X935145D02*
X932480D01*
X931147Y429050D01*
Y423719D01*
X932480Y422386D01*
X935145D01*
X936478Y423719D01*
Y429050D01*
X935145Y430383D01*
X939144D02*
X944476D01*
X941810D01*
Y422386D01*
X947141Y430383D02*
Y422386D01*
Y426384D01*
X952473D01*
Y430383D01*
Y422386D01*
X968468Y429050D02*
X967135Y430383D01*
X964469D01*
X963136Y429050D01*
Y427717D01*
X964469Y426384D01*
X967135D01*
X968468Y425052D01*
Y423719D01*
X967135Y422386D01*
X964469D01*
X963136Y423719D01*
X971134Y430383D02*
X973800D01*
X972467D01*
Y422386D01*
X971134D01*
X973800D01*
X977798Y430383D02*
Y422386D01*
X981797D01*
X983130Y423719D01*
Y429050D01*
X981797Y430383D01*
X977798D01*
X991127D02*
X985796D01*
Y422386D01*
X991127D01*
X985796Y426384D02*
X988461D01*
X999125Y429050D02*
X997792Y430383D01*
X995126D01*
X993793Y429050D01*
Y427717D01*
X995126Y426384D01*
X997792D01*
X999125Y425052D01*
Y423719D01*
X997792Y422386D01*
X995126D01*
X993793Y423719D01*
X1015119Y429050D02*
X1013787Y430383D01*
X1011121D01*
X1009788Y429050D01*
Y423719D01*
X1011121Y422386D01*
X1013787D01*
X1015119Y423719D01*
Y426384D01*
X1012454D01*
X1017785Y422386D02*
Y430383D01*
X1021784D01*
X1023117Y429050D01*
Y426384D01*
X1021784Y425052D01*
X1017785D01*
X1020451D02*
X1023117Y422386D01*
X1031114Y430383D02*
X1025783D01*
Y422386D01*
X1031114D01*
X1025783Y426384D02*
X1028448D01*
X1039112Y430383D02*
X1033780D01*
Y422386D01*
X1039112D01*
X1033780Y426384D02*
X1036446D01*
X1041778Y422386D02*
Y430383D01*
X1047109Y422386D01*
Y430383D01*
X796524Y341412D02*
X797857Y342745D01*
X800522D01*
X801855Y341412D01*
Y340080D01*
X800522Y338747D01*
X801855Y337414D01*
Y336081D01*
X800522Y334748D01*
X797857D01*
X796524Y336081D01*
Y337414D01*
X797857Y338747D01*
X796524Y340080D01*
Y341412D01*
X797857Y338747D02*
X800522D01*
X804521Y334748D02*
Y336081D01*
X805854D01*
Y334748D01*
X804521D01*
X824515Y341412D02*
X823182Y342745D01*
X820516D01*
X819183Y341412D01*
Y340080D01*
X820516Y338747D01*
X823182D01*
X824515Y337414D01*
Y336081D01*
X823182Y334748D01*
X820516D01*
X819183Y336081D01*
X827180Y342745D02*
X829846D01*
X828513D01*
Y334748D01*
X827180D01*
X829846D01*
X833845Y342745D02*
Y334748D01*
X839176D01*
X841842Y342745D02*
Y334748D01*
Y337414D01*
X847174Y342745D01*
X843175Y338747D01*
X847174Y334748D01*
X855171Y341412D02*
X853838Y342745D01*
X851173D01*
X849840Y341412D01*
Y340080D01*
X851173Y338747D01*
X853838D01*
X855171Y337414D01*
Y336081D01*
X853838Y334748D01*
X851173D01*
X849840Y336081D01*
X863169Y341412D02*
X861836Y342745D01*
X859170D01*
X857837Y341412D01*
Y336081D01*
X859170Y334748D01*
X861836D01*
X863169Y336081D01*
X865835Y334748D02*
Y342745D01*
X869833D01*
X871166Y341412D01*
Y338747D01*
X869833Y337414D01*
X865835D01*
X868500D02*
X871166Y334748D01*
X879163Y342745D02*
X873832D01*
Y334748D01*
X879163D01*
X873832Y338747D02*
X876498D01*
X887161Y342745D02*
X881829D01*
Y334748D01*
X887161D01*
X881829Y338747D02*
X884495D01*
X889827Y334748D02*
Y342745D01*
X895158Y334748D01*
Y342745D01*
X905822Y338747D02*
X911153D01*
X921816Y342745D02*
Y334748D01*
X924482Y337414D01*
X927148Y334748D01*
Y342745D01*
X929814D02*
Y334748D01*
Y338747D01*
X935145D01*
Y342745D01*
Y334748D01*
X937811Y342745D02*
X940477D01*
X939144D01*
Y334748D01*
X937811D01*
X940477D01*
X944476Y342745D02*
X949807D01*
X947141D01*
Y334748D01*
X957805Y342745D02*
X952473D01*
Y334748D01*
X957805D01*
X952473Y338747D02*
X955139D01*
X973800Y342745D02*
X968468D01*
Y334748D01*
X973800D01*
X968468Y338747D02*
X971134D01*
X976465Y334748D02*
Y342745D01*
X980464D01*
X981797Y341412D01*
Y338747D01*
X980464Y337414D01*
X976465D01*
X988461Y342745D02*
X985796D01*
X984463Y341412D01*
Y336081D01*
X985796Y334748D01*
X988461D01*
X989794Y336081D01*
Y341412D01*
X988461Y342745D01*
X992460D02*
X997792Y334748D01*
Y342745D02*
X992460Y334748D01*
X1000458Y342745D02*
Y341412D01*
X1003123Y338747D01*
X1005789Y341412D01*
Y342745D01*
X1003123Y338747D02*
Y334748D01*
X1016452Y342745D02*
X1019118D01*
X1017785D01*
Y334748D01*
X1016452D01*
X1019118D01*
X1023117D02*
Y342745D01*
X1028448Y334748D01*
Y342745D01*
X1031114D02*
Y334748D01*
Y337414D01*
X1036446Y342745D01*
X1032447Y338747D01*
X1036446Y334748D01*
X1040445Y333415D02*
X1041778Y334748D01*
Y336081D01*
X1040445D01*
Y334748D01*
X1041778D01*
X1040445Y333415D01*
X1039112Y332082D01*
X1055107Y342745D02*
Y334748D01*
X1059105D01*
X1060438Y336081D01*
Y337414D01*
X1059105Y338747D01*
X1055107D01*
X1059105D01*
X1060438Y340080D01*
Y341412D01*
X1059105Y342745D01*
X1055107D01*
X1067103D02*
X1064437D01*
X1063104Y341412D01*
Y336081D01*
X1064437Y334748D01*
X1067103D01*
X1068436Y336081D01*
Y341412D01*
X1067103Y342745D01*
X1071101D02*
X1076433D01*
X1073767D01*
Y334748D01*
X1079099Y342745D02*
Y334748D01*
Y338747D01*
X1084430D01*
Y342745D01*
Y334748D01*
X1100425Y341412D02*
X1099092Y342745D01*
X1096426D01*
X1095094Y341412D01*
Y340080D01*
X1096426Y338747D01*
X1099092D01*
X1100425Y337414D01*
Y336081D01*
X1099092Y334748D01*
X1096426D01*
X1095094Y336081D01*
X1103091Y342745D02*
X1105757D01*
X1104424D01*
Y334748D01*
X1103091D01*
X1105757D01*
X1109756Y342745D02*
Y334748D01*
X1113754D01*
X1115087Y336081D01*
Y341412D01*
X1113754Y342745D01*
X1109756D01*
X1123085D02*
X1117753D01*
Y334748D01*
X1123085D01*
X1117753Y338747D02*
X1120419D01*
X1131082Y341412D02*
X1129749Y342745D01*
X1127083D01*
X1125750Y341412D01*
Y340080D01*
X1127083Y338747D01*
X1129749D01*
X1131082Y337414D01*
Y336081D01*
X1129749Y334748D01*
X1127083D01*
X1125750Y336081D01*
X1133748Y334748D02*
Y336081D01*
X1135081D01*
Y334748D01*
X1133748D01*
X1148410D02*
Y342745D01*
X1153741Y334748D01*
Y342745D01*
X1160406D02*
X1157740D01*
X1156407Y341412D01*
Y336081D01*
X1157740Y334748D01*
X1160406D01*
X1161739Y336081D01*
Y341412D01*
X1160406Y342745D01*
X1177734Y341412D02*
X1176401Y342745D01*
X1173735D01*
X1172402Y341412D01*
Y340080D01*
X1173735Y338747D01*
X1176401D01*
X1177734Y337414D01*
Y336081D01*
X1176401Y334748D01*
X1173735D01*
X1172402Y336081D01*
X1180399Y342745D02*
X1183065D01*
X1181732D01*
Y334748D01*
X1180399D01*
X1183065D01*
X1187064Y342745D02*
Y334748D01*
X1192395D01*
X1195061Y342745D02*
Y334748D01*
Y337414D01*
X1200393Y342745D01*
X1196394Y338747D01*
X1200393Y334748D01*
X1215055Y342745D02*
X1212389D01*
X1211056Y341412D01*
Y336081D01*
X1212389Y334748D01*
X1215055D01*
X1216388Y336081D01*
Y341412D01*
X1215055Y342745D01*
X1219053Y334748D02*
Y342745D01*
X1224385Y334748D01*
Y342745D01*
X1235048Y334748D02*
Y342745D01*
X1239047D01*
X1240380Y341412D01*
Y338747D01*
X1239047Y337414D01*
X1235048D01*
X1243046Y334748D02*
Y340080D01*
X1245712Y342745D01*
X1248377Y340080D01*
Y334748D01*
Y338747D01*
X1243046D01*
X1251043Y342745D02*
Y334748D01*
X1255042D01*
X1256375Y336081D01*
Y341412D01*
X1255042Y342745D01*
X1251043D01*
X1264372Y341412D02*
X1263039Y342745D01*
X1260373D01*
X1259041Y341412D01*
Y340080D01*
X1260373Y338747D01*
X1263039D01*
X1264372Y337414D01*
Y336081D01*
X1263039Y334748D01*
X1260373D01*
X1259041Y336081D01*
X801855Y400856D02*
X799189Y399523D01*
X796524Y396857D01*
Y394191D01*
X797857Y392858D01*
X800522D01*
X801855Y394191D01*
Y395524D01*
X800522Y396857D01*
X796524D01*
X804521Y392858D02*
Y394191D01*
X805854D01*
Y392858D01*
X804521D01*
X824515Y399523D02*
X823182Y400856D01*
X820516D01*
X819183Y399523D01*
Y398190D01*
X820516Y396857D01*
X823182D01*
X824515Y395524D01*
Y394191D01*
X823182Y392858D01*
X820516D01*
X819183Y394191D01*
X831179Y400856D02*
X828513D01*
X827180Y399523D01*
Y394191D01*
X828513Y392858D01*
X831179D01*
X832512Y394191D01*
Y399523D01*
X831179Y400856D01*
X835178D02*
Y392858D01*
X840509D01*
X843175Y400856D02*
Y392858D01*
X847174D01*
X848507Y394191D01*
Y399523D01*
X847174Y400856D01*
X843175D01*
X856504D02*
X851173D01*
Y392858D01*
X856504D01*
X851173Y396857D02*
X853838D01*
X859170Y392858D02*
Y400856D01*
X863169D01*
X864502Y399523D01*
Y396857D01*
X863169Y395524D01*
X859170D01*
X861836D02*
X864502Y392858D01*
X880496Y399523D02*
X879163Y400856D01*
X876498D01*
X875165Y399523D01*
Y398190D01*
X876498Y396857D01*
X879163D01*
X880496Y395524D01*
Y394191D01*
X879163Y392858D01*
X876498D01*
X875165Y394191D01*
X883162Y392858D02*
Y398190D01*
X885828Y400856D01*
X888494Y398190D01*
Y392858D01*
Y396857D01*
X883162D01*
X891160Y392858D02*
Y400856D01*
X893825Y398190D01*
X896491Y400856D01*
Y392858D01*
X899157D02*
Y400856D01*
X903156D01*
X904489Y399523D01*
Y396857D01*
X903156Y395524D01*
X899157D01*
X907154Y400856D02*
Y392858D01*
X912486D01*
X920483Y400856D02*
X915152D01*
Y392858D01*
X920483D01*
X915152Y396857D02*
X917818D01*
X928481Y399523D02*
X927148Y400856D01*
X924482D01*
X923149Y399523D01*
Y398190D01*
X924482Y396857D01*
X927148D01*
X928481Y395524D01*
Y394191D01*
X927148Y392858D01*
X924482D01*
X923149Y394191D01*
X939144Y400856D02*
X944476D01*
X941810D01*
Y392858D01*
X951140Y400856D02*
X948474D01*
X947141Y399523D01*
Y394191D01*
X948474Y392858D01*
X951140D01*
X952473Y394191D01*
Y399523D01*
X951140Y400856D01*
X963136D02*
Y392858D01*
X967135D01*
X968468Y394191D01*
Y395524D01*
X967135Y396857D01*
X963136D01*
X967135D01*
X968468Y398190D01*
Y399523D01*
X967135Y400856D01*
X963136D01*
X976465D02*
X971134D01*
Y392858D01*
X976465D01*
X971134Y396857D02*
X973800D01*
X987129Y392858D02*
Y400856D01*
X991127D01*
X992460Y399523D01*
Y396857D01*
X991127Y395524D01*
X987129D01*
X995126Y392858D02*
Y400856D01*
X999125D01*
X1000458Y399523D01*
Y396857D01*
X999125Y395524D01*
X995126D01*
X997792D02*
X1000458Y392858D01*
X1007122Y400856D02*
X1004456D01*
X1003123Y399523D01*
Y394191D01*
X1004456Y392858D01*
X1007122D01*
X1008455Y394191D01*
Y399523D01*
X1007122Y400856D01*
X1011121D02*
Y395524D01*
X1013787Y392858D01*
X1016452Y395524D01*
Y400856D01*
X1019118D02*
X1021784D01*
X1020451D01*
Y392858D01*
X1019118D01*
X1021784D01*
X1025783Y400856D02*
Y392858D01*
X1029781D01*
X1031114Y394191D01*
Y399523D01*
X1029781Y400856D01*
X1025783D01*
X1039112D02*
X1033780D01*
Y392858D01*
X1039112D01*
X1033780Y396857D02*
X1036446D01*
X1041778Y400856D02*
Y392858D01*
X1045776D01*
X1047109Y394191D01*
Y399523D01*
X1045776Y400856D01*
X1041778D01*
X816209Y285535D02*
Y290867D01*
X818874Y293533D01*
X821540Y290867D01*
Y285535D01*
Y289534D01*
X816209D01*
X824206Y293533D02*
Y285535D01*
X828205D01*
X829538Y286868D01*
Y292200D01*
X828205Y293533D01*
X824206D01*
X832203D02*
Y285535D01*
X836202D01*
X837535Y286868D01*
Y292200D01*
X836202Y293533D01*
X832203D01*
X848198Y285535D02*
Y293533D01*
X852197D01*
X853530Y292200D01*
Y289534D01*
X852197Y288201D01*
X848198D01*
X850864D02*
X853530Y285535D01*
X860194Y293533D02*
X857529D01*
X856196Y292200D01*
Y286868D01*
X857529Y285535D01*
X860194D01*
X861527Y286868D01*
Y292200D01*
X860194Y293533D01*
X864193D02*
Y285535D01*
Y289534D01*
X869525D01*
Y293533D01*
Y285535D01*
X877522Y292200D02*
X876189Y293533D01*
X873523D01*
X872190Y292200D01*
Y290867D01*
X873523Y289534D01*
X876189D01*
X877522Y288201D01*
Y286868D01*
X876189Y285535D01*
X873523D01*
X872190Y286868D01*
X888185Y293533D02*
Y285535D01*
X893517D01*
X900181Y293533D02*
X897516D01*
X896183Y292200D01*
Y286868D01*
X897516Y285535D01*
X900181D01*
X901514Y286868D01*
Y292200D01*
X900181Y293533D01*
X909512Y292200D02*
X908179Y293533D01*
X905513D01*
X904180Y292200D01*
Y286868D01*
X905513Y285535D01*
X908179D01*
X909512Y286868D01*
Y289534D01*
X906846D01*
X916176Y293533D02*
X913511D01*
X912178Y292200D01*
Y286868D01*
X913511Y285535D01*
X916176D01*
X917509Y286868D01*
Y292200D01*
X916176Y293533D01*
X796524Y371328D02*
X801855D01*
Y369995D01*
X796524Y364664D01*
Y363331D01*
X804521D02*
Y364664D01*
X805854D01*
Y363331D01*
X804521D01*
X824515Y369995D02*
X823182Y371328D01*
X820516D01*
X819183Y369995D01*
Y368662D01*
X820516Y367329D01*
X823182D01*
X824515Y365997D01*
Y364664D01*
X823182Y363331D01*
X820516D01*
X819183Y364664D01*
X827180Y371328D02*
Y363331D01*
Y367329D01*
X828513Y368662D01*
X831179D01*
X832512Y367329D01*
Y363331D01*
X835178D02*
X837844D01*
X836511D01*
Y368662D01*
X835178D01*
X841842Y360665D02*
Y368662D01*
X845841D01*
X847174Y367329D01*
Y364664D01*
X845841Y363331D01*
X841842D01*
X859170Y368662D02*
X861836D01*
X863169Y367329D01*
Y363331D01*
X859170D01*
X857837Y364664D01*
X859170Y365997D01*
X863169D01*
X865835Y363331D02*
X869833D01*
X871166Y364664D01*
X869833Y365997D01*
X867167D01*
X865835Y367329D01*
X867167Y368662D01*
X871166D01*
X887161Y371328D02*
Y363331D01*
X883162D01*
X881829Y364664D01*
Y367329D01*
X883162Y368662D01*
X887161D01*
X893826Y363331D02*
X891160D01*
X889827Y364664D01*
Y367329D01*
X891160Y368662D01*
X893826D01*
X895158Y367329D01*
Y365997D01*
X889827D01*
X897824Y360665D02*
Y368662D01*
X901823D01*
X903156Y367329D01*
Y364664D01*
X901823Y363331D01*
X897824D01*
X907154Y368662D02*
X909820D01*
X911153Y367329D01*
Y363331D01*
X907154D01*
X905822Y364664D01*
X907154Y365997D01*
X911153D01*
X913819Y363331D02*
Y368662D01*
X917818D01*
X919151Y367329D01*
Y363331D01*
X925815D02*
X923149D01*
X921816Y364664D01*
Y367329D01*
X923149Y368662D01*
X925815D01*
X927148Y367329D01*
Y365997D01*
X921816D01*
X929814Y363331D02*
X932480D01*
X931147D01*
Y371328D01*
X929814D01*
X936478Y363331D02*
X939144D01*
X937811D01*
Y368662D01*
X936478D01*
X943143D02*
X948474D01*
X943143Y363331D01*
X948474D01*
X955139D02*
X952473D01*
X951140Y364664D01*
Y367329D01*
X952473Y368662D01*
X955139D01*
X956472Y367329D01*
Y365997D01*
X951140D01*
X964469Y371328D02*
Y363331D01*
X960470D01*
X959138Y364664D01*
Y367329D01*
X960470Y368662D01*
X964469D01*
X975132Y363331D02*
X977798D01*
X976465D01*
Y368662D01*
X975132D01*
X981797Y363331D02*
Y368662D01*
X985796D01*
X987129Y367329D01*
Y363331D01*
X995126Y371328D02*
Y363331D01*
X991127D01*
X989794Y364664D01*
Y367329D01*
X991127Y368662D01*
X995126D01*
X997792Y363331D02*
X1000458D01*
X999125D01*
Y368662D01*
X997792D01*
X1004456D02*
X1007122Y363331D01*
X1009788Y368662D01*
X1012454Y363331D02*
X1015119D01*
X1013787D01*
Y368662D01*
X1012454D01*
X1024450Y371328D02*
Y363331D01*
X1020451D01*
X1019118Y364664D01*
Y367329D01*
X1020451Y368662D01*
X1024450D01*
X1027116D02*
Y364664D01*
X1028448Y363331D01*
X1032447D01*
Y368662D01*
X1036446D02*
X1039112D01*
X1040445Y367329D01*
Y363331D01*
X1036446D01*
X1035113Y364664D01*
X1036446Y365997D01*
X1040445D01*
X1043110Y363331D02*
X1045776D01*
X1044443D01*
Y371328D01*
X1043110D01*
X1057772Y363331D02*
Y371328D01*
X1061771D01*
X1063104Y369995D01*
Y367329D01*
X1061771Y365997D01*
X1057772D01*
X1071101Y369995D02*
X1069769Y371328D01*
X1067103D01*
X1065770Y369995D01*
Y364664D01*
X1067103Y363331D01*
X1069769D01*
X1071101Y364664D01*
X1073767Y371328D02*
Y363331D01*
X1077766D01*
X1079099Y364664D01*
Y365997D01*
X1077766Y367329D01*
X1073767D01*
X1077766D01*
X1079099Y368662D01*
Y369995D01*
X1077766Y371328D01*
X1073767D01*
X1081765Y363331D02*
X1085763D01*
X1087096Y364664D01*
X1085763Y365997D01*
X1083097D01*
X1081765Y367329D01*
X1083097Y368662D01*
X1087096D01*
X1089762Y363331D02*
Y364664D01*
X1091095D01*
Y363331D01*
X1089762D01*
X796524Y306553D02*
X797857Y305221D01*
X800522D01*
X801855Y306553D01*
Y311885D01*
X800522Y313218D01*
X797857D01*
X796524Y311885D01*
Y310552D01*
X797857Y309219D01*
X801855D01*
X804521Y305221D02*
Y306553D01*
X805854D01*
Y305221D01*
X804521D01*
X824515Y311885D02*
X823182Y313218D01*
X820516D01*
X819183Y311885D01*
Y310552D01*
X820516Y309219D01*
X823182D01*
X824515Y307886D01*
Y306553D01*
X823182Y305221D01*
X820516D01*
X819183Y306553D01*
X827180Y313218D02*
Y306553D01*
X828513Y305221D01*
X831179D01*
X832512Y306553D01*
Y313218D01*
X835178Y305221D02*
Y313218D01*
X839176D01*
X840509Y311885D01*
Y309219D01*
X839176Y307886D01*
X835178D01*
X843175Y305221D02*
Y313218D01*
X847174D01*
X848507Y311885D01*
Y309219D01*
X847174Y307886D01*
X843175D01*
X851173Y313218D02*
Y305221D01*
X856504D01*
X859170Y313218D02*
X861836D01*
X860503D01*
Y305221D01*
X859170D01*
X861836D01*
X871166Y313218D02*
X865835D01*
Y305221D01*
X871166D01*
X865835Y309219D02*
X868500D01*
X873832Y305221D02*
Y313218D01*
X877831D01*
X879163Y311885D01*
Y309219D01*
X877831Y307886D01*
X873832D01*
X876498D02*
X879163Y305221D01*
X889827D02*
Y313218D01*
X892492Y310552D01*
X895158Y313218D01*
Y305221D01*
X897824D02*
Y310552D01*
X900490Y313218D01*
X903156Y310552D01*
Y305221D01*
Y309219D01*
X897824D01*
X905822Y305221D02*
Y313218D01*
X909820D01*
X911153Y311885D01*
Y309219D01*
X909820Y307886D01*
X905822D01*
X908487D02*
X911153Y305221D01*
X913819Y313218D02*
Y305221D01*
Y307886D01*
X919151Y313218D01*
X915152Y309219D01*
X919151Y305221D01*
X921816Y313218D02*
X924482D01*
X923149D01*
Y305221D01*
X921816D01*
X924482D01*
X928481D02*
Y313218D01*
X933813Y305221D01*
Y313218D01*
X941810Y311885D02*
X940477Y313218D01*
X937811D01*
X936478Y311885D01*
Y306553D01*
X937811Y305221D01*
X940477D01*
X941810Y306553D01*
Y309219D01*
X939144D01*
X952473D02*
X957805D01*
X972467Y313218D02*
X969801D01*
X968468Y311885D01*
Y306553D01*
X969801Y305221D01*
X972467D01*
X973800Y306553D01*
Y311885D01*
X972467Y313218D01*
X976465Y305221D02*
Y313218D01*
X981797Y305221D01*
Y313218D01*
X997792Y311885D02*
X996459Y313218D01*
X993793D01*
X992460Y311885D01*
Y310552D01*
X993793Y309219D01*
X996459D01*
X997792Y307886D01*
Y306553D01*
X996459Y305221D01*
X993793D01*
X992460Y306553D01*
X1004456Y313218D02*
X1001791D01*
X1000458Y311885D01*
Y306553D01*
X1001791Y305221D01*
X1004456D01*
X1005789Y306553D01*
Y311885D01*
X1004456Y313218D01*
X1008455D02*
Y305221D01*
X1013787D01*
X1016452Y313218D02*
Y305221D01*
X1020451D01*
X1021784Y306553D01*
Y311885D01*
X1020451Y313218D01*
X1016452D01*
X1029781D02*
X1024450D01*
Y305221D01*
X1029781D01*
X1024450Y309219D02*
X1027116D01*
X1032447Y305221D02*
Y313218D01*
X1036446D01*
X1037779Y311885D01*
Y309219D01*
X1036446Y307886D01*
X1032447D01*
X1035113D02*
X1037779Y305221D01*
X1053774Y311885D02*
X1052441Y313218D01*
X1049775D01*
X1048442Y311885D01*
Y310552D01*
X1049775Y309219D01*
X1052441D01*
X1053774Y307886D01*
Y306553D01*
X1052441Y305221D01*
X1049775D01*
X1048442Y306553D01*
X1056439Y313218D02*
X1059105D01*
X1057772D01*
Y305221D01*
X1056439D01*
X1059105D01*
X1063104Y313218D02*
Y305221D01*
X1067103D01*
X1068436Y306553D01*
Y311885D01*
X1067103Y313218D01*
X1063104D01*
X1076433D02*
X1071101D01*
Y305221D01*
X1076433D01*
X1071101Y309219D02*
X1073767D01*
X816209Y265850D02*
Y271182D01*
X818874Y273848D01*
X821540Y271182D01*
Y265850D01*
Y269849D01*
X816209D01*
X824206Y273848D02*
Y265850D01*
X828205D01*
X829538Y267183D01*
Y272515D01*
X828205Y273848D01*
X824206D01*
X832203D02*
Y265850D01*
X836202D01*
X837535Y267183D01*
Y272515D01*
X836202Y273848D01*
X832203D01*
X848198D02*
Y267183D01*
X849531Y265850D01*
X852197D01*
X853530Y267183D01*
Y273848D01*
X856196D02*
Y265850D01*
X861527D01*
X872190D02*
Y273848D01*
X874856Y271182D01*
X877522Y273848D01*
Y265850D01*
X880188D02*
Y271182D01*
X882854Y273848D01*
X885520Y271182D01*
Y265850D01*
Y269849D01*
X880188D01*
X888185Y265850D02*
Y273848D01*
X892184D01*
X893517Y272515D01*
Y269849D01*
X892184Y268516D01*
X888185D01*
X890851D02*
X893517Y265850D01*
X896183Y273848D02*
Y265850D01*
Y268516D01*
X901514Y273848D01*
X897516Y269849D01*
X901514Y265850D01*
X904180Y273848D02*
X906846D01*
X905513D01*
Y265850D01*
X904180D01*
X906846D01*
X910845D02*
Y273848D01*
X916176Y265850D01*
Y273848D01*
X924174Y272515D02*
X922841Y273848D01*
X920175D01*
X918842Y272515D01*
Y267183D01*
X920175Y265850D01*
X922841D01*
X924174Y267183D01*
Y269849D01*
X921508D01*
X934837Y265850D02*
Y271182D01*
X937503Y273848D01*
X940168Y271182D01*
Y265850D01*
Y269849D01*
X934837D01*
X942834Y265850D02*
Y273848D01*
X948166Y265850D01*
Y273848D01*
X950832D02*
Y265850D01*
X954830D01*
X956163Y267183D01*
Y272515D01*
X954830Y273848D01*
X950832D01*
X966827D02*
X969492D01*
X968159D01*
Y265850D01*
X966827D01*
X969492D01*
X973491Y273848D02*
Y265850D01*
X977490D01*
X978823Y267183D01*
Y272515D01*
X977490Y273848D01*
X973491D01*
X796524Y236323D02*
X799189D01*
X797857D01*
Y244320D01*
X796524Y242987D01*
X803188D02*
X804521Y244320D01*
X807187D01*
X808520Y242987D01*
Y237656D01*
X807187Y236323D01*
X804521D01*
X803188Y237656D01*
Y242987D01*
X811185Y236323D02*
Y237656D01*
X812519D01*
Y236323D01*
X811185D01*
X825848Y244320D02*
Y236323D01*
X831179D01*
X833845D02*
Y241654D01*
X836511Y244320D01*
X839176Y241654D01*
Y236323D01*
Y240321D01*
X833845D01*
X841842Y244320D02*
Y242987D01*
X844508Y240321D01*
X847174Y242987D01*
Y244320D01*
X844508Y240321D02*
Y236323D01*
X855171Y244320D02*
X849840D01*
Y236323D01*
X855171D01*
X849840Y240321D02*
X852505D01*
X857837Y236323D02*
Y244320D01*
X861836D01*
X863169Y242987D01*
Y240321D01*
X861836Y238989D01*
X857837D01*
X860503D02*
X863169Y236323D01*
X879163Y242987D02*
X877831Y244320D01*
X875165D01*
X873832Y242987D01*
Y241654D01*
X875165Y240321D01*
X877831D01*
X879163Y238989D01*
Y237656D01*
X877831Y236323D01*
X875165D01*
X873832Y237656D01*
X881829Y244320D02*
X887161D01*
X884495D01*
Y236323D01*
X889827D02*
Y241654D01*
X892492Y244320D01*
X895158Y241654D01*
Y236323D01*
Y240321D01*
X889827D01*
X903156Y242987D02*
X901823Y244320D01*
X899157D01*
X897824Y242987D01*
Y237656D01*
X899157Y236323D01*
X901823D01*
X903156Y237656D01*
X905822Y244320D02*
Y236323D01*
Y238989D01*
X911153Y244320D01*
X907154Y240321D01*
X911153Y236323D01*
X913819Y244320D02*
Y237656D01*
X915152Y236323D01*
X917818D01*
X919151Y237656D01*
Y244320D01*
X921816Y236323D02*
Y244320D01*
X925815D01*
X927148Y242987D01*
Y240321D01*
X925815Y238989D01*
X921816D01*
X937811Y240321D02*
X943143D01*
X959138Y242987D02*
X957805Y244320D01*
X955139D01*
X953806Y242987D01*
Y241654D01*
X955139Y240321D01*
X957805D01*
X959138Y238989D01*
Y237656D01*
X957805Y236323D01*
X955139D01*
X953806Y237656D01*
X967135Y244320D02*
X961803D01*
Y236323D01*
X967135D01*
X961803Y240321D02*
X964469D01*
X975132Y244320D02*
X969801D01*
Y236323D01*
X975132D01*
X969801Y240321D02*
X972467D01*
X985796Y244320D02*
Y236323D01*
X989794D01*
X991127Y237656D01*
Y242987D01*
X989794Y244320D01*
X985796D01*
X999125D02*
X993793D01*
Y236323D01*
X999125D01*
X993793Y240321D02*
X996459D01*
X1001791Y244320D02*
X1007122D01*
X1004456D01*
Y236323D01*
X1009788D02*
Y241654D01*
X1012454Y244320D01*
X1015119Y241654D01*
Y236323D01*
Y240321D01*
X1009788D01*
X1017785Y244320D02*
X1020451D01*
X1019118D01*
Y236323D01*
X1017785D01*
X1020451D01*
X1024450Y244320D02*
Y236323D01*
X1029781D01*
X1040445D02*
Y241654D01*
X1043110Y244320D01*
X1045776Y241654D01*
Y236323D01*
Y240321D01*
X1040445D01*
X816024Y505209D02*
Y513206D01*
X818689Y510540D01*
X821355Y513206D01*
Y505209D01*
X824021Y513206D02*
Y506542D01*
X825354Y505209D01*
X828020D01*
X829353Y506542D01*
Y513206D01*
X837350Y511873D02*
X836017Y513206D01*
X833351D01*
X832018Y511873D01*
Y510540D01*
X833351Y509207D01*
X836017D01*
X837350Y507874D01*
Y506542D01*
X836017Y505209D01*
X833351D01*
X832018Y506542D01*
X840016Y513206D02*
X845347D01*
X842682D01*
Y505209D01*
X856011Y513206D02*
Y505209D01*
Y509207D01*
X861342D01*
Y513206D01*
Y505209D01*
X864008D02*
Y510540D01*
X866674Y513206D01*
X869340Y510540D01*
Y505209D01*
Y509207D01*
X864008D01*
X872005Y505209D02*
Y513206D01*
X877337Y505209D01*
Y513206D01*
X880003D02*
Y505209D01*
X884002D01*
X885334Y506542D01*
Y511873D01*
X884002Y513206D01*
X880003D01*
X888000D02*
Y505209D01*
X893332D01*
X901329Y513206D02*
X895998D01*
Y505209D01*
X901329D01*
X895998Y509207D02*
X898664D01*
X911992Y505209D02*
Y513206D01*
X914658Y510540D01*
X917324Y513206D01*
Y505209D01*
X919990Y513206D02*
X922656D01*
X921323D01*
Y505209D01*
X919990D01*
X922656D01*
X926655D02*
Y513206D01*
X931986Y505209D01*
Y513206D01*
X934652D02*
X937318D01*
X935985D01*
Y505209D01*
X934652D01*
X937318D01*
X941316D02*
Y513206D01*
X943982Y510540D01*
X946648Y513206D01*
Y505209D01*
X949314Y513206D02*
Y506542D01*
X950647Y505209D01*
X953312D01*
X954645Y506542D01*
Y513206D01*
X957311Y505209D02*
Y513206D01*
X959977Y510540D01*
X962643Y513206D01*
Y505209D01*
X978638Y513206D02*
X975972Y511873D01*
X973306Y509207D01*
Y506542D01*
X974639Y505209D01*
X977305D01*
X978638Y506542D01*
Y507874D01*
X977305Y509207D01*
X973306D01*
X994633Y511873D02*
X993300Y513206D01*
X990634D01*
X989301Y511873D01*
Y506542D01*
X990634Y505209D01*
X993300D01*
X994633Y506542D01*
X997298Y513206D02*
Y511873D01*
X999964Y509207D01*
X1002630Y511873D01*
Y513206D01*
X999964Y509207D02*
Y505209D01*
X1010627Y511873D02*
X1009294Y513206D01*
X1006629D01*
X1005296Y511873D01*
Y506542D01*
X1006629Y505209D01*
X1009294D01*
X1010627Y506542D01*
X1013293Y513206D02*
Y505209D01*
X1018625D01*
X1026622Y513206D02*
X1021290D01*
Y505209D01*
X1026622D01*
X1021290Y509207D02*
X1023956D01*
X1034620Y511873D02*
X1033287Y513206D01*
X1030621D01*
X1029288Y511873D01*
Y510540D01*
X1030621Y509207D01*
X1033287D01*
X1034620Y507874D01*
Y506542D01*
X1033287Y505209D01*
X1030621D01*
X1029288Y506542D01*
X1045283Y509207D02*
X1050614D01*
X1066609Y505209D02*
X1061277D01*
X1066609Y510540D01*
Y511873D01*
X1065276Y513206D01*
X1062610D01*
X1061277Y511873D01*
X1074607Y513206D02*
X1071941Y511873D01*
X1069275Y509207D01*
Y506542D01*
X1070608Y505209D01*
X1073274D01*
X1074607Y506542D01*
Y507874D01*
X1073274Y509207D01*
X1069275D01*
X1077272Y511873D02*
X1078605Y513206D01*
X1081271D01*
X1082604Y511873D01*
Y506542D01*
X1081271Y505209D01*
X1078605D01*
X1077272Y506542D01*
Y511873D01*
X1090601D02*
X1089268Y513206D01*
X1086603D01*
X1085270Y511873D01*
Y506542D01*
X1086603Y505209D01*
X1089268D01*
X1090601Y506542D01*
X1106596Y513206D02*
X1101265D01*
Y509207D01*
X1103930D01*
X1101265D01*
Y505209D01*
X1113261Y513206D02*
X1110595D01*
X1109262Y511873D01*
Y506542D01*
X1110595Y505209D01*
X1113261D01*
X1114594Y506542D01*
Y511873D01*
X1113261Y513206D01*
X1117259Y505209D02*
Y513206D01*
X1121258D01*
X1122591Y511873D01*
Y509207D01*
X1121258Y507874D01*
X1117259D01*
X1119925D02*
X1122591Y505209D01*
X1133254D02*
X1135920D01*
X1134587D01*
Y513206D01*
X1133254Y511873D01*
X1139919D02*
X1141252Y513206D01*
X1143917D01*
X1145250Y511873D01*
Y506542D01*
X1143917Y505209D01*
X1141252D01*
X1139919Y506542D01*
Y511873D01*
X1161245D02*
X1159912Y513206D01*
X1157246D01*
X1155914Y511873D01*
Y510540D01*
X1157246Y509207D01*
X1159912D01*
X1161245Y507874D01*
Y506542D01*
X1159912Y505209D01*
X1157246D01*
X1155914Y506542D01*
X1169243Y513206D02*
X1163911D01*
Y505209D01*
X1169243D01*
X1163911Y509207D02*
X1166577D01*
X1177240Y511873D02*
X1175907Y513206D01*
X1173241D01*
X1171908Y511873D01*
Y506542D01*
X1173241Y505209D01*
X1175907D01*
X1177240Y506542D01*
X1183904Y513206D02*
X1181239D01*
X1179906Y511873D01*
Y506542D01*
X1181239Y505209D01*
X1183904D01*
X1185237Y506542D01*
Y511873D01*
X1183904Y513206D01*
X1187903Y505209D02*
Y513206D01*
X1193235Y505209D01*
Y513206D01*
X1195901D02*
Y505209D01*
X1199899D01*
X1201232Y506542D01*
Y511873D01*
X1199899Y513206D01*
X1195901D01*
X1209230Y511873D02*
X1207897Y513206D01*
X1205231D01*
X1203898Y511873D01*
Y510540D01*
X1205231Y509207D01*
X1207897D01*
X1209230Y507874D01*
Y506542D01*
X1207897Y505209D01*
X1205231D01*
X1203898Y506542D01*
X1211895Y505209D02*
Y506542D01*
X1213228D01*
Y505209D01*
X1211895D01*
X794024Y189706D02*
Y180709D01*
X798522D01*
X800022Y182208D01*
Y188206D01*
X798522Y189706D01*
X794024D01*
X809019D02*
X803021D01*
Y180709D01*
X809019D01*
X803021Y185207D02*
X806020D01*
X812018Y189706D02*
X818016D01*
X815017D01*
Y180709D01*
X821015D02*
Y186707D01*
X824014Y189706D01*
X827013Y186707D01*
Y180709D01*
Y185207D01*
X821015D01*
X830012Y189706D02*
X833011D01*
X831511D01*
Y180709D01*
X830012D01*
X833011D01*
X837510Y189706D02*
Y180709D01*
X843508D01*
X855504D02*
Y186707D01*
X858503Y189706D01*
X861502Y186707D01*
Y180709D01*
Y185207D01*
X855504D01*
G54D16*
X1178582Y158307D02*
X1182551Y162276D01*
X1178582Y152307D02*
X1188550Y162276D01*
X1182551Y150276D02*
X1194551Y162276D01*
X1188550Y150276D02*
X1200550Y162276D01*
X1194551Y150276D02*
X1206551Y162276D01*
X1200550Y150276D02*
X1212551Y162276D01*
X1206551Y150276D02*
X1218550Y162276D01*
X1212551Y150276D02*
X1224551Y162276D01*
X1218550Y150276D02*
X1230550Y162276D01*
X1224551Y150276D02*
X1236551Y162276D01*
X1230550Y150276D02*
X1242550Y162276D01*
X1236551Y150276D02*
X1248551Y162276D01*
X1242550Y150276D02*
X1254550Y162276D01*
X1248551Y150276D02*
X1260550Y162276D01*
X1254550Y150276D02*
X1266551Y162276D01*
X1260550Y150276D02*
X1272550Y162276D01*
X1266551Y150276D02*
X1278551Y162276D01*
X1272550Y150276D02*
X1284550Y162276D01*
X1278551Y150276D02*
X1290551Y162276D01*
X1284550Y150276D02*
X1290551Y156276D01*
X1178582Y146307D02*
X1182551Y150276D01*
X1178582Y140307D02*
X1188550Y150276D01*
X1182551Y138276D02*
X1194551Y150276D01*
X1188550Y138276D02*
X1200550Y150276D01*
X1194551Y138276D02*
X1206551Y150276D01*
X1200550Y138276D02*
X1212551Y150276D01*
X1206551Y138276D02*
X1218550Y150276D01*
X1212551Y138276D02*
X1224551Y150276D01*
X1218550Y138276D02*
X1230550Y150276D01*
X1224551Y138276D02*
X1236551Y150276D01*
X1230550Y138276D02*
X1242550Y150276D01*
X1236551Y138276D02*
X1248551Y150276D01*
X1242550Y138276D02*
X1254550Y150276D01*
X1248551Y138276D02*
X1260550Y150276D01*
X1254550Y138276D02*
X1266551Y150276D01*
X1260550Y138276D02*
X1272550Y150276D01*
X1266551Y138276D02*
X1278551Y150276D01*
X1272550Y138276D02*
X1284550Y150276D01*
X1278551Y138276D02*
X1290551Y150276D01*
X1284550Y138276D02*
X1290551Y144276D01*
X1178582Y134307D02*
X1182551Y138276D01*
X1178582Y128307D02*
X1188550Y138276D01*
X1182551Y126276D02*
X1194551Y138276D01*
X1188550Y126276D02*
X1200550Y138276D01*
X1194551Y126276D02*
X1206551Y138276D01*
X1200550Y126276D02*
X1212551Y138276D01*
X1206551Y126276D02*
X1218550Y138276D01*
X1212551Y126276D02*
X1224551Y138276D01*
X1218550Y126276D02*
X1230550Y138276D01*
X1224551Y126276D02*
X1236551Y138276D01*
X1230550Y126276D02*
X1242550Y138276D01*
X1236551Y126276D02*
X1248551Y138276D01*
X1242550Y126276D02*
X1254550Y138276D01*
X1248551Y126276D02*
X1260550Y138276D01*
X1254550Y126276D02*
X1266551Y138276D01*
X1260550Y126276D02*
X1272550Y138276D01*
X1266551Y126276D02*
X1278551Y138276D01*
X1272550Y126276D02*
X1284550Y138276D01*
X1278551Y126276D02*
X1290551Y138276D01*
X1284550Y126276D02*
X1290551Y132276D01*
X1178582Y122307D02*
X1182551Y126276D01*
X1178582Y116307D02*
X1188550Y126276D01*
X1182551Y114276D02*
X1194551Y126276D01*
X1188550Y114276D02*
X1200550Y126276D01*
X1194551Y114276D02*
X1206551Y126276D01*
X1200550Y114276D02*
X1212551Y126276D01*
X1206551Y114276D02*
X1218550Y126276D01*
X1212551Y114276D02*
X1224551Y126276D01*
X1218550Y114276D02*
X1230550Y126276D01*
X1224551Y114276D02*
X1236551Y126276D01*
X1230550Y114276D02*
X1242550Y126276D01*
X1236551Y114276D02*
X1248551Y126276D01*
X1242550Y114276D02*
X1254550Y126276D01*
X1248551Y114276D02*
X1260550Y126276D01*
X1254550Y114276D02*
X1266551Y126276D01*
X1260550Y114276D02*
X1272550Y126276D01*
X1266551Y114276D02*
X1278551Y126276D01*
X1272550Y114276D02*
X1284550Y126276D01*
X1278551Y114276D02*
X1290551Y126276D01*
X1284550Y114276D02*
X1290551Y120276D01*
X1178582Y110307D02*
X1182551Y114276D01*
X1178582Y104307D02*
X1188550Y114276D01*
X1182551Y102276D02*
X1194551Y114276D01*
X1188550Y102276D02*
X1200550Y114276D01*
X1194551Y102276D02*
X1206551Y114276D01*
X1200550Y102276D02*
X1212551Y114276D01*
X1206551Y102276D02*
X1218550Y114276D01*
X1212551Y102276D02*
X1224551Y114276D01*
X1218550Y102276D02*
X1230550Y114276D01*
X1224551Y102276D02*
X1236551Y114276D01*
X1230550Y102276D02*
X1242550Y114276D01*
X1236551Y102276D02*
X1248551Y114276D01*
X1242550Y102276D02*
X1254550Y114276D01*
X1248551Y102276D02*
X1260550Y114276D01*
X1254550Y102276D02*
X1266551Y114276D01*
X1260550Y102276D02*
X1272550Y114276D01*
X1266551Y102276D02*
X1278551Y114276D01*
X1272550Y102276D02*
X1284550Y114276D01*
X1278551Y102276D02*
X1290551Y114276D01*
X1284550Y102276D02*
X1290551Y108276D01*
X1178582Y98307D02*
X1182551Y102276D01*
X1178582Y92307D02*
X1188550Y102276D01*
X1182551Y90276D02*
X1194551Y102276D01*
X1188550Y90276D02*
X1200550Y102276D01*
X1194551Y90276D02*
X1206551Y102276D01*
X1200550Y90276D02*
X1212551Y102276D01*
X1206551Y90276D02*
X1218550Y102276D01*
X1212551Y90276D02*
X1224551Y102276D01*
X1218550Y90276D02*
X1230550Y102276D01*
X1224551Y90276D02*
X1236551Y102276D01*
X1230550Y90276D02*
X1242550Y102276D01*
X1236551Y90276D02*
X1248551Y102276D01*
X1242550Y90276D02*
X1254550Y102276D01*
X1248551Y90276D02*
X1260550Y102276D01*
X1254550Y90276D02*
X1266551Y102276D01*
X1260550Y90276D02*
X1272550Y102276D01*
X1266551Y90276D02*
X1278551Y102276D01*
X1272550Y90276D02*
X1284550Y102276D01*
X1278551Y90276D02*
X1290551Y102276D01*
X1284550Y90276D02*
X1290551Y96276D01*
X1178582Y86307D02*
X1182551Y90276D01*
X1178582Y80307D02*
X1188550Y90276D01*
X1182551Y78276D02*
X1194551Y90276D01*
X1188550Y78276D02*
X1200550Y90276D01*
X1194551Y78276D02*
X1206551Y90276D01*
X1200550Y78276D02*
X1212551Y90276D01*
X1206551Y78276D02*
X1218550Y90276D01*
X1212551Y78276D02*
X1224551Y90276D01*
X1218550Y78276D02*
X1230550Y90276D01*
X1224551Y78276D02*
X1236551Y90276D01*
X1230550Y78276D02*
X1242550Y90276D01*
X1236551Y78276D02*
X1248551Y90276D01*
X1242550Y78276D02*
X1254550Y90276D01*
X1248551Y78276D02*
X1260550Y90276D01*
X1254550Y78276D02*
X1266551Y90276D01*
X1260550Y78276D02*
X1272550Y90276D01*
X1266551Y78276D02*
X1278551Y90276D01*
X1272550Y78276D02*
X1284550Y90276D01*
X1278551Y78276D02*
X1290551Y90276D01*
X1284550Y78276D02*
X1290551Y84276D01*
X1178582Y74307D02*
X1182551Y78276D01*
X1178582Y68307D02*
X1188550Y78276D01*
X1182551Y66276D02*
X1194551Y78276D01*
X1188550Y66276D02*
X1200550Y78276D01*
X1194551Y66276D02*
X1206551Y78276D01*
X1200550Y66276D02*
X1212551Y78276D01*
X1206551Y66276D02*
X1218550Y78276D01*
X1212551Y66276D02*
X1224551Y78276D01*
X1218550Y66276D02*
X1230550Y78276D01*
X1224551Y66276D02*
X1236551Y78276D01*
X1230550Y66276D02*
X1242550Y78276D01*
X1236551Y66276D02*
X1248551Y78276D01*
X1242550Y66276D02*
X1254550Y78276D01*
X1248551Y66276D02*
X1260550Y78276D01*
X1254550Y66276D02*
X1266551Y78276D01*
X1260550Y66276D02*
X1272550Y78276D01*
X1266551Y66276D02*
X1278551Y78276D01*
X1272550Y66276D02*
X1284550Y78276D01*
X1278551Y66276D02*
X1290551Y78276D01*
X1284550Y66276D02*
X1290551Y72276D01*
X1178582Y62307D02*
X1182551Y66276D01*
X1178582Y56307D02*
X1188550Y66276D01*
X1182551Y54276D02*
X1194551Y66276D01*
X1188550Y54276D02*
X1200550Y66276D01*
X1194551Y54276D02*
X1206551Y66276D01*
X1200550Y54276D02*
X1212551Y66276D01*
X1206551Y54276D02*
X1218550Y66276D01*
X1212551Y54276D02*
X1224551Y66276D01*
X1218550Y54276D02*
X1230550Y66276D01*
X1224551Y54276D02*
X1236551Y66276D01*
X1230550Y54276D02*
X1242550Y66276D01*
X1236551Y54276D02*
X1248551Y66276D01*
X1242550Y54276D02*
X1254550Y66276D01*
X1248551Y54276D02*
X1260550Y66276D01*
X1254550Y54276D02*
X1266551Y66276D01*
X1260550Y54276D02*
X1272550Y66276D01*
X1266551Y54276D02*
X1278551Y66276D01*
X1272550Y54276D02*
X1284550Y66276D01*
X1278551Y54276D02*
X1290551Y66276D01*
X1284550Y54276D02*
X1290551Y60276D01*
X1178582Y50307D02*
X1182551Y54276D01*
X1178582Y44307D02*
X1188550Y54276D01*
X1182551Y42276D02*
X1194551Y54276D01*
X1188550Y42276D02*
X1200550Y54276D01*
X1194551Y42276D02*
X1206551Y54276D01*
X1200550Y42276D02*
X1212551Y54276D01*
X1206551Y42276D02*
X1218550Y54276D01*
X1212551Y42276D02*
X1224551Y54276D01*
X1218550Y42276D02*
X1230550Y54276D01*
X1224551Y42276D02*
X1236551Y54276D01*
X1230550Y42276D02*
X1242550Y54276D01*
X1236551Y42276D02*
X1248551Y54276D01*
X1242550Y42276D02*
X1254550Y54276D01*
X1248551Y42276D02*
X1260550Y54276D01*
X1254550Y42276D02*
X1266551Y54276D01*
X1260550Y42276D02*
X1272550Y54276D01*
X1266551Y42276D02*
X1278551Y54276D01*
X1272550Y42276D02*
X1284550Y54276D01*
X1278551Y42276D02*
X1290551Y54276D01*
X1284550Y42276D02*
X1290551Y48276D01*
X1178582Y38307D02*
X1182551Y42276D01*
X1178582Y32307D02*
X1188550Y42276D01*
X1182551Y30276D02*
X1194551Y42276D01*
X1188550Y30276D02*
X1200550Y42276D01*
X1194551Y30276D02*
X1206551Y42276D01*
X1200550Y30276D02*
X1212551Y42276D01*
X1206551Y30276D02*
X1218550Y42276D01*
X1212551Y30276D02*
X1224551Y42276D01*
X1218550Y30276D02*
X1230550Y42276D01*
X1224551Y30276D02*
X1236551Y42276D01*
X1230550Y30276D02*
X1242550Y42276D01*
X1236551Y30276D02*
X1248551Y42276D01*
X1242550Y30276D02*
X1254550Y42276D01*
X1248551Y30276D02*
X1260550Y42276D01*
X1254550Y30276D02*
X1266551Y42276D01*
X1260550Y30276D02*
X1272550Y42276D01*
X1266551Y30276D02*
X1278551Y42276D01*
X1272550Y30276D02*
X1284550Y42276D01*
X1278551Y30276D02*
X1290551Y42276D01*
X1284550Y30276D02*
X1290551Y36276D01*
X1178582Y26307D02*
X1182551Y30276D01*
X1178582Y20307D02*
X1188550Y30276D01*
X1182551Y18276D02*
X1194551Y30276D01*
X1188550Y18276D02*
X1200550Y30276D01*
X1194551Y18276D02*
X1206551Y30276D01*
X1200550Y18276D02*
X1212551Y30276D01*
X1206551Y18276D02*
X1218550Y30276D01*
X1212551Y18276D02*
X1224551Y30276D01*
X1218550Y18276D02*
X1230550Y30276D01*
X1224551Y18276D02*
X1236551Y30276D01*
X1230550Y18276D02*
X1242550Y30276D01*
X1236551Y18276D02*
X1248551Y30276D01*
X1242550Y18276D02*
X1254550Y30276D01*
X1248551Y18276D02*
X1260550Y30276D01*
X1254550Y18276D02*
X1266551Y30276D01*
X1260550Y18276D02*
X1272550Y30276D01*
X1266551Y18276D02*
X1278551Y30276D01*
X1272550Y18276D02*
X1284550Y30276D01*
X1278551Y18276D02*
X1290551Y30276D01*
X1284550Y18276D02*
X1290551Y24276D01*
X1178582Y14307D02*
X1182551Y18276D01*
X1178582Y8307D02*
X1188550Y18276D01*
X1182551Y6276D02*
X1194551Y18276D01*
X1188550Y6276D02*
X1200550Y18276D01*
X1194551Y6276D02*
X1206551Y18276D01*
X1200550Y6276D02*
X1212551Y18276D01*
X1206551Y6276D02*
X1218550Y18276D01*
X1212551Y6276D02*
X1224551Y18276D01*
X1218550Y6276D02*
X1230550Y18276D01*
X1224551Y6276D02*
X1236551Y18276D01*
X1230550Y6276D02*
X1242550Y18276D01*
X1236551Y6276D02*
X1248551Y18276D01*
X1242550Y6276D02*
X1254550Y18276D01*
X1248551Y6276D02*
X1260550Y18276D01*
X1254550Y6276D02*
X1266551Y18276D01*
X1260550Y6276D02*
X1272550Y18276D01*
X1266551Y6276D02*
X1278551Y18276D01*
X1272550Y6276D02*
X1284550Y18276D01*
X1278551Y6276D02*
X1290551Y18276D01*
X1284550Y6276D02*
X1290551Y12276D01*
X1178582Y2307D02*
X1182551Y6276D01*
X1178582Y-3693D02*
X1188550Y6276D01*
X1182551Y-5724D02*
X1194551Y6276D01*
X1188550Y-5724D02*
X1200550Y6276D01*
X1194551Y-5724D02*
X1206551Y6276D01*
X1200550Y-5724D02*
X1212551Y6276D01*
X1206551Y-5724D02*
X1218550Y6276D01*
X1212551Y-5724D02*
X1224551Y6276D01*
X1218550Y-5724D02*
X1230550Y6276D01*
X1224551Y-5724D02*
X1236551Y6276D01*
X1230550Y-5724D02*
X1242550Y6276D01*
X1236551Y-5724D02*
X1248551Y6276D01*
X1242550Y-5724D02*
X1254550Y6276D01*
X1248551Y-5724D02*
X1260550Y6276D01*
X1254550Y-5724D02*
X1266551Y6276D01*
X1260550Y-5724D02*
X1272550Y6276D01*
X1266551Y-5724D02*
X1278551Y6276D01*
X1272550Y-5724D02*
X1284550Y6276D01*
X1278551Y-5724D02*
X1290551Y6276D01*
X1284550Y-5724D02*
X1290551Y276D01*
X1178582Y-9693D02*
X1182551Y-5724D01*
X1178582Y-15693D02*
X1188550Y-5724D01*
X1182551Y-17724D02*
X1194551Y-5724D01*
X1188550Y-17724D02*
X1200550Y-5724D01*
X1194551Y-17724D02*
X1206551Y-5724D01*
X1200550Y-17724D02*
X1212551Y-5724D01*
X1206551Y-17724D02*
X1218550Y-5724D01*
X1212551Y-17724D02*
X1224551Y-5724D01*
X1218550Y-17724D02*
X1230550Y-5724D01*
X1224551Y-17724D02*
X1236551Y-5724D01*
X1230550Y-17724D02*
X1242550Y-5724D01*
X1236551Y-17724D02*
X1248551Y-5724D01*
X1242550Y-17724D02*
X1254550Y-5724D01*
X1248551Y-17724D02*
X1260550Y-5724D01*
X1254550Y-17724D02*
X1266551Y-5724D01*
X1260550Y-17724D02*
X1272550Y-5724D01*
X1266551Y-17724D02*
X1278551Y-5724D01*
X1272550Y-17724D02*
X1284550Y-5724D01*
X1278551Y-17724D02*
X1290551Y-5724D01*
X1284550Y-17724D02*
X1290551Y-11724D01*
X448200Y347832D02*
Y352832D01*
X445700Y350332D02*
X450700D01*
X422078Y328875D02*
X427078D01*
X424578Y326376D02*
Y331376D01*
X469657Y306592D02*
Y311592D01*
X467157Y309092D02*
X472157D01*
X481468Y322340D02*
Y327340D01*
X478968Y324840D02*
X483968D01*
X433524Y379368D02*
X438524D01*
X436024Y376868D02*
Y381868D01*
G54D292*
X1290551Y-17724D02*
Y174276D01*
X1178582Y150276D02*
X1290551D01*
X1178582Y138276D02*
X1290551D01*
X1178582Y126276D02*
X1290551D01*
X1178582Y114276D02*
X1290551D01*
X1178582Y102276D02*
X1290551D01*
X1178582Y90276D02*
X1290551D01*
X1178582Y78276D02*
X1290551D01*
X1178582Y66276D02*
X1290551D01*
X1178582Y54276D02*
X1290551D01*
X1178582Y42276D02*
X1290551D01*
X1178582Y30276D02*
X1290551D01*
X1178582Y18276D02*
X1290551D01*
X1178582Y6276D02*
X1290551D01*
X1178582Y-5724D02*
X1290551D01*
X1178582Y-17724D02*
X1290551D01*
X1178582D02*
Y174276D01*
X1121596Y150276D02*
X1178582D01*
X1121596Y138276D02*
X1178582D01*
X1121596Y126276D02*
X1178582D01*
X1121596Y114276D02*
X1178582D01*
X1121596Y102276D02*
X1178582D01*
X1121596Y90276D02*
X1178582D01*
X1121596Y78276D02*
X1178582D01*
X1121596Y66276D02*
X1178582D01*
X1121596Y54276D02*
X1178582D01*
X1121596Y42276D02*
X1178582D01*
X1121596Y30276D02*
X1178582D01*
X1121596Y18276D02*
X1178582D01*
X1121596Y6276D02*
X1178582D01*
X1121596Y-5724D02*
X1178582D01*
X1121596Y-17724D02*
X1178582D01*
X1121596D02*
Y174276D01*
X1056613Y150276D02*
X1121596D01*
X1056613Y138276D02*
X1121596D01*
X1056613Y126276D02*
X1121596D01*
X1056613Y114276D02*
X1121596D01*
X1056613Y102276D02*
X1121596D01*
X1056613Y90276D02*
X1121596D01*
X1056613Y78276D02*
X1121596D01*
X1056613Y66276D02*
X1121596D01*
X1056613Y54276D02*
X1121596D01*
X1056613Y42276D02*
X1121596D01*
X1056613Y30276D02*
X1121596D01*
X1056613Y18276D02*
X1121596D01*
X1056613Y6276D02*
X1121596D01*
X1056613Y-5724D02*
X1121596D01*
X1056613Y-17724D02*
X1121596D01*
X1056613D02*
Y174276D01*
X970636Y150276D02*
X1056613D01*
X970636Y138276D02*
X1056613D01*
X970636Y126276D02*
X1056613D01*
X970636Y114276D02*
X1056613D01*
X970636Y102276D02*
X1056613D01*
X970636Y90276D02*
X1056613D01*
X970636Y78276D02*
X1056613D01*
X970636Y66276D02*
X1056613D01*
X970636Y54276D02*
X1056613D01*
X970636Y42276D02*
X1056613D01*
X970636Y30276D02*
X1056613D01*
X970636Y18276D02*
X1056613D01*
X970636Y6276D02*
X1056613D01*
X970636Y-5724D02*
X1056613D01*
X970636Y-17724D02*
X1056613D01*
X970636D02*
Y174276D01*
X877661Y150276D02*
X970636D01*
X877661Y138276D02*
X970636D01*
X877661Y126276D02*
X970636D01*
X877661Y114276D02*
X970636D01*
X877661Y102276D02*
X970636D01*
X877661Y90276D02*
X970636D01*
X877661Y78276D02*
X970636D01*
X877661Y66276D02*
X970636D01*
X877661Y54276D02*
X970636D01*
X877661Y42276D02*
X970636D01*
X877661Y30276D02*
X970636D01*
X877661Y18276D02*
X970636D01*
X877661Y6276D02*
X970636D01*
X877661Y-5724D02*
X970636D01*
X877661Y-17724D02*
X970636D01*
X877661D02*
Y174276D01*
X836670Y150276D02*
X877661D01*
X836670Y138276D02*
X877661D01*
X836670Y126276D02*
X877661D01*
X836670Y114276D02*
X877661D01*
X836670Y102276D02*
X877661D01*
X836670Y90276D02*
X877661D01*
X836670Y78276D02*
X877661D01*
X836670Y66276D02*
X877661D01*
X836670Y54276D02*
X877661D01*
X836670Y42276D02*
X877661D01*
X836670Y30276D02*
X877661D01*
X836670Y18276D02*
X877661D01*
X836670Y6276D02*
X877661D01*
X836670Y-5724D02*
X877661D01*
X836670Y-17724D02*
X877661D01*
X836670D02*
Y174276D01*
X1290551D01*
X836670Y162276D02*
X1290551D01*
M02*
