M48
;Layer_Color=9474304
;FILE_FORMAT=2:5
INCH,TZ
;TYPE=PLATED
T1F00S00C0.01000
T2F00S00C0.01500
T3F00S00C0.03543
T4F00S00C0.03800
T5F00S00C0.04000
T6F00S00C0.04016
T7F00S00C0.04331
T8F00S00C0.05900
T9F00S00C0.06300
T10F00S00C0.07598
T11F00S00C0.08700
;TYPE=NON_PLATED
T12F00S00C0.04016
T13F00S00C0.11811
T14F00S00C0.12992
%
T01
X543337Y230848
Y235179
Y239509
Y243840
Y248171
X547668
X551998
X556329
X560660
Y243840
X556329
X551998
X547668
Y239509
X551998
X556329
X560660
Y235179
X556329
X551998
X547668
Y230848
X551998
X556329
X560660
X624637
X628968
X633298
X637629
X641960
Y235179
X637629
X633298
X628968
X624637
Y239509
X628968
X633298
X637629
X641960
Y243840
X637629
X633298
X628968
X624637
Y248171
X628968
X633298
X637629
X641960
X479360
X475029
X470698
X466368
X462037
Y243840
X466368
X470698
X475029
X479360
Y239509
X475029
X470698
X466368
X462037
Y235179
X466368
X470698
X475029
X479360
Y230848
X475029
X470698
X466368
X462037
X397304Y230550
X392973
X388643
X384312
X379981
Y234881
X384312
X388643
X392973
X397304
Y239212
X392973
X388643
X384312
X379981
Y243543
X384312
X388643
X392973
X397304
Y247873
X392973
X388643
X384312
X379981
X315777Y248171
X311446
X307116
X302785
X298454
Y243840
Y239509
X302785
X307116
X311446
X315777
Y243840
X311446
X307116
X302785
Y235179
X298454
Y230848
X302785
X307116
Y235179
X311446
X315777
Y230848
X311446
X233722Y230944
X229391
X225060
X220729
X216399
Y235275
X220729
X225060
X229391
X233722
Y239605
X229391
X225060
X220729
X216399
Y243936
X220729
X225060
X229391
X233722
Y248267
X229391
X225060
X220729
X216399
X152194Y248171
X147864
X143533
X139202
X134872
Y243840
X139202
X143533
X147864
X152194
Y239509
X147864
X143533
X139202
X134872
Y235179
X139202
X143533
X147864
X152194
Y230848
X147864
X143533
X139202
X134872
X70403
X66072
X61742
X57411
X53080
Y235179
X57411
X61742
X66072
X70403
Y239509
X66072
X61742
X57411
X53080
Y243840
X57411
X61742
X66072
X70403
Y248171
X66072
X61742
X57411
X53080
X241311Y277104
X245641
Y281435
X241311
X307087Y281535
X311417
Y277205
X307087
X366728Y362945
X371058
Y367276
X366728
X499362Y370549
X503362
X507362
Y374549
Y378549
Y382549
X511362
X515362
Y378549
X511362
Y374549
X515362
Y370549
X511362
X503362Y374549
X499362
Y378549
X503362
Y382549
X499362
X541712Y382149
Y378149
Y374149
Y370149
X545712
X549712
Y374149
Y378149
Y382149
X553712
X557712
Y378149
X553712
Y374149
X557712
Y370149
X553712
X545712Y374149
Y378149
Y382149
X585711Y382150
X589711
Y378150
X585711
Y374150
X589711
Y370150
X585711
X593711
X597711
X601711
Y374150
X597711
Y378150
X601711
Y382150
X597711
X593711
Y378150
Y374150
X642500Y466247
X646500
X650500
X654500
Y470247
Y474247
X650500
X646500
X642500
Y478247
Y482247
X646500
Y478247
X650500
Y482247
X654500
Y478247
X650500Y470247
X646500
X642500
X585235Y485671
X579700Y492640
X575369
Y496971
X579700
Y501302
X575369
X553166Y475760
X481295Y467620
Y463683
T02
X12685Y12685
X9685Y19685
X12685Y26685
X12792Y39156
X15248Y44197
X7000Y44000
Y64000
X15445Y56303
X7000Y84000
X15912Y94302
X21744Y50201
X28043Y44197
X20760Y37405
X19685Y29685
X26685Y26685
X29685Y19685
X26685Y12685
X19685Y9685
X47000Y7500
X52416Y14274
X67000Y7500
X87000
X107000
X106291Y23035
X106095Y35732
X100091Y41652
X97433Y50004
X104988Y62868
X111930Y62790
X111306Y59358
X115440Y58734
X116626Y40457
X112689Y41539
X116532Y26776
X123319Y30024
X99992Y29827
X86213Y61520
X70844Y65935
Y71742
Y78337
Y84538
X57855
Y78337
Y71742
Y65735
X139787
Y71742
Y78337
Y84538
X152776
Y78337
Y71742
Y65935
X167315Y62504
X167000Y7500
X147000
X127000
X187000
X185917Y23134
X180209Y29728
X185974Y36126
X192512Y32681
X192315Y42276
X199134Y38783
Y26480
X207000Y7500
X227000
X247000
X267000
X268201Y23429
Y35732
X274894Y32947
X274992Y41736
X280799Y38783
X280602Y26874
X262000Y29827
X262394Y41730
X259835Y51382
X268632Y62790
X273482Y62652
X272858Y59220
X276992Y58596
X248220Y62012
X234745Y65335
Y71143
Y77737
Y83938
X221756
Y77737
Y71143
Y65135
X191192Y63797
X190568Y60365
X194702Y59741
X186888Y64038
X177945Y51087
X179913Y42425
X287000Y7500
X307000
X316724Y14472
X327000Y7500
X316030Y65935
Y71742
Y78337
Y84538
X303041
Y78337
Y71742
Y65735
X350220Y61776
X349106Y47642
X342512Y51579
X343201Y41835
X355012Y41539
X360819Y45673
X367905Y36421
X349303Y35339
X350394Y29685
X343394Y26685
X340394Y19685
X343394Y12685
X350394Y9685
X357394Y12685
X360394Y19685
X357394Y26685
X367000Y7500
X383161Y14472
X397000Y7500
X417000
X437000
X457000
X477000
X450681Y30417
X443976Y26283
X437394Y32287
X437295Y42524
X443976Y39079
X430738Y36028
X424402Y30122
Y42327
X422138Y50161
X411803Y62406
X397797Y65935
Y71742
Y78337
Y84538
X384808
Y78337
Y71742
Y65735
X432276Y66066
X435826Y63587
X435202Y60155
X439336Y59531
X466653Y65735
Y71742
Y78337
Y84538
X479642
Y78337
Y71742
Y65935
X430504Y23823
X506685Y29433
X506882Y41244
X512492Y35634
X518890Y30319
X525018Y25496
X531094Y30811
X518791Y41244
X517102Y59297
X517726Y62729
X514098Y64974
X521236Y58673
X503831Y50299
X489559Y57780
X512689Y23429
X517000Y7500
X497000
X537000
X557000
X577000
X597000
X593992Y23429
X599598Y30319
X605307Y25496
X605504Y37898
X600287Y41342
X593988Y36126
X588181Y41807
X585524Y50102
X575976Y62406
X570169Y56992
X561059Y65935
Y71742
Y78337
Y84538
X548070
Y78337
Y71742
Y65735
X595140Y63492
X599080Y62807
X598456Y59375
X602590Y58751
X629221Y65735
Y71742
Y78337
Y84538
X642210
Y78337
Y71742
Y65935
X637000Y7500
X617000
X612098Y31697
X675976Y29827
X681882Y36347
X675779Y43705
X682276Y50595
X675681Y57386
X676626Y74419
X690822Y88459
X716301Y88693
X729354Y88666
X741000Y94000
Y74000
Y54000
Y34000
X735346Y26685
X728346Y29685
X721346Y26685
X718346Y19685
X721346Y12685
X717000Y7500
X728346Y9685
X735346Y12685
X738346Y19685
X697000Y7500
X677000
X675090Y14742
X657000Y7500
X688194Y28704
X691914Y102733
X694020Y111703
X691368Y122311
X687858Y124807
X687780Y127615
Y130267
X694878Y130345
X694722Y134167
X698466Y134011
X690744Y134635
X694956Y126133
X687546Y119191
X682164Y119248
X676469Y122248
X675924Y140875
X676704Y146569
X682320
X683436Y158939
X676884Y158081
X676572Y170795
X683202Y168611
X686166Y181013
X692484Y177971
X697632Y180935
X709254Y180467
X709722Y172121
X710268Y163697
X717132Y161903
X718668Y145867
X710712Y145945
X706524Y151295
X702702Y157613
X697164Y152621
X699402Y145555
X706290Y132419
X711024Y134323
X711336Y127849
X716952Y122701
X721866Y124417
X724440Y118333
X725610Y111703
X716871Y103392
X719760Y134089
X725298
X724752Y140719
X738402Y140251
Y143449
X738480Y146413
X741000Y154000
X736632Y158081
X741000Y174000
Y194000
Y214000
Y234000
X736710Y236003
X741000Y254000
X721188Y250823
X707226Y256673
X701532
X692328
X681096
X680940Y248951
X682110Y237797
X682344Y233741
X682266Y229763
X678600Y236237
X688662Y243023
X692484
X696150
X702234Y237329
Y233663
Y229529
X695994Y224147
X692406Y224069
X689052
X692484Y214605
X692406Y210705
X683124Y207897
X681486Y201345
X681096Y191673
X692328
X701532
X707226
X715572Y191231
X707382Y201345
X701922
X703794Y207897
X701298Y214605
X706368
X713466Y217907
X679848Y220091
X680628Y214605
X668957Y213153
Y210053
X663457Y206653
X663357Y203353
X663457Y200053
X667557Y192653
X667668Y188453
Y185474
X661664Y184488
X658317Y184470
X659400Y180435
Y175907
X664258Y178072
X663289Y170807
X668215Y171601
X670376Y174547
X659254Y168937
X656301Y170807
X652313
X649361Y168937
X645325Y170807
X642257Y173953
X644356Y178072
X649214Y175907
Y180435
X650297Y184470
X646950Y184488
Y156535
X649214Y152297
Y147769
X654332Y147972
Y152500
X659400Y152482
X659254Y140984
X654332Y143248
Y137343
X649361Y140799
X645325Y142669
X692484Y159173
X701922Y168767
X738480Y135571
X738402Y132295
X738558Y129253
X738870Y124651
X738948Y121843
X737544Y117631
X659257Y211153
X655657Y211053
X650957Y220953
X649440Y224608
X645757Y218053
X655562Y232876
X655720Y237738
X661357Y240453
X660680Y244785
X657039Y244883
X657924Y249313
X654283Y249411
X655907Y257520
X659549
X663557Y228553
X668161Y220349
X642157Y217453
X636833Y215587
X640357Y211953
X636657Y203453
X638657Y199053
X629757Y203453
X626388Y211653
X629521Y215587
X624157Y217153
X620621Y218801
X616389Y221261
X616026Y224917
X604357Y228553
X599755Y233368
X601144Y243910
X601330Y249017
X596941Y255516
X578249Y257520
X574607
X572983Y249411
X576624Y249313
X575739Y244883
X579380Y244785
X580057Y240453
X574420Y237738
X574262Y232876
X582257Y228553
X586861Y220349
X587657Y213153
Y210053
X582157Y206653
X582057Y203353
X582157Y200053
X586257Y192653
X586368Y188453
Y185474
X580364Y184488
X577017Y184470
X578100Y180435
Y175907
X582958Y178072
X581989Y170807
X586915Y171601
X589076Y174547
X600101Y170813
X598230Y167362
X595116Y158971
X611965Y152482
Y147954
X617033Y147972
Y152500
X622151Y152297
Y147769
X622005Y140799
X626040Y142669
X629435Y146102
X629218Y134498
X629221Y128298
Y121703
Y115696
X642210Y115896
Y121703
Y128298
X642213Y134498
X641931Y146102
X640454Y156535
X631301Y156437
X624415Y156351
X622049Y169134
X619052Y170622
X615064Y170807
X612112Y168937
X611965Y175907
Y180435
X613048Y184470
X609702Y184488
X607383Y178091
X603889Y179740
X600936
X600838Y184352
X600257Y187953
X596857Y197253
X596657Y200753
Y204153
X596857Y207553
X596757Y210753
X607258Y211233
X610877Y211124
X604957Y205853
X577957Y211153
X574357Y211053
X569657Y220953
X568140Y224608
X564457Y218053
X560857Y217453
X555533Y215587
X559057Y211953
X555357Y203453
X557357Y199053
X548457Y203453
X545088Y211653
X548221Y215587
X542857Y217153
X539321Y218801
X535089Y221261
X534726Y224917
X523057Y228553
X518455Y233368
X519844Y243910
X520030Y249017
X516134Y254925
X496949Y257520
X493307
X491683Y249411
X495324Y249313
X494439Y244883
X498080Y244785
X498757Y240453
X493120Y237738
X492962Y232876
X500957Y228553
X505561Y220349
X506357Y213153
Y210053
X500857Y206653
X500757Y203353
X500857Y200053
X504957Y192653
X505068Y188453
Y185474
X499064Y184488
X495717Y184470
X496800Y180435
Y175907
X501658Y178072
X500689Y170807
X505615Y171601
X507776Y174547
X518801Y170813
X516930Y167362
X513762Y159127
X530665Y152482
Y147954
X535733Y147972
Y152500
X540851Y152297
Y147769
X540705Y140799
X544740Y142669
X548135Y146102
X548067Y134498
X548070Y128298
Y121703
Y115696
X561059Y115896
Y121703
Y128298
X561062Y134498
X564025Y142669
X568061Y140799
X567914Y147769
Y152297
X573032Y152500
Y147972
Y143248
Y137343
X577953Y140984
X578100Y152482
X565650Y156535
X559154
X550001Y156437
X543115Y156351
X540749Y169134
X537752Y170622
X533765Y170807
X530812Y168937
X530665Y175907
Y180435
X531748Y184470
X528402Y184488
X526083Y178091
X522589Y179740
X519636
X519538Y184352
X518957Y187953
X515557Y197253
X515357Y200753
Y204153
X515557Y207553
X515457Y210753
X525958Y211233
X529577Y211124
X523657Y205853
X496657Y211153
X493057Y211053
X488357Y220953
X486840Y224608
X487697Y184470
X486614Y180435
Y175907
X486761Y168937
X489713Y170807
X493701
X496654Y168937
X496800Y152482
X491732Y152500
Y147972
Y143248
Y137343
X486761Y140799
X486614Y147769
Y152297
X496654Y140984
X530812
X535733Y143248
Y137343
X560631Y146102
X556300Y163130
X552855
X554557Y169823
Y172480
X554430Y176602
Y179370
X552757Y181553
X558757Y185753
X565650Y184488
X568997Y184470
X567914Y180435
Y175907
X563056Y178072
X560957Y173953
X559557Y170553
X564025Y170807
X568061Y168937
X571013Y170807
X575001
X577953Y168937
X549057Y170053
X544740Y170622
X547857Y174353
X545709Y177887
X540851Y175722
Y180250
X539769Y184285
X543115Y184303
X530660Y241242
X611960
X621068Y184285
X624415Y184303
X622151Y180250
Y175722
X627009Y177887
X629157Y174353
X630357Y170053
X626040Y170622
X635857Y169823
Y172480
X635730Y176602
Y179370
X634057Y181553
X640057Y185753
X640857Y170553
X637600Y163130
X634155
X617033Y143248
Y137343
X612112Y140984
X482725Y142669
X479331Y146102
X477854Y156535
X484350
X468701Y156437
X461815Y156351
X459551Y152297
Y147769
X454433Y147972
Y152500
X449365Y152482
Y147954
X449512Y140984
X454433Y143248
Y137343
X459405Y140799
X463440Y142669
X466835Y146102
X466650Y134498
X466653Y128298
Y121703
Y115696
X479642Y115896
Y121703
Y128298
X479646Y134498
X475000Y163130
X471555
X473257Y169823
Y172480
X473130Y176602
Y179370
X471457Y181553
X477457Y185753
X484350Y184488
X481756Y178072
X479657Y173953
X478257Y170553
X482725Y170807
X467757Y170053
X463440Y170622
X459449Y169134
X456452Y170622
X452464Y170807
X449512Y168937
X449365Y175907
Y180435
X450448Y184470
X447102Y184488
X444783Y178091
X441289Y179740
X438336
X438238Y184352
X437657Y187953
X434257Y197253
X434057Y200753
Y204153
X434257Y207553
X434157Y210753
X424301Y209755
Y212855
X423505Y220051
X418901Y228255
X410907Y232578
X411064Y237440
X416701Y240155
X416025Y244487
X412383Y244586
X413269Y249015
X409627Y249113
X438730Y249017
X438544Y243910
X437155Y233368
X441757Y228553
X453426Y224917
X453789Y221261
X458021Y218801
X461557Y217153
X466921Y215587
X463788Y211653
X467157Y203453
X474057
X476057Y199053
X477757Y211953
X474233Y215587
X479557Y217453
X483157Y218053
X448277Y211124
X444658Y211233
X442357Y205853
X418801Y206355
X418701Y203055
X418801Y199755
X422901Y192355
X423012Y188155
Y185176
X417008Y184190
X413662Y184172
X414744Y180137
Y175609
X419602Y177775
X418633Y170509
X423559Y171303
X425720Y174249
X437501Y170813
X435630Y167362
X432174Y158815
X414744Y152184
X409677Y152202
Y147675
Y142950
Y137045
X404705Y140502
X400670Y142372
X397275Y145805
X404559Y147472
Y151999
X402295Y156238
X395799
X386645Y156139
X379759Y156053
X377496Y151999
Y147472
X372377Y147675
Y152202
X367310Y152184
Y147657
X367456Y140687
X372377Y142950
Y137045
X377349Y140502
X381385Y142372
X384779Y145805
X384805Y134498
X384808Y128298
Y121703
Y115696
X397797Y115896
Y121703
Y128298
X397800Y134498
X414598Y140687
Y168639
X411645Y170509
X407658
X404705Y168639
X400670Y170509
X396201Y170255
X397601Y173655
X399701Y177775
X404559Y175609
Y180137
X405641Y184172
X402295Y184190
X395401Y185455
X389401Y181255
X391074Y179072
Y176304
X391201Y172183
Y169525
X385701Y169755
X381385Y170325
X377393Y168836
X374396Y170325
X370409Y170509
X367456Y168639
X367310Y175609
Y180137
X368392Y184172
X365046Y184190
X362728Y177793
X359233Y179443
X356281
X356182Y184054
X355601Y187655
X352201Y196955
X352001Y200455
Y203855
X352201Y207255
X352101Y210455
X342774Y210053
Y213153
X341978Y220349
X337374Y228553
X335174Y240453
X334498Y244785
X330856Y244883
X331742Y249313
X344972Y250693
X342944Y254072
X348122Y246362
X356674Y248720
X356488Y243612
X355100Y233070
X359701Y228255
X371371Y224620
X371733Y220964
X375966Y218503
X379501Y216855
X384866Y215290
X381732Y211355
X385101Y203155
X392001
X394001Y198755
X395701Y211655
X392177Y215290
X397501Y217155
X401101Y217755
X406301Y220655
X404785Y224310
X411001Y210755
X414601Y210855
X366221Y210826
X362602Y210936
X360301Y205555
X337274Y206653
X337174Y203353
X337274Y200053
X341374Y192653
X341485Y188453
Y185474
X335481Y184488
X332135Y184470
X333217Y180435
Y175907
X338075Y178072
X337106Y170807
X342032Y171601
X344193Y174547
X355446Y170516
X353574Y167064
X350610Y157872
X350454Y155064
X350376Y152256
X333217Y152482
X333071Y140984
Y168937
X330118Y170807
X333074Y211153
X367304Y240944
X376413Y183987
X379759Y184005
X377496Y179952
Y175424
X382353Y177590
X384501Y174055
X389499Y162832
X392944
X361296Y124488
X359112Y126360
X356909Y128563
X459551Y175722
Y180250
X458468Y184285
X461815Y184303
X464409Y177887
X466557Y174353
X449360Y241242
X434638Y255417
X328100Y249411
X329537Y237738
X329380Y232876
X323257Y224608
X324774Y220953
X319574Y218053
X315974Y217453
X310650Y215587
X314174Y211953
X310474Y203453
X312474Y199053
X303574Y203453
X300205Y211653
X303339Y215587
X297974Y217153
X294439Y218801
X290206Y221261
X289844Y224917
X278174Y228553
X273572Y233368
X274961Y243910
X275147Y249017
X267413Y247150
X263389Y250285
X261417Y254370
X249686Y249409
X246044Y249507
X248800Y244979
X252442Y244881
X253118Y240549
X247481Y237834
X247324Y232972
X255318Y228649
X259922Y220445
X260718Y213249
Y210149
X255218Y206749
X255118Y203449
X255218Y200149
X259318Y192749
X259430Y188549
Y185570
X253426Y184584
X250079Y184566
X251162Y180531
Y176003
X256020Y178168
X255051Y170903
X259977Y171697
X262137Y174643
X273919Y170813
X272047Y167362
X268374Y158893
X251162Y152578
X246094Y152596
Y148068
Y143344
Y137438
X241122Y140895
X237087Y142765
X233693Y146198
X240976Y147865
Y152393
X238712Y156631
X232216
X223062Y156533
X216177Y156446
X213913Y152393
Y147865
X208795Y148068
Y152596
X203727Y152578
Y148050
X203874Y141080
X208795Y143344
Y137438
X213767Y140895
X217802Y142765
X221196Y146198
X221153Y134498
X221156Y128298
Y121703
Y115696
X234145Y115896
Y121703
Y128298
X234148Y134498
X251015Y141080
Y169033
X248062Y170903
X244075
X241122Y169033
X237087Y170903
X232618Y170649
X234018Y174049
X236118Y178168
X240976Y176003
Y180531
X242059Y184566
X238712Y184584
X231818Y185849
X225818Y181649
X227492Y179466
Y176698
X227618Y172576
Y169919
X222118Y170149
X217802Y170718
X213811Y169230
X210814Y170718
X206826Y170903
X203874Y169033
X203727Y176003
Y180531
X204810Y184566
X201463Y184584
X199145Y178187
X195651Y179836
X192698
X192599Y184448
X192018Y188049
X188619Y197349
X188418Y200849
Y204249
X188619Y207649
X188519Y210849
X179191Y210053
Y213153
X178395Y220349
X173791Y228553
X173691Y206653
X173591Y203353
X173691Y200053
X177791Y192653
X177902Y188453
Y185474
X174493Y178072
X173524Y170807
X178450Y171601
X180610Y174547
X191863Y170909
X189992Y167458
X186864Y158971
X225917Y163226
X229362
X220918Y174449
X218771Y177983
X213913Y175818
Y180346
X212830Y184381
X216177Y184399
X221518Y203549
X228418
X230418Y199149
X232118Y212049
X228594Y215683
X233918Y217549
X237518Y218149
X242718Y221049
X241202Y224704
X247418Y211149
X251018Y211249
X270574Y210753
X270674Y207553
X270474Y204153
Y200753
X270674Y197253
X274074Y187953
X274655Y184352
X274753Y179740
X277706
X281201Y178091
X285783Y175907
Y180435
X286865Y184470
X283519Y184488
X294886Y184285
X298232Y184303
X295969Y180250
Y175722
X295866Y169134
X292869Y170622
X288882Y170807
X285929Y168937
X299857Y170622
X304174Y170053
X302974Y174353
X300826Y177887
X309547Y176602
Y179370
X307874Y181553
X313874Y185753
X320768Y184488
X324114Y184470
X323031Y180435
Y175907
X318174Y178072
X316074Y173953
X314674Y170553
X319143Y170807
X323178Y168937
X326131Y170807
X309674Y169823
Y172480
X307972Y163130
X311417
X314272Y156535
X320768
X323031Y152297
Y147769
X328150Y147972
Y152500
Y143248
Y137343
X323178Y140799
X319143Y142669
X315748Y146102
X316033Y134498
X316030Y128298
Y121703
Y115896
X303041Y115696
Y121703
Y128298
X303038Y134498
X299857Y142669
X295822Y140799
X295969Y147769
Y152297
X290850Y152500
Y147972
Y143248
Y137343
X285929Y140984
X285783Y147954
Y152482
X298232Y156351
X305118Y156437
X303252Y146102
X284695Y211124
X281075Y211233
X278774Y205853
X285777Y241242
X329474Y211053
X218149Y211749
X221283Y215683
X215918Y217249
X212383Y218897
X208151Y221357
X207788Y225013
X196118Y228649
X191517Y233464
X192906Y244006
X193092Y249113
X185720Y247346
X181685Y250693
X179362Y254466
X203722Y241338
X202639Y211220
X199020Y211329
X196719Y205949
X169491Y211153
X165891Y211053
X161191Y220953
X159675Y224608
X155991Y218053
X152391Y217453
X147067Y215587
X150591Y211953
X146891Y203453
X148891Y199053
X139991Y203453
X136622Y211653
X139756Y215587
X134391Y217153
X130856Y218801
X126624Y221261
X126261Y224917
X114591Y228553
X109990Y233368
X111379Y243910
X111565Y249017
X107965Y255417
X99775Y250627
X86368Y249313
X82726Y249411
X85482Y244883
X89124Y244785
X89800Y240453
X84163Y237738
X84005Y232876
X92000Y228553
X96604Y220349
X97400Y213153
Y210053
X91900Y206653
X91800Y203353
X91900Y200053
X96000Y192653
X96111Y188453
Y185474
X90107Y184488
X86761Y184470
X87843Y180435
Y175907
X92701Y178072
X91732Y170807
X96658Y171601
X98819Y174547
X110336Y170813
X108465Y167362
X105276Y158815
X122200Y152482
Y147954
X127268Y147972
Y152500
X132386Y152297
Y147769
X132239Y140799
X136275Y142669
X139669Y146102
X139784Y134498
X139787Y128298
Y121703
Y115696
X152776Y115896
Y121703
Y128298
X152779Y134498
X155560Y142669
X159595Y140799
X159449Y147769
Y152297
X164567Y152500
Y147972
Y143248
Y137343
X169488Y140984
X169635Y152482
X157185Y156535
X150689
X141535Y156437
X134650Y156351
X132283Y169134
X129287Y170622
X125299Y170807
X122346Y168937
X122200Y175907
Y180435
X123283Y184470
X119936Y184488
X117618Y178091
X114124Y179740
X111171
X111072Y184352
X110491Y187953
X107091Y197253
X106891Y200753
Y204153
X107091Y207553
X106991Y210753
X117492Y211233
X121112Y211124
X115191Y205853
X87700Y211153
X84100Y211053
X79400Y220953
X77883Y224608
X74200Y218053
X70600Y217453
X65276Y215587
X68800Y211953
X65100Y203453
X67100Y199053
X58200Y203453
X54831Y211653
X57964Y215587
X52600Y217153
X49064Y218801
X44832Y221261
X44470Y224917
X32800Y228553
X28198Y233368
X22017Y233519
X19290Y230284
X24234Y223711
X25200Y210753
X25300Y207553
X25100Y204153
Y200753
X25300Y197253
X28700Y187953
X29281Y184352
X29379Y179740
X32332
X35827Y178091
X40409Y175907
Y180435
X41491Y184470
X38145Y184488
X49512Y184285
X52858Y184303
X50595Y180250
Y175722
X50492Y169134
X47495Y170622
X43508Y170807
X40555Y168937
X28545Y170813
X26673Y167362
X40409Y152482
Y147954
X45476Y147972
Y152500
X50595Y152297
Y147769
X50448Y140799
X54483Y142669
X57878Y146102
X57852Y134498
X57855Y128298
Y121703
Y115696
X70844Y115896
Y121703
Y128298
X70848Y134498
X73769Y142669
X77804Y140799
X77657Y147769
Y152297
X82775Y152500
Y147972
Y143248
Y137343
X87697Y140984
X87843Y152482
X75394Y156535
X68898
X59744Y156437
X52858Y156351
X54483Y170622
X58800Y170053
X57600Y174353
X55452Y177887
X64173Y176602
Y179370
X62500Y181553
X68500Y185753
X75394Y184488
X78740Y184470
X77657Y180435
Y175907
X72800Y178072
X70700Y173953
X69300Y170553
X73769Y170807
X77804Y168937
X80757Y170807
X84744
X87697Y168937
X64300Y169823
Y172480
X62598Y163130
X66043
X70374Y146102
X45476Y143248
Y137343
X40555Y140984
X39320Y211124
X35701Y211233
X33400Y205853
X29587Y243910
X29773Y249017
X31216Y255813
X36803Y254138
X40403Y241242
X17982Y244546
X20162Y248113
X84350Y257520
X87992
X122195Y241242
X165954Y237738
X165797Y232876
X171591Y240453
X170915Y244785
X167273Y244883
X168159Y249313
X164517Y249411
X166142Y257520
X169783
X168552Y184470
X171898Y184488
X169635Y180435
Y175907
X169488Y168937
X166535Y170807
X162548
X159595Y168937
X155560Y170807
X151091Y170553
X152491Y173953
X154591Y178072
X159449Y175907
Y180435
X160531Y184470
X157185Y184488
X150291Y185753
X144291Y181553
X145965Y179370
Y176602
X146091Y172480
Y169823
X140591Y170053
X136275Y170622
X139391Y174353
X137244Y177887
X132386Y175722
Y180250
X131303Y184285
X134650Y184303
X144390Y163130
X147835
X152165Y146102
X127268Y143248
X122346Y140984
X7000Y144000
Y124000
Y104000
Y164000
Y184000
Y204000
Y224000
X11488Y249939
X16225Y248802
X14736Y252694
X7000Y266400
X13189Y276220
X4134Y285276
X13189Y294331
X14370Y302046
X9800Y301553
X15300Y316401
X14075Y360261
X9800Y359153
X10352Y372579
X10466Y381004
X10321Y390183
X10249Y399579
Y408614
X60864Y408173
X60273Y403055
X60925Y396481
X81252Y398197
X78363Y405455
X78225Y413385
X68300Y413153
X93919Y397933
X97900Y397553
X107589Y403550
X112524Y404154
X116300Y403901
X111300Y409253
X111557Y414138
X123347Y414355
X132900Y411253
X134000Y407353
X139500Y405001
X137211Y396518
X134330Y396553
X133600Y392753
X136400Y392901
X138800Y384453
X141200Y383001
X153800Y383353
X153100Y388153
X156300Y388042
X156473Y377519
X153337Y377507
X152817Y367167
X156400Y367001
X160169Y355246
X157587Y350246
X153900Y350253
X164300Y349553
Y345853
X172745Y346117
X173327Y350411
X172056Y357437
X169095Y361653
X135275Y357984
X132438Y357962
X130800Y361553
X127760Y361547
X128660Y365095
X131700Y365101
X130635Y373553
X127594Y373547
X127800Y377353
X130900
X126831Y382576
X121900Y352753
X122871Y337862
X127171Y332047
X130224Y332052
X139693Y335359
X145008Y342446
X130800Y344909
X120500Y325353
X114700Y327553
X115059Y314902
X110138Y290886
X107313Y284603
X98622Y292067
X89555Y289906
X71000Y302653
X66100Y302601
X66425Y298765
X60600Y303901
X56900Y303553
X51819Y305221
X44980Y294232
X30189Y292163
X29598Y278383
X30294Y267636
X23299Y266277
X18753Y268934
X36024Y270413
X40797Y275925
X49360
X56306Y277413
X57000Y270953
X60039Y265886
X58348Y262321
X61990Y262419
X53198Y261616
X76378Y260571
X80020Y260472
X79134Y265591
X75590Y264902
X91606Y258698
X103515Y268541
X112085Y267636
X117815Y270413
X122588Y275925
X131151
X138097Y277413
X138791Y270953
X141831Y265886
X140140Y262321
X143782Y262419
X134990Y261616
X158169Y260571
X161811Y260472
X160925Y265591
X157382Y264902
X170729Y267556
X167421Y299449
X163681Y299547
X159646Y299449
X155807
X158512Y327109
X156020Y333410
X153800Y331553
X153698Y397766
X157381Y397770
X156100Y401353
X153100Y401401
X153000Y410975
X161891Y409129
X161900Y412901
X162800Y404253
X171900Y408453
X171751Y412699
X85400Y361901
X80500Y360853
X42283Y356419
X30400Y355301
X32372Y351206
X30300Y345953
X27500Y336501
X32700Y332801
X32500Y320701
Y314753
X30798Y307013
X23700Y310853
X22300Y301953
X22244Y285276
X41000Y320101
X41400Y326201
X39372Y340901
X50900Y341553
X66425Y323272
X49429Y376636
X42860Y372241
X34890Y372434
X24800Y356553
X18799Y358588
X127559Y281260
X176035Y266218
X186193Y266218
X188356Y259328
X194291Y262884
X199401Y264669
X204106Y264643
X218732Y264604
X216517Y261712
X221667Y262417
X225309Y262515
X238744Y264701
X242393Y264801
X243022Y260597
X239421Y260608
X248077Y260568
X251723Y260516
X248292Y265686
X258090Y266122
X258633Y275234
X254500Y279269
X255192Y284551
X249571Y285962
X249670Y302302
X246028Y302400
X246822Y306041
X243673Y309387
X239932Y306435
X235897Y304368
X235047Y316503
X235405Y320706
X233522Y332251
X219783Y330748
X219685Y327894
X223228Y326024
X214303Y327853
X210703Y327181
X206299Y323957
X215500Y319108
X224555Y310053
X215500Y300998
X206445Y310053
X181607Y311281
X181988Y359488
X185617Y359876
X190256
X178092Y359102
X176100Y362201
X182775Y370020
X192120Y378731
X198913Y373075
X200122Y386102
X212000Y385601
X209618Y382714
X215719Y375591
X219389Y375674
X223118Y375681
X223039Y367592
X219412Y367648
X215708Y367486
X211909Y367461
X219421Y360852
X223112Y360830
X223113Y354369
X219423Y354356
X219400Y350701
X220400Y345701
X214300Y345853
X214287Y349532
X210307Y347379
X206300Y346953
X206800Y350553
X200305Y344739
X236220Y348366
X241114Y357812
X241106Y364017
X238259
X239283Y374662
X246323Y375042
X242976Y382030
X238161Y382320
X236684Y395154
X240326Y396789
X239827Y402405
X235776Y401905
X237570Y407320
X241170Y407448
X244460Y405647
X244263Y399545
X244847Y394137
X246225Y390101
X254099Y388428
X272210Y386755
X277578Y383221
X274572Y379963
X272407Y373467
X277968Y373471
X277433Y364801
X286586Y371789
X287866Y382419
X295005Y379556
X297708Y373462
X310208Y372970
X314791Y375320
X322807Y372675
X323539Y381717
X326110Y388706
X310174Y382647
X307748Y345312
X293968Y336159
X287252Y336737
X282157Y336651
X277465Y336697
X267485Y336851
X262373Y336651
X257944
X257690Y326136
X275455Y327977
X280673Y323873
X295083Y325734
X295248Y322084
X292885Y314801
X290917Y286257
X285624
X285602Y281041
X286783Y273364
X291114
X286161Y264547
X281587Y264449
X277563Y261407
X270377Y259439
X268299Y266638
X267492Y278679
X275425Y274939
X273498Y289803
X258024Y303629
X231558Y280549
X229303Y277301
X229998Y273475
X300787Y264508
X298572Y261616
X303722Y262321
X307364Y262419
X321843Y260339
X325563Y260372
X329303Y260372
X320834Y265587
X321414Y276517
X327823Y274544
X327629Y281435
X309712Y286356
X278500Y347901
X266507Y370214
X263038Y372905
X219854Y387832
X219657Y392950
X208783Y395390
X213644Y404368
X213161Y408305
X211600Y413553
X206613Y411417
X201287Y412101
X201274Y408183
X201300Y404501
X194437Y404532
X194440Y408135
X194437Y411816
X182007Y412710
X182000Y409101
X337331Y381324
X349043Y383095
X351575Y374547
X357647Y373270
X361920Y370865
X362495Y364323
X359716Y354466
X354104Y359588
X347665Y357346
X347468Y361680
X347476Y338639
X354990Y338721
X371272Y346691
X370862Y355647
X375291Y364323
X385530Y361677
X383580Y359649
X387480
Y369649
X383580
X385530Y371677
X386684Y377793
X395444Y380254
X375463Y377896
X372412Y375829
X364962Y380303
X330933Y371088
X363653Y320805
X383333Y319293
X387233
X385283Y317265
X383333Y326533
X387233
X385283Y328561
X393968Y337048
X397807Y336553
X400070Y340686
X394854
X406566Y350135
X411390Y345513
X421557Y345578
X428220Y335962
X463259Y336553
X484668Y337903
X485883Y329368
X485412Y364850
Y379850
Y384850
X483249Y393448
X474812Y407650
X476055Y410149
X457846Y395312
X452039Y395116
X448692Y380941
X462177Y387045
X443673Y413718
X438653Y411848
X432649Y408108
X422708Y397970
X418279Y397970
X411291Y399053
X409913Y393836
X412373Y388718
X406580Y402611
X406814Y304911
X401686Y304802
X392885Y305943
X385504Y305844
X419362Y303088
X427433Y265785
X439250Y267636
X444980Y270413
X449754Y275925
X458317
X465263Y277413
X465957Y270953
X468996Y265886
X467305Y262321
X470947Y262419
X462155Y261616
X485335Y260571
X484547Y264902
X415550Y260125
X411950Y260175
X406850
X403220Y260213
X402492Y264604
X406035Y265293
X388891Y262122
X385249Y262023
X382314Y264210
X380100Y261318
X367688Y264249
X363575Y265260
X358571Y263081
X351938Y258934
X349775Y265824
X339618Y265824
X330709Y265789
X488091Y265591
X488976Y260472
X513850Y269427
X520550Y267636
X526280Y270413
X531053Y275925
X539616
X546563Y277413
X547257Y270953
X550296Y265886
X548605Y262321
X552247Y262419
X543455Y261616
X566635Y260571
X570276Y260472
X569390Y265591
X565847Y264902
X594362Y269525
X601850Y267636
X607580Y270413
X612354Y275925
X620917
X627863Y277413
X628557Y270953
X631596Y265886
X629905Y262321
X633547Y262419
X624755Y261616
X626184Y294581
X624780Y300275
X624468Y314393
X620061Y321309
X616813
X613467
X610218
X602082Y324377
X600522Y331475
X593736Y332177
X588284Y323788
X588597Y315007
X588588Y303941
X598884Y303083
X606138Y300587
X605826Y294113
X615498Y293957
X615264Y307529
X605514Y314081
X599196Y315563
X611364Y336077
X614328Y343487
X619710Y343409
X626184Y343331
X634608Y343955
X640614Y343799
X637494Y333035
X635466Y326405
X628446Y335219
X620724Y333815
X602912Y347350
X597912Y349850
Y357350
X590412
X582912
Y349850
X578122Y351415
X574086Y351513
X564342Y354466
X562812Y358150
X563112Y366650
X557912Y364850
X552912
X547912
X542912
X537912
X532912
X527912
X520412Y364450
X515412Y364650
X510412
X505412Y364850
X500412
X495493
X490412
X492098Y351907
X487078Y351809
X498342Y349850
X505412
X510650Y357350
X520412
Y349850
X529598Y351120
X534618Y351218
X542517Y349850
X547912
Y356776
X540412
X555412Y356450
Y349565
X572912Y364850
X577912
X582912
X587912
X592912
X597912
X602912
X607111Y366650
X607011Y357950
X606111Y351650
X590412Y349850
X607111Y375750
Y382350
X616200Y388727
X621270Y385373
X625872Y381083
X632034
X639210Y387479
X632190Y399881
X622050Y399491
X617604Y399179
X618540Y412439
X612360
X606684
X628290Y412283
X632658
X638352
X601914Y395055
X598961
X596008
X593055
X590103
X586177Y395055
X576480Y395842
X570392Y391250
X566592Y391350
X562570Y388423
Y382149
X563112Y375750
X566691Y378350
X566410Y398367
X557952Y395023
X555117Y395054
X552165
X549212
X546259
X542235Y395153
X549812Y390550
X554712Y390650
X529232Y393775
X517303Y391009
X512312Y391050
Y395550
X516312
X516704Y400726
X508312Y395550
X504312
X499862Y395786
X507412Y391050
X492912Y384850
Y379850
X520412Y374850
Y369850
X526180Y381275
X513612Y413650
X508112Y413750
X486104Y405948
X521724Y339604
X518384Y328275
X511192Y317163
X511291Y306828
X516212Y307222
X519263
X524480
X527531
X530582
Y301218
X527531
X524381
X535700
X538752
X541803
X508240Y301316
X505287
X502334
X499185
X513850Y281139
X593611Y390750
X598911Y390650
X646932Y390521
X645684Y383423
X657696Y383813
X658900Y375311
X653562
X646620Y370007
X646698Y365093
Y359867
X653796Y355109
X658320Y355031
X666354Y355109
X672204Y355031
X677820Y359633
Y364953
Y370163
X682734Y364001
X684528Y352925
X692562
X698022Y346295
X692640Y340835
X676650Y339587
X673296Y339509
X669630Y339431
X662298Y337793
X662376Y333581
X667290Y332645
X669864Y326795
X673530Y326873
X677274Y326717
X673061Y321309
X669813
X666467
X658944Y326483
X654030
X649116
X644202
X642642Y333113
X650988Y333191
X646542Y343877
X665262Y345671
X677274Y345749
X683046Y331241
X692406Y321803
X689676Y317279
X685698Y311819
X692562Y308543
X705120Y310649
X703560Y317747
X702234Y331319
X711516Y326171
X710814Y346295
X707616Y353003
X712686Y356747
X713154Y365015
X712998Y375389
X707538Y377339
X699894Y377963
X701532Y386752
X707226
X707382Y396424
X701922
X703794Y402976
X701298Y409684
X706368
X692484
X692406Y405784
X683124Y402976
X681486Y396424
X681096Y386752
X692328
X693030Y374063
X683904Y378119
X670600Y375311
X665900
X669162Y384203
X672594Y400427
X674232Y408929
X669101Y408785
X662113
X655716Y408687
X651066Y408851
X645606Y399959
X657930Y400505
X680628Y409684
X741000Y414000
Y394000
Y374000
Y354000
Y334000
Y314000
Y294000
Y274000
X703794Y272897
X701922Y266345
X707382
X706368Y279605
X701298
X692484
X692406Y275705
X683124Y272897
X681486Y266345
X680628Y279605
X682578Y285689
X692796Y288575
X704808Y286079
X702546Y298715
X682188Y298559
X677785Y300738
X677687Y307135
Y314124
X659022Y314237
X658944Y307139
X658476Y300275
X665418Y293553
X668519
X671502Y293567
X658608Y265051
X650691Y265591
X647147Y264902
X647935Y260571
X651576Y260472
X702156Y364001
X704262Y415325
X708396Y417119
X708006Y423437
Y433343
Y439037
X704418Y442079
X695682Y442001
X692562Y438491
X687492Y442001
X685074Y448865
X692952Y452297
X705120Y450503
X705978Y463529
X701766Y461579
X692640Y470861
X684450Y472733
X685412Y484294
Y491794
X690690Y491921
X670412Y491794
Y484294
X677912
X670412Y476634
X669995Y469294
X667912Y461991
Y454294
X661068
X655412
X650412
Y446794
X655412
X642912
Y454294
Y461794
X650500
X657912
X660412Y469294
Y476794
Y484294
Y491794
X650412
Y486794
X642912
Y491794
X675804Y500094
X677000Y544000
X697000
X717000
X721346Y538496
X728346Y541496
X735346Y538496
X738346Y531496
X735346Y524496
X728346Y521496
X721346Y524496
X718346Y531496
X741000Y514000
Y494000
Y474000
Y454000
Y434000
X702546Y428819
X692562Y419771
Y415247
X682032Y415559
X676287Y416659
Y420006
X672750Y427571
X669240Y427649
X670332Y436853
X670412Y446794
X681876Y437321
X682812Y428819
X655668Y427415
X651846
X648643Y420009
Y416761
X645684Y436931
X683124Y461267
X705354Y476947
X657000Y544000
X637000
X617000
X597000
X577000
X557000
X537000
X517000
X497000
X518568Y511213
X549768Y511016
X581757Y511606
X595831Y509146
X597013Y501173
X597457Y488969
X601198
X605036
X610548
X614288
X618127
X629512Y490894
X632412
X635412
X635200Y484997
X632300
X629401Y484934
Y479225
X633900Y479397
Y474197
X629401Y473516
Y470465
X636182Y464154
X618028Y468693
X614288
X610450
X604938
X601198
X597359
X607955Y456602
X607976Y452822
X618195Y454730
X626964Y435137
X627900Y422423
X632502
X637338
X618618Y422189
X612360
X606762
X538255Y418824
X535007Y418923
X531759Y418824
X530972Y430832
X534121Y431029
X537172Y431128
X534859Y450878
Y454028
X534846Y460877
X534859Y465479
Y468398
X538107
X487766Y466747
X491995Y462451
X490295Y456351
X505512Y424950
X511012Y425050
X515650Y432950
X482658Y448783
X479410
Y452327
X482462Y452228
X476095Y453751
X461187Y456774
X458187Y456574
X451838Y456274
X451987Y463674
X451857Y467264
X458139Y466174
X461287Y466074
X464139Y466174
X466538Y467574
X480947Y478151
X447000Y474000
X430298Y471326
X429598Y464069
X424480Y457124
X419362Y453875
X411488Y445214
X407840Y445419
X405264Y450379
X394556Y445509
X392385Y440990
X393798Y434077
X410256Y437977
X430085Y440990
X432255Y445509
X432255Y432419
X436980Y433108
X445051Y431927
X444798Y427634
X448369Y423801
X446597Y419667
X439019Y419523
X434817Y419532
X434688Y423853
X439019
X425197Y425638
X425140Y420455
X424873Y416080
X416381Y414995
X469012Y419667
X447000Y494000
Y514000
X453630Y524496
X460630Y521496
X467630Y524496
X470630Y531496
X467630Y538496
X460630Y541496
X453630Y538496
X450630Y531496
X477000Y544000
X418599Y473146
X410021Y472646
X392598Y471326
X391898Y464069
X386780Y457124
X381662Y453875
X373788Y445214
X370140Y445419
X367590Y450332
X369306Y437977
X354685Y440990
X356856Y445509
X349080Y457124
X343962Y453875
X336088Y445214
X332440Y445419
X330177Y450332
X332490Y437665
X334621Y472646
X343199Y473146
X354898Y471326
X354198Y464069
X372321Y472646
X380899Y473146
X317198Y471326
X316498Y464069
X311380Y457124
X306262Y453875
X298388Y445214
X294740Y445419
X292676Y450334
X289668Y437977
X279286Y440990
X281456Y445509
X273681Y457124
X268563Y453875
X260688Y445214
X257040Y445419
X251633Y443442
Y450332
Y463718
X241332Y459785
X230958Y459707
X213694Y459057
X207040Y461652
X206173Y454860
X204204Y448265
X208141
X214100Y442401
X217900Y442201
X215900Y438701
X211400Y439401
X209273Y435858
X205500Y435853
X205457Y438730
X201800Y434953
Y431853
X195848Y429401
X182340Y435715
X185700Y446838
X185862Y461515
X180925Y461515
X175900Y461490
X190878Y461485
X195904Y461564
X199775Y458403
X198768Y473332
X188386Y470772
X215514Y475229
X214188Y488489
X241332Y489581
X259222Y472646
X267799Y473146
X279499Y471326
X278799Y464069
X296921Y472646
X305499Y473146
X319156Y445509
X316985Y440990
X328571Y421580
X246812Y424850
X242038Y432423
X241015Y416671
X229700Y421701
X226500Y423701
X228909Y440391
X226645Y443541
X221300Y440101
X206615Y414920
X182300Y416301
X173550Y488567
X173862Y529517
X177000Y544000
X197000
X217000
X215358Y529283
X241098Y529751
X237000Y544000
X157000
X137000
X117000
X97000
X99061Y531703
X77000Y544000
X57000
X37000
X26685Y538496
X19685Y541496
Y521496
X26685Y524496
X29685Y531496
X34112Y513050
X36900Y485308
X23016Y484102
X27845Y476253
X27768Y458430
X28513Y452737
X18039Y449664
X17999Y443581
X22587Y440851
X27961Y438739
X25158Y433756
X33472Y433821
X35048Y440394
X41142Y436076
X41600Y429734
X41400Y426034
X41900Y422334
X49200Y426034
X56004Y415084
X68000Y417353
X61300Y442353
X64800Y448453
X65100Y452253
X59051Y453933
X52349Y447131
X46654Y441540
X40168Y450673
X36900Y467198
X51597Y465401
X51648Y469242
X51793Y473186
X45955Y476253
X62513Y473646
X60864Y470085
X60480Y466245
X51575Y461422
X76657Y460104
X76699Y455930
X77137Y471691
X88555
X99185Y471887
X110874Y459749
X119036Y454238
X122731Y454539
X125437Y460738
X125169Y471789
X119043Y465851
X133816Y465966
X138532Y462838
X133745Y456990
X128565Y450313
X129873Y442039
X127573Y440239
Y437339
X129973Y435639
X136100Y435653
X138400Y437453
Y440353
X136000Y442053
X145224Y437308
X148928Y437308
X145277Y430280
X151130Y425103
X165298Y433568
X165594Y437604
X165906Y441113
X157800Y442153
X158164Y448302
X163298Y452599
X170100Y447153
X168624Y465889
X173024Y466637
X173004Y470117
X172985Y473716
X150531Y466100
X149850Y451481
X145618Y447938
X122674Y445075
X119036Y445183
X118585Y441579
X123081Y430375
X132900Y415053
X172385Y427564
X140048Y477420
X132522Y488801
X131352Y529205
X85254Y489035
X60861Y494682
X52295Y494783
X17764Y455812
X18900Y430753
X10270Y425958
X10334Y417386
X4800Y431953
X10775Y439178
X9078Y460935
X4500Y479653
X7000Y514000
X12685Y524496
X9685Y531496
X12685Y538496
T03
X66870Y272716
X76870
X86870
X96870
Y282716
X86870
X76870
X66870
X80100Y306353
Y316353
X90100
Y306353
X100100
Y316353
X110100
Y306353
X120100
Y316353
X130100
Y306353
X140100
Y316353
X150100
Y306353
X160100
Y316353
X170100
Y306353
X168661Y282716
Y272716
X158661
Y282716
X148661
Y272716
X136969Y288740
X126969
X117205
X110300Y336053
Y346053
X100300
Y336053
X90300
Y346053
X80300
Y336053
X70300
Y346053
Y373547
X80300
X90300
X100300
X110300
Y383546
X100300
X90300
X80300
X70300
X180100Y316353
Y306353
X190100
Y316353
X188397Y282812
X178661Y282716
Y272716
X188397Y272812
X198397
X208397
X218397
Y282812
X208397
X198397
X314476Y311639
X324476
Y321639
X314476
X334476
X344476
X354476
Y311639
X344476
X334476
X334303Y287596
X344303
X354303
X364303
Y277596
X354303
X344303
X334303
X393771Y282419
X403771
X413771
X423771
Y272419
X413771
X403771
X393771
X475827Y272716
X485827
Y282716
X475827
X495827
X505827
Y272716
X495827
X495807Y307008
Y317008
Y327008
Y337008
X505807
Y327008
Y317008
Y307008
X557127Y282716
X567127
X577127
X587127
Y272716
X577127
X567127
X557127
X638427
Y282716
X648427
X658427
X668427
Y272716
X658427
X648427
T04
X35700Y390753
X43600
Y400674
X35700
T05
X261300Y352053
X271300
X293000
X303000
X324500
X316750Y396653
X306750
X296750
X275700
X265700
X255700
X337800
X347800
X357800
X379035
X389035
X399035
X436024Y370472
Y360472
Y350472
Y328898
Y318898
Y308898
X459842
Y318898
Y328898
Y350374
Y360374
Y370374
X334500Y352053
X337800Y420653
X347800
X357800
X379035
X389035
X399035
X316750
X306750
X296750
X275700
X265700
X255700
X8600Y470353
Y488153
T06
X58233Y37283
Y49094
X70044
Y37283
X138486
X150297
Y49094
X138486
X220013
Y37283
X231824
Y49094
X302068
X313879
Y37283
X302068
X383595
Y49094
X395407
Y37283
X465651
X477462
Y49094
X465651
X546951
Y37283
X558762
Y49094
X628251
X640062
Y37283
X628251
X562011Y315447
Y327258
X550200
Y315447
X538389
Y327258
T07
X339160Y494912
X352940
Y514597
X339160
X376860
X390639
Y494912
X376860
X414560
X428339
Y514597
X414560
X315240
X301460
Y494912
X315240
X277540
X263761
Y514597
X277540
T08
X18400Y465453
Y493053
T09
X615519Y300722
Y314122
X668519
Y300722
X669100Y364953
X655700
Y417953
X669100
T10
X692500Y168753
Y201253
Y233753
Y266253
Y298753
Y331253
Y363831
Y396332
Y428831
Y461332
T11
X25000Y372053
Y419375
T12
X46422Y33582
X81855
X126675
X162108
X208202
X243635
X290257
X325691
X371784
X407218
X453840
X489273
X535140
X570573
X616440
X651873
X573822Y330959
X526578
T13
X19685Y19685
X350394
X728346
Y531496
X460630
X19685
T14
X13189Y285276
X215500Y310053
X36900Y476253
M30
