G04*
G04 #@! TF.GenerationSoftware,Altium Limited,Altium Designer,19.0.12 (326)*
G04*
G04 Layer_Color=8388736*
%FSLAX25Y25*%
%MOIN*%
G70*
G01*
G75*
%ADD115C,0.12205*%
%ADD116R,0.10400X0.16800*%
%ADD117R,0.16800X0.10400*%
%ADD118C,0.06000*%
G04:AMPARAMS|DCode=119|XSize=26mil|YSize=28mil|CornerRadius=6.4mil|HoleSize=0mil|Usage=FLASHONLY|Rotation=180.000|XOffset=0mil|YOffset=0mil|HoleType=Round|Shape=RoundedRectangle|*
%AMROUNDEDRECTD119*
21,1,0.02600,0.01520,0,0,180.0*
21,1,0.01320,0.02800,0,0,180.0*
1,1,0.01280,-0.00660,0.00760*
1,1,0.01280,0.00660,0.00760*
1,1,0.01280,0.00660,-0.00760*
1,1,0.01280,-0.00660,-0.00760*
%
%ADD119ROUNDEDRECTD119*%
%ADD120R,0.02054X0.02054*%
G04:AMPARAMS|DCode=121|XSize=26mil|YSize=28mil|CornerRadius=6.4mil|HoleSize=0mil|Usage=FLASHONLY|Rotation=270.000|XOffset=0mil|YOffset=0mil|HoleType=Round|Shape=RoundedRectangle|*
%AMROUNDEDRECTD121*
21,1,0.02600,0.01520,0,0,270.0*
21,1,0.01320,0.02800,0,0,270.0*
1,1,0.01280,-0.00760,-0.00660*
1,1,0.01280,-0.00760,0.00660*
1,1,0.01280,0.00760,0.00660*
1,1,0.01280,0.00760,-0.00660*
%
%ADD121ROUNDEDRECTD121*%
%ADD122R,0.03550X0.02762*%
%ADD123O,0.01975X0.05124*%
G04:AMPARAMS|DCode=124|XSize=33.13mil|YSize=43.37mil|CornerRadius=7.83mil|HoleSize=0mil|Usage=FLASHONLY|Rotation=0.000|XOffset=0mil|YOffset=0mil|HoleType=Round|Shape=RoundedRectangle|*
%AMROUNDEDRECTD124*
21,1,0.03313,0.02772,0,0,0.0*
21,1,0.01748,0.04337,0,0,0.0*
1,1,0.01565,0.00874,-0.01386*
1,1,0.01565,-0.00874,-0.01386*
1,1,0.01565,-0.00874,0.01386*
1,1,0.01565,0.00874,0.01386*
%
%ADD124ROUNDEDRECTD124*%
%ADD125R,0.01581X0.01975*%
%ADD126R,0.03943X0.06699*%
%ADD127R,0.02368X0.01384*%
%ADD128R,0.02565X0.02368*%
%ADD129R,0.02368X0.02565*%
%ADD130R,0.03550X0.05321*%
G04:AMPARAMS|DCode=131|XSize=33.13mil|YSize=43.37mil|CornerRadius=7.83mil|HoleSize=0mil|Usage=FLASHONLY|Rotation=90.000|XOffset=0mil|YOffset=0mil|HoleType=Round|Shape=RoundedRectangle|*
%AMROUNDEDRECTD131*
21,1,0.03313,0.02772,0,0,90.0*
21,1,0.01748,0.04337,0,0,90.0*
1,1,0.01565,0.01386,0.00874*
1,1,0.01565,0.01386,-0.00874*
1,1,0.01565,-0.01386,-0.00874*
1,1,0.01565,-0.01386,0.00874*
%
%ADD131ROUNDEDRECTD131*%
%ADD132R,0.05912X0.02762*%
%ADD133R,0.07487X0.02762*%
%ADD134R,0.08471X0.08471*%
%ADD135O,0.03550X0.01502*%
%ADD136O,0.01502X0.03550*%
%ADD137R,0.06400X0.02800*%
%ADD138R,0.01975X0.01581*%
%ADD139R,0.02054X0.02054*%
%ADD140R,0.05200X0.05200*%
%ADD141R,0.05200X0.05200*%
%ADD142R,0.02762X0.03550*%
%ADD143R,0.08300X0.08300*%
%ADD144R,0.08300X0.08300*%
%ADD145R,0.04731X0.07093*%
%ADD146R,0.02565X0.04337*%
%ADD147R,0.04928X0.13589*%
%ADD148R,0.03353X0.04140*%
%ADD149R,0.07093X0.04731*%
%ADD150R,0.01187X0.02959*%
%ADD151R,0.01187X0.02762*%
%ADD152R,0.08471X0.08471*%
%ADD153R,0.10243X0.15951*%
G04:AMPARAMS|DCode=154|XSize=80mil|YSize=80mil|CornerRadius=40mil|HoleSize=0mil|Usage=FLASHONLY|Rotation=180.000|XOffset=0mil|YOffset=0mil|HoleType=Round|Shape=RoundedRectangle|*
%AMROUNDEDRECTD154*
21,1,0.08000,0.00000,0,0,180.0*
21,1,0.00000,0.08000,0,0,180.0*
1,1,0.08000,0.00000,0.00000*
1,1,0.08000,0.00000,0.00000*
1,1,0.08000,0.00000,0.00000*
1,1,0.08000,0.00000,0.00000*
%
%ADD154ROUNDEDRECTD154*%
%ADD155R,0.03300X0.04300*%
%ADD156O,0.05124X0.01384*%
%ADD157O,0.01384X0.05124*%
%ADD158R,0.20479X0.20479*%
%ADD159R,0.04337X0.03156*%
%ADD160R,0.05124X0.04534*%
%ADD161R,0.05124X0.04928*%
%ADD162R,0.05124X0.06109*%
%ADD163R,0.03131X0.04337*%
%ADD164R,0.03943X0.05912*%
%ADD165O,0.02762X0.06306*%
%ADD166R,0.03353X0.11424*%
%ADD167R,0.02598X0.02126*%
%ADD168R,0.02451X0.06063*%
%ADD169O,0.07487X0.01381*%
%ADD170O,0.01381X0.07487*%
%ADD171R,0.05124X0.03943*%
%ADD172O,0.09455X0.02762*%
G04:AMPARAMS|DCode=173|XSize=80mil|YSize=80mil|CornerRadius=40mil|HoleSize=0mil|Usage=FLASHONLY|Rotation=270.000|XOffset=0mil|YOffset=0mil|HoleType=Round|Shape=RoundedRectangle|*
%AMROUNDEDRECTD173*
21,1,0.08000,0.00000,0,0,270.0*
21,1,0.00000,0.08000,0,0,270.0*
1,1,0.08000,0.00000,0.00000*
1,1,0.08000,0.00000,0.00000*
1,1,0.08000,0.00000,0.00000*
1,1,0.08000,0.00000,0.00000*
%
%ADD173ROUNDEDRECTD173*%
%ADD174R,0.03747X0.02762*%
%ADD175R,0.02800X0.02800*%
%ADD176R,0.04337X0.03943*%
%ADD177R,0.03943X0.01975*%
%ADD178R,0.01680X0.01463*%
%ADD179R,0.08400X0.08400*%
%ADD180R,0.03550X0.02565*%
%ADD181O,0.06109X0.02565*%
%ADD182R,0.03865X0.03038*%
%ADD183R,0.11030X0.04140*%
%ADD184R,0.05400X0.08700*%
%ADD185R,0.16542X0.14179*%
%ADD186R,0.05321X0.02565*%
%ADD187R,0.09849X0.12605*%
%ADD188R,0.13786X0.05912*%
%ADD189R,0.03200X0.06000*%
%ADD190R,0.06000X0.03200*%
%ADD191R,0.04140X0.11030*%
%ADD192R,0.03038X0.03865*%
%ADD193R,0.02800X0.02800*%
%ADD194C,0.08400*%
%ADD195O,0.13998X0.14000*%
%ADD196R,0.13998X0.14000*%
%ADD197O,0.06400X0.12400*%
%ADD198O,0.12400X0.06400*%
%ADD199R,0.06306X0.06306*%
%ADD200C,0.06306*%
%ADD201R,0.06306X0.06306*%
G04:AMPARAMS|DCode=202|XSize=137mil|YSize=87mil|CornerRadius=0mil|HoleSize=0mil|Usage=FLASHONLY|Rotation=180.000|XOffset=0mil|YOffset=0mil|HoleType=Round|Shape=Octagon|*
%AMOCTAGOND202*
4,1,8,-0.06850,0.02175,-0.06850,-0.02175,-0.04675,-0.04350,0.04675,-0.04350,0.06850,-0.02175,0.06850,0.02175,0.04675,0.04350,-0.04675,0.04350,-0.06850,0.02175,0.0*
%
%ADD202OCTAGOND202*%

%ADD203C,0.10400*%
%ADD204P,0.08010X8X292.5*%
%ADD205C,0.13450*%
%ADD206C,0.06200*%
G04:AMPARAMS|DCode=207|XSize=137mil|YSize=87mil|CornerRadius=0mil|HoleSize=0mil|Usage=FLASHONLY|Rotation=90.000|XOffset=0mil|YOffset=0mil|HoleType=Round|Shape=Octagon|*
%AMOCTAGOND207*
4,1,8,0.02175,0.06850,-0.02175,0.06850,-0.04350,0.04675,-0.04350,-0.04675,-0.02175,-0.06850,0.02175,-0.06850,0.04350,-0.04675,0.04350,0.04675,0.02175,0.06850,0.0*
%
%ADD207OCTAGOND207*%

%ADD208C,0.01000*%
%ADD209C,0.03000*%
G36*
X657121Y422043D02*
X653085D01*
Y423027D01*
X639699D01*
Y439562D01*
X653085D01*
Y440547D01*
X657121D01*
Y422043D01*
D02*
G37*
G36*
X47633Y380188D02*
X42928D01*
X42929Y380188D01*
X42928D01*
Y385979D01*
X47633D01*
Y380188D01*
D02*
G37*
G36*
X537605Y385813D02*
X537643Y385802D01*
X537678Y385783D01*
X537708Y385758D01*
X540267Y383199D01*
X540292Y383168D01*
X540311Y383134D01*
X540322Y383096D01*
X540326Y383057D01*
Y380695D01*
X540322Y380655D01*
X540311Y380618D01*
X540292Y380583D01*
X540267Y380552D01*
X537708Y377993D01*
X537678Y377968D01*
X537643Y377950D01*
X537605Y377938D01*
X537566Y377935D01*
X530086D01*
X530047Y377938D01*
X530009Y377950D01*
X529974Y377968D01*
X529944Y377993D01*
X527365Y380572D01*
X527365Y380572D01*
X527354Y380586D01*
X527340Y380603D01*
X527328Y380625D01*
X527321Y380637D01*
X527310Y380675D01*
X527306Y380714D01*
X527306Y380714D01*
Y383037D01*
X527310Y383076D01*
X527321Y383114D01*
X527340Y383149D01*
X527365Y383179D01*
X529944Y385758D01*
X529944Y385758D01*
X529960Y385772D01*
X529974Y385783D01*
X530009Y385802D01*
X530047Y385813D01*
X530086Y385817D01*
X537566D01*
X537605Y385813D01*
D02*
G37*
G36*
X223953Y375083D02*
X153069Y375083D01*
X153069Y383056D01*
X223934D01*
X223953Y375083D01*
D02*
G37*
G36*
X515630Y329012D02*
X516614D01*
Y324976D01*
X498110D01*
Y329012D01*
X499094D01*
Y342397D01*
X515630D01*
Y329012D01*
D02*
G37*
G36*
X601979Y328612D02*
X602963D01*
Y324577D01*
X584459D01*
Y328612D01*
X585443D01*
Y341998D01*
X601979D01*
Y328612D01*
D02*
G37*
G36*
X557979Y328612D02*
X558964D01*
Y324576D01*
X540460D01*
Y328612D01*
X541444D01*
Y341998D01*
X557979D01*
Y328612D01*
D02*
G37*
G36*
X234083Y302682D02*
X232153D01*
X225913Y302667D01*
X225913Y373548D01*
X234083Y373548D01*
Y302682D01*
D02*
G37*
G36*
X151012Y302079D02*
X142842Y302079D01*
Y372944D01*
X151012Y372963D01*
X151012Y302079D01*
D02*
G37*
G36*
X223931Y300083D02*
X223931Y292013D01*
X153066D01*
X153047Y300083D01*
X223931Y300083D01*
D02*
G37*
G36*
X257033Y142814D02*
X257071Y142803D01*
X257106Y142784D01*
X257136Y142759D01*
X257161Y142729D01*
X257180Y142694D01*
X257191Y142656D01*
X257195Y142617D01*
Y137105D01*
X257191Y137066D01*
X257180Y137028D01*
X257161Y136994D01*
X257136Y136963D01*
X257106Y136938D01*
X257071Y136920D01*
X257033Y136908D01*
X256994Y136904D01*
X255246D01*
Y133763D01*
X256994D01*
X257033Y133759D01*
X257071Y133748D01*
X257106Y133729D01*
X257136Y133704D01*
X257161Y133674D01*
X257180Y133639D01*
X257191Y133601D01*
X257195Y133562D01*
Y128050D01*
X257191Y128011D01*
X257180Y127973D01*
X257161Y127939D01*
X257136Y127908D01*
X257106Y127883D01*
X257071Y127865D01*
X257033Y127853D01*
X256994Y127849D01*
X255246D01*
Y123483D01*
X255242Y123444D01*
X255231Y123406D01*
X255212Y123372D01*
X255187Y123341D01*
X255157Y123316D01*
X255122Y123298D01*
X255084Y123286D01*
X255045Y123282D01*
X252093D01*
X252053Y123286D01*
X252016Y123298D01*
X251981Y123316D01*
X251950Y123341D01*
X251925Y123372D01*
X251907Y123406D01*
X251895Y123444D01*
X251891Y123483D01*
Y125487D01*
X250226D01*
Y123483D01*
X250223Y123444D01*
X250211Y123406D01*
X250193Y123372D01*
X250168Y123341D01*
X250137Y123316D01*
X250102Y123298D01*
X250065Y123286D01*
X250026Y123282D01*
X246856D01*
X246817Y123286D01*
X246779Y123298D01*
X246745Y123316D01*
X246714Y123341D01*
X246689Y123372D01*
X246671Y123406D01*
X246659Y123444D01*
X246655Y123483D01*
Y142617D01*
X246659Y142656D01*
X246671Y142694D01*
X246689Y142729D01*
X246714Y142759D01*
X246745Y142784D01*
X246779Y142803D01*
X246817Y142814D01*
X246856Y142818D01*
X256994D01*
X257033Y142814D01*
D02*
G37*
G36*
X245321D02*
X245358Y142803D01*
X245393Y142784D01*
X245424Y142759D01*
X245449Y142729D01*
X245467Y142694D01*
X245479Y142656D01*
X245482Y142617D01*
Y123483D01*
X245479Y123444D01*
X245467Y123406D01*
X245449Y123372D01*
X245424Y123341D01*
X245393Y123316D01*
X245358Y123298D01*
X245321Y123286D01*
X245282Y123282D01*
X242112D01*
X242073Y123286D01*
X242035Y123298D01*
X242001Y123316D01*
X241970Y123341D01*
X241945Y123372D01*
X241927Y123406D01*
X241915Y123444D01*
X241911Y123483D01*
Y125487D01*
X240246D01*
Y123483D01*
X240242Y123444D01*
X240231Y123406D01*
X240212Y123372D01*
X240187Y123341D01*
X240157Y123316D01*
X240122Y123298D01*
X240085Y123286D01*
X240045Y123282D01*
X237092D01*
X237053Y123286D01*
X237016Y123298D01*
X236981Y123316D01*
X236950Y123341D01*
X236925Y123372D01*
X236907Y123406D01*
X236895Y123444D01*
X236892Y123483D01*
Y127849D01*
X235144D01*
X235104Y127853D01*
X235067Y127865D01*
X235032Y127883D01*
X235002Y127908D01*
X234977Y127939D01*
X234958Y127973D01*
X234947Y128011D01*
X234943Y128050D01*
Y133562D01*
X234947Y133601D01*
X234958Y133639D01*
X234977Y133674D01*
X235002Y133704D01*
X235032Y133729D01*
X235067Y133748D01*
X235104Y133759D01*
X235144Y133763D01*
X236892D01*
Y136904D01*
X235144D01*
X235104Y136908D01*
X235067Y136920D01*
X235032Y136938D01*
X235002Y136963D01*
X234977Y136994D01*
X234958Y137028D01*
X234947Y137066D01*
X234943Y137105D01*
Y142617D01*
X234947Y142656D01*
X234958Y142694D01*
X234977Y142729D01*
X235002Y142759D01*
X235032Y142784D01*
X235067Y142803D01*
X235104Y142814D01*
X235144Y142818D01*
X245282D01*
X245321Y142814D01*
D02*
G37*
G36*
X219784D02*
X219822Y142803D01*
X219857Y142784D01*
X219887Y142759D01*
X219912Y142729D01*
X219931Y142694D01*
X219942Y142656D01*
X219946Y142617D01*
Y137105D01*
X219942Y137066D01*
X219931Y137028D01*
X219912Y136994D01*
X219887Y136963D01*
X219857Y136938D01*
X219822Y136920D01*
X219784Y136908D01*
X219745Y136904D01*
X217997D01*
Y133763D01*
X219745D01*
X219784Y133759D01*
X219822Y133748D01*
X219857Y133729D01*
X219887Y133704D01*
X219912Y133674D01*
X219931Y133639D01*
X219942Y133601D01*
X219946Y133562D01*
Y128050D01*
X219942Y128011D01*
X219931Y127973D01*
X219912Y127939D01*
X219887Y127908D01*
X219857Y127883D01*
X219822Y127865D01*
X219784Y127853D01*
X219745Y127849D01*
X217997D01*
Y123483D01*
X217994Y123444D01*
X217982Y123406D01*
X217964Y123372D01*
X217939Y123341D01*
X217908Y123316D01*
X217873Y123298D01*
X217836Y123286D01*
X217796Y123282D01*
X214844D01*
X214805Y123286D01*
X214767Y123298D01*
X214732Y123316D01*
X214702Y123341D01*
X214677Y123372D01*
X214658Y123406D01*
X214647Y123444D01*
X214643Y123483D01*
Y125487D01*
X212978D01*
Y123483D01*
X212974Y123444D01*
X212962Y123406D01*
X212944Y123372D01*
X212919Y123341D01*
X212888Y123316D01*
X212854Y123298D01*
X212816Y123286D01*
X212777Y123282D01*
X209608D01*
X209568Y123286D01*
X209531Y123298D01*
X209496Y123316D01*
X209465Y123341D01*
X209440Y123372D01*
X209422Y123406D01*
X209410Y123444D01*
X209406Y123483D01*
Y142617D01*
X209410Y142656D01*
X209422Y142694D01*
X209440Y142729D01*
X209465Y142759D01*
X209496Y142784D01*
X209531Y142803D01*
X209568Y142814D01*
X209608Y142818D01*
X219745D01*
X219784Y142814D01*
D02*
G37*
G36*
X208072D02*
X208110Y142803D01*
X208144Y142784D01*
X208175Y142759D01*
X208200Y142729D01*
X208218Y142694D01*
X208230Y142656D01*
X208234Y142617D01*
Y123483D01*
X208230Y123444D01*
X208218Y123406D01*
X208200Y123372D01*
X208175Y123341D01*
X208144Y123316D01*
X208110Y123298D01*
X208072Y123286D01*
X208033Y123282D01*
X204863D01*
X204824Y123286D01*
X204786Y123298D01*
X204752Y123316D01*
X204721Y123341D01*
X204696Y123372D01*
X204678Y123406D01*
X204666Y123444D01*
X204662Y123483D01*
Y125487D01*
X202997D01*
Y123483D01*
X202994Y123444D01*
X202982Y123406D01*
X202964Y123372D01*
X202939Y123341D01*
X202908Y123316D01*
X202873Y123298D01*
X202836Y123286D01*
X202797Y123282D01*
X199844D01*
X199804Y123286D01*
X199767Y123298D01*
X199732Y123316D01*
X199702Y123341D01*
X199677Y123372D01*
X199658Y123406D01*
X199647Y123444D01*
X199643Y123483D01*
Y127849D01*
X197895D01*
X197856Y127853D01*
X197818Y127865D01*
X197783Y127883D01*
X197753Y127908D01*
X197728Y127939D01*
X197709Y127973D01*
X197698Y128011D01*
X197694Y128050D01*
Y133562D01*
X197698Y133601D01*
X197709Y133639D01*
X197728Y133674D01*
X197753Y133704D01*
X197783Y133729D01*
X197818Y133748D01*
X197856Y133759D01*
X197895Y133763D01*
X199643D01*
Y136904D01*
X197895D01*
X197856Y136908D01*
X197818Y136920D01*
X197783Y136938D01*
X197753Y136963D01*
X197728Y136994D01*
X197709Y137028D01*
X197698Y137066D01*
X197694Y137105D01*
Y142617D01*
X197698Y142656D01*
X197709Y142694D01*
X197728Y142729D01*
X197753Y142759D01*
X197783Y142784D01*
X197818Y142803D01*
X197856Y142814D01*
X197895Y142818D01*
X208033D01*
X208072Y142814D01*
D02*
G37*
G36*
X665272Y142718D02*
X665309Y142707D01*
X665344Y142688D01*
X665374Y142663D01*
X665399Y142633D01*
X665418Y142598D01*
X665429Y142560D01*
X665433Y142521D01*
Y137009D01*
X665429Y136970D01*
X665418Y136933D01*
X665399Y136898D01*
X665374Y136867D01*
X665344Y136842D01*
X665309Y136824D01*
X665272Y136812D01*
X665232Y136808D01*
X663484D01*
Y133667D01*
X665232D01*
X665272Y133663D01*
X665309Y133652D01*
X665344Y133633D01*
X665374Y133608D01*
X665399Y133578D01*
X665418Y133543D01*
X665429Y133505D01*
X665433Y133466D01*
Y127954D01*
X665429Y127915D01*
X665418Y127877D01*
X665399Y127843D01*
X665374Y127812D01*
X665344Y127787D01*
X665309Y127769D01*
X665272Y127757D01*
X665232Y127753D01*
X663484D01*
Y123387D01*
X663481Y123348D01*
X663469Y123310D01*
X663451Y123276D01*
X663426Y123245D01*
X663395Y123220D01*
X663360Y123202D01*
X663323Y123190D01*
X663283Y123186D01*
X660331D01*
X660291Y123190D01*
X660254Y123202D01*
X660219Y123220D01*
X660189Y123245D01*
X660164Y123276D01*
X660145Y123310D01*
X660134Y123348D01*
X660130Y123387D01*
Y125391D01*
X658465D01*
Y123387D01*
X658461Y123348D01*
X658449Y123310D01*
X658431Y123276D01*
X658406Y123245D01*
X658375Y123220D01*
X658341Y123202D01*
X658303Y123190D01*
X658264Y123186D01*
X655094D01*
X655055Y123190D01*
X655018Y123202D01*
X654983Y123220D01*
X654952Y123245D01*
X654927Y123276D01*
X654909Y123310D01*
X654897Y123348D01*
X654893Y123387D01*
Y142521D01*
X654897Y142560D01*
X654909Y142598D01*
X654927Y142633D01*
X654952Y142663D01*
X654983Y142688D01*
X655018Y142707D01*
X655055Y142718D01*
X655094Y142722D01*
X665232D01*
X665272Y142718D01*
D02*
G37*
G36*
X653559D02*
X653597Y142707D01*
X653631Y142688D01*
X653662Y142663D01*
X653687Y142633D01*
X653705Y142598D01*
X653717Y142560D01*
X653721Y142521D01*
Y123387D01*
X653717Y123348D01*
X653705Y123310D01*
X653687Y123276D01*
X653662Y123245D01*
X653631Y123220D01*
X653597Y123202D01*
X653559Y123190D01*
X653520Y123186D01*
X650350D01*
X650311Y123190D01*
X650274Y123202D01*
X650239Y123220D01*
X650208Y123245D01*
X650183Y123276D01*
X650165Y123310D01*
X650153Y123348D01*
X650149Y123387D01*
Y125391D01*
X648484D01*
Y123387D01*
X648481Y123348D01*
X648469Y123310D01*
X648451Y123276D01*
X648426Y123245D01*
X648395Y123220D01*
X648360Y123202D01*
X648323Y123190D01*
X648283Y123186D01*
X645331D01*
X645292Y123190D01*
X645254Y123202D01*
X645219Y123220D01*
X645189Y123245D01*
X645164Y123276D01*
X645145Y123310D01*
X645134Y123348D01*
X645130Y123387D01*
Y127753D01*
X643382D01*
X643343Y127757D01*
X643305Y127769D01*
X643270Y127787D01*
X643240Y127812D01*
X643215Y127843D01*
X643196Y127877D01*
X643185Y127915D01*
X643181Y127954D01*
Y133466D01*
X643185Y133505D01*
X643196Y133543D01*
X643215Y133578D01*
X643240Y133608D01*
X643270Y133633D01*
X643305Y133652D01*
X643343Y133663D01*
X643382Y133667D01*
X645130D01*
Y136808D01*
X643382D01*
X643343Y136812D01*
X643305Y136824D01*
X643270Y136842D01*
X643240Y136867D01*
X643215Y136898D01*
X643196Y136933D01*
X643185Y136970D01*
X643181Y137009D01*
Y142521D01*
X643185Y142560D01*
X643196Y142598D01*
X643215Y142633D01*
X643240Y142663D01*
X643270Y142688D01*
X643305Y142707D01*
X643343Y142718D01*
X643382Y142722D01*
X653520D01*
X653559Y142718D01*
D02*
G37*
G36*
X628023D02*
X628060Y142707D01*
X628095Y142688D01*
X628126Y142663D01*
X628151Y142633D01*
X628169Y142598D01*
X628181Y142560D01*
X628185Y142521D01*
Y137009D01*
X628181Y136970D01*
X628169Y136933D01*
X628151Y136898D01*
X628126Y136867D01*
X628095Y136842D01*
X628060Y136824D01*
X628023Y136812D01*
X627984Y136808D01*
X626236D01*
Y133667D01*
X627984D01*
X628023Y133663D01*
X628060Y133652D01*
X628095Y133633D01*
X628126Y133608D01*
X628151Y133578D01*
X628169Y133543D01*
X628181Y133505D01*
X628185Y133466D01*
Y127954D01*
X628181Y127915D01*
X628169Y127877D01*
X628151Y127843D01*
X628126Y127812D01*
X628095Y127787D01*
X628060Y127769D01*
X628023Y127757D01*
X627984Y127753D01*
X626236D01*
Y123387D01*
X626232Y123348D01*
X626220Y123310D01*
X626202Y123276D01*
X626177Y123245D01*
X626146Y123220D01*
X626112Y123202D01*
X626074Y123190D01*
X626035Y123186D01*
X623082D01*
X623043Y123190D01*
X623005Y123202D01*
X622970Y123220D01*
X622940Y123245D01*
X622915Y123276D01*
X622896Y123310D01*
X622885Y123348D01*
X622881Y123387D01*
Y125391D01*
X621216D01*
Y123387D01*
X621212Y123348D01*
X621201Y123310D01*
X621182Y123276D01*
X621157Y123245D01*
X621127Y123220D01*
X621092Y123202D01*
X621054Y123190D01*
X621015Y123186D01*
X617846D01*
X617806Y123190D01*
X617769Y123202D01*
X617734Y123220D01*
X617704Y123245D01*
X617679Y123276D01*
X617660Y123310D01*
X617649Y123348D01*
X617645Y123387D01*
Y142521D01*
X617649Y142560D01*
X617660Y142598D01*
X617679Y142633D01*
X617704Y142663D01*
X617734Y142688D01*
X617769Y142707D01*
X617806Y142718D01*
X617846Y142722D01*
X627984D01*
X628023Y142718D01*
D02*
G37*
G36*
X616310D02*
X616348Y142707D01*
X616383Y142688D01*
X616413Y142663D01*
X616438Y142633D01*
X616457Y142598D01*
X616468Y142560D01*
X616472Y142521D01*
Y123387D01*
X616468Y123348D01*
X616457Y123310D01*
X616438Y123276D01*
X616413Y123245D01*
X616383Y123220D01*
X616348Y123202D01*
X616310Y123190D01*
X616271Y123186D01*
X613102D01*
X613062Y123190D01*
X613025Y123202D01*
X612990Y123220D01*
X612959Y123245D01*
X612934Y123276D01*
X612916Y123310D01*
X612905Y123348D01*
X612901Y123387D01*
Y125391D01*
X611236D01*
Y123387D01*
X611232Y123348D01*
X611220Y123310D01*
X611202Y123276D01*
X611177Y123245D01*
X611146Y123220D01*
X611112Y123202D01*
X611074Y123190D01*
X611035Y123186D01*
X608082D01*
X608043Y123190D01*
X608005Y123202D01*
X607970Y123220D01*
X607940Y123245D01*
X607915Y123276D01*
X607896Y123310D01*
X607885Y123348D01*
X607881Y123387D01*
Y127753D01*
X606133D01*
X606094Y127757D01*
X606056Y127769D01*
X606021Y127787D01*
X605991Y127812D01*
X605966Y127843D01*
X605947Y127877D01*
X605936Y127915D01*
X605932Y127954D01*
Y133466D01*
X605936Y133505D01*
X605947Y133543D01*
X605966Y133578D01*
X605991Y133608D01*
X606021Y133633D01*
X606056Y133652D01*
X606094Y133663D01*
X606133Y133667D01*
X607881D01*
Y136808D01*
X606133D01*
X606094Y136812D01*
X606056Y136824D01*
X606021Y136842D01*
X605991Y136867D01*
X605966Y136898D01*
X605947Y136933D01*
X605936Y136970D01*
X605932Y137009D01*
Y142521D01*
X605936Y142560D01*
X605947Y142598D01*
X605966Y142633D01*
X605991Y142663D01*
X606021Y142688D01*
X606056Y142707D01*
X606094Y142718D01*
X606133Y142722D01*
X616271D01*
X616310Y142718D01*
D02*
G37*
G36*
X583972D02*
X584009Y142707D01*
X584044Y142688D01*
X584074Y142663D01*
X584099Y142633D01*
X584118Y142598D01*
X584129Y142560D01*
X584133Y142521D01*
Y137009D01*
X584129Y136970D01*
X584118Y136933D01*
X584099Y136898D01*
X584074Y136867D01*
X584044Y136842D01*
X584009Y136824D01*
X583972Y136812D01*
X583932Y136808D01*
X582184D01*
Y133667D01*
X583932D01*
X583972Y133663D01*
X584009Y133652D01*
X584044Y133633D01*
X584074Y133608D01*
X584099Y133578D01*
X584118Y133543D01*
X584129Y133505D01*
X584133Y133466D01*
Y127954D01*
X584129Y127915D01*
X584118Y127877D01*
X584099Y127843D01*
X584074Y127812D01*
X584044Y127787D01*
X584009Y127769D01*
X583972Y127757D01*
X583932Y127753D01*
X582184D01*
Y123387D01*
X582181Y123348D01*
X582169Y123310D01*
X582151Y123276D01*
X582126Y123245D01*
X582095Y123220D01*
X582060Y123202D01*
X582023Y123190D01*
X581984Y123186D01*
X579031D01*
X578992Y123190D01*
X578954Y123202D01*
X578919Y123220D01*
X578889Y123245D01*
X578864Y123276D01*
X578845Y123310D01*
X578834Y123348D01*
X578830Y123387D01*
Y125391D01*
X577165D01*
Y123387D01*
X577161Y123348D01*
X577149Y123310D01*
X577131Y123276D01*
X577106Y123245D01*
X577075Y123220D01*
X577041Y123202D01*
X577003Y123190D01*
X576964Y123186D01*
X573795D01*
X573755Y123190D01*
X573718Y123202D01*
X573683Y123220D01*
X573652Y123245D01*
X573627Y123276D01*
X573609Y123310D01*
X573597Y123348D01*
X573594Y123387D01*
Y142521D01*
X573597Y142560D01*
X573609Y142598D01*
X573627Y142633D01*
X573652Y142663D01*
X573683Y142688D01*
X573718Y142707D01*
X573755Y142718D01*
X573795Y142722D01*
X583932D01*
X583972Y142718D01*
D02*
G37*
G36*
X572259D02*
X572297Y142707D01*
X572331Y142688D01*
X572362Y142663D01*
X572387Y142633D01*
X572405Y142598D01*
X572417Y142560D01*
X572421Y142521D01*
Y123387D01*
X572417Y123348D01*
X572405Y123310D01*
X572387Y123276D01*
X572362Y123245D01*
X572331Y123220D01*
X572297Y123202D01*
X572259Y123190D01*
X572220Y123186D01*
X569050D01*
X569011Y123190D01*
X568973Y123202D01*
X568939Y123220D01*
X568908Y123245D01*
X568883Y123276D01*
X568865Y123310D01*
X568853Y123348D01*
X568849Y123387D01*
Y125391D01*
X567184D01*
Y123387D01*
X567181Y123348D01*
X567169Y123310D01*
X567151Y123276D01*
X567126Y123245D01*
X567095Y123220D01*
X567060Y123202D01*
X567023Y123190D01*
X566984Y123186D01*
X564031D01*
X563991Y123190D01*
X563954Y123202D01*
X563919Y123220D01*
X563889Y123245D01*
X563864Y123276D01*
X563845Y123310D01*
X563834Y123348D01*
X563830Y123387D01*
Y127753D01*
X562082D01*
X562043Y127757D01*
X562005Y127769D01*
X561970Y127787D01*
X561940Y127812D01*
X561915Y127843D01*
X561896Y127877D01*
X561885Y127915D01*
X561881Y127954D01*
Y133466D01*
X561885Y133505D01*
X561896Y133543D01*
X561915Y133578D01*
X561940Y133608D01*
X561970Y133633D01*
X562005Y133652D01*
X562043Y133663D01*
X562082Y133667D01*
X563830D01*
Y136808D01*
X562082D01*
X562043Y136812D01*
X562005Y136824D01*
X561970Y136842D01*
X561940Y136867D01*
X561915Y136898D01*
X561896Y136933D01*
X561885Y136970D01*
X561881Y137009D01*
Y142521D01*
X561885Y142560D01*
X561896Y142598D01*
X561915Y142633D01*
X561940Y142663D01*
X561970Y142688D01*
X562005Y142707D01*
X562043Y142718D01*
X562082Y142722D01*
X572220D01*
X572259Y142718D01*
D02*
G37*
G36*
X546723D02*
X546760Y142707D01*
X546795Y142688D01*
X546826Y142663D01*
X546851Y142633D01*
X546869Y142598D01*
X546881Y142560D01*
X546884Y142521D01*
Y137009D01*
X546881Y136970D01*
X546869Y136933D01*
X546851Y136898D01*
X546826Y136867D01*
X546795Y136842D01*
X546760Y136824D01*
X546723Y136812D01*
X546684Y136808D01*
X544936D01*
Y133667D01*
X546684D01*
X546723Y133663D01*
X546760Y133652D01*
X546795Y133633D01*
X546826Y133608D01*
X546851Y133578D01*
X546869Y133543D01*
X546881Y133505D01*
X546884Y133466D01*
Y127954D01*
X546881Y127915D01*
X546869Y127877D01*
X546851Y127843D01*
X546826Y127812D01*
X546795Y127787D01*
X546760Y127769D01*
X546723Y127757D01*
X546684Y127753D01*
X544936D01*
Y123387D01*
X544932Y123348D01*
X544920Y123310D01*
X544902Y123276D01*
X544877Y123245D01*
X544846Y123220D01*
X544812Y123202D01*
X544774Y123190D01*
X544735Y123186D01*
X541782D01*
X541743Y123190D01*
X541705Y123202D01*
X541670Y123220D01*
X541640Y123245D01*
X541615Y123276D01*
X541596Y123310D01*
X541585Y123348D01*
X541581Y123387D01*
Y125391D01*
X539916D01*
Y123387D01*
X539912Y123348D01*
X539901Y123310D01*
X539882Y123276D01*
X539857Y123245D01*
X539827Y123220D01*
X539792Y123202D01*
X539754Y123190D01*
X539715Y123186D01*
X536546D01*
X536507Y123190D01*
X536469Y123202D01*
X536434Y123220D01*
X536404Y123245D01*
X536379Y123276D01*
X536360Y123310D01*
X536349Y123348D01*
X536345Y123387D01*
Y142521D01*
X536349Y142560D01*
X536360Y142598D01*
X536379Y142633D01*
X536404Y142663D01*
X536434Y142688D01*
X536469Y142707D01*
X536507Y142718D01*
X536546Y142722D01*
X546684D01*
X546723Y142718D01*
D02*
G37*
G36*
X535010D02*
X535048Y142707D01*
X535082Y142688D01*
X535113Y142663D01*
X535138Y142633D01*
X535157Y142598D01*
X535168Y142560D01*
X535172Y142521D01*
Y123387D01*
X535168Y123348D01*
X535157Y123310D01*
X535138Y123276D01*
X535113Y123245D01*
X535082Y123220D01*
X535048Y123202D01*
X535010Y123190D01*
X534971Y123186D01*
X531802D01*
X531762Y123190D01*
X531725Y123202D01*
X531690Y123220D01*
X531660Y123245D01*
X531635Y123276D01*
X531616Y123310D01*
X531604Y123348D01*
X531601Y123387D01*
Y125391D01*
X529936D01*
Y123387D01*
X529932Y123348D01*
X529920Y123310D01*
X529902Y123276D01*
X529877Y123245D01*
X529846Y123220D01*
X529812Y123202D01*
X529774Y123190D01*
X529735Y123186D01*
X526782D01*
X526743Y123190D01*
X526705Y123202D01*
X526670Y123220D01*
X526640Y123245D01*
X526615Y123276D01*
X526596Y123310D01*
X526585Y123348D01*
X526581Y123387D01*
Y127753D01*
X524833D01*
X524794Y127757D01*
X524756Y127769D01*
X524721Y127787D01*
X524691Y127812D01*
X524666Y127843D01*
X524647Y127877D01*
X524636Y127915D01*
X524632Y127954D01*
Y133466D01*
X524636Y133505D01*
X524647Y133543D01*
X524666Y133578D01*
X524691Y133608D01*
X524721Y133633D01*
X524756Y133652D01*
X524794Y133663D01*
X524833Y133667D01*
X526581D01*
Y136808D01*
X524833D01*
X524794Y136812D01*
X524756Y136824D01*
X524721Y136842D01*
X524691Y136867D01*
X524666Y136898D01*
X524647Y136933D01*
X524636Y136970D01*
X524632Y137009D01*
Y142521D01*
X524636Y142560D01*
X524647Y142598D01*
X524666Y142633D01*
X524691Y142663D01*
X524721Y142688D01*
X524756Y142707D01*
X524794Y142718D01*
X524833Y142722D01*
X534971D01*
X535010Y142718D01*
D02*
G37*
G36*
X502671D02*
X502709Y142707D01*
X502744Y142688D01*
X502774Y142663D01*
X502799Y142633D01*
X502818Y142598D01*
X502829Y142560D01*
X502833Y142521D01*
Y137009D01*
X502829Y136970D01*
X502818Y136933D01*
X502799Y136898D01*
X502774Y136867D01*
X502744Y136842D01*
X502709Y136824D01*
X502671Y136812D01*
X502632Y136808D01*
X500884D01*
Y133667D01*
X502632D01*
X502671Y133663D01*
X502709Y133652D01*
X502744Y133633D01*
X502774Y133608D01*
X502799Y133578D01*
X502818Y133543D01*
X502829Y133505D01*
X502833Y133466D01*
Y127954D01*
X502829Y127915D01*
X502818Y127877D01*
X502799Y127843D01*
X502774Y127812D01*
X502744Y127787D01*
X502709Y127769D01*
X502671Y127757D01*
X502632Y127753D01*
X500884D01*
Y123387D01*
X500881Y123348D01*
X500869Y123310D01*
X500851Y123276D01*
X500826Y123245D01*
X500795Y123220D01*
X500760Y123202D01*
X500723Y123190D01*
X500683Y123186D01*
X497731D01*
X497691Y123190D01*
X497654Y123202D01*
X497619Y123220D01*
X497589Y123245D01*
X497564Y123276D01*
X497545Y123310D01*
X497534Y123348D01*
X497530Y123387D01*
Y125391D01*
X495865D01*
Y123387D01*
X495861Y123348D01*
X495849Y123310D01*
X495831Y123276D01*
X495806Y123245D01*
X495775Y123220D01*
X495741Y123202D01*
X495703Y123190D01*
X495664Y123186D01*
X492494D01*
X492455Y123190D01*
X492418Y123202D01*
X492383Y123220D01*
X492352Y123245D01*
X492327Y123276D01*
X492309Y123310D01*
X492297Y123348D01*
X492294Y123387D01*
Y142521D01*
X492297Y142560D01*
X492309Y142598D01*
X492327Y142633D01*
X492352Y142663D01*
X492383Y142688D01*
X492418Y142707D01*
X492455Y142718D01*
X492494Y142722D01*
X502632D01*
X502671Y142718D01*
D02*
G37*
G36*
X490959D02*
X490997Y142707D01*
X491031Y142688D01*
X491062Y142663D01*
X491087Y142633D01*
X491105Y142598D01*
X491117Y142560D01*
X491121Y142521D01*
Y123387D01*
X491117Y123348D01*
X491105Y123310D01*
X491087Y123276D01*
X491062Y123245D01*
X491031Y123220D01*
X490997Y123202D01*
X490959Y123190D01*
X490920Y123186D01*
X487750D01*
X487711Y123190D01*
X487674Y123202D01*
X487639Y123220D01*
X487608Y123245D01*
X487583Y123276D01*
X487565Y123310D01*
X487553Y123348D01*
X487549Y123387D01*
Y125391D01*
X485884D01*
Y123387D01*
X485881Y123348D01*
X485869Y123310D01*
X485851Y123276D01*
X485826Y123245D01*
X485795Y123220D01*
X485760Y123202D01*
X485723Y123190D01*
X485683Y123186D01*
X482731D01*
X482691Y123190D01*
X482654Y123202D01*
X482619Y123220D01*
X482589Y123245D01*
X482564Y123276D01*
X482545Y123310D01*
X482534Y123348D01*
X482530Y123387D01*
Y127753D01*
X480782D01*
X480743Y127757D01*
X480705Y127769D01*
X480670Y127787D01*
X480640Y127812D01*
X480615Y127843D01*
X480596Y127877D01*
X480585Y127915D01*
X480581Y127954D01*
Y133466D01*
X480585Y133505D01*
X480596Y133543D01*
X480615Y133578D01*
X480640Y133608D01*
X480670Y133633D01*
X480705Y133652D01*
X480743Y133663D01*
X480782Y133667D01*
X482530D01*
Y136808D01*
X480782D01*
X480743Y136812D01*
X480705Y136824D01*
X480670Y136842D01*
X480640Y136867D01*
X480615Y136898D01*
X480596Y136933D01*
X480585Y136970D01*
X480581Y137009D01*
Y142521D01*
X480585Y142560D01*
X480596Y142598D01*
X480615Y142633D01*
X480640Y142663D01*
X480670Y142688D01*
X480705Y142707D01*
X480743Y142718D01*
X480782Y142722D01*
X490920D01*
X490959Y142718D01*
D02*
G37*
G36*
X465423D02*
X465460Y142707D01*
X465495Y142688D01*
X465526Y142663D01*
X465551Y142633D01*
X465569Y142598D01*
X465581Y142560D01*
X465585Y142521D01*
Y137009D01*
X465581Y136970D01*
X465569Y136933D01*
X465551Y136898D01*
X465526Y136867D01*
X465495Y136842D01*
X465460Y136824D01*
X465423Y136812D01*
X465383Y136808D01*
X463636D01*
Y133667D01*
X465383D01*
X465423Y133663D01*
X465460Y133652D01*
X465495Y133633D01*
X465526Y133608D01*
X465551Y133578D01*
X465569Y133543D01*
X465581Y133505D01*
X465585Y133466D01*
Y127954D01*
X465581Y127915D01*
X465569Y127877D01*
X465551Y127843D01*
X465526Y127812D01*
X465495Y127787D01*
X465460Y127769D01*
X465423Y127757D01*
X465383Y127753D01*
X463636D01*
Y123387D01*
X463632Y123348D01*
X463620Y123310D01*
X463602Y123276D01*
X463577Y123245D01*
X463546Y123220D01*
X463512Y123202D01*
X463474Y123190D01*
X463435Y123186D01*
X460482D01*
X460443Y123190D01*
X460405Y123202D01*
X460370Y123220D01*
X460340Y123245D01*
X460315Y123276D01*
X460296Y123310D01*
X460285Y123348D01*
X460281Y123387D01*
Y125391D01*
X458616D01*
Y123387D01*
X458612Y123348D01*
X458601Y123310D01*
X458582Y123276D01*
X458557Y123245D01*
X458527Y123220D01*
X458492Y123202D01*
X458454Y123190D01*
X458415Y123186D01*
X455246D01*
X455206Y123190D01*
X455169Y123202D01*
X455134Y123220D01*
X455104Y123245D01*
X455079Y123276D01*
X455060Y123310D01*
X455049Y123348D01*
X455045Y123387D01*
Y142521D01*
X455049Y142560D01*
X455060Y142598D01*
X455079Y142633D01*
X455104Y142663D01*
X455134Y142688D01*
X455169Y142707D01*
X455206Y142718D01*
X455246Y142722D01*
X465383D01*
X465423Y142718D01*
D02*
G37*
G36*
X453710D02*
X453748Y142707D01*
X453783Y142688D01*
X453813Y142663D01*
X453838Y142633D01*
X453857Y142598D01*
X453868Y142560D01*
X453872Y142521D01*
Y123387D01*
X453868Y123348D01*
X453857Y123310D01*
X453838Y123276D01*
X453813Y123245D01*
X453783Y123220D01*
X453748Y123202D01*
X453710Y123190D01*
X453671Y123186D01*
X450502D01*
X450462Y123190D01*
X450425Y123202D01*
X450390Y123220D01*
X450359Y123245D01*
X450335Y123276D01*
X450316Y123310D01*
X450305Y123348D01*
X450301Y123387D01*
Y125391D01*
X448636D01*
Y123387D01*
X448632Y123348D01*
X448620Y123310D01*
X448602Y123276D01*
X448577Y123245D01*
X448546Y123220D01*
X448512Y123202D01*
X448474Y123190D01*
X448435Y123186D01*
X445482D01*
X445443Y123190D01*
X445405Y123202D01*
X445370Y123220D01*
X445340Y123245D01*
X445315Y123276D01*
X445296Y123310D01*
X445285Y123348D01*
X445281Y123387D01*
Y127753D01*
X443533D01*
X443494Y127757D01*
X443456Y127769D01*
X443421Y127787D01*
X443391Y127812D01*
X443366Y127843D01*
X443347Y127877D01*
X443336Y127915D01*
X443332Y127954D01*
Y133466D01*
X443336Y133505D01*
X443347Y133543D01*
X443366Y133578D01*
X443391Y133608D01*
X443421Y133633D01*
X443456Y133652D01*
X443494Y133663D01*
X443533Y133667D01*
X445281D01*
Y136808D01*
X443533D01*
X443494Y136812D01*
X443456Y136824D01*
X443421Y136842D01*
X443391Y136867D01*
X443366Y136898D01*
X443347Y136933D01*
X443336Y136970D01*
X443332Y137009D01*
Y142521D01*
X443336Y142560D01*
X443347Y142598D01*
X443366Y142633D01*
X443391Y142663D01*
X443421Y142688D01*
X443456Y142707D01*
X443494Y142718D01*
X443533Y142722D01*
X453671D01*
X453710Y142718D01*
D02*
G37*
G36*
X339089D02*
X339126Y142707D01*
X339161Y142688D01*
X339192Y142663D01*
X339217Y142633D01*
X339235Y142598D01*
X339247Y142560D01*
X339251Y142521D01*
Y137009D01*
X339247Y136970D01*
X339235Y136933D01*
X339217Y136898D01*
X339192Y136867D01*
X339161Y136842D01*
X339126Y136824D01*
X339089Y136812D01*
X339050Y136808D01*
X337302D01*
Y133667D01*
X339050D01*
X339089Y133663D01*
X339126Y133652D01*
X339161Y133633D01*
X339192Y133608D01*
X339217Y133578D01*
X339235Y133543D01*
X339247Y133505D01*
X339251Y133466D01*
Y127954D01*
X339247Y127915D01*
X339235Y127877D01*
X339217Y127843D01*
X339192Y127812D01*
X339161Y127787D01*
X339126Y127769D01*
X339089Y127757D01*
X339050Y127753D01*
X337302D01*
Y123387D01*
X337298Y123348D01*
X337286Y123310D01*
X337268Y123276D01*
X337243Y123245D01*
X337212Y123220D01*
X337178Y123202D01*
X337140Y123190D01*
X337101Y123186D01*
X334148D01*
X334109Y123190D01*
X334071Y123202D01*
X334036Y123220D01*
X334006Y123245D01*
X333981Y123276D01*
X333962Y123310D01*
X333951Y123348D01*
X333947Y123387D01*
Y125391D01*
X332282D01*
Y123387D01*
X332278Y123348D01*
X332267Y123310D01*
X332248Y123276D01*
X332223Y123245D01*
X332193Y123220D01*
X332158Y123202D01*
X332120Y123190D01*
X332081Y123186D01*
X328912D01*
X328873Y123190D01*
X328835Y123202D01*
X328800Y123220D01*
X328770Y123245D01*
X328745Y123276D01*
X328726Y123310D01*
X328715Y123348D01*
X328711Y123387D01*
Y142521D01*
X328715Y142560D01*
X328726Y142598D01*
X328745Y142633D01*
X328770Y142663D01*
X328800Y142688D01*
X328835Y142707D01*
X328873Y142718D01*
X328912Y142722D01*
X339050D01*
X339089Y142718D01*
D02*
G37*
G36*
X327376D02*
X327414Y142707D01*
X327449Y142688D01*
X327479Y142663D01*
X327504Y142633D01*
X327523Y142598D01*
X327534Y142560D01*
X327538Y142521D01*
Y123387D01*
X327534Y123348D01*
X327523Y123310D01*
X327504Y123276D01*
X327479Y123245D01*
X327449Y123220D01*
X327414Y123202D01*
X327376Y123190D01*
X327337Y123186D01*
X324168D01*
X324129Y123190D01*
X324091Y123202D01*
X324056Y123220D01*
X324026Y123245D01*
X324001Y123276D01*
X323982Y123310D01*
X323971Y123348D01*
X323967Y123387D01*
Y125391D01*
X322302D01*
Y123387D01*
X322298Y123348D01*
X322287Y123310D01*
X322268Y123276D01*
X322243Y123245D01*
X322212Y123220D01*
X322178Y123202D01*
X322140Y123190D01*
X322101Y123186D01*
X319148D01*
X319109Y123190D01*
X319071Y123202D01*
X319036Y123220D01*
X319006Y123245D01*
X318981Y123276D01*
X318962Y123310D01*
X318951Y123348D01*
X318947Y123387D01*
Y127753D01*
X317199D01*
X317160Y127757D01*
X317122Y127769D01*
X317088Y127787D01*
X317057Y127812D01*
X317032Y127843D01*
X317014Y127877D01*
X317002Y127915D01*
X316998Y127954D01*
Y133466D01*
X317002Y133505D01*
X317014Y133543D01*
X317032Y133578D01*
X317057Y133608D01*
X317088Y133633D01*
X317122Y133652D01*
X317160Y133663D01*
X317199Y133667D01*
X318947D01*
Y136808D01*
X317199D01*
X317160Y136812D01*
X317122Y136824D01*
X317088Y136842D01*
X317057Y136867D01*
X317032Y136898D01*
X317014Y136933D01*
X317002Y136970D01*
X316998Y137009D01*
Y142521D01*
X317002Y142560D01*
X317014Y142598D01*
X317032Y142633D01*
X317057Y142663D01*
X317088Y142688D01*
X317122Y142707D01*
X317160Y142718D01*
X317199Y142722D01*
X327337D01*
X327376Y142718D01*
D02*
G37*
G36*
X301840D02*
X301878Y142707D01*
X301912Y142688D01*
X301943Y142663D01*
X301968Y142633D01*
X301987Y142598D01*
X301998Y142560D01*
X302002Y142521D01*
Y137009D01*
X301998Y136970D01*
X301987Y136933D01*
X301968Y136898D01*
X301943Y136867D01*
X301912Y136842D01*
X301878Y136824D01*
X301840Y136812D01*
X301801Y136808D01*
X300053D01*
Y133667D01*
X301801D01*
X301840Y133663D01*
X301878Y133652D01*
X301912Y133633D01*
X301943Y133608D01*
X301968Y133578D01*
X301987Y133543D01*
X301998Y133505D01*
X302002Y133466D01*
Y127954D01*
X301998Y127915D01*
X301987Y127877D01*
X301968Y127843D01*
X301943Y127812D01*
X301912Y127787D01*
X301878Y127769D01*
X301840Y127757D01*
X301801Y127753D01*
X300053D01*
Y123387D01*
X300049Y123348D01*
X300038Y123310D01*
X300019Y123276D01*
X299994Y123245D01*
X299964Y123220D01*
X299929Y123202D01*
X299891Y123190D01*
X299852Y123186D01*
X296899D01*
X296860Y123190D01*
X296822Y123202D01*
X296788Y123220D01*
X296757Y123245D01*
X296732Y123276D01*
X296714Y123310D01*
X296702Y123348D01*
X296698Y123387D01*
Y125391D01*
X295033D01*
Y123387D01*
X295029Y123348D01*
X295018Y123310D01*
X294999Y123276D01*
X294974Y123245D01*
X294944Y123220D01*
X294909Y123202D01*
X294871Y123190D01*
X294832Y123186D01*
X291663D01*
X291624Y123190D01*
X291586Y123202D01*
X291551Y123220D01*
X291521Y123245D01*
X291496Y123276D01*
X291477Y123310D01*
X291466Y123348D01*
X291462Y123387D01*
Y142521D01*
X291466Y142560D01*
X291477Y142598D01*
X291496Y142633D01*
X291521Y142663D01*
X291551Y142688D01*
X291586Y142707D01*
X291624Y142718D01*
X291663Y142722D01*
X301801D01*
X301840Y142718D01*
D02*
G37*
G36*
X290127D02*
X290165Y142707D01*
X290200Y142688D01*
X290230Y142663D01*
X290255Y142633D01*
X290274Y142598D01*
X290285Y142560D01*
X290289Y142521D01*
Y123387D01*
X290285Y123348D01*
X290274Y123310D01*
X290255Y123276D01*
X290230Y123245D01*
X290200Y123220D01*
X290165Y123202D01*
X290127Y123190D01*
X290088Y123186D01*
X286919D01*
X286880Y123190D01*
X286842Y123202D01*
X286807Y123220D01*
X286777Y123245D01*
X286752Y123276D01*
X286733Y123310D01*
X286722Y123348D01*
X286718Y123387D01*
Y125391D01*
X285053D01*
Y123387D01*
X285049Y123348D01*
X285038Y123310D01*
X285019Y123276D01*
X284994Y123245D01*
X284964Y123220D01*
X284929Y123202D01*
X284891Y123190D01*
X284852Y123186D01*
X281899D01*
X281860Y123190D01*
X281822Y123202D01*
X281788Y123220D01*
X281757Y123245D01*
X281732Y123276D01*
X281714Y123310D01*
X281702Y123348D01*
X281698Y123387D01*
Y127753D01*
X279950D01*
X279911Y127757D01*
X279873Y127769D01*
X279839Y127787D01*
X279808Y127812D01*
X279783Y127843D01*
X279765Y127877D01*
X279753Y127915D01*
X279749Y127954D01*
Y133466D01*
X279753Y133505D01*
X279765Y133543D01*
X279783Y133578D01*
X279808Y133608D01*
X279839Y133633D01*
X279873Y133652D01*
X279911Y133663D01*
X279950Y133667D01*
X281698D01*
Y136808D01*
X279950D01*
X279911Y136812D01*
X279873Y136824D01*
X279839Y136842D01*
X279808Y136867D01*
X279783Y136898D01*
X279765Y136933D01*
X279753Y136970D01*
X279749Y137009D01*
Y142521D01*
X279753Y142560D01*
X279765Y142598D01*
X279783Y142633D01*
X279808Y142663D01*
X279839Y142688D01*
X279873Y142707D01*
X279911Y142718D01*
X279950Y142722D01*
X290088D01*
X290127Y142718D01*
D02*
G37*
G36*
X175506D02*
X175544Y142707D01*
X175579Y142688D01*
X175609Y142663D01*
X175634Y142633D01*
X175653Y142598D01*
X175664Y142560D01*
X175668Y142521D01*
Y137009D01*
X175664Y136970D01*
X175653Y136933D01*
X175634Y136898D01*
X175609Y136867D01*
X175579Y136842D01*
X175544Y136824D01*
X175506Y136812D01*
X175467Y136808D01*
X173719D01*
Y133667D01*
X175467D01*
X175506Y133663D01*
X175544Y133652D01*
X175579Y133633D01*
X175609Y133608D01*
X175634Y133578D01*
X175653Y133543D01*
X175664Y133505D01*
X175668Y133466D01*
Y127954D01*
X175664Y127915D01*
X175653Y127877D01*
X175634Y127843D01*
X175609Y127812D01*
X175579Y127787D01*
X175544Y127769D01*
X175506Y127757D01*
X175467Y127753D01*
X173719D01*
Y123387D01*
X173715Y123348D01*
X173704Y123310D01*
X173685Y123276D01*
X173660Y123245D01*
X173630Y123220D01*
X173595Y123202D01*
X173557Y123190D01*
X173518Y123186D01*
X170565D01*
X170526Y123190D01*
X170488Y123202D01*
X170454Y123220D01*
X170423Y123245D01*
X170398Y123276D01*
X170380Y123310D01*
X170368Y123348D01*
X170364Y123387D01*
Y125391D01*
X168699D01*
Y123387D01*
X168695Y123348D01*
X168684Y123310D01*
X168666Y123276D01*
X168640Y123245D01*
X168610Y123220D01*
X168575Y123202D01*
X168538Y123190D01*
X168498Y123186D01*
X165329D01*
X165290Y123190D01*
X165252Y123202D01*
X165217Y123220D01*
X165187Y123245D01*
X165162Y123276D01*
X165144Y123310D01*
X165132Y123348D01*
X165128Y123387D01*
Y142521D01*
X165132Y142560D01*
X165144Y142598D01*
X165162Y142633D01*
X165187Y142663D01*
X165217Y142688D01*
X165252Y142707D01*
X165290Y142718D01*
X165329Y142722D01*
X175467D01*
X175506Y142718D01*
D02*
G37*
G36*
X163794D02*
X163831Y142707D01*
X163866Y142688D01*
X163896Y142663D01*
X163921Y142633D01*
X163940Y142598D01*
X163951Y142560D01*
X163955Y142521D01*
Y123387D01*
X163951Y123348D01*
X163940Y123310D01*
X163921Y123276D01*
X163896Y123245D01*
X163866Y123220D01*
X163831Y123202D01*
X163794Y123190D01*
X163754Y123186D01*
X160585D01*
X160546Y123190D01*
X160508Y123202D01*
X160473Y123220D01*
X160443Y123245D01*
X160418Y123276D01*
X160399Y123310D01*
X160388Y123348D01*
X160384Y123387D01*
Y125391D01*
X158719D01*
Y123387D01*
X158715Y123348D01*
X158704Y123310D01*
X158685Y123276D01*
X158660Y123245D01*
X158630Y123220D01*
X158595Y123202D01*
X158557Y123190D01*
X158518Y123186D01*
X155565D01*
X155526Y123190D01*
X155488Y123202D01*
X155454Y123220D01*
X155423Y123245D01*
X155398Y123276D01*
X155380Y123310D01*
X155368Y123348D01*
X155364Y123387D01*
Y127753D01*
X153616D01*
X153577Y127757D01*
X153540Y127769D01*
X153505Y127787D01*
X153474Y127812D01*
X153449Y127843D01*
X153431Y127877D01*
X153419Y127915D01*
X153416Y127954D01*
Y133466D01*
X153419Y133505D01*
X153431Y133543D01*
X153449Y133578D01*
X153474Y133608D01*
X153505Y133633D01*
X153540Y133652D01*
X153577Y133663D01*
X153616Y133667D01*
X155364D01*
Y136808D01*
X153616D01*
X153577Y136812D01*
X153540Y136824D01*
X153505Y136842D01*
X153474Y136867D01*
X153449Y136898D01*
X153431Y136933D01*
X153419Y136970D01*
X153416Y137009D01*
Y142521D01*
X153419Y142560D01*
X153431Y142598D01*
X153449Y142633D01*
X153474Y142663D01*
X153505Y142688D01*
X153540Y142707D01*
X153577Y142718D01*
X153616Y142722D01*
X163754D01*
X163794Y142718D01*
D02*
G37*
G36*
X138257D02*
X138295Y142707D01*
X138330Y142688D01*
X138360Y142663D01*
X138385Y142633D01*
X138404Y142598D01*
X138415Y142560D01*
X138419Y142521D01*
Y137009D01*
X138415Y136970D01*
X138404Y136933D01*
X138385Y136898D01*
X138360Y136867D01*
X138330Y136842D01*
X138295Y136824D01*
X138257Y136812D01*
X138218Y136808D01*
X136470D01*
Y133667D01*
X138218D01*
X138257Y133663D01*
X138295Y133652D01*
X138330Y133633D01*
X138360Y133608D01*
X138385Y133578D01*
X138404Y133543D01*
X138415Y133505D01*
X138419Y133466D01*
Y127954D01*
X138415Y127915D01*
X138404Y127877D01*
X138385Y127843D01*
X138360Y127812D01*
X138330Y127787D01*
X138295Y127769D01*
X138257Y127757D01*
X138218Y127753D01*
X136470D01*
Y123387D01*
X136466Y123348D01*
X136455Y123310D01*
X136436Y123276D01*
X136411Y123245D01*
X136381Y123220D01*
X136346Y123202D01*
X136309Y123190D01*
X136269Y123186D01*
X133317D01*
X133277Y123190D01*
X133240Y123202D01*
X133205Y123220D01*
X133174Y123245D01*
X133150Y123276D01*
X133131Y123310D01*
X133119Y123348D01*
X133116Y123387D01*
Y125391D01*
X131451D01*
Y123387D01*
X131447Y123348D01*
X131435Y123310D01*
X131417Y123276D01*
X131392Y123245D01*
X131361Y123220D01*
X131326Y123202D01*
X131289Y123190D01*
X131250Y123186D01*
X128080D01*
X128041Y123190D01*
X128003Y123202D01*
X127969Y123220D01*
X127938Y123245D01*
X127913Y123276D01*
X127895Y123310D01*
X127883Y123348D01*
X127879Y123387D01*
Y142521D01*
X127883Y142560D01*
X127895Y142598D01*
X127913Y142633D01*
X127938Y142663D01*
X127969Y142688D01*
X128003Y142707D01*
X128041Y142718D01*
X128080Y142722D01*
X138218D01*
X138257Y142718D01*
D02*
G37*
G36*
X126545D02*
X126582Y142707D01*
X126617Y142688D01*
X126648Y142663D01*
X126673Y142633D01*
X126691Y142598D01*
X126703Y142560D01*
X126707Y142521D01*
Y123387D01*
X126703Y123348D01*
X126691Y123310D01*
X126673Y123276D01*
X126648Y123245D01*
X126617Y123220D01*
X126582Y123202D01*
X126545Y123190D01*
X126505Y123186D01*
X123336D01*
X123297Y123190D01*
X123259Y123202D01*
X123225Y123220D01*
X123194Y123245D01*
X123169Y123276D01*
X123151Y123310D01*
X123139Y123348D01*
X123135Y123387D01*
Y125391D01*
X121470D01*
Y123387D01*
X121466Y123348D01*
X121455Y123310D01*
X121436Y123276D01*
X121411Y123245D01*
X121381Y123220D01*
X121346Y123202D01*
X121309Y123190D01*
X121269Y123186D01*
X118317D01*
X118277Y123190D01*
X118240Y123202D01*
X118205Y123220D01*
X118174Y123245D01*
X118149Y123276D01*
X118131Y123310D01*
X118119Y123348D01*
X118116Y123387D01*
Y127753D01*
X116368D01*
X116329Y127757D01*
X116291Y127769D01*
X116256Y127787D01*
X116226Y127812D01*
X116201Y127843D01*
X116182Y127877D01*
X116171Y127915D01*
X116167Y127954D01*
Y133466D01*
X116171Y133505D01*
X116182Y133543D01*
X116201Y133578D01*
X116226Y133608D01*
X116256Y133633D01*
X116291Y133652D01*
X116329Y133663D01*
X116368Y133667D01*
X118116D01*
Y136808D01*
X116368D01*
X116329Y136812D01*
X116291Y136824D01*
X116256Y136842D01*
X116226Y136867D01*
X116201Y136898D01*
X116182Y136933D01*
X116171Y136970D01*
X116167Y137009D01*
Y142521D01*
X116171Y142560D01*
X116182Y142598D01*
X116201Y142633D01*
X116226Y142663D01*
X116256Y142688D01*
X116291Y142707D01*
X116329Y142718D01*
X116368Y142722D01*
X126505D01*
X126545Y142718D01*
D02*
G37*
G36*
X93715D02*
X93752Y142707D01*
X93787Y142688D01*
X93818Y142663D01*
X93843Y142633D01*
X93861Y142598D01*
X93873Y142560D01*
X93877Y142521D01*
Y137009D01*
X93873Y136970D01*
X93861Y136933D01*
X93843Y136898D01*
X93818Y136867D01*
X93787Y136842D01*
X93752Y136824D01*
X93715Y136812D01*
X93676Y136808D01*
X91928D01*
Y133667D01*
X93676D01*
X93715Y133663D01*
X93752Y133652D01*
X93787Y133633D01*
X93818Y133608D01*
X93843Y133578D01*
X93861Y133543D01*
X93873Y133505D01*
X93877Y133466D01*
Y127954D01*
X93873Y127915D01*
X93861Y127877D01*
X93843Y127843D01*
X93818Y127812D01*
X93787Y127787D01*
X93752Y127769D01*
X93715Y127757D01*
X93676Y127753D01*
X91928D01*
Y123387D01*
X91924Y123348D01*
X91912Y123310D01*
X91894Y123276D01*
X91869Y123245D01*
X91838Y123220D01*
X91804Y123202D01*
X91766Y123190D01*
X91727Y123186D01*
X88774D01*
X88735Y123190D01*
X88697Y123202D01*
X88662Y123220D01*
X88632Y123245D01*
X88607Y123276D01*
X88588Y123310D01*
X88577Y123348D01*
X88573Y123387D01*
Y125391D01*
X86908D01*
Y123387D01*
X86904Y123348D01*
X86893Y123310D01*
X86874Y123276D01*
X86849Y123245D01*
X86819Y123220D01*
X86784Y123202D01*
X86746Y123190D01*
X86707Y123186D01*
X83538D01*
X83499Y123190D01*
X83461Y123202D01*
X83426Y123220D01*
X83396Y123245D01*
X83371Y123276D01*
X83352Y123310D01*
X83341Y123348D01*
X83337Y123387D01*
Y142521D01*
X83341Y142560D01*
X83352Y142598D01*
X83371Y142633D01*
X83396Y142663D01*
X83426Y142688D01*
X83461Y142707D01*
X83499Y142718D01*
X83538Y142722D01*
X93676D01*
X93715Y142718D01*
D02*
G37*
G36*
X82002D02*
X82040Y142707D01*
X82075Y142688D01*
X82105Y142663D01*
X82130Y142633D01*
X82149Y142598D01*
X82160Y142560D01*
X82164Y142521D01*
Y123387D01*
X82160Y123348D01*
X82149Y123310D01*
X82130Y123276D01*
X82105Y123245D01*
X82075Y123220D01*
X82040Y123202D01*
X82002Y123190D01*
X81963Y123186D01*
X78794D01*
X78755Y123190D01*
X78717Y123202D01*
X78682Y123220D01*
X78652Y123245D01*
X78627Y123276D01*
X78608Y123310D01*
X78597Y123348D01*
X78593Y123387D01*
Y125391D01*
X76928D01*
Y123387D01*
X76924Y123348D01*
X76912Y123310D01*
X76894Y123276D01*
X76869Y123245D01*
X76838Y123220D01*
X76804Y123202D01*
X76766Y123190D01*
X76727Y123186D01*
X73774D01*
X73735Y123190D01*
X73697Y123202D01*
X73662Y123220D01*
X73632Y123245D01*
X73607Y123276D01*
X73588Y123310D01*
X73577Y123348D01*
X73573Y123387D01*
Y127753D01*
X71825D01*
X71786Y127757D01*
X71748Y127769D01*
X71714Y127787D01*
X71683Y127812D01*
X71658Y127843D01*
X71640Y127877D01*
X71628Y127915D01*
X71624Y127954D01*
Y133466D01*
X71628Y133505D01*
X71640Y133543D01*
X71658Y133578D01*
X71683Y133608D01*
X71714Y133633D01*
X71748Y133652D01*
X71786Y133663D01*
X71825Y133667D01*
X73573D01*
Y136808D01*
X71825D01*
X71786Y136812D01*
X71748Y136824D01*
X71714Y136842D01*
X71683Y136867D01*
X71658Y136898D01*
X71640Y136933D01*
X71628Y136970D01*
X71624Y137009D01*
Y142521D01*
X71628Y142560D01*
X71640Y142598D01*
X71658Y142633D01*
X71683Y142663D01*
X71714Y142688D01*
X71748Y142707D01*
X71786Y142718D01*
X71825Y142722D01*
X81963D01*
X82002Y142718D01*
D02*
G37*
G36*
X56466D02*
X56504Y142707D01*
X56538Y142688D01*
X56569Y142663D01*
X56594Y142633D01*
X56612Y142598D01*
X56624Y142560D01*
X56628Y142521D01*
Y137009D01*
X56624Y136970D01*
X56612Y136933D01*
X56594Y136898D01*
X56569Y136867D01*
X56538Y136842D01*
X56504Y136824D01*
X56466Y136812D01*
X56427Y136808D01*
X54679D01*
Y133667D01*
X56427D01*
X56466Y133663D01*
X56504Y133652D01*
X56538Y133633D01*
X56569Y133608D01*
X56594Y133578D01*
X56612Y133543D01*
X56624Y133505D01*
X56628Y133466D01*
Y127954D01*
X56624Y127915D01*
X56612Y127877D01*
X56594Y127843D01*
X56569Y127812D01*
X56538Y127787D01*
X56504Y127769D01*
X56466Y127757D01*
X56427Y127753D01*
X54679D01*
Y123387D01*
X54675Y123348D01*
X54664Y123310D01*
X54645Y123276D01*
X54620Y123245D01*
X54590Y123220D01*
X54555Y123202D01*
X54517Y123190D01*
X54478Y123186D01*
X51525D01*
X51486Y123190D01*
X51448Y123202D01*
X51414Y123220D01*
X51383Y123245D01*
X51358Y123276D01*
X51340Y123310D01*
X51328Y123348D01*
X51324Y123387D01*
Y125391D01*
X49659D01*
Y123387D01*
X49655Y123348D01*
X49644Y123310D01*
X49625Y123276D01*
X49600Y123245D01*
X49570Y123220D01*
X49535Y123202D01*
X49498Y123190D01*
X49458Y123186D01*
X46289D01*
X46250Y123190D01*
X46212Y123202D01*
X46177Y123220D01*
X46147Y123245D01*
X46122Y123276D01*
X46103Y123310D01*
X46092Y123348D01*
X46088Y123387D01*
Y142521D01*
X46092Y142560D01*
X46103Y142598D01*
X46122Y142633D01*
X46147Y142663D01*
X46177Y142688D01*
X46212Y142707D01*
X46250Y142718D01*
X46289Y142722D01*
X56427D01*
X56466Y142718D01*
D02*
G37*
G36*
X44753D02*
X44791Y142707D01*
X44826Y142688D01*
X44856Y142663D01*
X44881Y142633D01*
X44900Y142598D01*
X44911Y142560D01*
X44915Y142521D01*
Y123387D01*
X44911Y123348D01*
X44900Y123310D01*
X44881Y123276D01*
X44856Y123245D01*
X44826Y123220D01*
X44791Y123202D01*
X44753Y123190D01*
X44714Y123186D01*
X41545D01*
X41506Y123190D01*
X41468Y123202D01*
X41433Y123220D01*
X41403Y123245D01*
X41378Y123276D01*
X41359Y123310D01*
X41348Y123348D01*
X41344Y123387D01*
Y125391D01*
X39679D01*
Y123387D01*
X39675Y123348D01*
X39664Y123310D01*
X39645Y123276D01*
X39620Y123245D01*
X39590Y123220D01*
X39555Y123202D01*
X39517Y123190D01*
X39478Y123186D01*
X36525D01*
X36486Y123190D01*
X36448Y123202D01*
X36414Y123220D01*
X36383Y123245D01*
X36358Y123276D01*
X36340Y123310D01*
X36328Y123348D01*
X36324Y123387D01*
Y127753D01*
X34576D01*
X34537Y127757D01*
X34499Y127769D01*
X34465Y127787D01*
X34434Y127812D01*
X34409Y127843D01*
X34391Y127877D01*
X34379Y127915D01*
X34375Y127954D01*
Y133466D01*
X34379Y133505D01*
X34391Y133543D01*
X34409Y133578D01*
X34434Y133608D01*
X34465Y133633D01*
X34499Y133652D01*
X34537Y133663D01*
X34576Y133667D01*
X36324D01*
Y136808D01*
X34576D01*
X34537Y136812D01*
X34499Y136824D01*
X34465Y136842D01*
X34434Y136867D01*
X34409Y136898D01*
X34391Y136933D01*
X34379Y136970D01*
X34375Y137009D01*
Y142521D01*
X34379Y142560D01*
X34391Y142598D01*
X34409Y142633D01*
X34434Y142663D01*
X34465Y142688D01*
X34499Y142707D01*
X34537Y142718D01*
X34576Y142722D01*
X44714D01*
X44753Y142718D01*
D02*
G37*
G36*
X420616Y142421D02*
X420654Y142409D01*
X420688Y142391D01*
X420719Y142366D01*
X420744Y142335D01*
X420762Y142300D01*
X420774Y142263D01*
X420778Y142224D01*
Y136712D01*
X420774Y136672D01*
X420762Y136635D01*
X420744Y136600D01*
X420719Y136570D01*
X420688Y136545D01*
X420654Y136526D01*
X420616Y136515D01*
X420577Y136511D01*
X418829D01*
Y133369D01*
X420577D01*
X420616Y133365D01*
X420654Y133354D01*
X420688Y133335D01*
X420719Y133310D01*
X420744Y133280D01*
X420762Y133245D01*
X420774Y133208D01*
X420778Y133168D01*
Y127657D01*
X420774Y127617D01*
X420762Y127580D01*
X420744Y127545D01*
X420719Y127515D01*
X420688Y127489D01*
X420654Y127471D01*
X420616Y127460D01*
X420577Y127456D01*
X418829D01*
Y123090D01*
X418825Y123050D01*
X418814Y123013D01*
X418795Y122978D01*
X418770Y122948D01*
X418740Y122923D01*
X418705Y122904D01*
X418667Y122893D01*
X418628Y122889D01*
X415675D01*
X415636Y122893D01*
X415598Y122904D01*
X415563Y122923D01*
X415533Y122948D01*
X415508Y122978D01*
X415489Y123013D01*
X415478Y123050D01*
X415474Y123090D01*
Y125093D01*
X413809D01*
Y123090D01*
X413805Y123050D01*
X413794Y123013D01*
X413775Y122978D01*
X413750Y122948D01*
X413720Y122923D01*
X413685Y122904D01*
X413647Y122893D01*
X413608Y122889D01*
X410439D01*
X410400Y122893D01*
X410362Y122904D01*
X410327Y122923D01*
X410297Y122948D01*
X410272Y122978D01*
X410253Y123013D01*
X410242Y123050D01*
X410238Y123090D01*
Y142224D01*
X410242Y142263D01*
X410253Y142300D01*
X410272Y142335D01*
X410297Y142366D01*
X410327Y142391D01*
X410362Y142409D01*
X410400Y142421D01*
X410439Y142424D01*
X420577D01*
X420616Y142421D01*
D02*
G37*
G36*
X408903D02*
X408941Y142409D01*
X408976Y142391D01*
X409006Y142366D01*
X409031Y142335D01*
X409050Y142300D01*
X409061Y142263D01*
X409065Y142224D01*
Y123090D01*
X409061Y123050D01*
X409050Y123013D01*
X409031Y122978D01*
X409006Y122948D01*
X408976Y122923D01*
X408941Y122904D01*
X408903Y122893D01*
X408864Y122889D01*
X405695D01*
X405656Y122893D01*
X405618Y122904D01*
X405583Y122923D01*
X405553Y122948D01*
X405528Y122978D01*
X405509Y123013D01*
X405498Y123050D01*
X405494Y123090D01*
Y125093D01*
X403829D01*
Y123090D01*
X403825Y123050D01*
X403814Y123013D01*
X403795Y122978D01*
X403770Y122948D01*
X403740Y122923D01*
X403705Y122904D01*
X403667Y122893D01*
X403628Y122889D01*
X400675D01*
X400636Y122893D01*
X400598Y122904D01*
X400563Y122923D01*
X400533Y122948D01*
X400508Y122978D01*
X400490Y123013D01*
X400478Y123050D01*
X400474Y123090D01*
Y127456D01*
X398726D01*
X398687Y127460D01*
X398649Y127471D01*
X398615Y127489D01*
X398584Y127515D01*
X398559Y127545D01*
X398541Y127580D01*
X398529Y127617D01*
X398525Y127657D01*
Y133168D01*
X398529Y133208D01*
X398541Y133245D01*
X398559Y133280D01*
X398584Y133310D01*
X398615Y133335D01*
X398649Y133354D01*
X398687Y133365D01*
X398726Y133369D01*
X400474D01*
Y136511D01*
X398726D01*
X398687Y136515D01*
X398649Y136526D01*
X398615Y136545D01*
X398584Y136570D01*
X398559Y136600D01*
X398541Y136635D01*
X398529Y136672D01*
X398525Y136712D01*
Y142224D01*
X398529Y142263D01*
X398541Y142300D01*
X398559Y142335D01*
X398584Y142366D01*
X398615Y142391D01*
X398649Y142409D01*
X398687Y142421D01*
X398726Y142424D01*
X408864D01*
X408903Y142421D01*
D02*
G37*
G36*
X383367D02*
X383405Y142409D01*
X383440Y142391D01*
X383470Y142366D01*
X383495Y142335D01*
X383514Y142300D01*
X383525Y142263D01*
X383529Y142224D01*
Y136712D01*
X383525Y136672D01*
X383514Y136635D01*
X383495Y136600D01*
X383470Y136570D01*
X383440Y136545D01*
X383405Y136526D01*
X383367Y136515D01*
X383328Y136511D01*
X381580D01*
Y133369D01*
X383328D01*
X383367Y133365D01*
X383405Y133354D01*
X383440Y133335D01*
X383470Y133310D01*
X383495Y133280D01*
X383514Y133245D01*
X383525Y133208D01*
X383529Y133168D01*
Y127657D01*
X383525Y127617D01*
X383514Y127580D01*
X383495Y127545D01*
X383470Y127515D01*
X383440Y127489D01*
X383405Y127471D01*
X383367Y127460D01*
X383328Y127456D01*
X381580D01*
Y123090D01*
X381576Y123050D01*
X381565Y123013D01*
X381546Y122978D01*
X381521Y122948D01*
X381491Y122923D01*
X381456Y122904D01*
X381418Y122893D01*
X381379Y122889D01*
X378426D01*
X378387Y122893D01*
X378349Y122904D01*
X378315Y122923D01*
X378284Y122948D01*
X378259Y122978D01*
X378241Y123013D01*
X378229Y123050D01*
X378225Y123090D01*
Y125093D01*
X376560D01*
Y123090D01*
X376556Y123050D01*
X376545Y123013D01*
X376526Y122978D01*
X376501Y122948D01*
X376471Y122923D01*
X376436Y122904D01*
X376399Y122893D01*
X376359Y122889D01*
X373190D01*
X373151Y122893D01*
X373113Y122904D01*
X373078Y122923D01*
X373048Y122948D01*
X373023Y122978D01*
X373004Y123013D01*
X372993Y123050D01*
X372989Y123090D01*
Y142224D01*
X372993Y142263D01*
X373004Y142300D01*
X373023Y142335D01*
X373048Y142366D01*
X373078Y142391D01*
X373113Y142409D01*
X373151Y142421D01*
X373190Y142424D01*
X383328D01*
X383367Y142421D01*
D02*
G37*
G36*
X371655D02*
X371692Y142409D01*
X371727Y142391D01*
X371757Y142366D01*
X371782Y142335D01*
X371801Y142300D01*
X371812Y142263D01*
X371816Y142224D01*
Y123090D01*
X371812Y123050D01*
X371801Y123013D01*
X371782Y122978D01*
X371757Y122948D01*
X371727Y122923D01*
X371692Y122904D01*
X371655Y122893D01*
X371615Y122889D01*
X368446D01*
X368407Y122893D01*
X368369Y122904D01*
X368334Y122923D01*
X368304Y122948D01*
X368279Y122978D01*
X368260Y123013D01*
X368249Y123050D01*
X368245Y123090D01*
Y125093D01*
X366580D01*
Y123090D01*
X366576Y123050D01*
X366565Y123013D01*
X366546Y122978D01*
X366521Y122948D01*
X366491Y122923D01*
X366456Y122904D01*
X366418Y122893D01*
X366379Y122889D01*
X363426D01*
X363387Y122893D01*
X363349Y122904D01*
X363315Y122923D01*
X363284Y122948D01*
X363259Y122978D01*
X363241Y123013D01*
X363229Y123050D01*
X363225Y123090D01*
Y127456D01*
X361477D01*
X361438Y127460D01*
X361401Y127471D01*
X361366Y127489D01*
X361335Y127515D01*
X361310Y127545D01*
X361292Y127580D01*
X361280Y127617D01*
X361277Y127657D01*
Y133168D01*
X361280Y133208D01*
X361292Y133245D01*
X361310Y133280D01*
X361335Y133310D01*
X361366Y133335D01*
X361401Y133354D01*
X361438Y133365D01*
X361477Y133369D01*
X363225D01*
Y136511D01*
X361477D01*
X361438Y136515D01*
X361401Y136526D01*
X361366Y136545D01*
X361335Y136570D01*
X361310Y136600D01*
X361292Y136635D01*
X361280Y136672D01*
X361277Y136712D01*
Y142224D01*
X361280Y142263D01*
X361292Y142300D01*
X361310Y142335D01*
X361335Y142366D01*
X361366Y142391D01*
X361401Y142409D01*
X361438Y142421D01*
X361477Y142424D01*
X371615D01*
X371655Y142421D01*
D02*
G37*
G36*
X257033Y114862D02*
X257071Y114850D01*
X257106Y114831D01*
X257136Y114806D01*
X257161Y114776D01*
X257180Y114741D01*
X257191Y114704D01*
X257195Y114664D01*
Y109153D01*
X257191Y109113D01*
X257180Y109076D01*
X257161Y109041D01*
X257136Y109011D01*
X257106Y108985D01*
X257071Y108967D01*
X257033Y108956D01*
X256994Y108952D01*
X255246D01*
Y105810D01*
X256994D01*
X257033Y105806D01*
X257071Y105795D01*
X257106Y105776D01*
X257136Y105751D01*
X257161Y105721D01*
X257180Y105686D01*
X257191Y105649D01*
X257195Y105609D01*
Y100098D01*
X257191Y100058D01*
X257180Y100021D01*
X257161Y99986D01*
X257136Y99955D01*
X257106Y99930D01*
X257071Y99912D01*
X257033Y99900D01*
X256994Y99897D01*
X255246D01*
Y95530D01*
X255242Y95491D01*
X255231Y95454D01*
X255212Y95419D01*
X255187Y95388D01*
X255157Y95363D01*
X255122Y95345D01*
X255084Y95333D01*
X255045Y95330D01*
X252093D01*
X252053Y95333D01*
X252016Y95345D01*
X251981Y95363D01*
X251950Y95388D01*
X251925Y95419D01*
X251907Y95454D01*
X251895Y95491D01*
X251891Y95530D01*
Y97534D01*
X250226D01*
Y95530D01*
X250223Y95491D01*
X250211Y95454D01*
X250193Y95419D01*
X250168Y95388D01*
X250137Y95363D01*
X250102Y95345D01*
X250065Y95333D01*
X250026Y95330D01*
X246856D01*
X246817Y95333D01*
X246779Y95345D01*
X246745Y95363D01*
X246714Y95388D01*
X246689Y95419D01*
X246671Y95454D01*
X246659Y95491D01*
X246655Y95530D01*
Y114664D01*
X246659Y114704D01*
X246671Y114741D01*
X246689Y114776D01*
X246714Y114806D01*
X246745Y114831D01*
X246779Y114850D01*
X246817Y114862D01*
X246856Y114865D01*
X256994D01*
X257033Y114862D01*
D02*
G37*
G36*
X245321D02*
X245358Y114850D01*
X245393Y114831D01*
X245424Y114806D01*
X245449Y114776D01*
X245467Y114741D01*
X245479Y114704D01*
X245482Y114664D01*
Y95530D01*
X245479Y95491D01*
X245467Y95454D01*
X245449Y95419D01*
X245424Y95388D01*
X245393Y95363D01*
X245358Y95345D01*
X245321Y95333D01*
X245282Y95330D01*
X242112D01*
X242073Y95333D01*
X242035Y95345D01*
X242001Y95363D01*
X241970Y95388D01*
X241945Y95419D01*
X241927Y95454D01*
X241915Y95491D01*
X241911Y95530D01*
Y97534D01*
X240246D01*
Y95530D01*
X240242Y95491D01*
X240231Y95454D01*
X240212Y95419D01*
X240187Y95388D01*
X240157Y95363D01*
X240122Y95345D01*
X240085Y95333D01*
X240045Y95330D01*
X237092D01*
X237053Y95333D01*
X237016Y95345D01*
X236981Y95363D01*
X236950Y95388D01*
X236925Y95419D01*
X236907Y95454D01*
X236895Y95491D01*
X236892Y95530D01*
Y99897D01*
X235144D01*
X235104Y99900D01*
X235067Y99912D01*
X235032Y99930D01*
X235002Y99955D01*
X234977Y99986D01*
X234958Y100021D01*
X234947Y100058D01*
X234943Y100098D01*
Y105609D01*
X234947Y105649D01*
X234958Y105686D01*
X234977Y105721D01*
X235002Y105751D01*
X235032Y105776D01*
X235067Y105795D01*
X235104Y105806D01*
X235144Y105810D01*
X236892D01*
Y108952D01*
X235144D01*
X235104Y108956D01*
X235067Y108967D01*
X235032Y108985D01*
X235002Y109011D01*
X234977Y109041D01*
X234958Y109076D01*
X234947Y109113D01*
X234943Y109153D01*
Y114664D01*
X234947Y114704D01*
X234958Y114741D01*
X234977Y114776D01*
X235002Y114806D01*
X235032Y114831D01*
X235067Y114850D01*
X235104Y114862D01*
X235144Y114865D01*
X245282D01*
X245321Y114862D01*
D02*
G37*
G36*
X219784D02*
X219822Y114850D01*
X219857Y114831D01*
X219887Y114806D01*
X219912Y114776D01*
X219931Y114741D01*
X219942Y114704D01*
X219946Y114664D01*
Y109153D01*
X219942Y109113D01*
X219931Y109076D01*
X219912Y109041D01*
X219887Y109011D01*
X219857Y108985D01*
X219822Y108967D01*
X219784Y108956D01*
X219745Y108952D01*
X217997D01*
Y105810D01*
X219745D01*
X219784Y105806D01*
X219822Y105795D01*
X219857Y105776D01*
X219887Y105751D01*
X219912Y105721D01*
X219931Y105686D01*
X219942Y105649D01*
X219946Y105609D01*
Y100098D01*
X219942Y100058D01*
X219931Y100021D01*
X219912Y99986D01*
X219887Y99955D01*
X219857Y99930D01*
X219822Y99912D01*
X219784Y99900D01*
X219745Y99897D01*
X217997D01*
Y95530D01*
X217994Y95491D01*
X217982Y95454D01*
X217964Y95419D01*
X217939Y95388D01*
X217908Y95363D01*
X217873Y95345D01*
X217836Y95333D01*
X217796Y95330D01*
X214844D01*
X214805Y95333D01*
X214767Y95345D01*
X214732Y95363D01*
X214702Y95388D01*
X214677Y95419D01*
X214658Y95454D01*
X214647Y95491D01*
X214643Y95530D01*
Y97534D01*
X212978D01*
Y95530D01*
X212974Y95491D01*
X212962Y95454D01*
X212944Y95419D01*
X212919Y95388D01*
X212888Y95363D01*
X212854Y95345D01*
X212816Y95333D01*
X212777Y95330D01*
X209608D01*
X209568Y95333D01*
X209531Y95345D01*
X209496Y95363D01*
X209465Y95388D01*
X209440Y95419D01*
X209422Y95454D01*
X209410Y95491D01*
X209406Y95530D01*
Y114664D01*
X209410Y114704D01*
X209422Y114741D01*
X209440Y114776D01*
X209465Y114806D01*
X209496Y114831D01*
X209531Y114850D01*
X209568Y114862D01*
X209608Y114865D01*
X219745D01*
X219784Y114862D01*
D02*
G37*
G36*
X208072D02*
X208110Y114850D01*
X208144Y114831D01*
X208175Y114806D01*
X208200Y114776D01*
X208218Y114741D01*
X208230Y114704D01*
X208234Y114664D01*
Y95530D01*
X208230Y95491D01*
X208218Y95454D01*
X208200Y95419D01*
X208175Y95388D01*
X208144Y95363D01*
X208110Y95345D01*
X208072Y95333D01*
X208033Y95330D01*
X204863D01*
X204824Y95333D01*
X204786Y95345D01*
X204752Y95363D01*
X204721Y95388D01*
X204696Y95419D01*
X204678Y95454D01*
X204666Y95491D01*
X204662Y95530D01*
Y97534D01*
X202997D01*
Y95530D01*
X202994Y95491D01*
X202982Y95454D01*
X202964Y95419D01*
X202939Y95388D01*
X202908Y95363D01*
X202873Y95345D01*
X202836Y95333D01*
X202797Y95330D01*
X199844D01*
X199804Y95333D01*
X199767Y95345D01*
X199732Y95363D01*
X199702Y95388D01*
X199677Y95419D01*
X199658Y95454D01*
X199647Y95491D01*
X199643Y95530D01*
Y99897D01*
X197895D01*
X197856Y99900D01*
X197818Y99912D01*
X197783Y99930D01*
X197753Y99955D01*
X197728Y99986D01*
X197709Y100021D01*
X197698Y100058D01*
X197694Y100098D01*
Y105609D01*
X197698Y105649D01*
X197709Y105686D01*
X197728Y105721D01*
X197753Y105751D01*
X197783Y105776D01*
X197818Y105795D01*
X197856Y105806D01*
X197895Y105810D01*
X199643D01*
Y108952D01*
X197895D01*
X197856Y108956D01*
X197818Y108967D01*
X197783Y108985D01*
X197753Y109011D01*
X197728Y109041D01*
X197709Y109076D01*
X197698Y109113D01*
X197694Y109153D01*
Y114664D01*
X197698Y114704D01*
X197709Y114741D01*
X197728Y114776D01*
X197753Y114806D01*
X197783Y114831D01*
X197818Y114850D01*
X197856Y114862D01*
X197895Y114865D01*
X208033D01*
X208072Y114862D01*
D02*
G37*
G36*
X665272Y114766D02*
X665309Y114754D01*
X665344Y114736D01*
X665374Y114711D01*
X665399Y114680D01*
X665418Y114645D01*
X665429Y114608D01*
X665433Y114568D01*
Y109057D01*
X665429Y109018D01*
X665418Y108980D01*
X665399Y108945D01*
X665374Y108915D01*
X665344Y108890D01*
X665309Y108871D01*
X665272Y108860D01*
X665232Y108856D01*
X663484D01*
Y105714D01*
X665232D01*
X665272Y105710D01*
X665309Y105699D01*
X665344Y105681D01*
X665374Y105656D01*
X665399Y105625D01*
X665418Y105590D01*
X665429Y105553D01*
X665433Y105513D01*
Y100002D01*
X665429Y99962D01*
X665418Y99925D01*
X665399Y99890D01*
X665374Y99859D01*
X665344Y99835D01*
X665309Y99816D01*
X665272Y99804D01*
X665232Y99801D01*
X663484D01*
Y95435D01*
X663481Y95395D01*
X663469Y95358D01*
X663451Y95323D01*
X663426Y95293D01*
X663395Y95267D01*
X663360Y95249D01*
X663323Y95237D01*
X663283Y95234D01*
X660331D01*
X660291Y95237D01*
X660254Y95249D01*
X660219Y95267D01*
X660189Y95293D01*
X660164Y95323D01*
X660145Y95358D01*
X660134Y95395D01*
X660130Y95435D01*
Y97438D01*
X658465D01*
Y95435D01*
X658461Y95395D01*
X658449Y95358D01*
X658431Y95323D01*
X658406Y95293D01*
X658375Y95267D01*
X658341Y95249D01*
X658303Y95237D01*
X658264Y95234D01*
X655094D01*
X655055Y95237D01*
X655018Y95249D01*
X654983Y95267D01*
X654952Y95293D01*
X654927Y95323D01*
X654909Y95358D01*
X654897Y95395D01*
X654893Y95435D01*
Y114568D01*
X654897Y114608D01*
X654909Y114645D01*
X654927Y114680D01*
X654952Y114711D01*
X654983Y114736D01*
X655018Y114754D01*
X655055Y114766D01*
X655094Y114769D01*
X665232D01*
X665272Y114766D01*
D02*
G37*
G36*
X653559D02*
X653597Y114754D01*
X653631Y114736D01*
X653662Y114711D01*
X653687Y114680D01*
X653705Y114645D01*
X653717Y114608D01*
X653721Y114568D01*
Y95435D01*
X653717Y95395D01*
X653705Y95358D01*
X653687Y95323D01*
X653662Y95293D01*
X653631Y95267D01*
X653597Y95249D01*
X653559Y95237D01*
X653520Y95234D01*
X650350D01*
X650311Y95237D01*
X650274Y95249D01*
X650239Y95267D01*
X650208Y95293D01*
X650183Y95323D01*
X650165Y95358D01*
X650153Y95395D01*
X650149Y95435D01*
Y97438D01*
X648484D01*
Y95435D01*
X648481Y95395D01*
X648469Y95358D01*
X648451Y95323D01*
X648426Y95293D01*
X648395Y95267D01*
X648360Y95249D01*
X648323Y95237D01*
X648283Y95234D01*
X645331D01*
X645292Y95237D01*
X645254Y95249D01*
X645219Y95267D01*
X645189Y95293D01*
X645164Y95323D01*
X645145Y95358D01*
X645134Y95395D01*
X645130Y95435D01*
Y99801D01*
X643382D01*
X643343Y99804D01*
X643305Y99816D01*
X643270Y99835D01*
X643240Y99859D01*
X643215Y99890D01*
X643196Y99925D01*
X643185Y99962D01*
X643181Y100002D01*
Y105513D01*
X643185Y105553D01*
X643196Y105590D01*
X643215Y105625D01*
X643240Y105656D01*
X643270Y105681D01*
X643305Y105699D01*
X643343Y105710D01*
X643382Y105714D01*
X645130D01*
Y108856D01*
X643382D01*
X643343Y108860D01*
X643305Y108871D01*
X643270Y108890D01*
X643240Y108915D01*
X643215Y108945D01*
X643196Y108980D01*
X643185Y109018D01*
X643181Y109057D01*
Y114568D01*
X643185Y114608D01*
X643196Y114645D01*
X643215Y114680D01*
X643240Y114711D01*
X643270Y114736D01*
X643305Y114754D01*
X643343Y114766D01*
X643382Y114769D01*
X653520D01*
X653559Y114766D01*
D02*
G37*
G36*
X628023D02*
X628060Y114754D01*
X628095Y114736D01*
X628126Y114711D01*
X628151Y114680D01*
X628169Y114645D01*
X628181Y114608D01*
X628185Y114568D01*
Y109057D01*
X628181Y109018D01*
X628169Y108980D01*
X628151Y108945D01*
X628126Y108915D01*
X628095Y108890D01*
X628060Y108871D01*
X628023Y108860D01*
X627984Y108856D01*
X626236D01*
Y105714D01*
X627984D01*
X628023Y105710D01*
X628060Y105699D01*
X628095Y105681D01*
X628126Y105656D01*
X628151Y105625D01*
X628169Y105590D01*
X628181Y105553D01*
X628185Y105513D01*
Y100002D01*
X628181Y99962D01*
X628169Y99925D01*
X628151Y99890D01*
X628126Y99859D01*
X628095Y99835D01*
X628060Y99816D01*
X628023Y99804D01*
X627984Y99801D01*
X626236D01*
Y95435D01*
X626232Y95395D01*
X626220Y95358D01*
X626202Y95323D01*
X626177Y95293D01*
X626146Y95267D01*
X626112Y95249D01*
X626074Y95237D01*
X626035Y95234D01*
X623082D01*
X623043Y95237D01*
X623005Y95249D01*
X622970Y95267D01*
X622940Y95293D01*
X622915Y95323D01*
X622896Y95358D01*
X622885Y95395D01*
X622881Y95435D01*
Y97438D01*
X621216D01*
Y95435D01*
X621212Y95395D01*
X621201Y95358D01*
X621182Y95323D01*
X621157Y95293D01*
X621127Y95267D01*
X621092Y95249D01*
X621054Y95237D01*
X621015Y95234D01*
X617846D01*
X617806Y95237D01*
X617769Y95249D01*
X617734Y95267D01*
X617704Y95293D01*
X617679Y95323D01*
X617660Y95358D01*
X617649Y95395D01*
X617645Y95435D01*
Y114568D01*
X617649Y114608D01*
X617660Y114645D01*
X617679Y114680D01*
X617704Y114711D01*
X617734Y114736D01*
X617769Y114754D01*
X617806Y114766D01*
X617846Y114769D01*
X627984D01*
X628023Y114766D01*
D02*
G37*
G36*
X616310D02*
X616348Y114754D01*
X616383Y114736D01*
X616413Y114711D01*
X616438Y114680D01*
X616457Y114645D01*
X616468Y114608D01*
X616472Y114568D01*
Y95435D01*
X616468Y95395D01*
X616457Y95358D01*
X616438Y95323D01*
X616413Y95293D01*
X616383Y95267D01*
X616348Y95249D01*
X616310Y95237D01*
X616271Y95234D01*
X613102D01*
X613062Y95237D01*
X613025Y95249D01*
X612990Y95267D01*
X612959Y95293D01*
X612934Y95323D01*
X612916Y95358D01*
X612905Y95395D01*
X612901Y95435D01*
Y97438D01*
X611236D01*
Y95435D01*
X611232Y95395D01*
X611220Y95358D01*
X611202Y95323D01*
X611177Y95293D01*
X611146Y95267D01*
X611112Y95249D01*
X611074Y95237D01*
X611035Y95234D01*
X608082D01*
X608043Y95237D01*
X608005Y95249D01*
X607970Y95267D01*
X607940Y95293D01*
X607915Y95323D01*
X607896Y95358D01*
X607885Y95395D01*
X607881Y95435D01*
Y99801D01*
X606133D01*
X606094Y99804D01*
X606056Y99816D01*
X606021Y99835D01*
X605991Y99859D01*
X605966Y99890D01*
X605947Y99925D01*
X605936Y99962D01*
X605932Y100002D01*
Y105513D01*
X605936Y105553D01*
X605947Y105590D01*
X605966Y105625D01*
X605991Y105656D01*
X606021Y105681D01*
X606056Y105699D01*
X606094Y105710D01*
X606133Y105714D01*
X607881D01*
Y108856D01*
X606133D01*
X606094Y108860D01*
X606056Y108871D01*
X606021Y108890D01*
X605991Y108915D01*
X605966Y108945D01*
X605947Y108980D01*
X605936Y109018D01*
X605932Y109057D01*
Y114568D01*
X605936Y114608D01*
X605947Y114645D01*
X605966Y114680D01*
X605991Y114711D01*
X606021Y114736D01*
X606056Y114754D01*
X606094Y114766D01*
X606133Y114769D01*
X616271D01*
X616310Y114766D01*
D02*
G37*
G36*
X583972D02*
X584009Y114754D01*
X584044Y114736D01*
X584074Y114711D01*
X584099Y114680D01*
X584118Y114645D01*
X584129Y114608D01*
X584133Y114568D01*
Y109057D01*
X584129Y109018D01*
X584118Y108980D01*
X584099Y108945D01*
X584074Y108915D01*
X584044Y108890D01*
X584009Y108871D01*
X583972Y108860D01*
X583932Y108856D01*
X582184D01*
Y105714D01*
X583932D01*
X583972Y105710D01*
X584009Y105699D01*
X584044Y105681D01*
X584074Y105656D01*
X584099Y105625D01*
X584118Y105590D01*
X584129Y105553D01*
X584133Y105513D01*
Y100002D01*
X584129Y99962D01*
X584118Y99925D01*
X584099Y99890D01*
X584074Y99859D01*
X584044Y99835D01*
X584009Y99816D01*
X583972Y99804D01*
X583932Y99801D01*
X582184D01*
Y95435D01*
X582181Y95395D01*
X582169Y95358D01*
X582151Y95323D01*
X582126Y95293D01*
X582095Y95267D01*
X582060Y95249D01*
X582023Y95237D01*
X581984Y95234D01*
X579031D01*
X578992Y95237D01*
X578954Y95249D01*
X578919Y95267D01*
X578889Y95293D01*
X578864Y95323D01*
X578845Y95358D01*
X578834Y95395D01*
X578830Y95435D01*
Y97438D01*
X577165D01*
Y95435D01*
X577161Y95395D01*
X577149Y95358D01*
X577131Y95323D01*
X577106Y95293D01*
X577075Y95267D01*
X577041Y95249D01*
X577003Y95237D01*
X576964Y95234D01*
X573795D01*
X573755Y95237D01*
X573718Y95249D01*
X573683Y95267D01*
X573652Y95293D01*
X573627Y95323D01*
X573609Y95358D01*
X573597Y95395D01*
X573594Y95435D01*
Y114568D01*
X573597Y114608D01*
X573609Y114645D01*
X573627Y114680D01*
X573652Y114711D01*
X573683Y114736D01*
X573718Y114754D01*
X573755Y114766D01*
X573795Y114769D01*
X583932D01*
X583972Y114766D01*
D02*
G37*
G36*
X572259D02*
X572297Y114754D01*
X572331Y114736D01*
X572362Y114711D01*
X572387Y114680D01*
X572405Y114645D01*
X572417Y114608D01*
X572421Y114568D01*
Y95435D01*
X572417Y95395D01*
X572405Y95358D01*
X572387Y95323D01*
X572362Y95293D01*
X572331Y95267D01*
X572297Y95249D01*
X572259Y95237D01*
X572220Y95234D01*
X569050D01*
X569011Y95237D01*
X568973Y95249D01*
X568939Y95267D01*
X568908Y95293D01*
X568883Y95323D01*
X568865Y95358D01*
X568853Y95395D01*
X568849Y95435D01*
Y97438D01*
X567184D01*
Y95435D01*
X567181Y95395D01*
X567169Y95358D01*
X567151Y95323D01*
X567126Y95293D01*
X567095Y95267D01*
X567060Y95249D01*
X567023Y95237D01*
X566984Y95234D01*
X564031D01*
X563991Y95237D01*
X563954Y95249D01*
X563919Y95267D01*
X563889Y95293D01*
X563864Y95323D01*
X563845Y95358D01*
X563834Y95395D01*
X563830Y95435D01*
Y99801D01*
X562082D01*
X562043Y99804D01*
X562005Y99816D01*
X561970Y99835D01*
X561940Y99859D01*
X561915Y99890D01*
X561896Y99925D01*
X561885Y99962D01*
X561881Y100002D01*
Y105513D01*
X561885Y105553D01*
X561896Y105590D01*
X561915Y105625D01*
X561940Y105656D01*
X561970Y105681D01*
X562005Y105699D01*
X562043Y105710D01*
X562082Y105714D01*
X563830D01*
Y108856D01*
X562082D01*
X562043Y108860D01*
X562005Y108871D01*
X561970Y108890D01*
X561940Y108915D01*
X561915Y108945D01*
X561896Y108980D01*
X561885Y109018D01*
X561881Y109057D01*
Y114568D01*
X561885Y114608D01*
X561896Y114645D01*
X561915Y114680D01*
X561940Y114711D01*
X561970Y114736D01*
X562005Y114754D01*
X562043Y114766D01*
X562082Y114769D01*
X572220D01*
X572259Y114766D01*
D02*
G37*
G36*
X546723D02*
X546760Y114754D01*
X546795Y114736D01*
X546826Y114711D01*
X546851Y114680D01*
X546869Y114645D01*
X546881Y114608D01*
X546884Y114568D01*
Y109057D01*
X546881Y109018D01*
X546869Y108980D01*
X546851Y108945D01*
X546826Y108915D01*
X546795Y108890D01*
X546760Y108871D01*
X546723Y108860D01*
X546684Y108856D01*
X544936D01*
Y105714D01*
X546684D01*
X546723Y105710D01*
X546760Y105699D01*
X546795Y105681D01*
X546826Y105656D01*
X546851Y105625D01*
X546869Y105590D01*
X546881Y105553D01*
X546884Y105513D01*
Y100002D01*
X546881Y99962D01*
X546869Y99925D01*
X546851Y99890D01*
X546826Y99859D01*
X546795Y99835D01*
X546760Y99816D01*
X546723Y99804D01*
X546684Y99801D01*
X544936D01*
Y95435D01*
X544932Y95395D01*
X544920Y95358D01*
X544902Y95323D01*
X544877Y95293D01*
X544846Y95267D01*
X544812Y95249D01*
X544774Y95237D01*
X544735Y95234D01*
X541782D01*
X541743Y95237D01*
X541705Y95249D01*
X541670Y95267D01*
X541640Y95293D01*
X541615Y95323D01*
X541596Y95358D01*
X541585Y95395D01*
X541581Y95435D01*
Y97438D01*
X539916D01*
Y95435D01*
X539912Y95395D01*
X539901Y95358D01*
X539882Y95323D01*
X539857Y95293D01*
X539827Y95267D01*
X539792Y95249D01*
X539754Y95237D01*
X539715Y95234D01*
X536546D01*
X536507Y95237D01*
X536469Y95249D01*
X536434Y95267D01*
X536404Y95293D01*
X536379Y95323D01*
X536360Y95358D01*
X536349Y95395D01*
X536345Y95435D01*
Y114568D01*
X536349Y114608D01*
X536360Y114645D01*
X536379Y114680D01*
X536404Y114711D01*
X536434Y114736D01*
X536469Y114754D01*
X536507Y114766D01*
X536546Y114769D01*
X546684D01*
X546723Y114766D01*
D02*
G37*
G36*
X535010D02*
X535048Y114754D01*
X535082Y114736D01*
X535113Y114711D01*
X535138Y114680D01*
X535157Y114645D01*
X535168Y114608D01*
X535172Y114568D01*
Y95435D01*
X535168Y95395D01*
X535157Y95358D01*
X535138Y95323D01*
X535113Y95293D01*
X535082Y95267D01*
X535048Y95249D01*
X535010Y95237D01*
X534971Y95234D01*
X531802D01*
X531762Y95237D01*
X531725Y95249D01*
X531690Y95267D01*
X531660Y95293D01*
X531635Y95323D01*
X531616Y95358D01*
X531604Y95395D01*
X531601Y95435D01*
Y97438D01*
X529936D01*
Y95435D01*
X529932Y95395D01*
X529920Y95358D01*
X529902Y95323D01*
X529877Y95293D01*
X529846Y95267D01*
X529812Y95249D01*
X529774Y95237D01*
X529735Y95234D01*
X526782D01*
X526743Y95237D01*
X526705Y95249D01*
X526670Y95267D01*
X526640Y95293D01*
X526615Y95323D01*
X526596Y95358D01*
X526585Y95395D01*
X526581Y95435D01*
Y99801D01*
X524833D01*
X524794Y99804D01*
X524756Y99816D01*
X524721Y99835D01*
X524691Y99859D01*
X524666Y99890D01*
X524647Y99925D01*
X524636Y99962D01*
X524632Y100002D01*
Y105513D01*
X524636Y105553D01*
X524647Y105590D01*
X524666Y105625D01*
X524691Y105656D01*
X524721Y105681D01*
X524756Y105699D01*
X524794Y105710D01*
X524833Y105714D01*
X526581D01*
Y108856D01*
X524833D01*
X524794Y108860D01*
X524756Y108871D01*
X524721Y108890D01*
X524691Y108915D01*
X524666Y108945D01*
X524647Y108980D01*
X524636Y109018D01*
X524632Y109057D01*
Y114568D01*
X524636Y114608D01*
X524647Y114645D01*
X524666Y114680D01*
X524691Y114711D01*
X524721Y114736D01*
X524756Y114754D01*
X524794Y114766D01*
X524833Y114769D01*
X534971D01*
X535010Y114766D01*
D02*
G37*
G36*
X502671D02*
X502709Y114754D01*
X502744Y114736D01*
X502774Y114711D01*
X502799Y114680D01*
X502818Y114645D01*
X502829Y114608D01*
X502833Y114568D01*
Y109057D01*
X502829Y109018D01*
X502818Y108980D01*
X502799Y108945D01*
X502774Y108915D01*
X502744Y108890D01*
X502709Y108871D01*
X502671Y108860D01*
X502632Y108856D01*
X500884D01*
Y105714D01*
X502632D01*
X502671Y105710D01*
X502709Y105699D01*
X502744Y105681D01*
X502774Y105656D01*
X502799Y105625D01*
X502818Y105590D01*
X502829Y105553D01*
X502833Y105513D01*
Y100002D01*
X502829Y99962D01*
X502818Y99925D01*
X502799Y99890D01*
X502774Y99859D01*
X502744Y99835D01*
X502709Y99816D01*
X502671Y99804D01*
X502632Y99801D01*
X500884D01*
Y95435D01*
X500881Y95395D01*
X500869Y95358D01*
X500851Y95323D01*
X500826Y95293D01*
X500795Y95267D01*
X500760Y95249D01*
X500723Y95237D01*
X500683Y95234D01*
X497731D01*
X497691Y95237D01*
X497654Y95249D01*
X497619Y95267D01*
X497589Y95293D01*
X497564Y95323D01*
X497545Y95358D01*
X497534Y95395D01*
X497530Y95435D01*
Y97438D01*
X495865D01*
Y95435D01*
X495861Y95395D01*
X495849Y95358D01*
X495831Y95323D01*
X495806Y95293D01*
X495775Y95267D01*
X495741Y95249D01*
X495703Y95237D01*
X495664Y95234D01*
X492494D01*
X492455Y95237D01*
X492418Y95249D01*
X492383Y95267D01*
X492352Y95293D01*
X492327Y95323D01*
X492309Y95358D01*
X492297Y95395D01*
X492294Y95435D01*
Y114568D01*
X492297Y114608D01*
X492309Y114645D01*
X492327Y114680D01*
X492352Y114711D01*
X492383Y114736D01*
X492418Y114754D01*
X492455Y114766D01*
X492494Y114769D01*
X502632D01*
X502671Y114766D01*
D02*
G37*
G36*
X490959D02*
X490997Y114754D01*
X491031Y114736D01*
X491062Y114711D01*
X491087Y114680D01*
X491105Y114645D01*
X491117Y114608D01*
X491121Y114568D01*
Y95435D01*
X491117Y95395D01*
X491105Y95358D01*
X491087Y95323D01*
X491062Y95293D01*
X491031Y95267D01*
X490997Y95249D01*
X490959Y95237D01*
X490920Y95234D01*
X487750D01*
X487711Y95237D01*
X487674Y95249D01*
X487639Y95267D01*
X487608Y95293D01*
X487583Y95323D01*
X487565Y95358D01*
X487553Y95395D01*
X487549Y95435D01*
Y97438D01*
X485884D01*
Y95435D01*
X485881Y95395D01*
X485869Y95358D01*
X485851Y95323D01*
X485826Y95293D01*
X485795Y95267D01*
X485760Y95249D01*
X485723Y95237D01*
X485683Y95234D01*
X482731D01*
X482691Y95237D01*
X482654Y95249D01*
X482619Y95267D01*
X482589Y95293D01*
X482564Y95323D01*
X482545Y95358D01*
X482534Y95395D01*
X482530Y95435D01*
Y99801D01*
X480782D01*
X480743Y99804D01*
X480705Y99816D01*
X480670Y99835D01*
X480640Y99859D01*
X480615Y99890D01*
X480596Y99925D01*
X480585Y99962D01*
X480581Y100002D01*
Y105513D01*
X480585Y105553D01*
X480596Y105590D01*
X480615Y105625D01*
X480640Y105656D01*
X480670Y105681D01*
X480705Y105699D01*
X480743Y105710D01*
X480782Y105714D01*
X482530D01*
Y108856D01*
X480782D01*
X480743Y108860D01*
X480705Y108871D01*
X480670Y108890D01*
X480640Y108915D01*
X480615Y108945D01*
X480596Y108980D01*
X480585Y109018D01*
X480581Y109057D01*
Y114568D01*
X480585Y114608D01*
X480596Y114645D01*
X480615Y114680D01*
X480640Y114711D01*
X480670Y114736D01*
X480705Y114754D01*
X480743Y114766D01*
X480782Y114769D01*
X490920D01*
X490959Y114766D01*
D02*
G37*
G36*
X465423D02*
X465460Y114754D01*
X465495Y114736D01*
X465526Y114711D01*
X465551Y114680D01*
X465569Y114645D01*
X465581Y114608D01*
X465585Y114568D01*
Y109057D01*
X465581Y109018D01*
X465569Y108980D01*
X465551Y108945D01*
X465526Y108915D01*
X465495Y108890D01*
X465460Y108871D01*
X465423Y108860D01*
X465383Y108856D01*
X463636D01*
Y105714D01*
X465383D01*
X465423Y105710D01*
X465460Y105699D01*
X465495Y105681D01*
X465526Y105656D01*
X465551Y105625D01*
X465569Y105590D01*
X465581Y105553D01*
X465585Y105513D01*
Y100002D01*
X465581Y99962D01*
X465569Y99925D01*
X465551Y99890D01*
X465526Y99859D01*
X465495Y99835D01*
X465460Y99816D01*
X465423Y99804D01*
X465383Y99801D01*
X463636D01*
Y95435D01*
X463632Y95395D01*
X463620Y95358D01*
X463602Y95323D01*
X463577Y95293D01*
X463546Y95267D01*
X463512Y95249D01*
X463474Y95237D01*
X463435Y95234D01*
X460482D01*
X460443Y95237D01*
X460405Y95249D01*
X460370Y95267D01*
X460340Y95293D01*
X460315Y95323D01*
X460296Y95358D01*
X460285Y95395D01*
X460281Y95435D01*
Y97438D01*
X458616D01*
Y95435D01*
X458612Y95395D01*
X458601Y95358D01*
X458582Y95323D01*
X458557Y95293D01*
X458527Y95267D01*
X458492Y95249D01*
X458454Y95237D01*
X458415Y95234D01*
X455246D01*
X455206Y95237D01*
X455169Y95249D01*
X455134Y95267D01*
X455104Y95293D01*
X455079Y95323D01*
X455060Y95358D01*
X455049Y95395D01*
X455045Y95435D01*
Y114568D01*
X455049Y114608D01*
X455060Y114645D01*
X455079Y114680D01*
X455104Y114711D01*
X455134Y114736D01*
X455169Y114754D01*
X455206Y114766D01*
X455246Y114769D01*
X465383D01*
X465423Y114766D01*
D02*
G37*
G36*
X453710D02*
X453748Y114754D01*
X453783Y114736D01*
X453813Y114711D01*
X453838Y114680D01*
X453857Y114645D01*
X453868Y114608D01*
X453872Y114568D01*
Y95435D01*
X453868Y95395D01*
X453857Y95358D01*
X453838Y95323D01*
X453813Y95293D01*
X453783Y95267D01*
X453748Y95249D01*
X453710Y95237D01*
X453671Y95234D01*
X450502D01*
X450462Y95237D01*
X450425Y95249D01*
X450390Y95267D01*
X450359Y95293D01*
X450335Y95323D01*
X450316Y95358D01*
X450305Y95395D01*
X450301Y95435D01*
Y97438D01*
X448636D01*
Y95435D01*
X448632Y95395D01*
X448620Y95358D01*
X448602Y95323D01*
X448577Y95293D01*
X448546Y95267D01*
X448512Y95249D01*
X448474Y95237D01*
X448435Y95234D01*
X445482D01*
X445443Y95237D01*
X445405Y95249D01*
X445370Y95267D01*
X445340Y95293D01*
X445315Y95323D01*
X445296Y95358D01*
X445285Y95395D01*
X445281Y95435D01*
Y99801D01*
X443533D01*
X443494Y99804D01*
X443456Y99816D01*
X443421Y99835D01*
X443391Y99859D01*
X443366Y99890D01*
X443347Y99925D01*
X443336Y99962D01*
X443332Y100002D01*
Y105513D01*
X443336Y105553D01*
X443347Y105590D01*
X443366Y105625D01*
X443391Y105656D01*
X443421Y105681D01*
X443456Y105699D01*
X443494Y105710D01*
X443533Y105714D01*
X445281D01*
Y108856D01*
X443533D01*
X443494Y108860D01*
X443456Y108871D01*
X443421Y108890D01*
X443391Y108915D01*
X443366Y108945D01*
X443347Y108980D01*
X443336Y109018D01*
X443332Y109057D01*
Y114568D01*
X443336Y114608D01*
X443347Y114645D01*
X443366Y114680D01*
X443391Y114711D01*
X443421Y114736D01*
X443456Y114754D01*
X443494Y114766D01*
X443533Y114769D01*
X453671D01*
X453710Y114766D01*
D02*
G37*
G36*
X339089D02*
X339126Y114754D01*
X339161Y114736D01*
X339192Y114711D01*
X339217Y114680D01*
X339235Y114645D01*
X339247Y114608D01*
X339251Y114568D01*
Y109057D01*
X339247Y109018D01*
X339235Y108980D01*
X339217Y108945D01*
X339192Y108915D01*
X339161Y108890D01*
X339126Y108871D01*
X339089Y108860D01*
X339050Y108856D01*
X337302D01*
Y105714D01*
X339050D01*
X339089Y105710D01*
X339126Y105699D01*
X339161Y105681D01*
X339192Y105656D01*
X339217Y105625D01*
X339235Y105590D01*
X339247Y105553D01*
X339251Y105513D01*
Y100002D01*
X339247Y99962D01*
X339235Y99925D01*
X339217Y99890D01*
X339192Y99859D01*
X339161Y99835D01*
X339126Y99816D01*
X339089Y99804D01*
X339050Y99801D01*
X337302D01*
Y95435D01*
X337298Y95395D01*
X337286Y95358D01*
X337268Y95323D01*
X337243Y95293D01*
X337212Y95267D01*
X337178Y95249D01*
X337140Y95237D01*
X337101Y95234D01*
X334148D01*
X334109Y95237D01*
X334071Y95249D01*
X334036Y95267D01*
X334006Y95293D01*
X333981Y95323D01*
X333962Y95358D01*
X333951Y95395D01*
X333947Y95435D01*
Y97438D01*
X332282D01*
Y95435D01*
X332278Y95395D01*
X332267Y95358D01*
X332248Y95323D01*
X332223Y95293D01*
X332193Y95267D01*
X332158Y95249D01*
X332120Y95237D01*
X332081Y95234D01*
X328912D01*
X328873Y95237D01*
X328835Y95249D01*
X328800Y95267D01*
X328770Y95293D01*
X328745Y95323D01*
X328726Y95358D01*
X328715Y95395D01*
X328711Y95435D01*
Y114568D01*
X328715Y114608D01*
X328726Y114645D01*
X328745Y114680D01*
X328770Y114711D01*
X328800Y114736D01*
X328835Y114754D01*
X328873Y114766D01*
X328912Y114769D01*
X339050D01*
X339089Y114766D01*
D02*
G37*
G36*
X327376D02*
X327414Y114754D01*
X327449Y114736D01*
X327479Y114711D01*
X327504Y114680D01*
X327523Y114645D01*
X327534Y114608D01*
X327538Y114568D01*
Y95435D01*
X327534Y95395D01*
X327523Y95358D01*
X327504Y95323D01*
X327479Y95293D01*
X327449Y95267D01*
X327414Y95249D01*
X327376Y95237D01*
X327337Y95234D01*
X324168D01*
X324129Y95237D01*
X324091Y95249D01*
X324056Y95267D01*
X324026Y95293D01*
X324001Y95323D01*
X323982Y95358D01*
X323971Y95395D01*
X323967Y95435D01*
Y97438D01*
X322302D01*
Y95435D01*
X322298Y95395D01*
X322287Y95358D01*
X322268Y95323D01*
X322243Y95293D01*
X322212Y95267D01*
X322178Y95249D01*
X322140Y95237D01*
X322101Y95234D01*
X319148D01*
X319109Y95237D01*
X319071Y95249D01*
X319036Y95267D01*
X319006Y95293D01*
X318981Y95323D01*
X318962Y95358D01*
X318951Y95395D01*
X318947Y95435D01*
Y99801D01*
X317199D01*
X317160Y99804D01*
X317122Y99816D01*
X317088Y99835D01*
X317057Y99859D01*
X317032Y99890D01*
X317014Y99925D01*
X317002Y99962D01*
X316998Y100002D01*
Y105513D01*
X317002Y105553D01*
X317014Y105590D01*
X317032Y105625D01*
X317057Y105656D01*
X317088Y105681D01*
X317122Y105699D01*
X317160Y105710D01*
X317199Y105714D01*
X318947D01*
Y108856D01*
X317199D01*
X317160Y108860D01*
X317122Y108871D01*
X317088Y108890D01*
X317057Y108915D01*
X317032Y108945D01*
X317014Y108980D01*
X317002Y109018D01*
X316998Y109057D01*
Y114568D01*
X317002Y114608D01*
X317014Y114645D01*
X317032Y114680D01*
X317057Y114711D01*
X317088Y114736D01*
X317122Y114754D01*
X317160Y114766D01*
X317199Y114769D01*
X327337D01*
X327376Y114766D01*
D02*
G37*
G36*
X301840D02*
X301878Y114754D01*
X301912Y114736D01*
X301943Y114711D01*
X301968Y114680D01*
X301987Y114645D01*
X301998Y114608D01*
X302002Y114568D01*
Y109057D01*
X301998Y109018D01*
X301987Y108980D01*
X301968Y108945D01*
X301943Y108915D01*
X301912Y108890D01*
X301878Y108871D01*
X301840Y108860D01*
X301801Y108856D01*
X300053D01*
Y105714D01*
X301801D01*
X301840Y105710D01*
X301878Y105699D01*
X301912Y105681D01*
X301943Y105656D01*
X301968Y105625D01*
X301987Y105590D01*
X301998Y105553D01*
X302002Y105513D01*
Y100002D01*
X301998Y99962D01*
X301987Y99925D01*
X301968Y99890D01*
X301943Y99859D01*
X301912Y99835D01*
X301878Y99816D01*
X301840Y99804D01*
X301801Y99801D01*
X300053D01*
Y95435D01*
X300049Y95395D01*
X300038Y95358D01*
X300019Y95323D01*
X299994Y95293D01*
X299964Y95267D01*
X299929Y95249D01*
X299891Y95237D01*
X299852Y95234D01*
X296899D01*
X296860Y95237D01*
X296822Y95249D01*
X296788Y95267D01*
X296757Y95293D01*
X296732Y95323D01*
X296714Y95358D01*
X296702Y95395D01*
X296698Y95435D01*
Y97438D01*
X295033D01*
Y95435D01*
X295029Y95395D01*
X295018Y95358D01*
X294999Y95323D01*
X294974Y95293D01*
X294944Y95267D01*
X294909Y95249D01*
X294871Y95237D01*
X294832Y95234D01*
X291663D01*
X291624Y95237D01*
X291586Y95249D01*
X291551Y95267D01*
X291521Y95293D01*
X291496Y95323D01*
X291477Y95358D01*
X291466Y95395D01*
X291462Y95435D01*
Y114568D01*
X291466Y114608D01*
X291477Y114645D01*
X291496Y114680D01*
X291521Y114711D01*
X291551Y114736D01*
X291586Y114754D01*
X291624Y114766D01*
X291663Y114769D01*
X301801D01*
X301840Y114766D01*
D02*
G37*
G36*
X290127D02*
X290165Y114754D01*
X290200Y114736D01*
X290230Y114711D01*
X290255Y114680D01*
X290274Y114645D01*
X290285Y114608D01*
X290289Y114568D01*
Y95435D01*
X290285Y95395D01*
X290274Y95358D01*
X290255Y95323D01*
X290230Y95293D01*
X290200Y95267D01*
X290165Y95249D01*
X290127Y95237D01*
X290088Y95234D01*
X286919D01*
X286880Y95237D01*
X286842Y95249D01*
X286807Y95267D01*
X286777Y95293D01*
X286752Y95323D01*
X286733Y95358D01*
X286722Y95395D01*
X286718Y95435D01*
Y97438D01*
X285053D01*
Y95435D01*
X285049Y95395D01*
X285038Y95358D01*
X285019Y95323D01*
X284994Y95293D01*
X284964Y95267D01*
X284929Y95249D01*
X284891Y95237D01*
X284852Y95234D01*
X281899D01*
X281860Y95237D01*
X281822Y95249D01*
X281788Y95267D01*
X281757Y95293D01*
X281732Y95323D01*
X281714Y95358D01*
X281702Y95395D01*
X281698Y95435D01*
Y99801D01*
X279950D01*
X279911Y99804D01*
X279873Y99816D01*
X279839Y99835D01*
X279808Y99859D01*
X279783Y99890D01*
X279765Y99925D01*
X279753Y99962D01*
X279749Y100002D01*
Y105513D01*
X279753Y105553D01*
X279765Y105590D01*
X279783Y105625D01*
X279808Y105656D01*
X279839Y105681D01*
X279873Y105699D01*
X279911Y105710D01*
X279950Y105714D01*
X281698D01*
Y108856D01*
X279950D01*
X279911Y108860D01*
X279873Y108871D01*
X279839Y108890D01*
X279808Y108915D01*
X279783Y108945D01*
X279765Y108980D01*
X279753Y109018D01*
X279749Y109057D01*
Y114568D01*
X279753Y114608D01*
X279765Y114645D01*
X279783Y114680D01*
X279808Y114711D01*
X279839Y114736D01*
X279873Y114754D01*
X279911Y114766D01*
X279950Y114769D01*
X290088D01*
X290127Y114766D01*
D02*
G37*
G36*
X175506D02*
X175544Y114754D01*
X175579Y114736D01*
X175609Y114711D01*
X175634Y114680D01*
X175653Y114645D01*
X175664Y114608D01*
X175668Y114568D01*
Y109057D01*
X175664Y109018D01*
X175653Y108980D01*
X175634Y108945D01*
X175609Y108915D01*
X175579Y108890D01*
X175544Y108871D01*
X175506Y108860D01*
X175467Y108856D01*
X173719D01*
Y105714D01*
X175467D01*
X175506Y105710D01*
X175544Y105699D01*
X175579Y105681D01*
X175609Y105656D01*
X175634Y105625D01*
X175653Y105590D01*
X175664Y105553D01*
X175668Y105513D01*
Y100002D01*
X175664Y99962D01*
X175653Y99925D01*
X175634Y99890D01*
X175609Y99859D01*
X175579Y99835D01*
X175544Y99816D01*
X175506Y99804D01*
X175467Y99801D01*
X173719D01*
Y95435D01*
X173715Y95395D01*
X173704Y95358D01*
X173685Y95323D01*
X173660Y95293D01*
X173630Y95267D01*
X173595Y95249D01*
X173557Y95237D01*
X173518Y95234D01*
X170565D01*
X170526Y95237D01*
X170488Y95249D01*
X170454Y95267D01*
X170423Y95293D01*
X170398Y95323D01*
X170380Y95358D01*
X170368Y95395D01*
X170364Y95435D01*
Y97438D01*
X168699D01*
Y95435D01*
X168695Y95395D01*
X168684Y95358D01*
X168666Y95323D01*
X168640Y95293D01*
X168610Y95267D01*
X168575Y95249D01*
X168538Y95237D01*
X168498Y95234D01*
X165329D01*
X165290Y95237D01*
X165252Y95249D01*
X165217Y95267D01*
X165187Y95293D01*
X165162Y95323D01*
X165144Y95358D01*
X165132Y95395D01*
X165128Y95435D01*
Y114568D01*
X165132Y114608D01*
X165144Y114645D01*
X165162Y114680D01*
X165187Y114711D01*
X165217Y114736D01*
X165252Y114754D01*
X165290Y114766D01*
X165329Y114769D01*
X175467D01*
X175506Y114766D01*
D02*
G37*
G36*
X163794D02*
X163831Y114754D01*
X163866Y114736D01*
X163896Y114711D01*
X163921Y114680D01*
X163940Y114645D01*
X163951Y114608D01*
X163955Y114568D01*
Y95435D01*
X163951Y95395D01*
X163940Y95358D01*
X163921Y95323D01*
X163896Y95293D01*
X163866Y95267D01*
X163831Y95249D01*
X163794Y95237D01*
X163754Y95234D01*
X160585D01*
X160546Y95237D01*
X160508Y95249D01*
X160473Y95267D01*
X160443Y95293D01*
X160418Y95323D01*
X160399Y95358D01*
X160388Y95395D01*
X160384Y95435D01*
Y97438D01*
X158719D01*
Y95435D01*
X158715Y95395D01*
X158704Y95358D01*
X158685Y95323D01*
X158660Y95293D01*
X158630Y95267D01*
X158595Y95249D01*
X158557Y95237D01*
X158518Y95234D01*
X155565D01*
X155526Y95237D01*
X155488Y95249D01*
X155454Y95267D01*
X155423Y95293D01*
X155398Y95323D01*
X155380Y95358D01*
X155368Y95395D01*
X155364Y95435D01*
Y99801D01*
X153616D01*
X153577Y99804D01*
X153540Y99816D01*
X153505Y99835D01*
X153474Y99859D01*
X153449Y99890D01*
X153431Y99925D01*
X153419Y99962D01*
X153416Y100002D01*
Y105513D01*
X153419Y105553D01*
X153431Y105590D01*
X153449Y105625D01*
X153474Y105656D01*
X153505Y105681D01*
X153540Y105699D01*
X153577Y105710D01*
X153616Y105714D01*
X155364D01*
Y108856D01*
X153616D01*
X153577Y108860D01*
X153540Y108871D01*
X153505Y108890D01*
X153474Y108915D01*
X153449Y108945D01*
X153431Y108980D01*
X153419Y109018D01*
X153416Y109057D01*
Y114568D01*
X153419Y114608D01*
X153431Y114645D01*
X153449Y114680D01*
X153474Y114711D01*
X153505Y114736D01*
X153540Y114754D01*
X153577Y114766D01*
X153616Y114769D01*
X163754D01*
X163794Y114766D01*
D02*
G37*
G36*
X138257D02*
X138295Y114754D01*
X138330Y114736D01*
X138360Y114711D01*
X138385Y114680D01*
X138404Y114645D01*
X138415Y114608D01*
X138419Y114568D01*
Y109057D01*
X138415Y109018D01*
X138404Y108980D01*
X138385Y108945D01*
X138360Y108915D01*
X138330Y108890D01*
X138295Y108871D01*
X138257Y108860D01*
X138218Y108856D01*
X136470D01*
Y105714D01*
X138218D01*
X138257Y105710D01*
X138295Y105699D01*
X138330Y105681D01*
X138360Y105656D01*
X138385Y105625D01*
X138404Y105590D01*
X138415Y105553D01*
X138419Y105513D01*
Y100002D01*
X138415Y99962D01*
X138404Y99925D01*
X138385Y99890D01*
X138360Y99859D01*
X138330Y99835D01*
X138295Y99816D01*
X138257Y99804D01*
X138218Y99801D01*
X136470D01*
Y95435D01*
X136466Y95395D01*
X136455Y95358D01*
X136436Y95323D01*
X136411Y95293D01*
X136381Y95267D01*
X136346Y95249D01*
X136309Y95237D01*
X136269Y95234D01*
X133317D01*
X133277Y95237D01*
X133240Y95249D01*
X133205Y95267D01*
X133174Y95293D01*
X133150Y95323D01*
X133131Y95358D01*
X133119Y95395D01*
X133116Y95435D01*
Y97438D01*
X131451D01*
Y95435D01*
X131447Y95395D01*
X131435Y95358D01*
X131417Y95323D01*
X131392Y95293D01*
X131361Y95267D01*
X131326Y95249D01*
X131289Y95237D01*
X131250Y95234D01*
X128080D01*
X128041Y95237D01*
X128003Y95249D01*
X127969Y95267D01*
X127938Y95293D01*
X127913Y95323D01*
X127895Y95358D01*
X127883Y95395D01*
X127879Y95435D01*
Y114568D01*
X127883Y114608D01*
X127895Y114645D01*
X127913Y114680D01*
X127938Y114711D01*
X127969Y114736D01*
X128003Y114754D01*
X128041Y114766D01*
X128080Y114769D01*
X138218D01*
X138257Y114766D01*
D02*
G37*
G36*
X126545D02*
X126582Y114754D01*
X126617Y114736D01*
X126648Y114711D01*
X126673Y114680D01*
X126691Y114645D01*
X126703Y114608D01*
X126707Y114568D01*
Y95435D01*
X126703Y95395D01*
X126691Y95358D01*
X126673Y95323D01*
X126648Y95293D01*
X126617Y95267D01*
X126582Y95249D01*
X126545Y95237D01*
X126505Y95234D01*
X123336D01*
X123297Y95237D01*
X123259Y95249D01*
X123225Y95267D01*
X123194Y95293D01*
X123169Y95323D01*
X123151Y95358D01*
X123139Y95395D01*
X123135Y95435D01*
Y97438D01*
X121470D01*
Y95435D01*
X121466Y95395D01*
X121455Y95358D01*
X121436Y95323D01*
X121411Y95293D01*
X121381Y95267D01*
X121346Y95249D01*
X121309Y95237D01*
X121269Y95234D01*
X118317D01*
X118277Y95237D01*
X118240Y95249D01*
X118205Y95267D01*
X118174Y95293D01*
X118149Y95323D01*
X118131Y95358D01*
X118119Y95395D01*
X118116Y95435D01*
Y99801D01*
X116368D01*
X116329Y99804D01*
X116291Y99816D01*
X116256Y99835D01*
X116226Y99859D01*
X116201Y99890D01*
X116182Y99925D01*
X116171Y99962D01*
X116167Y100002D01*
Y105513D01*
X116171Y105553D01*
X116182Y105590D01*
X116201Y105625D01*
X116226Y105656D01*
X116256Y105681D01*
X116291Y105699D01*
X116329Y105710D01*
X116368Y105714D01*
X118116D01*
Y108856D01*
X116368D01*
X116329Y108860D01*
X116291Y108871D01*
X116256Y108890D01*
X116226Y108915D01*
X116201Y108945D01*
X116182Y108980D01*
X116171Y109018D01*
X116167Y109057D01*
Y114568D01*
X116171Y114608D01*
X116182Y114645D01*
X116201Y114680D01*
X116226Y114711D01*
X116256Y114736D01*
X116291Y114754D01*
X116329Y114766D01*
X116368Y114769D01*
X126505D01*
X126545Y114766D01*
D02*
G37*
G36*
X93715D02*
X93752Y114754D01*
X93787Y114736D01*
X93818Y114711D01*
X93843Y114680D01*
X93861Y114645D01*
X93873Y114608D01*
X93877Y114568D01*
Y109057D01*
X93873Y109018D01*
X93861Y108980D01*
X93843Y108945D01*
X93818Y108915D01*
X93787Y108890D01*
X93752Y108871D01*
X93715Y108860D01*
X93676Y108856D01*
X91928D01*
Y105714D01*
X93676D01*
X93715Y105710D01*
X93752Y105699D01*
X93787Y105681D01*
X93818Y105656D01*
X93843Y105625D01*
X93861Y105590D01*
X93873Y105553D01*
X93877Y105513D01*
Y100002D01*
X93873Y99962D01*
X93861Y99925D01*
X93843Y99890D01*
X93818Y99859D01*
X93787Y99835D01*
X93752Y99816D01*
X93715Y99804D01*
X93676Y99801D01*
X91928D01*
Y95435D01*
X91924Y95395D01*
X91912Y95358D01*
X91894Y95323D01*
X91869Y95293D01*
X91838Y95267D01*
X91804Y95249D01*
X91766Y95237D01*
X91727Y95234D01*
X88774D01*
X88735Y95237D01*
X88697Y95249D01*
X88662Y95267D01*
X88632Y95293D01*
X88607Y95323D01*
X88588Y95358D01*
X88577Y95395D01*
X88573Y95435D01*
Y97438D01*
X86908D01*
Y95435D01*
X86904Y95395D01*
X86893Y95358D01*
X86874Y95323D01*
X86849Y95293D01*
X86819Y95267D01*
X86784Y95249D01*
X86746Y95237D01*
X86707Y95234D01*
X83538D01*
X83499Y95237D01*
X83461Y95249D01*
X83426Y95267D01*
X83396Y95293D01*
X83371Y95323D01*
X83352Y95358D01*
X83341Y95395D01*
X83337Y95435D01*
Y114568D01*
X83341Y114608D01*
X83352Y114645D01*
X83371Y114680D01*
X83396Y114711D01*
X83426Y114736D01*
X83461Y114754D01*
X83499Y114766D01*
X83538Y114769D01*
X93676D01*
X93715Y114766D01*
D02*
G37*
G36*
X82002D02*
X82040Y114754D01*
X82075Y114736D01*
X82105Y114711D01*
X82130Y114680D01*
X82149Y114645D01*
X82160Y114608D01*
X82164Y114568D01*
Y95435D01*
X82160Y95395D01*
X82149Y95358D01*
X82130Y95323D01*
X82105Y95293D01*
X82075Y95267D01*
X82040Y95249D01*
X82002Y95237D01*
X81963Y95234D01*
X78794D01*
X78755Y95237D01*
X78717Y95249D01*
X78682Y95267D01*
X78652Y95293D01*
X78627Y95323D01*
X78608Y95358D01*
X78597Y95395D01*
X78593Y95435D01*
Y97438D01*
X76928D01*
Y95435D01*
X76924Y95395D01*
X76912Y95358D01*
X76894Y95323D01*
X76869Y95293D01*
X76838Y95267D01*
X76804Y95249D01*
X76766Y95237D01*
X76727Y95234D01*
X73774D01*
X73735Y95237D01*
X73697Y95249D01*
X73662Y95267D01*
X73632Y95293D01*
X73607Y95323D01*
X73588Y95358D01*
X73577Y95395D01*
X73573Y95435D01*
Y99801D01*
X71825D01*
X71786Y99804D01*
X71748Y99816D01*
X71714Y99835D01*
X71683Y99859D01*
X71658Y99890D01*
X71640Y99925D01*
X71628Y99962D01*
X71624Y100002D01*
Y105513D01*
X71628Y105553D01*
X71640Y105590D01*
X71658Y105625D01*
X71683Y105656D01*
X71714Y105681D01*
X71748Y105699D01*
X71786Y105710D01*
X71825Y105714D01*
X73573D01*
Y108856D01*
X71825D01*
X71786Y108860D01*
X71748Y108871D01*
X71714Y108890D01*
X71683Y108915D01*
X71658Y108945D01*
X71640Y108980D01*
X71628Y109018D01*
X71624Y109057D01*
Y114568D01*
X71628Y114608D01*
X71640Y114645D01*
X71658Y114680D01*
X71683Y114711D01*
X71714Y114736D01*
X71748Y114754D01*
X71786Y114766D01*
X71825Y114769D01*
X81963D01*
X82002Y114766D01*
D02*
G37*
G36*
X56466D02*
X56504Y114754D01*
X56538Y114736D01*
X56569Y114711D01*
X56594Y114680D01*
X56612Y114645D01*
X56624Y114608D01*
X56628Y114568D01*
Y109057D01*
X56624Y109018D01*
X56612Y108980D01*
X56594Y108945D01*
X56569Y108915D01*
X56538Y108890D01*
X56504Y108871D01*
X56466Y108860D01*
X56427Y108856D01*
X54679D01*
Y105714D01*
X56427D01*
X56466Y105710D01*
X56504Y105699D01*
X56538Y105681D01*
X56569Y105656D01*
X56594Y105625D01*
X56612Y105590D01*
X56624Y105553D01*
X56628Y105513D01*
Y100002D01*
X56624Y99962D01*
X56612Y99925D01*
X56594Y99890D01*
X56569Y99859D01*
X56538Y99835D01*
X56504Y99816D01*
X56466Y99804D01*
X56427Y99801D01*
X54679D01*
Y95435D01*
X54675Y95395D01*
X54664Y95358D01*
X54645Y95323D01*
X54620Y95293D01*
X54590Y95267D01*
X54555Y95249D01*
X54517Y95237D01*
X54478Y95234D01*
X51525D01*
X51486Y95237D01*
X51448Y95249D01*
X51414Y95267D01*
X51383Y95293D01*
X51358Y95323D01*
X51340Y95358D01*
X51328Y95395D01*
X51324Y95435D01*
Y97438D01*
X49659D01*
Y95435D01*
X49655Y95395D01*
X49644Y95358D01*
X49625Y95323D01*
X49600Y95293D01*
X49570Y95267D01*
X49535Y95249D01*
X49498Y95237D01*
X49458Y95234D01*
X46289D01*
X46250Y95237D01*
X46212Y95249D01*
X46177Y95267D01*
X46147Y95293D01*
X46122Y95323D01*
X46103Y95358D01*
X46092Y95395D01*
X46088Y95435D01*
Y114568D01*
X46092Y114608D01*
X46103Y114645D01*
X46122Y114680D01*
X46147Y114711D01*
X46177Y114736D01*
X46212Y114754D01*
X46250Y114766D01*
X46289Y114769D01*
X56427D01*
X56466Y114766D01*
D02*
G37*
G36*
X44753D02*
X44791Y114754D01*
X44826Y114736D01*
X44856Y114711D01*
X44881Y114680D01*
X44900Y114645D01*
X44911Y114608D01*
X44915Y114568D01*
Y95435D01*
X44911Y95395D01*
X44900Y95358D01*
X44881Y95323D01*
X44856Y95293D01*
X44826Y95267D01*
X44791Y95249D01*
X44753Y95237D01*
X44714Y95234D01*
X41545D01*
X41506Y95237D01*
X41468Y95249D01*
X41433Y95267D01*
X41403Y95293D01*
X41378Y95323D01*
X41359Y95358D01*
X41348Y95395D01*
X41344Y95435D01*
Y97438D01*
X39679D01*
Y95435D01*
X39675Y95395D01*
X39664Y95358D01*
X39645Y95323D01*
X39620Y95293D01*
X39590Y95267D01*
X39555Y95249D01*
X39517Y95237D01*
X39478Y95234D01*
X36525D01*
X36486Y95237D01*
X36448Y95249D01*
X36414Y95267D01*
X36383Y95293D01*
X36358Y95323D01*
X36340Y95358D01*
X36328Y95395D01*
X36324Y95435D01*
Y99801D01*
X34576D01*
X34537Y99804D01*
X34499Y99816D01*
X34465Y99835D01*
X34434Y99859D01*
X34409Y99890D01*
X34391Y99925D01*
X34379Y99962D01*
X34375Y100002D01*
Y105513D01*
X34379Y105553D01*
X34391Y105590D01*
X34409Y105625D01*
X34434Y105656D01*
X34465Y105681D01*
X34499Y105699D01*
X34537Y105710D01*
X34576Y105714D01*
X36324D01*
Y108856D01*
X34576D01*
X34537Y108860D01*
X34499Y108871D01*
X34465Y108890D01*
X34434Y108915D01*
X34409Y108945D01*
X34391Y108980D01*
X34379Y109018D01*
X34375Y109057D01*
Y114568D01*
X34379Y114608D01*
X34391Y114645D01*
X34409Y114680D01*
X34434Y114711D01*
X34465Y114736D01*
X34499Y114754D01*
X34537Y114766D01*
X34576Y114769D01*
X44714D01*
X44753Y114766D01*
D02*
G37*
G36*
X420616Y114468D02*
X420654Y114456D01*
X420688Y114438D01*
X420719Y114413D01*
X420744Y114382D01*
X420762Y114348D01*
X420774Y114310D01*
X420778Y114271D01*
Y108759D01*
X420774Y108720D01*
X420762Y108682D01*
X420744Y108647D01*
X420719Y108617D01*
X420688Y108592D01*
X420654Y108573D01*
X420616Y108562D01*
X420577Y108558D01*
X418829D01*
Y105417D01*
X420577D01*
X420616Y105413D01*
X420654Y105401D01*
X420688Y105383D01*
X420719Y105358D01*
X420744Y105327D01*
X420762Y105293D01*
X420774Y105255D01*
X420778Y105216D01*
Y99704D01*
X420774Y99665D01*
X420762Y99627D01*
X420744Y99592D01*
X420719Y99562D01*
X420688Y99537D01*
X420654Y99518D01*
X420616Y99507D01*
X420577Y99503D01*
X418829D01*
Y95137D01*
X418825Y95098D01*
X418814Y95060D01*
X418795Y95025D01*
X418770Y94995D01*
X418740Y94970D01*
X418705Y94951D01*
X418667Y94940D01*
X418628Y94936D01*
X415675D01*
X415636Y94940D01*
X415598Y94951D01*
X415563Y94970D01*
X415533Y94995D01*
X415508Y95025D01*
X415489Y95060D01*
X415478Y95098D01*
X415474Y95137D01*
Y97141D01*
X413809D01*
Y95137D01*
X413805Y95098D01*
X413794Y95060D01*
X413775Y95025D01*
X413750Y94995D01*
X413720Y94970D01*
X413685Y94951D01*
X413647Y94940D01*
X413608Y94936D01*
X410439D01*
X410400Y94940D01*
X410362Y94951D01*
X410327Y94970D01*
X410297Y94995D01*
X410272Y95025D01*
X410253Y95060D01*
X410242Y95098D01*
X410238Y95137D01*
Y114271D01*
X410242Y114310D01*
X410253Y114348D01*
X410272Y114382D01*
X410297Y114413D01*
X410327Y114438D01*
X410362Y114456D01*
X410400Y114468D01*
X410439Y114472D01*
X420577D01*
X420616Y114468D01*
D02*
G37*
G36*
X408903D02*
X408941Y114456D01*
X408976Y114438D01*
X409006Y114413D01*
X409031Y114382D01*
X409050Y114348D01*
X409061Y114310D01*
X409065Y114271D01*
Y95137D01*
X409061Y95098D01*
X409050Y95060D01*
X409031Y95025D01*
X409006Y94995D01*
X408976Y94970D01*
X408941Y94951D01*
X408903Y94940D01*
X408864Y94936D01*
X405695D01*
X405656Y94940D01*
X405618Y94951D01*
X405583Y94970D01*
X405553Y94995D01*
X405528Y95025D01*
X405509Y95060D01*
X405498Y95098D01*
X405494Y95137D01*
Y97141D01*
X403829D01*
Y95137D01*
X403825Y95098D01*
X403814Y95060D01*
X403795Y95025D01*
X403770Y94995D01*
X403740Y94970D01*
X403705Y94951D01*
X403667Y94940D01*
X403628Y94936D01*
X400675D01*
X400636Y94940D01*
X400598Y94951D01*
X400563Y94970D01*
X400533Y94995D01*
X400508Y95025D01*
X400490Y95060D01*
X400478Y95098D01*
X400474Y95137D01*
Y99503D01*
X398726D01*
X398687Y99507D01*
X398649Y99518D01*
X398615Y99537D01*
X398584Y99562D01*
X398559Y99592D01*
X398541Y99627D01*
X398529Y99665D01*
X398525Y99704D01*
Y105216D01*
X398529Y105255D01*
X398541Y105293D01*
X398559Y105327D01*
X398584Y105358D01*
X398615Y105383D01*
X398649Y105401D01*
X398687Y105413D01*
X398726Y105417D01*
X400474D01*
Y108558D01*
X398726D01*
X398687Y108562D01*
X398649Y108573D01*
X398615Y108592D01*
X398584Y108617D01*
X398559Y108647D01*
X398541Y108682D01*
X398529Y108720D01*
X398525Y108759D01*
Y114271D01*
X398529Y114310D01*
X398541Y114348D01*
X398559Y114382D01*
X398584Y114413D01*
X398615Y114438D01*
X398649Y114456D01*
X398687Y114468D01*
X398726Y114472D01*
X408864D01*
X408903Y114468D01*
D02*
G37*
G36*
X383367D02*
X383405Y114456D01*
X383440Y114438D01*
X383470Y114413D01*
X383495Y114382D01*
X383514Y114348D01*
X383525Y114310D01*
X383529Y114271D01*
Y108759D01*
X383525Y108720D01*
X383514Y108682D01*
X383495Y108647D01*
X383470Y108617D01*
X383440Y108592D01*
X383405Y108573D01*
X383367Y108562D01*
X383328Y108558D01*
X381580D01*
Y105417D01*
X383328D01*
X383367Y105413D01*
X383405Y105401D01*
X383440Y105383D01*
X383470Y105358D01*
X383495Y105327D01*
X383514Y105293D01*
X383525Y105255D01*
X383529Y105216D01*
Y99704D01*
X383525Y99665D01*
X383514Y99627D01*
X383495Y99592D01*
X383470Y99562D01*
X383440Y99537D01*
X383405Y99518D01*
X383367Y99507D01*
X383328Y99503D01*
X381580D01*
Y95137D01*
X381576Y95098D01*
X381565Y95060D01*
X381546Y95025D01*
X381521Y94995D01*
X381491Y94970D01*
X381456Y94951D01*
X381418Y94940D01*
X381379Y94936D01*
X378426D01*
X378387Y94940D01*
X378349Y94951D01*
X378315Y94970D01*
X378284Y94995D01*
X378259Y95025D01*
X378241Y95060D01*
X378229Y95098D01*
X378225Y95137D01*
Y97141D01*
X376560D01*
Y95137D01*
X376556Y95098D01*
X376545Y95060D01*
X376526Y95025D01*
X376501Y94995D01*
X376471Y94970D01*
X376436Y94951D01*
X376399Y94940D01*
X376359Y94936D01*
X373190D01*
X373151Y94940D01*
X373113Y94951D01*
X373078Y94970D01*
X373048Y94995D01*
X373023Y95025D01*
X373004Y95060D01*
X372993Y95098D01*
X372989Y95137D01*
Y114271D01*
X372993Y114310D01*
X373004Y114348D01*
X373023Y114382D01*
X373048Y114413D01*
X373078Y114438D01*
X373113Y114456D01*
X373151Y114468D01*
X373190Y114472D01*
X383328D01*
X383367Y114468D01*
D02*
G37*
G36*
X371655D02*
X371692Y114456D01*
X371727Y114438D01*
X371757Y114413D01*
X371782Y114382D01*
X371801Y114348D01*
X371812Y114310D01*
X371816Y114271D01*
Y95137D01*
X371812Y95098D01*
X371801Y95060D01*
X371782Y95025D01*
X371757Y94995D01*
X371727Y94970D01*
X371692Y94951D01*
X371655Y94940D01*
X371615Y94936D01*
X368446D01*
X368407Y94940D01*
X368369Y94951D01*
X368334Y94970D01*
X368304Y94995D01*
X368279Y95025D01*
X368260Y95060D01*
X368249Y95098D01*
X368245Y95137D01*
Y97141D01*
X366580D01*
Y95137D01*
X366576Y95098D01*
X366565Y95060D01*
X366546Y95025D01*
X366521Y94995D01*
X366491Y94970D01*
X366456Y94951D01*
X366418Y94940D01*
X366379Y94936D01*
X363426D01*
X363387Y94940D01*
X363349Y94951D01*
X363315Y94970D01*
X363284Y94995D01*
X363259Y95025D01*
X363241Y95060D01*
X363229Y95098D01*
X363225Y95137D01*
Y99503D01*
X361477D01*
X361438Y99507D01*
X361401Y99518D01*
X361366Y99537D01*
X361335Y99562D01*
X361310Y99592D01*
X361292Y99627D01*
X361280Y99665D01*
X361277Y99704D01*
Y105216D01*
X361280Y105255D01*
X361292Y105293D01*
X361310Y105327D01*
X361335Y105358D01*
X361366Y105383D01*
X361401Y105401D01*
X361438Y105413D01*
X361477Y105417D01*
X363225D01*
Y108558D01*
X361477D01*
X361438Y108562D01*
X361401Y108573D01*
X361366Y108592D01*
X361335Y108617D01*
X361310Y108647D01*
X361292Y108682D01*
X361280Y108720D01*
X361277Y108759D01*
Y114271D01*
X361280Y114310D01*
X361292Y114348D01*
X361310Y114382D01*
X361335Y114413D01*
X361366Y114438D01*
X361401Y114456D01*
X361438Y114468D01*
X361477Y114472D01*
X371615D01*
X371655Y114468D01*
D02*
G37*
G54D115*
X19291Y242323D02*
X19208Y243327D01*
X18961Y244304D01*
X18556Y245227D01*
X18005Y246071D01*
X17322Y246813D01*
X16527Y247431D01*
X15640Y247911D01*
X14687Y248238D01*
X13693Y248404D01*
X12685D01*
X11691Y248238D01*
X10738Y247911D01*
X9851Y247431D01*
X9056Y246813D01*
X8373Y246071D01*
X7822Y245227D01*
X7417Y244304D01*
X7170Y243327D01*
X7087Y242323D01*
X7170Y241318D01*
X7417Y240341D01*
X7822Y239418D01*
X8373Y238575D01*
X9056Y237833D01*
X9851Y237214D01*
X10738Y236735D01*
X11691Y236407D01*
X12685Y236241D01*
X13693D01*
X14687Y236407D01*
X15640Y236735D01*
X16527Y237214D01*
X17322Y237833D01*
X18005Y238575D01*
X18556Y239418D01*
X18961Y240341D01*
X19208Y241318D01*
X19291Y242323D01*
X221602Y267100D02*
X221519Y268104D01*
X221272Y269081D01*
X220867Y270004D01*
X220316Y270848D01*
X219633Y271590D01*
X218838Y272209D01*
X217951Y272688D01*
X216998Y273016D01*
X216004Y273182D01*
X214996D01*
X214002Y273016D01*
X213049Y272688D01*
X212162Y272209D01*
X211367Y271590D01*
X210684Y270848D01*
X210133Y270004D01*
X209728Y269081D01*
X209481Y268104D01*
X209398Y267100D01*
X209481Y266096D01*
X209728Y265119D01*
X210133Y264196D01*
X210684Y263352D01*
X211367Y262610D01*
X212162Y261991D01*
X213049Y261512D01*
X214002Y261184D01*
X214996Y261018D01*
X216004D01*
X216998Y261184D01*
X217951Y261512D01*
X218838Y261991D01*
X219633Y262610D01*
X220316Y263352D01*
X220867Y264196D01*
X221272Y265119D01*
X221519Y266096D01*
X221602Y267100D01*
X43002Y433300D02*
X42919Y434304D01*
X42672Y435281D01*
X42267Y436204D01*
X41716Y437048D01*
X41033Y437790D01*
X40238Y438409D01*
X39351Y438888D01*
X38398Y439216D01*
X37404Y439382D01*
X36396D01*
X35402Y439216D01*
X34449Y438888D01*
X33562Y438409D01*
X32767Y437790D01*
X32084Y437048D01*
X31533Y436204D01*
X31128Y435281D01*
X30881Y434304D01*
X30798Y433300D01*
X30881Y432296D01*
X31128Y431319D01*
X31533Y430396D01*
X32084Y429552D01*
X32767Y428810D01*
X33562Y428191D01*
X34449Y427712D01*
X35402Y427384D01*
X36396Y427218D01*
X37404D01*
X38398Y427384D01*
X39351Y427712D01*
X40238Y428191D01*
X41033Y428810D01*
X41716Y429552D01*
X42267Y430396D01*
X42672Y431319D01*
X42919Y432296D01*
X43002Y433300D01*
G54D116*
X368793Y322158D02*
D03*
G54D117*
X309253Y236517D02*
D03*
X243476Y236417D02*
D03*
X436853Y378635D02*
D03*
G54D118*
X449763Y474737D02*
D03*
Y466863D02*
D03*
X455275Y461351D02*
D03*
X463149D02*
D03*
X468661Y466863D02*
D03*
Y474737D02*
D03*
X463149Y480249D02*
D03*
X455275D02*
D03*
X340158Y18937D02*
D03*
Y11063D02*
D03*
X345669Y5551D02*
D03*
X353543D02*
D03*
X359055Y11063D02*
D03*
Y18937D02*
D03*
X353543Y24449D02*
D03*
X345669D02*
D03*
X742049Y10863D02*
D03*
Y18737D02*
D03*
X736537Y24249D02*
D03*
X728663D02*
D03*
X723151Y18737D02*
D03*
Y10863D02*
D03*
X728663Y5351D02*
D03*
X736537D02*
D03*
X24449Y11063D02*
D03*
Y18937D02*
D03*
X18937Y24449D02*
D03*
X11063D02*
D03*
X5551Y18937D02*
D03*
Y11063D02*
D03*
X11063Y5551D02*
D03*
X18937D02*
D03*
X24449Y466863D02*
D03*
Y474737D02*
D03*
X18937Y480249D02*
D03*
X11063D02*
D03*
X5551Y474737D02*
D03*
Y466863D02*
D03*
X11063Y461351D02*
D03*
X18937D02*
D03*
X742049Y466863D02*
D03*
Y474737D02*
D03*
X736537Y480249D02*
D03*
X728663D02*
D03*
X723151Y474737D02*
D03*
Y466863D02*
D03*
X728663Y461351D02*
D03*
X736537D02*
D03*
G54D119*
X266469Y433573D02*
D03*
X262729D02*
D03*
X276141Y397439D02*
D03*
X272352D02*
D03*
X304169Y433573D02*
D03*
X300429D02*
D03*
X313841Y397439D02*
D03*
X310051D02*
D03*
X341868Y433573D02*
D03*
X338128D02*
D03*
X351541Y397439D02*
D03*
X347751D02*
D03*
X379568Y433573D02*
D03*
X375828D02*
D03*
X417268D02*
D03*
X413528D02*
D03*
X426940Y397439D02*
D03*
X423151D02*
D03*
X386026Y312990D02*
D03*
X382236D02*
D03*
X357246Y333740D02*
D03*
X361035D02*
D03*
X401857Y337977D02*
D03*
X398067D02*
D03*
X389067Y337976D02*
D03*
X392857D02*
D03*
X392492Y334053D02*
D03*
X396232D02*
D03*
X386026Y323324D02*
D03*
X382236D02*
D03*
X379530Y332773D02*
D03*
X375740D02*
D03*
X430120Y342517D02*
D03*
X426330D02*
D03*
X385927Y279919D02*
D03*
X382137D02*
D03*
X386026Y269961D02*
D03*
X382236D02*
D03*
X466773Y345765D02*
D03*
X470563D02*
D03*
X470573Y341533D02*
D03*
X466783D02*
D03*
X481665Y294880D02*
D03*
X477925D02*
D03*
X481709Y290746D02*
D03*
X477919D02*
D03*
X477910Y277458D02*
D03*
X481700D02*
D03*
X477910Y273423D02*
D03*
X481700D02*
D03*
X682946Y74054D02*
D03*
X686686D02*
D03*
X694248Y61468D02*
D03*
X698038D02*
D03*
X694148Y65864D02*
D03*
X697938D02*
D03*
X690070Y65708D02*
D03*
X686280D02*
D03*
X686266Y61566D02*
D03*
X690056D02*
D03*
X600709Y168269D02*
D03*
X604499D02*
D03*
X648957Y168300D02*
D03*
X652746D02*
D03*
X665746Y168200D02*
D03*
X661957D02*
D03*
X641457Y146100D02*
D03*
X637667D02*
D03*
X560157D02*
D03*
X556367D02*
D03*
X518819Y147895D02*
D03*
X522609D02*
D03*
X600119D02*
D03*
X603909D02*
D03*
X617423Y168171D02*
D03*
X613633D02*
D03*
X640228Y220669D02*
D03*
X644017D02*
D03*
X604125Y220966D02*
D03*
X607915D02*
D03*
X567657Y168300D02*
D03*
X571447D02*
D03*
X584446Y168200D02*
D03*
X580657D02*
D03*
X558928Y220669D02*
D03*
X562717D02*
D03*
X522825Y220966D02*
D03*
X526615D02*
D03*
X441525D02*
D03*
X445315D02*
D03*
X477628Y220669D02*
D03*
X481417D02*
D03*
X536123Y168171D02*
D03*
X532333D02*
D03*
X519410Y168269D02*
D03*
X523199D02*
D03*
X322774Y168300D02*
D03*
X326564D02*
D03*
X503147Y168200D02*
D03*
X499357D02*
D03*
X486357Y168300D02*
D03*
X490146D02*
D03*
X454823Y168171D02*
D03*
X451033D02*
D03*
X438109Y168269D02*
D03*
X441899D02*
D03*
X437519Y147895D02*
D03*
X441309D02*
D03*
X478857Y146100D02*
D03*
X475067D02*
D03*
X404301Y168002D02*
D03*
X408091D02*
D03*
X421091Y167902D02*
D03*
X417301D02*
D03*
X286586Y234643D02*
D03*
X290326D02*
D03*
X274136Y235726D02*
D03*
X270346D02*
D03*
X264637Y235923D02*
D03*
X260897D02*
D03*
X272511Y231887D02*
D03*
X268771D02*
D03*
X395572Y220372D02*
D03*
X399362D02*
D03*
X367619Y218797D02*
D03*
X371409D02*
D03*
X343839Y219131D02*
D03*
X340049D02*
D03*
X340159Y215050D02*
D03*
X343948D02*
D03*
X372767Y167873D02*
D03*
X368977D02*
D03*
X356054Y167972D02*
D03*
X359844D02*
D03*
X396801Y145802D02*
D03*
X393011D02*
D03*
X355463Y147598D02*
D03*
X359253D02*
D03*
X273936Y147895D02*
D03*
X277726D02*
D03*
X315274Y146100D02*
D03*
X311484D02*
D03*
X339564Y168200D02*
D03*
X335774D02*
D03*
X314045Y220669D02*
D03*
X317835D02*
D03*
X286092Y219094D02*
D03*
X289882D02*
D03*
X262176Y219429D02*
D03*
X258386D02*
D03*
X258631Y215348D02*
D03*
X262421D02*
D03*
X304148Y224828D02*
D03*
X307938D02*
D03*
X274527Y168269D02*
D03*
X278317D02*
D03*
X291240Y168171D02*
D03*
X287450D02*
D03*
X239834Y258757D02*
D03*
X236094D02*
D03*
X231832Y265057D02*
D03*
X235622D02*
D03*
X231832Y269191D02*
D03*
X235622D02*
D03*
X230582Y281395D02*
D03*
X234322D02*
D03*
X231989Y220765D02*
D03*
X235779D02*
D03*
X209185Y168267D02*
D03*
X205395D02*
D03*
X192471Y168365D02*
D03*
X196261D02*
D03*
X257508Y168296D02*
D03*
X253718D02*
D03*
X240719Y168396D02*
D03*
X244508D02*
D03*
X233219Y146196D02*
D03*
X229429D02*
D03*
X191881Y147991D02*
D03*
X195670D02*
D03*
X204037Y219190D02*
D03*
X207826D02*
D03*
X176576Y215444D02*
D03*
X180366D02*
D03*
X180120Y219525D02*
D03*
X176330D02*
D03*
X150462Y220669D02*
D03*
X154252D02*
D03*
X125127Y238287D02*
D03*
X121337D02*
D03*
X114360Y220966D02*
D03*
X118150D02*
D03*
X159191Y168300D02*
D03*
X162981D02*
D03*
X175981Y168200D02*
D03*
X172191D02*
D03*
X127657Y168171D02*
D03*
X123868D02*
D03*
X110944Y168269D02*
D03*
X114734D02*
D03*
X151691Y146100D02*
D03*
X147901D02*
D03*
X110354Y147895D02*
D03*
X114143D02*
D03*
X68671Y220669D02*
D03*
X72461D02*
D03*
X32568Y220966D02*
D03*
X36358D02*
D03*
X29153Y168269D02*
D03*
X32943D02*
D03*
X42076Y168171D02*
D03*
X45866D02*
D03*
X90400Y168200D02*
D03*
X94190D02*
D03*
X81190Y168300D02*
D03*
X77400D02*
D03*
X66110Y146100D02*
D03*
X69900D02*
D03*
X32352Y147895D02*
D03*
X28562D02*
D03*
X726080Y73508D02*
D03*
X729820D02*
D03*
X385451Y397439D02*
D03*
X389241D02*
D03*
X64818Y356576D02*
D03*
X61028D02*
D03*
X607946Y206400D02*
D03*
X604157D02*
D03*
X607972Y212403D02*
D03*
X604183D02*
D03*
X604173Y202598D02*
D03*
X607912D02*
D03*
X526647Y206400D02*
D03*
X522857D02*
D03*
X526673Y212403D02*
D03*
X522883D02*
D03*
X522872Y202598D02*
D03*
X526613D02*
D03*
X445346Y206400D02*
D03*
X441557D02*
D03*
X445372Y212403D02*
D03*
X441583D02*
D03*
X441573Y202598D02*
D03*
X445312D02*
D03*
X363291Y206102D02*
D03*
X359501D02*
D03*
X352096Y206987D02*
D03*
X348307D02*
D03*
X359517Y202301D02*
D03*
X363257D02*
D03*
X281764Y206400D02*
D03*
X277974D02*
D03*
X270569Y207285D02*
D03*
X266779D02*
D03*
X277990Y202598D02*
D03*
X281730D02*
D03*
X199708Y206496D02*
D03*
X195919D02*
D03*
X188514Y207381D02*
D03*
X184724D02*
D03*
X195934Y202694D02*
D03*
X199674D02*
D03*
X118181Y206400D02*
D03*
X114391D02*
D03*
X118207Y212403D02*
D03*
X114417D02*
D03*
X114407Y202598D02*
D03*
X118147D02*
D03*
X481763Y266139D02*
D03*
X477974D02*
D03*
X478200Y306297D02*
D03*
X481990D02*
D03*
X570609Y307576D02*
D03*
X566819D02*
D03*
X538870Y300687D02*
D03*
X535080D02*
D03*
X509244Y302261D02*
D03*
X505454D02*
D03*
X133976Y238307D02*
D03*
X130187D02*
D03*
X32626Y212403D02*
D03*
X36416D02*
D03*
X32600Y206400D02*
D03*
X36390D02*
D03*
X95973Y253942D02*
D03*
X92183D02*
D03*
X151839Y284060D02*
D03*
X155628D02*
D03*
X121661Y254490D02*
D03*
X117871D02*
D03*
X710450Y61928D02*
D03*
X714239D02*
D03*
X722050Y61828D02*
D03*
X718260D02*
D03*
X722039Y66228D02*
D03*
X718250D02*
D03*
X714250Y66128D02*
D03*
X710460D02*
D03*
X570654Y466685D02*
D03*
X566865D02*
D03*
X138491Y305998D02*
D03*
X134702D02*
D03*
X14868Y223268D02*
D03*
X18658D02*
D03*
X137800Y326048D02*
D03*
X134010D02*
D03*
X90800Y358200D02*
D03*
X94590D02*
D03*
X104000D02*
D03*
X100210D02*
D03*
X288389Y336688D02*
D03*
X284599D02*
D03*
X277463Y291139D02*
D03*
X273673D02*
D03*
X138305Y298214D02*
D03*
X142095D02*
D03*
X36000Y311248D02*
D03*
X39790D02*
D03*
X36000Y307148D02*
D03*
X39790D02*
D03*
X35101Y283548D02*
D03*
X38891D02*
D03*
X38900Y271348D02*
D03*
X35110D02*
D03*
X38900Y275348D02*
D03*
X35110D02*
D03*
X297596Y336659D02*
D03*
X301385D02*
D03*
X54314Y422394D02*
D03*
X58104D02*
D03*
X54316Y426500D02*
D03*
X58105D02*
D03*
X537856Y349031D02*
D03*
X534066D02*
D03*
X58133Y430490D02*
D03*
X54343D02*
D03*
X64100Y380100D02*
D03*
X67890D02*
D03*
X64100Y384500D02*
D03*
X67890D02*
D03*
X119600Y381800D02*
D03*
X123390D02*
D03*
X119500Y376300D02*
D03*
X123290D02*
D03*
X130600Y357100D02*
D03*
X126810D02*
D03*
X412896Y296061D02*
D03*
X409106D02*
D03*
X442805Y389027D02*
D03*
X439015D02*
D03*
X420249Y374846D02*
D03*
X416460D02*
D03*
X273230Y323718D02*
D03*
X269441D02*
D03*
X271248Y336560D02*
D03*
X267458D02*
D03*
X263075Y323403D02*
D03*
X259286D02*
D03*
X310136Y323846D02*
D03*
X306346D02*
D03*
X297242Y324198D02*
D03*
X301031D02*
D03*
X288376Y324315D02*
D03*
X284587D02*
D03*
X14269Y263666D02*
D03*
X18059D02*
D03*
X263388Y336316D02*
D03*
X259598D02*
D03*
X420249Y379570D02*
D03*
X416460D02*
D03*
X188300Y404037D02*
D03*
X192090D02*
D03*
X182900Y403937D02*
D03*
X179110D02*
D03*
X267452Y280670D02*
D03*
X263662D02*
D03*
X323552Y336016D02*
D03*
X319762D02*
D03*
X321442Y323848D02*
D03*
X317652D02*
D03*
X286967Y280694D02*
D03*
X283177D02*
D03*
X333442Y328135D02*
D03*
X337232D02*
D03*
X337262Y331973D02*
D03*
X333472D02*
D03*
X333462Y324198D02*
D03*
X337252D02*
D03*
X40156Y404214D02*
D03*
X36366D02*
D03*
X55314Y407064D02*
D03*
X59104D02*
D03*
X310174Y336622D02*
D03*
X306384D02*
D03*
X561314Y468851D02*
D03*
X557524D02*
D03*
X557235Y464818D02*
D03*
X553445D02*
D03*
G54D120*
X261844Y429694D02*
D03*
X264599D02*
D03*
X256259Y399604D02*
D03*
X259015D02*
D03*
X299543Y429694D02*
D03*
X302299D02*
D03*
X293959Y399604D02*
D03*
X296715D02*
D03*
X337243Y429694D02*
D03*
X339999D02*
D03*
X331659Y399604D02*
D03*
X334415D02*
D03*
X341732Y392997D02*
D03*
X344488D02*
D03*
X369359Y399604D02*
D03*
X372115D02*
D03*
X374943Y429694D02*
D03*
X377699D02*
D03*
X412643D02*
D03*
X415399D02*
D03*
X352750Y295470D02*
D03*
X349994D02*
D03*
X624903Y231791D02*
D03*
X627659D02*
D03*
X607876Y230906D02*
D03*
X605120D02*
D03*
X607580Y224803D02*
D03*
X604824D02*
D03*
X526576Y230906D02*
D03*
X523820D02*
D03*
X523524Y224803D02*
D03*
X526280D02*
D03*
X462303Y231791D02*
D03*
X465059D02*
D03*
X445276Y230906D02*
D03*
X442520D02*
D03*
X442224Y224803D02*
D03*
X444980D02*
D03*
X306370Y246651D02*
D03*
X309125D02*
D03*
X357905Y220962D02*
D03*
X360661D02*
D03*
X344342Y222872D02*
D03*
X341586D02*
D03*
X348555Y211120D02*
D03*
X345799D02*
D03*
X276378Y221260D02*
D03*
X279134D02*
D03*
X262815Y223169D02*
D03*
X260059D02*
D03*
X267028Y211417D02*
D03*
X264272D02*
D03*
X245149Y246651D02*
D03*
X247905D02*
D03*
X194322Y221356D02*
D03*
X197078D02*
D03*
X184972Y211513D02*
D03*
X182216D02*
D03*
X180759Y223265D02*
D03*
X178004D02*
D03*
X135138Y231791D02*
D03*
X137894D02*
D03*
X118110Y230906D02*
D03*
X115354D02*
D03*
X115059Y224803D02*
D03*
X117815D02*
D03*
X543603Y231791D02*
D03*
X546359D02*
D03*
X53347D02*
D03*
X56102D02*
D03*
X36319Y230906D02*
D03*
X33563D02*
D03*
X33268Y224803D02*
D03*
X36024D02*
D03*
X248791Y257281D02*
D03*
X246035D02*
D03*
X409815Y399604D02*
D03*
X407059D02*
D03*
X629972Y217285D02*
D03*
X632728D02*
D03*
X548672D02*
D03*
X551428D02*
D03*
X467372D02*
D03*
X470128D02*
D03*
X385316Y216987D02*
D03*
X388072D02*
D03*
X303789Y217285D02*
D03*
X306545D02*
D03*
X221733Y217381D02*
D03*
X224489D02*
D03*
X140206Y217285D02*
D03*
X142962D02*
D03*
X385602Y392911D02*
D03*
X382846D02*
D03*
X58415Y217285D02*
D03*
X61171D02*
D03*
X89370Y249705D02*
D03*
X92126D02*
D03*
X298130Y392406D02*
D03*
X300886D02*
D03*
X353445Y337402D02*
D03*
X356201D02*
D03*
G54D121*
X251633Y414141D02*
D03*
Y417931D02*
D03*
X280999Y430103D02*
D03*
Y433843D02*
D03*
X318699Y430103D02*
D03*
Y433843D02*
D03*
X356398Y430103D02*
D03*
Y433843D02*
D03*
X394098Y430103D02*
D03*
Y433843D02*
D03*
X431798Y430103D02*
D03*
Y433843D02*
D03*
X473647Y429109D02*
D03*
Y432898D02*
D03*
X477695Y429098D02*
D03*
Y432888D02*
D03*
X483547Y429109D02*
D03*
Y432898D02*
D03*
X404401Y302611D02*
D03*
Y306401D02*
D03*
X408830Y302655D02*
D03*
Y306395D02*
D03*
X414834Y306425D02*
D03*
Y302635D02*
D03*
X418870Y302625D02*
D03*
Y306415D02*
D03*
X371272Y306365D02*
D03*
Y310155D02*
D03*
X357775Y319109D02*
D03*
Y315319D02*
D03*
X357649Y327064D02*
D03*
Y323324D02*
D03*
X422708Y357576D02*
D03*
Y361316D02*
D03*
X418377Y357546D02*
D03*
Y361336D02*
D03*
X414047Y361346D02*
D03*
Y357557D02*
D03*
X416657Y259174D02*
D03*
Y262963D02*
D03*
X411627Y262973D02*
D03*
Y259183D02*
D03*
X396144Y259174D02*
D03*
Y262963D02*
D03*
X388555Y262891D02*
D03*
Y259151D02*
D03*
X452925Y340913D02*
D03*
Y344702D02*
D03*
X448693Y340943D02*
D03*
Y344683D02*
D03*
X682398Y52320D02*
D03*
Y48530D02*
D03*
X667657Y121800D02*
D03*
Y125590D02*
D03*
X637857Y153900D02*
D03*
Y150110D02*
D03*
X641457Y124900D02*
D03*
Y121110D02*
D03*
X629957Y121100D02*
D03*
Y124890D02*
D03*
X603692Y143890D02*
D03*
Y140100D02*
D03*
X603389Y121300D02*
D03*
Y117510D02*
D03*
X586357Y121800D02*
D03*
Y125590D02*
D03*
X556557Y153900D02*
D03*
Y150110D02*
D03*
X560157Y124900D02*
D03*
Y121110D02*
D03*
X548657Y121100D02*
D03*
Y124890D02*
D03*
X522089Y121300D02*
D03*
Y117510D02*
D03*
X522392Y143890D02*
D03*
Y140100D02*
D03*
X625247Y224300D02*
D03*
Y228090D02*
D03*
X616684Y228043D02*
D03*
Y224254D02*
D03*
X535384Y228043D02*
D03*
Y224254D02*
D03*
X462647Y224300D02*
D03*
Y228090D02*
D03*
X454084Y228043D02*
D03*
Y224254D02*
D03*
X515031Y230972D02*
D03*
Y234761D02*
D03*
X441092Y143890D02*
D03*
Y140100D02*
D03*
X505057Y121800D02*
D03*
Y125590D02*
D03*
X475257Y153900D02*
D03*
Y150110D02*
D03*
X478857Y124900D02*
D03*
Y121110D02*
D03*
X467357Y121100D02*
D03*
Y124890D02*
D03*
X440789Y121300D02*
D03*
Y117510D02*
D03*
X298425Y239439D02*
D03*
Y243228D02*
D03*
X294460Y239466D02*
D03*
Y243206D02*
D03*
X298425Y229084D02*
D03*
Y232874D02*
D03*
X294362Y232872D02*
D03*
Y229132D02*
D03*
X282452Y235756D02*
D03*
Y231966D02*
D03*
X278318Y235756D02*
D03*
Y231966D02*
D03*
X269067Y243827D02*
D03*
Y240037D02*
D03*
X264834Y243779D02*
D03*
Y240039D02*
D03*
X321232Y238353D02*
D03*
Y242143D02*
D03*
X325366Y238384D02*
D03*
Y242124D02*
D03*
X324873Y233856D02*
D03*
Y230116D02*
D03*
X423001Y121502D02*
D03*
Y125292D02*
D03*
X393201Y153602D02*
D03*
Y149812D02*
D03*
X359036Y143592D02*
D03*
Y139802D02*
D03*
X396801Y124602D02*
D03*
Y120812D02*
D03*
X385301Y120802D02*
D03*
Y124592D02*
D03*
X358734Y121002D02*
D03*
Y117212D02*
D03*
X277509Y143890D02*
D03*
Y140100D02*
D03*
X311674Y153900D02*
D03*
Y150110D02*
D03*
X315274Y124900D02*
D03*
Y121110D02*
D03*
X303774Y121100D02*
D03*
Y124890D02*
D03*
X341474Y121800D02*
D03*
Y125590D02*
D03*
X255090Y228541D02*
D03*
Y232281D02*
D03*
X231862Y253688D02*
D03*
Y257478D02*
D03*
X239933Y266632D02*
D03*
Y270372D02*
D03*
X232748Y230116D02*
D03*
Y233856D02*
D03*
X229619Y153996D02*
D03*
Y150206D02*
D03*
X277207Y121300D02*
D03*
Y117510D02*
D03*
X259419Y121896D02*
D03*
Y125686D02*
D03*
X233219Y124996D02*
D03*
Y121206D02*
D03*
X221719Y121196D02*
D03*
Y124986D02*
D03*
X195454Y143986D02*
D03*
Y140196D02*
D03*
X195151Y121396D02*
D03*
Y117606D02*
D03*
X135482Y224300D02*
D03*
Y228090D02*
D03*
X126919Y228043D02*
D03*
Y224254D02*
D03*
X148091Y153900D02*
D03*
Y150110D02*
D03*
X113927Y143890D02*
D03*
Y140100D02*
D03*
X177891Y121800D02*
D03*
Y125590D02*
D03*
X151691Y124900D02*
D03*
Y121110D02*
D03*
X140191Y121100D02*
D03*
Y124890D02*
D03*
X113624Y121300D02*
D03*
Y117510D02*
D03*
X543947Y224300D02*
D03*
Y228090D02*
D03*
X99775Y214988D02*
D03*
Y211198D02*
D03*
X53690Y224300D02*
D03*
Y228090D02*
D03*
X45128Y228043D02*
D03*
Y224254D02*
D03*
X96100Y125590D02*
D03*
Y121800D02*
D03*
X66300Y150110D02*
D03*
Y153900D02*
D03*
X69900Y121110D02*
D03*
Y124900D02*
D03*
X58400Y124890D02*
D03*
Y121100D02*
D03*
X32135Y140100D02*
D03*
Y143890D02*
D03*
X31833Y117510D02*
D03*
Y121300D02*
D03*
X129500Y372410D02*
D03*
Y376200D02*
D03*
X672019Y418379D02*
D03*
Y414589D02*
D03*
X181976Y285517D02*
D03*
Y289306D02*
D03*
X707750Y53228D02*
D03*
Y49438D02*
D03*
X225100Y392138D02*
D03*
Y388348D02*
D03*
X52016Y265191D02*
D03*
Y268981D02*
D03*
X237472Y377291D02*
D03*
Y373501D02*
D03*
X60567Y263300D02*
D03*
Y267090D02*
D03*
X176779Y285723D02*
D03*
Y289513D02*
D03*
X64433Y263300D02*
D03*
Y267090D02*
D03*
X68300Y263300D02*
D03*
Y267090D02*
D03*
X56700Y267100D02*
D03*
Y263310D02*
D03*
X167803Y289208D02*
D03*
Y285418D02*
D03*
X213400Y392248D02*
D03*
Y388458D02*
D03*
X221000Y389648D02*
D03*
Y393438D02*
D03*
X217300Y393948D02*
D03*
Y390158D02*
D03*
X291683Y283986D02*
D03*
Y280196D02*
D03*
X229893Y289299D02*
D03*
Y285509D02*
D03*
X236881Y292350D02*
D03*
Y288561D02*
D03*
X231763Y277094D02*
D03*
Y273305D02*
D03*
X443476Y368138D02*
D03*
Y364348D02*
D03*
X209400Y386848D02*
D03*
Y390638D02*
D03*
X493769Y355836D02*
D03*
Y359626D02*
D03*
Y351860D02*
D03*
Y348070D02*
D03*
X136000Y368400D02*
D03*
Y372190D02*
D03*
X129500Y381700D02*
D03*
Y385490D02*
D03*
X629748Y414244D02*
D03*
Y418034D02*
D03*
X580811Y345997D02*
D03*
Y349787D02*
D03*
X536810Y342191D02*
D03*
Y338401D02*
D03*
X580911Y342197D02*
D03*
Y338408D02*
D03*
X629548Y410244D02*
D03*
Y406454D02*
D03*
X202452Y422091D02*
D03*
Y418302D02*
D03*
X177409Y394090D02*
D03*
Y390300D02*
D03*
X271652Y285212D02*
D03*
Y281422D02*
D03*
X291661Y291649D02*
D03*
Y287859D02*
D03*
X52016Y255841D02*
D03*
Y259631D02*
D03*
X22567Y402479D02*
D03*
Y406269D02*
D03*
X592635Y454518D02*
D03*
Y458308D02*
D03*
Y462318D02*
D03*
Y466108D02*
D03*
G54D122*
X251633Y403836D02*
D03*
Y410529D02*
D03*
X289626Y399801D02*
D03*
Y406494D02*
D03*
X327519Y398718D02*
D03*
Y405411D02*
D03*
X364921Y399505D02*
D03*
Y406198D02*
D03*
X402421Y399801D02*
D03*
Y406494D02*
D03*
X399972Y307183D02*
D03*
Y300490D02*
D03*
X394854Y300490D02*
D03*
Y307183D02*
D03*
X406814Y264466D02*
D03*
Y257773D02*
D03*
X401686Y257773D02*
D03*
Y264466D02*
D03*
X457551Y346749D02*
D03*
Y340057D02*
D03*
X462177Y340057D02*
D03*
Y346749D02*
D03*
X620917Y229884D02*
D03*
Y223191D02*
D03*
X612354Y229884D02*
D03*
Y223191D02*
D03*
X539616Y229884D02*
D03*
Y223191D02*
D03*
X531053Y229884D02*
D03*
Y223191D02*
D03*
X458317Y229884D02*
D03*
Y223191D02*
D03*
X449754Y229884D02*
D03*
Y223191D02*
D03*
X131151Y229884D02*
D03*
Y223191D02*
D03*
X122588Y229884D02*
D03*
Y223191D02*
D03*
X49360Y229884D02*
D03*
Y223191D02*
D03*
X40797Y229884D02*
D03*
Y223191D02*
D03*
X33633Y242517D02*
D03*
Y249210D02*
D03*
X287452Y290995D02*
D03*
Y284302D02*
D03*
X282152Y284302D02*
D03*
Y290995D02*
D03*
X262252Y284576D02*
D03*
Y291268D02*
D03*
X267652Y291168D02*
D03*
Y284476D02*
D03*
G54D123*
X263444Y402673D02*
D03*
X266003D02*
D03*
X268563D02*
D03*
X271122D02*
D03*
X273681D02*
D03*
X276240D02*
D03*
X278799D02*
D03*
X263444Y425114D02*
D03*
X266003D02*
D03*
X268563D02*
D03*
X271122D02*
D03*
X273681D02*
D03*
X276240D02*
D03*
X278799D02*
D03*
X301144Y402673D02*
D03*
X303703D02*
D03*
X306262D02*
D03*
X308821D02*
D03*
X311381D02*
D03*
X313939D02*
D03*
X316499D02*
D03*
X301144Y425114D02*
D03*
X303703D02*
D03*
X306262D02*
D03*
X308821D02*
D03*
X311381D02*
D03*
X313939D02*
D03*
X316499D02*
D03*
X338844Y402673D02*
D03*
X341403D02*
D03*
X343962D02*
D03*
X346521D02*
D03*
X349080D02*
D03*
X351639D02*
D03*
X354198D02*
D03*
X338844Y425114D02*
D03*
X341403D02*
D03*
X343962D02*
D03*
X346521D02*
D03*
X349080D02*
D03*
X351639D02*
D03*
X354198D02*
D03*
X376544Y402673D02*
D03*
X379103D02*
D03*
X381662D02*
D03*
X384221D02*
D03*
X386780D02*
D03*
X389339D02*
D03*
X391898D02*
D03*
X376544Y425114D02*
D03*
X379103D02*
D03*
X381662D02*
D03*
X384221D02*
D03*
X386780D02*
D03*
X389339D02*
D03*
X391898D02*
D03*
X414244Y402673D02*
D03*
X416803D02*
D03*
X419362D02*
D03*
X421921D02*
D03*
X424480D02*
D03*
X427039D02*
D03*
X429598D02*
D03*
X414244Y425114D02*
D03*
X416803D02*
D03*
X419362D02*
D03*
X421921D02*
D03*
X424480D02*
D03*
X427039D02*
D03*
X429598D02*
D03*
G54D124*
X276358Y433273D02*
D03*
X271004D02*
D03*
X314058D02*
D03*
X308703D02*
D03*
X351757D02*
D03*
X346403D02*
D03*
X389457D02*
D03*
X384103D02*
D03*
X427157D02*
D03*
X421803D02*
D03*
X438437Y341533D02*
D03*
X443791D02*
D03*
X482964Y261120D02*
D03*
X477610D02*
D03*
X681983Y79436D02*
D03*
X687337D02*
D03*
X616507Y174765D02*
D03*
X611153D02*
D03*
X649780Y174700D02*
D03*
X655134D02*
D03*
X568479D02*
D03*
X573834D02*
D03*
X535207Y174765D02*
D03*
X529853D02*
D03*
X453907D02*
D03*
X448553D02*
D03*
X323597Y174700D02*
D03*
X328951D02*
D03*
X487180D02*
D03*
X492534D02*
D03*
X405124Y174402D02*
D03*
X410478D02*
D03*
X371851Y174468D02*
D03*
X366497D02*
D03*
X290324Y174765D02*
D03*
X284970D02*
D03*
X208269Y174861D02*
D03*
X202915D02*
D03*
X241541Y174796D02*
D03*
X246896D02*
D03*
X126742Y174765D02*
D03*
X121387D02*
D03*
X160014Y174700D02*
D03*
X165368D02*
D03*
X39596Y174765D02*
D03*
X44950D02*
D03*
X83577Y174700D02*
D03*
X78223D02*
D03*
X602984Y190415D02*
D03*
X608338D02*
D03*
X663554Y188939D02*
D03*
X658200D02*
D03*
X602885Y196911D02*
D03*
X608239D02*
D03*
X663554Y194450D02*
D03*
X658200D02*
D03*
X521684Y190415D02*
D03*
X527038D02*
D03*
X582254Y188939D02*
D03*
X576900D02*
D03*
X521585Y196911D02*
D03*
X526939D02*
D03*
X582254Y194450D02*
D03*
X576900D02*
D03*
X440383Y190415D02*
D03*
X445738D02*
D03*
X500954Y188939D02*
D03*
X495600D02*
D03*
X440285Y196911D02*
D03*
X445639D02*
D03*
X500954Y194450D02*
D03*
X495600D02*
D03*
X358328Y190117D02*
D03*
X363682D02*
D03*
X418899Y188641D02*
D03*
X413544D02*
D03*
X358229Y196613D02*
D03*
X363584D02*
D03*
X418899Y194153D02*
D03*
X413544D02*
D03*
X276801Y190415D02*
D03*
X282155D02*
D03*
X337372Y188939D02*
D03*
X332017D02*
D03*
X276702Y196911D02*
D03*
X282057D02*
D03*
X337372Y194450D02*
D03*
X332017D02*
D03*
X194745Y190511D02*
D03*
X200100D02*
D03*
X255316Y189034D02*
D03*
X249962D02*
D03*
X194647Y197007D02*
D03*
X200001D02*
D03*
X255316Y194546D02*
D03*
X249962D02*
D03*
X113218Y190415D02*
D03*
X118572D02*
D03*
X173789Y188939D02*
D03*
X168435D02*
D03*
X113120Y196911D02*
D03*
X118474D02*
D03*
X173789Y194450D02*
D03*
X168435D02*
D03*
X86643D02*
D03*
X91998D02*
D03*
X36683Y196911D02*
D03*
X31328D02*
D03*
X86643Y188939D02*
D03*
X91998D02*
D03*
X36781Y190415D02*
D03*
X31427D02*
D03*
X108077Y366300D02*
D03*
X102723D02*
D03*
Y416900D02*
D03*
X108077D02*
D03*
X162889Y390555D02*
D03*
X157534D02*
D03*
X122471Y357748D02*
D03*
X117117D02*
D03*
X592917Y281225D02*
D03*
X598272D02*
D03*
X730315Y78578D02*
D03*
X724961D02*
D03*
X503141Y313857D02*
D03*
X497787D02*
D03*
X532925Y305509D02*
D03*
X538279D02*
D03*
G54D125*
X393742Y393620D02*
D03*
X397286D02*
D03*
X260504Y332281D02*
D03*
X264047D02*
D03*
X65244Y277367D02*
D03*
X61701D02*
D03*
X72232Y255812D02*
D03*
X68689D02*
D03*
X288555Y328443D02*
D03*
X292098D02*
D03*
X294165Y332478D02*
D03*
X297708D02*
D03*
X310504Y327950D02*
D03*
X314047D02*
D03*
X274283Y327753D02*
D03*
X270740D02*
D03*
X39372Y303041D02*
D03*
X35828D02*
D03*
X35028Y287548D02*
D03*
X38572D02*
D03*
Y263277D02*
D03*
X35028D02*
D03*
Y279448D02*
D03*
X38572D02*
D03*
Y267348D02*
D03*
X35028D02*
D03*
X325366Y327753D02*
D03*
X321822D02*
D03*
X353374Y314590D02*
D03*
X349831D02*
D03*
Y318724D02*
D03*
X353374D02*
D03*
X25750Y263854D02*
D03*
X22207D02*
D03*
X35828Y315248D02*
D03*
X39372D02*
D03*
G54D126*
X481295Y422698D02*
D03*
G54D127*
X485036Y419746D02*
D03*
X477555Y425651D02*
D03*
Y423683D02*
D03*
Y421714D02*
D03*
Y419746D02*
D03*
X485036Y425651D02*
D03*
Y423683D02*
D03*
Y421714D02*
D03*
G54D128*
X483195Y415998D02*
D03*
X479425D02*
D03*
X263191Y327820D02*
D03*
X259421D02*
D03*
X137170Y302156D02*
D03*
X133400D02*
D03*
X32630Y202500D02*
D03*
X36400D02*
D03*
X593694Y286438D02*
D03*
X597464D02*
D03*
X19415Y190575D02*
D03*
X15645D02*
D03*
X271951Y332576D02*
D03*
X268181D02*
D03*
X213566Y418600D02*
D03*
X209796D02*
D03*
X140370Y364400D02*
D03*
X136600D02*
D03*
X64200Y399400D02*
D03*
X67970D02*
D03*
X137370Y318248D02*
D03*
X133600D02*
D03*
X197900Y386448D02*
D03*
X201670D02*
D03*
X138270Y322148D02*
D03*
X134500D02*
D03*
X161600Y385600D02*
D03*
X157830D02*
D03*
X483249Y362996D02*
D03*
X479479D02*
D03*
X522607Y350822D02*
D03*
X526377D02*
D03*
X570362Y351097D02*
D03*
X566592D02*
D03*
X432757Y368727D02*
D03*
X436526D02*
D03*
X288371Y332554D02*
D03*
X284601D02*
D03*
X300984Y328349D02*
D03*
X297214D02*
D03*
X310178Y332390D02*
D03*
X306408D02*
D03*
X319770Y331874D02*
D03*
X323539D02*
D03*
X333492Y335910D02*
D03*
X337262D02*
D03*
X195304Y436344D02*
D03*
X191534D02*
D03*
X57906Y277248D02*
D03*
X54136D02*
D03*
X574739Y466685D02*
D03*
X578509D02*
D03*
X553509Y460878D02*
D03*
X557279D02*
D03*
X588578Y466488D02*
D03*
X584808D02*
D03*
G54D129*
X488695Y415428D02*
D03*
Y419198D02*
D03*
X516630Y383320D02*
D03*
Y387090D02*
D03*
X455087Y412921D02*
D03*
Y416691D02*
D03*
X455187Y420851D02*
D03*
Y424621D02*
D03*
X467387Y416721D02*
D03*
Y420491D02*
D03*
X257652Y284552D02*
D03*
Y288322D02*
D03*
X140200Y372100D02*
D03*
Y368330D02*
D03*
X147132Y292167D02*
D03*
Y288397D02*
D03*
X68000Y409270D02*
D03*
Y405500D02*
D03*
X118600Y405000D02*
D03*
Y408770D02*
D03*
X139400Y334318D02*
D03*
Y330548D02*
D03*
X139900Y348948D02*
D03*
Y345178D02*
D03*
X236708Y333900D02*
D03*
Y337670D02*
D03*
X222900Y285348D02*
D03*
Y289118D02*
D03*
X139900Y352748D02*
D03*
Y356518D02*
D03*
X216400Y288970D02*
D03*
Y285200D02*
D03*
X239933Y324180D02*
D03*
Y327950D02*
D03*
X205600Y386178D02*
D03*
Y389948D02*
D03*
X137626Y288833D02*
D03*
Y292603D02*
D03*
X47400Y319600D02*
D03*
Y323370D02*
D03*
X614718Y349022D02*
D03*
Y352792D02*
D03*
X122736Y408780D02*
D03*
Y405010D02*
D03*
X610647Y409865D02*
D03*
Y413635D02*
D03*
X151240Y292161D02*
D03*
Y288391D02*
D03*
X56960Y364295D02*
D03*
Y368065D02*
D03*
X56966Y360256D02*
D03*
Y356486D02*
D03*
X277952Y285048D02*
D03*
Y281278D02*
D03*
X72200Y263030D02*
D03*
Y266800D02*
D03*
X290526Y275690D02*
D03*
Y271920D02*
D03*
X592977Y444736D02*
D03*
Y448506D02*
D03*
X561235Y460818D02*
D03*
Y464588D02*
D03*
G54D130*
X485709Y407504D02*
D03*
X492796D02*
D03*
G54D131*
X505212Y373520D02*
D03*
Y378874D02*
D03*
X510912Y373520D02*
D03*
Y378874D02*
D03*
X516730Y378867D02*
D03*
Y373513D02*
D03*
X418771Y289348D02*
D03*
Y294702D02*
D03*
X478811Y311001D02*
D03*
Y316356D02*
D03*
X554873Y163624D02*
D03*
Y168978D02*
D03*
X549262Y163624D02*
D03*
Y168978D02*
D03*
X636172Y163624D02*
D03*
Y168978D02*
D03*
X630562Y163624D02*
D03*
Y168978D02*
D03*
X668257Y134223D02*
D03*
Y139577D02*
D03*
X640557Y133723D02*
D03*
Y139077D02*
D03*
X630757Y134523D02*
D03*
Y139877D02*
D03*
X603200Y128598D02*
D03*
Y133953D02*
D03*
X586957Y134223D02*
D03*
Y139577D02*
D03*
X559257Y133723D02*
D03*
Y139077D02*
D03*
X549457Y134523D02*
D03*
Y139877D02*
D03*
X521900Y128598D02*
D03*
Y133953D02*
D03*
X309990Y163624D02*
D03*
Y168978D02*
D03*
X304380Y163624D02*
D03*
Y168978D02*
D03*
X473572Y163624D02*
D03*
Y168978D02*
D03*
X467962Y163624D02*
D03*
Y168978D02*
D03*
X505657Y134223D02*
D03*
Y139577D02*
D03*
X477957Y133723D02*
D03*
Y139077D02*
D03*
X468157Y134523D02*
D03*
Y139877D02*
D03*
X440600Y128598D02*
D03*
Y133953D02*
D03*
X391517Y163326D02*
D03*
Y168680D02*
D03*
X385907Y163326D02*
D03*
Y168680D02*
D03*
X423601Y133925D02*
D03*
Y139279D02*
D03*
X395901Y133425D02*
D03*
Y138779D02*
D03*
X386101Y134225D02*
D03*
Y139579D02*
D03*
X358544Y128301D02*
D03*
Y133655D02*
D03*
X277017Y128598D02*
D03*
Y133953D02*
D03*
X314374Y133723D02*
D03*
Y139077D02*
D03*
X304574Y134523D02*
D03*
Y139877D02*
D03*
X342074Y134223D02*
D03*
Y139577D02*
D03*
X227934Y163719D02*
D03*
Y169074D02*
D03*
X222324Y163719D02*
D03*
Y169074D02*
D03*
X260018Y134319D02*
D03*
Y139673D02*
D03*
X232318Y133819D02*
D03*
Y139173D02*
D03*
X222518Y134619D02*
D03*
Y139973D02*
D03*
X194962Y128694D02*
D03*
Y134049D02*
D03*
X146407Y163624D02*
D03*
Y168978D02*
D03*
X140797Y163624D02*
D03*
Y168978D02*
D03*
X150791Y133723D02*
D03*
Y139077D02*
D03*
X140991Y134523D02*
D03*
Y139877D02*
D03*
X113435Y128598D02*
D03*
Y133953D02*
D03*
X178491Y134223D02*
D03*
Y139577D02*
D03*
X64616Y168978D02*
D03*
Y163624D02*
D03*
X59005Y168978D02*
D03*
Y163624D02*
D03*
X96700Y139577D02*
D03*
Y134223D02*
D03*
X69000Y139077D02*
D03*
Y133723D02*
D03*
X59200Y134523D02*
D03*
Y139877D02*
D03*
X31643Y133953D02*
D03*
Y128598D02*
D03*
X620100Y347153D02*
D03*
Y352507D02*
D03*
X608318Y179962D02*
D03*
Y185317D02*
D03*
X527018Y179962D02*
D03*
Y185317D02*
D03*
X445718Y179962D02*
D03*
Y185317D02*
D03*
X363663Y179665D02*
D03*
Y185019D02*
D03*
X282135Y179962D02*
D03*
Y185317D02*
D03*
X200080Y180058D02*
D03*
Y185413D02*
D03*
X118553Y179962D02*
D03*
Y185317D02*
D03*
X36761Y179962D02*
D03*
Y185317D02*
D03*
X557005Y432807D02*
D03*
Y438161D02*
D03*
X142300Y294125D02*
D03*
Y288771D02*
D03*
X138287Y409985D02*
D03*
Y415339D02*
D03*
X164798Y412969D02*
D03*
Y418324D02*
D03*
X35900Y297425D02*
D03*
Y292071D02*
D03*
X134600Y345925D02*
D03*
Y340571D02*
D03*
X561980Y301257D02*
D03*
Y306612D02*
D03*
X676547Y414402D02*
D03*
Y419757D02*
D03*
X134600Y335825D02*
D03*
Y330471D02*
D03*
G54D132*
X523196Y375970D02*
D03*
Y387781D02*
D03*
G54D133*
X523983Y381876D02*
D03*
G54D134*
X368893Y322158D02*
D03*
G54D135*
X362473Y319205D02*
D03*
Y325111D02*
D03*
X375313D02*
D03*
Y319205D02*
D03*
X315672Y240354D02*
D03*
Y238386D02*
D03*
Y236417D02*
D03*
Y234449D02*
D03*
Y232480D02*
D03*
X302832D02*
D03*
Y234449D02*
D03*
Y236417D02*
D03*
Y238386D02*
D03*
Y240354D02*
D03*
X249896Y240253D02*
D03*
Y238285D02*
D03*
Y236316D02*
D03*
Y234348D02*
D03*
Y232380D02*
D03*
X237056D02*
D03*
Y234348D02*
D03*
Y236316D02*
D03*
Y238285D02*
D03*
Y240253D02*
D03*
X430456Y374798D02*
D03*
Y376767D02*
D03*
Y378735D02*
D03*
Y380704D02*
D03*
Y382672D02*
D03*
X443251D02*
D03*
Y380704D02*
D03*
Y378735D02*
D03*
Y376767D02*
D03*
Y374798D02*
D03*
G54D136*
X364956Y328578D02*
D03*
X366925D02*
D03*
X368893D02*
D03*
X370862D02*
D03*
X372830D02*
D03*
Y315738D02*
D03*
X370862D02*
D03*
X368893D02*
D03*
X366925D02*
D03*
X364956D02*
D03*
X306299Y242837D02*
D03*
X312205D02*
D03*
Y229997D02*
D03*
X306299D02*
D03*
X240523Y242737D02*
D03*
X246429D02*
D03*
Y229896D02*
D03*
X240523D02*
D03*
X439806Y372338D02*
D03*
X433901D02*
D03*
Y385133D02*
D03*
X439806D02*
D03*
G54D137*
X413706Y313076D02*
D03*
Y318076D02*
D03*
Y328076D02*
D03*
X391979Y313076D02*
D03*
Y318076D02*
D03*
Y328076D02*
D03*
X413706Y323076D02*
D03*
X391979D02*
D03*
X391732Y279961D02*
D03*
X413459D02*
D03*
X391732Y284961D02*
D03*
Y274961D02*
D03*
Y269961D02*
D03*
X413459Y284961D02*
D03*
Y274961D02*
D03*
Y269961D02*
D03*
G54D138*
X384421Y337202D02*
D03*
Y333659D02*
D03*
X278079Y324887D02*
D03*
Y328430D02*
D03*
X106496Y255020D02*
D03*
Y251476D02*
D03*
G54D139*
X412373Y350913D02*
D03*
Y348157D02*
D03*
X391606Y294584D02*
D03*
Y297340D02*
D03*
X282846Y240746D02*
D03*
Y243501D02*
D03*
X114161Y252269D02*
D03*
Y255025D02*
D03*
X110913Y252269D02*
D03*
Y255025D02*
D03*
X99496Y252367D02*
D03*
Y255123D02*
D03*
X242012Y387175D02*
D03*
Y384419D02*
D03*
X314004Y337091D02*
D03*
Y334335D02*
D03*
X277783Y337288D02*
D03*
Y334532D02*
D03*
G54D140*
X418673Y344289D02*
D03*
Y335955D02*
D03*
X675464Y425347D02*
D03*
Y433681D02*
D03*
G54D141*
X404992Y291336D02*
D03*
X413326D02*
D03*
X484741Y301480D02*
D03*
X476407D02*
D03*
X476579Y255509D02*
D03*
X484913D02*
D03*
X513850Y302753D02*
D03*
X522184D02*
D03*
X5768Y412876D02*
D03*
X14101D02*
D03*
Y400676D02*
D03*
X5768D02*
D03*
Y406776D02*
D03*
X14101D02*
D03*
X577696Y302264D02*
D03*
X569362D02*
D03*
X544095D02*
D03*
X552428D02*
D03*
G54D142*
X476448Y286415D02*
D03*
X483141D02*
D03*
X476448Y281789D02*
D03*
X483141D02*
D03*
X662865Y220472D02*
D03*
X656173D02*
D03*
X608543Y216635D02*
D03*
X601850D02*
D03*
X581914Y216908D02*
D03*
X588607D02*
D03*
X520550Y216635D02*
D03*
X527243D02*
D03*
X439250D02*
D03*
X445943D02*
D03*
X500719Y218289D02*
D03*
X507412D02*
D03*
X418466Y220151D02*
D03*
X425158D02*
D03*
X334815Y222832D02*
D03*
X328122D02*
D03*
X352098Y211612D02*
D03*
X358791D02*
D03*
X357019Y216730D02*
D03*
X363712D02*
D03*
X346921Y221297D02*
D03*
X353614D02*
D03*
X275492Y217028D02*
D03*
X282185D02*
D03*
X270571Y211910D02*
D03*
X277264D02*
D03*
X265394Y221595D02*
D03*
X272087D02*
D03*
X252529Y222141D02*
D03*
X245836D02*
D03*
X183338Y221690D02*
D03*
X190031D02*
D03*
X193437Y217124D02*
D03*
X200130D02*
D03*
X188515Y212005D02*
D03*
X195208D02*
D03*
X164354Y221435D02*
D03*
X171046D02*
D03*
X112085Y216635D02*
D03*
X118778D02*
D03*
X91730Y220279D02*
D03*
X98423D02*
D03*
X30294Y216635D02*
D03*
X36987D02*
D03*
X348945Y331481D02*
D03*
X342252D02*
D03*
X342350Y336796D02*
D03*
X349043D02*
D03*
G54D143*
X639054Y354740D02*
D03*
Y338966D02*
D03*
X662357Y88900D02*
D03*
Y73126D02*
D03*
X662257Y64100D02*
D03*
Y48326D02*
D03*
X606057Y88700D02*
D03*
Y72926D02*
D03*
Y64000D02*
D03*
Y48226D02*
D03*
X581057Y88900D02*
D03*
Y73126D02*
D03*
X580957Y64100D02*
D03*
Y48326D02*
D03*
X524757Y88700D02*
D03*
Y72926D02*
D03*
Y64000D02*
D03*
Y48226D02*
D03*
X499757Y88900D02*
D03*
Y73126D02*
D03*
X499657Y64100D02*
D03*
Y48326D02*
D03*
X443457Y88700D02*
D03*
Y72926D02*
D03*
Y64000D02*
D03*
Y48226D02*
D03*
X417701Y88602D02*
D03*
Y72828D02*
D03*
X417601Y63802D02*
D03*
Y48028D02*
D03*
X361401Y88402D02*
D03*
Y72628D02*
D03*
Y63702D02*
D03*
Y47928D02*
D03*
X336174Y88900D02*
D03*
Y73126D02*
D03*
X336074Y64100D02*
D03*
Y48326D02*
D03*
X279874Y64000D02*
D03*
Y48226D02*
D03*
Y88700D02*
D03*
Y72926D02*
D03*
X254118Y88996D02*
D03*
Y73222D02*
D03*
X254018Y64196D02*
D03*
Y48422D02*
D03*
X197819Y88796D02*
D03*
Y73022D02*
D03*
Y64096D02*
D03*
Y48322D02*
D03*
X172591Y88900D02*
D03*
Y73126D02*
D03*
X172491Y64100D02*
D03*
Y48326D02*
D03*
X116291Y88700D02*
D03*
Y72926D02*
D03*
Y64000D02*
D03*
Y48226D02*
D03*
X90800Y88900D02*
D03*
Y73126D02*
D03*
X90700Y64100D02*
D03*
Y48326D02*
D03*
X34500Y88700D02*
D03*
Y72926D02*
D03*
Y64000D02*
D03*
Y48226D02*
D03*
X489112Y329997D02*
D03*
Y314223D02*
D03*
X575511Y314023D02*
D03*
Y329797D02*
D03*
X531412Y329597D02*
D03*
Y313823D02*
D03*
G54D144*
X680452Y96752D02*
D03*
X696226D02*
D03*
X656452Y290082D02*
D03*
X672226D02*
D03*
X731950Y96752D02*
D03*
X716176D02*
D03*
X661068Y406154D02*
D03*
X676842D02*
D03*
G54D145*
X680827Y86612D02*
D03*
X691457D02*
D03*
X657531Y182246D02*
D03*
X668161D02*
D03*
X576231D02*
D03*
X586861D02*
D03*
X494931D02*
D03*
X505561D02*
D03*
X412875Y181948D02*
D03*
X423505D02*
D03*
X331348Y182246D02*
D03*
X341978D02*
D03*
X249292Y182342D02*
D03*
X259922D02*
D03*
X167765Y182246D02*
D03*
X178395D02*
D03*
X85974D02*
D03*
X96604D02*
D03*
X588597Y266604D02*
D03*
X599030D02*
D03*
X731528Y86378D02*
D03*
X721095D02*
D03*
G54D146*
X695576Y45651D02*
D03*
X688096D02*
D03*
Y56281D02*
D03*
X691836D02*
D03*
X695576D02*
D03*
X720690Y56343D02*
D03*
X716950D02*
D03*
X713209D02*
D03*
Y45713D02*
D03*
X720690D02*
D03*
G54D147*
X667368Y158132D02*
D03*
X643746D02*
D03*
X624361D02*
D03*
X600739D02*
D03*
X586068D02*
D03*
X562446D02*
D03*
X519439D02*
D03*
X543061D02*
D03*
X341185D02*
D03*
X317563D02*
D03*
X504768D02*
D03*
X481146D02*
D03*
X438139D02*
D03*
X461761D02*
D03*
X422712Y157834D02*
D03*
X399090D02*
D03*
X356084D02*
D03*
X379706D02*
D03*
X274557Y158132D02*
D03*
X298179D02*
D03*
X259130Y158227D02*
D03*
X235507D02*
D03*
X192501D02*
D03*
X216123D02*
D03*
X110974Y158132D02*
D03*
X134596D02*
D03*
X177602D02*
D03*
X153980D02*
D03*
X52805D02*
D03*
X29183D02*
D03*
X72189D02*
D03*
X95811D02*
D03*
G54D148*
X646807Y147580D02*
D03*
X651807D02*
D03*
X656807D02*
D03*
X661807D02*
D03*
X646807Y119627D02*
D03*
X651807D02*
D03*
X656807D02*
D03*
X661807D02*
D03*
X624558Y147580D02*
D03*
X619558D02*
D03*
X614558D02*
D03*
X609558D02*
D03*
Y119627D02*
D03*
X614558D02*
D03*
X619558D02*
D03*
X624558D02*
D03*
X565507Y147580D02*
D03*
X570507D02*
D03*
X575507D02*
D03*
X580507D02*
D03*
X528258D02*
D03*
X533258D02*
D03*
X538258D02*
D03*
X543258D02*
D03*
X528258Y119627D02*
D03*
X533258D02*
D03*
X538258D02*
D03*
X543258D02*
D03*
X402151Y147283D02*
D03*
X407152D02*
D03*
X412151D02*
D03*
X417151D02*
D03*
X446958Y147580D02*
D03*
X451958D02*
D03*
X456958D02*
D03*
X461958D02*
D03*
X484207D02*
D03*
X489207D02*
D03*
X494207D02*
D03*
X499207D02*
D03*
X484207Y119627D02*
D03*
X489207D02*
D03*
X494207D02*
D03*
X499207D02*
D03*
X446958D02*
D03*
X451958D02*
D03*
X456958D02*
D03*
X461958D02*
D03*
X364903Y147283D02*
D03*
X369903D02*
D03*
X374903D02*
D03*
X379903D02*
D03*
X364903Y119330D02*
D03*
X369903D02*
D03*
X374903D02*
D03*
X379903D02*
D03*
X402151D02*
D03*
X407152D02*
D03*
X412151D02*
D03*
X417151D02*
D03*
X283376Y147580D02*
D03*
X288376D02*
D03*
X293376D02*
D03*
X298376D02*
D03*
X320624Y119627D02*
D03*
X325624D02*
D03*
X330624D02*
D03*
X335624D02*
D03*
X320624Y147580D02*
D03*
X325624D02*
D03*
X330624D02*
D03*
X335624D02*
D03*
X238569Y147676D02*
D03*
X243569D02*
D03*
X248569D02*
D03*
X253569D02*
D03*
X283376Y119627D02*
D03*
X288376D02*
D03*
X293376D02*
D03*
X298376D02*
D03*
X238569Y119723D02*
D03*
X243569D02*
D03*
X248569D02*
D03*
X253569D02*
D03*
X201320Y147676D02*
D03*
X206320D02*
D03*
X211320D02*
D03*
X216320D02*
D03*
X201320Y119723D02*
D03*
X206320D02*
D03*
X211320D02*
D03*
X216320D02*
D03*
X157042Y147580D02*
D03*
X162042D02*
D03*
X167042D02*
D03*
X172042D02*
D03*
X119793D02*
D03*
X124793D02*
D03*
X129793D02*
D03*
X134793D02*
D03*
X119793Y119627D02*
D03*
X124793D02*
D03*
X129793D02*
D03*
X134793D02*
D03*
X157042D02*
D03*
X162042D02*
D03*
X167042D02*
D03*
X172042D02*
D03*
X565507D02*
D03*
X570507D02*
D03*
X575507D02*
D03*
X580507D02*
D03*
X38002Y147580D02*
D03*
X43002D02*
D03*
X48002D02*
D03*
X53002D02*
D03*
X75250D02*
D03*
X80250D02*
D03*
X85250D02*
D03*
X90250D02*
D03*
X75250Y119627D02*
D03*
X80250D02*
D03*
X85250D02*
D03*
X90250D02*
D03*
X38002D02*
D03*
X43002D02*
D03*
X48002D02*
D03*
X53002D02*
D03*
G54D149*
X635857Y123815D02*
D03*
Y113185D02*
D03*
X554557Y123815D02*
D03*
Y113185D02*
D03*
X473257Y123815D02*
D03*
Y113185D02*
D03*
X391201Y123517D02*
D03*
Y112887D02*
D03*
X309674Y123815D02*
D03*
Y113185D02*
D03*
X227619Y123911D02*
D03*
Y113281D02*
D03*
X146091Y123815D02*
D03*
Y113185D02*
D03*
X64300Y123815D02*
D03*
Y113185D02*
D03*
X627588Y353486D02*
D03*
Y343054D02*
D03*
G54D150*
X279403Y243729D02*
D03*
G54D151*
X277435D02*
D03*
X275466D02*
D03*
X273498D02*
D03*
X279403Y240462D02*
D03*
X277435D02*
D03*
X275466D02*
D03*
X273498D02*
D03*
G54D152*
X309252Y236417D02*
D03*
X243476Y236316D02*
D03*
G54D153*
X634157Y52301D02*
D03*
Y83600D02*
D03*
X552857D02*
D03*
Y52301D02*
D03*
X389501Y83302D02*
D03*
Y52003D02*
D03*
X471557Y83600D02*
D03*
Y52301D02*
D03*
X307974Y83600D02*
D03*
Y52301D02*
D03*
X225919Y83696D02*
D03*
Y52397D02*
D03*
X144391Y83600D02*
D03*
Y52301D02*
D03*
X62600Y83600D02*
D03*
Y52301D02*
D03*
G54D154*
X349902Y40157D02*
D03*
X703248Y12205D02*
D03*
G54D155*
X521151Y258561D02*
D03*
X515801D02*
D03*
G54D156*
X77883Y185730D02*
D03*
Y187698D02*
D03*
Y189667D02*
D03*
Y191635D02*
D03*
Y193604D02*
D03*
Y195572D02*
D03*
Y197541D02*
D03*
Y199509D02*
D03*
Y201478D02*
D03*
Y203447D02*
D03*
Y205415D02*
D03*
Y207383D02*
D03*
X45600D02*
D03*
Y205415D02*
D03*
Y203447D02*
D03*
Y201478D02*
D03*
Y199509D02*
D03*
Y197541D02*
D03*
Y195572D02*
D03*
Y193604D02*
D03*
Y191635D02*
D03*
Y189667D02*
D03*
Y187698D02*
D03*
Y185730D02*
D03*
X127391D02*
D03*
Y187698D02*
D03*
Y189667D02*
D03*
Y191635D02*
D03*
Y193604D02*
D03*
Y195572D02*
D03*
Y197541D02*
D03*
Y199509D02*
D03*
Y201478D02*
D03*
Y203447D02*
D03*
Y205415D02*
D03*
Y207383D02*
D03*
X159675D02*
D03*
Y205415D02*
D03*
Y203447D02*
D03*
Y201478D02*
D03*
Y199509D02*
D03*
Y197541D02*
D03*
Y195572D02*
D03*
Y193604D02*
D03*
Y191635D02*
D03*
Y189667D02*
D03*
Y187698D02*
D03*
Y185730D02*
D03*
X241202Y185826D02*
D03*
Y187794D02*
D03*
Y189763D02*
D03*
Y191731D02*
D03*
Y193700D02*
D03*
Y195668D02*
D03*
Y197637D02*
D03*
Y199605D02*
D03*
Y201574D02*
D03*
Y203542D02*
D03*
Y205511D02*
D03*
Y207479D02*
D03*
X208918D02*
D03*
Y205511D02*
D03*
Y203542D02*
D03*
Y201574D02*
D03*
Y199605D02*
D03*
Y197637D02*
D03*
Y195668D02*
D03*
Y193700D02*
D03*
Y191731D02*
D03*
Y189763D02*
D03*
Y187794D02*
D03*
Y185826D02*
D03*
X290974Y185730D02*
D03*
Y187698D02*
D03*
Y189667D02*
D03*
Y191635D02*
D03*
Y193604D02*
D03*
Y195572D02*
D03*
Y197541D02*
D03*
Y199509D02*
D03*
Y201478D02*
D03*
Y203447D02*
D03*
Y205415D02*
D03*
Y207383D02*
D03*
X323257D02*
D03*
Y205415D02*
D03*
Y203447D02*
D03*
Y201478D02*
D03*
Y199509D02*
D03*
Y197541D02*
D03*
Y195572D02*
D03*
Y193604D02*
D03*
Y191635D02*
D03*
Y189667D02*
D03*
Y187698D02*
D03*
Y185730D02*
D03*
X404785Y185432D02*
D03*
Y187401D02*
D03*
Y189369D02*
D03*
Y191338D02*
D03*
Y193306D02*
D03*
Y195275D02*
D03*
Y197243D02*
D03*
Y199212D02*
D03*
Y201180D02*
D03*
Y203149D02*
D03*
Y205117D02*
D03*
Y207086D02*
D03*
X372501D02*
D03*
Y205117D02*
D03*
Y203149D02*
D03*
Y201180D02*
D03*
Y199212D02*
D03*
Y197243D02*
D03*
Y195275D02*
D03*
Y193306D02*
D03*
Y191338D02*
D03*
Y189369D02*
D03*
Y187401D02*
D03*
Y185432D02*
D03*
X454557Y185730D02*
D03*
Y187698D02*
D03*
Y189667D02*
D03*
Y191635D02*
D03*
Y193604D02*
D03*
Y195572D02*
D03*
Y197541D02*
D03*
Y199509D02*
D03*
Y201478D02*
D03*
Y203447D02*
D03*
Y205415D02*
D03*
Y207383D02*
D03*
X486840D02*
D03*
Y205415D02*
D03*
Y203447D02*
D03*
Y201478D02*
D03*
Y199509D02*
D03*
Y197541D02*
D03*
Y195572D02*
D03*
Y193604D02*
D03*
Y191635D02*
D03*
Y189667D02*
D03*
Y187698D02*
D03*
Y185730D02*
D03*
X649440D02*
D03*
Y187698D02*
D03*
Y189667D02*
D03*
Y191635D02*
D03*
Y193604D02*
D03*
Y195572D02*
D03*
Y197541D02*
D03*
Y199509D02*
D03*
Y201478D02*
D03*
Y203447D02*
D03*
Y205415D02*
D03*
Y207383D02*
D03*
X617157D02*
D03*
Y205415D02*
D03*
Y203447D02*
D03*
Y201478D02*
D03*
Y199509D02*
D03*
Y197541D02*
D03*
Y195572D02*
D03*
Y193604D02*
D03*
Y191635D02*
D03*
Y189667D02*
D03*
Y187698D02*
D03*
Y185730D02*
D03*
X535857D02*
D03*
Y187698D02*
D03*
Y189667D02*
D03*
Y191635D02*
D03*
Y193604D02*
D03*
Y195572D02*
D03*
Y197541D02*
D03*
Y199509D02*
D03*
Y201478D02*
D03*
Y203447D02*
D03*
Y205415D02*
D03*
Y207383D02*
D03*
X568140D02*
D03*
Y205415D02*
D03*
Y203447D02*
D03*
Y201478D02*
D03*
Y199509D02*
D03*
Y197541D02*
D03*
Y195572D02*
D03*
Y193604D02*
D03*
Y191635D02*
D03*
Y189667D02*
D03*
Y187698D02*
D03*
Y185730D02*
D03*
G54D157*
X72569Y212698D02*
D03*
X70600D02*
D03*
X68632D02*
D03*
X66663D02*
D03*
X64694D02*
D03*
X62726D02*
D03*
X60757D02*
D03*
X58789D02*
D03*
X56820D02*
D03*
X54852D02*
D03*
X52883D02*
D03*
X50915D02*
D03*
Y180415D02*
D03*
X52883D02*
D03*
X54852D02*
D03*
X56820D02*
D03*
X58789D02*
D03*
X60757D02*
D03*
X62726D02*
D03*
X64694D02*
D03*
X66663D02*
D03*
X68632D02*
D03*
X70600D02*
D03*
X72569D02*
D03*
X154360D02*
D03*
X152391D02*
D03*
X150423D02*
D03*
X148454D02*
D03*
X146486D02*
D03*
X144517D02*
D03*
X142549D02*
D03*
X140580D02*
D03*
X138612D02*
D03*
X136643D02*
D03*
X134675D02*
D03*
X132706D02*
D03*
Y212698D02*
D03*
X134675D02*
D03*
X136643D02*
D03*
X138612D02*
D03*
X140580D02*
D03*
X142549D02*
D03*
X144517D02*
D03*
X146486D02*
D03*
X148454D02*
D03*
X150423D02*
D03*
X152391D02*
D03*
X154360D02*
D03*
X235887Y212794D02*
D03*
X233918D02*
D03*
X231950D02*
D03*
X229981D02*
D03*
X228013D02*
D03*
X226045D02*
D03*
X224076D02*
D03*
X222108D02*
D03*
X220139D02*
D03*
X218170D02*
D03*
X216202D02*
D03*
X214233D02*
D03*
Y180511D02*
D03*
X216202D02*
D03*
X218170D02*
D03*
X220139D02*
D03*
X222108D02*
D03*
X224076D02*
D03*
X226045D02*
D03*
X228013D02*
D03*
X229981D02*
D03*
X231950D02*
D03*
X233918D02*
D03*
X235887D02*
D03*
X317943Y180415D02*
D03*
X315974D02*
D03*
X314005D02*
D03*
X312037D02*
D03*
X310068D02*
D03*
X308100D02*
D03*
X306132D02*
D03*
X304163D02*
D03*
X302194D02*
D03*
X300226D02*
D03*
X298257D02*
D03*
X296289D02*
D03*
Y212698D02*
D03*
X298257D02*
D03*
X300226D02*
D03*
X302194D02*
D03*
X304163D02*
D03*
X306132D02*
D03*
X308100D02*
D03*
X310068D02*
D03*
X312037D02*
D03*
X314005D02*
D03*
X315974D02*
D03*
X317943D02*
D03*
X399470Y212401D02*
D03*
X397501D02*
D03*
X395533D02*
D03*
X393564D02*
D03*
X391596D02*
D03*
X389627D02*
D03*
X387659D02*
D03*
X385690D02*
D03*
X383722D02*
D03*
X381753D02*
D03*
X379785D02*
D03*
X377816D02*
D03*
Y180117D02*
D03*
X379785D02*
D03*
X381753D02*
D03*
X383722D02*
D03*
X385690D02*
D03*
X387659D02*
D03*
X389627D02*
D03*
X391596D02*
D03*
X393564D02*
D03*
X395533D02*
D03*
X397501D02*
D03*
X399470D02*
D03*
X481525Y180415D02*
D03*
X479557D02*
D03*
X477588D02*
D03*
X475620D02*
D03*
X473651D02*
D03*
X471683D02*
D03*
X469714D02*
D03*
X467746D02*
D03*
X465777D02*
D03*
X463809D02*
D03*
X461840D02*
D03*
X459872D02*
D03*
Y212698D02*
D03*
X461840D02*
D03*
X463809D02*
D03*
X465777D02*
D03*
X467746D02*
D03*
X469714D02*
D03*
X471683D02*
D03*
X473651D02*
D03*
X475620D02*
D03*
X477588D02*
D03*
X479557D02*
D03*
X481525D02*
D03*
X644125D02*
D03*
X642157D02*
D03*
X640188D02*
D03*
X638220D02*
D03*
X636251D02*
D03*
X634283D02*
D03*
X632314D02*
D03*
X630346D02*
D03*
X628377D02*
D03*
X626409D02*
D03*
X624440D02*
D03*
X622472D02*
D03*
Y180415D02*
D03*
X624440D02*
D03*
X626409D02*
D03*
X628377D02*
D03*
X630346D02*
D03*
X632314D02*
D03*
X634283D02*
D03*
X636251D02*
D03*
X638220D02*
D03*
X640188D02*
D03*
X642157D02*
D03*
X644125D02*
D03*
X562825D02*
D03*
X560857D02*
D03*
X558888D02*
D03*
X556920D02*
D03*
X554951D02*
D03*
X552983D02*
D03*
X551014D02*
D03*
X549046D02*
D03*
X547077D02*
D03*
X545109D02*
D03*
X543140D02*
D03*
X541172D02*
D03*
Y212698D02*
D03*
X543140D02*
D03*
X545109D02*
D03*
X547077D02*
D03*
X549046D02*
D03*
X551014D02*
D03*
X552983D02*
D03*
X554951D02*
D03*
X556920D02*
D03*
X558888D02*
D03*
X560857D02*
D03*
X562825D02*
D03*
G54D158*
X61742Y196557D02*
D03*
X143533D02*
D03*
X225060Y196653D02*
D03*
X307116Y196557D02*
D03*
X388643Y196259D02*
D03*
X470698Y196557D02*
D03*
X633298D02*
D03*
X551998D02*
D03*
G54D159*
X23190Y306757D02*
D03*
Y302427D02*
D03*
Y298096D02*
D03*
Y293765D02*
D03*
Y289435D02*
D03*
Y285104D02*
D03*
Y280773D02*
D03*
Y276443D02*
D03*
G54D160*
X19056Y311187D02*
D03*
G54D161*
X8859Y310990D02*
D03*
G54D162*
X17324Y270045D02*
D03*
G54D163*
X12796Y269159D02*
D03*
G54D164*
X8269Y269947D02*
D03*
G54D165*
X8002Y195515D02*
D03*
X13002D02*
D03*
X18002D02*
D03*
X23002D02*
D03*
X8002Y216775D02*
D03*
X13002D02*
D03*
X18002D02*
D03*
X23002D02*
D03*
G54D166*
X175900Y411845D02*
D03*
Y427829D02*
D03*
X180900Y411845D02*
D03*
Y427829D02*
D03*
X185900Y411845D02*
D03*
Y427829D02*
D03*
X190900Y411845D02*
D03*
Y427829D02*
D03*
X195900Y411845D02*
D03*
Y427829D02*
D03*
G54D167*
X463786Y416517D02*
D03*
Y418486D02*
D03*
Y420454D02*
D03*
X458668D02*
D03*
Y418486D02*
D03*
Y416517D02*
D03*
G54D168*
X461227Y418486D02*
D03*
G54D169*
X230035Y371959D02*
D03*
Y369990D02*
D03*
Y368022D02*
D03*
Y366054D02*
D03*
Y364085D02*
D03*
Y362117D02*
D03*
Y360148D02*
D03*
Y358179D02*
D03*
Y356211D02*
D03*
Y354242D02*
D03*
Y352274D02*
D03*
Y350306D02*
D03*
Y348337D02*
D03*
Y346369D02*
D03*
Y344400D02*
D03*
Y342431D02*
D03*
Y340463D02*
D03*
Y338494D02*
D03*
Y336526D02*
D03*
Y334558D02*
D03*
Y332589D02*
D03*
Y330621D02*
D03*
Y328652D02*
D03*
Y326683D02*
D03*
Y324715D02*
D03*
Y322746D02*
D03*
Y320778D02*
D03*
Y318810D02*
D03*
Y316841D02*
D03*
Y314872D02*
D03*
Y312904D02*
D03*
Y310935D02*
D03*
Y308967D02*
D03*
Y306998D02*
D03*
Y305030D02*
D03*
Y303061D02*
D03*
X146965D02*
D03*
Y305030D02*
D03*
Y306998D02*
D03*
Y308967D02*
D03*
Y310935D02*
D03*
Y312904D02*
D03*
Y314872D02*
D03*
Y316841D02*
D03*
Y318810D02*
D03*
Y320778D02*
D03*
Y322746D02*
D03*
Y324715D02*
D03*
Y326683D02*
D03*
Y328652D02*
D03*
Y330621D02*
D03*
Y332589D02*
D03*
Y334558D02*
D03*
Y336526D02*
D03*
Y338494D02*
D03*
Y340463D02*
D03*
Y342431D02*
D03*
Y344400D02*
D03*
Y346369D02*
D03*
Y348337D02*
D03*
Y350306D02*
D03*
Y352274D02*
D03*
Y354242D02*
D03*
Y356211D02*
D03*
Y358179D02*
D03*
Y360148D02*
D03*
Y362117D02*
D03*
Y364085D02*
D03*
Y366054D02*
D03*
Y368022D02*
D03*
Y369990D02*
D03*
Y371959D02*
D03*
G54D170*
X222949Y295975D02*
D03*
X220980D02*
D03*
X219012D02*
D03*
X217043D02*
D03*
X215075D02*
D03*
X213106D02*
D03*
X211138D02*
D03*
X209169D02*
D03*
X207201D02*
D03*
X205232D02*
D03*
X203264D02*
D03*
X201295D02*
D03*
X199327D02*
D03*
X197358D02*
D03*
X195390D02*
D03*
X193421D02*
D03*
X191453D02*
D03*
X189484D02*
D03*
X187516D02*
D03*
X185547D02*
D03*
X183579D02*
D03*
X181610D02*
D03*
X179642D02*
D03*
X177673D02*
D03*
X175705D02*
D03*
X173736D02*
D03*
X171768D02*
D03*
X169799D02*
D03*
X167831D02*
D03*
X165862D02*
D03*
X163894D02*
D03*
X161925D02*
D03*
X159957D02*
D03*
X157988D02*
D03*
X156020D02*
D03*
X154051D02*
D03*
Y379046D02*
D03*
X156020D02*
D03*
X157988D02*
D03*
X159957D02*
D03*
X161925D02*
D03*
X163894D02*
D03*
X165862D02*
D03*
X167831D02*
D03*
X169799D02*
D03*
X171768D02*
D03*
X173736D02*
D03*
X175705D02*
D03*
X177673D02*
D03*
X179642D02*
D03*
X181610D02*
D03*
X183579D02*
D03*
X185547D02*
D03*
X187516D02*
D03*
X189484D02*
D03*
X191453D02*
D03*
X193421D02*
D03*
X195390D02*
D03*
X197358D02*
D03*
X199327D02*
D03*
X201295D02*
D03*
X203264D02*
D03*
X205232D02*
D03*
X207201D02*
D03*
X209169D02*
D03*
X211138D02*
D03*
X213106D02*
D03*
X215075D02*
D03*
X217043D02*
D03*
X219012D02*
D03*
X220980D02*
D03*
X222949D02*
D03*
G54D171*
X144214Y418477D02*
D03*
X158781D02*
D03*
Y409816D02*
D03*
X144214D02*
D03*
G54D172*
X111512Y374400D02*
D03*
Y379400D02*
D03*
Y384400D02*
D03*
Y389400D02*
D03*
Y394400D02*
D03*
Y399400D02*
D03*
Y404400D02*
D03*
Y409400D02*
D03*
X75488Y374400D02*
D03*
Y379400D02*
D03*
Y384400D02*
D03*
Y389400D02*
D03*
Y394400D02*
D03*
Y399400D02*
D03*
Y404400D02*
D03*
Y409400D02*
D03*
G54D173*
X708112Y478997D02*
D03*
X37112Y477797D02*
D03*
G54D174*
X624951Y415484D02*
D03*
Y411744D02*
D03*
Y408004D02*
D03*
X614912D02*
D03*
Y411744D02*
D03*
Y415484D02*
D03*
X576711Y345738D02*
D03*
Y341997D02*
D03*
Y338257D02*
D03*
X566672D02*
D03*
Y341997D02*
D03*
Y345738D02*
D03*
X532676Y345802D02*
D03*
Y342062D02*
D03*
Y338322D02*
D03*
X522637D02*
D03*
Y342062D02*
D03*
Y345802D02*
D03*
X489548Y357878D02*
D03*
Y354137D02*
D03*
Y350397D02*
D03*
X479509D02*
D03*
Y354137D02*
D03*
Y357878D02*
D03*
G54D175*
X675858Y445327D02*
D03*
Y454058D02*
D03*
X605611Y311497D02*
D03*
Y320228D02*
D03*
X518084Y287822D02*
D03*
Y296553D02*
D03*
X561312Y311497D02*
D03*
Y320228D02*
D03*
G54D176*
X58209Y459758D02*
D03*
X49547Y475900D02*
D03*
Y459758D02*
D03*
X58209Y475900D02*
D03*
G54D177*
X59746Y384656D02*
D03*
X53053D02*
D03*
Y381506D02*
D03*
X59746D02*
D03*
G54D178*
X43971Y385050D02*
D03*
X46627D02*
D03*
X43971Y383081D02*
D03*
Y381113D02*
D03*
X46627Y383081D02*
D03*
Y381113D02*
D03*
G54D179*
X436853Y378735D02*
D03*
X538389Y284306D02*
D03*
X640062Y17618D02*
D03*
X558762D02*
D03*
X477462D02*
D03*
X395407Y17320D02*
D03*
X313879Y17618D02*
D03*
X231824Y17714D02*
D03*
X150297Y17618D02*
D03*
X68506D02*
D03*
G54D180*
X27961Y402574D02*
D03*
Y398637D02*
D03*
X35048Y400605D02*
D03*
G54D181*
X48342Y410161D02*
D03*
Y415161D02*
D03*
X22555Y410161D02*
D03*
Y415161D02*
D03*
G54D182*
X52346Y359623D02*
D03*
Y364860D02*
D03*
X133295Y288607D02*
D03*
Y293843D02*
D03*
G54D183*
X601198Y442276D02*
D03*
Y429480D02*
D03*
X614288Y442276D02*
D03*
Y429480D02*
D03*
G54D184*
X581935Y434918D02*
D03*
X566335D02*
D03*
G54D185*
X548737Y447689D02*
D03*
X511335D02*
D03*
G54D186*
X587869Y446518D02*
D03*
Y451518D02*
D03*
Y456518D02*
D03*
Y461518D02*
D03*
X567200Y446518D02*
D03*
Y451518D02*
D03*
Y456518D02*
D03*
Y461518D02*
D03*
G54D187*
X577535Y454018D02*
D03*
G54D188*
X632832Y374478D02*
D03*
X612360D02*
D03*
X640476Y295308D02*
D03*
X620004D02*
D03*
G54D189*
X601211Y347736D02*
D03*
X596211D02*
D03*
X591211D02*
D03*
X586211D02*
D03*
X542212Y347736D02*
D03*
X547212D02*
D03*
X552212D02*
D03*
X557212D02*
D03*
X499862Y348136D02*
D03*
X504862D02*
D03*
X509862D02*
D03*
X514862D02*
D03*
G54D190*
X633961Y423795D02*
D03*
Y428794D02*
D03*
Y433794D02*
D03*
Y438795D02*
D03*
G54D191*
X518520Y407236D02*
D03*
X531316D02*
D03*
X518520Y420327D02*
D03*
X531316D02*
D03*
G54D192*
X162818Y395900D02*
D03*
X157582D02*
D03*
X135605Y395893D02*
D03*
X130369D02*
D03*
X112842Y357407D02*
D03*
X107606D02*
D03*
G54D193*
X7869Y389000D02*
D03*
X16600D02*
D03*
G54D194*
X414560Y471644D02*
D03*
X428339D02*
D03*
Y451959D02*
D03*
X414560D02*
D03*
X376860D02*
D03*
X390640D02*
D03*
Y471644D02*
D03*
X376860D02*
D03*
X339160D02*
D03*
X352940D02*
D03*
Y451959D02*
D03*
X339160D02*
D03*
X301460D02*
D03*
X315240D02*
D03*
Y471644D02*
D03*
X301460D02*
D03*
X263761D02*
D03*
X277540D02*
D03*
Y451959D02*
D03*
X263761D02*
D03*
X562011Y272495D02*
D03*
Y284306D02*
D03*
X550200Y272495D02*
D03*
Y284306D02*
D03*
X538389Y272495D02*
D03*
X640062Y29429D02*
D03*
X628251Y17618D02*
D03*
Y29429D02*
D03*
X546951D02*
D03*
Y17618D02*
D03*
X558762Y29429D02*
D03*
X477462D02*
D03*
X465651Y17618D02*
D03*
Y29429D02*
D03*
X383596Y29131D02*
D03*
Y17320D02*
D03*
X395407Y29131D02*
D03*
X313879Y29429D02*
D03*
X302068Y17618D02*
D03*
Y29429D02*
D03*
X220013Y29525D02*
D03*
Y17714D02*
D03*
X231824Y29525D02*
D03*
X150297Y29429D02*
D03*
X138486Y17618D02*
D03*
Y29429D02*
D03*
X56694D02*
D03*
Y17618D02*
D03*
X68506Y29429D02*
D03*
G54D195*
X692500Y418379D02*
D03*
Y385879D02*
D03*
Y353379D02*
D03*
Y320879D02*
D03*
Y158300D02*
D03*
Y190800D02*
D03*
Y223300D02*
D03*
Y255800D02*
D03*
Y288300D02*
D03*
G54D196*
Y125800D02*
D03*
G54D197*
X379035Y377700D02*
D03*
X389035D02*
D03*
X399035D02*
D03*
X379035Y353700D02*
D03*
X389035D02*
D03*
X399035D02*
D03*
X303000Y309100D02*
D03*
X293000D02*
D03*
X275700Y353700D02*
D03*
X265700D02*
D03*
X255700D02*
D03*
X337800D02*
D03*
X347800D02*
D03*
X357800D02*
D03*
X296750D02*
D03*
X306750D02*
D03*
X316750D02*
D03*
X357800Y377700D02*
D03*
X347800D02*
D03*
X337800D02*
D03*
X316750D02*
D03*
X306750D02*
D03*
X296750D02*
D03*
X275700D02*
D03*
X265700D02*
D03*
X255700D02*
D03*
X334500Y309100D02*
D03*
X324500D02*
D03*
X271300D02*
D03*
X261300D02*
D03*
G54D198*
X436024Y285945D02*
D03*
Y275945D02*
D03*
Y265945D02*
D03*
Y327520D02*
D03*
Y317520D02*
D03*
Y307520D02*
D03*
X459842Y265945D02*
D03*
Y275945D02*
D03*
Y285945D02*
D03*
Y307421D02*
D03*
Y317421D02*
D03*
Y327421D02*
D03*
G54D199*
X668427Y239764D02*
D03*
X587127D02*
D03*
X505827D02*
D03*
X423771Y239466D02*
D03*
X364303Y244643D02*
D03*
X218397Y239860D02*
D03*
X96870Y239764D02*
D03*
X178661D02*
D03*
X314476Y268686D02*
D03*
X190100Y273400D02*
D03*
X70300Y293100D02*
D03*
Y330594D02*
D03*
G54D200*
X668427Y229764D02*
D03*
X658427Y239764D02*
D03*
Y229764D02*
D03*
X648427Y239764D02*
D03*
Y229764D02*
D03*
X638427Y239764D02*
D03*
Y229764D02*
D03*
X587127D02*
D03*
X577127Y239764D02*
D03*
Y229764D02*
D03*
X567127Y239764D02*
D03*
Y229764D02*
D03*
X557127Y239764D02*
D03*
Y229764D02*
D03*
X505827D02*
D03*
X495827Y239764D02*
D03*
Y229764D02*
D03*
X485827Y239764D02*
D03*
Y229764D02*
D03*
X475827Y239764D02*
D03*
Y229764D02*
D03*
X423771Y229466D02*
D03*
X413771Y239466D02*
D03*
Y229466D02*
D03*
X403771Y239466D02*
D03*
Y229466D02*
D03*
X393771Y239466D02*
D03*
Y229466D02*
D03*
X364303Y234643D02*
D03*
X354303Y244643D02*
D03*
Y234643D02*
D03*
X344303Y244643D02*
D03*
Y234643D02*
D03*
X334303Y244643D02*
D03*
Y234643D02*
D03*
X218397Y229860D02*
D03*
X208397Y239860D02*
D03*
Y229860D02*
D03*
X198397Y239860D02*
D03*
Y229860D02*
D03*
X188397Y239860D02*
D03*
Y229860D02*
D03*
X96870Y229764D02*
D03*
X86870Y239764D02*
D03*
Y229764D02*
D03*
X76870Y239764D02*
D03*
Y229764D02*
D03*
X66870Y239764D02*
D03*
Y229764D02*
D03*
X126969Y245787D02*
D03*
X117205D02*
D03*
X178661Y229764D02*
D03*
X168661Y239764D02*
D03*
Y229764D02*
D03*
X158661Y239764D02*
D03*
Y229764D02*
D03*
X148661Y239764D02*
D03*
Y229764D02*
D03*
X495807Y294055D02*
D03*
X505807D02*
D03*
X495807Y284055D02*
D03*
X505807D02*
D03*
X495807Y274055D02*
D03*
X505807D02*
D03*
X495807Y264055D02*
D03*
X354476Y278686D02*
D03*
Y268686D02*
D03*
X344476Y278686D02*
D03*
Y268686D02*
D03*
X334476Y278686D02*
D03*
Y268686D02*
D03*
X324476Y278686D02*
D03*
Y268686D02*
D03*
X314476Y278686D02*
D03*
X80100Y263400D02*
D03*
Y273400D02*
D03*
X90100Y263400D02*
D03*
Y273400D02*
D03*
X100100Y263400D02*
D03*
Y273400D02*
D03*
X110100Y263400D02*
D03*
Y273400D02*
D03*
X120100Y263400D02*
D03*
Y273400D02*
D03*
X130100Y263400D02*
D03*
Y273400D02*
D03*
X140100Y263400D02*
D03*
Y273400D02*
D03*
X150100Y263400D02*
D03*
Y273400D02*
D03*
X160100Y263400D02*
D03*
Y273400D02*
D03*
X170100Y263400D02*
D03*
Y273400D02*
D03*
X180100Y263400D02*
D03*
Y273400D02*
D03*
X190100Y263400D02*
D03*
X110300Y303100D02*
D03*
Y293100D02*
D03*
X100300Y303100D02*
D03*
Y293100D02*
D03*
X90300Y303100D02*
D03*
Y293100D02*
D03*
X80300Y303100D02*
D03*
Y293100D02*
D03*
X70300Y303100D02*
D03*
X110300Y340594D02*
D03*
Y330594D02*
D03*
X100300Y340594D02*
D03*
Y330594D02*
D03*
X90300Y340594D02*
D03*
Y330594D02*
D03*
X80300Y340594D02*
D03*
Y330594D02*
D03*
X70300Y340594D02*
D03*
G54D201*
X136969Y245787D02*
D03*
X505807Y264055D02*
D03*
G54D202*
X615519Y257769D02*
D03*
Y271169D02*
D03*
X668519D02*
D03*
Y257769D02*
D03*
G54D203*
X18400Y422500D02*
D03*
Y450100D02*
D03*
G54D204*
X8600Y427400D02*
D03*
Y445200D02*
D03*
G54D205*
X25000Y329100D02*
D03*
Y376422D02*
D03*
G54D206*
X35700Y347800D02*
D03*
Y357721D02*
D03*
X43600D02*
D03*
Y347800D02*
D03*
G54D207*
X655700Y375000D02*
D03*
X669100D02*
D03*
Y322000D02*
D03*
X655700D02*
D03*
G54D208*
X579700Y449687D02*
D03*
X575369D02*
D03*
X579700Y454018D02*
D03*
X575369D02*
D03*
X579700Y458349D02*
D03*
X575369D02*
D03*
G54D209*
X589711Y339197D02*
D03*
Y335197D02*
D03*
Y331197D02*
D03*
Y327197D02*
D03*
X597711D02*
D03*
Y331197D02*
D03*
Y335197D02*
D03*
Y339197D02*
D03*
X593711D02*
D03*
Y335197D02*
D03*
Y327197D02*
D03*
Y331197D02*
D03*
X549712Y331196D02*
D03*
Y327196D02*
D03*
Y335196D02*
D03*
Y339196D02*
D03*
X553712D02*
D03*
Y335196D02*
D03*
Y331196D02*
D03*
Y327196D02*
D03*
X545712D02*
D03*
Y331196D02*
D03*
Y335196D02*
D03*
Y339196D02*
D03*
X650501Y431294D02*
D03*
X654501D02*
D03*
X646501D02*
D03*
X642501D02*
D03*
Y435294D02*
D03*
X646501D02*
D03*
X650501D02*
D03*
X654501D02*
D03*
Y427294D02*
D03*
X650501D02*
D03*
X646501D02*
D03*
X642501D02*
D03*
X507362Y331596D02*
D03*
Y327596D02*
D03*
Y335596D02*
D03*
Y339596D02*
D03*
X511362D02*
D03*
Y335596D02*
D03*
Y331596D02*
D03*
Y327596D02*
D03*
X503362D02*
D03*
Y331596D02*
D03*
Y335596D02*
D03*
Y339596D02*
D03*
M02*
