M48
;Layer_Color=9474304
;FILE_FORMAT=2:5
INCH,TZ
;TYPE=PLATED
T1F00S00C0.01000
T2F00S00C0.01500
T3F00S00C0.03543
T4F00S00C0.03800
T5F00S00C0.04000
T6F00S00C0.04016
T7F00S00C0.04331
T8F00S00C0.05900
T9F00S00C0.06300
T10F00S00C0.07598
T11F00S00C0.08700
;TYPE=NON_PLATED
T12F00S00C0.04016
T13F00S00C0.11811
T14F00S00C0.12992
%
T01
X543337Y187895
Y192226
Y196557
Y200887
Y205218
X547668
X551998
X556329
X560660
Y200887
X556329
X551998
X547668
Y196557
X551998
X556329
X560660
Y192226
X556329
X551998
X547668
Y187895
X551998
X556329
X560660
X624637
X628968
X633298
X637629
X641960
Y192226
X637629
X633298
X628968
X624637
Y196557
X628968
X633298
X637629
X641960
Y200887
X637629
X633298
X628968
X624637
Y205218
X628968
X633298
X637629
X641960
X479360
X475029
X470698
X466368
X462037
Y200887
X466368
X470698
X475029
X479360
Y196557
X475029
X470698
X466368
X462037
Y192226
X466368
X470698
X475029
X479360
Y187895
X475029
X470698
X466368
X462037
X397304Y187598
X392974
X388643
X384312
X379981
Y191928
X384312
X388643
X392974
X397304
Y196259
X392974
X388643
X384312
X379981
Y200590
X384312
X388643
X392974
X397304
Y204920
X392974
X388643
X384312
X379981
X315777Y205218
X311446
X307116
X302785
X298454
Y200887
X302785
X307116
X311446
X315777
Y196557
X311446
X307116
X302785
X298454
Y192226
X302785
X307116
X311446
X315777
Y187895
X311446
X307116
X302785
X298454
X307087Y234252
X311417
Y238583
X307087
X245641Y238482
Y234151
X241311
Y238482
X233722Y205314
Y200983
Y196653
Y192322
Y187991
X229391
X225060
X220729
X216399
Y192322
X220729
X225060
X229391
Y196653
X225060
X220729
X216399
Y200983
X220729
X225060
X229391
Y205314
X225060
X220729
X216399
X152194Y205218
X147864
X143533
X139202
X134872
Y200887
X139202
X143533
X147864
X152194
Y196557
X147864
X143533
X139202
X134872
Y192226
X139202
X143533
X147864
X152194
Y187895
X147864
X143533
X139202
X134872
X70403
X66072
X61742
X57411
X53080
Y192226
X57411
X61742
X66072
X70403
Y196557
X66072
X61742
X57411
X53080
Y200887
X57411
X61742
X66072
X70403
Y205218
X66072
X61742
X57411
X53080
X366728Y319992
X371058
Y324323
X366728
X499362Y327596
X503362
X507362
Y331596
Y335596
Y339596
X511362
X515362
Y335596
X511362
Y331596
X515362
Y327596
X511362
X503362Y331596
X499362
Y335596
X503362
Y339596
X499362
X541712Y339196
Y335196
Y331196
Y327196
X545712
X549712
Y331196
Y335196
Y339196
X553712
X557712
Y335196
X553712
Y331196
X557712
Y327196
X553712
X545712Y331196
Y335196
Y339196
X585711Y339197
X589711
Y335197
X585711
Y331197
X589711
Y327197
X585711
X593711
X597711
X601711
Y331197
X597711
Y335197
X601711
Y339197
X597711
X593711
Y335197
Y331197
X642501Y423294
X646501
X650501
X654501
Y427294
Y431294
X650501
X646501
X642501
Y435294
Y439294
X646501
Y435294
X650501
Y439294
X654501
Y435294
X650501Y427294
X646501
X642501
X585235Y442718
X579700Y449687
X575369
Y454018
X579700
Y458349
X575369
X553166Y432807
X481295Y424667
Y420730
T02
X8000Y8000
X15000Y5000
Y25000
X8000Y22000
X5000Y15000
X25000
X22000Y22000
Y8000
X38976Y43602
X41732
X39961Y46752
X56106Y48720
Y42713
X62992Y42815
X69095Y42913
Y48720
Y55315
Y61516
X62795
X56106
Y55315
Y74013
Y80020
Y86614
X56102Y92815
X62795
X69098
X69095Y86614
Y80020
Y74213
X62992Y74114
X75590Y74803
X78642Y72146
X82087Y74803
X95576Y76873
Y70476
X93705Y82582
X113386Y82382
X111516Y76673
Y70276
X125005Y74603
X128450Y71946
X131501Y74603
X137897Y74013
Y80020
Y86614
X137894Y92815
X144587
X150889
X150886Y86614
Y80020
Y74213
X144783Y74114
X144587Y61516
X150886
Y55315
Y48720
Y42913
X144783Y42815
X137897Y42713
Y48720
Y55315
Y61516
X121752Y46752
X120768Y43602
X123524
X104808Y31856
X87697Y43504
X84744
X84252Y47047
X82776Y94390
Y100295
Y105020
X77658Y104817
X77804Y97847
X73769Y99717
X70374Y103150
X57878
X54483Y99717
X50448Y97847
X50595Y104817
X45476Y105020
Y100295
Y94390
X40555Y98032
X40409Y105001
X31594Y82382
X29724Y76673
Y70276
X43213Y74603
X46658Y71946
X49709Y74603
X87697Y98032
X122346
X122200Y105001
X127268Y105020
Y100295
Y94390
X132239Y97847
X136275Y99717
X139669Y103150
X132386Y104817
X152165Y103150
X155560Y99717
X159595Y97847
X159449Y104817
X164567Y105020
Y100295
Y94390
X169488Y98032
X163878Y74803
X160433Y72146
X157382Y74803
X166043Y47047
X166535Y43504
X169488
X186630Y31154
X202295Y43698
X205051
X203279Y46848
X219424Y48816
Y42809
X226311Y42911
X232413Y43009
Y48816
Y55411
Y61612
X226114
X219424
Y55411
Y74108
Y80116
X214834Y78246
X213028Y74699
X209977Y72042
X206532Y74699
X193043Y76769
Y70372
X194913Y82478
X175497Y82582
X177367Y76873
Y70476
X226311Y74210
X232413Y74309
Y80116
Y86710
X232416Y92911
X234876Y94390
X237087Y99813
X241122Y97943
X240976Y104912
X246094Y105116
Y100391
Y94486
X251015Y98127
X257024Y82678
X258894Y76969
Y70572
X275098Y70276
Y76673
X276969Y82382
X288587Y74603
X292032Y71946
X295083Y74603
X301480Y74013
Y80020
Y86614
X301476Y92815
X308169
X314472
X314469Y86614
Y80020
Y74213
X308366Y74114
X308169Y61516
X314469
Y55315
Y48720
Y42913
X308366Y42815
X301480Y42713
Y48720
Y55315
Y61516
X285335Y46752
X284350Y43602
X287106
X268374Y31154
X251015Y43600
X248063
X247570Y47143
X245405Y74899
X241960Y72242
X238909Y74899
X226114Y92911
X219421
X219424Y86710
X217802Y99813
X213767Y97943
X213913Y104912
X208795Y105116
Y100391
Y94486
X203874Y98127
X203727Y105097
X221197Y103245
X233693
X285783Y105001
X290850Y105020
Y100295
Y94390
X295822Y97847
X299857Y99717
X303252Y103150
X295969Y104817
X285929Y98032
X319143Y99717
X323178Y97847
X323031Y104817
X328150Y105020
Y100295
Y94390
X327461Y74803
X324016Y72146
X320965Y74803
X315748Y103150
X329626Y47047
X330118Y43504
X333071
X349884Y31232
X349606Y25000
X342606Y22000
X339606Y15000
X342606Y8000
X349606Y5000
X356606Y8000
X359606Y15000
X356606Y22000
X365878Y43305
X368633
X366862Y46454
X383007Y48423
Y42416
X389893Y42517
X395996Y42616
Y48423
Y55017
Y61218
X389696
X383007
Y55017
Y73715
Y79722
Y86317
X383003Y92517
X389696
X395999
X395996Y86317
Y79722
Y73915
X389893Y73817
X402492Y74505
X405543Y71848
X408988Y74505
X422477Y76575
Y70178
X420607Y82284
X440551Y82382
X438681Y76673
Y70276
X452170Y74603
X455615Y71946
X458666Y74603
X465062Y74013
Y80020
Y86614
X465059Y92815
X471752
X478054
X478051Y86614
Y80020
Y74213
X471949Y74114
X471752Y61516
X478051
Y55315
Y48720
Y42913
X471949Y42815
X465062Y42713
Y48720
Y55315
Y61516
X448917Y46752
X447933Y43602
X450689
X432096Y31076
X414598Y43206
X411645
X411153Y46749
X409677Y94092
Y99998
Y104722
X404559Y104519
X404705Y97549
X400670Y99419
X397275Y102852
X384779
X381385Y99419
X377349Y97549
X377496Y104519
X372377Y104722
Y99998
Y94092
X367456Y97734
X367310Y104704
X358496Y82084
X356626Y76376
Y69978
X340950Y70476
Y76873
X339079Y82582
X333071Y98032
X370114Y74305
X373559Y71648
X376611Y74305
X414598Y97734
X449512Y98032
X449365Y105001
X454433Y105020
Y100295
Y94390
X459405Y97847
X463440Y99717
X466835Y103150
X459551Y104817
X479331Y103150
X482725Y99717
X484547Y74803
X487598Y72146
X491043Y74803
X504532Y76873
Y70476
X502662Y82582
X521851Y82382
X519981Y76673
Y70276
X533470Y74603
X536915Y71946
X539966Y74603
X546362Y74013
Y80020
Y86614
X546359Y92815
X553052
X559354
X559351Y86614
Y80020
Y74213
X553249Y74114
X553052Y61516
X559351
Y55315
Y48720
Y42913
X553249Y42815
X546362Y42713
Y48720
Y55315
Y61516
X530217Y46752
X529233Y43602
X531989
X513996Y30842
X496654Y43504
X493701
X493209Y47047
X491732Y94390
Y100295
Y105020
X486614Y104817
X486761Y97847
X496654Y98032
X530812
X530665Y105001
X535733Y105020
Y100295
Y94390
X540705Y97847
X544740Y99717
X548135Y103150
X540851Y104817
X560631Y103150
X564025Y99717
X568061Y97847
X567914Y104817
X573032Y105020
Y100295
Y94390
X577953Y98032
X583962Y82582
X585832Y76873
Y70476
X601281Y70276
Y76673
X603151Y82382
X614770Y74603
X618215Y71946
X621266Y74603
X627662Y74013
Y80020
Y86614
X627659Y92815
X634352
X640654
X640651Y86614
Y80020
Y74213
X634549Y74114
X634352Y61516
X640651
Y55315
Y48720
Y42913
X634549Y42815
X627662Y42713
Y48720
Y55315
Y61516
X611517Y46752
X610533Y43602
X613289
X595194Y31076
X577953Y43504
X575001
X574509Y47047
X572343Y74803
X568898Y72146
X565847Y74803
X612112Y98032
X611965Y105001
X617033Y105020
Y100295
Y94390
X622005Y97847
X626040Y99717
X629435Y103150
X622151Y104817
X641931Y103150
X645325Y99717
X649361Y97847
X649214Y104817
X654332Y105020
Y100295
Y94390
X659254Y98032
X675924Y97922
X676704Y103616
X682320
X682242Y91526
X676314Y91448
X676002Y82010
X676236Y78032
X681228Y82166
X687858Y81854
X687780Y84662
Y87314
X694878Y87392
X694722Y91214
X698466Y91058
X690744Y91682
X694956Y83180
X691368Y79358
X687546Y76238
X694020Y68750
X691914Y59780
X690822Y45506
X716301Y45740
X729354Y45713
X732600Y24800
X725600Y21800
X722600Y14800
X725600Y7800
X732600Y4800
X739600Y7800
X742600Y14800
X739600Y21800
X737544Y74678
X738948Y78890
X738870Y81698
X738558Y86300
X738402Y89342
X738480Y92618
X738402Y97298
Y100496
X738480Y103460
X724752Y97766
X725298Y91136
X719760
X711024Y91370
X706290Y89466
X711336Y84896
X716952Y79748
X721866Y81464
X724440Y75380
X725610Y68750
X716871Y60439
X718668Y102914
X710712Y102992
X699402Y102602
X665262Y82582
X667132Y76873
Y70476
X653643Y74803
X650198Y72146
X647147Y74803
X655809Y47047
X656301Y43504
X659254
X676626Y30764
X676884Y115128
X683436Y115986
X692484Y116220
X697164Y109668
X702702Y114660
X706524Y108342
X710268Y120744
X717132Y118950
X709722Y129168
X709254Y137514
X697632Y137982
X692484Y135018
X686166Y138060
X683202Y125658
X676572Y127842
X668215Y128648
X670376Y131595
X664258Y135120
X659400Y132954
Y137482
X658317Y141517
X661664Y141535
X667668Y142521
Y145500
X667557Y149700
X663457Y157100
X663357Y160400
X663457Y163700
X659257Y168200
X655657Y168100
X668957Y167100
Y170200
X668161Y177396
X679848Y177138
X680628Y171652
X683124Y164944
X681486Y158392
X681096Y148720
X692328
X701532
X707226
X715572Y148278
X707382Y158392
X701922
X703794Y164944
X701298Y171652
X706368
X713466Y174954
X702234Y186576
Y190710
Y194376
X696150Y200070
X692484
X688662
X682110Y194844
X682344Y190788
X682266Y186810
X678600Y193284
X680940Y205998
X681096Y213720
X681486Y223392
X683124Y229944
X680628Y236652
X682578Y242736
X692796Y245622
X692484Y236652
X692406Y232752
X701298Y236652
X706368
X704808Y243126
X703794Y229944
X701922Y223392
X707382
X707226Y213720
X701532
X692328
X692406Y181116
X689052
X695994Y181194
X692484Y171652
X692406Y167752
X663557Y185600
X655562Y189923
X655720Y194785
X661357Y197500
X660680Y201832
X657039Y201931
X657924Y206360
X654283Y206458
X655907Y214567
X659549
X658608Y222098
X650691Y222638
X647147Y221949
X647935Y217618
X651576Y217520
X649440Y181655
X650957Y178000
X645757Y175100
X646950Y141535
X650297Y141517
X649214Y137482
Y132954
X644356Y135120
X642257Y131000
X645325Y127854
X649361Y125984
X652313Y127854
X656301
X659254Y125984
X663289Y127854
X659400Y109529
X654332Y109547
X649214Y109344
X646950Y113583
X701922Y125814
X736632Y115128
X736710Y193050
X721188Y207870
X702546Y255762
X682188Y255606
X677785Y257785
X671502Y250614
X668519Y250600
X665418
X658476Y257322
X624780
X626184Y251628
X615498Y251004
X605826Y251160
X606138Y257634
X598884Y260130
X588588Y260988
X594362Y226572
X601850Y224683
X607580Y227461
X612354Y232972
X620917
X627863Y234460
X628557Y228000
X631596Y222933
X629905Y219368
X633547Y219466
X624755Y218663
X611157Y209900
X601457Y212600
X601330Y206065
X601144Y200957
X599755Y190415
X604357Y185600
X616026Y181965
X616389Y178309
X620621Y175848
X624157Y174200
X629521Y172635
X626388Y168700
X629757Y160500
X636657
X638657Y156100
X640357Y169000
X636833Y172635
X642157Y174500
X640057Y142800
X634057Y138600
X635730Y136417
Y133649
X635857Y129528
Y126870
X640857Y127600
X637600Y120177
X634155
X631301Y113484
X624415Y113398
X622151Y109344
X617033Y109547
X611965Y109529
X612112Y125984
X615065Y127854
X619052Y127669
X622049Y126181
X626040Y127669
X630357Y127100
X629157Y131400
X627009Y134935
X622151Y132769
Y137297
X621068Y141332
X624415Y141350
X613048Y141517
X609702Y141535
X611965Y137482
Y132954
X607383Y135138
X603889Y136787
X600936
X600838Y141399
X600257Y145000
X596857Y154300
X596657Y157800
Y161200
X596857Y164600
X596757Y167800
X587657Y167100
Y170200
X586861Y177396
X582257Y185600
X574262Y189923
X574420Y194785
X580057Y197500
X579380Y201832
X575739Y201931
X576624Y206360
X572983Y206458
X574607Y214567
X578249
X570276Y217520
X566635Y217618
X565847Y221949
X569391Y222638
X550296Y222933
X548605Y219368
X552247Y219466
X543455Y218663
X547257Y228000
X546563Y234460
X539616Y232972
X531053
X526280Y227461
X520550Y224683
X513850Y226474
Y238187
X508240Y258364
X505287
X502334
X499185
X524381Y258265
X527531
X530582
X535700
X538752
X541803
X529857Y209900
X520157Y212600
X520030Y206065
X519844Y200957
X518455Y190415
X523057Y185600
X534726Y181965
X535089Y178309
X539321Y175848
X542857Y174200
X548221Y172635
X545088Y168700
X548457Y160500
X555357
X557357Y156100
X559057Y169000
X555533Y172635
X560857Y174500
X564457Y175100
X569657Y178000
X568140Y181655
X574357Y168100
X577957Y168200
X582157Y163700
X582057Y160400
X582157Y157100
X586257Y149700
X586368Y145500
Y142521
X580364Y141535
X577017Y141517
X578100Y137482
Y132954
X582958Y135120
X581989Y127854
X586915Y128648
X589076Y131595
X600101Y127861
X598230Y124409
X595116Y116018
X578100Y109529
X573032Y109547
X567914Y109344
X565650Y113583
X559154
X550001Y113484
X543115Y113398
X540851Y109344
X535733Y109547
X530665Y109529
X530812Y125984
X533765Y127854
X537752Y127669
X540749Y126181
X544740Y127669
X549057Y127100
X547857Y131400
X545709Y134935
X540851Y132769
Y137297
X539769Y141332
X543115Y141350
X531748Y141517
X528402Y141535
X530665Y137482
Y132954
X526084Y135138
X522589Y136787
X519636
X519538Y141399
X518957Y145000
X515557Y154300
X515357Y157800
Y161200
X515557Y164600
X515457Y167800
X506357Y167100
Y170200
X505561Y177396
X500957Y185600
X492962Y189923
X493120Y194785
X498757Y197500
X498080Y201832
X494439Y201931
X495324Y206360
X491683Y206458
X493307Y214567
X496949
X488976Y217520
X488091Y222638
X486840Y181655
X488357Y178000
X493057Y168100
X496657Y168200
X500857Y163700
X500757Y160400
X500857Y157100
X504957Y149700
X505068Y145500
Y142521
X499064Y141535
X495717Y141517
X496800Y137482
Y132954
X501658Y135120
X500689Y127854
X505615Y128648
X507776Y131595
X518801Y127861
X516930Y124409
X513762Y116174
X496800Y109529
X491732Y109547
X486614Y109344
X486761Y125984
X489713Y127854
X493701
X496654Y125984
X486614Y132954
Y137482
X487697Y141517
X523657Y162900
X525958Y168281
X529577Y168171
X530660Y198289
X611960
X610877Y168171
X607258Y168281
X604957Y162900
X568997Y141517
X565650Y141535
X567914Y137482
Y132954
X563056Y135120
X560957Y131000
X559557Y127600
X564025Y127854
X568061Y125984
X571013Y127854
X575001
X577953Y125984
X554557Y126870
Y129528
X554430Y133649
Y136417
X552757Y138600
X558757Y142800
X556300Y120177
X552855
X640454Y113583
X484350
X477854
X468701Y113484
X461815Y113398
X459551Y109344
X454433Y109547
X449365Y109529
X449512Y125984
X452465Y127854
X456452Y127669
X459449Y126181
X463440Y127669
X467757Y127100
X466557Y131400
X464409Y134935
X459551Y132769
Y137297
X458468Y141332
X461815Y141350
X450448Y141517
X447102Y141535
X449365Y137482
Y132954
X444783Y135138
X441289Y136787
X438336
X438238Y141399
X437657Y145000
X434257Y154300
X434057Y157800
Y161200
X434257Y164600
X434157Y167800
X424301Y166802
Y169902
X423505Y177098
X418901Y185302
X410907Y189625
X411064Y194487
X416701Y197202
X416025Y201535
X412383Y201633
X413269Y206062
X409627Y206161
X411950Y217222
X415550Y217172
X406850Y217222
X403221Y217261
X402492Y221651
X406035Y222340
X388891Y219169
X385249Y219070
X382314Y221257
X380100Y218365
X367688Y221297
X362925Y220962
X357919Y218906
X351939Y215981
X349775Y222872
X339618Y222872
X330709Y222836
X331742Y206360
X330856Y201931
X334498Y201832
X335174Y197500
X337374Y185600
X341978Y177396
X342774Y170200
Y167100
X337274Y163700
X337174Y160400
X337274Y157100
X341374Y149700
X341485Y145500
Y142521
X335481Y141535
X332135Y141517
X333217Y137482
Y132954
X338075Y135120
X337106Y127854
X342032Y128648
X344193Y131595
X355446Y127563
X353574Y124112
X350274Y114302
X333217Y109529
X333071Y125984
X330118Y127854
X356281Y136490
X359233
X362728Y134840
X367310Y132657
Y137184
X368392Y141220
X365046Y141238
X356182Y141102
X355601Y144702
X352201Y154002
X352001Y157502
Y160902
X352201Y164302
X352101Y167502
X362602Y167983
X366222Y167873
X360301Y162602
X359701Y185302
X355100Y190117
X356488Y200660
X356674Y205767
X345581Y207184
X342944Y211120
X366501Y209602
X367304Y197991
X371371Y181667
X371733Y178011
X375966Y175550
X379501Y173902
X384866Y172337
X381732Y168402
X385101Y160202
X392001
X394001Y155802
X395701Y168702
X392177Y172337
X397501Y174202
X401101Y174802
X406301Y177702
X404785Y181357
X411001Y167802
X414601Y167902
X418801Y163402
X418701Y160102
X418801Y156802
X422901Y149402
X423012Y145202
Y142224
X417008Y141238
X413662Y141220
X414744Y137184
Y132657
X419602Y134822
X418633Y127557
X423559Y128350
X425720Y131297
X437501Y127861
X435630Y124409
X432174Y115862
X414744Y109231
X409677Y109249
X404559Y109046
X402295Y113285
X395799
X386645Y113187
X379759Y113100
X377496Y109046
X372377Y109249
X367310Y109231
X367456Y125687
X370409Y127557
X374396Y127372
X377393Y125883
X381385Y127372
X385701Y126802
X384501Y131102
X382353Y134637
X377496Y132472
Y136999
X376413Y141035
X379759Y141053
X389401Y138302
X391074Y136120
Y133351
X391201Y129230
Y126572
X396201Y127302
X400670Y127557
X404705Y125687
X407658Y127557
X411645
X414598Y125687
X404559Y132657
Y137184
X405641Y141220
X402295Y141238
X395401Y142502
X399701Y134822
X397601Y130702
X392944Y119879
X389499
X471555Y120177
X475000
X473257Y126870
Y129528
X473130Y133649
Y136417
X471457Y138600
X477457Y142800
X484350Y141535
X481756Y135120
X479657Y131000
X478257Y127600
X482725Y127854
X476057Y156100
X474057Y160500
X467157
X463788Y168700
X466921Y172635
X461557Y174200
X458021Y175848
X453789Y178309
X453427Y181965
X441757Y185600
X437155Y190415
X438544Y200957
X438730Y206065
X438857Y212600
X448557Y209900
X449360Y198289
X448277Y168171
X444658Y168281
X442357Y162900
X477757Y169000
X474233Y172635
X479557Y174500
X483157Y175100
X485335Y217618
X484547Y221949
X470947Y219466
X467305Y219368
X468996Y222933
X465957Y228000
X465263Y234460
X458317Y232972
X449754
X444980Y227461
X439250Y224683
X427433Y222832
X462155Y218663
X419362Y260135
X406814Y261958
X401686Y261849
X333074Y168200
X329474Y168100
X324774Y178000
X323257Y181655
X319574Y175100
X315974Y174500
X310650Y172635
X314174Y169000
X310474Y160500
X312474Y156100
X303574Y160500
X300205Y168700
X303339Y172635
X297974Y174200
X294439Y175848
X290206Y178309
X289844Y181965
X278174Y185600
X273572Y190415
X274961Y200957
X275147Y206065
X264054Y207482
X261417Y211417
X270411Y216279
X276391Y219204
X281398Y221260
X286161Y221595
X286783Y230411
X291114
X290917Y243305
X285624
X285602Y238088
X275425Y231986
X267492Y235726
X258633Y232281
X254500Y236316
X255192Y241598
X249571Y243010
X249670Y259349
X246028Y259447
X235897Y261415
X258024Y260676
X273498Y246850
X268248Y223169
X258091Y223169
X248292Y222733
X248077Y217616
X251723Y217564
X243022Y217645
X239421Y217655
X238744Y221749
X242393Y221848
X246044Y206554
X249686Y206456
X248800Y202027
X252442Y201928
X253118Y197596
X247481Y194881
X247324Y190019
X255318Y185696
X259922Y177492
X260718Y170296
Y167196
X255219Y163796
X255118Y160496
X255219Y157196
X259318Y149796
X259430Y145596
Y142617
X253426Y141631
X250079Y141613
X251162Y137578
Y133050
X256020Y135216
X255051Y127950
X259977Y128744
X262137Y131690
X273919Y127861
X272047Y124409
X268374Y115940
X251162Y109625
X246094Y109643
X240976Y109440
X238712Y113679
X232216
X223063Y113580
X216177Y113494
X213913Y109440
X208795Y109643
X203727Y109625
X203874Y126080
X206826Y127950
X210814Y127765
X213811Y126277
X217802Y127765
X222118Y127196
X220918Y131496
X218771Y135031
X213913Y132865
Y137393
X212830Y141428
X216177Y141446
X204810Y141613
X201463Y141631
X203727Y137578
Y133050
X199145Y135234
X195651Y136883
X192698
X192600Y141495
X192018Y145096
X188619Y154396
X188418Y157896
Y161296
X188619Y164696
X188519Y167896
X179191Y167100
Y170200
X178395Y177396
X173791Y185600
X173691Y163700
X173591Y160400
X173691Y157100
X177791Y149700
X177902Y145500
Y142521
X174493Y135120
X173524Y127854
X178450Y128648
X180610Y131595
X191863Y127956
X189992Y124505
X186864Y116018
X225917Y120273
X229362
X227619Y126966
Y129623
X227492Y133745
Y136513
X225818Y138696
X231819Y142896
X238712Y141631
X242059Y141613
X240976Y137578
Y133050
X236118Y135216
X234018Y131096
X232618Y127696
X237087Y127950
X241122Y126080
X244075Y127950
X248063
X251015Y126080
X274753Y136787
X277706
X281201Y135138
X285783Y132954
Y137482
X286865Y141517
X283519Y141535
X274655Y141399
X274074Y145000
X270674Y154300
X270474Y157800
Y161200
X270674Y164600
X270574Y167800
X281075Y168281
X284695Y168171
X278774Y162900
X251019Y168296
X247418Y168196
X242719Y178096
X241202Y181751
X237519Y175196
X233918Y174596
X228594Y172731
X232119Y169096
X228418Y160596
X230418Y156196
X221518Y160596
X218149Y168796
X221283Y172731
X215918Y174296
X212383Y175944
X208151Y178405
X207788Y182061
X196118Y185696
X191517Y190511
X192906Y201053
X193092Y206160
X181998Y207578
X179362Y211513
X188356Y216375
X194336Y219300
X199342Y221356
X204106Y221690
X202919Y209996
X203722Y198385
X202639Y168267
X199020Y168377
X196719Y162996
X186193Y223265
X176035Y223265
X218732Y221651
X216517Y218759
X221667Y219464
X225309Y219562
X229998Y230522
X229303Y234348
X231559Y237596
X215500Y258045
X309712Y243403
X321414Y233564
X327823Y231592
X327629Y238482
X320835Y222635
X321228Y216729
X325563Y217419
X329303Y217419
X328100Y206458
X329537Y194785
X329380Y189923
X307364Y219466
X303722Y219368
X300787Y221555
X298572Y218663
X284974Y209900
X285777Y198289
X294886Y141332
X298232Y141350
X295969Y137297
Y132769
X295866Y126181
X292869Y127669
X288882Y127854
X285929Y125984
X299857Y127669
X304174Y127100
X302974Y131400
X300826Y134935
X309547Y133649
Y136417
X307874Y138600
X313874Y142800
X320768Y141535
X324114Y141517
X323031Y137482
Y132954
X318174Y135120
X316074Y131000
X314674Y127600
X319143Y127854
X323178Y125984
X326131Y127854
X309674Y126870
Y129528
X307972Y120177
X311417
X314272Y113583
X320768
X323031Y109344
X328150Y109547
X305118Y113484
X298232Y113398
X295969Y109344
X290850Y109547
X285783Y109529
X169635
X164567Y109547
X159449Y109344
X157185Y113583
X150689
X141535Y113484
X134650Y113398
X132386Y109344
X127268Y109547
X122200Y109529
X122346Y125984
X125299Y127854
X129287Y127669
X132283Y126181
X136275Y127669
X140591Y127100
X139391Y131400
X137244Y134935
X132386Y132769
Y137297
X131303Y141332
X134650Y141350
X123283Y141517
X119936Y141535
X122200Y137482
Y132954
X117618Y135138
X114124Y136787
X111171
X111072Y141399
X110491Y145000
X107091Y154300
X106891Y157800
Y161200
X107091Y164600
X106991Y167800
X97400Y167100
Y170200
X96604Y177396
X92000Y185600
X84005Y189923
X84163Y194785
X89800Y197500
X89124Y201832
X85482Y201931
X86368Y206360
X82726Y206458
X84350Y214567
X87992
X91606Y215746
X80020Y217520
X76378Y217618
X75590Y221949
X79134Y222638
X60039Y222933
X58348Y219368
X61990Y219466
X53198Y218663
X57000Y228000
X56306Y234460
X49360Y232972
X40797
X36024Y227461
X30294Y224683
X23299Y223324
X18753Y225981
X22244Y242323
X29598Y235431
X30189Y249210
X44980Y251279
X51819Y262269
X56900Y260600
X60600Y260948
X66100Y259648
X66425Y255812
X71000Y259700
X89555Y246954
X98622Y249114
X110138Y247933
X107313Y241650
X103515Y225588
X112085Y224683
X117815Y227461
X122588Y232972
X131151
X138097Y234460
X138791Y228000
X141831Y222933
X140140Y219368
X143782Y219466
X134990Y218663
X121391Y209900
X111691Y212600
X111565Y206065
X111379Y200957
X109990Y190415
X114591Y185600
X126261Y181965
X126624Y178309
X130856Y175848
X134391Y174200
X139756Y172635
X136622Y168700
X139991Y160500
X146891
X148891Y156100
X150591Y169000
X147067Y172635
X152391Y174500
X155991Y175100
X161191Y178000
X159675Y181655
X165797Y189923
X165954Y194785
X171591Y197500
X170915Y201832
X167273Y201931
X168159Y206360
X164517Y206458
X166142Y214567
X169783
X161811Y217520
X158169Y217618
X157382Y221949
X160925Y222638
X170729Y224603
X167421Y256496
X163681Y256594
X159646Y256496
X155807
X127559Y238307
X122195Y198289
X121112Y168171
X117492Y168281
X115191Y162900
X91900Y163700
X91800Y160400
X91900Y157100
X96000Y149700
X96111Y145500
Y142521
X90107Y141535
X86761Y141517
X87843Y137482
Y132954
X92701Y135120
X91732Y127854
X96658Y128648
X98819Y131595
X110336Y127861
X108465Y124409
X105276Y115862
X87843Y109529
X82776Y109547
X77658Y109344
X75394Y113583
X68898
X59744Y113484
X52858Y113398
X50595Y109344
X45476Y109547
X40409Y109529
X40555Y125984
X43508Y127854
X47495Y127669
X50492Y126181
X54483Y127669
X58800Y127100
X57600Y131400
X55452Y134935
X50595Y132769
Y137297
X49512Y141332
X52858Y141350
X41491Y141517
X38145Y141535
X40409Y137482
Y132954
X35827Y135138
X32332Y136787
X29379
X29281Y141399
X28700Y145000
X25300Y154300
X25100Y157800
Y161200
X25300Y164600
X25200Y167800
X35701Y168281
X39320Y168171
X33400Y162900
X32800Y185600
X28198Y190415
X22017Y190566
X19290Y187331
X24234Y180758
X44470Y181965
X44832Y178309
X49065Y175848
X52600Y174200
X57964Y172635
X54831Y168700
X58200Y160500
X65100
X67100Y156100
X68800Y169000
X65276Y172635
X70600Y174500
X74200Y175100
X79400Y178000
X77883Y181655
X84100Y168100
X87700Y168200
X78740Y141517
X75394Y141535
X77658Y137482
Y132954
X72800Y135120
X70700Y131000
X69300Y127600
X73769Y127854
X77804Y125984
X80757Y127854
X84744
X87697Y125984
X64300Y126870
Y129528
X64173Y133649
Y136417
X62500Y138600
X68500Y142800
X66043Y120177
X62598
X26673Y124409
X28545Y127861
X29587Y200957
X29773Y206065
X29900Y212600
X39600Y209900
X40403Y198289
X17983Y201593
X20162Y205160
X22300Y259000
X99775Y207675
X165891Y168100
X169491Y168200
X168552Y141517
X171898Y141535
X169635Y137482
Y132954
X169488Y125984
X166535Y127854
X162548
X159595Y125984
X155560Y127854
X151091Y127600
X152491Y131000
X154591Y135120
X159449Y132954
Y137482
X160531Y141517
X157185Y141535
X150291Y142800
X144291Y138600
X145965Y136417
Y133649
X146091Y129528
Y126870
X144390Y120177
X147835
X4110Y180524
X11488Y206986
X16225Y205850
X14736Y209742
X13189Y233268
X4134Y242323
X13189Y251378
X14370Y259093
X9800Y258600
X15300Y273448
X12795Y294946
X14075Y317308
X9800Y316200
X10352Y329626
X10466Y338052
X10322Y347231
X10249Y356626
Y365661
X10334Y374433
X10270Y383005
X4800Y389000
X10776Y396225
X9078Y417982
X17764Y412859
X18039Y406712
X17999Y400629
X22587Y397899
X27961Y395786
X25158Y390804
X33472Y390868
X35048Y397441
X41142Y393124
X41600Y386781
X41400Y383081
X41900Y379381
X49200Y383081
X56004Y372131
X60864Y365220
X60273Y360102
X60925Y353528
X81252Y355244
X78363Y362502
X78225Y370432
X68300Y370200
X68000Y374400
X61300Y399400
X64800Y405500
X65100Y409300
X59051Y410980
X52349Y404179
X46654Y398587
X40168Y407721
X28513Y409784
X27768Y415478
X51575Y418469
X76657Y417151
X76699Y412978
X110874Y416796
X119036Y411285
X122731Y411587
X125438Y417785
X133745Y414037
X128565Y407360
X129874Y399086
X127574Y397286
Y394386
X129973Y392686
X136100Y392700
X138400Y394500
Y397400
X136000Y399100
X145224Y394355
X148928Y394355
X145277Y387327
X151130Y382151
X153000Y368022
X153100Y358448
X156100Y358400
X157381Y354818
X153698Y354813
X153100Y345200
X156300Y345089
X153800Y340400
X153337Y334554
X156473Y334566
X156400Y324048
X152817Y324214
X153900Y307300
X157587Y307293
X164300Y306600
Y302900
X172745Y303164
X173327Y307458
X172056Y314484
X169095Y318701
X160169Y312293
X156020Y290458
X153800Y288600
X158512Y284156
X139693Y292406
X145008Y299493
X130800Y301956
X130224Y289099
X127171Y289094
X122871Y294910
X120500Y282400
X114700Y284600
X115059Y271949
X121900Y309800
X127760Y318595
X130800Y318600
X131700Y322148
X128660Y322143
X127594Y330594
X130635Y330600
X130900Y334400
X127800
X126831Y339623
X138800Y341500
X141200Y340048
X136400Y349948
X133600Y349800
X134330Y353600
X137211Y353566
X139500Y362048
X134000Y364400
X132900Y368300
Y372100
X123348Y371402
X111557Y371185
X111300Y366300
X112524Y361202
X116300Y360948
X107589Y360597
X97900Y354600
X93919Y354980
X85400Y318948
X80500Y317900
X42283Y313466
X30400Y312348
X32372Y308253
X30300Y303000
X27500Y293548
X32700Y289848
X32500Y277748
Y271800
X30798Y264060
X23700Y267900
X41000Y277148
X41400Y283248
X39372Y297948
X50900Y298600
X66425Y280320
X49429Y333683
X42860Y329288
X34890Y329481
X24800Y313600
X18799Y315635
X18900Y387800
X123081Y387422
X122674Y402122
X119036Y402230
X118585Y398626
X145618Y404985
X149850Y408528
X158164Y405349
X157800Y399200
X165906Y398160
X165594Y394651
X165298Y390615
X172385Y384611
X171751Y369746
X171900Y365500
X161891Y366176
X161900Y369948
X162800Y361300
X163298Y409647
X170100Y404200
X135275Y315032
X132438Y315009
X178092Y316149
X181988Y316535
X185617Y316923
X190256
X176100Y319248
X182776Y327067
X192120Y335778
X198913Y330123
X200122Y343150
X212000Y342648
X209618Y339761
X215719Y332638
X219389Y332722
X223118Y332729
X223039Y324639
X219412Y324695
X215708Y324533
X211910Y324508
X219421Y317899
X223112Y317878
X223113Y311416
X219423Y311403
X219400Y307748
X220400Y302748
X214300Y302900
X214287Y306579
X210307Y304427
X206300Y304000
X206800Y307600
X200305Y301786
X206299Y281004
X210703Y284228
X214303Y284900
X219685Y284941
X219783Y287795
X223228Y283071
X215500Y276155
X224555Y267100
X235047Y273550
X235405Y277753
X233522Y289298
X236221Y305413
X241114Y314860
X241106Y321065
X238259
X239283Y331709
X246323Y332089
X242976Y339077
X238161Y339368
X236685Y352201
X240326Y353836
X239827Y359452
X235776Y358952
X237570Y364368
X241170Y364496
X244460Y362694
X244263Y356592
X244847Y351184
X246225Y347148
X254099Y345475
X272210Y343802
X277578Y340268
X274572Y337010
X272407Y330514
X277968Y330518
X277433Y321848
X286586Y328836
X287866Y339466
X295005Y336603
X297708Y330509
X310208Y330017
X314791Y332367
X322807Y329722
X323539Y338765
X326110Y345753
X310174Y339694
X307748Y302360
X293968Y293206
X287252Y293784
X282157Y293698
X277465Y293744
X267485Y293898
X262374Y293698
X257944
X257690Y283183
X275456Y285024
X280673Y280921
X295083Y282781
X295248Y279131
X292885Y271848
X278500Y304948
X266507Y327261
X263038Y329952
X219854Y344880
X219657Y349998
X208783Y352437
X213644Y361415
X213161Y365352
X211600Y370600
X206615Y371967
X206613Y368464
X201287Y369148
X201274Y365230
X201300Y361548
X194437Y361580
X194440Y365182
X194437Y368863
X182008Y369757
X182000Y366148
X182300Y373348
X182340Y392762
X185700Y403885
X185862Y418562
X180926Y418562
X175900Y418537
X190878Y418532
X195904Y418612
X199775Y415450
X206173Y411907
X207040Y418699
X213694Y416104
X208141Y405312
X204204
X205457Y395777
X205500Y392900
X209273Y392905
X211400Y396448
X215900Y395748
X214100Y399448
X217900Y399248
X221300Y397148
X228909Y397439
X226645Y400588
X226500Y380748
X229700Y378748
X241015Y373718
X246812Y381897
X242039Y389470
X251633Y400490
Y407379
X257041Y402466
X260688Y402261
X268563Y410923
X273681Y414171
X281456Y402557
X279286Y398037
X289668Y395024
X294740Y402466
X298388Y402261
X292676Y407381
X306262Y410923
X311381Y414171
X319156Y402557
X316985Y398037
X328571Y378627
X201800Y388900
Y392000
X195848Y386448
X206445Y267100
X181607Y268328
X239932Y263482
X243673Y266435
X246822Y263088
X363653Y277852
X383333Y276341
X387233
X385283Y274313
X383333Y283581
X387233
X385283Y285609
X393968Y294095
X397807Y293600
X400070Y297734
X394854
X406566Y307183
X411390Y302560
X421557Y302625
X428220Y293009
X463259Y293600
X484668Y294950
X485883Y286415
X485412Y321897
Y336897
Y341897
X483249Y350496
X474812Y364697
X476055Y367196
X469012Y376714
X446597
X448369Y380849
X444798Y384681
X445051Y388974
X436980Y390155
X432256Y389466
X430085Y398037
X432256Y402557
X424480Y414171
X419362Y410923
X411488Y402261
X407840Y402466
X405264Y407426
X394556Y402557
X392385Y398037
X393798Y391124
X410256Y395024
X425197Y382685
X425140Y377502
X424874Y373128
X416381Y372042
X418279Y355017
X422708Y355017
X411291Y356100
X409913Y350883
X412374Y345765
X406580Y359658
X432649Y365155
X438653Y368895
X443673Y370765
X439019Y376570
X434817Y376579
X434688Y380901
X439019
X452039Y352163
X457846Y352360
X462177Y344092
X448693Y337989
X395444Y337301
X386685Y334840
X385530Y328724
X387480Y326696
X383580
X385530Y318724
X383580Y316696
X387480
X375291Y321370
X362495
X361920Y327912
X357647Y330317
X351575Y331594
X349043Y340143
X337331Y338371
X330933Y328135
X347468Y318727
X347665Y314393
X354104Y316635
X359716Y311513
X370862Y312694
X371272Y303738
X354990Y295768
X347476Y295686
X364962Y337350
X372412Y332876
X375463Y334943
X369306Y395024
X370140Y402466
X373788Y402261
X367590Y407379
X356856Y402557
X354685Y398037
X349080Y414171
X343962Y410923
X336088Y402261
X332440Y402466
X330177Y407379
X332490Y394712
X381662Y410923
X386780Y414171
X451838Y413321
X458187Y413621
X461187Y413821
X476095Y410798
X479410Y409374
X482462Y409276
X482658Y405831
X479410
X392885Y262990
X385504Y262891
X511291Y263876
X516212Y264269
X519263
X524480
X527531
X530582
X511193Y274210
X518384Y285322
X521724Y296651
X520412Y306897
Y314397
Y321497
X515412Y321697
X510412
X505412Y321897
X500412
X495493
X490412
X492098Y308954
X487078Y308856
X498342Y306897
X505412
X510650Y314397
X520412Y326897
Y331897
X526180Y338322
X529232Y350822
X542235Y352200
X546259Y352102
X549212
X552165
X555117
X557952Y352070
X554712Y347697
X549812Y347597
X562570Y345470
Y339196
X563112Y332797
X566692Y335397
X566592Y348397
X570392Y348297
X576481Y352889
X586177Y352102
X590103Y352102
X593055
X596008
X598961
X601914
X598911Y347697
X593611Y347797
X607111Y339397
Y332797
Y323697
X602912Y321897
X597912
X592912
X587912
X582912
X577912
X572912
X563112Y323697
X557912Y321897
X552912
X547912
X542912
X537912
X532912
X527912
X529598Y308167
X534618Y308265
X542517Y306897
X547912
Y313823
X540412
X555412Y313497
Y306612
X564342Y311513
X562812Y315197
X574086Y308561
X578122Y308462
X582912Y306897
Y314397
X590412
X597912
Y306897
X602912Y304397
X606111Y308697
X607011Y314997
X614328Y300534
X619710Y300456
X626184Y300378
X634608Y301002
X640614Y300846
X637494Y290082
X635466Y283452
X628446Y292266
X620724Y290862
X611364Y293124
X600522Y288522
X593736Y289224
X588284Y280835
X588597Y272055
X599196Y272610
X605514Y271128
X610219Y278356
X613467
X616813
X620061
X624468Y271440
X615264Y264576
X602082Y281424
X590412Y306897
X616200Y345774
X621270Y342420
X625872Y338130
X632034
X639210Y344526
X632190Y356928
X622050Y356538
X617604Y356226
X618540Y369486
X612360
X606684
X606762Y379236
X612360
X618618
X627900Y379470
X632502
X637338
X638352Y369330
X632658
X628290
X626964Y392184
X618195Y411778
X607955Y413649
X607976Y409869
X534859Y411075
Y407925
X534846Y417924
X534121Y388076
X537172Y388175
X530972Y387880
X531759Y375872
X535007Y375970
X538255Y375872
X513612Y370697
X508112Y370797
X505512Y381997
X511012Y382097
X515650Y389997
X516704Y357773
X516312Y352597
X512312
X508312
X504312
X499862Y352833
X507412Y348097
X512312
X517303Y348056
X492912Y341897
Y336897
X486104Y362996
X490295Y413398
X566410Y355414
X645606Y357006
X646932Y347568
X645684Y340470
X657696Y340860
X658900Y332358
X653562
X646620Y327054
X646698Y322140
Y316914
X653796Y312156
X658320Y312078
X666354Y312156
X672204Y312078
X677820Y316680
Y322000
Y327210
X682734Y321048
X684528Y309972
X692562
X698022Y303342
X692640Y297882
X676650Y296634
X673296Y296556
X669630Y296478
X662298Y294840
X662376Y290628
X667290Y289692
X669864Y283842
X673530Y283920
X677274Y283764
X673061Y278356
X669813
X666467
X658944Y283530
X654030
X649116
X644202
X642642Y290160
X650988Y290238
X646542Y300924
X665262Y302718
X677274Y302796
X683046Y288288
X692406Y278850
X689676Y274326
X685698Y268866
X692562Y265590
X705120Y267696
X703560Y274794
X702234Y288366
X711516Y283218
X710814Y303342
X707616Y310050
X712686Y313794
X713154Y322062
X712998Y332436
X707538Y334386
X699894Y335010
X701532Y343799
X707226
X707382Y353471
X701922
X703794Y360023
X701298Y366731
X706368
X704262Y372372
X708396Y374166
X708006Y380484
Y390390
Y396084
X704418Y399126
X695682Y399048
X692562Y395538
X687492Y399048
X685074Y405912
X692952Y409344
X705120Y407550
X701766Y418626
X683124Y418314
X667912Y411341
X661068
X655412
X650412
Y403841
X655412
X642912
Y411341
X645684Y393978
X651846Y384462
X655668
X669240Y384696
X672750Y384618
X676287Y377053
Y373706
X682032Y372606
X680628Y366731
X674232Y365976
X669102Y365832
X662113
X655716Y365734
X651066Y365898
X648643Y373808
Y377057
X657930Y357552
X672594Y357474
X681486Y353471
X683124Y360023
X692406Y362831
X692484Y366731
X692562Y372294
Y376818
X682812Y385866
X681876Y394368
X670332Y393900
X670412Y403841
X702546Y385866
X692328Y343799
X681096
X683904Y335166
X693030Y331110
X702156Y321048
X670600Y332358
X665900
X669162Y341250
X677687Y271171
Y264183
X658944Y264186
X659022Y271284
X657912Y418841
X650501
X642912
Y443841
Y448841
X650412
Y443841
X660412Y441341
Y448841
X670412
Y441341
X677912
X685412
Y448841
X690690Y448968
X692640Y427908
X684450Y429780
X669995Y426341
X670412Y433681
X660412Y433841
Y426341
X667912Y419039
X705978Y420576
X705354Y433994
X725600Y463800
X732600Y460800
X739600Y463800
X742600Y470800
X739600Y477800
X732600Y480800
X725600Y477800
X722600Y470800
X675804Y457141
X635412Y447941
X632412
X629512
X629401Y441981
X632300Y442044
X635200
X633900Y436444
X629401Y436272
Y430564
Y427513
X633900Y431244
X636182Y421202
X618028Y425740
X614288
X610450
X604938
X601198
X597359
X597458Y446016
X601198
X605036
X610548
X614288
X618127
X597013Y458220
X595831Y466193
X581757Y468654
X549768Y468063
X518568Y468260
X534859Y425445
Y422526
X538107Y425445
X487766Y423794
X491995Y419498
X480947Y435198
X466538Y424621
X464139Y423221
X461287Y423121
X458139Y423221
X451857Y424311
X451987Y420721
X429598Y421116
X430298Y428373
X418599Y430194
X410021Y429694
X392598Y428373
X391898Y421116
X380899Y430194
X372321Y429694
X354898Y428373
X354198Y421116
X343199Y430194
X334621Y429694
X452212Y463800
X459212Y460800
X466212Y463800
X469212Y470800
X466212Y477800
X459212Y480800
X452212Y477800
X449212Y470800
X317199Y428373
X316499Y421116
X305499Y430194
X296921Y429694
X279499Y428373
X278799Y421116
X267799Y430194
X259222Y429694
X251633Y420765
X198768Y430379
X188386Y427820
X173004Y427164
X173024Y423684
X168624Y422936
X172985Y430763
X150531Y423147
X138532Y419885
X133816Y423013
X125169Y428836
X119043Y422898
X99185Y428935
X88555Y428738
X77137
X62513Y430693
X60864Y427133
X60480Y423292
X51597Y422448
X51649Y426289
X51793Y430234
X45955Y433300
X27845
X23016Y441150
X36900Y442355
Y424245
X34112Y470097
X25000Y470800
X22000Y477800
Y463800
X49643Y472188
X58209Y472087
X140048Y434467
X4500Y436700
X5200Y451700
Y456000
X8000Y463800
X15000Y460800
Y480800
X8000Y477800
X5000Y470800
T03
X648427Y229764
X658427
X668427
Y239764
X658427
X648427
X638427
Y229764
X587127
Y239764
X577127
Y229764
X567127
Y239764
X557127
Y229764
X505827
Y239764
X495827
Y229764
X485827
Y239764
X475827
Y229764
X423771Y229466
Y239466
X413771
Y229466
X403771
Y239466
X393771
Y229466
X364303Y234643
Y244643
X354303
Y234643
X344303
Y244643
X334303
Y234643
X218397Y229860
Y239860
X208397
Y229860
X198397
Y239860
X188397
X178661Y239764
Y229764
X188397Y229860
X168661Y229764
Y239764
X158661
Y229764
X148661
Y239764
X136969Y245787
X126969
X117205
X96870Y239764
Y229764
X86870
Y239764
X76870
Y229764
X66870
Y239764
X80100Y263400
Y273400
X90100
Y263400
X100100
Y273400
X110100
Y263400
X120100
Y273400
X130100
Y263400
X140100
Y273400
X150100
Y263400
X160100
Y273400
X170100
Y263400
X110300Y293100
Y303100
X100300
Y293100
X90300
Y303100
X80300
Y293100
X70300
Y303100
Y330594
X80300
X90300
X100300
X110300
Y340594
X100300
X90300
X80300
X70300
X180100Y273400
Y263400
X190100
Y273400
X314476Y268686
X324476
Y278686
X314476
X334476
X344476
X354476
Y268686
X344476
X334476
X495807Y264055
Y274055
Y284055
Y294055
X505807
Y284055
Y274055
Y264055
T04
X35700Y347800
X43600
Y357721
X35700
T05
X261300Y309100
X271300
X293000
X303000
X324500
X316750Y353700
X306750
X296750
X275700
X265700
X255700
Y377700
X265700
X275700
X296750
X306750
X316750
X337800
X347800
X357800
X379035
X389035
X399035
Y353700
X389035
X379035
X357800
X347800
X337800
X334500Y309100
X436024Y307520
Y317520
Y327520
X459842Y327421
Y317421
Y307421
Y285945
Y275945
Y265945
X436024
Y275945
Y285945
X8600Y427400
Y445200
T06
X56694Y17618
Y29429
X68506
Y17618
X138486
X150297
Y29429
X138486
X220013Y29525
Y17714
X231824
Y29525
X302068Y29429
X313879
Y17618
X302068
X383596Y17320
Y29131
X395407
Y17320
X465651Y17618
X477462
Y29429
X465651
X546951
Y17618
X558762
Y29429
X628251
X640062
Y17618
X628251
X562011Y272495
Y284306
X550200
Y272495
X538389
Y284306
T07
X339160Y451959
X352940
Y471644
X339160
X376860
X390640
Y451959
X376860
X414560
X428339
Y471644
X414560
X315240
X301460
Y451959
X315240
X277540
X263761
Y471644
X277540
T08
X18400Y422500
Y450100
T09
X668519Y257769
X615519
Y271169
X668519
X669100Y322000
X655700
Y375000
X669100
T10
X692500Y125800
Y158300
Y190800
Y223300
Y255800
Y288300
Y320879
Y353379
Y385879
Y418379
T11
X25000Y329100
Y376422
T12
X44883Y13917
X80317
X126675
X162108
X208202Y14013
X243635
X290258Y13917
X325691
X371784Y13620
X407218
X453840Y13917
X489273
X535140
X570573
X616440
X651873
X573822Y288006
X526578
T13
X15000Y15000
X349606
X732600Y14800
Y470800
X459212
X15000
T14
X13189Y242323
X215500Y267100
X36900Y433300
M30
