G04*
G04 #@! TF.GenerationSoftware,Altium Limited,Altium Designer,19.0.12 (326)*
G04*
G04 Layer_Color=16711935*
%FSLAX25Y25*%
%MOIN*%
G70*
G01*
G75*
%ADD118C,0.06000*%
%ADD179R,0.08400X0.08400*%
%ADD194C,0.08400*%
%ADD195O,0.13998X0.14000*%
%ADD196R,0.13998X0.14000*%
%ADD197O,0.06400X0.12400*%
%ADD198O,0.12400X0.06400*%
%ADD199R,0.06306X0.06306*%
%ADD200C,0.06306*%
%ADD201R,0.06306X0.06306*%
G04:AMPARAMS|DCode=202|XSize=137mil|YSize=87mil|CornerRadius=0mil|HoleSize=0mil|Usage=FLASHONLY|Rotation=180.000|XOffset=0mil|YOffset=0mil|HoleType=Round|Shape=Octagon|*
%AMOCTAGOND202*
4,1,8,-0.06850,0.02175,-0.06850,-0.02175,-0.04675,-0.04350,0.04675,-0.04350,0.06850,-0.02175,0.06850,0.02175,0.04675,0.04350,-0.04675,0.04350,-0.06850,0.02175,0.0*
%
%ADD202OCTAGOND202*%

%ADD203C,0.10400*%
%ADD204P,0.08010X8X292.5*%
%ADD205C,0.13450*%
%ADD206C,0.06200*%
G04:AMPARAMS|DCode=207|XSize=137mil|YSize=87mil|CornerRadius=0mil|HoleSize=0mil|Usage=FLASHONLY|Rotation=90.000|XOffset=0mil|YOffset=0mil|HoleType=Round|Shape=Octagon|*
%AMOCTAGOND207*
4,1,8,0.02175,0.06850,-0.02175,0.06850,-0.04350,0.04675,-0.04350,-0.04675,-0.02175,-0.06850,0.02175,-0.06850,0.04350,-0.04675,0.04350,0.04675,0.02175,0.06850,0.0*
%
%ADD207OCTAGOND207*%

%ADD208C,0.01000*%
%ADD364R,0.07045X0.03543*%
%ADD365R,0.03543X0.07045*%
%ADD366C,0.05400*%
G04:AMPARAMS|DCode=367|XSize=54mil|YSize=54mil|CornerRadius=27mil|HoleSize=0mil|Usage=FLASHONLY|Rotation=0.000|XOffset=0mil|YOffset=0mil|HoleType=Round|Shape=RoundedRectangle|*
%AMROUNDEDRECTD367*
21,1,0.05400,0.00000,0,0,0.0*
21,1,0.00000,0.05400,0,0,0.0*
1,1,0.05400,0.00000,0.00000*
1,1,0.05400,0.00000,0.00000*
1,1,0.05400,0.00000,0.00000*
1,1,0.05400,0.00000,0.00000*
%
%ADD367ROUNDEDRECTD367*%
G04:AMPARAMS|DCode=368|XSize=54mil|YSize=54mil|CornerRadius=27mil|HoleSize=0mil|Usage=FLASHONLY|Rotation=270.000|XOffset=0mil|YOffset=0mil|HoleType=Round|Shape=RoundedRectangle|*
%AMROUNDEDRECTD368*
21,1,0.05400,0.00000,0,0,270.0*
21,1,0.00000,0.05400,0,0,270.0*
1,1,0.05400,0.00000,0.00000*
1,1,0.05400,0.00000,0.00000*
1,1,0.05400,0.00000,0.00000*
1,1,0.05400,0.00000,0.00000*
%
%ADD368ROUNDEDRECTD368*%
G04:AMPARAMS|DCode=369|XSize=50mil|YSize=67mil|CornerRadius=13.5mil|HoleSize=0mil|Usage=FLASHONLY|Rotation=90.000|XOffset=0mil|YOffset=0mil|HoleType=Round|Shape=RoundedRectangle|*
%AMROUNDEDRECTD369*
21,1,0.05000,0.04000,0,0,90.0*
21,1,0.02300,0.06700,0,0,90.0*
1,1,0.02700,0.02000,0.01150*
1,1,0.02700,0.02000,-0.01150*
1,1,0.02700,-0.02000,-0.01150*
1,1,0.02700,-0.02000,0.01150*
%
%ADD369ROUNDEDRECTD369*%
G04:AMPARAMS|DCode=370|XSize=50mil|YSize=67mil|CornerRadius=13.5mil|HoleSize=0mil|Usage=FLASHONLY|Rotation=180.000|XOffset=0mil|YOffset=0mil|HoleType=Round|Shape=RoundedRectangle|*
%AMROUNDEDRECTD370*
21,1,0.05000,0.04000,0,0,180.0*
21,1,0.02300,0.06700,0,0,180.0*
1,1,0.02700,-0.01150,0.02000*
1,1,0.02700,0.01150,0.02000*
1,1,0.02700,0.01150,-0.02000*
1,1,0.02700,-0.01150,-0.02000*
%
%ADD370ROUNDEDRECTD370*%
G36*
X608559Y259874D02*
X622459D01*
Y268974D01*
X608559D01*
Y259874D01*
D02*
G37*
G36*
X661559D02*
X675459D01*
Y268974D01*
X661559D01*
Y259874D01*
D02*
G37*
G36*
X657805Y328961D02*
Y315061D01*
X666905D01*
Y328961D01*
X657805D01*
D02*
G37*
G36*
Y381961D02*
Y368061D01*
X666905D01*
Y381961D01*
X657805D01*
D02*
G37*
G54D118*
X455275Y480249D02*
D03*
X463149D02*
D03*
X468661Y474737D02*
D03*
Y466863D02*
D03*
X463149Y461351D02*
D03*
X455275D02*
D03*
X449763Y466863D02*
D03*
Y474737D02*
D03*
X345669Y24449D02*
D03*
X353543D02*
D03*
X359055Y18937D02*
D03*
Y11063D02*
D03*
X353543Y5551D02*
D03*
X345669D02*
D03*
X340158Y11063D02*
D03*
Y18937D02*
D03*
X736537Y5351D02*
D03*
X728663D02*
D03*
X723151Y10863D02*
D03*
Y18737D02*
D03*
X728663Y24249D02*
D03*
X736537D02*
D03*
X742049Y18737D02*
D03*
Y10863D02*
D03*
X18937Y5551D02*
D03*
X11063D02*
D03*
X5551Y11063D02*
D03*
Y18937D02*
D03*
X11063Y24449D02*
D03*
X18937D02*
D03*
X24449Y18937D02*
D03*
Y11063D02*
D03*
X18937Y461351D02*
D03*
X11063D02*
D03*
X5551Y466863D02*
D03*
Y474737D02*
D03*
X11063Y480249D02*
D03*
X18937D02*
D03*
X24449Y474737D02*
D03*
Y466863D02*
D03*
X736537Y461351D02*
D03*
X728663D02*
D03*
X723151Y466863D02*
D03*
Y474737D02*
D03*
X728663Y480249D02*
D03*
X736537D02*
D03*
X742049Y474737D02*
D03*
Y466863D02*
D03*
G54D179*
X538389Y284306D02*
D03*
X640062Y17618D02*
D03*
X558762D02*
D03*
X477462D02*
D03*
X395407Y17320D02*
D03*
X313879Y17618D02*
D03*
X231824Y17714D02*
D03*
X150297Y17618D02*
D03*
X68506D02*
D03*
G54D194*
X414560Y471644D02*
D03*
X428339D02*
D03*
Y451959D02*
D03*
X414560D02*
D03*
X376860D02*
D03*
X390640D02*
D03*
Y471644D02*
D03*
X376860D02*
D03*
X339160D02*
D03*
X352940D02*
D03*
Y451959D02*
D03*
X339160D02*
D03*
X301460D02*
D03*
X315240D02*
D03*
Y471644D02*
D03*
X301460D02*
D03*
X263761D02*
D03*
X277540D02*
D03*
Y451959D02*
D03*
X263761D02*
D03*
X562011Y272495D02*
D03*
Y284306D02*
D03*
X550200Y272495D02*
D03*
Y284306D02*
D03*
X538389Y272495D02*
D03*
X640062Y29429D02*
D03*
X628251Y17618D02*
D03*
Y29429D02*
D03*
X546951D02*
D03*
Y17618D02*
D03*
X558762Y29429D02*
D03*
X477462D02*
D03*
X465651Y17618D02*
D03*
Y29429D02*
D03*
X383596Y29131D02*
D03*
Y17320D02*
D03*
X395407Y29131D02*
D03*
X313879Y29429D02*
D03*
X302068Y17618D02*
D03*
Y29429D02*
D03*
X220013Y29525D02*
D03*
Y17714D02*
D03*
X231824Y29525D02*
D03*
X150297Y29429D02*
D03*
X138486Y17618D02*
D03*
Y29429D02*
D03*
X56694D02*
D03*
Y17618D02*
D03*
X68506Y29429D02*
D03*
G54D195*
X692500Y418379D02*
D03*
Y385879D02*
D03*
Y353379D02*
D03*
Y320879D02*
D03*
Y158300D02*
D03*
Y190800D02*
D03*
Y223300D02*
D03*
Y255800D02*
D03*
Y288300D02*
D03*
G54D196*
Y125800D02*
D03*
G54D197*
X379035Y377700D02*
D03*
X389035D02*
D03*
X399035D02*
D03*
X379035Y353700D02*
D03*
X389035D02*
D03*
X399035D02*
D03*
X303000Y309100D02*
D03*
X293000D02*
D03*
X275700Y353700D02*
D03*
X265700D02*
D03*
X255700D02*
D03*
X337800D02*
D03*
X347800D02*
D03*
X357800D02*
D03*
X296750D02*
D03*
X306750D02*
D03*
X316750D02*
D03*
X357800Y377700D02*
D03*
X347800D02*
D03*
X337800D02*
D03*
X316750D02*
D03*
X306750D02*
D03*
X296750D02*
D03*
X275700D02*
D03*
X265700D02*
D03*
X255700D02*
D03*
X334500Y309100D02*
D03*
X324500D02*
D03*
X271300D02*
D03*
X261300D02*
D03*
G54D198*
X436024Y285945D02*
D03*
Y275945D02*
D03*
Y265945D02*
D03*
Y327520D02*
D03*
Y317520D02*
D03*
Y307520D02*
D03*
X459842Y265945D02*
D03*
Y275945D02*
D03*
Y285945D02*
D03*
Y307421D02*
D03*
Y317421D02*
D03*
Y327421D02*
D03*
G54D199*
X668427Y239764D02*
D03*
X587127D02*
D03*
X505827D02*
D03*
X423771Y239466D02*
D03*
X364303Y244643D02*
D03*
X218397Y239860D02*
D03*
X96870Y239764D02*
D03*
X178661D02*
D03*
X314476Y268686D02*
D03*
X190100Y273400D02*
D03*
X70300Y293100D02*
D03*
Y330594D02*
D03*
G54D200*
X668427Y229764D02*
D03*
X658427Y239764D02*
D03*
Y229764D02*
D03*
X648427Y239764D02*
D03*
Y229764D02*
D03*
X638427Y239764D02*
D03*
Y229764D02*
D03*
X587127D02*
D03*
X577127Y239764D02*
D03*
Y229764D02*
D03*
X567127Y239764D02*
D03*
Y229764D02*
D03*
X557127Y239764D02*
D03*
Y229764D02*
D03*
X505827D02*
D03*
X495827Y239764D02*
D03*
Y229764D02*
D03*
X485827Y239764D02*
D03*
Y229764D02*
D03*
X475827Y239764D02*
D03*
Y229764D02*
D03*
X423771Y229466D02*
D03*
X413771Y239466D02*
D03*
Y229466D02*
D03*
X403771Y239466D02*
D03*
Y229466D02*
D03*
X393771Y239466D02*
D03*
Y229466D02*
D03*
X364303Y234643D02*
D03*
X354303Y244643D02*
D03*
Y234643D02*
D03*
X344303Y244643D02*
D03*
Y234643D02*
D03*
X334303Y244643D02*
D03*
Y234643D02*
D03*
X218397Y229860D02*
D03*
X208397Y239860D02*
D03*
Y229860D02*
D03*
X198397Y239860D02*
D03*
Y229860D02*
D03*
X188397Y239860D02*
D03*
Y229860D02*
D03*
X96870Y229764D02*
D03*
X86870Y239764D02*
D03*
Y229764D02*
D03*
X76870Y239764D02*
D03*
Y229764D02*
D03*
X66870Y239764D02*
D03*
Y229764D02*
D03*
X126969Y245787D02*
D03*
X117205D02*
D03*
X178661Y229764D02*
D03*
X168661Y239764D02*
D03*
Y229764D02*
D03*
X158661Y239764D02*
D03*
Y229764D02*
D03*
X148661Y239764D02*
D03*
Y229764D02*
D03*
X495807Y294055D02*
D03*
X505807D02*
D03*
X495807Y284055D02*
D03*
X505807D02*
D03*
X495807Y274055D02*
D03*
X505807D02*
D03*
X495807Y264055D02*
D03*
X354476Y278686D02*
D03*
Y268686D02*
D03*
X344476Y278686D02*
D03*
Y268686D02*
D03*
X334476Y278686D02*
D03*
Y268686D02*
D03*
X324476Y278686D02*
D03*
Y268686D02*
D03*
X314476Y278686D02*
D03*
X80100Y263400D02*
D03*
Y273400D02*
D03*
X90100Y263400D02*
D03*
Y273400D02*
D03*
X100100Y263400D02*
D03*
Y273400D02*
D03*
X110100Y263400D02*
D03*
Y273400D02*
D03*
X120100Y263400D02*
D03*
Y273400D02*
D03*
X130100Y263400D02*
D03*
Y273400D02*
D03*
X140100Y263400D02*
D03*
Y273400D02*
D03*
X150100Y263400D02*
D03*
Y273400D02*
D03*
X160100Y263400D02*
D03*
Y273400D02*
D03*
X170100Y263400D02*
D03*
Y273400D02*
D03*
X180100Y263400D02*
D03*
Y273400D02*
D03*
X190100Y263400D02*
D03*
X110300Y303100D02*
D03*
Y293100D02*
D03*
X100300Y303100D02*
D03*
Y293100D02*
D03*
X90300Y303100D02*
D03*
Y293100D02*
D03*
X80300Y303100D02*
D03*
Y293100D02*
D03*
X70300Y303100D02*
D03*
X110300Y340594D02*
D03*
Y330594D02*
D03*
X100300Y340594D02*
D03*
Y330594D02*
D03*
X90300Y340594D02*
D03*
Y330594D02*
D03*
X80300Y340594D02*
D03*
Y330594D02*
D03*
X70300Y340594D02*
D03*
G54D201*
X136969Y245787D02*
D03*
X505807Y264055D02*
D03*
G54D202*
X615519Y257769D02*
D03*
Y271169D02*
D03*
X668519D02*
D03*
Y257769D02*
D03*
G54D203*
X18400Y422500D02*
D03*
Y450100D02*
D03*
G54D204*
X8600Y427400D02*
D03*
Y445200D02*
D03*
G54D205*
X25000Y329100D02*
D03*
Y376422D02*
D03*
G54D206*
X35700Y347800D02*
D03*
Y357721D02*
D03*
X43600D02*
D03*
Y347800D02*
D03*
G54D207*
X655700Y375000D02*
D03*
X669100D02*
D03*
Y322000D02*
D03*
X655700D02*
D03*
G54D208*
X579700Y449687D02*
D03*
X575369D02*
D03*
X579700Y454018D02*
D03*
X575369D02*
D03*
X579700Y458349D02*
D03*
X575369D02*
D03*
X589711Y339197D02*
D03*
X585711D02*
D03*
Y335197D02*
D03*
X589711D02*
D03*
Y331197D02*
D03*
X585711D02*
D03*
Y327197D02*
D03*
X589711D02*
D03*
X597711D02*
D03*
X601711D02*
D03*
Y331197D02*
D03*
X597711D02*
D03*
Y335197D02*
D03*
X601711D02*
D03*
Y339197D02*
D03*
X597711D02*
D03*
X593711D02*
D03*
Y335197D02*
D03*
Y327197D02*
D03*
Y331197D02*
D03*
X549712Y331196D02*
D03*
Y327196D02*
D03*
Y335196D02*
D03*
Y339196D02*
D03*
X553712D02*
D03*
X557712D02*
D03*
Y335196D02*
D03*
X553712D02*
D03*
Y331196D02*
D03*
X557712D02*
D03*
Y327196D02*
D03*
X553712D02*
D03*
X545712D02*
D03*
X541712D02*
D03*
Y331196D02*
D03*
X545712D02*
D03*
Y335196D02*
D03*
X541712D02*
D03*
Y339196D02*
D03*
X545712D02*
D03*
X650501Y431294D02*
D03*
X654501D02*
D03*
X646501D02*
D03*
X642501D02*
D03*
Y435294D02*
D03*
Y439294D02*
D03*
X646501D02*
D03*
Y435294D02*
D03*
X650501D02*
D03*
Y439294D02*
D03*
X654501D02*
D03*
Y435294D02*
D03*
Y427294D02*
D03*
Y423294D02*
D03*
X650501D02*
D03*
Y427294D02*
D03*
X646501D02*
D03*
Y423294D02*
D03*
X642501D02*
D03*
Y427294D02*
D03*
X507362Y331596D02*
D03*
Y327596D02*
D03*
Y335596D02*
D03*
Y339596D02*
D03*
X511362D02*
D03*
X515362D02*
D03*
Y335596D02*
D03*
X511362D02*
D03*
Y331596D02*
D03*
X515362D02*
D03*
Y327596D02*
D03*
X511362D02*
D03*
X503362D02*
D03*
X499362D02*
D03*
Y331596D02*
D03*
X503362D02*
D03*
Y335596D02*
D03*
X499362D02*
D03*
Y339596D02*
D03*
X503362D02*
D03*
G54D364*
X57656Y338765D02*
D03*
G54D365*
X68110Y363941D02*
D03*
G54D366*
X246246Y400062D02*
D03*
X285168Y395148D02*
D03*
X327444Y394758D02*
D03*
X364728Y395148D02*
D03*
X414960Y395304D02*
D03*
X263874Y461370D02*
D03*
X277758D02*
D03*
X301626D02*
D03*
X315198D02*
D03*
X339222D02*
D03*
X352872D02*
D03*
X377052D02*
D03*
X390702D02*
D03*
X414648D02*
D03*
X428376D02*
D03*
X378839Y341043D02*
D03*
X691142Y107972D02*
D03*
X406960Y377700D02*
D03*
X91339Y70476D02*
D03*
X80136Y43504D02*
D03*
X45177D02*
D03*
X33858Y70374D02*
D03*
X662895Y70476D02*
D03*
X651693Y43504D02*
D03*
X616734D02*
D03*
X605415Y70374D02*
D03*
X581595Y70476D02*
D03*
X570393Y43504D02*
D03*
X535434D02*
D03*
X524115Y70374D02*
D03*
X500295Y70476D02*
D03*
X489093Y43504D02*
D03*
X454134D02*
D03*
X442815Y70374D02*
D03*
X418240Y70178D02*
D03*
X407037Y43206D02*
D03*
X372078D02*
D03*
X360759Y70076D02*
D03*
X336713Y70476D02*
D03*
X325510Y43504D02*
D03*
X290551D02*
D03*
X279232Y70374D02*
D03*
X254657Y70572D02*
D03*
X243455Y43600D02*
D03*
X208496D02*
D03*
X197177Y70470D02*
D03*
X173130Y70476D02*
D03*
X115650Y70374D02*
D03*
X126969Y43504D02*
D03*
X161927D02*
D03*
X191437Y285335D02*
D03*
X289637Y282685D02*
D03*
X707928Y288678D02*
D03*
X38600Y366148D02*
D03*
X44900Y373900D02*
D03*
X285500Y358548D02*
D03*
X707928Y385866D02*
D03*
X264244Y342156D02*
D03*
X315500Y388548D02*
D03*
X285500Y348548D02*
D03*
X355500Y388548D02*
D03*
X328051Y353839D02*
D03*
X635700Y418457D02*
D03*
X512570Y357773D02*
D03*
X707928Y255918D02*
D03*
Y321282D02*
D03*
X38600Y336148D02*
D03*
X55413Y364198D02*
D03*
X707928Y191178D02*
D03*
X618540Y286884D02*
D03*
X448538Y416921D02*
D03*
X486595Y404098D02*
D03*
X36513Y248024D02*
D03*
X36583Y237252D02*
D03*
X509012Y322049D02*
D03*
X551212Y321649D02*
D03*
X595311Y321649D02*
D03*
X707928Y349050D02*
D03*
X254893Y284249D02*
D03*
X350886Y305709D02*
D03*
X165500Y378548D02*
D03*
X195500Y422485D02*
D03*
X185500Y412485D02*
D03*
Y422485D02*
D03*
X179921Y252756D02*
D03*
X245500Y288548D02*
D03*
X189567Y252953D02*
D03*
X335500Y298548D02*
D03*
X315500Y308548D02*
D03*
X278614Y309840D02*
D03*
X135500Y288548D02*
D03*
X55709Y308548D02*
D03*
X55500Y288548D02*
D03*
X26100Y258800D02*
D03*
X55500Y298548D02*
D03*
Y278548D02*
D03*
X29500Y298548D02*
D03*
X45709Y308548D02*
D03*
X65500Y348548D02*
D03*
X115500Y368548D02*
D03*
X145500D02*
D03*
X175500Y398548D02*
D03*
X613848Y407644D02*
D03*
X135500Y388548D02*
D03*
X115500D02*
D03*
X469012Y381697D02*
D03*
X562570Y361710D02*
D03*
X585311Y351649D02*
D03*
X541212Y351649D02*
D03*
X499012Y352049D02*
D03*
X35500Y398548D02*
D03*
X175500Y412485D02*
D03*
X707928Y425144D02*
D03*
G54D367*
X448200Y307380D02*
D03*
X424578Y285923D02*
D03*
X469657Y266139D02*
D03*
X481468Y281887D02*
D03*
G54D368*
X436024Y336415D02*
D03*
X518830Y387486D02*
D03*
X600300Y457748D02*
D03*
X344476Y286907D02*
D03*
G54D369*
X57579Y341863D02*
D03*
Y335863D02*
D03*
G54D370*
X71012Y363863D02*
D03*
X65012D02*
D03*
M02*
