G04*
G04 #@! TF.GenerationSoftware,Altium Limited,Altium Designer,19.0.12 (326)*
G04*
G04 Layer_Color=32896*
%FSLAX25Y25*%
%MOIN*%
G70*
G01*
G75*
%ADD15C,0.00800*%
%ADD18C,0.00400*%
%ADD19C,0.00500*%
%ADD27C,0.00600*%
G54D15*
X24606Y486709D02*
X21940D01*
X23273Y488042D02*
Y485376D01*
X12610Y486709D02*
X9944D01*
G54D18*
X258492Y397381D02*
X257159D01*
X257826D01*
Y395382D01*
X256493D02*
Y397381D01*
X255493D01*
X255160Y397048D01*
Y396382D01*
X255493Y396048D01*
X256493D01*
X254493Y395382D02*
X253827D01*
X254160D01*
Y397381D01*
X254493Y397048D01*
X252827Y395382D02*
X252161D01*
X252494D01*
Y397381D01*
X252827Y397048D01*
X251161Y395382D02*
Y396715D01*
X250495Y397381D01*
X249828Y396715D01*
Y395382D01*
Y396382D01*
X251161D01*
X297102Y399799D02*
X295769D01*
X296436D01*
Y397800D01*
X295103D02*
Y399799D01*
X294103D01*
X293770Y399466D01*
Y398800D01*
X294103Y398466D01*
X295103D01*
X293103Y397800D02*
X292437D01*
X292770D01*
Y399799D01*
X293103Y399466D01*
X291437Y397800D02*
X290771D01*
X291104D01*
Y399799D01*
X291437Y399466D01*
X289771Y399799D02*
Y397800D01*
X288771D01*
X288438Y398133D01*
Y398466D01*
X288771Y398800D01*
X289771D01*
X288771D01*
X288438Y399133D01*
Y399466D01*
X288771Y399799D01*
X289771D01*
X338988Y398785D02*
X337655D01*
X338321D01*
Y396786D01*
X336989D02*
Y398785D01*
X335989D01*
X335656Y398452D01*
Y397786D01*
X335989Y397452D01*
X336989D01*
X334989Y396786D02*
X334323D01*
X334656D01*
Y398785D01*
X334989Y398452D01*
X333323Y396786D02*
X332657D01*
X332990D01*
Y398785D01*
X333323Y398452D01*
X330324D02*
X330657Y398785D01*
X331324D01*
X331657Y398452D01*
Y397119D01*
X331324Y396786D01*
X330657D01*
X330324Y397119D01*
X375648Y399175D02*
X374315D01*
X374982D01*
Y397176D01*
X373649D02*
Y399175D01*
X372649D01*
X372316Y398842D01*
Y398176D01*
X372649Y397843D01*
X373649D01*
X371649Y397176D02*
X370983D01*
X371316D01*
Y399175D01*
X371649Y398842D01*
X369983Y397176D02*
X369317D01*
X369650D01*
Y399175D01*
X369983Y398842D01*
X368317Y399175D02*
Y397176D01*
X367317D01*
X366984Y397509D01*
Y398842D01*
X367317Y399175D01*
X368317D01*
X425646Y399877D02*
X424313D01*
X424980D01*
Y397878D01*
X423647D02*
Y399877D01*
X422647D01*
X422314Y399544D01*
Y398878D01*
X422647Y398545D01*
X423647D01*
X421647Y397878D02*
X420981D01*
X421314D01*
Y399877D01*
X421647Y399544D01*
X419981Y397878D02*
X419315D01*
X419648D01*
Y399877D01*
X419981Y399544D01*
X416982Y399877D02*
X418315D01*
Y397878D01*
X416982D01*
X418315Y398878D02*
X417649D01*
X259740Y460873D02*
X258407D01*
X259073D01*
Y458874D01*
X257741D02*
Y460873D01*
X256741D01*
X256408Y460540D01*
Y459874D01*
X256741Y459540D01*
X257741D01*
X254408Y458874D02*
X255741D01*
X254408Y460207D01*
Y460540D01*
X254742Y460873D01*
X255408D01*
X255741Y460540D01*
X252742Y458874D02*
Y460873D01*
X253742Y459874D01*
X252409D01*
X251743Y458874D02*
Y460207D01*
X251076Y460873D01*
X250410Y460207D01*
Y458874D01*
Y459874D01*
X251743D01*
X290550Y461029D02*
X289217D01*
X289884D01*
Y459030D01*
X288551D02*
Y461029D01*
X287551D01*
X287218Y460696D01*
Y460030D01*
X287551Y459696D01*
X288551D01*
X285218Y459030D02*
X286551D01*
X285218Y460363D01*
Y460696D01*
X285552Y461029D01*
X286218D01*
X286551Y460696D01*
X284552D02*
X284219Y461029D01*
X283552D01*
X283219Y460696D01*
Y460363D01*
X283552Y460030D01*
X283886D01*
X283552D01*
X283219Y459696D01*
Y459363D01*
X283552Y459030D01*
X284219D01*
X284552Y459363D01*
X282553Y459030D02*
Y460363D01*
X281886Y461029D01*
X281220Y460363D01*
Y459030D01*
Y460030D01*
X282553D01*
X298272Y465007D02*
X296939D01*
X297605D01*
Y463008D01*
X296273D02*
Y465007D01*
X295273D01*
X294940Y464674D01*
Y464008D01*
X295273Y463674D01*
X296273D01*
X292940Y463008D02*
X294273D01*
X292940Y464341D01*
Y464674D01*
X293274Y465007D01*
X293940D01*
X294273Y464674D01*
X291274Y463008D02*
Y465007D01*
X292274Y464008D01*
X290941D01*
X290275Y465007D02*
Y463008D01*
X289275D01*
X288942Y463341D01*
Y463674D01*
X289275Y464008D01*
X290275D01*
X289275D01*
X288942Y464341D01*
Y464674D01*
X289275Y465007D01*
X290275D01*
X328146Y465319D02*
X326813D01*
X327480D01*
Y463320D01*
X326147D02*
Y465319D01*
X325147D01*
X324814Y464986D01*
Y464320D01*
X325147Y463986D01*
X326147D01*
X322814Y463320D02*
X324147D01*
X322814Y464653D01*
Y464986D01*
X323148Y465319D01*
X323814D01*
X324147Y464986D01*
X322148D02*
X321815Y465319D01*
X321148D01*
X320815Y464986D01*
Y464653D01*
X321148Y464320D01*
X321481D01*
X321148D01*
X320815Y463986D01*
Y463653D01*
X321148Y463320D01*
X321815D01*
X322148Y463653D01*
X320149Y465319D02*
Y463320D01*
X319149D01*
X318816Y463653D01*
Y463986D01*
X319149Y464320D01*
X320149D01*
X319149D01*
X318816Y464653D01*
Y464986D01*
X319149Y465319D01*
X320149D01*
X335634Y461341D02*
X334301D01*
X334967D01*
Y459342D01*
X333635D02*
Y461341D01*
X332635D01*
X332302Y461008D01*
Y460342D01*
X332635Y460008D01*
X333635D01*
X330302Y459342D02*
X331635D01*
X330302Y460675D01*
Y461008D01*
X330636Y461341D01*
X331302D01*
X331635Y461008D01*
X328636Y459342D02*
Y461341D01*
X329636Y460342D01*
X328303D01*
X326304Y461008D02*
X326637Y461341D01*
X327303D01*
X327637Y461008D01*
Y459675D01*
X327303Y459342D01*
X326637D01*
X326304Y459675D01*
X365976Y461263D02*
X364643D01*
X365310D01*
Y459264D01*
X363977D02*
Y461263D01*
X362977D01*
X362644Y460930D01*
Y460264D01*
X362977Y459931D01*
X363977D01*
X360644Y459264D02*
X361977D01*
X360644Y460597D01*
Y460930D01*
X360978Y461263D01*
X361644D01*
X361977Y460930D01*
X359978D02*
X359645Y461263D01*
X358978D01*
X358645Y460930D01*
Y460597D01*
X358978Y460264D01*
X359312D01*
X358978D01*
X358645Y459931D01*
Y459597D01*
X358978Y459264D01*
X359645D01*
X359978Y459597D01*
X356646Y460930D02*
X356979Y461263D01*
X357645D01*
X357979Y460930D01*
Y459597D01*
X357645Y459264D01*
X356979D01*
X356646Y459597D01*
X373074Y465475D02*
X371741D01*
X372408D01*
Y463476D01*
X371075D02*
Y465475D01*
X370075D01*
X369742Y465142D01*
Y464476D01*
X370075Y464143D01*
X371075D01*
X367742Y463476D02*
X369075D01*
X367742Y464809D01*
Y465142D01*
X368076Y465475D01*
X368742D01*
X369075Y465142D01*
X366076Y463476D02*
Y465475D01*
X367076Y464476D01*
X365743D01*
X365077Y465475D02*
Y463476D01*
X364077D01*
X363744Y463809D01*
Y465142D01*
X364077Y465475D01*
X365077D01*
X403182Y466099D02*
X401849D01*
X402516D01*
Y464100D01*
X401183D02*
Y466099D01*
X400183D01*
X399850Y465766D01*
Y465100D01*
X400183Y464766D01*
X401183D01*
X397850Y464100D02*
X399183D01*
X397850Y465433D01*
Y465766D01*
X398184Y466099D01*
X398850D01*
X399183Y465766D01*
X397184D02*
X396851Y466099D01*
X396184D01*
X395851Y465766D01*
Y465433D01*
X396184Y465100D01*
X396517D01*
X396184D01*
X395851Y464766D01*
Y464433D01*
X396184Y464100D01*
X396851D01*
X397184Y464433D01*
X395185Y466099D02*
Y464100D01*
X394185D01*
X393852Y464433D01*
Y465766D01*
X394185Y466099D01*
X395185D01*
X410748Y460795D02*
X409415D01*
X410081D01*
Y458796D01*
X408749D02*
Y460795D01*
X407749D01*
X407416Y460462D01*
Y459796D01*
X407749Y459462D01*
X408749D01*
X405416Y458796D02*
X406749D01*
X405416Y460129D01*
Y460462D01*
X405750Y460795D01*
X406416D01*
X406749Y460462D01*
X403750Y458796D02*
Y460795D01*
X404750Y459796D01*
X403417D01*
X401418Y460795D02*
X402751D01*
Y458796D01*
X401418D01*
X402751Y459796D02*
X402084D01*
X441792Y461185D02*
X440459D01*
X441126D01*
Y459186D01*
X439793D02*
Y461185D01*
X438793D01*
X438460Y460852D01*
Y460186D01*
X438793Y459853D01*
X439793D01*
X436460Y459186D02*
X437793D01*
X436460Y460519D01*
Y460852D01*
X436794Y461185D01*
X437460D01*
X437793Y460852D01*
X435794D02*
X435461Y461185D01*
X434794D01*
X434461Y460852D01*
Y460519D01*
X434794Y460186D01*
X435127D01*
X434794D01*
X434461Y459853D01*
Y459519D01*
X434794Y459186D01*
X435461D01*
X435794Y459519D01*
X432462Y461185D02*
X433795D01*
Y459186D01*
X432462D01*
X433795Y460186D02*
X433128D01*
X147764Y295390D02*
Y294057D01*
X147097Y293391D01*
X146431Y294057D01*
Y295390D01*
X145764D02*
Y293391D01*
X144765D01*
X144431Y293724D01*
Y295057D01*
X144765Y295390D01*
X145764D01*
X143765D02*
Y293391D01*
X142765D01*
X142432Y293724D01*
Y295057D01*
X142765Y295390D01*
X143765D01*
X139766Y293391D02*
Y294724D01*
X139100Y295390D01*
X138434Y294724D01*
Y293391D01*
Y294390D01*
X139766D01*
X137767Y293391D02*
Y295390D01*
X136434Y293391D01*
Y295390D01*
X135768Y293391D02*
Y294724D01*
X135101Y295390D01*
X134435Y294724D01*
Y293391D01*
Y294390D01*
X135768D01*
X443380Y423774D02*
X443713Y424107D01*
Y424774D01*
X443380Y425107D01*
X443047D01*
X442714Y424774D01*
Y424440D01*
Y424774D01*
X442381Y425107D01*
X442047D01*
X441714Y424774D01*
Y424107D01*
X442047Y423774D01*
X441714Y425773D02*
X442047D01*
Y426107D01*
X441714D01*
Y425773D01*
X443380Y427439D02*
X443713Y427773D01*
Y428439D01*
X443380Y428772D01*
X443047D01*
X442714Y428439D01*
Y428106D01*
Y428439D01*
X442381Y428772D01*
X442047D01*
X441714Y428439D01*
Y427773D01*
X442047Y427439D01*
X443713Y429439D02*
X442381D01*
X441714Y430105D01*
X442381Y430772D01*
X443713D01*
X443380Y432771D02*
X443713Y432438D01*
Y431771D01*
X443380Y431438D01*
X442047D01*
X441714Y431771D01*
Y432438D01*
X442047Y432771D01*
X443380Y434770D02*
X443713Y434437D01*
Y433771D01*
X443380Y433437D01*
X442047D01*
X441714Y433771D01*
Y434437D01*
X442047Y434770D01*
X522749Y398473D02*
X524082D01*
Y397474D01*
X523416Y397807D01*
X523082D01*
X522749Y397474D01*
Y396807D01*
X523082Y396474D01*
X523749D01*
X524082Y396807D01*
X522083Y398473D02*
Y397141D01*
X521416Y396474D01*
X520750Y397141D01*
Y398473D01*
X520083Y398140D02*
X519750Y398473D01*
X519084D01*
X518750Y398140D01*
Y396807D01*
X519084Y396474D01*
X519750D01*
X520083Y396807D01*
Y398140D01*
X518084Y396141D02*
X516751D01*
X516085Y396474D02*
Y397807D01*
X515418Y398473D01*
X514752Y397807D01*
Y396474D01*
Y397474D01*
X516085D01*
X514085Y398473D02*
Y396807D01*
X513752Y396474D01*
X513086D01*
X512752Y396807D01*
Y398473D01*
X512086D02*
X510753Y396474D01*
Y398473D02*
X512086Y396474D01*
X383591Y313599D02*
X382258D01*
X382924D01*
Y311599D01*
X380258Y313265D02*
X380592Y313599D01*
X381258D01*
X381591Y313265D01*
Y311932D01*
X381258Y311599D01*
X380592D01*
X380258Y311932D01*
X378592Y311599D02*
Y313599D01*
X379592Y312599D01*
X378259D01*
X347272Y299721D02*
X345939D01*
X346605D01*
Y297721D01*
X343939Y299388D02*
X344273Y299721D01*
X344939D01*
X345272Y299388D01*
Y298055D01*
X344939Y297721D01*
X344273D01*
X343939Y298055D01*
X343273Y299388D02*
X342940Y299721D01*
X342273D01*
X341940Y299388D01*
Y299054D01*
X342273Y298721D01*
X342606D01*
X342273D01*
X341940Y298388D01*
Y298055D01*
X342273Y297721D01*
X342940D01*
X343273Y298055D01*
X286937Y299918D02*
X285604D01*
X286271D01*
Y297918D01*
X283605Y299584D02*
X283938Y299918D01*
X284604D01*
X284938Y299584D01*
Y298251D01*
X284604Y297918D01*
X283938D01*
X283605Y298251D01*
X282938Y297918D02*
X282272D01*
X282605D01*
Y299918D01*
X282938Y299584D01*
X291071Y276197D02*
X289738D01*
X290404D01*
Y274198D01*
X287739Y275864D02*
X288072Y276197D01*
X288738D01*
X289071Y275864D01*
Y274531D01*
X288738Y274198D01*
X288072D01*
X287739Y274531D01*
X286072Y274198D02*
Y276197D01*
X287072Y275197D01*
X285739D01*
X317646Y301099D02*
X316313D01*
X316979D01*
Y299099D01*
X314313Y300765D02*
X314647Y301099D01*
X315313D01*
X315646Y300765D01*
Y299432D01*
X315313Y299099D01*
X314647D01*
X314313Y299432D01*
X312314Y299099D02*
X313647D01*
X312314Y300432D01*
Y300765D01*
X312647Y301099D01*
X313314D01*
X313647Y300765D01*
X264988Y287713D02*
X263655D01*
X264322D01*
Y285714D01*
X261656Y287380D02*
X261989Y287713D01*
X262656D01*
X262989Y287380D01*
Y286047D01*
X262656Y285714D01*
X261989D01*
X261656Y286047D01*
X260989Y285714D02*
X260323D01*
X260656D01*
Y287713D01*
X260989Y287380D01*
X240874Y289189D02*
X239541D01*
X240208D01*
Y287190D01*
X237542Y288856D02*
X237875Y289189D01*
X238541D01*
X238875Y288856D01*
Y287523D01*
X238541Y287190D01*
X237875D01*
X237542Y287523D01*
X235542Y287190D02*
X236875D01*
X235542Y288523D01*
Y288856D01*
X235876Y289189D01*
X236542D01*
X236875Y288856D01*
X291071Y288599D02*
X289738D01*
X290404D01*
Y286599D01*
X287739Y288265D02*
X288072Y288599D01*
X288738D01*
X289071Y288265D01*
Y286932D01*
X288738Y286599D01*
X288072D01*
X287739Y286932D01*
X287072Y288265D02*
X286739Y288599D01*
X286072D01*
X285739Y288265D01*
Y287932D01*
X286072Y287599D01*
X286406D01*
X286072D01*
X285739Y287266D01*
Y286932D01*
X286072Y286599D01*
X286739D01*
X287072Y286932D01*
X69784Y336414D02*
Y335081D01*
X69117Y334414D01*
X68451Y335081D01*
Y336414D01*
X67784D02*
Y334747D01*
X67451Y334414D01*
X66784D01*
X66451Y334747D01*
Y336414D01*
X64452Y336080D02*
X64785Y336414D01*
X65452D01*
X65785Y336080D01*
Y335747D01*
X65452Y335414D01*
X64785D01*
X64452Y335081D01*
Y334747D01*
X64785Y334414D01*
X65452D01*
X65785Y334747D01*
X63785Y336414D02*
Y334414D01*
X62786D01*
X62453Y334747D01*
Y335081D01*
X62786Y335414D01*
X63785D01*
X62786D01*
X62453Y335747D01*
Y336080D01*
X62786Y336414D01*
X63785D01*
X66563Y308056D02*
Y310055D01*
X65896Y309389D01*
X65230Y310055D01*
Y308056D01*
X63231Y309722D02*
X63564Y310055D01*
X64230D01*
X64564Y309722D01*
Y308389D01*
X64230Y308056D01*
X63564D01*
X63231Y308389D01*
X61231Y309722D02*
X61565Y310055D01*
X62231D01*
X62564Y309722D01*
Y308389D01*
X62231Y308056D01*
X61565D01*
X61231Y308389D01*
X60565Y310055D02*
Y308056D01*
Y308722D01*
X59232Y310055D01*
X60232Y309056D01*
X59232Y308056D01*
X68433Y297328D02*
Y299327D01*
X67767Y298660D01*
X67100Y299327D01*
Y297328D01*
X65101Y298994D02*
X65434Y299327D01*
X66101D01*
X66434Y298994D01*
Y297661D01*
X66101Y297328D01*
X65434D01*
X65101Y297661D01*
X63102Y298994D02*
X63435Y299327D01*
X64101D01*
X64434Y298994D01*
Y297661D01*
X64101Y297328D01*
X63435D01*
X63102Y297661D01*
X62435Y299327D02*
Y297328D01*
X61435D01*
X61102Y297661D01*
Y298994D01*
X61435Y299327D01*
X62435D01*
X60436Y297328D02*
Y298660D01*
X59769Y299327D01*
X59103Y298660D01*
Y297328D01*
Y298327D01*
X60436D01*
X40382Y305202D02*
Y307201D01*
X39715Y306535D01*
X39049Y307201D01*
Y305202D01*
X37050Y306868D02*
X37383Y307201D01*
X38049D01*
X38383Y306868D01*
Y305535D01*
X38049Y305202D01*
X37383D01*
X37050Y305535D01*
X36383Y307201D02*
Y305202D01*
X35383D01*
X35050Y305535D01*
Y306868D01*
X35383Y307201D01*
X36383D01*
X34384Y305202D02*
Y306535D01*
X33717Y307201D01*
X33051Y306535D01*
Y305202D01*
Y306201D01*
X34384D01*
X32384Y305202D02*
X31718D01*
X32051D01*
Y307201D01*
X32384Y306868D01*
X41858Y294867D02*
Y296866D01*
X41192Y296200D01*
X40525Y296866D01*
Y294867D01*
X38526Y296533D02*
X38859Y296866D01*
X39526D01*
X39859Y296533D01*
Y295200D01*
X39526Y294867D01*
X38859D01*
X38526Y295200D01*
X37860Y296866D02*
Y294867D01*
X36860D01*
X36527Y295200D01*
Y296533D01*
X36860Y296866D01*
X37860D01*
X35860Y294867D02*
Y296200D01*
X35194Y296866D01*
X34527Y296200D01*
Y294867D01*
Y295867D01*
X35860D01*
X33861Y296533D02*
X33528Y296866D01*
X32861D01*
X32528Y296533D01*
Y295200D01*
X32861Y294867D01*
X33528D01*
X33861Y295200D01*
Y296533D01*
X51209Y287879D02*
Y289878D01*
X50542Y289212D01*
X49876Y289878D01*
Y287879D01*
X47876Y289545D02*
X48210Y289878D01*
X48876D01*
X49209Y289545D01*
Y288212D01*
X48876Y287879D01*
X48210D01*
X47876Y288212D01*
X47210Y289878D02*
Y287879D01*
X46210D01*
X45877Y288212D01*
Y289545D01*
X46210Y289878D01*
X47210D01*
X45211Y287879D02*
Y289212D01*
X44544Y289878D01*
X43878Y289212D01*
Y287879D01*
Y288878D01*
X45211D01*
X43211Y289545D02*
X42878Y289878D01*
X42212D01*
X41878Y289545D01*
Y289212D01*
X42212Y288878D01*
X42545D01*
X42212D01*
X41878Y288545D01*
Y288212D01*
X42212Y287879D01*
X42878D01*
X43211Y288212D01*
X68827Y276363D02*
Y278362D01*
X68160Y277696D01*
X67494Y278362D01*
Y276363D01*
X65495Y278029D02*
X65828Y278362D01*
X66494D01*
X66827Y278029D01*
Y276696D01*
X66494Y276363D01*
X65828D01*
X65495Y276696D01*
X64828Y278362D02*
Y276363D01*
X63828D01*
X63495Y276696D01*
Y278029D01*
X63828Y278362D01*
X64828D01*
X62829Y276363D02*
Y277696D01*
X62162Y278362D01*
X61496Y277696D01*
Y276363D01*
Y277363D01*
X62829D01*
X59496Y276363D02*
X60829D01*
X59496Y277696D01*
Y278029D01*
X59830Y278362D01*
X60496D01*
X60829Y278029D01*
X110067Y385313D02*
X109734Y385646D01*
X109067D01*
X108734Y385313D01*
Y384979D01*
X109067Y384646D01*
X109400D01*
X109067D01*
X108734Y384313D01*
Y383980D01*
X109067Y383646D01*
X109734D01*
X110067Y383980D01*
X108068Y383646D02*
Y383980D01*
X107734D01*
Y383646D01*
X108068D01*
X106401Y385313D02*
X106068Y385646D01*
X105402D01*
X105069Y385313D01*
Y384979D01*
X105402Y384646D01*
X105735D01*
X105402D01*
X105069Y384313D01*
Y383980D01*
X105402Y383646D01*
X106068D01*
X106401Y383980D01*
X104402Y385646D02*
Y384313D01*
X103736Y383646D01*
X103069Y384313D01*
Y385646D01*
X144291Y384210D02*
X143958Y384543D01*
X143292D01*
X142958Y384210D01*
Y383877D01*
X143292Y383544D01*
X143625D01*
X143292D01*
X142958Y383210D01*
Y382877D01*
X143292Y382544D01*
X143958D01*
X144291Y382877D01*
X142292Y382544D02*
Y382877D01*
X141959D01*
Y382544D01*
X142292D01*
X140626Y384210D02*
X140293Y384543D01*
X139626D01*
X139293Y384210D01*
Y383877D01*
X139626Y383544D01*
X139959D01*
X139626D01*
X139293Y383210D01*
Y382877D01*
X139626Y382544D01*
X140293D01*
X140626Y382877D01*
X138627Y384543D02*
Y383210D01*
X137960Y382544D01*
X137294Y383210D01*
Y384543D01*
X136627D02*
X135961D01*
X136294D01*
Y382544D01*
X136627D01*
X135961D01*
X133961Y384543D02*
X134628D01*
X134961Y384210D01*
Y382877D01*
X134628Y382544D01*
X133961D01*
X133628Y382877D01*
Y384210D01*
X133961Y384543D01*
X158889Y385694D02*
X157556D01*
X156890Y386360D01*
X157556Y387027D01*
X158889D01*
Y387693D02*
X156890D01*
Y388693D01*
X157223Y389026D01*
X158556D01*
X158889Y388693D01*
Y387693D01*
Y389692D02*
X156890D01*
Y390692D01*
X157223Y391025D01*
X158556D01*
X158889Y390692D01*
Y389692D01*
X156890Y391692D02*
X158889D01*
Y392691D01*
X158556Y393025D01*
X157889D01*
X157556Y392691D01*
Y391692D01*
X158889Y393691D02*
X156890D01*
Y395024D01*
X158889Y395690D02*
X156890D01*
Y397023D01*
X180570Y390517D02*
Y389184D01*
X179903Y388518D01*
X179237Y389184D01*
Y390517D01*
X178571D02*
Y388518D01*
X177571D01*
X177238Y388851D01*
Y390184D01*
X177571Y390517D01*
X178571D01*
X176571D02*
Y388518D01*
X175572D01*
X175238Y388851D01*
Y390184D01*
X175572Y390517D01*
X176571D01*
X173572D02*
X174239D01*
X174572Y390184D01*
Y388851D01*
X174239Y388518D01*
X173572D01*
X173239Y388851D01*
Y390184D01*
X173572Y390517D01*
X172573D02*
Y388851D01*
X172239Y388518D01*
X171573D01*
X171240Y388851D01*
Y390517D01*
X170573D02*
X169240D01*
X169907D01*
Y388518D01*
X328177Y364189D02*
X326844D01*
Y363856D01*
X328177Y362523D01*
Y362190D01*
X326844D01*
X326178D02*
Y363523D01*
X325845D01*
X325511Y363190D01*
Y362190D01*
Y363190D01*
X325178Y363523D01*
X324845Y363190D01*
Y362190D01*
X323845Y363523D02*
X323179D01*
X322846Y363190D01*
Y362190D01*
X323845D01*
X324179Y362523D01*
X323845Y362856D01*
X322846D01*
X322179Y363523D02*
X320846Y362190D01*
X321513Y362856D01*
X320846Y363523D01*
X322179Y362190D01*
X327491Y351343D02*
Y352676D01*
X327158D01*
X325825Y351343D01*
X325492D01*
Y352676D01*
Y353343D02*
X326825D01*
Y353676D01*
X326492Y354009D01*
X325492D01*
X326492D01*
X326825Y354342D01*
X326492Y354676D01*
X325492D01*
Y355342D02*
Y356009D01*
Y355675D01*
X326825D01*
Y355342D01*
X325492Y357008D02*
X326825D01*
Y358008D01*
X326492Y358341D01*
X325492D01*
X289890Y344110D02*
Y343777D01*
X289223Y343111D01*
X288557Y343777D01*
Y344110D01*
X289223Y343111D02*
Y342111D01*
X287890D02*
Y343444D01*
X287557D01*
X287224Y343111D01*
Y342111D01*
Y343111D01*
X286891Y343444D01*
X286558Y343111D01*
Y342111D01*
X285558Y343444D02*
X284891D01*
X284558Y343111D01*
Y342111D01*
X285558D01*
X285891Y342444D01*
X285558Y342777D01*
X284558D01*
X283892Y343444D02*
X282559Y342111D01*
X283225Y342777D01*
X282559Y343444D01*
X283892Y342111D01*
X321976Y394012D02*
Y393679D01*
X321310Y393012D01*
X320643Y393679D01*
Y394012D01*
X321310Y393012D02*
Y392013D01*
X319977D02*
Y393346D01*
X319644D01*
X319311Y393012D01*
Y392013D01*
Y393012D01*
X318977Y393346D01*
X318644Y393012D01*
Y392013D01*
X317978D02*
X317311D01*
X317645D01*
Y393346D01*
X317978D01*
X316312Y392013D02*
Y393346D01*
X315312D01*
X314979Y393012D01*
Y392013D01*
X258591Y333874D02*
X257258Y331875D01*
Y333874D02*
X258591Y331875D01*
X256591D02*
Y333208D01*
X256258D01*
X255925Y332874D01*
Y331875D01*
Y332874D01*
X255592Y333208D01*
X255258Y332874D01*
Y331875D01*
X254259Y333208D02*
X253592D01*
X253259Y332874D01*
Y331875D01*
X254259D01*
X254592Y332208D01*
X254259Y332541D01*
X253259D01*
X252592Y333208D02*
X251260Y331875D01*
X251926Y332541D01*
X251260Y333208D01*
X252592Y331875D01*
X289398Y365567D02*
X288065Y363568D01*
Y365567D02*
X289398Y363568D01*
X287398D02*
Y364901D01*
X287065D01*
X286732Y364567D01*
Y363568D01*
Y364567D01*
X286399Y364901D01*
X286065Y364567D01*
Y363568D01*
X285399D02*
X284733D01*
X285066D01*
Y364901D01*
X285399D01*
X283733Y363568D02*
Y364901D01*
X282733D01*
X282400Y364567D01*
Y363568D01*
X196297Y426114D02*
Y427447D01*
Y426781D01*
X194298D01*
Y428113D02*
X196297D01*
X195631Y428780D01*
X196297Y429446D01*
X194298D01*
X195964Y431446D02*
X196297Y431112D01*
Y430446D01*
X195964Y430113D01*
X195631D01*
X195298Y430446D01*
Y431112D01*
X194965Y431446D01*
X194631D01*
X194298Y431112D01*
Y430446D01*
X194631Y430113D01*
X194298Y432112D02*
X195631Y433445D01*
X195964Y435444D02*
X196297Y435111D01*
Y434445D01*
X195964Y434111D01*
X195631D01*
X195298Y434445D01*
Y435111D01*
X194965Y435444D01*
X194631D01*
X194298Y435111D01*
Y434445D01*
X194631Y434111D01*
X196297Y436111D02*
X194298D01*
X194965Y436777D01*
X194298Y437444D01*
X196297D01*
Y438110D02*
X194298D01*
Y439110D01*
X194631Y439443D01*
X195964D01*
X196297Y439110D01*
Y438110D01*
Y440109D02*
Y440776D01*
Y440443D01*
X194298D01*
Y440109D01*
Y440776D01*
X196297Y442775D02*
Y442109D01*
X195964Y441776D01*
X194631D01*
X194298Y442109D01*
Y442775D01*
X194631Y443109D01*
X195964D01*
X196297Y442775D01*
X607700Y77499D02*
X606367D01*
X607034D01*
Y75500D01*
X605701D02*
Y77499D01*
X604701D01*
X604368Y77166D01*
Y76500D01*
X604701Y76166D01*
X605701D01*
X602702Y75500D02*
Y77499D01*
X603701Y76500D01*
X602368D01*
X601702Y75500D02*
X601035D01*
X601369D01*
Y77499D01*
X601702Y77166D01*
X600036Y77499D02*
Y75500D01*
Y76500D01*
X598703D01*
Y77499D01*
Y75500D01*
X526400Y77499D02*
X525067D01*
X525734D01*
Y75500D01*
X524401D02*
Y77499D01*
X523401D01*
X523068Y77166D01*
Y76500D01*
X523401Y76166D01*
X524401D01*
X521402Y75500D02*
Y77499D01*
X522401Y76500D01*
X521068D01*
X520402Y75500D02*
X519735D01*
X520069D01*
Y77499D01*
X520402Y77166D01*
X517403D02*
X517736Y77499D01*
X518403D01*
X518736Y77166D01*
Y75833D01*
X518403Y75500D01*
X517736D01*
X517403Y75833D01*
Y76500D01*
X518069D01*
X445100Y77499D02*
X443767D01*
X444434D01*
Y75500D01*
X443101D02*
Y77499D01*
X442101D01*
X441768Y77166D01*
Y76500D01*
X442101Y76166D01*
X443101D01*
X440102Y75500D02*
Y77499D01*
X441101Y76500D01*
X439768D01*
X439102Y75500D02*
X438436D01*
X438769D01*
Y77499D01*
X439102Y77166D01*
X436103Y77499D02*
X437436D01*
Y76500D01*
X436769D01*
X437436D01*
Y75500D01*
X363100Y77199D02*
X361767D01*
X362434D01*
Y75200D01*
X361101D02*
Y77199D01*
X360101D01*
X359768Y76866D01*
Y76200D01*
X360101Y75866D01*
X361101D01*
X358102Y75200D02*
Y77199D01*
X359101Y76200D01*
X357768D01*
X357102Y75200D02*
X356435D01*
X356769D01*
Y77199D01*
X357102Y76866D01*
X354103Y77199D02*
X355436D01*
Y75200D01*
X354103D01*
X355436Y76200D02*
X354769D01*
X281500Y77499D02*
X280167D01*
X280834D01*
Y75500D01*
X279501D02*
Y77499D01*
X278501D01*
X278168Y77166D01*
Y76500D01*
X278501Y76166D01*
X279501D01*
X276502Y75500D02*
Y77499D01*
X277501Y76500D01*
X276168D01*
X275502Y75500D02*
X274835D01*
X275169D01*
Y77499D01*
X275502Y77166D01*
X273836Y77499D02*
Y75500D01*
X272836D01*
X272503Y75833D01*
Y77166D01*
X272836Y77499D01*
X273836D01*
X199500Y77599D02*
X198167D01*
X198834D01*
Y75600D01*
X197501D02*
Y77599D01*
X196501D01*
X196168Y77266D01*
Y76600D01*
X196501Y76266D01*
X197501D01*
X194502Y75600D02*
Y77599D01*
X195501Y76600D01*
X194168D01*
X193502Y75600D02*
X192835D01*
X193169D01*
Y77599D01*
X193502Y77266D01*
X190503D02*
X190836Y77599D01*
X191503D01*
X191836Y77266D01*
Y75933D01*
X191503Y75600D01*
X190836D01*
X190503Y75933D01*
X117900Y77499D02*
X116567D01*
X117234D01*
Y75500D01*
X115901D02*
Y77499D01*
X114901D01*
X114568Y77166D01*
Y76500D01*
X114901Y76166D01*
X115901D01*
X112902Y75500D02*
Y77499D01*
X113901Y76500D01*
X112568D01*
X111902Y75500D02*
X111235D01*
X111569D01*
Y77499D01*
X111902Y77166D01*
X110236Y77499D02*
Y75500D01*
X109236D01*
X108903Y75833D01*
Y76166D01*
X109236Y76500D01*
X110236D01*
X109236D01*
X108903Y76833D01*
Y77166D01*
X109236Y77499D01*
X110236D01*
X36200D02*
X34867D01*
X35534D01*
Y75500D01*
X34201D02*
Y77499D01*
X33201D01*
X32868Y77166D01*
Y76500D01*
X33201Y76166D01*
X34201D01*
X31202Y75500D02*
Y77499D01*
X32201Y76500D01*
X30868D01*
X30202Y75500D02*
X29535D01*
X29869D01*
Y77499D01*
X30202Y77166D01*
X28536Y75500D02*
Y76833D01*
X27869Y77499D01*
X27203Y76833D01*
Y75500D01*
Y76500D01*
X28536D01*
X619000Y50599D02*
X617667D01*
X618334D01*
Y48600D01*
X617001D02*
Y50599D01*
X616001D01*
X615668Y50266D01*
Y49600D01*
X616001Y49266D01*
X617001D01*
X615001Y50266D02*
X614668Y50599D01*
X614002D01*
X613668Y50266D01*
Y49933D01*
X614002Y49600D01*
X614335D01*
X614002D01*
X613668Y49266D01*
Y48933D01*
X614002Y48600D01*
X614668D01*
X615001Y48933D01*
X612002Y48600D02*
Y50599D01*
X613002Y49600D01*
X611669D01*
X611003Y50599D02*
Y48600D01*
Y49600D01*
X609670D01*
Y50599D01*
Y48600D01*
X537700Y50599D02*
X536367D01*
X537034D01*
Y48600D01*
X535701D02*
Y50599D01*
X534701D01*
X534368Y50266D01*
Y49600D01*
X534701Y49266D01*
X535701D01*
X533701Y50266D02*
X533368Y50599D01*
X532702D01*
X532368Y50266D01*
Y49933D01*
X532702Y49600D01*
X533035D01*
X532702D01*
X532368Y49266D01*
Y48933D01*
X532702Y48600D01*
X533368D01*
X533701Y48933D01*
X530702Y48600D02*
Y50599D01*
X531702Y49600D01*
X530369D01*
X528370Y50266D02*
X528703Y50599D01*
X529369D01*
X529703Y50266D01*
Y48933D01*
X529369Y48600D01*
X528703D01*
X528370Y48933D01*
Y49600D01*
X529036D01*
X456400Y50599D02*
X455067D01*
X455734D01*
Y48600D01*
X454401D02*
Y50599D01*
X453401D01*
X453068Y50266D01*
Y49600D01*
X453401Y49266D01*
X454401D01*
X452401Y50266D02*
X452068Y50599D01*
X451402D01*
X451068Y50266D01*
Y49933D01*
X451402Y49600D01*
X451735D01*
X451402D01*
X451068Y49266D01*
Y48933D01*
X451402Y48600D01*
X452068D01*
X452401Y48933D01*
X449402Y48600D02*
Y50599D01*
X450402Y49600D01*
X449069D01*
X447070Y50599D02*
X448403D01*
Y49600D01*
X447736D01*
X448403D01*
Y48600D01*
X374400Y50299D02*
X373067D01*
X373734D01*
Y48300D01*
X372401D02*
Y50299D01*
X371401D01*
X371068Y49966D01*
Y49300D01*
X371401Y48966D01*
X372401D01*
X370401Y49966D02*
X370068Y50299D01*
X369402D01*
X369068Y49966D01*
Y49633D01*
X369402Y49300D01*
X369735D01*
X369402D01*
X369068Y48966D01*
Y48633D01*
X369402Y48300D01*
X370068D01*
X370401Y48633D01*
X367402Y48300D02*
Y50299D01*
X368402Y49300D01*
X367069D01*
X365070Y50299D02*
X366403D01*
Y48300D01*
X365070D01*
X366403Y49300D02*
X365736D01*
X292900Y50599D02*
X291567D01*
X292234D01*
Y48600D01*
X290901D02*
Y50599D01*
X289901D01*
X289568Y50266D01*
Y49600D01*
X289901Y49266D01*
X290901D01*
X288901Y50266D02*
X288568Y50599D01*
X287902D01*
X287568Y50266D01*
Y49933D01*
X287902Y49600D01*
X288235D01*
X287902D01*
X287568Y49266D01*
Y48933D01*
X287902Y48600D01*
X288568D01*
X288901Y48933D01*
X285902Y48600D02*
Y50599D01*
X286902Y49600D01*
X285569D01*
X284903Y50599D02*
Y48600D01*
X283903D01*
X283570Y48933D01*
Y50266D01*
X283903Y50599D01*
X284903D01*
X210800Y50699D02*
X209467D01*
X210134D01*
Y48700D01*
X208801D02*
Y50699D01*
X207801D01*
X207468Y50366D01*
Y49700D01*
X207801Y49366D01*
X208801D01*
X206801Y50366D02*
X206468Y50699D01*
X205802D01*
X205468Y50366D01*
Y50033D01*
X205802Y49700D01*
X206135D01*
X205802D01*
X205468Y49366D01*
Y49033D01*
X205802Y48700D01*
X206468D01*
X206801Y49033D01*
X203802Y48700D02*
Y50699D01*
X204802Y49700D01*
X203469D01*
X201470Y50366D02*
X201803Y50699D01*
X202469D01*
X202803Y50366D01*
Y49033D01*
X202469Y48700D01*
X201803D01*
X201470Y49033D01*
X129300Y50599D02*
X127967D01*
X128633D01*
Y48600D01*
X127301D02*
Y50599D01*
X126301D01*
X125968Y50266D01*
Y49600D01*
X126301Y49266D01*
X127301D01*
X125301Y50266D02*
X124968Y50599D01*
X124302D01*
X123968Y50266D01*
Y49933D01*
X124302Y49600D01*
X124635D01*
X124302D01*
X123968Y49266D01*
Y48933D01*
X124302Y48600D01*
X124968D01*
X125301Y48933D01*
X122302Y48600D02*
Y50599D01*
X123302Y49600D01*
X121969D01*
X121303Y50599D02*
Y48600D01*
X120303D01*
X119970Y48933D01*
Y49266D01*
X120303Y49600D01*
X121303D01*
X120303D01*
X119970Y49933D01*
Y50266D01*
X120303Y50599D01*
X121303D01*
X47500D02*
X46167D01*
X46834D01*
Y48600D01*
X45501D02*
Y50599D01*
X44501D01*
X44168Y50266D01*
Y49600D01*
X44501Y49266D01*
X45501D01*
X43501Y50266D02*
X43168Y50599D01*
X42502D01*
X42168Y50266D01*
Y49933D01*
X42502Y49600D01*
X42835D01*
X42502D01*
X42168Y49266D01*
Y48933D01*
X42502Y48600D01*
X43168D01*
X43501Y48933D01*
X40502Y48600D02*
Y50599D01*
X41502Y49600D01*
X40169D01*
X39503Y48600D02*
Y49933D01*
X38836Y50599D01*
X38170Y49933D01*
Y48600D01*
Y49600D01*
X39503D01*
X654000Y50599D02*
X652667D01*
X653334D01*
Y48600D01*
X652001D02*
Y50599D01*
X651001D01*
X650668Y50266D01*
Y49600D01*
X651001Y49266D01*
X652001D01*
X650001Y50266D02*
X649668Y50599D01*
X649002D01*
X648668Y50266D01*
Y49933D01*
X649002Y49600D01*
X649335D01*
X649002D01*
X648668Y49266D01*
Y48933D01*
X649002Y48600D01*
X649668D01*
X650001Y48933D01*
X648002Y50599D02*
Y48600D01*
Y49600D01*
X646669D01*
Y50599D01*
Y48600D01*
X572700Y50599D02*
X571367D01*
X572034D01*
Y48600D01*
X570701D02*
Y50599D01*
X569701D01*
X569368Y50266D01*
Y49600D01*
X569701Y49266D01*
X570701D01*
X568701Y50266D02*
X568368Y50599D01*
X567702D01*
X567368Y50266D01*
Y49933D01*
X567702Y49600D01*
X568035D01*
X567702D01*
X567368Y49266D01*
Y48933D01*
X567702Y48600D01*
X568368D01*
X568701Y48933D01*
X565369Y50266D02*
X565702Y50599D01*
X566369D01*
X566702Y50266D01*
Y48933D01*
X566369Y48600D01*
X565702D01*
X565369Y48933D01*
Y49600D01*
X566036D01*
X491400Y50599D02*
X490067D01*
X490734D01*
Y48600D01*
X489401D02*
Y50599D01*
X488401D01*
X488068Y50266D01*
Y49600D01*
X488401Y49266D01*
X489401D01*
X487401Y50266D02*
X487068Y50599D01*
X486402D01*
X486068Y50266D01*
Y49933D01*
X486402Y49600D01*
X486735D01*
X486402D01*
X486068Y49266D01*
Y48933D01*
X486402Y48600D01*
X487068D01*
X487401Y48933D01*
X484069Y50599D02*
X485402D01*
Y49600D01*
X484735D01*
X485402D01*
Y48600D01*
X409300Y50299D02*
X407967D01*
X408634D01*
Y48300D01*
X407301D02*
Y50299D01*
X406301D01*
X405968Y49966D01*
Y49300D01*
X406301Y48966D01*
X407301D01*
X405301Y49966D02*
X404968Y50299D01*
X404302D01*
X403968Y49966D01*
Y49633D01*
X404302Y49300D01*
X404635D01*
X404302D01*
X403968Y48966D01*
Y48633D01*
X404302Y48300D01*
X404968D01*
X405301Y48633D01*
X401969Y50299D02*
X403302D01*
Y48300D01*
X401969D01*
X403302Y49300D02*
X402635D01*
X327800Y50599D02*
X326467D01*
X327134D01*
Y48600D01*
X325801D02*
Y50599D01*
X324801D01*
X324468Y50266D01*
Y49600D01*
X324801Y49266D01*
X325801D01*
X323801Y50266D02*
X323468Y50599D01*
X322802D01*
X322468Y50266D01*
Y49933D01*
X322802Y49600D01*
X323135D01*
X322802D01*
X322468Y49266D01*
Y48933D01*
X322802Y48600D01*
X323468D01*
X323801Y48933D01*
X321802Y50599D02*
Y48600D01*
X320802D01*
X320469Y48933D01*
Y50266D01*
X320802Y50599D01*
X321802D01*
X245800Y50699D02*
X244467D01*
X245134D01*
Y48700D01*
X243801D02*
Y50699D01*
X242801D01*
X242468Y50366D01*
Y49700D01*
X242801Y49366D01*
X243801D01*
X241801Y50366D02*
X241468Y50699D01*
X240802D01*
X240468Y50366D01*
Y50033D01*
X240802Y49700D01*
X241135D01*
X240802D01*
X240468Y49366D01*
Y49033D01*
X240802Y48700D01*
X241468D01*
X241801Y49033D01*
X238469Y50366D02*
X238802Y50699D01*
X239469D01*
X239802Y50366D01*
Y49033D01*
X239469Y48700D01*
X238802D01*
X238469Y49033D01*
X164200Y50599D02*
X162867D01*
X163533D01*
Y48600D01*
X162201D02*
Y50599D01*
X161201D01*
X160868Y50266D01*
Y49600D01*
X161201Y49266D01*
X162201D01*
X160201Y50266D02*
X159868Y50599D01*
X159202D01*
X158868Y50266D01*
Y49933D01*
X159202Y49600D01*
X159535D01*
X159202D01*
X158868Y49266D01*
Y48933D01*
X159202Y48600D01*
X159868D01*
X160201Y48933D01*
X158202Y50599D02*
Y48600D01*
X157202D01*
X156869Y48933D01*
Y49266D01*
X157202Y49600D01*
X158202D01*
X157202D01*
X156869Y49933D01*
Y50266D01*
X157202Y50599D01*
X158202D01*
X82400D02*
X81067D01*
X81734D01*
Y48600D01*
X80401D02*
Y50599D01*
X79401D01*
X79068Y50266D01*
Y49600D01*
X79401Y49266D01*
X80401D01*
X78401Y50266D02*
X78068Y50599D01*
X77402D01*
X77068Y50266D01*
Y49933D01*
X77402Y49600D01*
X77735D01*
X77402D01*
X77068Y49266D01*
Y48933D01*
X77402Y48600D01*
X78068D01*
X78401Y48933D01*
X76402Y48600D02*
Y49933D01*
X75735Y50599D01*
X75069Y49933D01*
Y48600D01*
Y49600D01*
X76402D01*
X686634Y111667D02*
X685301D01*
X685968D01*
Y109668D01*
X684635D02*
Y111667D01*
X683635D01*
X683302Y111334D01*
Y110668D01*
X683635Y110334D01*
X684635D01*
X682635Y111334D02*
X682302Y111667D01*
X681636D01*
X681302Y111334D01*
Y111001D01*
X681636Y110668D01*
X681969D01*
X681636D01*
X681302Y110334D01*
Y110001D01*
X681636Y109668D01*
X682302D01*
X682635Y110001D01*
X680636Y111334D02*
X680303Y111667D01*
X679636D01*
X679303Y111334D01*
Y111001D01*
X679636Y110668D01*
X679970D01*
X679636D01*
X679303Y110334D01*
Y110001D01*
X679636Y109668D01*
X680303D01*
X680636Y110001D01*
X711493Y285686D02*
X710160D01*
X710826D01*
Y283687D01*
X709493D02*
Y285686D01*
X708494D01*
X708160Y285353D01*
Y284686D01*
X708494Y284353D01*
X709493D01*
X706161Y285686D02*
X707494D01*
Y284686D01*
X706827Y285020D01*
X706494D01*
X706161Y284686D01*
Y284020D01*
X706494Y283687D01*
X707161D01*
X707494Y284020D01*
X705494Y283687D02*
X704828D01*
X705161D01*
Y285686D01*
X705494Y285353D01*
X665200Y77599D02*
X663867D01*
X664534D01*
Y75600D01*
X663201D02*
Y77599D01*
X662201D01*
X661868Y77266D01*
Y76600D01*
X662201Y76266D01*
X663201D01*
X661201Y75600D02*
X660535D01*
X660868D01*
Y77599D01*
X661201Y77266D01*
X658202Y75600D02*
X659535D01*
X658202Y76933D01*
Y77266D01*
X658535Y77599D01*
X659202D01*
X659535Y77266D01*
X657536Y77599D02*
Y75600D01*
Y76600D01*
X656203D01*
Y77599D01*
Y75600D01*
X583900Y77599D02*
X582567D01*
X583234D01*
Y75600D01*
X581901D02*
Y77599D01*
X580901D01*
X580568Y77266D01*
Y76600D01*
X580901Y76266D01*
X581901D01*
X579901Y75600D02*
X579235D01*
X579568D01*
Y77599D01*
X579901Y77266D01*
X576902Y75600D02*
X578235D01*
X576902Y76933D01*
Y77266D01*
X577236Y77599D01*
X577902D01*
X578235Y77266D01*
X574903D02*
X575236Y77599D01*
X575903D01*
X576236Y77266D01*
Y75933D01*
X575903Y75600D01*
X575236D01*
X574903Y75933D01*
Y76600D01*
X575569D01*
X502600Y77599D02*
X501267D01*
X501934D01*
Y75600D01*
X500601D02*
Y77599D01*
X499601D01*
X499268Y77266D01*
Y76600D01*
X499601Y76266D01*
X500601D01*
X498601Y75600D02*
X497935D01*
X498268D01*
Y77599D01*
X498601Y77266D01*
X495602Y75600D02*
X496935D01*
X495602Y76933D01*
Y77266D01*
X495935Y77599D01*
X496602D01*
X496935Y77266D01*
X493603Y77599D02*
X494936D01*
Y76600D01*
X494269D01*
X494936D01*
Y75600D01*
X420500Y77299D02*
X419167D01*
X419834D01*
Y75300D01*
X418501D02*
Y77299D01*
X417501D01*
X417168Y76966D01*
Y76300D01*
X417501Y75966D01*
X418501D01*
X416501Y75300D02*
X415835D01*
X416168D01*
Y77299D01*
X416501Y76966D01*
X413502Y75300D02*
X414835D01*
X413502Y76633D01*
Y76966D01*
X413835Y77299D01*
X414502D01*
X414835Y76966D01*
X411503Y77299D02*
X412836D01*
Y75300D01*
X411503D01*
X412836Y76300D02*
X412169D01*
X339000Y77599D02*
X337667D01*
X338334D01*
Y75600D01*
X337001D02*
Y77599D01*
X336001D01*
X335668Y77266D01*
Y76600D01*
X336001Y76266D01*
X337001D01*
X335001Y75600D02*
X334335D01*
X334668D01*
Y77599D01*
X335001Y77266D01*
X332002Y75600D02*
X333335D01*
X332002Y76933D01*
Y77266D01*
X332335Y77599D01*
X333002D01*
X333335Y77266D01*
X331336Y77599D02*
Y75600D01*
X330336D01*
X330003Y75933D01*
Y77266D01*
X330336Y77599D01*
X331336D01*
X257000Y77699D02*
X255667D01*
X256334D01*
Y75700D01*
X255001D02*
Y77699D01*
X254001D01*
X253668Y77366D01*
Y76700D01*
X254001Y76366D01*
X255001D01*
X253001Y75700D02*
X252335D01*
X252668D01*
Y77699D01*
X253001Y77366D01*
X250002Y75700D02*
X251335D01*
X250002Y77033D01*
Y77366D01*
X250336Y77699D01*
X251002D01*
X251335Y77366D01*
X248003D02*
X248336Y77699D01*
X249003D01*
X249336Y77366D01*
Y76033D01*
X249003Y75700D01*
X248336D01*
X248003Y76033D01*
X175400Y77599D02*
X174067D01*
X174733D01*
Y75600D01*
X173401D02*
Y77599D01*
X172401D01*
X172068Y77266D01*
Y76600D01*
X172401Y76266D01*
X173401D01*
X171401Y75600D02*
X170735D01*
X171068D01*
Y77599D01*
X171401Y77266D01*
X168402Y75600D02*
X169735D01*
X168402Y76933D01*
Y77266D01*
X168736Y77599D01*
X169402D01*
X169735Y77266D01*
X167736Y77599D02*
Y75600D01*
X166736D01*
X166403Y75933D01*
Y76266D01*
X166736Y76600D01*
X167736D01*
X166736D01*
X166403Y76933D01*
Y77266D01*
X166736Y77599D01*
X167736D01*
X93600D02*
X92267D01*
X92934D01*
Y75600D01*
X91601D02*
Y77599D01*
X90601D01*
X90268Y77266D01*
Y76600D01*
X90601Y76266D01*
X91601D01*
X89601Y75600D02*
X88935D01*
X89268D01*
Y77599D01*
X89601Y77266D01*
X86602Y75600D02*
X87935D01*
X86602Y76933D01*
Y77266D01*
X86936Y77599D01*
X87602D01*
X87935Y77266D01*
X85936Y75600D02*
Y76933D01*
X85269Y77599D01*
X84603Y76933D01*
Y75600D01*
Y76600D01*
X85936D01*
X411528Y384355D02*
X410195D01*
X410861D01*
Y382356D01*
X409529D02*
Y384355D01*
X408529D01*
X408196Y384022D01*
Y383356D01*
X408529Y383022D01*
X409529D01*
X407529Y384022D02*
X407196Y384355D01*
X406530D01*
X406196Y384022D01*
Y383689D01*
X406530Y383356D01*
X406196Y383022D01*
Y382689D01*
X406530Y382356D01*
X407196D01*
X407529Y382689D01*
Y383022D01*
X407196Y383356D01*
X407529Y383689D01*
Y384022D01*
X407196Y383356D02*
X406530D01*
X404197Y382356D02*
X405530D01*
X404197Y383689D01*
Y384022D01*
X404530Y384355D01*
X405197D01*
X405530Y384022D01*
X384150Y337243D02*
X382817D01*
X383484D01*
Y335244D01*
X382151D02*
Y337243D01*
X381151D01*
X380818Y336910D01*
Y336244D01*
X381151Y335910D01*
X382151D01*
X380151Y335244D02*
X379485D01*
X379818D01*
Y337243D01*
X380151Y336910D01*
X378485Y335577D02*
X378152Y335244D01*
X377485D01*
X377152Y335577D01*
Y336910D01*
X377485Y337243D01*
X378152D01*
X378485Y336910D01*
Y336577D01*
X378152Y336244D01*
X377152D01*
X426900Y292999D02*
X425567D01*
X426234D01*
Y291000D01*
X424901D02*
Y292999D01*
X423901D01*
X423568Y292666D01*
Y292000D01*
X423901Y291666D01*
X424901D01*
X422901Y291000D02*
X422235D01*
X422568D01*
Y292999D01*
X422901Y292666D01*
X421235D02*
X420902Y292999D01*
X420235D01*
X419902Y292666D01*
Y292333D01*
X420235Y292000D01*
X419902Y291666D01*
Y291333D01*
X420235Y291000D01*
X420902D01*
X421235Y291333D01*
Y291666D01*
X420902Y292000D01*
X421235Y292333D01*
Y292666D01*
X420902Y292000D02*
X420235D01*
X472000Y273199D02*
X470667D01*
X471334D01*
Y271200D01*
X470001D02*
Y273199D01*
X469001D01*
X468668Y272866D01*
Y272200D01*
X469001Y271866D01*
X470001D01*
X468001Y271200D02*
X467335D01*
X467668D01*
Y273199D01*
X468001Y272866D01*
X466335Y273199D02*
X465002D01*
Y272866D01*
X466335Y271533D01*
Y271200D01*
X438300Y343499D02*
X436967D01*
X437634D01*
Y341500D01*
X436301D02*
Y343499D01*
X435301D01*
X434968Y343166D01*
Y342500D01*
X435301Y342166D01*
X436301D01*
X434301Y343166D02*
X433968Y343499D01*
X433302D01*
X432968Y343166D01*
Y342833D01*
X433302Y342500D01*
X432968Y342166D01*
Y341833D01*
X433302Y341500D01*
X433968D01*
X434301Y341833D01*
Y342166D01*
X433968Y342500D01*
X434301Y342833D01*
Y343166D01*
X433968Y342500D02*
X433302D01*
X450500Y314499D02*
X449167D01*
X449834D01*
Y312500D01*
X448501D02*
Y314499D01*
X447501D01*
X447168Y314166D01*
Y313500D01*
X447501Y313166D01*
X448501D01*
X445168Y312500D02*
X446501D01*
X445168Y313833D01*
Y314166D01*
X445502Y314499D01*
X446168D01*
X446501Y314166D01*
X483800Y288999D02*
X482467D01*
X483134D01*
Y287000D01*
X481801D02*
Y288999D01*
X480801D01*
X480468Y288666D01*
Y288000D01*
X480801Y287666D01*
X481801D01*
X479801Y287000D02*
X479135D01*
X479468D01*
Y288999D01*
X479801Y288666D01*
X521981Y393337D02*
X520648D01*
X521314D01*
Y391337D01*
X519982D02*
Y393337D01*
X518982D01*
X518649Y393003D01*
Y392337D01*
X518982Y392004D01*
X519982D01*
X517982Y393337D02*
X516649D01*
Y393003D01*
X517982Y391670D01*
Y391337D01*
X47200Y380999D02*
X45867D01*
X46534D01*
Y379000D01*
X45201D02*
Y380999D01*
X44201D01*
X43868Y380666D01*
Y380000D01*
X44201Y379666D01*
X45201D01*
X41868Y380999D02*
X42535Y380666D01*
X43201Y380000D01*
Y379333D01*
X42868Y379000D01*
X42202D01*
X41868Y379333D01*
Y379666D01*
X42202Y380000D01*
X43201D01*
X40900Y373199D02*
X39567D01*
X40234D01*
Y371200D01*
X38901D02*
Y373199D01*
X37901D01*
X37568Y372866D01*
Y372200D01*
X37901Y371866D01*
X38901D01*
X35568Y373199D02*
X36901D01*
Y372200D01*
X36235Y372533D01*
X35902D01*
X35568Y372200D01*
Y371533D01*
X35902Y371200D01*
X36568D01*
X36901Y371533D01*
X602600Y464799D02*
X601267D01*
X601934D01*
Y462800D01*
X600601D02*
Y464799D01*
X599601D01*
X599268Y464466D01*
Y463800D01*
X599601Y463466D01*
X600601D01*
X597268Y464799D02*
X597935Y464466D01*
X598601Y463800D01*
Y463133D01*
X598268Y462800D01*
X597602D01*
X597268Y463133D01*
Y463466D01*
X597602Y463800D01*
X598601D01*
X596602Y463133D02*
X596269Y462800D01*
X595602D01*
X595269Y463133D01*
Y464466D01*
X595602Y464799D01*
X596269D01*
X596602Y464466D01*
Y464133D01*
X596269Y463800D01*
X595269D01*
X340625Y292273D02*
X339292D01*
X339959D01*
Y290273D01*
X338626D02*
Y292273D01*
X337626D01*
X337293Y291939D01*
Y291273D01*
X337626Y290940D01*
X338626D01*
X335627Y290273D02*
Y292273D01*
X336626Y291273D01*
X335294D01*
X285405Y285886D02*
X284072D01*
X284739D01*
Y283886D01*
X283406D02*
Y285886D01*
X282406D01*
X282073Y285552D01*
Y284886D01*
X282406Y284553D01*
X283406D01*
X281406Y283886D02*
X280740D01*
X281073D01*
Y285886D01*
X281406Y285552D01*
X279740D02*
X279407Y285886D01*
X278741D01*
X278407Y285552D01*
Y284220D01*
X278741Y283886D01*
X279407D01*
X279740Y284220D01*
Y285552D01*
X241071Y292929D02*
X239738D01*
X240404D01*
Y290930D01*
X239071D02*
Y292929D01*
X238072D01*
X237739Y292596D01*
Y291930D01*
X238072Y291596D01*
X239071D01*
X237072Y291263D02*
X236739Y290930D01*
X236072D01*
X235739Y291263D01*
Y292596D01*
X236072Y292929D01*
X236739D01*
X237072Y292596D01*
Y292263D01*
X236739Y291930D01*
X235739D01*
X704089Y387334D02*
X702757D01*
X703423D01*
Y385334D01*
X702090D02*
Y387334D01*
X701090D01*
X700757Y387001D01*
Y386334D01*
X701090Y386001D01*
X702090D01*
X699091Y385334D02*
Y387334D01*
X700091Y386334D01*
X698758D01*
X698091Y387001D02*
X697758Y387334D01*
X697092D01*
X696759Y387001D01*
Y386667D01*
X697092Y386334D01*
X697425D01*
X697092D01*
X696759Y386001D01*
Y385668D01*
X697092Y385334D01*
X697758D01*
X698091Y385668D01*
X699918Y259950D02*
Y258617D01*
Y259284D01*
X701918D01*
Y257951D02*
X699918D01*
Y256951D01*
X700252Y256618D01*
X700918D01*
X701251Y256951D01*
Y257951D01*
X701918Y254952D02*
X699918D01*
X700918Y255952D01*
Y254619D01*
X700252Y253952D02*
X699918Y253619D01*
Y252953D01*
X700252Y252619D01*
X700585D01*
X700918Y252953D01*
X701251Y252619D01*
X701584D01*
X701918Y252953D01*
Y253619D01*
X701584Y253952D01*
X701251D01*
X700918Y253619D01*
X700585Y253952D01*
X700252D01*
X700918Y253619D02*
Y252953D01*
X699608Y325291D02*
Y323959D01*
Y324625D01*
X701608D01*
Y323292D02*
X699608D01*
Y322292D01*
X699941Y321959D01*
X700608D01*
X700941Y322292D01*
Y323292D01*
X701608Y320293D02*
X699608D01*
X700608Y321293D01*
Y319960D01*
X701608Y318294D02*
X699608D01*
X700608Y319293D01*
Y317961D01*
X48245Y340515D02*
X46912D01*
X47579D01*
Y338516D01*
X46246D02*
Y340515D01*
X45246D01*
X44913Y340182D01*
Y339515D01*
X45246Y339182D01*
X46246D01*
X42913Y340515D02*
X43580Y340182D01*
X44246Y339515D01*
Y338849D01*
X43913Y338516D01*
X43247D01*
X42913Y338849D01*
Y339182D01*
X43247Y339515D01*
X44246D01*
X42247Y340182D02*
X41914Y340515D01*
X41247D01*
X40914Y340182D01*
Y338849D01*
X41247Y338516D01*
X41914D01*
X42247Y338849D01*
Y340182D01*
X56288Y361069D02*
X54955D01*
X55622D01*
Y359070D01*
X54289D02*
Y361069D01*
X53289D01*
X52956Y360736D01*
Y360069D01*
X53289Y359736D01*
X54289D01*
X50956Y361069D02*
X51623Y360736D01*
X52289Y360069D01*
Y359403D01*
X51956Y359070D01*
X51290D01*
X50956Y359403D01*
Y359736D01*
X51290Y360069D01*
X52289D01*
X50290Y359070D02*
X49624D01*
X49957D01*
Y361069D01*
X50290Y360736D01*
X714168Y186001D02*
X712835D01*
X713502D01*
Y184002D01*
X712169D02*
Y186001D01*
X711169D01*
X710836Y185668D01*
Y185002D01*
X711169Y184669D01*
X712169D01*
X710169Y186001D02*
X708836D01*
Y185668D01*
X710169Y184335D01*
Y184002D01*
X708170Y184335D02*
X707837Y184002D01*
X707170D01*
X706837Y184335D01*
Y185668D01*
X707170Y186001D01*
X707837D01*
X708170Y185668D01*
Y185335D01*
X707837Y185002D01*
X706837D01*
X622514Y283848D02*
X621181D01*
X621848D01*
Y281849D01*
X620515D02*
Y283848D01*
X619515D01*
X619182Y283515D01*
Y282848D01*
X619515Y282515D01*
X620515D01*
X617516Y281849D02*
Y283848D01*
X618515Y282848D01*
X617182D01*
X615183Y283848D02*
X615849Y283515D01*
X616516Y282848D01*
Y282182D01*
X616183Y281849D01*
X615516D01*
X615183Y282182D01*
Y282515D01*
X615516Y282848D01*
X616516D01*
X448003Y424164D02*
Y425497D01*
Y424830D01*
X446004D01*
Y426163D02*
X448003D01*
Y427163D01*
X447670Y427496D01*
X447004D01*
X446670Y427163D01*
Y426163D01*
X446004Y429162D02*
X448003D01*
X447004Y428163D01*
Y429496D01*
X448003Y430162D02*
Y431495D01*
X447670D01*
X446337Y430162D01*
X446004D01*
X490189Y407524D02*
Y408856D01*
Y408190D01*
X488190D01*
Y409523D02*
X490189D01*
Y410523D01*
X489856Y410856D01*
X489189D01*
X488856Y410523D01*
Y409523D01*
X489856Y411522D02*
X490189Y411856D01*
Y412522D01*
X489856Y412855D01*
X489523D01*
X489189Y412522D01*
Y412189D01*
Y412522D01*
X488856Y412855D01*
X488523D01*
X488190Y412522D01*
Y411856D01*
X488523Y411522D01*
X490189Y414855D02*
X489856Y414188D01*
X489189Y413522D01*
X488523D01*
X488190Y413855D01*
Y414521D01*
X488523Y414855D01*
X488856D01*
X489189Y414521D01*
Y413522D01*
X39300Y236744D02*
Y238077D01*
Y237411D01*
X37300D01*
Y238744D02*
X39300D01*
Y239743D01*
X38967Y240077D01*
X38300D01*
X37967Y239743D01*
Y238744D01*
X39300Y240743D02*
Y242076D01*
X38967D01*
X37634Y240743D01*
X37300D01*
X38967Y242742D02*
X39300Y243076D01*
Y243742D01*
X38967Y244075D01*
X38633D01*
X38300Y243742D01*
X37967Y244075D01*
X37634D01*
X37300Y243742D01*
Y243076D01*
X37634Y242742D01*
X37967D01*
X38300Y243076D01*
X38633Y242742D01*
X38967D01*
X38300Y243076D02*
Y243742D01*
X37559Y226268D02*
Y227601D01*
Y226934D01*
X35559D01*
Y228267D02*
X37559D01*
Y229267D01*
X37225Y229600D01*
X36559D01*
X36226Y229267D01*
Y228267D01*
X37559Y230266D02*
Y231599D01*
X37225D01*
X35893Y230266D01*
X35559D01*
Y233265D02*
X37559D01*
X36559Y232266D01*
Y233599D01*
X174952Y273957D02*
Y275290D01*
Y274623D01*
X172953D01*
Y275956D02*
X174952D01*
Y276956D01*
X174619Y277289D01*
X173952D01*
X173619Y276956D01*
Y275956D01*
X174952Y277955D02*
Y279288D01*
X174619D01*
X173286Y277955D01*
X172953D01*
X174952Y281288D02*
Y279955D01*
X173952D01*
X174286Y280621D01*
Y280954D01*
X173952Y281288D01*
X173286D01*
X172953Y280954D01*
Y280288D01*
X173286Y279955D01*
X175159Y249678D02*
Y251011D01*
Y250344D01*
X173160D01*
Y251677D02*
X175159D01*
Y252677D01*
X174826Y253010D01*
X174160D01*
X173826Y252677D01*
Y251677D01*
X175159Y253677D02*
Y255010D01*
X174826D01*
X173493Y253677D01*
X173160D01*
X175159Y257009D02*
X174826Y256343D01*
X174160Y255676D01*
X173493D01*
X173160Y256009D01*
Y256676D01*
X173493Y257009D01*
X173826D01*
X174160Y256676D01*
Y255676D01*
X195673Y251472D02*
Y252805D01*
Y252138D01*
X193674D01*
Y253471D02*
X195673D01*
Y254471D01*
X195340Y254804D01*
X194674D01*
X194341Y254471D01*
Y253471D01*
X195673Y255471D02*
Y256804D01*
X195340D01*
X194007Y255471D01*
X193674D01*
X195673Y257470D02*
Y258803D01*
X195340D01*
X194007Y257470D01*
X193674D01*
X498603Y321430D02*
X499936D01*
X499269D01*
Y323429D01*
X500602D02*
Y321430D01*
X501602D01*
X501935Y321763D01*
Y322430D01*
X501602Y322763D01*
X500602D01*
X503601Y323429D02*
Y321430D01*
X502601Y322430D01*
X503934D01*
X504601Y321763D02*
X504934Y321430D01*
X505601D01*
X505934Y321763D01*
Y323096D01*
X505601Y323429D01*
X504934D01*
X504601Y323096D01*
Y321763D01*
X545915Y325149D02*
X547247D01*
X546581D01*
Y327148D01*
X547914D02*
Y325149D01*
X548914D01*
X549247Y325482D01*
Y326148D01*
X548914Y326481D01*
X547914D01*
X549913Y325482D02*
X550246Y325149D01*
X550913D01*
X551246Y325482D01*
Y325815D01*
X550913Y326148D01*
X550580D01*
X550913D01*
X551246Y326481D01*
Y326815D01*
X550913Y327148D01*
X550246D01*
X549913Y326815D01*
X551913D02*
X552246Y327148D01*
X552912D01*
X553245Y326815D01*
Y325482D01*
X552912Y325149D01*
X552246D01*
X551913Y325482D01*
Y325815D01*
X552246Y326148D01*
X553245D01*
X590682Y324913D02*
X592015D01*
X591349D01*
Y326912D01*
X592682D02*
Y324913D01*
X593681D01*
X594015Y325246D01*
Y325912D01*
X593681Y326245D01*
X592682D01*
X594681Y325246D02*
X595014Y324913D01*
X595681D01*
X596014Y325246D01*
Y325579D01*
X595681Y325912D01*
X595347D01*
X595681D01*
X596014Y326245D01*
Y326579D01*
X595681Y326912D01*
X595014D01*
X594681Y326579D01*
X596680Y325246D02*
X597014Y324913D01*
X597680D01*
X598013Y325246D01*
Y325579D01*
X597680Y325912D01*
X598013Y326245D01*
Y326579D01*
X597680Y326912D01*
X597014D01*
X596680Y326579D01*
Y326245D01*
X597014Y325912D01*
X596680Y325579D01*
Y325246D01*
X597014Y325912D02*
X597680D01*
X709176Y432247D02*
X707843D01*
X708510D01*
Y430248D01*
X707177D02*
Y432247D01*
X706177D01*
X705844Y431914D01*
Y431248D01*
X706177Y430914D01*
X707177D01*
X705177Y431914D02*
X704844Y432247D01*
X704178D01*
X703844Y431914D01*
Y431581D01*
X704178Y431248D01*
X704511D01*
X704178D01*
X703844Y430914D01*
Y430581D01*
X704178Y430248D01*
X704844D01*
X705177Y430581D01*
X703178Y432247D02*
X701845D01*
Y431914D01*
X703178Y430581D01*
Y430248D01*
X711872Y346229D02*
X710539D01*
X711206D01*
Y344230D01*
X709873D02*
Y346229D01*
X708873D01*
X708540Y345896D01*
Y345229D01*
X708873Y344896D01*
X709873D01*
X706540Y346229D02*
X707873D01*
Y345229D01*
X707207Y345562D01*
X706874D01*
X706540Y345229D01*
Y344563D01*
X706874Y344230D01*
X707540D01*
X707873Y344563D01*
X704541Y346229D02*
X705874D01*
Y345229D01*
X705208Y345562D01*
X704874D01*
X704541Y345229D01*
Y344563D01*
X704874Y344230D01*
X705541D01*
X705874Y344563D01*
X267236Y286958D02*
X265903D01*
X266569D01*
Y284958D01*
X265236D02*
Y286958D01*
X264237D01*
X263903Y286624D01*
Y285958D01*
X264237Y285625D01*
X265236D01*
X263237Y284958D02*
X262571D01*
X262904D01*
Y286958D01*
X263237Y286624D01*
X261571D02*
X261238Y286958D01*
X260571D01*
X260238Y286624D01*
Y285291D01*
X260571Y284958D01*
X261238D01*
X261571Y285291D01*
Y286624D01*
X259572Y284958D02*
X258905D01*
X259238D01*
Y286958D01*
X259572Y286624D01*
X337453Y301373D02*
X338786D01*
X338119D01*
Y303372D01*
X339452D02*
Y301373D01*
X340452D01*
X340785Y301706D01*
Y302373D01*
X340452Y302706D01*
X339452D01*
X342784Y301373D02*
X341452D01*
Y302373D01*
X342118Y302040D01*
X342451D01*
X342784Y302373D01*
Y303039D01*
X342451Y303372D01*
X341785D01*
X341452Y303039D01*
X344450Y303372D02*
Y301373D01*
X343451Y302373D01*
X344784D01*
X164021Y367969D02*
Y369302D01*
Y368635D01*
X162022D01*
Y369968D02*
X164021D01*
Y370968D01*
X163688Y371301D01*
X163022D01*
X162689Y370968D01*
Y369968D01*
X164021Y373300D02*
Y371967D01*
X163022D01*
X163355Y372634D01*
Y372967D01*
X163022Y373300D01*
X162355D01*
X162022Y372967D01*
Y372301D01*
X162355Y371967D01*
X164021Y375300D02*
X163688Y374633D01*
X163022Y373967D01*
X162355D01*
X162022Y374300D01*
Y374966D01*
X162355Y375300D01*
X162689D01*
X163022Y374966D01*
Y373967D01*
X192648Y425349D02*
Y426682D01*
Y426015D01*
X190649D01*
Y427348D02*
X192648D01*
Y428348D01*
X192315Y428681D01*
X191649D01*
X191315Y428348D01*
Y427348D01*
X190649Y430347D02*
X192648D01*
X191649Y429347D01*
Y430680D01*
X190982Y431347D02*
X190649Y431680D01*
Y432346D01*
X190982Y432680D01*
X192315D01*
X192648Y432346D01*
Y431680D01*
X192315Y431347D01*
X191982D01*
X191649Y431680D01*
Y432680D01*
X185773Y401087D02*
Y402420D01*
Y401753D01*
X183773D01*
Y403086D02*
X185773D01*
Y404086D01*
X185439Y404419D01*
X184773D01*
X184440Y404086D01*
Y403086D01*
X185773Y406418D02*
Y405085D01*
X184773D01*
X185106Y405752D01*
Y406085D01*
X184773Y406418D01*
X184107D01*
X183773Y406085D01*
Y405419D01*
X184107Y405085D01*
X183773Y408418D02*
Y407085D01*
X185106Y408418D01*
X185439D01*
X185773Y408084D01*
Y407418D01*
X185439Y407085D01*
X185945Y426215D02*
Y427548D01*
Y426881D01*
X183946D01*
Y428214D02*
X185945D01*
Y429214D01*
X185612Y429547D01*
X184945D01*
X184612Y429214D01*
Y428214D01*
X185945Y431546D02*
Y430213D01*
X184945D01*
X185279Y430880D01*
Y431213D01*
X184945Y431546D01*
X184279D01*
X183946Y431213D01*
Y430547D01*
X184279Y430213D01*
X185612Y432213D02*
X185945Y432546D01*
Y433213D01*
X185612Y433546D01*
X184279D01*
X183946Y433213D01*
Y432546D01*
X184279Y432213D01*
X185612D01*
X171796Y407386D02*
Y408719D01*
Y408052D01*
X169797D01*
Y409385D02*
X171796D01*
Y410385D01*
X171463Y410718D01*
X170797D01*
X170463Y410385D01*
Y409385D01*
X171796Y412717D02*
Y411385D01*
X170797D01*
X171130Y412051D01*
Y412384D01*
X170797Y412717D01*
X170130D01*
X169797Y412384D01*
Y411718D01*
X170130Y411385D01*
X171463Y413384D02*
X171796Y413717D01*
Y414384D01*
X171463Y414717D01*
X171130D01*
X170797Y414384D01*
Y414050D01*
Y414384D01*
X170463Y414717D01*
X170130D01*
X169797Y414384D01*
Y413717D01*
X170130Y413384D01*
X22655Y261784D02*
X21322D01*
X21989D01*
Y259784D01*
X20656D02*
Y261784D01*
X19656D01*
X19323Y261450D01*
Y260784D01*
X19656Y260451D01*
X20656D01*
X18656Y259784D02*
X17990D01*
X18323D01*
Y261784D01*
X18656Y261450D01*
X16990D02*
X16657Y261784D01*
X15991D01*
X15657Y261450D01*
Y261117D01*
X15991Y260784D01*
X16324D01*
X15991D01*
X15657Y260451D01*
Y260118D01*
X15991Y259784D01*
X16657D01*
X16990Y260118D01*
X40185Y301492D02*
X38852D01*
X39519D01*
Y299493D01*
X38186D02*
Y301492D01*
X37186D01*
X36853Y301159D01*
Y300493D01*
X37186Y300159D01*
X38186D01*
X36186Y299493D02*
X35520D01*
X35853D01*
Y301492D01*
X36186Y301159D01*
X33520Y299493D02*
Y301492D01*
X34520Y300493D01*
X33187D01*
X65677Y302673D02*
X64344D01*
X65011D01*
Y300674D01*
X63678D02*
Y302673D01*
X62678D01*
X62345Y302340D01*
Y301674D01*
X62678Y301341D01*
X63678D01*
X61678Y300674D02*
X61012D01*
X61345D01*
Y302673D01*
X61678Y302340D01*
X58679Y302673D02*
X60012D01*
Y301674D01*
X59346Y302007D01*
X59013D01*
X58679Y301674D01*
Y301007D01*
X59013Y300674D01*
X59679D01*
X60012Y301007D01*
X66760Y281512D02*
X65427D01*
X66093D01*
Y279513D01*
X64761D02*
Y281512D01*
X63761D01*
X63428Y281179D01*
Y280512D01*
X63761Y280179D01*
X64761D01*
X62761Y279513D02*
X62095D01*
X62428D01*
Y281512D01*
X62761Y281179D01*
X59762Y281512D02*
X60429Y281179D01*
X61095Y280512D01*
Y279846D01*
X60762Y279513D01*
X60095D01*
X59762Y279846D01*
Y280179D01*
X60095Y280512D01*
X61095D01*
X42165Y312614D02*
X40832D01*
X41499D01*
Y310615D01*
X40166D02*
Y312614D01*
X39166D01*
X38833Y312281D01*
Y311615D01*
X39166Y311281D01*
X40166D01*
X36834Y310615D02*
X38167D01*
X36834Y311948D01*
Y312281D01*
X37167Y312614D01*
X37833D01*
X38167Y312281D01*
X36167D02*
X35834Y312614D01*
X35168D01*
X34834Y312281D01*
Y310948D01*
X35168Y310615D01*
X35834D01*
X36167Y310948D01*
Y312281D01*
X66071Y313008D02*
X64738D01*
X65404D01*
Y311009D01*
X64072D02*
Y313008D01*
X63072D01*
X62739Y312675D01*
Y312008D01*
X63072Y311675D01*
X64072D01*
X60739Y311009D02*
X62072D01*
X60739Y312342D01*
Y312675D01*
X61072Y313008D01*
X61739D01*
X62072Y312675D01*
X60073Y311009D02*
X59406D01*
X59740D01*
Y313008D01*
X60073Y312675D01*
X52252Y292811D02*
X50919D01*
X51586D01*
Y290812D01*
X50253D02*
Y292811D01*
X49253D01*
X48920Y292478D01*
Y291812D01*
X49253Y291478D01*
X50253D01*
X46920Y290812D02*
X48253D01*
X46920Y292145D01*
Y292478D01*
X47254Y292811D01*
X47920D01*
X48253Y292478D01*
X44921Y290812D02*
X46254D01*
X44921Y292145D01*
Y292478D01*
X45254Y292811D01*
X45921D01*
X46254Y292478D01*
X181953Y394959D02*
X180620D01*
X181286D01*
Y392959D01*
X179953D02*
Y394959D01*
X178954D01*
X178621Y394625D01*
Y393959D01*
X178954Y393626D01*
X179953D01*
X176621Y392959D02*
X177954D01*
X176621Y394292D01*
Y394625D01*
X176954Y394959D01*
X177621D01*
X177954Y394625D01*
X174622Y394959D02*
X175288Y394625D01*
X175955Y393959D01*
Y393292D01*
X175621Y392959D01*
X174955D01*
X174622Y393292D01*
Y393626D01*
X174955Y393959D01*
X175955D01*
X140382Y298343D02*
X139049D01*
X139715D01*
Y296343D01*
X138382D02*
Y298343D01*
X137383D01*
X137050Y298009D01*
Y297343D01*
X137383Y297010D01*
X138382D01*
X135050Y296343D02*
X136383D01*
X135050Y297676D01*
Y298009D01*
X135383Y298343D01*
X136050D01*
X136383Y298009D01*
X134384Y298343D02*
X133051D01*
Y298009D01*
X134384Y296677D01*
Y296343D01*
X114519Y365493D02*
X113186D01*
X113852D01*
Y363493D01*
X112520D02*
Y365493D01*
X111520D01*
X111187Y365160D01*
Y364493D01*
X111520Y364160D01*
X112520D01*
X109187Y363493D02*
X110520D01*
X109187Y364826D01*
Y365160D01*
X109520Y365493D01*
X110187D01*
X110520Y365160D01*
X108521Y363827D02*
X108188Y363493D01*
X107521D01*
X107188Y363827D01*
Y365160D01*
X107521Y365493D01*
X108188D01*
X108521Y365160D01*
Y364826D01*
X108188Y364493D01*
X107188D01*
X36764Y404068D02*
X35431D01*
X36098D01*
Y402069D01*
X34765D02*
Y404068D01*
X33765D01*
X33432Y403735D01*
Y403069D01*
X33765Y402736D01*
X34765D01*
X32765Y403735D02*
X32432Y404068D01*
X31766D01*
X31433Y403735D01*
Y403402D01*
X31766Y403069D01*
X32099D01*
X31766D01*
X31433Y402736D01*
Y402402D01*
X31766Y402069D01*
X32432D01*
X32765Y402402D01*
X30766Y403735D02*
X30433Y404068D01*
X29766D01*
X29433Y403735D01*
Y402402D01*
X29766Y402069D01*
X30433D01*
X30766Y402402D01*
Y403735D01*
X75556Y348278D02*
X74223D01*
X74890D01*
Y346279D01*
X73557D02*
Y348278D01*
X72557D01*
X72224Y347945D01*
Y347279D01*
X72557Y346946D01*
X73557D01*
X71558Y347945D02*
X71224Y348278D01*
X70558D01*
X70225Y347945D01*
Y347612D01*
X70558Y347279D01*
X70891D01*
X70558D01*
X70225Y346946D01*
Y346612D01*
X70558Y346279D01*
X71224D01*
X71558Y346612D01*
X69558Y346279D02*
X68892D01*
X69225D01*
Y348278D01*
X69558Y347945D01*
X146287Y374425D02*
X144955D01*
X145621D01*
Y372426D01*
X144288D02*
Y374425D01*
X143288D01*
X142955Y374092D01*
Y373426D01*
X143288Y373093D01*
X144288D01*
X142289Y374092D02*
X141955Y374425D01*
X141289D01*
X140956Y374092D01*
Y373759D01*
X141289Y373426D01*
X141622D01*
X141289D01*
X140956Y373093D01*
Y372759D01*
X141289Y372426D01*
X141955D01*
X142289Y372759D01*
X138956Y372426D02*
X140289D01*
X138956Y373759D01*
Y374092D01*
X139290Y374425D01*
X139956D01*
X140289Y374092D01*
X465418Y382465D02*
X464085D01*
X464751D01*
Y380465D01*
X463419D02*
Y382465D01*
X462419D01*
X462086Y382131D01*
Y381465D01*
X462419Y381132D01*
X463419D01*
X461419Y382131D02*
X461086Y382465D01*
X460420D01*
X460086Y382131D01*
Y381798D01*
X460420Y381465D01*
X460753D01*
X460420D01*
X460086Y381132D01*
Y380799D01*
X460420Y380465D01*
X461086D01*
X461419Y380799D01*
X458087Y382465D02*
X459420D01*
Y381465D01*
X458753Y381798D01*
X458420D01*
X458087Y381465D01*
Y380799D01*
X458420Y380465D01*
X459087D01*
X459420Y380799D01*
X493322Y346022D02*
X494655D01*
X493989D01*
Y348022D01*
X495322D02*
Y346022D01*
X496321D01*
X496654Y346356D01*
Y347022D01*
X496321Y347355D01*
X495322D01*
X498654Y346022D02*
X497321D01*
Y347022D01*
X497987Y346689D01*
X498320D01*
X498654Y347022D01*
Y347689D01*
X498320Y348022D01*
X497654D01*
X497321Y347689D01*
X499320Y346356D02*
X499653Y346022D01*
X500320D01*
X500653Y346356D01*
Y346689D01*
X500320Y347022D01*
X500653Y347355D01*
Y347689D01*
X500320Y348022D01*
X499653D01*
X499320Y347689D01*
Y347355D01*
X499653Y347022D01*
X499320Y346689D01*
Y346356D01*
X499653Y347022D02*
X500320D01*
X515070Y365024D02*
X513737D01*
X514404D01*
Y363025D01*
X513071D02*
Y365024D01*
X512071D01*
X511738Y364691D01*
Y364025D01*
X512071Y363691D01*
X513071D01*
X509739Y365024D02*
X511072D01*
Y364025D01*
X510405Y364358D01*
X510072D01*
X509739Y364025D01*
Y363358D01*
X510072Y363025D01*
X510739D01*
X511072Y363358D01*
X509072D02*
X508739Y363025D01*
X508073D01*
X507739Y363358D01*
Y364691D01*
X508073Y365024D01*
X508739D01*
X509072Y364691D01*
Y364358D01*
X508739Y364025D01*
X507739D01*
X537395Y355399D02*
X538728D01*
X538062D01*
Y357398D01*
X539395D02*
Y355399D01*
X540394D01*
X540727Y355732D01*
Y356399D01*
X540394Y356732D01*
X539395D01*
X542727Y355399D02*
X542060Y355732D01*
X541394Y356399D01*
Y357065D01*
X541727Y357398D01*
X542393D01*
X542727Y357065D01*
Y356732D01*
X542393Y356399D01*
X541394D01*
X544726Y357398D02*
X543393D01*
X544726Y356066D01*
Y355732D01*
X544393Y355399D01*
X543726D01*
X543393Y355732D01*
X559328Y359872D02*
X557995D01*
X558661D01*
Y357873D01*
X557328D02*
Y359872D01*
X556329D01*
X555996Y359539D01*
Y358873D01*
X556329Y358539D01*
X557328D01*
X553996Y359872D02*
X554663Y359539D01*
X555329Y358873D01*
Y358206D01*
X554996Y357873D01*
X554329D01*
X553996Y358206D01*
Y358539D01*
X554329Y358873D01*
X555329D01*
X553330Y359539D02*
X552996Y359872D01*
X552330D01*
X551997Y359539D01*
Y359206D01*
X552330Y358873D01*
X552663D01*
X552330D01*
X551997Y358539D01*
Y358206D01*
X552330Y357873D01*
X552996D01*
X553330Y358206D01*
X574633Y350050D02*
X575966D01*
X575300D01*
Y352049D01*
X576632D02*
Y350050D01*
X577632D01*
X577965Y350383D01*
Y351050D01*
X577632Y351383D01*
X576632D01*
X579965Y350050D02*
X579298Y350383D01*
X578632Y351050D01*
Y351716D01*
X578965Y352049D01*
X579632D01*
X579965Y351716D01*
Y351383D01*
X579632Y351050D01*
X578632D01*
X581631Y352049D02*
Y350050D01*
X580631Y351050D01*
X581964D01*
X618943Y397525D02*
Y398858D01*
Y398192D01*
X616944D01*
Y399525D02*
X618943D01*
Y400524D01*
X618610Y400858D01*
X617944D01*
X617610Y400524D01*
Y399525D01*
X618943Y402857D02*
X618610Y402190D01*
X617944Y401524D01*
X617277D01*
X616944Y401857D01*
Y402524D01*
X617277Y402857D01*
X617610D01*
X617944Y402524D01*
Y401524D01*
X618943Y404856D02*
Y403523D01*
X617944D01*
X618277Y404190D01*
Y404523D01*
X617944Y404856D01*
X617277D01*
X616944Y404523D01*
Y403857D01*
X617277Y403523D01*
X638439Y407537D02*
Y408869D01*
Y408203D01*
X636440D01*
Y409536D02*
X638439D01*
Y410535D01*
X638106Y410869D01*
X637440D01*
X637107Y410535D01*
Y409536D01*
X638439Y412868D02*
X638106Y412202D01*
X637440Y411535D01*
X636773D01*
X636440Y411868D01*
Y412535D01*
X636773Y412868D01*
X637107D01*
X637440Y412535D01*
Y411535D01*
X638439Y414867D02*
X638106Y414201D01*
X637440Y413534D01*
X636773D01*
X636440Y413868D01*
Y414534D01*
X636773Y414867D01*
X637107D01*
X637440Y414534D01*
Y413534D01*
X281921Y304950D02*
X280588D01*
X281254D01*
Y302950D01*
X279922D02*
Y304950D01*
X278922D01*
X278589Y304616D01*
Y303950D01*
X278922Y303617D01*
X279922D01*
X277922Y302950D02*
X277256D01*
X277589D01*
Y304950D01*
X277922Y304616D01*
X276256D02*
X275923Y304950D01*
X275256D01*
X274923Y304616D01*
Y303284D01*
X275256Y302950D01*
X275923D01*
X276256Y303284D01*
Y304616D01*
X272924Y304950D02*
X273590Y304616D01*
X274257Y303950D01*
Y303284D01*
X273923Y302950D01*
X273257D01*
X272924Y303284D01*
Y303617D01*
X273257Y303950D01*
X274257D01*
X317843Y304347D02*
X316510D01*
X317176D01*
Y302347D01*
X315843D02*
Y304347D01*
X314844D01*
X314510Y304013D01*
Y303347D01*
X314844Y303014D01*
X315843D01*
X313844Y302347D02*
X313177D01*
X313511D01*
Y304347D01*
X313844Y304013D01*
X312178D02*
X311844Y304347D01*
X311178D01*
X310845Y304013D01*
Y302680D01*
X311178Y302347D01*
X311844D01*
X312178Y302680D01*
Y304013D01*
X310178Y304347D02*
X308845D01*
Y304013D01*
X310178Y302680D01*
Y302347D01*
X348453Y303166D02*
X347120D01*
X347786D01*
Y301166D01*
X346453D02*
Y303166D01*
X345454D01*
X345121Y302832D01*
Y302166D01*
X345454Y301833D01*
X346453D01*
X344454Y301166D02*
X343788D01*
X344121D01*
Y303166D01*
X344454Y302832D01*
X342788D02*
X342455Y303166D01*
X341788D01*
X341455Y302832D01*
Y301499D01*
X341788Y301166D01*
X342455D01*
X342788Y301499D01*
Y302832D01*
X340789D02*
X340455Y303166D01*
X339789D01*
X339456Y302832D01*
Y302499D01*
X339789Y302166D01*
X339456Y301833D01*
Y301499D01*
X339789Y301166D01*
X340455D01*
X340789Y301499D01*
Y301833D01*
X340455Y302166D01*
X340789Y302499D01*
Y302832D01*
X340455Y302166D02*
X339789D01*
X148059Y387614D02*
X146726D01*
X147393D01*
Y385615D01*
X146060D02*
Y387614D01*
X145060D01*
X144727Y387281D01*
Y386615D01*
X145060Y386281D01*
X146060D01*
X144060Y385615D02*
X143394D01*
X143727D01*
Y387614D01*
X144060Y387281D01*
X141061Y385615D02*
X142394D01*
X141061Y386948D01*
Y387281D01*
X141395Y387614D01*
X142061D01*
X142394Y387281D01*
X140395D02*
X140062Y387614D01*
X139395D01*
X139062Y387281D01*
Y386948D01*
X139395Y386615D01*
X139062Y386281D01*
Y385948D01*
X139395Y385615D01*
X140062D01*
X140395Y385948D01*
Y386281D01*
X140062Y386615D01*
X140395Y386948D01*
Y387281D01*
X140062Y386615D02*
X139395D01*
X111591Y389106D02*
X110258D01*
X110925D01*
Y387106D01*
X109592D02*
Y389106D01*
X108592D01*
X108259Y388772D01*
Y388106D01*
X108592Y387773D01*
X109592D01*
X107592Y387106D02*
X106926D01*
X107259D01*
Y389106D01*
X107592Y388772D01*
X104593Y387106D02*
X105926D01*
X104593Y388439D01*
Y388772D01*
X104927Y389106D01*
X105593D01*
X105926Y388772D01*
X103927Y387439D02*
X103594Y387106D01*
X102927D01*
X102594Y387439D01*
Y388772D01*
X102927Y389106D01*
X103594D01*
X103927Y388772D01*
Y388439D01*
X103594Y388106D01*
X102594D01*
X73067Y372599D02*
X73734D01*
X73400D01*
Y370933D01*
X73734Y370600D01*
X74067D01*
X74400Y370933D01*
X72401Y370600D02*
Y372599D01*
X71401D01*
X71068Y372266D01*
Y371600D01*
X71401Y371266D01*
X72401D01*
X69068Y370600D02*
X70401D01*
X69068Y371933D01*
Y372266D01*
X69402Y372599D01*
X70068D01*
X70401Y372266D01*
G54D19*
X50234Y344916D02*
Y345749D01*
Y345333D01*
X52316D01*
X52733Y345749D01*
Y346166D01*
X52316Y346583D01*
X52733Y344083D02*
X50234D01*
Y342834D01*
X50650Y342417D01*
X51483D01*
X51900Y342834D01*
Y344083D01*
X52733Y341584D02*
Y340751D01*
Y341168D01*
X50234D01*
X50650Y341584D01*
G54D27*
X54579Y345363D02*
X53872Y345070D01*
X53579Y344363D01*
Y333363D02*
X53872Y332656D01*
X54579Y332363D01*
X60579D02*
X61286Y332656D01*
X61579Y333363D01*
Y344363D02*
X61286Y345070D01*
X60579Y345363D01*
X62512Y367863D02*
X61805Y367570D01*
X61512Y366863D01*
X74512D02*
X74219Y367570D01*
X73512Y367863D01*
Y359863D02*
X74219Y360156D01*
X74512Y360863D01*
X61512D02*
X61805Y360156D01*
X62512Y359863D01*
X61579Y333363D02*
Y344363D01*
X54579Y332363D02*
X60579D01*
X54579Y345363D02*
X60579D01*
X53579Y333363D02*
Y344363D01*
X62512Y359863D02*
X73512D01*
X61512Y360863D02*
Y366863D01*
X74512Y360863D02*
Y366863D01*
X62512Y367863D02*
X73512D01*
X729887Y248024D02*
Y251023D01*
X728888Y250024D01*
X727888Y251023D01*
Y248024D01*
X725389Y251023D02*
X726389D01*
X726889Y250523D01*
Y248524D01*
X726389Y248024D01*
X725389D01*
X724889Y248524D01*
Y250523D01*
X725389Y251023D01*
X721890Y250523D02*
X722390Y251023D01*
X723390D01*
X723889Y250523D01*
Y250024D01*
X723390Y249524D01*
X722390D01*
X721890Y249024D01*
Y248524D01*
X722390Y248024D01*
X723390D01*
X723889Y248524D01*
X718891Y251023D02*
X720890D01*
Y249524D01*
X719891D01*
X720890D01*
Y248024D01*
X715892Y251023D02*
X717891D01*
Y248024D01*
X715892D01*
X717891Y249524D02*
X716892D01*
X714892Y251023D02*
X712893D01*
X713893D01*
Y248024D01*
X709894Y250523D02*
X710394Y251023D01*
X711393D01*
X711893Y250523D01*
Y250024D01*
X711393Y249524D01*
X710394D01*
X709894Y249024D01*
Y248524D01*
X710394Y248024D01*
X711393D01*
X711893Y248524D01*
X708394Y247524D02*
X707895Y248024D01*
Y248524D01*
X708394D01*
Y248024D01*
X707895D01*
X708394Y247524D01*
X708894Y247025D01*
X738635Y245985D02*
X740634D01*
Y244485D01*
X739634D01*
X740634D01*
Y242986D01*
X737635D02*
Y244985D01*
X736635Y245985D01*
X735636Y244985D01*
Y242986D01*
Y244485D01*
X737635D01*
X734636Y242986D02*
Y245985D01*
X732637Y242986D01*
Y245985D01*
X729638Y245485D02*
X730137Y245985D01*
X731137D01*
X731637Y245485D01*
Y244985D01*
X731137Y244485D01*
X730137D01*
X729638Y243985D01*
Y243485D01*
X730137Y242986D01*
X731137D01*
X731637Y243485D01*
X728138Y242486D02*
X727638Y242986D01*
Y243485D01*
X728138D01*
Y242986D01*
X727638D01*
X728138Y242486D01*
X728638Y241986D01*
X722640Y242986D02*
Y244985D01*
X721640Y245985D01*
X720641Y244985D01*
Y242986D01*
Y244485D01*
X722640D01*
X719641Y242986D02*
Y245985D01*
X717641Y242986D01*
Y245985D01*
X716642D02*
Y242986D01*
X715142D01*
X714642Y243485D01*
Y245485D01*
X715142Y245985D01*
X716642D01*
X710644D02*
Y242986D01*
X708644D01*
X706145Y245985D02*
X707145D01*
X707645Y245485D01*
Y243485D01*
X707145Y242986D01*
X706145D01*
X705645Y243485D01*
Y245485D01*
X706145Y245985D01*
X702646Y245485D02*
X703146Y245985D01*
X704146D01*
X704646Y245485D01*
Y243485D01*
X704146Y242986D01*
X703146D01*
X702646Y243485D01*
Y244485D01*
X703646D01*
X701647Y245985D02*
X700647D01*
X701147D01*
Y242986D01*
X701647D01*
X700647D01*
X697148Y245485D02*
X697648Y245985D01*
X698648D01*
X699147Y245485D01*
Y243485D01*
X698648Y242986D01*
X697648D01*
X697148Y243485D01*
X742740Y420299D02*
Y417300D01*
Y418799D01*
X740740D01*
Y420299D01*
Y417300D01*
X739741Y420299D02*
X737742D01*
X738741D01*
Y417300D01*
X736742Y420299D02*
Y417300D01*
X735242D01*
X734742Y417800D01*
Y418300D01*
X735242Y418799D01*
X736742D01*
X735242D01*
X734742Y419299D01*
Y419799D01*
X735242Y420299D01*
X736742D01*
X733743D02*
Y417300D01*
X732243D01*
X731743Y417800D01*
Y419799D01*
X732243Y420299D01*
X733743D01*
X726245D02*
X727245D01*
X727745Y419799D01*
Y417800D01*
X727245Y417300D01*
X726245D01*
X725745Y417800D01*
Y419799D01*
X726245Y420299D01*
X724746D02*
Y417800D01*
X724246Y417300D01*
X723246D01*
X722746Y417800D01*
Y420299D01*
X721747D02*
X719747D01*
X720747D01*
Y417300D01*
X715749Y418799D02*
X713749D01*
X742740Y387305D02*
Y384306D01*
Y385806D01*
X740740D01*
Y387305D01*
Y384306D01*
X739741Y387305D02*
X737742D01*
X738741D01*
Y384306D01*
X736742Y387305D02*
Y384306D01*
X735242D01*
X734742Y384806D01*
Y385306D01*
X735242Y385806D01*
X736742D01*
X735242D01*
X734742Y386305D01*
Y386805D01*
X735242Y387305D01*
X736742D01*
X733743D02*
Y384306D01*
X732243D01*
X731743Y384806D01*
Y386805D01*
X732243Y387305D01*
X733743D01*
X726245D02*
X727245D01*
X727745Y386805D01*
Y384806D01*
X727245Y384306D01*
X726245D01*
X725745Y384806D01*
Y386805D01*
X726245Y387305D01*
X724746D02*
Y384806D01*
X724246Y384306D01*
X723246D01*
X722746Y384806D01*
Y387305D01*
X721747D02*
X719747D01*
X720747D01*
Y384306D01*
X715749Y385806D02*
X713749D01*
X714749Y386805D02*
Y384806D01*
X719747Y354436D02*
X720247Y354936D01*
X721247D01*
X721747Y354436D01*
Y352437D01*
X721247Y351937D01*
X720247D01*
X719747Y352437D01*
Y353436D01*
X720747D01*
X718748Y351937D02*
Y354936D01*
X716748Y351937D01*
Y354936D01*
X715749D02*
Y351937D01*
X714249D01*
X713749Y352437D01*
Y354436D01*
X714249Y354936D01*
X715749D01*
X733243Y322332D02*
Y320332D01*
X732243Y319333D01*
X731244Y320332D01*
Y322332D01*
X730244D02*
X729244D01*
X729744D01*
Y319333D01*
X730244D01*
X729244D01*
X727745D02*
Y322332D01*
X725745Y319333D01*
Y322332D01*
X721747D02*
Y319333D01*
X720247D01*
X719747Y319833D01*
Y320332D01*
X720247Y320832D01*
X721747D01*
X720247D01*
X719747Y321332D01*
Y321832D01*
X720247Y322332D01*
X721747D01*
X716748D02*
X718748D01*
Y319333D01*
X716748D01*
X718748Y320832D02*
X717748D01*
X715749Y322332D02*
Y319333D01*
X714249D01*
X713749Y319833D01*
Y321832D01*
X714249Y322332D01*
X715749D01*
X719747Y288993D02*
X720247Y289493D01*
X721247D01*
X721747Y288993D01*
Y286994D01*
X721247Y286494D01*
X720247D01*
X719747Y286994D01*
Y287994D01*
X720747D01*
X718748Y286494D02*
Y289493D01*
X716748Y286494D01*
Y289493D01*
X715749D02*
Y286494D01*
X714249D01*
X713749Y286994D01*
Y288993D01*
X714249Y289493D01*
X715749D01*
X733243Y256577D02*
Y254578D01*
X732243Y253578D01*
X731244Y254578D01*
Y256577D01*
X730244D02*
X729244D01*
X729744D01*
Y253578D01*
X730244D01*
X729244D01*
X727745D02*
Y256577D01*
X725745Y253578D01*
Y256577D01*
X721747D02*
Y254578D01*
X720747Y253578D01*
X719747Y254578D01*
Y256577D01*
X718748Y253578D02*
Y256577D01*
X717248D01*
X716748Y256077D01*
Y255078D01*
X717248Y254578D01*
X718748D01*
X715749Y256577D02*
Y253578D01*
X714749Y254578D01*
X713749Y253578D01*
Y256577D01*
X712750Y253578D02*
Y256577D01*
X711250D01*
X710750Y256077D01*
Y255078D01*
X711250Y254578D01*
X712750D01*
X711750D02*
X710750Y253578D01*
X719747Y224877D02*
X720247Y225377D01*
X721247D01*
X721747Y224877D01*
Y222878D01*
X721247Y222378D01*
X720247D01*
X719747Y222878D01*
Y223878D01*
X720747D01*
X718748Y222378D02*
Y225377D01*
X716748Y222378D01*
Y225377D01*
X715749D02*
Y222378D01*
X714249D01*
X713749Y222878D01*
Y224877D01*
X714249Y225377D01*
X715749D01*
X736242Y192383D02*
Y190384D01*
X735242Y189384D01*
X734243Y190384D01*
Y192383D01*
X733243D02*
X732243D01*
X732743D01*
Y189384D01*
X733243D01*
X732243D01*
X730744D02*
Y192383D01*
X728744Y189384D01*
Y192383D01*
X724746Y189384D02*
Y192383D01*
X723746Y191383D01*
X722746Y192383D01*
Y189384D01*
X720247Y192383D02*
X721247D01*
X721747Y191883D01*
Y189884D01*
X721247Y189384D01*
X720247D01*
X719747Y189884D01*
Y191883D01*
X720247Y192383D01*
X718748D02*
X716748D01*
X717748D01*
Y189384D01*
X715749D02*
X714749D01*
X715249D01*
Y192383D01*
X715749Y191883D01*
X736242Y127253D02*
Y125254D01*
X735242Y124254D01*
X734243Y125254D01*
Y127253D01*
X733243D02*
X732243D01*
X732743D01*
Y124254D01*
X733243D01*
X732243D01*
X730744D02*
Y127253D01*
X728744Y124254D01*
Y127253D01*
X724746Y124254D02*
Y127253D01*
X723746Y126253D01*
X722746Y127253D01*
Y124254D01*
X720247Y127253D02*
X721247D01*
X721747Y126753D01*
Y124754D01*
X721247Y124254D01*
X720247D01*
X719747Y124754D01*
Y126753D01*
X720247Y127253D01*
X718748D02*
X716748D01*
X717748D01*
Y124254D01*
X713749D02*
X715749D01*
X713749Y126253D01*
Y126753D01*
X714249Y127253D01*
X715249D01*
X715749Y126753D01*
X390156Y362281D02*
X387490D01*
X400218D02*
X397552D01*
X398885Y363614D02*
Y360948D01*
X368205Y260268D02*
X370205D01*
Y258768D01*
X369205Y259268D01*
X368705D01*
X368205Y258768D01*
Y257768D01*
X368705Y257269D01*
X369705D01*
X370205Y257768D01*
X367206Y260268D02*
Y258268D01*
X366206Y257269D01*
X365206Y258268D01*
Y260268D01*
X346038Y251591D02*
Y249591D01*
X343039D01*
Y251591D01*
X344539Y249591D02*
Y250591D01*
X343039Y252590D02*
X346038D01*
Y254090D01*
X345539Y254590D01*
X344539D01*
X344039Y254090D01*
Y252590D01*
Y253590D02*
X343039Y254590D01*
Y255590D02*
X345039D01*
X346038Y256589D01*
X345039Y257589D01*
X343039D01*
X344539D01*
Y255590D01*
X345539Y260588D02*
X346038Y260088D01*
Y259088D01*
X345539Y258589D01*
X345039D01*
X344539Y259088D01*
Y260088D01*
X344039Y260588D01*
X343539D01*
X343039Y260088D01*
Y259088D01*
X343539Y258589D01*
X346038Y263587D02*
Y261588D01*
X343039D01*
Y263587D01*
X344539Y261588D02*
Y262587D01*
X315519Y258185D02*
X316019Y257685D01*
Y256686D01*
X315519Y256186D01*
X313520D01*
X313020Y256686D01*
Y257685D01*
X313520Y258185D01*
X314519D01*
Y257186D01*
X313020Y259185D02*
X316019D01*
X313020Y261184D01*
X316019D01*
Y262184D02*
X313020D01*
Y263684D01*
X313520Y264183D01*
X315519D01*
X316019Y263684D01*
Y262184D01*
X335302Y253824D02*
X335802Y254324D01*
Y255323D01*
X335302Y255823D01*
X334803D01*
X334303Y255323D01*
Y254823D01*
Y255323D01*
X333803Y255823D01*
X333303D01*
X332803Y255323D01*
Y254324D01*
X333303Y253824D01*
X332803Y256823D02*
X333303D01*
Y257323D01*
X332803D01*
Y256823D01*
X335302Y259322D02*
X335802Y259822D01*
Y260821D01*
X335302Y261321D01*
X334803D01*
X334303Y260821D01*
Y260322D01*
Y260821D01*
X333803Y261321D01*
X333303D01*
X332803Y260821D01*
Y259822D01*
X333303Y259322D01*
X335802Y262321D02*
X333803D01*
X332803Y263321D01*
X333803Y264320D01*
X335802D01*
X325763Y259465D02*
Y257465D01*
X324263D01*
X324763Y258465D01*
Y258965D01*
X324263Y259465D01*
X323264D01*
X322764Y258965D01*
Y257965D01*
X323264Y257465D01*
X325763Y260465D02*
X323763D01*
X322764Y261464D01*
X323763Y262464D01*
X325763D01*
X380406Y368755D02*
X377740D01*
X379073Y370088D02*
Y367422D01*
X390312Y368833D02*
X387646D01*
X332803Y283253D02*
X334803D01*
Y284752D01*
X334303Y285252D01*
X332803D01*
Y286252D02*
X335802D01*
Y287751D01*
X335302Y288251D01*
X334303D01*
X333803Y287751D01*
Y286252D01*
Y287251D02*
X332803Y288251D01*
X335302Y291250D02*
X335802Y290750D01*
Y289751D01*
X335302Y289251D01*
X334803D01*
X334303Y289751D01*
Y290750D01*
X333803Y291250D01*
X333303D01*
X332803Y290750D01*
Y289751D01*
X333303Y289251D01*
X335802Y292250D02*
Y294249D01*
Y293250D01*
X332803D01*
X284575Y388713D02*
X282575Y385714D01*
Y388713D02*
X284575Y385714D01*
X281576Y387213D02*
X279576D01*
X278577Y385714D02*
Y388713D01*
X277577Y387713D01*
X276577Y388713D01*
Y385714D01*
X275578Y388713D02*
X274578D01*
X275078D01*
Y385714D01*
X275578D01*
X274578D01*
X273078D02*
Y388713D01*
X271079Y385714D01*
Y388713D01*
X315723Y283253D02*
X313224D01*
X312724Y283753D01*
Y284752D01*
X313224Y285252D01*
X315723D01*
Y286252D02*
Y288251D01*
Y287251D01*
X312724D01*
X315723Y289251D02*
X312724Y291250D01*
X315723D02*
X312724Y289251D01*
X315723Y292250D02*
X312724D01*
Y293749D01*
X313224Y294249D01*
X315224D01*
X315723Y293749D01*
Y292250D01*
X719747Y159357D02*
X720247Y159857D01*
X721247D01*
X721747Y159357D01*
Y157358D01*
X721247Y156858D01*
X720247D01*
X719747Y157358D01*
Y158358D01*
X720747D01*
X718748Y156858D02*
Y159857D01*
X716748Y156858D01*
Y159857D01*
X715749D02*
Y156858D01*
X714249D01*
X713749Y157358D01*
Y159357D01*
X714249Y159857D01*
X715749D01*
X345546Y285646D02*
Y283646D01*
X344047D01*
X344547Y284646D01*
Y285146D01*
X344047Y285646D01*
X343047D01*
X342547Y285146D01*
Y284146D01*
X343047Y283646D01*
X345546Y286646D02*
X343547D01*
X342547Y287645D01*
X343547Y288645D01*
X345546D01*
X312473Y388737D02*
Y388237D01*
X311473Y387237D01*
X310474Y388237D01*
Y388737D01*
X311473Y387237D02*
Y385738D01*
X309474Y387237D02*
X307475D01*
X306475Y385738D02*
Y388737D01*
X305475Y387737D01*
X304475Y388737D01*
Y385738D01*
X303476Y388737D02*
X302476D01*
X302976D01*
Y385738D01*
X303476D01*
X302476D01*
X300977D02*
Y388737D01*
X298977Y385738D01*
Y388737D01*
X314567Y346271D02*
Y345772D01*
X313567Y344772D01*
X312568Y345772D01*
Y346271D01*
X313567Y344772D02*
Y343272D01*
X311568Y344772D02*
X309569D01*
X308569Y343272D02*
Y346271D01*
X307569Y345272D01*
X306570Y346271D01*
Y343272D01*
X305570D02*
Y345272D01*
X304570Y346271D01*
X303571Y345272D01*
Y343272D01*
Y344772D01*
X305570D01*
X302571Y346271D02*
X300571Y343272D01*
Y346271D02*
X302571Y343272D01*
X354047Y388851D02*
X352048D01*
Y388351D01*
X354047Y386351D01*
Y385852D01*
X352048D01*
X351048Y387351D02*
X349049D01*
X348049Y385852D02*
Y388851D01*
X347050Y387851D01*
X346050Y388851D01*
Y385852D01*
X345050Y388851D02*
X344051D01*
X344550D01*
Y385852D01*
X345050D01*
X344051D01*
X342551D02*
Y388851D01*
X340552Y385852D01*
Y388851D01*
X273104Y345399D02*
X271105Y342400D01*
Y345399D02*
X273104Y342400D01*
X270105Y343900D02*
X268106D01*
X267106Y342400D02*
Y345399D01*
X266106Y344399D01*
X265107Y345399D01*
Y342400D01*
X264107D02*
Y344399D01*
X263107Y345399D01*
X262107Y344399D01*
Y342400D01*
Y343900D01*
X264107D01*
X261108Y345399D02*
X259108Y342400D01*
Y345399D02*
X261108Y342400D01*
X355594Y345676D02*
X353595D01*
Y345177D01*
X355594Y343177D01*
Y342677D01*
X353595D01*
X352595Y344177D02*
X350596D01*
X349596Y342677D02*
Y345676D01*
X348597Y344677D01*
X347597Y345676D01*
Y342677D01*
X346597D02*
Y344677D01*
X345598Y345676D01*
X344598Y344677D01*
Y342677D01*
Y344177D01*
X346597D01*
X343598Y345676D02*
X341599Y342677D01*
Y345676D02*
X343598Y342677D01*
X325664Y282564D02*
X323165D01*
X322665Y283064D01*
Y284063D01*
X323165Y284563D01*
X325664D01*
X322665Y285563D02*
X325664D01*
Y287062D01*
X325165Y287562D01*
X324165D01*
X323665Y287062D01*
Y285563D01*
Y286563D02*
X322665Y287562D01*
X325664Y288562D02*
X322665Y290561D01*
X325664D02*
X322665Y288562D01*
X325664Y291561D02*
X322665D01*
Y293060D01*
X323165Y293560D01*
X325165D01*
X325664Y293060D01*
Y291561D01*
X355283Y285449D02*
X355783Y284949D01*
Y283949D01*
X355283Y283450D01*
X353283D01*
X352783Y283949D01*
Y284949D01*
X353283Y285449D01*
X354283D01*
Y284449D01*
X352783Y286449D02*
X355783D01*
X352783Y288448D01*
X355783D01*
Y289448D02*
X352783D01*
Y290947D01*
X353283Y291447D01*
X355283D01*
X355783Y290947D01*
Y289448D01*
X169416Y365196D02*
X172415D01*
Y366695D01*
X171915Y367195D01*
X170915D01*
X170416Y366695D01*
Y365196D01*
Y366196D02*
X169416Y367195D01*
X172415Y370194D02*
Y368195D01*
X169416D01*
Y370194D01*
X170915Y368195D02*
Y369195D01*
X171915Y373193D02*
X172415Y372694D01*
Y371694D01*
X171915Y371194D01*
X171415D01*
X170915Y371694D01*
Y372694D01*
X170416Y373193D01*
X169916D01*
X169416Y372694D01*
Y371694D01*
X169916Y371194D01*
X172415Y376192D02*
Y374193D01*
X169416D01*
Y376192D01*
X170915Y374193D02*
Y375193D01*
X172415Y377192D02*
Y379191D01*
Y378192D01*
X169416D01*
X181353Y424135D02*
X181853Y423635D01*
Y422636D01*
X181353Y422136D01*
X180853D01*
X180353Y422636D01*
Y423635D01*
X179854Y424135D01*
X179354D01*
X178854Y423635D01*
Y422636D01*
X179354Y422136D01*
X181853Y425135D02*
X178854D01*
X179854Y426135D01*
X178854Y427134D01*
X181853D01*
Y429634D02*
Y428634D01*
X181353Y428134D01*
X179354D01*
X178854Y428634D01*
Y429634D01*
X179354Y430133D01*
X181353D01*
X181853Y429634D01*
X178854Y431133D02*
X180853Y433132D01*
X181853Y434132D02*
Y436131D01*
Y435132D01*
X178854D01*
X181853Y437131D02*
X178854D01*
Y438631D01*
X179354Y439130D01*
X181353D01*
X181853Y438631D01*
Y437131D01*
Y441630D02*
Y440630D01*
X181353Y440130D01*
X179354D01*
X178854Y440630D01*
Y441630D01*
X179354Y442130D01*
X181353D01*
X181853Y441630D01*
X167813Y409422D02*
Y411421D01*
Y410422D01*
X164814D01*
X167813Y412421D02*
X164814D01*
Y413921D01*
X165314Y414420D01*
X167313D01*
X167813Y413921D01*
Y412421D01*
Y415420D02*
Y416420D01*
Y415920D01*
X164814D01*
Y415420D01*
Y416420D01*
X192461Y387894D02*
Y389893D01*
Y388894D01*
X189462D01*
X191961Y392892D02*
X192461Y392392D01*
Y391393D01*
X191961Y390893D01*
X189962D01*
X189462Y391393D01*
Y392392D01*
X189962Y392892D01*
X192461Y393892D02*
X189462D01*
X190462D01*
X192461Y395891D01*
X190962Y394392D01*
X189462Y395891D01*
Y396891D02*
X191461Y398890D01*
X191961Y401890D02*
X192461Y401390D01*
Y400390D01*
X191961Y399890D01*
X191461D01*
X190962Y400390D01*
Y401390D01*
X190462Y401890D01*
X189962D01*
X189462Y401390D01*
Y400390D01*
X189962Y399890D01*
X192461Y402889D02*
X189462D01*
X190462Y403889D01*
X189462Y404888D01*
X192461D01*
X191961Y407888D02*
X192461Y407388D01*
Y406388D01*
X191961Y405888D01*
X189962D01*
X189462Y406388D01*
Y407388D01*
X189962Y407888D01*
X192461Y408887D02*
X189462D01*
Y410887D01*
X192461Y411886D02*
X189462D01*
X190462D01*
X192461Y413886D01*
X190962Y412386D01*
X189462Y413886D01*
M02*
