G04*
G04 #@! TF.GenerationSoftware,Altium Limited,Altium Designer,19.0.12 (326)*
G04*
G04 Layer_Color=8421504*
%FSLAX25Y25*%
%MOIN*%
G70*
G01*
G75*
%ADD39O,0.05900X0.11900*%
%ADD40O,0.11900X0.05900*%
%ADD41R,0.02756X0.03543*%
%ADD42R,0.01181X0.02359*%
%ADD43R,0.01201X0.01024*%
G04:AMPARAMS|DCode=44|XSize=20mil|YSize=22mil|CornerRadius=3.4mil|HoleSize=0mil|Usage=FLASHONLY|Rotation=180.000|XOffset=0mil|YOffset=0mil|HoleType=Round|Shape=RoundedRectangle|*
%AMROUNDEDRECTD44*
21,1,0.02000,0.01520,0,0,180.0*
21,1,0.01320,0.02200,0,0,180.0*
1,1,0.00680,-0.00660,0.00760*
1,1,0.00680,0.00660,0.00760*
1,1,0.00680,0.00660,-0.00760*
1,1,0.00680,-0.00660,-0.00760*
%
%ADD44ROUNDEDRECTD44*%
%ADD45R,0.08855X0.27556*%
%ADD46R,0.13186X0.05312*%
%ADD47R,0.02162X0.02950*%
%ADD48R,0.01965X0.01769*%
%ADD49R,0.00984X0.01378*%
%ADD50R,0.01454X0.01454*%
%ADD51R,0.01378X0.00984*%
G04:AMPARAMS|DCode=52|XSize=20mil|YSize=22mil|CornerRadius=3.4mil|HoleSize=0mil|Usage=FLASHONLY|Rotation=90.000|XOffset=0mil|YOffset=0mil|HoleType=Round|Shape=RoundedRectangle|*
%AMROUNDEDRECTD52*
21,1,0.02000,0.01520,0,0,90.0*
21,1,0.01320,0.02200,0,0,90.0*
1,1,0.00680,0.00760,0.00660*
1,1,0.00680,0.00760,-0.00660*
1,1,0.00680,-0.00760,-0.00660*
1,1,0.00680,-0.00760,0.00660*
%
%ADD52ROUNDEDRECTD52*%
%ADD53C,0.05000*%
%ADD54R,0.01454X0.01454*%
%ADD55R,0.02950X0.02162*%
%ADD56O,0.01375X0.04524*%
G04:AMPARAMS|DCode=57|XSize=27.13mil|YSize=37.37mil|CornerRadius=4.83mil|HoleSize=0mil|Usage=FLASHONLY|Rotation=0.000|XOffset=0mil|YOffset=0mil|HoleType=Round|Shape=RoundedRectangle|*
%AMROUNDEDRECTD57*
21,1,0.02713,0.02772,0,0,0.0*
21,1,0.01748,0.03737,0,0,0.0*
1,1,0.00965,0.00874,-0.01386*
1,1,0.00965,-0.00874,-0.01386*
1,1,0.00965,-0.00874,0.01386*
1,1,0.00965,0.00874,0.01386*
%
%ADD57ROUNDEDRECTD57*%
%ADD58R,0.03343X0.06099*%
%ADD59R,0.01769X0.00784*%
%ADD60R,0.01769X0.01965*%
%ADD61R,0.02950X0.04721*%
G04:AMPARAMS|DCode=62|XSize=27.13mil|YSize=37.37mil|CornerRadius=4.83mil|HoleSize=0mil|Usage=FLASHONLY|Rotation=90.000|XOffset=0mil|YOffset=0mil|HoleType=Round|Shape=RoundedRectangle|*
%AMROUNDEDRECTD62*
21,1,0.02713,0.02772,0,0,90.0*
21,1,0.01748,0.03737,0,0,90.0*
1,1,0.00965,0.01386,0.00874*
1,1,0.00965,0.01386,-0.00874*
1,1,0.00965,-0.01386,-0.00874*
1,1,0.00965,-0.01386,0.00874*
%
%ADD62ROUNDEDRECTD62*%
%ADD63R,0.05312X0.02162*%
%ADD64R,0.06887X0.02162*%
%ADD65O,0.02950X0.00902*%
%ADD66O,0.00902X0.02950*%
%ADD67R,0.05800X0.02200*%
%ADD68R,0.04600X0.04600*%
%ADD69R,0.04600X0.04600*%
%ADD70R,0.07700X0.07700*%
%ADD71R,0.07700X0.07700*%
%ADD72R,0.04131X0.06493*%
%ADD73R,0.01965X0.03737*%
%ADD74R,0.04328X0.12989*%
%ADD75R,0.02753X0.03540*%
%ADD76R,0.06493X0.04131*%
%ADD77R,0.00587X0.02359*%
%ADD78R,0.00587X0.02162*%
%ADD79R,0.02700X0.03700*%
%ADD80O,0.04524X0.00784*%
%ADD81O,0.00784X0.04524*%
%ADD82R,0.19879X0.19879*%
%ADD83R,0.03737X0.02556*%
%ADD84R,0.04524X0.03934*%
%ADD85R,0.04524X0.04328*%
%ADD86R,0.04524X0.05509*%
%ADD87R,0.02531X0.03737*%
%ADD88R,0.03343X0.05312*%
%ADD89O,0.02162X0.05706*%
%ADD90R,0.02753X0.10824*%
%ADD91R,0.01375X0.00902*%
%ADD92O,0.06887X0.00781*%
%ADD93O,0.00781X0.06887*%
%ADD94R,0.04524X0.03343*%
%ADD95O,0.08855X0.02162*%
%ADD96R,0.03147X0.02162*%
%ADD97R,0.02200X0.02200*%
%ADD98R,0.03737X0.03343*%
%ADD99R,0.03343X0.01375*%
%ADD100R,0.07800X0.07800*%
%ADD101R,0.02950X0.01965*%
%ADD102O,0.05509X0.01965*%
%ADD103R,0.03265X0.02438*%
%ADD104R,0.10430X0.03540*%
%ADD105R,0.04800X0.08100*%
%ADD106R,0.15942X0.13580*%
%ADD107R,0.04721X0.01965*%
%ADD108R,0.09249X0.12005*%
%ADD109R,0.02600X0.05400*%
%ADD110R,0.05400X0.02600*%
%ADD111R,0.03540X0.10430*%
%ADD112R,0.02438X0.03265*%
%ADD113R,0.02200X0.02200*%
G36*
X656727Y480842D02*
X653184D01*
Y483204D01*
X656727D01*
Y480842D01*
D02*
G37*
G36*
X652593Y477003D02*
X650231D01*
Y480547D01*
X652593D01*
Y477003D01*
D02*
G37*
G36*
X649542D02*
X647180D01*
Y480547D01*
X649542D01*
Y477003D01*
D02*
G37*
G36*
X646392D02*
X644030D01*
Y480547D01*
X646392D01*
Y477003D01*
D02*
G37*
G36*
X643341D02*
X640979D01*
Y480547D01*
X643341D01*
Y477003D01*
D02*
G37*
G36*
X656727Y475724D02*
X653184D01*
Y478086D01*
X656727D01*
Y475724D01*
D02*
G37*
G36*
X652593Y472476D02*
X650231D01*
Y476019D01*
X652593D01*
Y472476D01*
D02*
G37*
G36*
X649542D02*
X647180D01*
Y476019D01*
X649542D01*
Y472476D01*
D02*
G37*
G36*
X646392D02*
X644030D01*
Y476019D01*
X646392D01*
Y472476D01*
D02*
G37*
G36*
X643341D02*
X640979D01*
Y476019D01*
X643341D01*
Y472476D01*
D02*
G37*
G36*
X656727Y470704D02*
X653184D01*
Y473066D01*
X656727D01*
Y470704D01*
D02*
G37*
G36*
X652593Y467948D02*
X650231D01*
Y471491D01*
X652593D01*
Y467948D01*
D02*
G37*
G36*
X649542D02*
X647180D01*
Y471491D01*
X649542D01*
Y467948D01*
D02*
G37*
G36*
X646392D02*
X644030D01*
Y471491D01*
X646392D01*
Y467948D01*
D02*
G37*
G36*
X643341D02*
X640979D01*
Y471491D01*
X643341D01*
Y467948D01*
D02*
G37*
G36*
X656727Y465586D02*
X653184D01*
Y467948D01*
X656727D01*
Y465586D01*
D02*
G37*
G36*
X539882Y426028D02*
X539883Y423629D01*
X537582Y421328D01*
X530083Y421328D01*
X528683Y422729D01*
X528682Y426928D01*
X530082Y428328D01*
X537583Y428328D01*
X539882Y426028D01*
D02*
G37*
G36*
X513661Y381709D02*
X510118D01*
Y384071D01*
X513661D01*
Y381709D01*
D02*
G37*
G36*
X509134D02*
X505590D01*
Y384071D01*
X509134D01*
Y381709D01*
D02*
G37*
G36*
X504606D02*
X501063D01*
Y384071D01*
X504606D01*
Y381709D01*
D02*
G37*
G36*
X600010Y381309D02*
X596467D01*
Y383671D01*
X600010D01*
Y381309D01*
D02*
G37*
G36*
X595483D02*
X591940D01*
Y383671D01*
X595483D01*
Y381309D01*
D02*
G37*
G36*
X590955D02*
X587412D01*
Y383671D01*
X590955D01*
Y381309D01*
D02*
G37*
G36*
X556011Y381309D02*
X552468D01*
Y383671D01*
X556011D01*
Y381309D01*
D02*
G37*
G36*
X551483D02*
X547940D01*
Y383671D01*
X551483D01*
Y381309D01*
D02*
G37*
G36*
X546956D02*
X543413D01*
Y383671D01*
X546956D01*
Y381309D01*
D02*
G37*
G36*
X513661Y378657D02*
X510118D01*
Y381019D01*
X513661D01*
Y378657D01*
D02*
G37*
G36*
X509134D02*
X505590D01*
Y381019D01*
X509134D01*
Y378657D01*
D02*
G37*
G36*
X504606D02*
X501063D01*
Y381019D01*
X504606D01*
Y378657D01*
D02*
G37*
G36*
X600010Y378258D02*
X596467D01*
Y380620D01*
X600010D01*
Y378258D01*
D02*
G37*
G36*
X595483D02*
X591940D01*
Y380620D01*
X595483D01*
Y378258D01*
D02*
G37*
G36*
X590955D02*
X587412D01*
Y380620D01*
X590955D01*
Y378258D01*
D02*
G37*
G36*
X556011Y378257D02*
X552468D01*
Y380620D01*
X556011D01*
Y378257D01*
D02*
G37*
G36*
X551483D02*
X547940D01*
Y380620D01*
X551483D01*
Y378257D01*
D02*
G37*
G36*
X546956D02*
X543413D01*
Y380620D01*
X546956D01*
Y378257D01*
D02*
G37*
G36*
X513661Y375508D02*
X510118D01*
Y377870D01*
X513661D01*
Y375508D01*
D02*
G37*
G36*
X509134D02*
X505590D01*
Y377870D01*
X509134D01*
Y375508D01*
D02*
G37*
G36*
X504606D02*
X501063D01*
Y377870D01*
X504606D01*
Y375508D01*
D02*
G37*
G36*
X600010Y375108D02*
X596467D01*
Y377470D01*
X600010D01*
Y375108D01*
D02*
G37*
G36*
X595483D02*
X591940D01*
Y377470D01*
X595483D01*
Y375108D01*
D02*
G37*
G36*
X590955D02*
X587412D01*
Y377470D01*
X590955D01*
Y375108D01*
D02*
G37*
G36*
X556011Y375108D02*
X552468D01*
Y377470D01*
X556011D01*
Y375108D01*
D02*
G37*
G36*
X551483D02*
X547940D01*
Y377470D01*
X551483D01*
Y375108D01*
D02*
G37*
G36*
X546956D02*
X543413D01*
Y377470D01*
X546956D01*
Y375108D01*
D02*
G37*
G36*
X513661Y372457D02*
X510118D01*
Y374819D01*
X513661D01*
Y372457D01*
D02*
G37*
G36*
X509134D02*
X505590D01*
Y374819D01*
X509134D01*
Y372457D01*
D02*
G37*
G36*
X504606D02*
X501063D01*
Y374819D01*
X504606D01*
Y372457D01*
D02*
G37*
G36*
X600010Y372057D02*
X596467D01*
Y374419D01*
X600010D01*
Y372057D01*
D02*
G37*
G36*
X595483D02*
X591940D01*
Y374419D01*
X595483D01*
Y372057D01*
D02*
G37*
G36*
X590955D02*
X587412D01*
Y374419D01*
X590955D01*
Y372057D01*
D02*
G37*
G36*
X556011Y372057D02*
X552468D01*
Y374419D01*
X556011D01*
Y372057D01*
D02*
G37*
G36*
X551483D02*
X547940D01*
Y374419D01*
X551483D01*
Y372057D01*
D02*
G37*
G36*
X546956D02*
X543413D01*
Y374419D01*
X546956D01*
Y372057D01*
D02*
G37*
G36*
X516319Y368323D02*
X513957D01*
Y371866D01*
X516319D01*
Y368323D01*
D02*
G37*
G36*
X511201D02*
X508839D01*
Y371866D01*
X511201D01*
Y368323D01*
D02*
G37*
G36*
X506181D02*
X503819D01*
Y371866D01*
X506181D01*
Y368323D01*
D02*
G37*
G36*
X501063D02*
X498701D01*
Y371866D01*
X501063D01*
Y368323D01*
D02*
G37*
G36*
X602668Y367923D02*
X600306D01*
Y371467D01*
X602668D01*
Y367923D01*
D02*
G37*
G36*
X597550D02*
X595188D01*
Y371467D01*
X597550D01*
Y367923D01*
D02*
G37*
G36*
X592530D02*
X590168D01*
Y371467D01*
X592530D01*
Y367923D01*
D02*
G37*
G36*
X587412D02*
X585050D01*
Y371467D01*
X587412D01*
Y367923D01*
D02*
G37*
G36*
X558669Y367923D02*
X556306D01*
Y371466D01*
X558669D01*
Y367923D01*
D02*
G37*
G36*
X553550D02*
X551188D01*
Y371466D01*
X553550D01*
Y367923D01*
D02*
G37*
G36*
X548531D02*
X546169D01*
Y371466D01*
X548531D01*
Y367923D01*
D02*
G37*
G36*
X543413D02*
X541050D01*
Y371466D01*
X543413D01*
Y367923D01*
D02*
G37*
G36*
X372200Y365583D02*
X369326D01*
Y368418D01*
X372200D01*
Y365583D01*
D02*
G37*
G36*
X368421Y365544D02*
X365586D01*
Y368418D01*
X368421D01*
Y365544D01*
D02*
G37*
G36*
X372200Y361803D02*
X369365D01*
Y364677D01*
X372200D01*
Y361803D01*
D02*
G37*
G36*
X368460D02*
X365586D01*
Y364638D01*
X368460D01*
Y361803D01*
D02*
G37*
G36*
X312559Y279842D02*
X309685D01*
Y282677D01*
X312559D01*
Y279842D01*
D02*
G37*
G36*
X308780Y279803D02*
X305945D01*
Y282677D01*
X308780D01*
Y279803D01*
D02*
G37*
G36*
X246783Y279742D02*
X243909D01*
Y282576D01*
X246783D01*
Y279742D01*
D02*
G37*
G36*
X243003Y279702D02*
X240169D01*
Y282576D01*
X243003D01*
Y279702D01*
D02*
G37*
G36*
X312559Y276063D02*
X309724D01*
Y278937D01*
X312559D01*
Y276063D01*
D02*
G37*
G36*
X308819D02*
X305945D01*
Y278898D01*
X308819D01*
Y276063D01*
D02*
G37*
G36*
X246783Y275962D02*
X243948D01*
Y278836D01*
X246783D01*
Y275962D01*
D02*
G37*
G36*
X243043D02*
X240169D01*
Y278797D01*
X243043D01*
Y275962D01*
D02*
G37*
G54D39*
X389035Y420653D02*
D03*
X399035D02*
D03*
X379035D02*
D03*
X399035Y396653D02*
D03*
X379035D02*
D03*
X389035D02*
D03*
X303000Y352053D02*
D03*
X293000D02*
D03*
X265700Y396653D02*
D03*
X255700D02*
D03*
X275700D02*
D03*
X357800D02*
D03*
X337800D02*
D03*
X347800D02*
D03*
X316750D02*
D03*
X296750D02*
D03*
X306750D02*
D03*
X337800Y420653D02*
D03*
X357800D02*
D03*
X347800D02*
D03*
X296750D02*
D03*
X316750D02*
D03*
X306750D02*
D03*
X255700D02*
D03*
X275700D02*
D03*
X265700D02*
D03*
X334500Y352053D02*
D03*
X324500D02*
D03*
X271300D02*
D03*
X261300D02*
D03*
G54D40*
X436024Y308898D02*
D03*
Y328898D02*
D03*
Y318898D02*
D03*
Y350472D02*
D03*
Y370472D02*
D03*
Y360472D02*
D03*
X459842Y328898D02*
D03*
Y308898D02*
D03*
Y318898D02*
D03*
Y370374D02*
D03*
Y350374D02*
D03*
Y360374D02*
D03*
G54D41*
X645016Y173525D02*
D03*
X651905D02*
D03*
X648461D02*
D03*
X645291Y182698D02*
D03*
X647220Y178210D02*
D03*
X651098D02*
D03*
X648598Y182698D02*
D03*
X651905D02*
D03*
X656709D02*
D03*
X660016D02*
D03*
X657516Y178210D02*
D03*
X661394D02*
D03*
X663323Y182698D02*
D03*
X660153Y173525D02*
D03*
X656709D02*
D03*
X663598D02*
D03*
X661807Y168210D02*
D03*
X656807D02*
D03*
X651807D02*
D03*
X646807D02*
D03*
X645016Y145572D02*
D03*
X651905D02*
D03*
X648461D02*
D03*
X645291Y154746D02*
D03*
X647220Y150257D02*
D03*
X651098D02*
D03*
X648598Y154746D02*
D03*
X651905D02*
D03*
X656709D02*
D03*
X660016D02*
D03*
X657516Y150257D02*
D03*
X661394D02*
D03*
X663323Y154746D02*
D03*
X660153Y145572D02*
D03*
X656709D02*
D03*
X663598D02*
D03*
X661807Y140258D02*
D03*
X656807D02*
D03*
X651807D02*
D03*
X646807D02*
D03*
X609558Y168210D02*
D03*
X614558D02*
D03*
X619558D02*
D03*
X624558D02*
D03*
X626350Y173525D02*
D03*
X619460D02*
D03*
X622905D02*
D03*
X626074Y182698D02*
D03*
X624145Y178210D02*
D03*
X620267D02*
D03*
X622767Y182698D02*
D03*
X619460D02*
D03*
X614657D02*
D03*
X611350D02*
D03*
X613850Y178210D02*
D03*
X609972D02*
D03*
X608042Y182698D02*
D03*
X611212Y173525D02*
D03*
X614657D02*
D03*
X607767D02*
D03*
X607767Y145572D02*
D03*
X614657D02*
D03*
X611212D02*
D03*
X608042Y154746D02*
D03*
X609972Y150257D02*
D03*
X613850D02*
D03*
X611350Y154746D02*
D03*
X614657D02*
D03*
X619460D02*
D03*
X622767D02*
D03*
X620267Y150257D02*
D03*
X624145D02*
D03*
X626074Y154746D02*
D03*
X622905Y145572D02*
D03*
X619460D02*
D03*
X626350D02*
D03*
X624558Y140258D02*
D03*
X619558D02*
D03*
X614558D02*
D03*
X609558D02*
D03*
X563716Y173525D02*
D03*
X570606D02*
D03*
X567161D02*
D03*
X563991Y182698D02*
D03*
X565920Y178210D02*
D03*
X569798D02*
D03*
X567298Y182698D02*
D03*
X570606D02*
D03*
X575409D02*
D03*
X578716D02*
D03*
X576216Y178210D02*
D03*
X580094D02*
D03*
X582023Y182698D02*
D03*
X578854Y173525D02*
D03*
X575409D02*
D03*
X582298D02*
D03*
X580507Y168210D02*
D03*
X575507D02*
D03*
X570507D02*
D03*
X565507D02*
D03*
X526467Y173525D02*
D03*
X533357D02*
D03*
X529912D02*
D03*
X526743Y182698D02*
D03*
X528672Y178210D02*
D03*
X532550D02*
D03*
X530050Y182698D02*
D03*
X533357D02*
D03*
X538160D02*
D03*
X541467D02*
D03*
X538967Y178210D02*
D03*
X542845D02*
D03*
X544774Y182698D02*
D03*
X541605Y173525D02*
D03*
X538160D02*
D03*
X545050D02*
D03*
X543258Y168210D02*
D03*
X538258D02*
D03*
X533258D02*
D03*
X528258D02*
D03*
X526467Y145572D02*
D03*
X533357D02*
D03*
X529912D02*
D03*
X526743Y154746D02*
D03*
X528672Y150257D02*
D03*
X532550D02*
D03*
X530050Y154746D02*
D03*
X533357D02*
D03*
X538160D02*
D03*
X541467D02*
D03*
X538967Y150257D02*
D03*
X542845D02*
D03*
X544774Y154746D02*
D03*
X541605Y145572D02*
D03*
X538160D02*
D03*
X545050D02*
D03*
X543258Y140258D02*
D03*
X538258D02*
D03*
X533258D02*
D03*
X528258D02*
D03*
X400360Y173228D02*
D03*
X407250D02*
D03*
X403805D02*
D03*
X400636Y182401D02*
D03*
X402565Y177912D02*
D03*
X406443D02*
D03*
X403943Y182401D02*
D03*
X407250D02*
D03*
X412053D02*
D03*
X415360D02*
D03*
X412860Y177912D02*
D03*
X416738D02*
D03*
X418667Y182401D02*
D03*
X415498Y173228D02*
D03*
X412053D02*
D03*
X418943D02*
D03*
X417151Y167912D02*
D03*
X412151D02*
D03*
X407152D02*
D03*
X402151D02*
D03*
X445167Y173525D02*
D03*
X452057D02*
D03*
X448612D02*
D03*
X445442Y182698D02*
D03*
X447372Y178210D02*
D03*
X451250D02*
D03*
X448750Y182698D02*
D03*
X452057D02*
D03*
X456860D02*
D03*
X460167D02*
D03*
X457667Y178210D02*
D03*
X461545D02*
D03*
X463474Y182698D02*
D03*
X460305Y173525D02*
D03*
X456860D02*
D03*
X463750D02*
D03*
X461958Y168210D02*
D03*
X456958D02*
D03*
X451958D02*
D03*
X446958D02*
D03*
X482416Y173525D02*
D03*
X489305D02*
D03*
X485861D02*
D03*
X482691Y182698D02*
D03*
X484620Y178210D02*
D03*
X488498D02*
D03*
X485998Y182698D02*
D03*
X489305D02*
D03*
X494109D02*
D03*
X497416D02*
D03*
X494916Y178210D02*
D03*
X498794D02*
D03*
X500723Y182698D02*
D03*
X497553Y173525D02*
D03*
X494109D02*
D03*
X500998D02*
D03*
X499207Y168210D02*
D03*
X494207D02*
D03*
X489207D02*
D03*
X484207D02*
D03*
X482416Y145572D02*
D03*
X489305D02*
D03*
X485861D02*
D03*
X482691Y154746D02*
D03*
X484620Y150257D02*
D03*
X488498D02*
D03*
X485998Y154746D02*
D03*
X489305D02*
D03*
X494109D02*
D03*
X497416D02*
D03*
X494916Y150257D02*
D03*
X498794D02*
D03*
X500723Y154746D02*
D03*
X497553Y145572D02*
D03*
X494109D02*
D03*
X500998D02*
D03*
X499207Y140258D02*
D03*
X494207D02*
D03*
X489207D02*
D03*
X484207D02*
D03*
X445167Y145572D02*
D03*
X452057D02*
D03*
X448612D02*
D03*
X445442Y154746D02*
D03*
X447372Y150257D02*
D03*
X451250D02*
D03*
X448750Y154746D02*
D03*
X452057D02*
D03*
X456860D02*
D03*
X460167D02*
D03*
X457667Y150257D02*
D03*
X461545D02*
D03*
X463474Y154746D02*
D03*
X460305Y145572D02*
D03*
X456860D02*
D03*
X463750D02*
D03*
X461958Y140258D02*
D03*
X456958D02*
D03*
X451958D02*
D03*
X446958D02*
D03*
X363111Y173228D02*
D03*
X370001D02*
D03*
X366556D02*
D03*
X363387Y182401D02*
D03*
X365316Y177912D02*
D03*
X369194D02*
D03*
X366694Y182401D02*
D03*
X370001D02*
D03*
X374804D02*
D03*
X378111D02*
D03*
X375611Y177912D02*
D03*
X379489D02*
D03*
X381418Y182401D02*
D03*
X378249Y173228D02*
D03*
X374804D02*
D03*
X381694D02*
D03*
X379903Y167912D02*
D03*
X374903D02*
D03*
X369903D02*
D03*
X364903D02*
D03*
X363111Y145275D02*
D03*
X370001D02*
D03*
X366556D02*
D03*
X363387Y154448D02*
D03*
X365316Y149960D02*
D03*
X369194D02*
D03*
X366694Y154448D02*
D03*
X370001D02*
D03*
X374804D02*
D03*
X378111D02*
D03*
X375611Y149960D02*
D03*
X379489D02*
D03*
X381418Y154448D02*
D03*
X378249Y145275D02*
D03*
X374804D02*
D03*
X381694D02*
D03*
X379903Y139960D02*
D03*
X374903D02*
D03*
X369903D02*
D03*
X364903D02*
D03*
X400360Y145275D02*
D03*
X407250D02*
D03*
X403805D02*
D03*
X400636Y154448D02*
D03*
X402565Y149960D02*
D03*
X406443D02*
D03*
X403943Y154448D02*
D03*
X407250D02*
D03*
X412053D02*
D03*
X415360D02*
D03*
X412860Y149960D02*
D03*
X416738D02*
D03*
X418667Y154448D02*
D03*
X415498Y145275D02*
D03*
X412053D02*
D03*
X418943D02*
D03*
X417151Y139960D02*
D03*
X412151D02*
D03*
X407152D02*
D03*
X402151D02*
D03*
X281584Y173525D02*
D03*
X288474D02*
D03*
X285029D02*
D03*
X281860Y182698D02*
D03*
X283789Y178210D02*
D03*
X287667D02*
D03*
X285167Y182698D02*
D03*
X288474D02*
D03*
X293277D02*
D03*
X296584D02*
D03*
X294084Y178210D02*
D03*
X297962D02*
D03*
X299891Y182698D02*
D03*
X296722Y173525D02*
D03*
X293277D02*
D03*
X300167D02*
D03*
X298376Y168210D02*
D03*
X293376D02*
D03*
X288376D02*
D03*
X283376D02*
D03*
X318833Y145572D02*
D03*
X325723D02*
D03*
X322278D02*
D03*
X319109Y154746D02*
D03*
X321038Y150257D02*
D03*
X324916D02*
D03*
X322416Y154746D02*
D03*
X325723D02*
D03*
X330526D02*
D03*
X333833D02*
D03*
X331333Y150257D02*
D03*
X335211D02*
D03*
X337140Y154746D02*
D03*
X333971Y145572D02*
D03*
X330526D02*
D03*
X337416D02*
D03*
X335624Y140258D02*
D03*
X330624D02*
D03*
X325624D02*
D03*
X320624D02*
D03*
X318833Y173525D02*
D03*
X325723D02*
D03*
X322278D02*
D03*
X319109Y182698D02*
D03*
X321038Y178210D02*
D03*
X324916D02*
D03*
X322416Y182698D02*
D03*
X325723D02*
D03*
X330526D02*
D03*
X333833D02*
D03*
X331333Y178210D02*
D03*
X335211D02*
D03*
X337140Y182698D02*
D03*
X333971Y173525D02*
D03*
X330526D02*
D03*
X337416D02*
D03*
X335624Y168210D02*
D03*
X330624D02*
D03*
X325624D02*
D03*
X320624D02*
D03*
X236777Y173621D02*
D03*
X243667D02*
D03*
X240222D02*
D03*
X237053Y182794D02*
D03*
X238982Y178306D02*
D03*
X242860D02*
D03*
X240360Y182794D02*
D03*
X243667D02*
D03*
X248470D02*
D03*
X251778D02*
D03*
X249277Y178306D02*
D03*
X253155D02*
D03*
X255085Y182794D02*
D03*
X251915Y173621D02*
D03*
X248470D02*
D03*
X255360D02*
D03*
X253569Y168306D02*
D03*
X248569D02*
D03*
X243569D02*
D03*
X238569D02*
D03*
X281584Y145572D02*
D03*
X288474D02*
D03*
X285029D02*
D03*
X281860Y154746D02*
D03*
X283789Y150257D02*
D03*
X287667D02*
D03*
X285167Y154746D02*
D03*
X288474D02*
D03*
X293277D02*
D03*
X296584D02*
D03*
X294084Y150257D02*
D03*
X297962D02*
D03*
X299891Y154746D02*
D03*
X296722Y145572D02*
D03*
X293277D02*
D03*
X300167D02*
D03*
X298376Y140258D02*
D03*
X293376D02*
D03*
X288376D02*
D03*
X283376D02*
D03*
X236777Y145668D02*
D03*
X243667D02*
D03*
X240222D02*
D03*
X237053Y154842D02*
D03*
X238982Y150353D02*
D03*
X242860D02*
D03*
X240360Y154842D02*
D03*
X243667D02*
D03*
X248470D02*
D03*
X251778D02*
D03*
X249277Y150353D02*
D03*
X253155D02*
D03*
X255085Y154842D02*
D03*
X251915Y145668D02*
D03*
X248470D02*
D03*
X255360D02*
D03*
X253569Y140353D02*
D03*
X248569D02*
D03*
X243569D02*
D03*
X238569D02*
D03*
X199529Y173621D02*
D03*
X206418D02*
D03*
X202974D02*
D03*
X199804Y182794D02*
D03*
X201733Y178306D02*
D03*
X205611D02*
D03*
X203111Y182794D02*
D03*
X206418D02*
D03*
X211222D02*
D03*
X214529D02*
D03*
X212029Y178306D02*
D03*
X215907D02*
D03*
X217836Y182794D02*
D03*
X214667Y173621D02*
D03*
X211222D02*
D03*
X218111D02*
D03*
X216320Y168306D02*
D03*
X211320D02*
D03*
X206320D02*
D03*
X201320D02*
D03*
X199529Y145668D02*
D03*
X206418D02*
D03*
X202974D02*
D03*
X199804Y154842D02*
D03*
X201733Y150353D02*
D03*
X205611D02*
D03*
X203111Y154842D02*
D03*
X206418D02*
D03*
X211222D02*
D03*
X214529D02*
D03*
X212029Y150353D02*
D03*
X215907D02*
D03*
X217836Y154842D02*
D03*
X214667Y145668D02*
D03*
X211222D02*
D03*
X218111D02*
D03*
X216320Y140353D02*
D03*
X211320D02*
D03*
X206320D02*
D03*
X201320D02*
D03*
X155250Y173525D02*
D03*
X162140D02*
D03*
X158695D02*
D03*
X155526Y182698D02*
D03*
X157455Y178210D02*
D03*
X161333D02*
D03*
X158833Y182698D02*
D03*
X162140D02*
D03*
X166943D02*
D03*
X170250D02*
D03*
X167750Y178210D02*
D03*
X171628D02*
D03*
X173557Y182698D02*
D03*
X170388Y173525D02*
D03*
X166943D02*
D03*
X173833D02*
D03*
X172042Y168210D02*
D03*
X167042D02*
D03*
X162042D02*
D03*
X157042D02*
D03*
X118001Y173525D02*
D03*
X124891D02*
D03*
X121446D02*
D03*
X118277Y182698D02*
D03*
X120206Y178210D02*
D03*
X124084D02*
D03*
X121584Y182698D02*
D03*
X124891D02*
D03*
X129694D02*
D03*
X133001D02*
D03*
X130501Y178210D02*
D03*
X134379D02*
D03*
X136309Y182698D02*
D03*
X133139Y173525D02*
D03*
X129694D02*
D03*
X136584D02*
D03*
X134793Y168210D02*
D03*
X129793D02*
D03*
X124793D02*
D03*
X119793D02*
D03*
X118001Y145572D02*
D03*
X124891D02*
D03*
X121446D02*
D03*
X118277Y154746D02*
D03*
X120206Y150257D02*
D03*
X124084D02*
D03*
X121584Y154746D02*
D03*
X124891D02*
D03*
X129694D02*
D03*
X133001D02*
D03*
X130502Y150257D02*
D03*
X134379D02*
D03*
X136309Y154746D02*
D03*
X133139Y145572D02*
D03*
X129694D02*
D03*
X136584D02*
D03*
X134793Y140258D02*
D03*
X129793D02*
D03*
X124793D02*
D03*
X119793D02*
D03*
X155250Y145572D02*
D03*
X162140D02*
D03*
X158695D02*
D03*
X155526Y154746D02*
D03*
X157455Y150257D02*
D03*
X161333D02*
D03*
X158833Y154746D02*
D03*
X162140D02*
D03*
X166943D02*
D03*
X170250D02*
D03*
X167750Y150257D02*
D03*
X171628D02*
D03*
X173557Y154746D02*
D03*
X170388Y145572D02*
D03*
X166943D02*
D03*
X173833D02*
D03*
X172042Y140258D02*
D03*
X167042D02*
D03*
X162042D02*
D03*
X157042D02*
D03*
X563716Y145572D02*
D03*
X570606D02*
D03*
X567161D02*
D03*
X563991Y154746D02*
D03*
X565920Y150257D02*
D03*
X569798D02*
D03*
X567298Y154746D02*
D03*
X570606D02*
D03*
X575409D02*
D03*
X578716D02*
D03*
X576216Y150257D02*
D03*
X580094D02*
D03*
X582023Y154746D02*
D03*
X578854Y145572D02*
D03*
X575409D02*
D03*
X582298D02*
D03*
X580507Y140258D02*
D03*
X575507D02*
D03*
X570507D02*
D03*
X565507D02*
D03*
X36210Y173525D02*
D03*
X43100D02*
D03*
X39655D02*
D03*
X36486Y182698D02*
D03*
X38415Y178210D02*
D03*
X42293D02*
D03*
X39793Y182698D02*
D03*
X43100D02*
D03*
X47903D02*
D03*
X51210D02*
D03*
X48710Y178210D02*
D03*
X52588D02*
D03*
X54517Y182698D02*
D03*
X51348Y173525D02*
D03*
X47903D02*
D03*
X54793D02*
D03*
X53002Y168210D02*
D03*
X48002D02*
D03*
X43002D02*
D03*
X38002D02*
D03*
X73459Y173525D02*
D03*
X80349D02*
D03*
X76904D02*
D03*
X73735Y182698D02*
D03*
X75664Y178210D02*
D03*
X79542D02*
D03*
X77042Y182698D02*
D03*
X80349D02*
D03*
X85152D02*
D03*
X88459D02*
D03*
X85959Y178210D02*
D03*
X89837D02*
D03*
X91766Y182698D02*
D03*
X88597Y173525D02*
D03*
X85152D02*
D03*
X92042D02*
D03*
X90250Y168210D02*
D03*
X85250D02*
D03*
X80250D02*
D03*
X75250D02*
D03*
X73459Y145572D02*
D03*
X80349D02*
D03*
X76904D02*
D03*
X73735Y154746D02*
D03*
X75664Y150258D02*
D03*
X79542D02*
D03*
X77042Y154746D02*
D03*
X80349D02*
D03*
X85152D02*
D03*
X88459D02*
D03*
X85959Y150258D02*
D03*
X89837D02*
D03*
X91766Y154746D02*
D03*
X88597Y145572D02*
D03*
X85152D02*
D03*
X92042D02*
D03*
X90250Y140258D02*
D03*
X85250D02*
D03*
X80250D02*
D03*
X75250D02*
D03*
X36210Y145572D02*
D03*
X43100D02*
D03*
X39655D02*
D03*
X36486Y154746D02*
D03*
X38415Y150257D02*
D03*
X42293D02*
D03*
X39793Y154746D02*
D03*
X43100D02*
D03*
X47903D02*
D03*
X51210D02*
D03*
X48710Y150257D02*
D03*
X52588D02*
D03*
X54517Y154746D02*
D03*
X51348Y145572D02*
D03*
X47903D02*
D03*
X54793D02*
D03*
X53001Y140258D02*
D03*
X48002D02*
D03*
X43001D02*
D03*
X38001D02*
D03*
G54D42*
X461225Y460059D02*
D03*
Y462818D02*
D03*
G54D43*
X46627Y428002D02*
D03*
X46627Y426034D02*
D03*
X46627Y424065D02*
D03*
X43971Y424065D02*
D03*
X43971Y426034D02*
D03*
X43971Y428002D02*
D03*
G54D44*
X371409Y261750D02*
D03*
X367619D02*
D03*
X337252Y367150D02*
D03*
X333462D02*
D03*
X337232Y371088D02*
D03*
X333442D02*
D03*
X333472Y374926D02*
D03*
X337262D02*
D03*
X317652Y366801D02*
D03*
X321442D02*
D03*
X319762Y378969D02*
D03*
X323552D02*
D03*
X306346Y366798D02*
D03*
X310136D02*
D03*
X306384Y379575D02*
D03*
X310174D02*
D03*
X301385Y379612D02*
D03*
X297595D02*
D03*
X301031Y367150D02*
D03*
X297242D02*
D03*
X284587Y367267D02*
D03*
X288376D02*
D03*
X284599Y379641D02*
D03*
X288389D02*
D03*
X269440Y366671D02*
D03*
X273230D02*
D03*
X259286Y366355D02*
D03*
X263075D02*
D03*
X267458Y379512D02*
D03*
X271248D02*
D03*
X259598Y379269D02*
D03*
X263388D02*
D03*
X266469Y476526D02*
D03*
X262729D02*
D03*
X276141Y440391D02*
D03*
X272351D02*
D03*
X304169Y476526D02*
D03*
X300429D02*
D03*
X313841Y440391D02*
D03*
X310051D02*
D03*
X341868Y476526D02*
D03*
X338128D02*
D03*
X351541Y440391D02*
D03*
X347751D02*
D03*
X379568Y476526D02*
D03*
X375828D02*
D03*
X417268D02*
D03*
X413528D02*
D03*
X426940Y440391D02*
D03*
X423151D02*
D03*
X386026Y355943D02*
D03*
X382236D02*
D03*
X357246Y376693D02*
D03*
X361035D02*
D03*
X401857Y380930D02*
D03*
X398067D02*
D03*
X389067Y380929D02*
D03*
X392857D02*
D03*
X392492Y377005D02*
D03*
X396232D02*
D03*
X386026Y366277D02*
D03*
X382236D02*
D03*
X379529Y375726D02*
D03*
X375740D02*
D03*
X430120Y385470D02*
D03*
X426330D02*
D03*
X385927Y322872D02*
D03*
X382137D02*
D03*
X386026Y312913D02*
D03*
X382236D02*
D03*
X466773Y388718D02*
D03*
X470563D02*
D03*
X470573Y384486D02*
D03*
X466783D02*
D03*
X481665Y337832D02*
D03*
X477925D02*
D03*
X481709Y333698D02*
D03*
X477919D02*
D03*
X477910Y320411D02*
D03*
X481700D02*
D03*
X477910Y316375D02*
D03*
X481700D02*
D03*
X682946Y117007D02*
D03*
X686686D02*
D03*
X694248Y104420D02*
D03*
X698038D02*
D03*
X694148Y108817D02*
D03*
X697938D02*
D03*
X690070Y108661D02*
D03*
X686280D02*
D03*
X686266Y104519D02*
D03*
X690056D02*
D03*
X600709Y211222D02*
D03*
X604499D02*
D03*
X648957Y211253D02*
D03*
X652746D02*
D03*
X665746Y211153D02*
D03*
X661957D02*
D03*
X641457Y189053D02*
D03*
X637667D02*
D03*
X560157D02*
D03*
X556367D02*
D03*
X518819Y190848D02*
D03*
X522609D02*
D03*
X600119D02*
D03*
X603909D02*
D03*
X617423Y211124D02*
D03*
X613633D02*
D03*
X640228Y263622D02*
D03*
X644017D02*
D03*
X607925Y263919D02*
D03*
X604135D02*
D03*
X567657Y211253D02*
D03*
X571447D02*
D03*
X584446Y211153D02*
D03*
X580657D02*
D03*
X558927Y263622D02*
D03*
X562717D02*
D03*
X526625Y263919D02*
D03*
X522835D02*
D03*
X445325D02*
D03*
X441535D02*
D03*
X477628Y263622D02*
D03*
X481417D02*
D03*
X536123Y211124D02*
D03*
X532333D02*
D03*
X519409Y211222D02*
D03*
X523199D02*
D03*
X322774Y211253D02*
D03*
X326564D02*
D03*
X503147Y211153D02*
D03*
X499357D02*
D03*
X486357Y211253D02*
D03*
X490146D02*
D03*
X454823Y211124D02*
D03*
X451033D02*
D03*
X438109Y211222D02*
D03*
X441899D02*
D03*
X437519Y190848D02*
D03*
X441309D02*
D03*
X478857Y189053D02*
D03*
X475067D02*
D03*
X404301Y210955D02*
D03*
X408091D02*
D03*
X421091Y210855D02*
D03*
X417301D02*
D03*
X286586Y277596D02*
D03*
X290326D02*
D03*
X274136Y278679D02*
D03*
X270346D02*
D03*
X264637Y278875D02*
D03*
X260897D02*
D03*
X272511Y274840D02*
D03*
X268771D02*
D03*
X395572Y263324D02*
D03*
X399362D02*
D03*
X343839Y262084D02*
D03*
X340049D02*
D03*
X340159Y258003D02*
D03*
X343948D02*
D03*
X372767Y210826D02*
D03*
X368977D02*
D03*
X356054Y210924D02*
D03*
X359844D02*
D03*
X396801Y188755D02*
D03*
X393011D02*
D03*
X355463Y190550D02*
D03*
X359253D02*
D03*
X273936Y190848D02*
D03*
X277726D02*
D03*
X315274Y189053D02*
D03*
X311484D02*
D03*
X339564Y211153D02*
D03*
X335774D02*
D03*
X314045Y263622D02*
D03*
X317835D02*
D03*
X286092Y262047D02*
D03*
X289882D02*
D03*
X262176Y262382D02*
D03*
X258386D02*
D03*
X258631Y258300D02*
D03*
X262421D02*
D03*
X304148Y267781D02*
D03*
X307938D02*
D03*
X274527Y211222D02*
D03*
X278316D02*
D03*
X291240Y211124D02*
D03*
X287450D02*
D03*
X239834Y301710D02*
D03*
X236094D02*
D03*
X231832Y308009D02*
D03*
X235622D02*
D03*
X231832Y312143D02*
D03*
X235622D02*
D03*
X230582Y324348D02*
D03*
X234322D02*
D03*
X231989Y263718D02*
D03*
X235779D02*
D03*
X209185Y211220D02*
D03*
X205395D02*
D03*
X192471Y211318D02*
D03*
X196261D02*
D03*
X257508Y211249D02*
D03*
X253718D02*
D03*
X240718Y211349D02*
D03*
X244508D02*
D03*
X233218Y189149D02*
D03*
X229429D02*
D03*
X191881Y190944D02*
D03*
X195670D02*
D03*
X204037Y262143D02*
D03*
X207826D02*
D03*
X176576Y258396D02*
D03*
X180366D02*
D03*
X180120Y262478D02*
D03*
X176330D02*
D03*
X150462Y263622D02*
D03*
X154252D02*
D03*
X125127Y281240D02*
D03*
X121337D02*
D03*
X118160Y263919D02*
D03*
X114370D02*
D03*
X159191Y211253D02*
D03*
X162981D02*
D03*
X175981Y211153D02*
D03*
X172191D02*
D03*
X127657Y211124D02*
D03*
X123868D02*
D03*
X110944Y211222D02*
D03*
X114734D02*
D03*
X151691Y189053D02*
D03*
X147901D02*
D03*
X110354Y190848D02*
D03*
X114143D02*
D03*
X68671Y263622D02*
D03*
X72461D02*
D03*
X32568Y263919D02*
D03*
X36358D02*
D03*
X29153Y211222D02*
D03*
X32943D02*
D03*
X42076Y211124D02*
D03*
X45866D02*
D03*
X90400Y211153D02*
D03*
X94190D02*
D03*
X81190Y211253D02*
D03*
X77400D02*
D03*
X66110Y189053D02*
D03*
X69900D02*
D03*
X32352Y190848D02*
D03*
X28562D02*
D03*
X726080Y116461D02*
D03*
X729820D02*
D03*
X385451Y440391D02*
D03*
X389241D02*
D03*
X64817Y399528D02*
D03*
X61028D02*
D03*
X607946Y249353D02*
D03*
X604157D02*
D03*
X611921Y254827D02*
D03*
X608132D02*
D03*
X604173Y245551D02*
D03*
X607912D02*
D03*
X526647Y249353D02*
D03*
X522857D02*
D03*
X530721Y255122D02*
D03*
X526931D02*
D03*
X522872Y245551D02*
D03*
X526612D02*
D03*
X445346Y249353D02*
D03*
X441557D02*
D03*
X449421Y255122D02*
D03*
X445632D02*
D03*
X441573Y245551D02*
D03*
X445312D02*
D03*
X363291Y249055D02*
D03*
X359501D02*
D03*
X367728Y254039D02*
D03*
X363938D02*
D03*
X359517Y245253D02*
D03*
X363257D02*
D03*
X281764Y249353D02*
D03*
X277974D02*
D03*
X285347Y255417D02*
D03*
X281557D02*
D03*
X277990Y245551D02*
D03*
X281730D02*
D03*
X199708Y249449D02*
D03*
X195919D02*
D03*
X203457Y255319D02*
D03*
X199667D02*
D03*
X195934Y245647D02*
D03*
X199674D02*
D03*
X118181Y249353D02*
D03*
X114391D02*
D03*
X122158Y255024D02*
D03*
X118368D02*
D03*
X114407Y245551D02*
D03*
X118147D02*
D03*
X481763Y309092D02*
D03*
X477974D02*
D03*
X478200Y349250D02*
D03*
X481990D02*
D03*
X570609Y350529D02*
D03*
X566819D02*
D03*
X538870Y343639D02*
D03*
X535080D02*
D03*
X509244Y345214D02*
D03*
X505454D02*
D03*
X133976Y281260D02*
D03*
X130187D02*
D03*
X40513Y260929D02*
D03*
X44303D02*
D03*
X32600Y249353D02*
D03*
X36390D02*
D03*
X95972Y296895D02*
D03*
X92183D02*
D03*
X151839Y327013D02*
D03*
X155628D02*
D03*
X121661Y297443D02*
D03*
X117871D02*
D03*
X710450Y104881D02*
D03*
X714239D02*
D03*
X722050Y104781D02*
D03*
X718260D02*
D03*
X722039Y109181D02*
D03*
X718250D02*
D03*
X714250Y109081D02*
D03*
X710460D02*
D03*
X570654Y509638D02*
D03*
X566864D02*
D03*
X138491Y348951D02*
D03*
X134702D02*
D03*
X14868Y266221D02*
D03*
X18658D02*
D03*
X137800Y369001D02*
D03*
X134010D02*
D03*
X90800Y401153D02*
D03*
X94590D02*
D03*
X104000D02*
D03*
X100210D02*
D03*
X277463Y334092D02*
D03*
X273673D02*
D03*
X138305Y341166D02*
D03*
X142095D02*
D03*
X36000Y354201D02*
D03*
X39790D02*
D03*
X36000Y350101D02*
D03*
X39790D02*
D03*
X35101Y326501D02*
D03*
X38891D02*
D03*
X38900Y314301D02*
D03*
X35110D02*
D03*
X38900Y318301D02*
D03*
X35110D02*
D03*
X54314Y465347D02*
D03*
X58104D02*
D03*
X54316Y469453D02*
D03*
X58105D02*
D03*
X537856Y391983D02*
D03*
X534066D02*
D03*
X58133Y473443D02*
D03*
X54343D02*
D03*
X64100Y423053D02*
D03*
X67890D02*
D03*
X64100Y427453D02*
D03*
X67890D02*
D03*
X119600Y424753D02*
D03*
X123390D02*
D03*
X119500Y419253D02*
D03*
X123290D02*
D03*
X130600Y400053D02*
D03*
X126810D02*
D03*
X412896Y339013D02*
D03*
X409106D02*
D03*
X442805Y431979D02*
D03*
X439015D02*
D03*
X420249Y417798D02*
D03*
X416460D02*
D03*
X14269Y306619D02*
D03*
X18059D02*
D03*
X420249Y422523D02*
D03*
X416460D02*
D03*
X188300Y446990D02*
D03*
X192090D02*
D03*
X182900Y446890D02*
D03*
X179110D02*
D03*
X267452Y323623D02*
D03*
X263662D02*
D03*
X286967Y323646D02*
D03*
X283177D02*
D03*
X40156Y447167D02*
D03*
X36366D02*
D03*
X55314Y450017D02*
D03*
X59104D02*
D03*
X561314Y511803D02*
D03*
X557524D02*
D03*
X557235Y507771D02*
D03*
X553445D02*
D03*
G54D45*
X635716Y75323D02*
D03*
Y125283D02*
D03*
X554564Y75323D02*
D03*
Y125283D02*
D03*
X473148Y75323D02*
D03*
Y125283D02*
D03*
X391302Y75323D02*
D03*
Y125283D02*
D03*
X309535Y75323D02*
D03*
Y125283D02*
D03*
X227651Y75323D02*
D03*
Y125283D02*
D03*
X146281Y75323D02*
D03*
Y125283D02*
D03*
X64350Y75323D02*
D03*
Y125283D02*
D03*
G54D46*
X620004Y338261D02*
D03*
X640476D02*
D03*
X612360Y417431D02*
D03*
X632832D02*
D03*
G54D47*
X342252Y374434D02*
D03*
X348945D02*
D03*
X349043Y379749D02*
D03*
X342350D02*
D03*
X476448Y329368D02*
D03*
X483141D02*
D03*
X476448Y324742D02*
D03*
X483141D02*
D03*
X662865Y263425D02*
D03*
X656173D02*
D03*
X608543Y259588D02*
D03*
X601850D02*
D03*
X581914Y259861D02*
D03*
X588606D02*
D03*
X520550Y259588D02*
D03*
X527243D02*
D03*
X439250D02*
D03*
X445943D02*
D03*
X500719Y261242D02*
D03*
X507412D02*
D03*
X418466Y263104D02*
D03*
X425158D02*
D03*
X334815Y265785D02*
D03*
X328122D02*
D03*
X352059Y255614D02*
D03*
X358752D02*
D03*
X357571Y260437D02*
D03*
X364264D02*
D03*
X346921Y264249D02*
D03*
X353614D02*
D03*
X275484Y260634D02*
D03*
X282177D02*
D03*
X270563Y255909D02*
D03*
X277256D02*
D03*
X265394Y264744D02*
D03*
X272087D02*
D03*
X252528Y265094D02*
D03*
X245835D02*
D03*
X183338Y264643D02*
D03*
X190031D02*
D03*
X193496Y260535D02*
D03*
X200189D02*
D03*
X188515Y255844D02*
D03*
X195208D02*
D03*
X164354Y264388D02*
D03*
X171046D02*
D03*
X112085Y259588D02*
D03*
X118778D02*
D03*
X91730Y263232D02*
D03*
X98423D02*
D03*
X30294Y259588D02*
D03*
X36987D02*
D03*
G54D48*
X337262Y378863D02*
D03*
X333492D02*
D03*
X323539Y374827D02*
D03*
X319770D02*
D03*
X306408Y375342D02*
D03*
X310178D02*
D03*
X297214Y371302D02*
D03*
X300984D02*
D03*
X284601Y375507D02*
D03*
X288371D02*
D03*
X259421Y370772D02*
D03*
X263191D02*
D03*
X268181Y375529D02*
D03*
X271951D02*
D03*
X483195Y458951D02*
D03*
X479425D02*
D03*
X137170Y345109D02*
D03*
X133400D02*
D03*
X32630Y245453D02*
D03*
X36400D02*
D03*
X593694Y329390D02*
D03*
X597464D02*
D03*
X19415Y233527D02*
D03*
X15645D02*
D03*
X213566Y461553D02*
D03*
X209796D02*
D03*
X140370Y407353D02*
D03*
X136600D02*
D03*
X64200Y442353D02*
D03*
X67970D02*
D03*
X137370Y361201D02*
D03*
X133600D02*
D03*
X197900Y429401D02*
D03*
X201670D02*
D03*
X138270Y365101D02*
D03*
X134500D02*
D03*
X161600Y428553D02*
D03*
X157830D02*
D03*
X483249Y405948D02*
D03*
X479479D02*
D03*
X522607Y393775D02*
D03*
X526377D02*
D03*
X570362Y394050D02*
D03*
X566592D02*
D03*
X432757Y411679D02*
D03*
X436526D02*
D03*
X195304Y479297D02*
D03*
X191534D02*
D03*
X57906Y320201D02*
D03*
X54136D02*
D03*
X574739Y509638D02*
D03*
X578509D02*
D03*
X553509Y503831D02*
D03*
X557279D02*
D03*
X588578Y509441D02*
D03*
X584808D02*
D03*
G54D49*
X321822Y370706D02*
D03*
X325366D02*
D03*
X314047Y370903D02*
D03*
X310503D02*
D03*
X297708Y375431D02*
D03*
X294165D02*
D03*
X292098Y371395D02*
D03*
X288555D02*
D03*
X270740Y370706D02*
D03*
X274283D02*
D03*
X264047Y375234D02*
D03*
X260504D02*
D03*
X393742Y436573D02*
D03*
X397285D02*
D03*
X65244Y320320D02*
D03*
X61701D02*
D03*
X72232Y298765D02*
D03*
X68689D02*
D03*
X39372Y345994D02*
D03*
X35828D02*
D03*
X35028Y330501D02*
D03*
X38572D02*
D03*
Y306230D02*
D03*
X35028D02*
D03*
Y322401D02*
D03*
X38572D02*
D03*
Y310301D02*
D03*
X35028D02*
D03*
X353374Y357543D02*
D03*
X349831D02*
D03*
Y361677D02*
D03*
X353374D02*
D03*
X25750Y306806D02*
D03*
X22207D02*
D03*
X35828Y358201D02*
D03*
X39372D02*
D03*
G54D50*
X314004Y377288D02*
D03*
Y380044D02*
D03*
X277783Y377485D02*
D03*
Y380241D02*
D03*
X412373Y393866D02*
D03*
Y391110D02*
D03*
X391606Y337537D02*
D03*
Y340293D02*
D03*
X282846Y283698D02*
D03*
Y286454D02*
D03*
X114161Y295221D02*
D03*
Y297977D02*
D03*
X110913Y295221D02*
D03*
Y297977D02*
D03*
X99496Y295320D02*
D03*
Y298076D02*
D03*
X242012Y430127D02*
D03*
Y427372D02*
D03*
G54D51*
X278079Y371383D02*
D03*
Y367839D02*
D03*
X384421Y380155D02*
D03*
Y376612D02*
D03*
X106496Y297972D02*
D03*
Y294429D02*
D03*
G54D52*
X213400Y431411D02*
D03*
Y435201D02*
D03*
X221000Y436391D02*
D03*
Y432601D02*
D03*
X217300Y433111D02*
D03*
Y436901D02*
D03*
X209400Y433591D02*
D03*
Y429801D02*
D03*
X237472Y416454D02*
D03*
Y420244D02*
D03*
X251633Y457094D02*
D03*
Y460883D02*
D03*
X280999Y473056D02*
D03*
Y476796D02*
D03*
X318699Y473056D02*
D03*
Y476796D02*
D03*
X356398Y473056D02*
D03*
Y476796D02*
D03*
X394098Y473056D02*
D03*
Y476796D02*
D03*
X431798Y473056D02*
D03*
Y476796D02*
D03*
X473647Y472061D02*
D03*
Y475851D02*
D03*
X477695Y472051D02*
D03*
Y475841D02*
D03*
X483547Y472061D02*
D03*
Y475851D02*
D03*
X404401Y345564D02*
D03*
Y349354D02*
D03*
X408830Y345608D02*
D03*
Y349348D02*
D03*
X414834Y349378D02*
D03*
Y345588D02*
D03*
X418870Y345578D02*
D03*
Y349368D02*
D03*
X371272Y349318D02*
D03*
Y353108D02*
D03*
X357775Y362062D02*
D03*
Y358272D02*
D03*
X357649Y370017D02*
D03*
Y366277D02*
D03*
X422708Y400529D02*
D03*
Y404269D02*
D03*
X418377Y400499D02*
D03*
Y404289D02*
D03*
X414047Y404299D02*
D03*
Y400509D02*
D03*
X416657Y302126D02*
D03*
Y305916D02*
D03*
X411627Y305926D02*
D03*
Y302136D02*
D03*
X396144Y302126D02*
D03*
Y305916D02*
D03*
X388555Y305844D02*
D03*
Y302104D02*
D03*
X452925Y383865D02*
D03*
Y387655D02*
D03*
X448692Y383895D02*
D03*
Y387635D02*
D03*
X682398Y95273D02*
D03*
Y91483D02*
D03*
X667657Y164753D02*
D03*
Y168543D02*
D03*
X637857Y196853D02*
D03*
Y193063D02*
D03*
X641457Y167853D02*
D03*
Y164063D02*
D03*
X629957Y164053D02*
D03*
Y167843D02*
D03*
X603692Y186843D02*
D03*
Y183053D02*
D03*
X603389Y164253D02*
D03*
Y160463D02*
D03*
X586357Y164753D02*
D03*
Y168543D02*
D03*
X556557Y196853D02*
D03*
Y193063D02*
D03*
X560157Y167853D02*
D03*
Y164063D02*
D03*
X548657Y164053D02*
D03*
Y167843D02*
D03*
X522089Y164253D02*
D03*
Y160463D02*
D03*
X522392Y186843D02*
D03*
Y183053D02*
D03*
X625247Y267253D02*
D03*
Y271042D02*
D03*
X616684Y270996D02*
D03*
Y267206D02*
D03*
X535384Y270996D02*
D03*
Y267206D02*
D03*
X462647Y267253D02*
D03*
Y271042D02*
D03*
X454084Y270996D02*
D03*
Y267206D02*
D03*
X515031Y273924D02*
D03*
Y277714D02*
D03*
X441092Y186843D02*
D03*
Y183053D02*
D03*
X505057Y164753D02*
D03*
Y168543D02*
D03*
X475257Y196853D02*
D03*
Y193063D02*
D03*
X478857Y167853D02*
D03*
Y164063D02*
D03*
X467357Y164053D02*
D03*
Y167843D02*
D03*
X440789Y164253D02*
D03*
Y160463D02*
D03*
X298425Y282391D02*
D03*
Y286181D02*
D03*
X294460Y282419D02*
D03*
Y286159D02*
D03*
X298425Y272037D02*
D03*
Y275827D02*
D03*
X294362Y275824D02*
D03*
Y272084D02*
D03*
X282452Y278709D02*
D03*
Y274919D02*
D03*
X278318Y278709D02*
D03*
Y274919D02*
D03*
X269066Y286779D02*
D03*
Y282990D02*
D03*
X264834Y286732D02*
D03*
Y282992D02*
D03*
X321232Y281306D02*
D03*
Y285096D02*
D03*
X325366Y281336D02*
D03*
Y285076D02*
D03*
X324873Y276809D02*
D03*
Y273068D02*
D03*
X423001Y164455D02*
D03*
Y168245D02*
D03*
X393201Y196555D02*
D03*
Y192765D02*
D03*
X359036Y186545D02*
D03*
Y182755D02*
D03*
X396801Y167555D02*
D03*
Y163765D02*
D03*
X385301Y163755D02*
D03*
Y167545D02*
D03*
X358734Y163955D02*
D03*
Y160165D02*
D03*
X277509Y186843D02*
D03*
Y183053D02*
D03*
X311674Y196853D02*
D03*
Y193063D02*
D03*
X315274Y167853D02*
D03*
Y164063D02*
D03*
X303774Y164053D02*
D03*
Y167843D02*
D03*
X341474Y164753D02*
D03*
Y168543D02*
D03*
X255090Y271494D02*
D03*
Y275234D02*
D03*
X231862Y296641D02*
D03*
Y300431D02*
D03*
X239933Y309584D02*
D03*
Y313324D02*
D03*
X232748Y273068D02*
D03*
Y276809D02*
D03*
X229618Y196949D02*
D03*
Y193159D02*
D03*
X277207Y164253D02*
D03*
Y160463D02*
D03*
X259418Y164849D02*
D03*
Y168639D02*
D03*
X233218Y167949D02*
D03*
Y164159D02*
D03*
X221718Y164149D02*
D03*
Y167938D02*
D03*
X195454Y186938D02*
D03*
Y183149D02*
D03*
X195151Y164349D02*
D03*
Y160559D02*
D03*
X135482Y267253D02*
D03*
Y271042D02*
D03*
X126919Y270996D02*
D03*
Y267206D02*
D03*
X148091Y196853D02*
D03*
Y193063D02*
D03*
X113927Y186843D02*
D03*
Y183053D02*
D03*
X177891Y164753D02*
D03*
Y168543D02*
D03*
X151691Y167853D02*
D03*
Y164063D02*
D03*
X140191Y164053D02*
D03*
Y167843D02*
D03*
X113624Y164253D02*
D03*
Y160463D02*
D03*
X543947Y267253D02*
D03*
Y271042D02*
D03*
X99775Y257941D02*
D03*
Y254151D02*
D03*
X53690Y267253D02*
D03*
Y271042D02*
D03*
X45127Y270996D02*
D03*
Y267206D02*
D03*
X96100Y168543D02*
D03*
Y164753D02*
D03*
X66300Y193063D02*
D03*
Y196853D02*
D03*
X69900Y164063D02*
D03*
Y167853D02*
D03*
X58400Y167843D02*
D03*
Y164053D02*
D03*
X32135Y183053D02*
D03*
Y186843D02*
D03*
X31833Y160463D02*
D03*
Y164253D02*
D03*
X129500Y415363D02*
D03*
Y419153D02*
D03*
X672019Y461332D02*
D03*
Y457542D02*
D03*
X181976Y328469D02*
D03*
Y332259D02*
D03*
X707750Y96181D02*
D03*
Y92391D02*
D03*
X225100Y435091D02*
D03*
Y431301D02*
D03*
X52016Y308144D02*
D03*
Y311934D02*
D03*
X60567Y306253D02*
D03*
Y310043D02*
D03*
X176779Y328676D02*
D03*
Y332466D02*
D03*
X64433Y306253D02*
D03*
Y310043D02*
D03*
X68300Y306253D02*
D03*
Y310043D02*
D03*
X56700Y310053D02*
D03*
Y306263D02*
D03*
X167803Y332161D02*
D03*
Y328371D02*
D03*
X291683Y326939D02*
D03*
Y323149D02*
D03*
X229893Y332252D02*
D03*
Y328462D02*
D03*
X236881Y335303D02*
D03*
Y331513D02*
D03*
X231763Y320047D02*
D03*
Y316257D02*
D03*
X443476Y411091D02*
D03*
Y407301D02*
D03*
X493769Y398788D02*
D03*
Y402578D02*
D03*
Y394813D02*
D03*
Y391023D02*
D03*
X136000Y411353D02*
D03*
Y415143D02*
D03*
X129500Y424653D02*
D03*
Y428443D02*
D03*
X629748Y457197D02*
D03*
Y460987D02*
D03*
X580811Y388950D02*
D03*
Y392740D02*
D03*
X536810Y385143D02*
D03*
Y381353D02*
D03*
X580911Y385150D02*
D03*
Y381360D02*
D03*
X629548Y453197D02*
D03*
Y449407D02*
D03*
X202452Y465044D02*
D03*
Y461254D02*
D03*
X177409Y437043D02*
D03*
Y433253D02*
D03*
X271652Y328165D02*
D03*
Y324375D02*
D03*
X291661Y334602D02*
D03*
Y330812D02*
D03*
X52016Y298794D02*
D03*
Y302584D02*
D03*
X22567Y445432D02*
D03*
Y449221D02*
D03*
X592635Y497471D02*
D03*
Y501261D02*
D03*
Y505271D02*
D03*
Y509061D02*
D03*
G54D53*
X451181Y535433D02*
D03*
Y527559D02*
D03*
X456693Y522047D02*
D03*
X464567D02*
D03*
X470079Y527559D02*
D03*
Y535433D02*
D03*
X464567Y540945D02*
D03*
X456693D02*
D03*
X340945Y23622D02*
D03*
Y15748D02*
D03*
X346457Y10236D02*
D03*
X354331D02*
D03*
X359842Y15748D02*
D03*
Y23622D02*
D03*
X354331Y29134D02*
D03*
X346457D02*
D03*
X737795Y15748D02*
D03*
Y23622D02*
D03*
X732283Y29134D02*
D03*
X724409D02*
D03*
X718898Y23622D02*
D03*
Y15748D02*
D03*
X724409Y10236D02*
D03*
X732283D02*
D03*
X29134Y15748D02*
D03*
Y23622D02*
D03*
X23622Y29134D02*
D03*
X15748D02*
D03*
X10236Y23622D02*
D03*
Y15748D02*
D03*
X15748Y10236D02*
D03*
X23622D02*
D03*
X29134Y527559D02*
D03*
Y535433D02*
D03*
X23622Y540945D02*
D03*
X15748D02*
D03*
X10236Y535433D02*
D03*
Y527559D02*
D03*
X15748Y522047D02*
D03*
X23622D02*
D03*
X737795Y527559D02*
D03*
Y535433D02*
D03*
X732283Y540945D02*
D03*
X724409D02*
D03*
X718898Y535433D02*
D03*
Y527559D02*
D03*
X724409Y522047D02*
D03*
X732283D02*
D03*
G54D54*
X261844Y472646D02*
D03*
X264599D02*
D03*
X256259Y442557D02*
D03*
X259015D02*
D03*
X299543Y472646D02*
D03*
X302299D02*
D03*
X293959Y442557D02*
D03*
X296715D02*
D03*
X337243Y472646D02*
D03*
X339999D02*
D03*
X331659Y442557D02*
D03*
X334415D02*
D03*
X341732Y435950D02*
D03*
X344488D02*
D03*
X369359Y442557D02*
D03*
X372115D02*
D03*
X374943Y472646D02*
D03*
X377699D02*
D03*
X412643D02*
D03*
X415399D02*
D03*
X352750Y338423D02*
D03*
X349994D02*
D03*
X624903Y274744D02*
D03*
X627659D02*
D03*
X607876Y273858D02*
D03*
X605120D02*
D03*
X607580Y267756D02*
D03*
X604824D02*
D03*
X526576Y273858D02*
D03*
X523820D02*
D03*
X523524Y267756D02*
D03*
X526280D02*
D03*
X462303Y274744D02*
D03*
X465059D02*
D03*
X445276Y273858D02*
D03*
X442520D02*
D03*
X442224Y267756D02*
D03*
X444980D02*
D03*
X306370Y289604D02*
D03*
X309125D02*
D03*
X358555Y265260D02*
D03*
X361311D02*
D03*
X344342Y265824D02*
D03*
X341586D02*
D03*
X348555Y254072D02*
D03*
X345799D02*
D03*
X276378Y264508D02*
D03*
X279134D02*
D03*
X262815Y266122D02*
D03*
X260059D02*
D03*
X267027Y254370D02*
D03*
X264272D02*
D03*
X245149Y289604D02*
D03*
X247905D02*
D03*
X194382Y264866D02*
D03*
X197138D02*
D03*
X184972Y254466D02*
D03*
X182216D02*
D03*
X180759Y266218D02*
D03*
X178004D02*
D03*
X135138Y274744D02*
D03*
X137894D02*
D03*
X118110Y273858D02*
D03*
X115354D02*
D03*
X115059Y267756D02*
D03*
X117815D02*
D03*
X543603Y274744D02*
D03*
X546359D02*
D03*
X53346D02*
D03*
X56102D02*
D03*
X36319Y273858D02*
D03*
X33563D02*
D03*
X33268Y267756D02*
D03*
X36024D02*
D03*
X248791Y300234D02*
D03*
X246035D02*
D03*
X409815Y442557D02*
D03*
X407059D02*
D03*
X629972Y260238D02*
D03*
X632727D02*
D03*
X548672D02*
D03*
X551428D02*
D03*
X467372D02*
D03*
X470127D02*
D03*
X385316Y259940D02*
D03*
X388072D02*
D03*
X303789Y260238D02*
D03*
X306545D02*
D03*
X221733Y260334D02*
D03*
X224489D02*
D03*
X140206Y260238D02*
D03*
X142962D02*
D03*
X385602Y435864D02*
D03*
X382846D02*
D03*
X58415Y260238D02*
D03*
X61171D02*
D03*
X89370Y292657D02*
D03*
X92126D02*
D03*
X298130Y435359D02*
D03*
X300886D02*
D03*
X353445Y380354D02*
D03*
X356201D02*
D03*
G54D55*
X251633Y446789D02*
D03*
Y453482D02*
D03*
X289626Y442754D02*
D03*
Y449446D02*
D03*
X327519Y441671D02*
D03*
Y448364D02*
D03*
X364921Y442458D02*
D03*
Y449151D02*
D03*
X402421Y442754D02*
D03*
Y449446D02*
D03*
X399972Y350135D02*
D03*
Y343443D02*
D03*
X394854Y343443D02*
D03*
Y350135D02*
D03*
X406814Y307419D02*
D03*
Y300726D02*
D03*
X401686Y300726D02*
D03*
Y307419D02*
D03*
X457551Y389702D02*
D03*
Y383009D02*
D03*
X462177Y383009D02*
D03*
Y389702D02*
D03*
X620917Y272836D02*
D03*
Y266143D02*
D03*
X612354Y272836D02*
D03*
Y266143D02*
D03*
X539616Y272836D02*
D03*
Y266143D02*
D03*
X531053Y272836D02*
D03*
Y266143D02*
D03*
X458317Y272836D02*
D03*
Y266143D02*
D03*
X449754Y272836D02*
D03*
Y266143D02*
D03*
X131151Y272836D02*
D03*
Y266143D02*
D03*
X122588Y272836D02*
D03*
Y266143D02*
D03*
X49360Y272836D02*
D03*
Y266143D02*
D03*
X40797Y272836D02*
D03*
Y266143D02*
D03*
X33633Y285470D02*
D03*
Y292163D02*
D03*
X287452Y333947D02*
D03*
Y327254D02*
D03*
X282152Y327254D02*
D03*
Y333947D02*
D03*
X262252Y327528D02*
D03*
Y334221D02*
D03*
X267652Y334121D02*
D03*
Y327428D02*
D03*
G54D56*
X263444Y445626D02*
D03*
X266003D02*
D03*
X268563D02*
D03*
X271122D02*
D03*
X273681D02*
D03*
X276240D02*
D03*
X278799D02*
D03*
X263444Y468067D02*
D03*
X266003D02*
D03*
X268563D02*
D03*
X271122D02*
D03*
X273681D02*
D03*
X276240D02*
D03*
X278799D02*
D03*
X301144Y445626D02*
D03*
X303703D02*
D03*
X306262D02*
D03*
X308821D02*
D03*
X311380D02*
D03*
X313939D02*
D03*
X316498D02*
D03*
X301144Y468067D02*
D03*
X303703D02*
D03*
X306262D02*
D03*
X308821D02*
D03*
X311380D02*
D03*
X313939D02*
D03*
X316498D02*
D03*
X338844Y445626D02*
D03*
X341403D02*
D03*
X343962D02*
D03*
X346521D02*
D03*
X349080D02*
D03*
X351639D02*
D03*
X354198D02*
D03*
X338844Y468067D02*
D03*
X341403D02*
D03*
X343962D02*
D03*
X346521D02*
D03*
X349080D02*
D03*
X351639D02*
D03*
X354198D02*
D03*
X376544Y445626D02*
D03*
X379103D02*
D03*
X381662D02*
D03*
X384221D02*
D03*
X386780D02*
D03*
X389339D02*
D03*
X391898D02*
D03*
X376544Y468067D02*
D03*
X379103D02*
D03*
X381662D02*
D03*
X384221D02*
D03*
X386780D02*
D03*
X389339D02*
D03*
X391898D02*
D03*
X414244Y445626D02*
D03*
X416803D02*
D03*
X419362D02*
D03*
X421921D02*
D03*
X424480D02*
D03*
X427039D02*
D03*
X429598D02*
D03*
X414244Y468067D02*
D03*
X416803D02*
D03*
X419362D02*
D03*
X421921D02*
D03*
X424480D02*
D03*
X427039D02*
D03*
X429598D02*
D03*
G54D57*
X276358Y476226D02*
D03*
X271003D02*
D03*
X314058D02*
D03*
X308703D02*
D03*
X351757D02*
D03*
X346403D02*
D03*
X389457D02*
D03*
X384103D02*
D03*
X427157D02*
D03*
X421803D02*
D03*
X438437Y384486D02*
D03*
X443791D02*
D03*
X482964Y304072D02*
D03*
X477610D02*
D03*
X681983Y122389D02*
D03*
X687337D02*
D03*
X616507Y217718D02*
D03*
X611153D02*
D03*
X649780Y217653D02*
D03*
X655134D02*
D03*
X568479D02*
D03*
X573834D02*
D03*
X535207Y217718D02*
D03*
X529853D02*
D03*
X453907D02*
D03*
X448553D02*
D03*
X323597Y217653D02*
D03*
X328951D02*
D03*
X487180D02*
D03*
X492534D02*
D03*
X405124Y217355D02*
D03*
X410478D02*
D03*
X371851Y217420D02*
D03*
X366497D02*
D03*
X290324Y217718D02*
D03*
X284970D02*
D03*
X208269Y217814D02*
D03*
X202915D02*
D03*
X241541Y217749D02*
D03*
X246896D02*
D03*
X126742Y217718D02*
D03*
X121387D02*
D03*
X160014Y217653D02*
D03*
X165368D02*
D03*
X39596Y217718D02*
D03*
X44950D02*
D03*
X83577Y217653D02*
D03*
X78223D02*
D03*
X602983Y233368D02*
D03*
X608338D02*
D03*
X663554Y231891D02*
D03*
X658200D02*
D03*
X602885Y239864D02*
D03*
X608239D02*
D03*
X663554Y237403D02*
D03*
X658200D02*
D03*
X521683Y233368D02*
D03*
X527038D02*
D03*
X582254Y231891D02*
D03*
X576900D02*
D03*
X521585Y239864D02*
D03*
X526939D02*
D03*
X582254Y237403D02*
D03*
X576900D02*
D03*
X440383Y233368D02*
D03*
X445738D02*
D03*
X500954Y231891D02*
D03*
X495600D02*
D03*
X440285Y239864D02*
D03*
X445639D02*
D03*
X500954Y237403D02*
D03*
X495600D02*
D03*
X358328Y233070D02*
D03*
X363682D02*
D03*
X418899Y231594D02*
D03*
X413544D02*
D03*
X358229Y239566D02*
D03*
X363584D02*
D03*
X418899Y237105D02*
D03*
X413544D02*
D03*
X276801Y233368D02*
D03*
X282155D02*
D03*
X337372Y231891D02*
D03*
X332017D02*
D03*
X276702Y239864D02*
D03*
X282057D02*
D03*
X337372Y237403D02*
D03*
X332017D02*
D03*
X194745Y233464D02*
D03*
X200100D02*
D03*
X255316Y231987D02*
D03*
X249962D02*
D03*
X194647Y239960D02*
D03*
X200001D02*
D03*
X255316Y237499D02*
D03*
X249962D02*
D03*
X113218Y233368D02*
D03*
X118572D02*
D03*
X173789Y231891D02*
D03*
X168435D02*
D03*
X113120Y239864D02*
D03*
X118474D02*
D03*
X173789Y237403D02*
D03*
X168435D02*
D03*
X86643D02*
D03*
X91998D02*
D03*
X36683Y239864D02*
D03*
X31328D02*
D03*
X86643Y231891D02*
D03*
X91998D02*
D03*
X36781Y233368D02*
D03*
X31427D02*
D03*
X108077Y409253D02*
D03*
X102723D02*
D03*
Y459853D02*
D03*
X108077D02*
D03*
X162889Y433508D02*
D03*
X157534D02*
D03*
X122471Y400701D02*
D03*
X117117D02*
D03*
X592917Y324178D02*
D03*
X598272D02*
D03*
X730315Y121531D02*
D03*
X724961D02*
D03*
X503141Y356809D02*
D03*
X497787D02*
D03*
X532925Y348462D02*
D03*
X538279D02*
D03*
G54D58*
X481295Y465651D02*
D03*
G54D59*
X485036Y462698D02*
D03*
X477555Y468604D02*
D03*
Y466635D02*
D03*
Y464667D02*
D03*
Y462698D02*
D03*
X485036Y468604D02*
D03*
Y466635D02*
D03*
Y464667D02*
D03*
G54D60*
X488695Y458381D02*
D03*
Y462151D02*
D03*
X516630Y426273D02*
D03*
Y430043D02*
D03*
X455087Y455874D02*
D03*
Y459644D02*
D03*
X455187Y463804D02*
D03*
Y467574D02*
D03*
X467387Y459674D02*
D03*
Y463444D02*
D03*
X257652Y327505D02*
D03*
Y331275D02*
D03*
X140200Y415053D02*
D03*
Y411283D02*
D03*
X147132Y335120D02*
D03*
Y331350D02*
D03*
X68000Y452223D02*
D03*
Y448453D02*
D03*
X118600Y447953D02*
D03*
Y451723D02*
D03*
X139400Y377271D02*
D03*
Y373501D02*
D03*
X139900Y391901D02*
D03*
Y388131D02*
D03*
X236708Y376853D02*
D03*
Y380623D02*
D03*
X222900Y328301D02*
D03*
Y332071D02*
D03*
X139900Y395701D02*
D03*
Y399471D02*
D03*
X216400Y331923D02*
D03*
Y328153D02*
D03*
X239933Y367133D02*
D03*
Y370903D02*
D03*
X205600Y429131D02*
D03*
Y432901D02*
D03*
X137626Y331786D02*
D03*
Y335556D02*
D03*
X47400Y362553D02*
D03*
Y366323D02*
D03*
X614718Y391975D02*
D03*
Y395745D02*
D03*
X122736Y451732D02*
D03*
Y447962D02*
D03*
X610647Y452817D02*
D03*
Y456588D02*
D03*
X151240Y335114D02*
D03*
Y331344D02*
D03*
X56960Y407248D02*
D03*
Y411018D02*
D03*
X56966Y403208D02*
D03*
Y399439D02*
D03*
X277952Y328001D02*
D03*
Y324231D02*
D03*
X72200Y305983D02*
D03*
Y309753D02*
D03*
X290526Y318643D02*
D03*
Y314873D02*
D03*
X592977Y487689D02*
D03*
Y491459D02*
D03*
X561235Y503771D02*
D03*
Y507541D02*
D03*
G54D61*
X485709Y450457D02*
D03*
X492796D02*
D03*
G54D62*
X505212Y416472D02*
D03*
Y421827D02*
D03*
X510912Y416472D02*
D03*
Y421827D02*
D03*
X516730Y421820D02*
D03*
Y416465D02*
D03*
X418771Y332301D02*
D03*
Y337655D02*
D03*
X478811Y353954D02*
D03*
Y359309D02*
D03*
X554872Y206576D02*
D03*
Y211931D02*
D03*
X549262Y206576D02*
D03*
Y211931D02*
D03*
X636172Y206576D02*
D03*
Y211931D02*
D03*
X630562Y206576D02*
D03*
Y211931D02*
D03*
X668257Y177176D02*
D03*
Y182530D02*
D03*
X640557Y176676D02*
D03*
Y182030D02*
D03*
X630757Y177476D02*
D03*
Y182830D02*
D03*
X603200Y171551D02*
D03*
Y176906D02*
D03*
X586957Y177176D02*
D03*
Y182530D02*
D03*
X559257Y176676D02*
D03*
Y182030D02*
D03*
X549457Y177476D02*
D03*
Y182830D02*
D03*
X521900Y171551D02*
D03*
Y176906D02*
D03*
X309990Y206576D02*
D03*
Y211931D02*
D03*
X304380Y206576D02*
D03*
Y211931D02*
D03*
X473572Y206576D02*
D03*
Y211931D02*
D03*
X467962Y206576D02*
D03*
Y211931D02*
D03*
X505657Y177176D02*
D03*
Y182530D02*
D03*
X477957Y176676D02*
D03*
Y182030D02*
D03*
X468157Y177476D02*
D03*
Y182830D02*
D03*
X440600Y171551D02*
D03*
Y176906D02*
D03*
X391517Y206279D02*
D03*
Y211633D02*
D03*
X385907Y206279D02*
D03*
Y211633D02*
D03*
X423601Y176878D02*
D03*
Y182232D02*
D03*
X395901Y176378D02*
D03*
Y181732D02*
D03*
X386101Y177178D02*
D03*
Y182532D02*
D03*
X358544Y171254D02*
D03*
Y176608D02*
D03*
X277017Y171551D02*
D03*
Y176906D02*
D03*
X314374Y176676D02*
D03*
Y182030D02*
D03*
X304574Y177476D02*
D03*
Y182830D02*
D03*
X342074Y177176D02*
D03*
Y182530D02*
D03*
X227934Y206672D02*
D03*
Y212027D02*
D03*
X222324Y206672D02*
D03*
Y212027D02*
D03*
X260018Y177271D02*
D03*
Y182626D02*
D03*
X232318Y176771D02*
D03*
Y182126D02*
D03*
X222518Y177571D02*
D03*
Y182926D02*
D03*
X194962Y171647D02*
D03*
Y177001D02*
D03*
X146407Y206576D02*
D03*
Y211931D02*
D03*
X140797Y206576D02*
D03*
Y211931D02*
D03*
X150791Y176676D02*
D03*
Y182030D02*
D03*
X140991Y177476D02*
D03*
Y182830D02*
D03*
X113435Y171551D02*
D03*
Y176906D02*
D03*
X178491Y177176D02*
D03*
Y182530D02*
D03*
X64616Y211931D02*
D03*
Y206576D02*
D03*
X59005Y211931D02*
D03*
Y206576D02*
D03*
X96700Y182530D02*
D03*
Y177176D02*
D03*
X69000Y182030D02*
D03*
Y176676D02*
D03*
X59200Y177476D02*
D03*
Y182830D02*
D03*
X31643Y176906D02*
D03*
Y171551D02*
D03*
X620100Y390106D02*
D03*
Y395460D02*
D03*
X608318Y222915D02*
D03*
Y228269D02*
D03*
X527018Y222915D02*
D03*
Y228269D02*
D03*
X445718Y222915D02*
D03*
Y228269D02*
D03*
X363663Y222617D02*
D03*
Y227972D02*
D03*
X282135Y222915D02*
D03*
Y228269D02*
D03*
X200080Y223011D02*
D03*
Y228365D02*
D03*
X118553Y222915D02*
D03*
Y228269D02*
D03*
X36761Y222915D02*
D03*
Y228269D02*
D03*
X557005Y475760D02*
D03*
Y481114D02*
D03*
X142300Y337078D02*
D03*
Y331724D02*
D03*
X138287Y452938D02*
D03*
Y458292D02*
D03*
X164798Y455922D02*
D03*
Y461277D02*
D03*
X35900Y340378D02*
D03*
Y335024D02*
D03*
X134600Y388878D02*
D03*
Y383524D02*
D03*
X561980Y344210D02*
D03*
Y349565D02*
D03*
X676547Y457355D02*
D03*
Y462709D02*
D03*
X134600Y378778D02*
D03*
Y373424D02*
D03*
G54D63*
X523196Y418923D02*
D03*
Y430734D02*
D03*
G54D64*
X523983Y424828D02*
D03*
G54D65*
X362473Y362158D02*
D03*
Y368063D02*
D03*
X375313D02*
D03*
Y362158D02*
D03*
X315672Y283307D02*
D03*
Y281339D02*
D03*
Y279370D02*
D03*
Y277402D02*
D03*
Y275433D02*
D03*
X302832D02*
D03*
Y277402D02*
D03*
Y279370D02*
D03*
Y281339D02*
D03*
Y283307D02*
D03*
X249896Y283206D02*
D03*
Y281238D02*
D03*
Y279269D02*
D03*
Y277301D02*
D03*
Y275332D02*
D03*
X237056D02*
D03*
Y277301D02*
D03*
Y279269D02*
D03*
Y281238D02*
D03*
Y283206D02*
D03*
X430456Y417751D02*
D03*
Y419720D02*
D03*
Y421688D02*
D03*
Y423657D02*
D03*
Y425625D02*
D03*
X443251D02*
D03*
Y423657D02*
D03*
Y421688D02*
D03*
Y419720D02*
D03*
Y417751D02*
D03*
G54D66*
X364956Y371531D02*
D03*
X366924D02*
D03*
X368893D02*
D03*
X370862D02*
D03*
X372830D02*
D03*
Y358691D02*
D03*
X370862D02*
D03*
X368893D02*
D03*
X366924D02*
D03*
X364956D02*
D03*
X306299Y285790D02*
D03*
X312205D02*
D03*
Y272950D02*
D03*
X306299D02*
D03*
X240523Y285689D02*
D03*
X246429D02*
D03*
Y272849D02*
D03*
X240523D02*
D03*
X439806Y415290D02*
D03*
X433901D02*
D03*
Y428086D02*
D03*
X439806D02*
D03*
G54D67*
X413706Y356029D02*
D03*
Y361029D02*
D03*
Y371029D02*
D03*
X391979Y356029D02*
D03*
Y361029D02*
D03*
Y371029D02*
D03*
X413706Y366029D02*
D03*
X391979D02*
D03*
X391732Y322913D02*
D03*
X413459D02*
D03*
X391732Y327913D02*
D03*
Y317913D02*
D03*
Y312913D02*
D03*
X413459Y327913D02*
D03*
Y317913D02*
D03*
Y312913D02*
D03*
G54D68*
X418673Y387242D02*
D03*
Y378908D02*
D03*
X675464Y468300D02*
D03*
Y476634D02*
D03*
G54D69*
X404992Y334289D02*
D03*
X413326D02*
D03*
X484741Y344433D02*
D03*
X476407D02*
D03*
X476579Y298462D02*
D03*
X484913D02*
D03*
X513850Y345706D02*
D03*
X522184D02*
D03*
X5767Y455829D02*
D03*
X14101D02*
D03*
Y443629D02*
D03*
X5767D02*
D03*
Y449729D02*
D03*
X14101D02*
D03*
X577696Y345216D02*
D03*
X569362D02*
D03*
X544095D02*
D03*
X552428D02*
D03*
G54D70*
X639054Y397693D02*
D03*
Y381919D02*
D03*
X605436Y31724D02*
D03*
Y47498D02*
D03*
X525018Y31646D02*
D03*
Y47420D02*
D03*
X443976Y32893D02*
D03*
Y48667D02*
D03*
X350454Y147520D02*
D03*
Y131746D02*
D03*
X360984Y38900D02*
D03*
Y54674D02*
D03*
X280800Y32947D02*
D03*
Y48721D02*
D03*
X199134Y32635D02*
D03*
Y48409D02*
D03*
X116532Y33674D02*
D03*
Y49448D02*
D03*
X489112Y372950D02*
D03*
Y357176D02*
D03*
X575511Y356976D02*
D03*
Y372750D02*
D03*
X531412Y372550D02*
D03*
Y356776D02*
D03*
G54D71*
X680452Y139705D02*
D03*
X696226D02*
D03*
X675892Y36347D02*
D03*
X660118D02*
D03*
X675892Y50543D02*
D03*
X660118D02*
D03*
X578218Y54131D02*
D03*
X593992D02*
D03*
Y29639D02*
D03*
X578218D02*
D03*
X593992Y41807D02*
D03*
X578218D02*
D03*
X496864Y54053D02*
D03*
X512638D02*
D03*
Y29483D02*
D03*
X496864D02*
D03*
X512638Y41417D02*
D03*
X496864D02*
D03*
X414964Y54911D02*
D03*
X430738D02*
D03*
Y30234D02*
D03*
X414964D02*
D03*
X430738Y42245D02*
D03*
X414964D02*
D03*
X349306Y41651D02*
D03*
X333532D02*
D03*
X349306Y53741D02*
D03*
X333532D02*
D03*
X252620Y53976D02*
D03*
X268394D02*
D03*
Y29743D02*
D03*
X252620D02*
D03*
X268394Y41730D02*
D03*
X252620D02*
D03*
X170330Y55121D02*
D03*
X186104D02*
D03*
X185974Y29640D02*
D03*
X170200D02*
D03*
X186052Y42276D02*
D03*
X170278D02*
D03*
X90458Y53664D02*
D03*
X106232D02*
D03*
X106258Y29718D02*
D03*
X90484D02*
D03*
X106258Y41652D02*
D03*
X90484D02*
D03*
X21818Y56237D02*
D03*
X37592D02*
D03*
X21818Y44069D02*
D03*
X37592D02*
D03*
X656452Y333035D02*
D03*
X672226D02*
D03*
X731950Y139705D02*
D03*
X716176D02*
D03*
X661068Y449107D02*
D03*
X676842D02*
D03*
G54D72*
X680827Y129565D02*
D03*
X691457D02*
D03*
X657531Y225198D02*
D03*
X668161D02*
D03*
X576231D02*
D03*
X586861D02*
D03*
X494931D02*
D03*
X505561D02*
D03*
X412875Y224901D02*
D03*
X423505D02*
D03*
X331348Y225198D02*
D03*
X341978D02*
D03*
X249292Y225294D02*
D03*
X259922D02*
D03*
X167765Y225198D02*
D03*
X178395D02*
D03*
X85974D02*
D03*
X96604D02*
D03*
X588597Y309557D02*
D03*
X599030D02*
D03*
X731528Y129331D02*
D03*
X721095D02*
D03*
G54D73*
X695576Y88604D02*
D03*
X688096D02*
D03*
Y99234D02*
D03*
X691836D02*
D03*
X695576D02*
D03*
X720690Y99296D02*
D03*
X716950D02*
D03*
X713209D02*
D03*
Y88666D02*
D03*
X720690D02*
D03*
G54D74*
X667368Y201084D02*
D03*
X643746D02*
D03*
X624361D02*
D03*
X600739D02*
D03*
X586068D02*
D03*
X562446D02*
D03*
X519439D02*
D03*
X543061D02*
D03*
X341185D02*
D03*
X317563D02*
D03*
X504768D02*
D03*
X481146D02*
D03*
X438139D02*
D03*
X461761D02*
D03*
X422712Y200786D02*
D03*
X399090D02*
D03*
X356084D02*
D03*
X379706D02*
D03*
X274557Y201084D02*
D03*
X298179D02*
D03*
X259130Y201180D02*
D03*
X235507D02*
D03*
X192501D02*
D03*
X216123D02*
D03*
X110974Y201084D02*
D03*
X134596D02*
D03*
X177602D02*
D03*
X153980D02*
D03*
X52805D02*
D03*
X29183D02*
D03*
X72189D02*
D03*
X95811D02*
D03*
G54D75*
X646807Y190533D02*
D03*
X651807D02*
D03*
X656807D02*
D03*
X661807D02*
D03*
X646807Y162580D02*
D03*
X651807D02*
D03*
X656807D02*
D03*
X661807D02*
D03*
X624558Y190533D02*
D03*
X619558D02*
D03*
X614558D02*
D03*
X609558D02*
D03*
Y162580D02*
D03*
X614558D02*
D03*
X619558D02*
D03*
X624558D02*
D03*
X565507Y190533D02*
D03*
X570507D02*
D03*
X575507D02*
D03*
X580507D02*
D03*
X528258D02*
D03*
X533258D02*
D03*
X538258D02*
D03*
X543258D02*
D03*
X528258Y162580D02*
D03*
X533258D02*
D03*
X538258D02*
D03*
X543258D02*
D03*
X402151Y190235D02*
D03*
X407152D02*
D03*
X412151D02*
D03*
X417151D02*
D03*
X446958Y190533D02*
D03*
X451958D02*
D03*
X456958D02*
D03*
X461958D02*
D03*
X484207D02*
D03*
X489207D02*
D03*
X494207D02*
D03*
X499207D02*
D03*
X484207Y162580D02*
D03*
X489207D02*
D03*
X494207D02*
D03*
X499207D02*
D03*
X446958D02*
D03*
X451958D02*
D03*
X456958D02*
D03*
X461958D02*
D03*
X364903Y190235D02*
D03*
X369903D02*
D03*
X374903D02*
D03*
X379903D02*
D03*
X364903Y162283D02*
D03*
X369903D02*
D03*
X374903D02*
D03*
X379903D02*
D03*
X402151D02*
D03*
X407152D02*
D03*
X412151D02*
D03*
X417151D02*
D03*
X283376Y190533D02*
D03*
X288376D02*
D03*
X293376D02*
D03*
X298376D02*
D03*
X320624Y162580D02*
D03*
X325624D02*
D03*
X330624D02*
D03*
X335624D02*
D03*
X320624Y190533D02*
D03*
X325624D02*
D03*
X330624D02*
D03*
X335624D02*
D03*
X238569Y190629D02*
D03*
X243569D02*
D03*
X248569D02*
D03*
X253569D02*
D03*
X283376Y162580D02*
D03*
X288376D02*
D03*
X293376D02*
D03*
X298376D02*
D03*
X238569Y162676D02*
D03*
X243569D02*
D03*
X248569D02*
D03*
X253569D02*
D03*
X201320Y190629D02*
D03*
X206320D02*
D03*
X211320D02*
D03*
X216320D02*
D03*
X201320Y162676D02*
D03*
X206320D02*
D03*
X211320D02*
D03*
X216320D02*
D03*
X157042Y190533D02*
D03*
X162042D02*
D03*
X167042D02*
D03*
X172042D02*
D03*
X119793D02*
D03*
X124793D02*
D03*
X129793D02*
D03*
X134793D02*
D03*
X119793Y162580D02*
D03*
X124793D02*
D03*
X129793D02*
D03*
X134793D02*
D03*
X157042D02*
D03*
X162042D02*
D03*
X167042D02*
D03*
X172042D02*
D03*
X565507D02*
D03*
X570507D02*
D03*
X575507D02*
D03*
X580507D02*
D03*
X38001Y190533D02*
D03*
X43001D02*
D03*
X48002D02*
D03*
X53001D02*
D03*
X75250D02*
D03*
X80250D02*
D03*
X85250D02*
D03*
X90250D02*
D03*
X75250Y162580D02*
D03*
X80250D02*
D03*
X85250D02*
D03*
X90250D02*
D03*
X38001D02*
D03*
X43001D02*
D03*
X48002D02*
D03*
X53001D02*
D03*
G54D76*
X635857Y166768D02*
D03*
Y156138D02*
D03*
X554557Y166768D02*
D03*
Y156138D02*
D03*
X473257Y166768D02*
D03*
Y156138D02*
D03*
X391201Y166470D02*
D03*
Y155840D02*
D03*
X309674Y166768D02*
D03*
Y156138D02*
D03*
X227618Y166864D02*
D03*
Y156234D02*
D03*
X146091Y166768D02*
D03*
Y156138D02*
D03*
X64300Y166768D02*
D03*
Y156138D02*
D03*
X627588Y396439D02*
D03*
Y386006D02*
D03*
G54D77*
X279403Y286682D02*
D03*
G54D78*
X277435D02*
D03*
X275466D02*
D03*
X273498D02*
D03*
X279403Y283414D02*
D03*
X277435D02*
D03*
X275466D02*
D03*
X273498D02*
D03*
G54D79*
X521151Y301513D02*
D03*
X515801D02*
D03*
G54D80*
X77883Y228683D02*
D03*
Y230651D02*
D03*
Y232620D02*
D03*
Y234588D02*
D03*
Y236557D02*
D03*
Y238525D02*
D03*
Y240494D02*
D03*
Y242462D02*
D03*
Y244431D02*
D03*
Y246399D02*
D03*
Y248368D02*
D03*
Y250336D02*
D03*
X45600D02*
D03*
Y248368D02*
D03*
Y246399D02*
D03*
Y244431D02*
D03*
Y242462D02*
D03*
Y240494D02*
D03*
Y238525D02*
D03*
Y236557D02*
D03*
Y234588D02*
D03*
Y232620D02*
D03*
Y230651D02*
D03*
Y228683D02*
D03*
X127391D02*
D03*
Y230651D02*
D03*
Y232620D02*
D03*
Y234588D02*
D03*
Y236557D02*
D03*
Y238525D02*
D03*
Y240494D02*
D03*
Y242462D02*
D03*
Y244431D02*
D03*
Y246399D02*
D03*
Y248368D02*
D03*
Y250336D02*
D03*
X159675D02*
D03*
Y248368D02*
D03*
Y246399D02*
D03*
Y244431D02*
D03*
Y242462D02*
D03*
Y240494D02*
D03*
Y238525D02*
D03*
Y236557D02*
D03*
Y234588D02*
D03*
Y232620D02*
D03*
Y230651D02*
D03*
Y228683D02*
D03*
X241202Y228779D02*
D03*
Y230747D02*
D03*
Y232716D02*
D03*
Y234684D02*
D03*
Y236653D02*
D03*
Y238621D02*
D03*
Y240590D02*
D03*
Y242558D02*
D03*
Y244527D02*
D03*
Y246495D02*
D03*
Y248464D02*
D03*
Y250432D02*
D03*
X208918D02*
D03*
Y248464D02*
D03*
Y246495D02*
D03*
Y244527D02*
D03*
Y242558D02*
D03*
Y240590D02*
D03*
Y238621D02*
D03*
Y236653D02*
D03*
Y234684D02*
D03*
Y232716D02*
D03*
Y230747D02*
D03*
Y228779D02*
D03*
X290974Y228683D02*
D03*
Y230651D02*
D03*
Y232620D02*
D03*
Y234588D02*
D03*
Y236557D02*
D03*
Y238525D02*
D03*
Y240494D02*
D03*
Y242462D02*
D03*
Y244431D02*
D03*
Y246399D02*
D03*
Y248368D02*
D03*
Y250336D02*
D03*
X323257D02*
D03*
Y248368D02*
D03*
Y246399D02*
D03*
Y244431D02*
D03*
Y242462D02*
D03*
Y240494D02*
D03*
Y238525D02*
D03*
Y236557D02*
D03*
Y234588D02*
D03*
Y232620D02*
D03*
Y230651D02*
D03*
Y228683D02*
D03*
X404785Y228385D02*
D03*
Y230353D02*
D03*
Y232322D02*
D03*
Y234291D02*
D03*
Y236259D02*
D03*
Y238228D02*
D03*
Y240196D02*
D03*
Y242164D02*
D03*
Y244133D02*
D03*
Y246101D02*
D03*
Y248070D02*
D03*
Y250039D02*
D03*
X372501D02*
D03*
Y248070D02*
D03*
Y246101D02*
D03*
Y244133D02*
D03*
Y242164D02*
D03*
Y240196D02*
D03*
Y238228D02*
D03*
Y236259D02*
D03*
Y234291D02*
D03*
Y232322D02*
D03*
Y230353D02*
D03*
Y228385D02*
D03*
X454557Y228683D02*
D03*
Y230651D02*
D03*
Y232620D02*
D03*
Y234588D02*
D03*
Y236557D02*
D03*
Y238525D02*
D03*
Y240494D02*
D03*
Y242462D02*
D03*
Y244431D02*
D03*
Y246399D02*
D03*
Y248368D02*
D03*
Y250336D02*
D03*
X486840D02*
D03*
Y248368D02*
D03*
Y246399D02*
D03*
Y244431D02*
D03*
Y242462D02*
D03*
Y240494D02*
D03*
Y238525D02*
D03*
Y236557D02*
D03*
Y234588D02*
D03*
Y232620D02*
D03*
Y230651D02*
D03*
Y228683D02*
D03*
X649440D02*
D03*
Y230651D02*
D03*
Y232620D02*
D03*
Y234588D02*
D03*
Y236557D02*
D03*
Y238525D02*
D03*
Y240494D02*
D03*
Y242462D02*
D03*
Y244431D02*
D03*
Y246399D02*
D03*
Y248368D02*
D03*
Y250336D02*
D03*
X617157D02*
D03*
Y248368D02*
D03*
Y246399D02*
D03*
Y244431D02*
D03*
Y242462D02*
D03*
Y240494D02*
D03*
Y238525D02*
D03*
Y236557D02*
D03*
Y234588D02*
D03*
Y232620D02*
D03*
Y230651D02*
D03*
Y228683D02*
D03*
X535857D02*
D03*
Y230651D02*
D03*
Y232620D02*
D03*
Y234588D02*
D03*
Y236557D02*
D03*
Y238525D02*
D03*
Y240494D02*
D03*
Y242462D02*
D03*
Y244431D02*
D03*
Y246399D02*
D03*
Y248368D02*
D03*
Y250336D02*
D03*
X568140D02*
D03*
Y248368D02*
D03*
Y246399D02*
D03*
Y244431D02*
D03*
Y242462D02*
D03*
Y240494D02*
D03*
Y238525D02*
D03*
Y236557D02*
D03*
Y234588D02*
D03*
Y232620D02*
D03*
Y230651D02*
D03*
Y228683D02*
D03*
G54D81*
X72569Y255651D02*
D03*
X70600D02*
D03*
X68632D02*
D03*
X66663D02*
D03*
X64694D02*
D03*
X62726D02*
D03*
X60757D02*
D03*
X58789D02*
D03*
X56820D02*
D03*
X54852D02*
D03*
X52883D02*
D03*
X50915D02*
D03*
Y223368D02*
D03*
X52883D02*
D03*
X54852D02*
D03*
X56820D02*
D03*
X58789D02*
D03*
X60757D02*
D03*
X62726D02*
D03*
X64694D02*
D03*
X66663D02*
D03*
X68632D02*
D03*
X70600D02*
D03*
X72569D02*
D03*
X154360D02*
D03*
X152391D02*
D03*
X150423D02*
D03*
X148454D02*
D03*
X146486D02*
D03*
X144517D02*
D03*
X142549D02*
D03*
X140580D02*
D03*
X138612D02*
D03*
X136643D02*
D03*
X134675D02*
D03*
X132706D02*
D03*
Y255651D02*
D03*
X134675D02*
D03*
X136643D02*
D03*
X138612D02*
D03*
X140580D02*
D03*
X142549D02*
D03*
X144517D02*
D03*
X146486D02*
D03*
X148454D02*
D03*
X150423D02*
D03*
X152391D02*
D03*
X154360D02*
D03*
X235887Y255747D02*
D03*
X233918D02*
D03*
X231950D02*
D03*
X229981D02*
D03*
X228013D02*
D03*
X226045D02*
D03*
X224076D02*
D03*
X222107D02*
D03*
X220139D02*
D03*
X218170D02*
D03*
X216202D02*
D03*
X214233D02*
D03*
Y223464D02*
D03*
X216202D02*
D03*
X218170D02*
D03*
X220139D02*
D03*
X222107D02*
D03*
X224076D02*
D03*
X226045D02*
D03*
X228013D02*
D03*
X229981D02*
D03*
X231950D02*
D03*
X233918D02*
D03*
X235887D02*
D03*
X317943Y223368D02*
D03*
X315974D02*
D03*
X314005D02*
D03*
X312037D02*
D03*
X310068D02*
D03*
X308100D02*
D03*
X306132D02*
D03*
X304163D02*
D03*
X302194D02*
D03*
X300226D02*
D03*
X298257D02*
D03*
X296289D02*
D03*
Y255651D02*
D03*
X298257D02*
D03*
X300226D02*
D03*
X302194D02*
D03*
X304163D02*
D03*
X306132D02*
D03*
X308100D02*
D03*
X310068D02*
D03*
X312037D02*
D03*
X314005D02*
D03*
X315974D02*
D03*
X317943D02*
D03*
X399470Y255353D02*
D03*
X397501D02*
D03*
X395533D02*
D03*
X393564D02*
D03*
X391596D02*
D03*
X389627D02*
D03*
X387659D02*
D03*
X385690D02*
D03*
X383722D02*
D03*
X381753D02*
D03*
X379785D02*
D03*
X377816D02*
D03*
Y223070D02*
D03*
X379785D02*
D03*
X381753D02*
D03*
X383722D02*
D03*
X385690D02*
D03*
X387659D02*
D03*
X389627D02*
D03*
X391596D02*
D03*
X393564D02*
D03*
X395533D02*
D03*
X397501D02*
D03*
X399470D02*
D03*
X481525Y223368D02*
D03*
X479557D02*
D03*
X477588D02*
D03*
X475620D02*
D03*
X473651D02*
D03*
X471683D02*
D03*
X469714D02*
D03*
X467746D02*
D03*
X465777D02*
D03*
X463809D02*
D03*
X461840D02*
D03*
X459872D02*
D03*
Y255651D02*
D03*
X461840D02*
D03*
X463809D02*
D03*
X465777D02*
D03*
X467746D02*
D03*
X469714D02*
D03*
X471683D02*
D03*
X473651D02*
D03*
X475620D02*
D03*
X477588D02*
D03*
X479557D02*
D03*
X481525D02*
D03*
X644125D02*
D03*
X642157D02*
D03*
X640188D02*
D03*
X638220D02*
D03*
X636251D02*
D03*
X634283D02*
D03*
X632314D02*
D03*
X630346D02*
D03*
X628377D02*
D03*
X626409D02*
D03*
X624440D02*
D03*
X622472D02*
D03*
Y223368D02*
D03*
X624440D02*
D03*
X626409D02*
D03*
X628377D02*
D03*
X630346D02*
D03*
X632314D02*
D03*
X634283D02*
D03*
X636251D02*
D03*
X638220D02*
D03*
X640188D02*
D03*
X642157D02*
D03*
X644125D02*
D03*
X562825D02*
D03*
X560857D02*
D03*
X558888D02*
D03*
X556920D02*
D03*
X554951D02*
D03*
X552983D02*
D03*
X551014D02*
D03*
X549046D02*
D03*
X547077D02*
D03*
X545109D02*
D03*
X543140D02*
D03*
X541172D02*
D03*
Y255651D02*
D03*
X543140D02*
D03*
X545109D02*
D03*
X547077D02*
D03*
X549046D02*
D03*
X551014D02*
D03*
X552983D02*
D03*
X554951D02*
D03*
X556920D02*
D03*
X558888D02*
D03*
X560857D02*
D03*
X562825D02*
D03*
G54D82*
X61742Y239509D02*
D03*
X143533D02*
D03*
X225060Y239605D02*
D03*
X307116Y239509D02*
D03*
X388643Y239212D02*
D03*
X470698Y239509D02*
D03*
X633298D02*
D03*
X551998D02*
D03*
G54D83*
X23190Y349710D02*
D03*
Y345379D02*
D03*
Y341049D02*
D03*
Y336718D02*
D03*
Y332387D02*
D03*
Y328057D02*
D03*
Y323726D02*
D03*
Y319395D02*
D03*
G54D84*
X19056Y354139D02*
D03*
G54D85*
X8859Y353942D02*
D03*
G54D86*
X17324Y312998D02*
D03*
G54D87*
X12796Y312112D02*
D03*
G54D88*
X8269Y312899D02*
D03*
G54D89*
X8002Y238468D02*
D03*
X13002D02*
D03*
X18002D02*
D03*
X23002D02*
D03*
X8002Y259727D02*
D03*
X13002D02*
D03*
X18002D02*
D03*
X23002D02*
D03*
G54D90*
X175900Y454798D02*
D03*
Y470782D02*
D03*
X180900Y454798D02*
D03*
Y470782D02*
D03*
X185900Y454798D02*
D03*
Y470782D02*
D03*
X190900Y454798D02*
D03*
Y470782D02*
D03*
X195900Y454798D02*
D03*
Y470782D02*
D03*
G54D91*
X463786Y459470D02*
D03*
Y461439D02*
D03*
Y463407D02*
D03*
X458668D02*
D03*
Y461439D02*
D03*
Y459470D02*
D03*
G54D92*
X230035Y414912D02*
D03*
Y412943D02*
D03*
Y410975D02*
D03*
Y409006D02*
D03*
Y407038D02*
D03*
Y405069D02*
D03*
Y403101D02*
D03*
Y401132D02*
D03*
Y399164D02*
D03*
Y397195D02*
D03*
Y395227D02*
D03*
Y393258D02*
D03*
Y391290D02*
D03*
Y389321D02*
D03*
Y387353D02*
D03*
Y385384D02*
D03*
Y383416D02*
D03*
Y381447D02*
D03*
Y379479D02*
D03*
Y377510D02*
D03*
Y375542D02*
D03*
Y373573D02*
D03*
Y371605D02*
D03*
Y369636D02*
D03*
Y367668D02*
D03*
Y365699D02*
D03*
Y363731D02*
D03*
Y361762D02*
D03*
Y359794D02*
D03*
Y357825D02*
D03*
Y355857D02*
D03*
Y353888D02*
D03*
Y351920D02*
D03*
Y349951D02*
D03*
Y347983D02*
D03*
Y346014D02*
D03*
X146965D02*
D03*
Y347983D02*
D03*
Y349951D02*
D03*
Y351920D02*
D03*
Y353888D02*
D03*
Y355857D02*
D03*
Y357825D02*
D03*
Y359794D02*
D03*
Y361762D02*
D03*
Y363731D02*
D03*
Y365699D02*
D03*
Y367668D02*
D03*
Y369636D02*
D03*
Y371605D02*
D03*
Y373573D02*
D03*
Y375542D02*
D03*
Y377510D02*
D03*
Y379479D02*
D03*
Y381447D02*
D03*
Y383416D02*
D03*
Y385384D02*
D03*
Y387353D02*
D03*
Y389321D02*
D03*
Y391290D02*
D03*
Y393258D02*
D03*
Y395227D02*
D03*
Y397195D02*
D03*
Y399164D02*
D03*
Y401132D02*
D03*
Y403101D02*
D03*
Y405069D02*
D03*
Y407038D02*
D03*
Y409006D02*
D03*
Y410975D02*
D03*
Y412943D02*
D03*
Y414912D02*
D03*
G54D93*
X222949Y338928D02*
D03*
X220980D02*
D03*
X219012D02*
D03*
X217043D02*
D03*
X215075D02*
D03*
X213106D02*
D03*
X211138D02*
D03*
X209169D02*
D03*
X207201D02*
D03*
X205232D02*
D03*
X203264D02*
D03*
X201295D02*
D03*
X199327D02*
D03*
X197358D02*
D03*
X195390D02*
D03*
X193421D02*
D03*
X191453D02*
D03*
X189484D02*
D03*
X187516D02*
D03*
X185547D02*
D03*
X183579D02*
D03*
X181610D02*
D03*
X179642D02*
D03*
X177673D02*
D03*
X175705D02*
D03*
X173736D02*
D03*
X171768D02*
D03*
X169799D02*
D03*
X167831D02*
D03*
X165862D02*
D03*
X163894D02*
D03*
X161925D02*
D03*
X159957D02*
D03*
X157988D02*
D03*
X156020D02*
D03*
X154051D02*
D03*
Y421998D02*
D03*
X156020D02*
D03*
X157988D02*
D03*
X159957D02*
D03*
X161925D02*
D03*
X163894D02*
D03*
X165862D02*
D03*
X167831D02*
D03*
X169799D02*
D03*
X171768D02*
D03*
X173736D02*
D03*
X175705D02*
D03*
X177673D02*
D03*
X179642D02*
D03*
X181610D02*
D03*
X183579D02*
D03*
X185547D02*
D03*
X187516D02*
D03*
X189484D02*
D03*
X191453D02*
D03*
X193421D02*
D03*
X195390D02*
D03*
X197358D02*
D03*
X199327D02*
D03*
X201295D02*
D03*
X203264D02*
D03*
X205232D02*
D03*
X207201D02*
D03*
X209169D02*
D03*
X211138D02*
D03*
X213106D02*
D03*
X215075D02*
D03*
X217043D02*
D03*
X219012D02*
D03*
X220980D02*
D03*
X222949D02*
D03*
G54D94*
X144214Y461430D02*
D03*
X158781D02*
D03*
Y452769D02*
D03*
X144214D02*
D03*
G54D95*
X111512Y417353D02*
D03*
Y422353D02*
D03*
Y427353D02*
D03*
Y432353D02*
D03*
Y437353D02*
D03*
Y442353D02*
D03*
Y447353D02*
D03*
Y452353D02*
D03*
X75488Y417353D02*
D03*
Y422353D02*
D03*
Y427353D02*
D03*
Y432353D02*
D03*
Y437353D02*
D03*
Y442353D02*
D03*
Y447353D02*
D03*
Y452353D02*
D03*
G54D96*
X624951Y458437D02*
D03*
Y454697D02*
D03*
Y450957D02*
D03*
X614912D02*
D03*
Y454697D02*
D03*
Y458437D02*
D03*
X576711Y388690D02*
D03*
Y384950D02*
D03*
Y381210D02*
D03*
X566672D02*
D03*
Y384950D02*
D03*
Y388690D02*
D03*
X532676Y388755D02*
D03*
Y385015D02*
D03*
Y381275D02*
D03*
X522637D02*
D03*
Y385015D02*
D03*
Y388755D02*
D03*
X489548Y400830D02*
D03*
Y397090D02*
D03*
Y393350D02*
D03*
X479509D02*
D03*
Y397090D02*
D03*
Y400830D02*
D03*
G54D97*
X675858Y488280D02*
D03*
Y497011D02*
D03*
X605611Y354450D02*
D03*
Y363181D02*
D03*
X518084Y330775D02*
D03*
Y339505D02*
D03*
X561312Y354450D02*
D03*
Y363180D02*
D03*
G54D98*
X60861Y482353D02*
D03*
X52199Y498495D02*
D03*
Y482353D02*
D03*
X60861Y498495D02*
D03*
G54D99*
X59746Y427609D02*
D03*
X53053D02*
D03*
Y424459D02*
D03*
X59746D02*
D03*
G54D100*
X436853Y421688D02*
D03*
G54D101*
X27961Y445526D02*
D03*
Y441589D02*
D03*
X35048Y443558D02*
D03*
G54D102*
X48342Y453114D02*
D03*
Y458114D02*
D03*
X22555Y453114D02*
D03*
Y458114D02*
D03*
G54D103*
X52346Y402576D02*
D03*
Y407812D02*
D03*
X133295Y331560D02*
D03*
Y336796D02*
D03*
G54D104*
X601198Y485228D02*
D03*
Y472433D02*
D03*
X614288Y485228D02*
D03*
Y472433D02*
D03*
G54D105*
X581935Y477871D02*
D03*
X566335D02*
D03*
G54D106*
X548737Y490642D02*
D03*
X511335D02*
D03*
G54D107*
X587869Y489471D02*
D03*
Y494471D02*
D03*
Y499471D02*
D03*
Y504471D02*
D03*
X567200Y489471D02*
D03*
Y494471D02*
D03*
Y499471D02*
D03*
Y504471D02*
D03*
G54D108*
X577535Y496971D02*
D03*
G54D109*
X601211Y390689D02*
D03*
X596211D02*
D03*
X591211D02*
D03*
X586211D02*
D03*
X542212Y390688D02*
D03*
X547212D02*
D03*
X552212D02*
D03*
X557212D02*
D03*
X499862Y391089D02*
D03*
X504862D02*
D03*
X509862D02*
D03*
X514862D02*
D03*
G54D110*
X633961Y466747D02*
D03*
Y471747D02*
D03*
Y476747D02*
D03*
Y481747D02*
D03*
G54D111*
X518520Y450189D02*
D03*
X531316D02*
D03*
X518520Y463279D02*
D03*
X531316D02*
D03*
G54D112*
X162818Y438853D02*
D03*
X157582D02*
D03*
X135605Y438846D02*
D03*
X130369D02*
D03*
X112842Y400359D02*
D03*
X107606D02*
D03*
G54D113*
X7869Y431953D02*
D03*
X16600D02*
D03*
M02*
