G04*
G04 #@! TF.GenerationSoftware,Altium Limited,Altium Designer,19.0.12 (326)*
G04*
G04 Layer_Physical_Order=2*
G04 Layer_Color=1265191*
%FSLAX25Y25*%
%MOIN*%
G70*
G01*
G75*
%ADD20C,0.02000*%
%ADD24C,0.03500*%
%ADD118C,0.06000*%
%ADD209C,0.03000*%
%ADD326C,0.05800*%
%ADD331C,0.03800*%
%ADD332C,0.13811*%
G04:AMPARAMS|DCode=333|XSize=59mil|YSize=59mil|CornerRadius=0mil|HoleSize=0mil|Usage=FLASHONLY|Rotation=0.000|XOffset=0mil|YOffset=0mil|HoleType=Round|Shape=Relief|Width=14mil|Gap=10mil|Entries=4|*
%AMTHD333*
7,0,0,0.05900,0.03900,0.01400,45*
%
%ADD333THD333*%
%ADD334C,0.06331*%
%ADD335C,0.09598*%
G04:AMPARAMS|DCode=336|XSize=84mil|YSize=84mil|CornerRadius=0mil|HoleSize=0mil|Usage=FLASHONLY|Rotation=0.000|XOffset=0mil|YOffset=0mil|HoleType=Round|Shape=Relief|Width=14mil|Gap=10mil|Entries=4|*
%AMTHD336*
7,0,0,0.08400,0.06400,0.01400,45*
%
%ADD336THD336*%
%ADD337C,0.06016*%
%ADD338C,0.05543*%
G04:AMPARAMS|DCode=339|XSize=79.433mil|YSize=79.433mil|CornerRadius=0mil|HoleSize=0mil|Usage=FLASHONLY|Rotation=0.000|XOffset=0mil|YOffset=0mil|HoleType=Round|Shape=Relief|Width=14mil|Gap=10mil|Entries=4|*
%AMTHD339*
7,0,0,0.07943,0.05943,0.01400,45*
%
%ADD339THD339*%
%ADD340C,0.14992*%
%ADD341C,0.08300*%
G04:AMPARAMS|DCode=342|XSize=103mil|YSize=103mil|CornerRadius=0mil|HoleSize=0mil|Usage=FLASHONLY|Rotation=0.000|XOffset=0mil|YOffset=0mil|HoleType=Round|Shape=Relief|Width=14mil|Gap=10mil|Entries=4|*
%AMTHD342*
7,0,0,0.10300,0.08300,0.01400,45*
%
%ADD342THD342*%
%ADD343C,0.10700*%
G04:AMPARAMS|DCode=344|XSize=131mil|YSize=131mil|CornerRadius=0mil|HoleSize=0mil|Usage=FLASHONLY|Rotation=0.000|XOffset=0mil|YOffset=0mil|HoleType=Round|Shape=Relief|Width=14mil|Gap=10mil|Entries=4|*
%AMTHD344*
7,0,0,0.13100,0.11100,0.01400,45*
%
%ADD344THD344*%
G04:AMPARAMS|DCode=345|XSize=82mil|YSize=82mil|CornerRadius=0mil|HoleSize=0mil|Usage=FLASHONLY|Rotation=0.000|XOffset=0mil|YOffset=0mil|HoleType=Round|Shape=Relief|Width=14mil|Gap=10mil|Entries=4|*
%AMTHD345*
7,0,0,0.08200,0.06200,0.01400,45*
%
%ADD345THD345*%
G54D20*
X436019Y410443D02*
X436870Y411294D01*
X436019Y395550D02*
Y410443D01*
X436870Y411294D02*
X440905Y415329D01*
Y485900D01*
X398026Y396464D02*
Y408646D01*
X402062Y412682D01*
Y483253D01*
X360035Y396464D02*
Y408646D01*
X364070Y412682D01*
Y483253D01*
X327421Y415329D02*
Y485900D01*
X323385Y411294D02*
X327421Y415329D01*
X323385Y399212D02*
Y411394D01*
X285590Y399210D02*
Y411218D01*
X289626Y415253D01*
X289625Y415353D02*
Y485924D01*
X247401Y412697D02*
Y485900D01*
X747539D02*
X747539Y0D01*
X0Y485900D02*
X747539D01*
X0Y0D02*
Y485900D01*
Y0D02*
X747539D01*
X64384Y420000D02*
X66700D01*
X48584Y404200D02*
X64384Y420000D01*
X46700Y326800D02*
X54100Y334200D01*
X37684Y393300D02*
X48584Y404200D01*
X54100Y334200D02*
X81200Y361300D01*
X7828Y393300D02*
X37684D01*
X82311Y420000D02*
X86698Y415614D01*
X66700Y420000D02*
X82311D01*
X86698Y366797D02*
Y415614D01*
X7828Y326800D02*
X46700D01*
X81200Y361300D02*
X86698Y366797D01*
X7828Y326799D02*
Y393194D01*
X7800Y451379D02*
Y452100D01*
X8500Y452800D01*
X728600Y35300D02*
X734730D01*
X712600Y19300D02*
X728600Y35300D01*
X30100Y456200D02*
Y479700D01*
X8500Y456200D02*
X30100D01*
X734730Y35300D02*
X739600D01*
X8500Y452800D02*
Y456000D01*
X712600Y0D02*
Y19300D01*
X7800Y28000D02*
X20500D01*
X28300Y20200D01*
Y900D02*
Y20200D01*
X496124Y345046D02*
X518371D01*
X538473Y344646D02*
X560720D01*
X582473Y344647D02*
X604720D01*
X582473Y324254D02*
Y344647D01*
Y324254D02*
X604720D01*
Y344647D01*
X538473Y324254D02*
Y344646D01*
Y324254D02*
X560720D01*
Y344646D01*
X496124Y324654D02*
Y345046D01*
X518371Y324654D02*
Y345046D01*
X496124Y324654D02*
X518371D01*
G54D24*
X454433Y94390D02*
D03*
X364962Y337350D02*
D03*
X706290Y89466D02*
D03*
X706524Y108342D02*
D03*
X715572Y148278D02*
D03*
X736632Y115128D02*
D03*
X717132Y118950D02*
D03*
X702234Y194376D02*
D03*
X682110Y194844D02*
D03*
X682266Y186810D02*
D03*
X702234Y186576D02*
D03*
X713466Y174954D02*
D03*
X695994Y181194D02*
D03*
X689052Y181116D02*
D03*
X688662Y200070D02*
D03*
X696150D02*
D03*
X736710Y193050D02*
D03*
X721188Y207870D02*
D03*
X678600Y193284D02*
D03*
X692484Y200070D02*
D03*
X702234Y190710D02*
D03*
X692406Y181116D02*
D03*
X682344Y190788D02*
D03*
X679848Y177138D02*
D03*
X680940Y205998D02*
D03*
X683436Y115986D02*
D03*
X697632Y137982D02*
D03*
X702702Y114660D02*
D03*
X709722Y129168D02*
D03*
X676884Y115128D02*
D03*
X697164Y109668D02*
D03*
X710268Y120744D02*
D03*
X709254Y137514D02*
D03*
X686166Y138060D02*
D03*
X676572Y127842D02*
D03*
X683202Y125658D02*
D03*
X692484Y135018D02*
D03*
X701922Y125814D02*
D03*
X692484Y116220D02*
D03*
X705120Y407550D02*
D03*
X685074Y405912D02*
D03*
X684450Y429780D02*
D03*
X692952Y409344D02*
D03*
X670332Y393900D02*
D03*
X645684Y393978D02*
D03*
X645606Y357006D02*
D03*
X632190Y356928D02*
D03*
X622050Y356538D02*
D03*
X617604Y356226D02*
D03*
X638352Y369330D02*
D03*
X632658D02*
D03*
X628290D02*
D03*
X637338Y379470D02*
D03*
X632502D02*
D03*
X627900D02*
D03*
X626964Y392184D02*
D03*
X672750Y384618D02*
D03*
X651846Y384462D02*
D03*
X655668D02*
D03*
X669240Y384696D02*
D03*
X682032Y372606D02*
D03*
X681876Y394368D02*
D03*
X692562Y372294D02*
D03*
X682812Y385866D02*
D03*
X692562Y376818D02*
D03*
X704262Y372372D02*
D03*
X708396Y374166D02*
D03*
X708006Y380484D02*
D03*
X695682Y399048D02*
D03*
X687492D02*
D03*
X692562Y395538D02*
D03*
X704418Y399126D02*
D03*
X708006Y396084D02*
D03*
Y390390D02*
D03*
X702546Y385866D02*
D03*
X597013Y458220D02*
D03*
X713154Y322062D02*
D03*
X702156Y321048D02*
D03*
X684528Y309972D02*
D03*
X683904Y335166D02*
D03*
X699894Y335010D02*
D03*
X707538Y334386D02*
D03*
X712998Y332436D02*
D03*
X712686Y313794D02*
D03*
X707616Y310050D02*
D03*
X692562Y309972D02*
D03*
X693030Y331110D02*
D03*
X682734Y321048D02*
D03*
X677820Y316680D02*
D03*
Y327210D02*
D03*
Y322000D02*
D03*
X646698Y316914D02*
D03*
Y322140D02*
D03*
X646620Y327054D02*
D03*
X672204Y312078D02*
D03*
X666354Y312156D02*
D03*
X658320Y312078D02*
D03*
X692640Y427908D02*
D03*
X683124Y418314D02*
D03*
X701766Y418626D02*
D03*
X705978Y420576D02*
D03*
X705354Y433994D02*
D03*
X649116Y283530D02*
D03*
X600522Y288522D02*
D03*
X602082Y281424D02*
D03*
X599196Y272610D02*
D03*
X598884Y260130D02*
D03*
X624468Y271440D02*
D03*
X605514Y271128D02*
D03*
X606138Y257634D02*
D03*
X624780Y257322D02*
D03*
X615264Y264576D02*
D03*
X605826Y251160D02*
D03*
X615498Y251004D02*
D03*
X626184Y251628D02*
D03*
X644202Y283530D02*
D03*
X635466Y283452D02*
D03*
X620724Y290862D02*
D03*
X628446Y292266D02*
D03*
X611364Y293124D02*
D03*
X614328Y300534D02*
D03*
X619710Y300456D02*
D03*
X626184Y300378D02*
D03*
X654030Y283530D02*
D03*
X650988Y290238D02*
D03*
X658944Y283530D02*
D03*
X662376Y290628D02*
D03*
X662298Y294840D02*
D03*
X685698Y268866D02*
D03*
X682578Y242736D02*
D03*
X704808Y243126D02*
D03*
X705120Y267696D02*
D03*
X692562Y265590D02*
D03*
X702546Y255762D02*
D03*
X692796Y245622D02*
D03*
X682188Y255606D02*
D03*
X665418Y250600D02*
D03*
X668519D02*
D03*
X658476Y257322D02*
D03*
X658944Y264186D02*
D03*
X659022Y271284D02*
D03*
X182340Y392762D02*
D03*
X213694Y416104D02*
D03*
X229303Y234348D02*
D03*
X231559Y237596D02*
D03*
X277578Y340268D02*
D03*
X272210Y343802D02*
D03*
X675924Y97922D02*
D03*
X716952Y79748D02*
D03*
X724440Y75380D02*
D03*
X711336Y84896D02*
D03*
X721866Y81464D02*
D03*
X711024Y91370D02*
D03*
X719760Y91136D02*
D03*
X725298D02*
D03*
X724752Y97766D02*
D03*
X710712Y102992D02*
D03*
X718668Y102914D02*
D03*
X676236Y78032D02*
D03*
X681228Y82166D02*
D03*
X676002Y82010D02*
D03*
X682242Y91526D02*
D03*
X676314Y91448D02*
D03*
X682320Y103616D02*
D03*
X676704D02*
D03*
X729354Y45713D02*
D03*
X690822Y45506D02*
D03*
X716301Y45740D02*
D03*
X694020Y68750D02*
D03*
X725610D02*
D03*
X658608Y222098D02*
D03*
X405264Y407426D02*
D03*
X332490Y394712D02*
D03*
X367590Y407379D02*
D03*
X330177D02*
D03*
X369306Y395024D02*
D03*
X411488Y402261D02*
D03*
X419362Y410923D02*
D03*
X424480Y414171D02*
D03*
X418599Y430194D02*
D03*
X430085Y398037D02*
D03*
X373788Y402261D02*
D03*
X381662Y410923D02*
D03*
X386780Y414171D02*
D03*
X380899Y430194D02*
D03*
X392385Y398037D02*
D03*
X336088Y402261D02*
D03*
X343962Y410923D02*
D03*
X349080Y414171D02*
D03*
X343199Y430194D02*
D03*
X354685Y398037D02*
D03*
X298388Y402261D02*
D03*
X306262Y410923D02*
D03*
X311381Y414171D02*
D03*
X305499Y430194D02*
D03*
X316985Y398037D02*
D03*
X445051Y388974D02*
D03*
X246812Y381897D02*
D03*
X474812Y364697D02*
D03*
X476055Y367196D02*
D03*
X469012Y376714D02*
D03*
X513612Y370697D02*
D03*
X515650Y389997D02*
D03*
X642912Y443841D02*
D03*
X650412D02*
D03*
Y448841D02*
D03*
X642912D02*
D03*
X685412D02*
D03*
X670412D02*
D03*
X660412D02*
D03*
X690690Y448968D02*
D03*
X685412Y441341D02*
D03*
X677912D02*
D03*
X670412D02*
D03*
Y433681D02*
D03*
X669995Y426341D02*
D03*
X660412Y441341D02*
D03*
Y433841D02*
D03*
Y426341D02*
D03*
X670412Y403841D02*
D03*
X661068Y411341D02*
D03*
X667912D02*
D03*
Y419039D02*
D03*
X657912Y418841D02*
D03*
X650501D02*
D03*
X650412Y411341D02*
D03*
X655412D02*
D03*
Y403841D02*
D03*
X650412D02*
D03*
X642912D02*
D03*
Y411341D02*
D03*
Y418841D02*
D03*
X520412Y314397D02*
D03*
X582912D02*
D03*
X590412D02*
D03*
X597912D02*
D03*
X602912Y304397D02*
D03*
X597912Y306897D02*
D03*
X590412D02*
D03*
X582912D02*
D03*
X602912Y321897D02*
D03*
X597912D02*
D03*
X592912D02*
D03*
X587912D02*
D03*
X582912D02*
D03*
X607111Y339397D02*
D03*
X577912Y321897D02*
D03*
X542517Y306897D02*
D03*
X547912D02*
D03*
X555412Y306612D02*
D03*
Y313497D02*
D03*
X547912Y313823D02*
D03*
X540412D02*
D03*
X562570Y339196D02*
D03*
X557912Y321897D02*
D03*
X552912D02*
D03*
X547912D02*
D03*
X542912D02*
D03*
X537912D02*
D03*
X532912D02*
D03*
X520412Y306897D02*
D03*
X510650Y314397D02*
D03*
X505412Y306897D02*
D03*
X498342D02*
D03*
X492912Y336897D02*
D03*
Y341897D02*
D03*
X485412D02*
D03*
Y336897D02*
D03*
X520412Y331897D02*
D03*
Y326897D02*
D03*
Y321497D02*
D03*
X510412Y321697D02*
D03*
X505412Y321897D02*
D03*
X500412D02*
D03*
X495493D02*
D03*
X490412D02*
D03*
X418279Y355017D02*
D03*
X411291Y356100D02*
D03*
X409913Y350883D02*
D03*
X49643Y472188D02*
D03*
X516704Y357773D02*
D03*
X562570Y345470D02*
D03*
X511291Y263876D02*
D03*
X511193Y274210D02*
D03*
X499185Y258364D02*
D03*
X502334D02*
D03*
X505287D02*
D03*
X508240D02*
D03*
X541803Y258265D02*
D03*
X538752D02*
D03*
X535700D02*
D03*
X519263Y264269D02*
D03*
X516212D02*
D03*
X530582D02*
D03*
X527531D02*
D03*
X524480D02*
D03*
X530582Y258265D02*
D03*
X527531D02*
D03*
X524381D02*
D03*
X521724Y296651D02*
D03*
X492098Y308954D02*
D03*
X487078Y308856D02*
D03*
X529598Y308167D02*
D03*
X214834Y78246D02*
D03*
X487766Y423794D02*
D03*
X410256Y395024D02*
D03*
X292676Y407381D02*
D03*
X289668Y395024D02*
D03*
X279286Y398037D02*
D03*
X273681Y414171D02*
D03*
X251633Y400490D02*
D03*
Y420765D02*
D03*
Y407379D02*
D03*
X260688Y402261D02*
D03*
X268563Y410923D02*
D03*
X395444Y337301D02*
D03*
X463259Y293600D02*
D03*
X428220Y293009D02*
D03*
X406814Y261958D02*
D03*
X419362Y260135D02*
D03*
X392885Y262990D02*
D03*
X406566Y307183D02*
D03*
X397807Y293600D02*
D03*
X394854Y297734D02*
D03*
X421557Y302625D02*
D03*
X457846Y352360D02*
D03*
X452039Y352163D02*
D03*
X210307Y304427D02*
D03*
X347476Y295686D02*
D03*
X363653Y277852D02*
D03*
X370862Y312694D02*
D03*
X375463Y334943D02*
D03*
X242976Y339077D02*
D03*
X357647Y330317D02*
D03*
X359716Y311513D02*
D03*
X432649Y365155D02*
D03*
X432256Y389466D02*
D03*
X444798Y384681D02*
D03*
X434817Y376579D02*
D03*
X443673Y370765D02*
D03*
X434688Y380901D02*
D03*
X439019Y376570D02*
D03*
X58209Y472087D02*
D03*
X30189Y249210D02*
D03*
X18753Y225981D02*
D03*
X29598Y235431D02*
D03*
X23299Y223324D02*
D03*
X40797Y232972D02*
D03*
X11488Y206986D02*
D03*
X39600Y209900D02*
D03*
X91606Y215746D02*
D03*
X594362Y226572D02*
D03*
X513850Y238187D02*
D03*
Y226474D02*
D03*
X427433Y222832D02*
D03*
X402492Y221651D02*
D03*
X248292Y222733D02*
D03*
X238744Y221749D02*
D03*
X170729Y224603D02*
D03*
X103515Y225588D02*
D03*
X248077Y217616D02*
D03*
X249686Y206456D02*
D03*
X239421Y217655D02*
D03*
X226311Y74210D02*
D03*
X196118Y185696D02*
D03*
X232216Y113679D02*
D03*
X223063Y113580D02*
D03*
X256020Y135216D02*
D03*
X221667Y219464D02*
D03*
X232416Y92911D02*
D03*
X226114D02*
D03*
X232413Y86710D02*
D03*
X219424D02*
D03*
X219421Y92911D02*
D03*
X232413Y80116D02*
D03*
X219424D02*
D03*
X232413Y74309D02*
D03*
X219424Y74108D02*
D03*
X203279Y46848D02*
D03*
X194913Y82478D02*
D03*
X193043Y76769D02*
D03*
X251162Y109625D02*
D03*
X246094Y109643D02*
D03*
Y105116D02*
D03*
X238712Y113679D02*
D03*
X240976Y109440D02*
D03*
Y104912D02*
D03*
X237087Y99813D02*
D03*
X241122Y97943D02*
D03*
X233693Y103245D02*
D03*
X246094Y100391D02*
D03*
X251015Y98127D02*
D03*
X246094Y94486D02*
D03*
X203874Y98127D02*
D03*
X216177Y113494D02*
D03*
X213913Y109440D02*
D03*
X208795Y109643D02*
D03*
X203727Y109625D02*
D03*
X221197Y103245D02*
D03*
X213913Y104912D02*
D03*
X217802Y99813D02*
D03*
X213767Y97943D02*
D03*
X208795Y105116D02*
D03*
X203727Y105097D02*
D03*
X208795Y100391D02*
D03*
Y94486D02*
D03*
X204106Y221690D02*
D03*
X193092Y206160D02*
D03*
X181998Y207578D02*
D03*
X259977Y128744D02*
D03*
X241202Y181751D02*
D03*
X247324Y190019D02*
D03*
X247481Y194881D02*
D03*
X252442Y201928D02*
D03*
X199020Y168377D02*
D03*
X248800Y202027D02*
D03*
X202639Y168267D02*
D03*
X247418Y168196D02*
D03*
X251019Y168296D02*
D03*
X246044Y206554D02*
D03*
X218732Y221651D02*
D03*
X216517Y218759D02*
D03*
X202919Y209996D02*
D03*
X207788Y182061D02*
D03*
X189992Y124505D02*
D03*
X208151Y178405D02*
D03*
X191863Y127956D02*
D03*
X212383Y175944D02*
D03*
X192018Y145096D02*
D03*
X215918Y174296D02*
D03*
X192600Y141495D02*
D03*
X221283Y172731D02*
D03*
X222118Y127196D02*
D03*
X232618Y127696D02*
D03*
X228594Y172731D02*
D03*
X232119Y169096D02*
D03*
X228418Y160596D02*
D03*
X234018Y131096D02*
D03*
X233918Y174596D02*
D03*
X230418Y156196D02*
D03*
X237519Y175196D02*
D03*
X231819Y142896D02*
D03*
X262137Y131690D02*
D03*
X242719Y178096D02*
D03*
X194336Y219300D02*
D03*
X186193Y223265D02*
D03*
X188356Y216375D02*
D03*
X253426Y141631D02*
D03*
X255051Y127950D02*
D03*
X250079Y141613D02*
D03*
X251162Y137578D02*
D03*
Y133050D02*
D03*
X248063Y127950D02*
D03*
X251015Y126080D02*
D03*
X204810Y141613D02*
D03*
X206826Y127950D02*
D03*
X203727Y133050D02*
D03*
X203874Y126080D02*
D03*
X201463Y141631D02*
D03*
X203727Y137578D02*
D03*
X199145Y135234D02*
D03*
X221518Y160596D02*
D03*
X218149Y168796D02*
D03*
X216177Y141446D02*
D03*
X218771Y135031D02*
D03*
X220918Y131496D02*
D03*
X217802Y127765D02*
D03*
X212830Y141428D02*
D03*
X213913Y132865D02*
D03*
Y137393D02*
D03*
X213811Y126277D02*
D03*
X210814Y127765D02*
D03*
X242059Y141613D02*
D03*
X240976Y137578D02*
D03*
X244075Y127950D02*
D03*
X240976Y133050D02*
D03*
X241122Y126080D02*
D03*
X238712Y141631D02*
D03*
X258894Y76969D02*
D03*
Y70572D02*
D03*
X257024Y82678D02*
D03*
X236118Y135216D02*
D03*
X237087Y127950D02*
D03*
X251015Y43600D02*
D03*
X247570Y47143D02*
D03*
X248063Y43600D02*
D03*
X205051Y43698D02*
D03*
X202295D02*
D03*
X193043Y70372D02*
D03*
X264054Y207482D02*
D03*
X234876Y94390D02*
D03*
X157382Y221949D02*
D03*
X158169Y217618D02*
D03*
X132283Y126181D02*
D03*
X123524Y43602D02*
D03*
X120768D02*
D03*
X121752Y46752D02*
D03*
X166043Y47047D02*
D03*
X166535Y43504D02*
D03*
X166142Y214567D02*
D03*
X141831Y222933D02*
D03*
X159449Y109344D02*
D03*
X152165Y103150D02*
D03*
X127268Y109547D02*
D03*
Y100295D02*
D03*
Y94390D02*
D03*
X157185Y113583D02*
D03*
X159449Y104817D02*
D03*
X134650Y113398D02*
D03*
X127268Y105020D02*
D03*
X136275Y99717D02*
D03*
X169635Y109529D02*
D03*
X164567Y94390D02*
D03*
Y100295D02*
D03*
Y109547D02*
D03*
X139669Y103150D02*
D03*
X132386Y109344D02*
D03*
X122200Y109529D02*
D03*
X164567Y105020D02*
D03*
X144783Y74114D02*
D03*
X132386Y104817D02*
D03*
X122200Y105001D02*
D03*
X114591Y185600D02*
D03*
X134990Y218663D02*
D03*
X121391Y209900D02*
D03*
X165797Y189923D02*
D03*
X111691Y212600D02*
D03*
X165954Y194785D02*
D03*
X111565Y206065D02*
D03*
X140140Y219368D02*
D03*
X150591Y169000D02*
D03*
X146891Y160500D02*
D03*
X152491Y131000D02*
D03*
X174493Y135120D02*
D03*
X180610Y131595D02*
D03*
X161191Y178000D02*
D03*
X126624Y178309D02*
D03*
X110336Y127861D02*
D03*
X178450Y128648D02*
D03*
X159675Y181655D02*
D03*
X151091Y127600D02*
D03*
X147067Y172635D02*
D03*
X155991Y175100D02*
D03*
X150291Y142800D02*
D03*
X152391Y174500D02*
D03*
X148891Y156100D02*
D03*
X168159Y206360D02*
D03*
X165891Y168100D02*
D03*
X169491Y168200D02*
D03*
X164517Y206458D02*
D03*
X139756Y172635D02*
D03*
X140591Y127100D02*
D03*
X126261Y181965D02*
D03*
X108465Y124409D02*
D03*
X134391Y174200D02*
D03*
X111072Y141399D02*
D03*
X130856Y175848D02*
D03*
X110491Y145000D02*
D03*
X167273Y201931D02*
D03*
X121112Y168171D02*
D03*
X170915Y201832D02*
D03*
X117492Y168281D02*
D03*
X155560Y99717D02*
D03*
X159595Y97847D02*
D03*
X169488Y98032D02*
D03*
X155560Y127854D02*
D03*
X171898Y141535D02*
D03*
X173524Y127854D02*
D03*
X168552Y141517D02*
D03*
X169635Y137482D02*
D03*
Y132954D02*
D03*
X169488Y125984D02*
D03*
X166535Y127854D02*
D03*
X122346Y98032D02*
D03*
X132239Y97847D02*
D03*
X150889Y92815D02*
D03*
X144587D02*
D03*
X150886Y86614D02*
D03*
Y80020D02*
D03*
Y74213D02*
D03*
X137897Y86614D02*
D03*
X137894Y92815D02*
D03*
X137897Y80020D02*
D03*
Y74013D02*
D03*
X160531Y141517D02*
D03*
X162548Y127854D02*
D03*
X159449Y137482D02*
D03*
Y132954D02*
D03*
X157185Y141535D02*
D03*
X177367Y76873D02*
D03*
Y70476D02*
D03*
X159595Y125984D02*
D03*
X175497Y82582D02*
D03*
X154591Y135120D02*
D03*
X169488Y43504D02*
D03*
X113386Y82382D02*
D03*
X111516Y76673D02*
D03*
Y70276D02*
D03*
X150689Y113583D02*
D03*
X141535Y113484D02*
D03*
X112085Y224683D02*
D03*
X123283Y141517D02*
D03*
X125299Y127854D02*
D03*
X122346Y125984D02*
D03*
X122200Y137482D02*
D03*
Y132954D02*
D03*
X119936Y141535D02*
D03*
X117618Y135138D02*
D03*
X139991Y160500D02*
D03*
X136622Y168700D02*
D03*
X134650Y141350D02*
D03*
X137244Y134935D02*
D03*
X139391Y131400D02*
D03*
X136275Y127669D02*
D03*
X132386Y137297D02*
D03*
X131303Y141332D02*
D03*
X132386Y132769D02*
D03*
X129287Y127669D02*
D03*
X347665Y314393D02*
D03*
X241114Y314860D02*
D03*
X244460Y362694D02*
D03*
X244847Y351184D02*
D03*
X244263Y356592D02*
D03*
X236685Y352201D02*
D03*
X223112Y317878D02*
D03*
X223113Y311416D02*
D03*
X219423Y311403D02*
D03*
X219400Y307748D02*
D03*
X246225Y347148D02*
D03*
X277433Y321848D02*
D03*
X274572Y337010D02*
D03*
X287866Y339466D02*
D03*
X246323Y332089D02*
D03*
X266507Y327261D02*
D03*
X241170Y364496D02*
D03*
X237570Y364368D02*
D03*
X239827Y359452D02*
D03*
X235776Y358952D02*
D03*
X239283Y331709D02*
D03*
X219854Y344880D02*
D03*
X217900Y399248D02*
D03*
X215900Y395748D02*
D03*
X211400Y396448D02*
D03*
X226645Y400588D02*
D03*
X204204Y405312D02*
D03*
X208141D02*
D03*
X207040Y418699D02*
D03*
X213644Y361415D02*
D03*
X262374Y293698D02*
D03*
X282157D02*
D03*
X295083Y282781D02*
D03*
X277465Y293744D02*
D03*
X293968Y293206D02*
D03*
X424874Y373128D02*
D03*
X425140Y377502D02*
D03*
X425197Y382685D02*
D03*
X249670Y259349D02*
D03*
X246822Y263088D02*
D03*
X243673Y266435D02*
D03*
X249571Y243010D02*
D03*
X309712Y243403D02*
D03*
X206299Y281004D02*
D03*
X219685Y284941D02*
D03*
X219783Y287795D02*
D03*
X285624Y243305D02*
D03*
X286783Y230411D02*
D03*
X291114D02*
D03*
X258024Y260676D02*
D03*
X290917Y243305D02*
D03*
X327823Y231592D02*
D03*
X321228Y216729D02*
D03*
X330709Y222836D02*
D03*
X349775Y222872D02*
D03*
X351939Y215981D02*
D03*
X329303Y217419D02*
D03*
X320835Y222635D02*
D03*
X275425Y231986D02*
D03*
X267492Y235726D02*
D03*
X254500Y236316D02*
D03*
X258633Y232281D02*
D03*
X99775Y207675D02*
D03*
X257690Y283183D02*
D03*
X235897Y261415D02*
D03*
X280673Y280921D02*
D03*
X233522Y289298D02*
D03*
X235047Y273550D02*
D03*
X268248Y223169D02*
D03*
X270411Y216279D02*
D03*
X206300Y304000D02*
D03*
X172745Y303164D02*
D03*
X200305Y301786D02*
D03*
X210703Y284228D02*
D03*
X178092Y316149D02*
D03*
X169095Y318701D02*
D03*
X190256Y316923D02*
D03*
X181988Y316535D02*
D03*
X219421Y317899D02*
D03*
X219412Y324695D02*
D03*
X219389Y332722D02*
D03*
X215708Y324533D02*
D03*
X223039Y324639D02*
D03*
X223118Y332729D02*
D03*
X215719Y332638D02*
D03*
X172056Y314484D02*
D03*
X214287Y306579D02*
D03*
X165906Y398160D02*
D03*
X107313Y241650D02*
D03*
X17983Y201593D02*
D03*
X158512Y284156D02*
D03*
X389893Y73817D02*
D03*
X359701Y185302D02*
D03*
X411950Y217222D02*
D03*
X395799Y113285D02*
D03*
X386645Y113187D02*
D03*
X419602Y134822D02*
D03*
X385249Y219070D02*
D03*
X389696Y92517D02*
D03*
X395999D02*
D03*
X395996Y86317D02*
D03*
X383007D02*
D03*
X383003Y92517D02*
D03*
X395996Y79722D02*
D03*
X383007D02*
D03*
X395996Y73915D02*
D03*
X383007Y73715D02*
D03*
X366862Y46454D02*
D03*
X358496Y82084D02*
D03*
X356626Y76376D02*
D03*
X414744Y109231D02*
D03*
X409677Y109249D02*
D03*
Y104722D02*
D03*
X402295Y113285D02*
D03*
X404559Y109046D02*
D03*
Y104519D02*
D03*
X400670Y99419D02*
D03*
X397275Y102852D02*
D03*
X404705Y97549D02*
D03*
X414598Y97734D02*
D03*
X409677Y99998D02*
D03*
Y94092D02*
D03*
X367456Y97734D02*
D03*
X379759Y113100D02*
D03*
X377496Y109046D02*
D03*
X372377Y109249D02*
D03*
X367310Y109231D02*
D03*
X384779Y102852D02*
D03*
X377496Y104519D02*
D03*
X381385Y99419D02*
D03*
X377349Y97549D02*
D03*
X372377Y104722D02*
D03*
X367310Y104704D02*
D03*
X372377Y99998D02*
D03*
Y94092D02*
D03*
X367688Y221297D02*
D03*
X356674Y205767D02*
D03*
X345581Y207184D02*
D03*
X357919Y218906D02*
D03*
X423559Y128350D02*
D03*
X404785Y181357D02*
D03*
X410907Y189625D02*
D03*
X411064Y194487D02*
D03*
X416025Y201535D02*
D03*
X362602Y167983D02*
D03*
X412383Y201633D02*
D03*
X366222Y167873D02*
D03*
X413269Y206062D02*
D03*
X411001Y167802D02*
D03*
X414601Y167902D02*
D03*
X409627Y206161D02*
D03*
X403221Y217261D02*
D03*
X382314Y221257D02*
D03*
X380100Y218365D02*
D03*
X366501Y209602D02*
D03*
X371371Y181667D02*
D03*
X353574Y124112D02*
D03*
X371733Y178011D02*
D03*
X355446Y127563D02*
D03*
X375966Y175550D02*
D03*
X355601Y144702D02*
D03*
X379501Y173902D02*
D03*
X356182Y141102D02*
D03*
X384866Y172337D02*
D03*
X385701Y126802D02*
D03*
X396201Y127302D02*
D03*
X392177Y172337D02*
D03*
X395701Y168702D02*
D03*
X392001Y160202D02*
D03*
X397601Y130702D02*
D03*
X397501Y174202D02*
D03*
X394001Y155802D02*
D03*
X401101Y174802D02*
D03*
X395401Y142502D02*
D03*
X425720Y131297D02*
D03*
X406301Y177702D02*
D03*
X417008Y141238D02*
D03*
X418633Y127557D02*
D03*
X413662Y141220D02*
D03*
X414744Y137184D02*
D03*
Y132657D02*
D03*
X411645Y127557D02*
D03*
X414598Y125687D02*
D03*
X368392Y141220D02*
D03*
X370409Y127557D02*
D03*
X367310Y132657D02*
D03*
X367456Y125687D02*
D03*
X365046Y141238D02*
D03*
X367310Y137184D02*
D03*
X362728Y134840D02*
D03*
X385101Y160202D02*
D03*
X381732Y168402D02*
D03*
X379759Y141053D02*
D03*
X382353Y134637D02*
D03*
X384501Y131102D02*
D03*
X381385Y127372D02*
D03*
X376413Y141035D02*
D03*
X377496Y132472D02*
D03*
Y136999D02*
D03*
X377393Y125883D02*
D03*
X374396Y127372D02*
D03*
X405641Y141220D02*
D03*
X404559Y137184D02*
D03*
X407658Y127557D02*
D03*
X404559Y132657D02*
D03*
X404705Y125687D02*
D03*
X402295Y141238D02*
D03*
X422477Y76575D02*
D03*
Y70178D02*
D03*
X420607Y82284D02*
D03*
X399701Y134822D02*
D03*
X400670Y127557D02*
D03*
X414598Y43206D02*
D03*
X411153Y46749D02*
D03*
X411645Y43206D02*
D03*
X368633Y43305D02*
D03*
X365878D02*
D03*
X356626Y69978D02*
D03*
X286161Y221595D02*
D03*
X276391Y219204D02*
D03*
X300787Y221555D02*
D03*
X131151Y232972D02*
D03*
X127559Y238307D02*
D03*
X16225Y205850D02*
D03*
X159646Y256496D02*
D03*
X167421D02*
D03*
X236221Y305413D02*
D03*
X71000Y259700D02*
D03*
X66100Y259648D02*
D03*
X60600Y260948D02*
D03*
X56900Y260600D02*
D03*
X51819Y262269D02*
D03*
X82776Y109547D02*
D03*
Y100295D02*
D03*
Y94390D02*
D03*
X50595Y109344D02*
D03*
X57878Y103150D02*
D03*
X75394Y113583D02*
D03*
X82776Y105020D02*
D03*
X52858Y113398D02*
D03*
X50595Y104817D02*
D03*
X87843Y109529D02*
D03*
X77658Y109344D02*
D03*
X70374Y103150D02*
D03*
X45476Y94390D02*
D03*
Y100295D02*
D03*
Y109547D02*
D03*
X40409Y109529D02*
D03*
X77658Y104817D02*
D03*
X62992Y74114D02*
D03*
X54483Y99717D02*
D03*
X45476Y105020D02*
D03*
X40409Y105001D02*
D03*
X32800Y185600D02*
D03*
X68898Y113583D02*
D03*
X59744Y113484D02*
D03*
X92701Y135120D02*
D03*
X58348Y219368D02*
D03*
X62795Y92815D02*
D03*
X56102D02*
D03*
X69098D02*
D03*
X69095Y86614D02*
D03*
Y80020D02*
D03*
X56106Y86614D02*
D03*
X69095Y74213D02*
D03*
X56106Y80020D02*
D03*
Y74013D02*
D03*
X39961Y46752D02*
D03*
X31594Y82382D02*
D03*
X29724Y76673D02*
D03*
X73769Y99717D02*
D03*
X77804Y97847D02*
D03*
X87697Y98032D02*
D03*
X40555D02*
D03*
X50448Y97847D02*
D03*
X57000Y228000D02*
D03*
X29773Y206065D02*
D03*
X29900Y212600D02*
D03*
X96658Y128648D02*
D03*
X77883Y181655D02*
D03*
X84005Y189923D02*
D03*
X84163Y194785D02*
D03*
X89124Y201832D02*
D03*
X35701Y168281D02*
D03*
X85482Y201931D02*
D03*
X39320Y168171D02*
D03*
X86368Y206360D02*
D03*
X84100Y168100D02*
D03*
X87700Y168200D02*
D03*
X82726Y206458D02*
D03*
X84350Y214567D02*
D03*
X76378Y217618D02*
D03*
X60039Y222933D02*
D03*
X53198Y218663D02*
D03*
X44470Y181965D02*
D03*
X26673Y124409D02*
D03*
X44832Y178309D02*
D03*
X28545Y127861D02*
D03*
X49065Y175848D02*
D03*
X28700Y145000D02*
D03*
X52600Y174200D02*
D03*
X29281Y141399D02*
D03*
X57964Y172635D02*
D03*
X58800Y127100D02*
D03*
X69300Y127600D02*
D03*
X65276Y172635D02*
D03*
X68800Y169000D02*
D03*
X65100Y160500D02*
D03*
X70700Y131000D02*
D03*
X70600Y174500D02*
D03*
X67100Y156100D02*
D03*
X74200Y175100D02*
D03*
X68500Y142800D02*
D03*
X98819Y131595D02*
D03*
X79400Y178000D02*
D03*
X49360Y232972D02*
D03*
X30294Y224683D02*
D03*
X90107Y141535D02*
D03*
X91732Y127854D02*
D03*
X86761Y141517D02*
D03*
X87843Y137482D02*
D03*
Y132954D02*
D03*
X84744Y127854D02*
D03*
X87697Y125984D02*
D03*
X41491Y141517D02*
D03*
X43508Y127854D02*
D03*
X40409Y137482D02*
D03*
Y132954D02*
D03*
X40555Y125984D02*
D03*
X38145Y141535D02*
D03*
X35827Y135138D02*
D03*
X75590Y221949D02*
D03*
X87697Y43504D02*
D03*
X84252Y47047D02*
D03*
X84744Y43504D02*
D03*
X41732Y43602D02*
D03*
X38976D02*
D03*
X29724Y70276D02*
D03*
X58200Y160500D02*
D03*
X54831Y168700D02*
D03*
X52858Y141350D02*
D03*
X55452Y134935D02*
D03*
X57600Y131400D02*
D03*
X54483Y127669D02*
D03*
X49512Y141332D02*
D03*
X50595Y132769D02*
D03*
Y137297D02*
D03*
X50492Y126181D02*
D03*
X47495Y127669D02*
D03*
X78740Y141517D02*
D03*
X80757Y127854D02*
D03*
X77658Y137482D02*
D03*
Y132954D02*
D03*
X75394Y141535D02*
D03*
X95576Y76873D02*
D03*
Y70476D02*
D03*
X93705Y82582D02*
D03*
X77804Y125984D02*
D03*
X73769Y127854D02*
D03*
X72800Y135120D02*
D03*
X649214Y109344D02*
D03*
X641931Y103150D02*
D03*
X640654Y92815D02*
D03*
X634352D02*
D03*
X640651Y86614D02*
D03*
X617033Y94390D02*
D03*
Y100295D02*
D03*
Y109547D02*
D03*
X624415Y113398D02*
D03*
X649214Y104817D02*
D03*
X626040Y99717D02*
D03*
X640651Y80020D02*
D03*
X634549Y74114D02*
D03*
X640651Y74213D02*
D03*
X617033Y105020D02*
D03*
X659400Y109529D02*
D03*
X654332Y109547D02*
D03*
Y100295D02*
D03*
Y94390D02*
D03*
X629435Y103150D02*
D03*
X627659Y92815D02*
D03*
X627662Y86614D02*
D03*
X622151Y109344D02*
D03*
X611965Y109529D02*
D03*
X654332Y105020D02*
D03*
X646950Y113583D02*
D03*
X627662Y80020D02*
D03*
Y74013D02*
D03*
X622151Y104817D02*
D03*
X611965Y105001D02*
D03*
X604357Y185600D02*
D03*
X640454Y113583D02*
D03*
X631301Y113484D02*
D03*
X664258Y135120D02*
D03*
X629905Y219368D02*
D03*
X611517Y46752D02*
D03*
X603151Y82382D02*
D03*
X601281Y76673D02*
D03*
X649361Y97847D02*
D03*
X645325Y99717D02*
D03*
X659254Y98032D02*
D03*
X612112D02*
D03*
X622005Y97847D02*
D03*
X628557Y228000D02*
D03*
X601330Y206065D02*
D03*
X601457Y212600D02*
D03*
X670376Y131595D02*
D03*
X650957Y178000D02*
D03*
X645757Y175100D02*
D03*
X640057Y142800D02*
D03*
X642157Y174500D02*
D03*
X638657Y156100D02*
D03*
X640357Y169000D02*
D03*
X636657Y160500D02*
D03*
X642257Y131000D02*
D03*
X640857Y127600D02*
D03*
X636833Y172635D02*
D03*
X629521D02*
D03*
X630357Y127100D02*
D03*
X624157Y174200D02*
D03*
X600838Y141399D02*
D03*
X620621Y175848D02*
D03*
X600257Y145000D02*
D03*
X616389Y178309D02*
D03*
X600101Y127861D02*
D03*
X616026Y181965D02*
D03*
X598230Y124409D02*
D03*
X611157Y209900D02*
D03*
X624755Y218663D02*
D03*
X631596Y222933D02*
D03*
X647935Y217618D02*
D03*
X655907Y214567D02*
D03*
X659257Y168200D02*
D03*
X654283Y206458D02*
D03*
X657924Y206360D02*
D03*
X655657Y168100D02*
D03*
X657039Y201931D02*
D03*
X610877Y168171D02*
D03*
X660680Y201832D02*
D03*
X607258Y168281D02*
D03*
X655720Y194785D02*
D03*
X655562Y189923D02*
D03*
X668215Y128648D02*
D03*
X649440Y181655D02*
D03*
X612354Y232972D02*
D03*
X620917D02*
D03*
X601850Y224683D02*
D03*
X661664Y141535D02*
D03*
X663289Y127854D02*
D03*
X658317Y141517D02*
D03*
X659400Y137482D02*
D03*
Y132954D02*
D03*
X656301Y127854D02*
D03*
X659254Y125984D02*
D03*
X613048Y141517D02*
D03*
X611965Y137482D02*
D03*
X615065Y127854D02*
D03*
X612112Y125984D02*
D03*
X609702Y141535D02*
D03*
X611965Y132954D02*
D03*
X607383Y135138D02*
D03*
X629757Y160500D02*
D03*
X626388Y168700D02*
D03*
X624415Y141350D02*
D03*
X627009Y134935D02*
D03*
X629157Y131400D02*
D03*
X626040Y127669D02*
D03*
X621068Y141332D02*
D03*
X622151Y132769D02*
D03*
Y137297D02*
D03*
X622049Y126181D02*
D03*
X619052Y127669D02*
D03*
X650297Y141517D02*
D03*
X649214Y137482D02*
D03*
X652313Y127854D02*
D03*
X649214Y132954D02*
D03*
X649361Y125984D02*
D03*
X646950Y141535D02*
D03*
X667132Y76873D02*
D03*
Y70476D02*
D03*
X665262Y82582D02*
D03*
X644356Y135120D02*
D03*
X645325Y127854D02*
D03*
X647147Y221949D02*
D03*
X659254Y43504D02*
D03*
X655809Y47047D02*
D03*
X656301Y43504D02*
D03*
X613289Y43602D02*
D03*
X610533D02*
D03*
X601281Y70276D02*
D03*
X567914Y109344D02*
D03*
X560631Y103150D02*
D03*
X559354Y92815D02*
D03*
X553052D02*
D03*
X559351Y86614D02*
D03*
X535733Y94390D02*
D03*
Y100295D02*
D03*
Y109547D02*
D03*
X543115Y113398D02*
D03*
X567914Y104817D02*
D03*
X544740Y99717D02*
D03*
X559351Y80020D02*
D03*
X553249Y74114D02*
D03*
X559351Y74213D02*
D03*
X535733Y105020D02*
D03*
X578100Y109529D02*
D03*
X573032Y109547D02*
D03*
Y100295D02*
D03*
Y94390D02*
D03*
X548135Y103150D02*
D03*
X546359Y92815D02*
D03*
X546362Y86614D02*
D03*
X540851Y109344D02*
D03*
X530665Y109529D02*
D03*
X573032Y105020D02*
D03*
X565650Y113583D02*
D03*
X546362Y80020D02*
D03*
Y74013D02*
D03*
X540851Y104817D02*
D03*
X530665Y105001D02*
D03*
X523057Y185600D02*
D03*
X559154Y113583D02*
D03*
X550001Y113484D02*
D03*
X582958Y135120D02*
D03*
X548605Y219368D02*
D03*
X530217Y46752D02*
D03*
X521851Y82382D02*
D03*
X519981Y76673D02*
D03*
X568061Y97847D02*
D03*
X564025Y99717D02*
D03*
X577953Y98032D02*
D03*
X530812D02*
D03*
X540705Y97847D02*
D03*
X547257Y228000D02*
D03*
X520030Y206065D02*
D03*
X520157Y212600D02*
D03*
X589076Y131595D02*
D03*
X569657Y178000D02*
D03*
X564457Y175100D02*
D03*
X558757Y142800D02*
D03*
X560857Y174500D02*
D03*
X557357Y156100D02*
D03*
X559057Y169000D02*
D03*
X555357Y160500D02*
D03*
X560957Y131000D02*
D03*
X559557Y127600D02*
D03*
X555533Y172635D02*
D03*
X548221D02*
D03*
X549057Y127100D02*
D03*
X542857Y174200D02*
D03*
X519538Y141399D02*
D03*
X539321Y175848D02*
D03*
X518957Y145000D02*
D03*
X535089Y178309D02*
D03*
X518801Y127861D02*
D03*
X534726Y181965D02*
D03*
X516930Y124409D02*
D03*
X529857Y209900D02*
D03*
X543455Y218663D02*
D03*
X550296Y222933D02*
D03*
X566635Y217618D02*
D03*
X574607Y214567D02*
D03*
X577957Y168200D02*
D03*
X572983Y206458D02*
D03*
X576624Y206360D02*
D03*
X574357Y168100D02*
D03*
X575739Y201931D02*
D03*
X529577Y168171D02*
D03*
X579380Y201832D02*
D03*
X525958Y168281D02*
D03*
X574420Y194785D02*
D03*
X574262Y189923D02*
D03*
X586915Y128648D02*
D03*
X568140Y181655D02*
D03*
X531053Y232972D02*
D03*
X539616D02*
D03*
X520550Y224683D02*
D03*
X580364Y141535D02*
D03*
X581989Y127854D02*
D03*
X577017Y141517D02*
D03*
X578100Y137482D02*
D03*
Y132954D02*
D03*
X575001Y127854D02*
D03*
X577953Y125984D02*
D03*
X531748Y141517D02*
D03*
X530665Y137482D02*
D03*
X533765Y127854D02*
D03*
X530812Y125984D02*
D03*
X528402Y141535D02*
D03*
X530665Y132954D02*
D03*
X526084Y135138D02*
D03*
X548457Y160500D02*
D03*
X545088Y168700D02*
D03*
X543115Y141350D02*
D03*
X545709Y134935D02*
D03*
X547857Y131400D02*
D03*
X544740Y127669D02*
D03*
X539769Y141332D02*
D03*
X540851Y132769D02*
D03*
Y137297D02*
D03*
X540749Y126181D02*
D03*
X537752Y127669D02*
D03*
X568997Y141517D02*
D03*
X567914Y137482D02*
D03*
X571013Y127854D02*
D03*
X567914Y132954D02*
D03*
X568061Y125984D02*
D03*
X565650Y141535D02*
D03*
X585832Y76873D02*
D03*
Y70476D02*
D03*
X583962Y82582D02*
D03*
X563056Y135120D02*
D03*
X564025Y127854D02*
D03*
X565847Y221949D02*
D03*
X577953Y43504D02*
D03*
X574509Y47047D02*
D03*
X575001Y43504D02*
D03*
X531989Y43602D02*
D03*
X529233D02*
D03*
X519981Y70276D02*
D03*
X486614Y109344D02*
D03*
X479331Y103150D02*
D03*
X478054Y92815D02*
D03*
X471752D02*
D03*
X478051Y86614D02*
D03*
X454433Y100295D02*
D03*
Y109547D02*
D03*
X461815Y113398D02*
D03*
X486614Y104817D02*
D03*
X463440Y99717D02*
D03*
X478051Y80020D02*
D03*
X471949Y74114D02*
D03*
X478051Y74213D02*
D03*
X454433Y105020D02*
D03*
X496800Y109529D02*
D03*
X491732Y109547D02*
D03*
Y100295D02*
D03*
Y94390D02*
D03*
X466835Y103150D02*
D03*
X465059Y92815D02*
D03*
X465062Y86614D02*
D03*
X459551Y109344D02*
D03*
X449365Y109529D02*
D03*
X491732Y105020D02*
D03*
X484350Y113583D02*
D03*
X465062Y80020D02*
D03*
Y74013D02*
D03*
X459551Y104817D02*
D03*
X449365Y105001D02*
D03*
X441757Y185600D02*
D03*
X477854Y113583D02*
D03*
X468701Y113484D02*
D03*
X501658Y135120D02*
D03*
X467305Y219368D02*
D03*
X448917Y46752D02*
D03*
X440551Y82382D02*
D03*
X438681Y76673D02*
D03*
X486761Y97847D02*
D03*
X482725Y99717D02*
D03*
X496654Y98032D02*
D03*
X449512D02*
D03*
X459405Y97847D02*
D03*
X465957Y228000D02*
D03*
X438730Y206065D02*
D03*
X438857Y212600D02*
D03*
X507776Y131595D02*
D03*
X488357Y178000D02*
D03*
X483157Y175100D02*
D03*
X477457Y142800D02*
D03*
X479557Y174500D02*
D03*
X476057Y156100D02*
D03*
X477757Y169000D02*
D03*
X474057Y160500D02*
D03*
X479657Y131000D02*
D03*
X478257Y127600D02*
D03*
X474233Y172635D02*
D03*
X466921D02*
D03*
X467757Y127100D02*
D03*
X461557Y174200D02*
D03*
X438238Y141399D02*
D03*
X458021Y175848D02*
D03*
X437657Y145000D02*
D03*
X453789Y178309D02*
D03*
X437501Y127861D02*
D03*
X453427Y181965D02*
D03*
X435630Y124409D02*
D03*
X448557Y209900D02*
D03*
X462155Y218663D02*
D03*
X468996Y222933D02*
D03*
X485335Y217618D02*
D03*
X493307Y214567D02*
D03*
X496657Y168200D02*
D03*
X491683Y206458D02*
D03*
X495324Y206360D02*
D03*
X493057Y168100D02*
D03*
X494439Y201931D02*
D03*
X448277Y168171D02*
D03*
X498080Y201832D02*
D03*
X444658Y168281D02*
D03*
X493120Y194785D02*
D03*
X492962Y189923D02*
D03*
X505615Y128648D02*
D03*
X486840Y181655D02*
D03*
X449754Y232972D02*
D03*
X458317D02*
D03*
X439250Y224683D02*
D03*
X499064Y141535D02*
D03*
X500689Y127854D02*
D03*
X495717Y141517D02*
D03*
X496800Y137482D02*
D03*
Y132954D02*
D03*
X493701Y127854D02*
D03*
X496654Y125984D02*
D03*
X450448Y141517D02*
D03*
X449365Y137482D02*
D03*
X452465Y127854D02*
D03*
X449512Y125984D02*
D03*
X447102Y141535D02*
D03*
X449365Y132954D02*
D03*
X444783Y135138D02*
D03*
X467157Y160500D02*
D03*
X463788Y168700D02*
D03*
X461815Y141350D02*
D03*
X464409Y134935D02*
D03*
X466557Y131400D02*
D03*
X463440Y127669D02*
D03*
X458468Y141332D02*
D03*
X459551Y132769D02*
D03*
Y137297D02*
D03*
X459449Y126181D02*
D03*
X456452Y127669D02*
D03*
X487697Y141517D02*
D03*
X486614Y137482D02*
D03*
X489713Y127854D02*
D03*
X486614Y132954D02*
D03*
X486761Y125984D02*
D03*
X484350Y141535D02*
D03*
X504532Y76873D02*
D03*
Y70476D02*
D03*
X502662Y82582D02*
D03*
X481756Y135120D02*
D03*
X482725Y127854D02*
D03*
X484547Y221949D02*
D03*
X496654Y43504D02*
D03*
X493209Y47047D02*
D03*
X493701Y43504D02*
D03*
X450689Y43602D02*
D03*
X447933D02*
D03*
X438681Y70276D02*
D03*
X328150Y109547D02*
D03*
Y100295D02*
D03*
Y94390D02*
D03*
X295969Y109344D02*
D03*
X303252Y103150D02*
D03*
X320768Y113583D02*
D03*
X328150Y105020D02*
D03*
X298232Y113398D02*
D03*
X295969Y104817D02*
D03*
X333217Y109529D02*
D03*
X323031Y109344D02*
D03*
X315748Y103150D02*
D03*
X290850Y94390D02*
D03*
Y100295D02*
D03*
Y109547D02*
D03*
X285783Y109529D02*
D03*
X323031Y104817D02*
D03*
X308366Y74114D02*
D03*
X299857Y99717D02*
D03*
X290850Y105020D02*
D03*
X285783Y105001D02*
D03*
X278174Y185600D02*
D03*
X314272Y113583D02*
D03*
X305118Y113484D02*
D03*
X338075Y135120D02*
D03*
X303722Y219368D02*
D03*
X314472Y92815D02*
D03*
X308169D02*
D03*
X301476D02*
D03*
X314469Y86614D02*
D03*
Y80020D02*
D03*
X301480D02*
D03*
Y86614D02*
D03*
X314469Y74213D02*
D03*
X301480Y74013D02*
D03*
X285335Y46752D02*
D03*
X276969Y82382D02*
D03*
X275098Y76673D02*
D03*
X319143Y99717D02*
D03*
X323178Y97847D02*
D03*
X333071Y98032D02*
D03*
X285929D02*
D03*
X295822Y97847D02*
D03*
X275147Y206065D02*
D03*
X342032Y128648D02*
D03*
X323257Y181655D02*
D03*
X329380Y189923D02*
D03*
X329537Y194785D02*
D03*
X334498Y201832D02*
D03*
X281075Y168281D02*
D03*
X330856Y201931D02*
D03*
X284695Y168171D02*
D03*
X331742Y206360D02*
D03*
X329474Y168100D02*
D03*
X333074Y168200D02*
D03*
X328100Y206458D02*
D03*
X298572Y218663D02*
D03*
X284974Y209900D02*
D03*
X289844Y181965D02*
D03*
X272047Y124409D02*
D03*
X290206Y178309D02*
D03*
X273919Y127861D02*
D03*
X294439Y175848D02*
D03*
X274074Y145000D02*
D03*
X297974Y174200D02*
D03*
X274655Y141399D02*
D03*
X303339Y172635D02*
D03*
X304174Y127100D02*
D03*
X314674Y127600D02*
D03*
X310650Y172635D02*
D03*
X314174Y169000D02*
D03*
X310474Y160500D02*
D03*
X316074Y131000D02*
D03*
X315974Y174500D02*
D03*
X312474Y156100D02*
D03*
X319574Y175100D02*
D03*
X313874Y142800D02*
D03*
X344193Y131595D02*
D03*
X324774Y178000D02*
D03*
X335481Y141535D02*
D03*
X337106Y127854D02*
D03*
X332135Y141517D02*
D03*
X333217Y137482D02*
D03*
Y132954D02*
D03*
X330118Y127854D02*
D03*
X333071Y125984D02*
D03*
X286865Y141517D02*
D03*
X288882Y127854D02*
D03*
X285783Y137482D02*
D03*
Y132954D02*
D03*
X285929Y125984D02*
D03*
X283519Y141535D02*
D03*
X281201Y135138D02*
D03*
X333071Y43504D02*
D03*
X329626Y47047D02*
D03*
X330118Y43504D02*
D03*
X287106Y43602D02*
D03*
X284350D02*
D03*
X275098Y70276D02*
D03*
X303574Y160500D02*
D03*
X300205Y168700D02*
D03*
X298232Y141350D02*
D03*
X300826Y134935D02*
D03*
X302974Y131400D02*
D03*
X299857Y127669D02*
D03*
X294886Y141332D02*
D03*
X295969Y132769D02*
D03*
Y137297D02*
D03*
X295866Y126181D02*
D03*
X292869Y127669D02*
D03*
X324114Y141517D02*
D03*
X326131Y127854D02*
D03*
X323031Y137482D02*
D03*
Y132954D02*
D03*
X320768Y141535D02*
D03*
X340950Y76873D02*
D03*
Y70476D02*
D03*
X339079Y82582D02*
D03*
X323178Y125984D02*
D03*
X319143Y127854D02*
D03*
X318174Y135120D02*
D03*
X138791Y228000D02*
D03*
X122588Y232972D02*
D03*
X439019Y380901D02*
D03*
X267799Y430194D02*
D03*
X480947Y435198D02*
D03*
X491995Y419498D02*
D03*
X451838Y413321D02*
D03*
X451857Y424311D02*
D03*
X476095Y410798D02*
D03*
X347468Y318727D02*
D03*
X49200Y383081D02*
D03*
X145008Y299493D02*
D03*
X209273Y392905D02*
D03*
X135275Y315032D02*
D03*
X508112Y370797D02*
D03*
X295005Y336603D02*
D03*
X139693Y292406D02*
D03*
X22017Y190566D02*
D03*
X349043Y340143D02*
D03*
X323539Y338765D02*
D03*
X330933Y328135D02*
D03*
X310174Y339694D02*
D03*
X648643Y373808D02*
D03*
Y377057D02*
D03*
X616813Y278356D02*
D03*
X613467D02*
D03*
X60864Y427133D02*
D03*
X60480Y423292D02*
D03*
X62513Y430693D02*
D03*
X446597Y376714D02*
D03*
X658900Y332358D02*
D03*
X653562D02*
D03*
X165594Y394651D02*
D03*
X172385Y384611D02*
D03*
X479410Y405831D02*
D03*
Y409374D02*
D03*
X482462Y409276D02*
D03*
X482658Y405831D02*
D03*
X148928Y394355D02*
D03*
X60273Y360102D02*
D03*
X214300Y302900D02*
D03*
X201287Y369148D02*
D03*
X212000Y342648D02*
D03*
X206800Y307600D02*
D03*
X32500Y271800D02*
D03*
X136400Y349948D02*
D03*
X161900Y369948D02*
D03*
X201274Y365230D02*
D03*
X170100Y404200D02*
D03*
X185700Y403885D02*
D03*
X194440Y365182D02*
D03*
X112524Y361202D02*
D03*
X156400Y324048D02*
D03*
X85400Y318948D02*
D03*
X132438Y315009D02*
D03*
X126831Y339623D02*
D03*
X153800Y340400D02*
D03*
X153698Y354813D02*
D03*
X182008Y369757D02*
D03*
X182000Y366148D02*
D03*
X139500Y362048D02*
D03*
X56004Y372131D02*
D03*
X93919Y354980D02*
D03*
X162800Y361300D02*
D03*
X677687Y264183D02*
D03*
X671502Y250614D02*
D03*
X677785Y257785D02*
D03*
X677687Y271171D02*
D03*
X673061Y278356D02*
D03*
X666467D02*
D03*
X669813D02*
D03*
X651066Y365898D02*
D03*
X662113Y365832D02*
D03*
X674232Y365976D02*
D03*
X655716Y365734D02*
D03*
X669102Y365832D02*
D03*
X676287Y377053D02*
D03*
Y373706D02*
D03*
X620061Y278356D02*
D03*
X610219D02*
D03*
X597458Y446016D02*
D03*
X605036D02*
D03*
X601198D02*
D03*
X614288D02*
D03*
X618127D02*
D03*
X610548D02*
D03*
X35048Y397441D02*
D03*
X17999Y400629D02*
D03*
X18039Y406712D02*
D03*
X51793Y430234D02*
D03*
X51649Y426289D02*
D03*
X51597Y422448D02*
D03*
X156473Y334566D02*
D03*
X206613Y368464D02*
D03*
X97900Y354600D02*
D03*
X153900Y307300D02*
D03*
X670600Y332358D02*
D03*
X665900D02*
D03*
X653796Y312156D02*
D03*
X65100Y409300D02*
D03*
X41900Y379381D02*
D03*
X41600Y386781D02*
D03*
X164300Y306600D02*
D03*
Y302900D02*
D03*
X161891Y366176D02*
D03*
X171751Y369746D02*
D03*
X566592Y348397D02*
D03*
X122731Y411587D02*
D03*
X153000Y368022D02*
D03*
X132900Y368300D02*
D03*
X206615Y371967D02*
D03*
X157587Y307293D02*
D03*
X485412Y321897D02*
D03*
X578122Y308462D02*
D03*
X574086Y308561D02*
D03*
X534618Y308265D02*
D03*
X515412Y321697D02*
D03*
X527912Y321897D02*
D03*
X563112Y323697D02*
D03*
Y332797D02*
D03*
X607111Y332797D02*
D03*
Y323697D02*
D03*
X572912Y321897D02*
D03*
X562812Y315197D02*
D03*
X607011Y314997D02*
D03*
X152817Y324214D02*
D03*
X153337Y334554D02*
D03*
X175900Y418537D02*
D03*
X180926Y418562D02*
D03*
X185862Y418562D02*
D03*
X190878Y418532D02*
D03*
X195904Y418612D02*
D03*
X607955Y413649D02*
D03*
X201800Y388900D02*
D03*
X136000Y399100D02*
D03*
X138400Y397400D02*
D03*
Y394500D02*
D03*
X136100Y392700D02*
D03*
X118585Y398626D02*
D03*
X129874Y399086D02*
D03*
X127574Y397286D02*
D03*
Y394386D02*
D03*
X129973Y392686D02*
D03*
X636182Y421202D02*
D03*
X618195Y411778D02*
D03*
X499862Y352833D02*
D03*
X107589Y360597D02*
D03*
X157800Y399200D02*
D03*
X451987Y420721D02*
D03*
X40168Y407721D02*
D03*
X14075Y317308D02*
D03*
X18799Y315635D02*
D03*
X9800Y316200D02*
D03*
X30300Y303000D02*
D03*
X201800Y392000D02*
D03*
X157381Y354818D02*
D03*
X211600Y370600D02*
D03*
X133600Y349800D02*
D03*
X130900Y334400D02*
D03*
X127800D02*
D03*
X114700Y284600D02*
D03*
X22300Y259000D02*
D03*
X80500Y317900D02*
D03*
X50900Y298600D02*
D03*
X32372Y308253D02*
D03*
X30798Y264060D02*
D03*
X14370Y259093D02*
D03*
X42283Y313466D02*
D03*
X27500Y293548D02*
D03*
X32700Y289848D02*
D03*
X41400Y283248D02*
D03*
X41000Y277148D02*
D03*
X32500Y277748D02*
D03*
X121900Y309800D02*
D03*
X130224Y289099D02*
D03*
X120500Y282400D02*
D03*
X127171Y289094D02*
D03*
X122871Y294910D02*
D03*
X194437Y368863D02*
D03*
X119036Y411285D02*
D03*
X22587Y397899D02*
D03*
X17764Y412859D02*
D03*
X198768Y430379D02*
D03*
X542235Y352200D02*
D03*
X586177Y352102D02*
D03*
X229700Y378748D02*
D03*
X221300Y397148D02*
D03*
G54D118*
X379035Y377700D02*
D03*
X399035D02*
D03*
X379035Y353700D02*
D03*
X399035D02*
D03*
X436024Y285945D02*
D03*
Y275945D02*
D03*
Y265945D02*
D03*
Y327520D02*
D03*
Y317520D02*
D03*
Y307520D02*
D03*
X459842Y265945D02*
D03*
Y275945D02*
D03*
Y285945D02*
D03*
Y307421D02*
D03*
Y317421D02*
D03*
Y327421D02*
D03*
X8600Y445200D02*
D03*
X303000Y309100D02*
D03*
X275700Y353700D02*
D03*
X255700D02*
D03*
X337800D02*
D03*
X357800D02*
D03*
X296750D02*
D03*
X316750D02*
D03*
X357800Y377700D02*
D03*
X337800D02*
D03*
X316750D02*
D03*
X296750D02*
D03*
X275700D02*
D03*
X255700D02*
D03*
X334500Y309100D02*
D03*
X271300D02*
D03*
G54D209*
X371058Y319992D02*
D03*
X366728D02*
D03*
Y324323D02*
D03*
X371058D02*
D03*
X650501Y431294D02*
D03*
X654501D02*
D03*
X646501D02*
D03*
X642501D02*
D03*
Y435294D02*
D03*
Y439294D02*
D03*
X646501D02*
D03*
Y435294D02*
D03*
X650501D02*
D03*
Y439294D02*
D03*
X654501D02*
D03*
Y435294D02*
D03*
Y427294D02*
D03*
Y423294D02*
D03*
X650501D02*
D03*
Y427294D02*
D03*
X646501D02*
D03*
Y423294D02*
D03*
X642501D02*
D03*
Y427294D02*
D03*
X553166Y432807D02*
D03*
X585235Y442718D02*
D03*
G54D326*
X35700Y357721D02*
D03*
X43600D02*
D03*
Y347800D02*
D03*
G54D331*
X45440Y373948D02*
X44800Y374588D01*
X44160Y373948D01*
X44800Y373308D01*
X45440Y373948D01*
X39240Y366048D02*
X38600Y366688D01*
X37960Y366048D01*
X38600Y365408D01*
X39240Y366048D01*
G54D332*
X459212Y470800D02*
D03*
X349606Y15000D02*
D03*
X732600Y14800D02*
D03*
X15000Y15000D02*
D03*
Y470800D02*
D03*
X732600D02*
D03*
G54D333*
X459212Y480800D02*
D03*
Y460800D02*
D03*
X449212Y470800D02*
D03*
X469212D02*
D03*
X466212Y463800D02*
D03*
X452212D02*
D03*
Y477800D02*
D03*
X466212D02*
D03*
X349606Y25000D02*
D03*
Y5000D02*
D03*
X339606Y15000D02*
D03*
X359606D02*
D03*
X356606Y8000D02*
D03*
X342606D02*
D03*
Y22000D02*
D03*
X356606D02*
D03*
X732600Y4800D02*
D03*
Y24800D02*
D03*
X742600Y14800D02*
D03*
X722600D02*
D03*
X725600Y21800D02*
D03*
X739600D02*
D03*
Y7800D02*
D03*
X725600D02*
D03*
X15000Y5000D02*
D03*
Y25000D02*
D03*
X25000Y15000D02*
D03*
X5000D02*
D03*
X8000Y22000D02*
D03*
X22000D02*
D03*
Y8000D02*
D03*
X8000D02*
D03*
X15000Y460800D02*
D03*
Y480800D02*
D03*
X25000Y470800D02*
D03*
X5000D02*
D03*
X8000Y477800D02*
D03*
X22000D02*
D03*
Y463800D02*
D03*
X8000D02*
D03*
X732600Y460800D02*
D03*
Y480800D02*
D03*
X742600Y470800D02*
D03*
X722600D02*
D03*
X725600Y477800D02*
D03*
X739600D02*
D03*
Y463800D02*
D03*
X725600D02*
D03*
G54D334*
X414560Y471644D02*
D03*
X428339D02*
D03*
Y451959D02*
D03*
X414560D02*
D03*
X376860D02*
D03*
X390640D02*
D03*
Y471644D02*
D03*
X376860D02*
D03*
X339160D02*
D03*
X352940D02*
D03*
Y451959D02*
D03*
X339160D02*
D03*
X301460D02*
D03*
X315240D02*
D03*
Y471644D02*
D03*
X301460D02*
D03*
X263761D02*
D03*
X277540D02*
D03*
Y451959D02*
D03*
X263761D02*
D03*
G54D335*
X692500Y418379D02*
D03*
Y385879D02*
D03*
Y353379D02*
D03*
Y320879D02*
D03*
Y125800D02*
D03*
Y158300D02*
D03*
Y190800D02*
D03*
Y223300D02*
D03*
Y255800D02*
D03*
Y288300D02*
D03*
G54D336*
X389035Y377700D02*
D03*
Y353700D02*
D03*
X8600Y427400D02*
D03*
X293000Y309100D02*
D03*
X265700Y353700D02*
D03*
X347800D02*
D03*
X306750D02*
D03*
X347800Y377700D02*
D03*
X306750D02*
D03*
X265700D02*
D03*
X324500Y309100D02*
D03*
X261300D02*
D03*
G54D337*
X562011Y272495D02*
D03*
Y284306D02*
D03*
X550200Y272495D02*
D03*
Y284306D02*
D03*
X538389Y272495D02*
D03*
Y284306D02*
D03*
X526578Y288006D02*
D03*
X573822D02*
D03*
X616440Y13917D02*
D03*
X651873D02*
D03*
X640062Y17618D02*
D03*
Y29429D02*
D03*
X628251Y17618D02*
D03*
Y29429D02*
D03*
X546951D02*
D03*
Y17618D02*
D03*
X558762Y29429D02*
D03*
Y17618D02*
D03*
X570573Y13917D02*
D03*
X535140D02*
D03*
X453840D02*
D03*
X489273D02*
D03*
X477462Y17618D02*
D03*
Y29429D02*
D03*
X465651Y17618D02*
D03*
Y29429D02*
D03*
X383596Y29131D02*
D03*
Y17320D02*
D03*
X395407Y29131D02*
D03*
Y17320D02*
D03*
X407218Y13620D02*
D03*
X371784D02*
D03*
X290258Y13917D02*
D03*
X325691D02*
D03*
X313879Y17618D02*
D03*
Y29429D02*
D03*
X302068Y17618D02*
D03*
Y29429D02*
D03*
X220013Y29525D02*
D03*
Y17714D02*
D03*
X231824Y29525D02*
D03*
Y17714D02*
D03*
X243635Y14013D02*
D03*
X208202D02*
D03*
X126675Y13917D02*
D03*
X162108D02*
D03*
X150297Y17618D02*
D03*
Y29429D02*
D03*
X138486Y17618D02*
D03*
Y29429D02*
D03*
X56694D02*
D03*
Y17618D02*
D03*
X68506Y29429D02*
D03*
Y17618D02*
D03*
X80317Y13917D02*
D03*
X44883D02*
D03*
G54D338*
X668427Y239764D02*
D03*
X658427D02*
D03*
Y229764D02*
D03*
X648427Y239764D02*
D03*
Y229764D02*
D03*
X638427Y239764D02*
D03*
Y229764D02*
D03*
X587127Y239764D02*
D03*
X577127D02*
D03*
Y229764D02*
D03*
X567127Y239764D02*
D03*
Y229764D02*
D03*
X557127Y239764D02*
D03*
Y229764D02*
D03*
X505827Y239764D02*
D03*
X495827D02*
D03*
Y229764D02*
D03*
X485827Y239764D02*
D03*
Y229764D02*
D03*
X475827Y239764D02*
D03*
Y229764D02*
D03*
X423771Y239466D02*
D03*
X413771D02*
D03*
Y229466D02*
D03*
X403771Y239466D02*
D03*
Y229466D02*
D03*
X393771Y239466D02*
D03*
Y229466D02*
D03*
X364303Y244643D02*
D03*
X354303D02*
D03*
Y234643D02*
D03*
X344303Y244643D02*
D03*
Y234643D02*
D03*
X334303Y244643D02*
D03*
Y234643D02*
D03*
X218397Y239860D02*
D03*
X208397D02*
D03*
Y229860D02*
D03*
X198397Y239860D02*
D03*
Y229860D02*
D03*
X188397Y239860D02*
D03*
Y229860D02*
D03*
X96870Y239764D02*
D03*
X86870D02*
D03*
Y229764D02*
D03*
X76870Y239764D02*
D03*
Y229764D02*
D03*
X66870Y239764D02*
D03*
Y229764D02*
D03*
X136969Y245787D02*
D03*
X126969D02*
D03*
X178661Y239764D02*
D03*
X168661D02*
D03*
Y229764D02*
D03*
X158661Y239764D02*
D03*
Y229764D02*
D03*
X148661Y239764D02*
D03*
Y229764D02*
D03*
X505807Y294055D02*
D03*
Y284055D02*
D03*
Y274055D02*
D03*
Y264055D02*
D03*
X354476Y268686D02*
D03*
X344476Y278686D02*
D03*
Y268686D02*
D03*
X334476Y278686D02*
D03*
Y268686D02*
D03*
X324476Y278686D02*
D03*
Y268686D02*
D03*
X314476Y278686D02*
D03*
X80100Y263400D02*
D03*
X90100D02*
D03*
Y273400D02*
D03*
X100100Y263400D02*
D03*
Y273400D02*
D03*
X110100Y263400D02*
D03*
Y273400D02*
D03*
X120100Y263400D02*
D03*
Y273400D02*
D03*
X130100Y263400D02*
D03*
Y273400D02*
D03*
X140100Y263400D02*
D03*
Y273400D02*
D03*
X150100Y263400D02*
D03*
Y273400D02*
D03*
X160100Y263400D02*
D03*
Y273400D02*
D03*
X170100Y263400D02*
D03*
Y273400D02*
D03*
X180100Y263400D02*
D03*
Y273400D02*
D03*
X190100Y263400D02*
D03*
Y273400D02*
D03*
X110300Y303100D02*
D03*
Y293100D02*
D03*
X100300Y303100D02*
D03*
Y293100D02*
D03*
X90300Y303100D02*
D03*
Y293100D02*
D03*
X80300Y303100D02*
D03*
Y293100D02*
D03*
X70300D02*
D03*
X110300Y340594D02*
D03*
Y330594D02*
D03*
X100300Y340594D02*
D03*
Y330594D02*
D03*
X90300Y340594D02*
D03*
Y330594D02*
D03*
X80300Y340594D02*
D03*
Y330594D02*
D03*
X70300D02*
D03*
G54D339*
X668427Y229764D02*
D03*
X587127D02*
D03*
X505827D02*
D03*
X423771Y229466D02*
D03*
X364303Y234643D02*
D03*
X218397Y229860D02*
D03*
X96870Y229764D02*
D03*
X117205Y245787D02*
D03*
X178661Y229764D02*
D03*
X495807Y294055D02*
D03*
Y284055D02*
D03*
Y274055D02*
D03*
Y264055D02*
D03*
X354476Y278686D02*
D03*
X314476Y268686D02*
D03*
X80100Y273400D02*
D03*
X70300Y303100D02*
D03*
Y340594D02*
D03*
G54D340*
X13189Y242323D02*
D03*
X215500Y267100D02*
D03*
X36900Y433300D02*
D03*
G54D341*
X615519Y257769D02*
D03*
Y271169D02*
D03*
X668519D02*
D03*
Y257769D02*
D03*
X655700Y375000D02*
D03*
X669100D02*
D03*
Y322000D02*
D03*
X655700D02*
D03*
G54D342*
X18400Y422500D02*
D03*
Y450100D02*
D03*
G54D343*
X25000Y329100D02*
D03*
G54D344*
Y376422D02*
D03*
G54D345*
X35700Y347800D02*
D03*
M02*
