<svg width="3258" height="1896" xmlns="http://www.w3.org/2000/svg" xmlns:xlink="http://www.w3.org/1999/xlink" overflow="hidden"><defs><clipPath id="clip0"><rect x="2581" y="4141" width="3258" height="1896"/></clipPath><clipPath id="clip1"><rect x="2581" y="4142" width="3255" height="1892"/></clipPath><clipPath id="clip2"><rect x="2581" y="4142" width="3255" height="1892"/></clipPath><clipPath id="clip3"><rect x="2581" y="4142" width="3255" height="1892"/></clipPath><clipPath id="clip4"><rect x="2581" y="4142" width="3255" height="1892"/></clipPath><clipPath id="clip5"><rect x="2893" y="4417" width="2884" height="1417"/></clipPath><clipPath id="clip6"><rect x="2893" y="4417" width="2884" height="1417"/></clipPath><clipPath id="clip7"><rect x="2581" y="4142" width="3255" height="1892"/></clipPath><clipPath id="clip8"><rect x="2581" y="4142" width="3255" height="1892"/></clipPath><clipPath id="clip9"><rect x="2581" y="4142" width="3255" height="1892"/></clipPath><clipPath id="clip10"><rect x="2581" y="4142" width="3255" height="1892"/></clipPath><clipPath id="clip11"><rect x="2581" y="4142" width="3255" height="1892"/></clipPath><clipPath id="clip12"><rect x="2581" y="4142" width="3255" height="1892"/></clipPath><clipPath id="clip13"><rect x="2581" y="4142" width="3255" height="1892"/></clipPath><clipPath id="clip14"><rect x="2581" y="4142" width="3255" height="1892"/></clipPath><clipPath id="clip15"><rect x="2581" y="4142" width="3255" height="1892"/></clipPath><clipPath id="clip16"><rect x="2581" y="4142" width="3255" height="1892"/></clipPath><clipPath id="clip17"><rect x="2581" y="4142" width="3255" height="1892"/></clipPath><clipPath id="clip18"><rect x="2581" y="4142" width="3255" height="1892"/></clipPath><clipPath id="clip19"><rect x="2581" y="4142" width="3255" height="1892"/></clipPath><clipPath id="clip20"><rect x="2581" y="4142" width="3255" height="1892"/></clipPath><clipPath id="clip21"><rect x="2581" y="4142" width="3255" height="1892"/></clipPath><clipPath id="clip22"><rect x="2581" y="4142" width="3255" height="1892"/></clipPath><clipPath id="clip23"><rect x="2581" y="4142" width="3255" height="1892"/></clipPath><clipPath id="clip24"><rect x="2581" y="4142" width="3255" height="1892"/></clipPath><clipPath id="clip25"><rect x="2581" y="4142" width="3255" height="1892"/></clipPath><clipPath id="clip26"><rect x="2581" y="4142" width="3255" height="1892"/></clipPath><clipPath id="clip27"><rect x="2581" y="4142" width="3255" height="1892"/></clipPath><clipPath id="clip28"><rect x="2581" y="4142" width="3255" height="1892"/></clipPath><clipPath id="clip29"><rect x="2581" y="4142" width="3255" height="1892"/></clipPath><clipPath id="clip30"><rect x="2581" y="4142" width="3255" height="1892"/></clipPath><clipPath id="clip31"><rect x="2581" y="4142" width="3255" height="1892"/></clipPath><clipPath id="clip32"><rect x="2581" y="4142" width="3255" height="1892"/></clipPath></defs><g clip-path="url(#clip0)" transform="translate(-2581 -4141)"><rect x="2582" y="4142" width="3255" height="1893" fill="#FFFFFF"/><g clip-path="url(#clip1)"><path d="M2893.5 5628.68 5774.5 5628.68M2893.5 5426.68 5774.5 5426.68M2893.5 5224.67 5774.5 5224.67M2893.5 5022.67 5774.5 5022.67M2893.5 4820.66 5774.5 4820.66M2893.5 4618.65 5774.5 4618.65M2893.5 4417.5 5774.5 4417.5" stroke="#D9D9D9" stroke-width="3.4375" stroke-linejoin="round" stroke-miterlimit="10" fill="none"/></g><g clip-path="url(#clip2)"><path d="M3181.6 4417.5 3181.6 5831.5M3469.61 4417.5 3469.61 5831.5M3757.62 4417.5 3757.62 5831.5M4045.63 4417.5 4045.63 5831.5M4333.64 4417.5 4333.64 5831.5M4622.65 4417.5 4622.65 5831.5M4910.66 4417.5 4910.66 5831.5M5198.67 4417.5 5198.67 5831.5M5486.68 4417.5 5486.68 5831.5M5774.5 4417.5 5774.5 5831.5" stroke="#D9D9D9" stroke-width="3.4375" stroke-linejoin="round" stroke-miterlimit="10" fill="none"/></g><g clip-path="url(#clip3)"><path d="M0 0 0.000360892 1414" stroke="#BFBFBF" stroke-width="3.4375" stroke-linejoin="round" stroke-miterlimit="10" fill="none" fill-rule="evenodd" transform="matrix(1 0 0 -1 2893.5 5831.5)"/></g><g clip-path="url(#clip4)"><path d="M2893.5 5831.5 5774.5 5831.5" stroke="#BFBFBF" stroke-width="3.4375" stroke-linejoin="round" stroke-miterlimit="10" fill="none" fill-rule="evenodd"/></g><g clip-path="url(#clip5)"><path d="M2893.5 5420.68 2922.6 5420.68 2922.6 5420.68 2922.6 5420.68 2922.6 5420.68 2922.6 5420.68 2922.6 5420.68 2922.6 5420.68 2922.6 5421.5 2922.6 5420.68 2922.6 5420.68 2922.6 5420.68 2922.6 5420.68 2922.6 5420.68 2922.6 5420.68 2922.6 5420.68 2922.6 5420.68 2922.6 5420.68 2922.6 5420.68 2922.6 5420.68 2923.6 5420.68 2923.6 5420.68 2923.6 5420.68 2923.6 5420.68 2923.6 5420.68 2924.6 5420.68 2925.6 5420.68 2926.6 5420.68 2927.6 5420.68 2928.6 5420.68 2929.6 5420.68 2931.6 5420.68 2932.6 5420.68 2933.6 5420.68 2934.6 5420.68 2934.6 5420.68 2935.6 5420.68 2936.6 5420.68 2937.6 5420.68 2937.6 5420.68 2938.6 5420.68 2939.6 5420.68 2941.6 5420.68 2944.6 5420.68 2947.6 5420.68 2950.6 5420.68 2952.6 5420.68 2954.6 5420.68 2957.6 5420.68 2959.6 5420.68 2961.6 5419.68 2964.6 5419.68 2966.6 5419.68 2970.6 5419.68 2974.6 5419.68 2977.6 5419.68 2981.6 5419.68 2985.6 5419.68 2989.6 5419.68 2993.6 5419.68 2999.6 5419.68 3006.6 5419.68 3012.6 5418.68 3018.6 5418.68 3025.6 5418.68 3031.6 5418.68 3038.6 5418.68 3052.6 5418.68 3067.6 5418.68 3081.6 5417.68 3096.6 5417.68 3110.6 5417.68 3125.6 5417.68 3139.6 5417.68 3150.6 5417.68 3161.6 5416.68 3172.6 5416.68 3182.6 5416.68 3193.6 5416.68 3204.61 5416.68 3215.61 5416.68 3225.61 5416.68 3236.61 5416.68 3246.61 5416.68 3257.61 5416.68 3267.61 5416.68 3278.61 5416.68 3288.61 5415.68 3299.61 5415.68 3309.61 5415.68 3319.61 5415.68 3330.61 5415.68 3340.61 5415.68 3351.61 5415.68 3361.61 5415.68 3372.61 5415.68 3382.61 5415.68 3393.61 5415.68 3403.61 5415.68 3413.61 5415.68 3424.61 5415.68 3434.61 5415.68 3445.61 5414.68 3455.61 5414.68 3466.61 5414.68 3476.61 5414.68 3487.61 5414.68 3497.61 5414.68 3507.62 5414.68 3518.62 5414.68 3528.62 5414.68 3539.62 5414.68 3549.62 5414.68 3560.62 5414.68 3570.62 5414.68 3581.62 5414.68 3591.62 5414.68 3601.62 5414.68 3612.62 5414.68 3622.62 5413.68 3633.62 5413.68 3643.62 5413.68 3654.62 5413.68 3664.62 5413.68 3675.62 5413.68 3685.62 5413.68 3696.62 5413.68 3706.62 5413.68 3716.62 5413.68 3727.62 5413.68 3737.62 5413.68 3747.62 5413.68 3757.62 5413.68 3767.62 5413.68 3777.62 5413.68 3787.62 5413.68 3797.62 5413.68 3807.62 5412.68 3816.63 5412.68 3826.63 5412.68 3836.63 5412.68 3845.63 5412.68 3855.63 5412.68 3865.63 5412.68 3874.63 5412.68 3883.63 5412.68 3892.63 5412.68 3902.63 5412.68 3911.63 5412.68 3920.63 5412.68 3929.63 5412.68 3938.63 5412.68 3946.63 5412.68 3955.63 5412.68 3963.63 5412.68 3972.63 5412.68 3980.63 5412.68 3988.63 5412.68 3997.63 5412.68 4005.63 5411.68 4011.63 5411.68 4017.63 5411.68 4022.63 5411.68 4028.63 5411.68 4031.63 5411.68 4033.63 5411.68 4036.63 5411.68 4039.63 5411.68 4042.63 5411.68 4045.63 5411.68 4048.63 5411.68 4050.63 5411.68 4053.63 5411.68 4056.63 5411.68 4059.63 5411.68 4062.63 5411.68 4064.63 5411.68 4067.63 5411.68 4070.63 5411.68 4073.63 5411.68 4076.63 5411.68 4078.63 5411.68 4081.63 5411.68 4084.63 5411.68 4087.63 5411.68 4090.63 5411.68 4095.63 5411.68 4101.63 5411.68 4107.63 5411.68 4115.64 5411.68 4120.64 5411.68 4125.64 5411.68 4129.64 5411.68 4134.64 5411.68 4139.64 5411.68 4144.64 5411.68 4149.64 5411.68 4158.64 5411.68 4167.64 5411.68 4176.64 5411.68 4186.64 5411.68 4195.64 5411.68 4204.64 5411.68 4213.64 5411.68 4244.64 5410.68 4274.64 5410.68 4304.64 5410.68 4334.64 5410.68 4364.64 5410.68 4394.64 5410.68 4424.65 5410.68 4483.65 5410.68 4542.65 5410.68 4600.65 5409.68 4659.65 5409.68 4718.65 5409.68 4776.66 5409.68 4835.66 5409.68 4894.66 5409.68 4953.66 5409.68 5012.66 5409.68 5071.67 5409.68 5130.67 5409.68 5189.67 5409.68 5249.67 5409.68 5287.67 5409.68 5325.67 5409.68 5363.68 5408.68 5401.68 5408.68 5439.68 5408.68 5478.68 5408.68 5516.68 5408.68 5519.68 5408.68 5554.68 5408.68 5590.68 5408.68 5626.68 5408.68 5662.69 5408.68 5697.69 5408.68 5733.69 5408.68 5769.69 5408.68 5772.69 5408.68 5774.5 5408.5" stroke="#ED7D31" stroke-width="6.875" stroke-linecap="round" stroke-linejoin="round" stroke-miterlimit="10" fill="none"/></g><g clip-path="url(#clip6)"><path d="M2893.5 5420.5 2922.6 5420.5 2922.6 5419.68 2922.6 5418.68 2922.6 5418.68 2922.6 5418.68 2922.6 5418.68 2922.6 5418.68 2922.6 5418.68 2922.6 5417.68 2922.6 5417.68 2922.6 5417.68 2922.6 5416.68 2922.6 5414.68 2922.6 5410.68 2922.6 5400.68 2922.6 5383.68 2922.6 5356.68 2922.6 5304.67 2922.6 5238.67 2922.6 5227.67 2922.6 5210.67 2922.6 5180.67 2923.6 5138.67 2923.6 5070.67 2923.6 5013.66 2923.6 4929.66 2923.6 4834.66 2924.6 4697.65 2925.6 4575.65 2926.6 4536.5 2927.6 4558.65 2928.6 4616.65 2929.6 4700.65 2931.6 4783.66 2932.6 4863.66 2933.6 4906.66 2934.6 4929.66 2934.6 4944.66 2935.6 4954.66 2936.6 4962.66 2937.6 4964.66 2937.6 4963.66 2938.6 4960.66 2939.6 4954.66 2941.6 4934.66 2944.6 4895.66 2947.6 4867.66 2950.6 4847.66 2952.6 4833.66 2954.6 4822.66 2957.6 4812.66 2959.6 4804.66 2961.6 4798.66 2964.6 4794.66 2966.6 4792.66 2970.6 4790.66 2974.6 4790.66 2977.6 4791.66 2981.6 4794.66 2985.6 4799.66 2989.6 4806.66 2993.6 4814.66 2999.6 4828.66 3006.6 4844.66 3012.6 4859.66 3018.6 4875.66 3025.6 4891.66 3031.6 4908.66 3038.6 4925.66 3052.6 4960.66 3067.6 4992.66 3081.6 5021.67 3096.6 5048.67 3110.6 5072.67 3125.6 5093.67 3139.6 5111.67 3150.6 5124.67 3161.6 5135.67 3172.6 5146.67 3182.6 5156.67 3193.6 5165.67 3204.61 5173.67 3215.61 5180.67 3225.61 5186.67 3236.61 5192.67 3246.61 5198.67 3257.61 5203.67 3267.61 5208.67 3278.61 5212.67 3288.61 5216.67 3299.61 5219.67 3309.61 5222.67 3319.61 5225.67 3330.61 5228.67 3340.61 5231.67 3351.61 5233.67 3361.61 5235.67 3372.61 5237.67 3382.61 5239.67 3393.61 5241.67 3403.61 5242.67 3413.61 5244.67 3424.61 5245.67 3434.61 5246.67 3445.61 5247.67 3455.61 5248.67 3466.61 5249.67 3476.61 5250.67 3487.61 5251.67 3497.61 5252.67 3507.62 5252.67 3518.62 5253.67 3528.62 5253.67 3539.62 5254.67 3549.62 5255.67 3560.62 5255.67 3570.62 5255.67 3581.62 5256.67 3591.62 5256.67 3601.62 5257.67 3612.62 5257.67 3622.62 5257.67 3633.62 5258.67 3643.62 5258.67 3654.62 5258.67 3664.62 5259.67 3675.62 5259.67 3685.62 5259.67 3696.62 5259.67 3706.62 5260.67 3716.62 5260.67 3727.62 5260.67 3737.62 5260.67 3747.62 5260.67 3757.62 5261.67 3767.62 5261.67 3777.62 5261.67 3787.62 5261.67 3797.62 5261.67 3807.62 5261.67 3816.63 5262.67 3826.63 5262.67 3836.63 5262.67 3845.63 5262.67 3855.63 5262.67 3865.63 5262.67 3874.63 5263.67 3883.63 5263.67 3892.63 5263.67 3902.63 5263.67 3911.63 5263.67 3920.63 5263.67 3929.63 5264.67 3938.63 5264.67 3946.63 5264.67 3955.63 5264.67 3963.63 5264.67 3972.63 5264.67 3980.63 5265.67 3988.63 5265.67 3997.63 5265.67 4005.63 5265.67 4011.63 5266.67 4017.63 5266.67 4022.63 5266.67 4028.63 5266.67 4031.63 5267.67 4033.63 5267.67 4036.63 5267.67 4039.63 5267.67 4042.63 5267.67 4045.63 5267.67 4048.63 5268.67 4050.63 5268.67 4053.63 5268.67 4056.63 5269.67 4059.63 5269.67 4062.63 5269.67 4064.63 5270.67 4067.63 5270.67 4070.63 5270.67 4073.63 5271.67 4076.63 5271.67 4078.63 5272.67 4081.63 5272.67 4084.63 5273.67 4087.63 5273.67 4090.63 5274.67 4095.63 5275.67 4101.63 5276.67 4107.63 5278.67 4115.64 5280.67 4120.64 5281.67 4125.64 5282.67 4129.64 5283.67 4134.64 5284.67 4139.64 5285.67 4144.64 5286.67 4149.64 5287.67 4158.64 5289.67 4167.64 5290.67 4176.64 5292.67 4186.64 5294.67 4195.64 5295.67 4204.64 5297.67 4213.64 5298.67 4244.64 5303.67 4274.64 5308.67 4304.64 5312.67 4334.64 5317.67 4364.64 5321.67 4394.64 5325.67 4424.65 5329.67 4483.65 5335.68 4542.65 5342.68 4600.65 5347.68 4659.65 5353.68 4718.65 5357.68 4776.66 5362.68 4835.66 5366.68 4894.66 5369.68 4953.66 5373.68 5012.66 5376.68 5071.67 5379.68 5130.67 5381.68 5189.67 5383.68 5249.67 5386.68 5287.67 5387.68 5325.67 5388.68 5363.68 5389.68 5401.68 5390.68 5439.68 5391.68 5478.68 5392.68 5516.68 5393.68 5519.68 5393.68 5554.68 5394.68 5590.68 5395.68 5626.68 5395.68 5662.69 5396.68 5697.69 5397.68 5733.69 5397.68 5769.69 5398.68 5772.69 5398.68 5774.5 5398.68" stroke="#A5A5A5" stroke-width="6.875" stroke-linecap="round" stroke-linejoin="round" stroke-miterlimit="10" fill="none"/></g><g clip-path="url(#clip7)"><text fill="#595959" font-family="Calibri,Calibri_MSFontService,sans-serif" font-weight="400" font-size="41" transform="matrix(1 0 0 1 2834.82 5843)">0</text></g><g clip-path="url(#clip8)"><text fill="#595959" font-family="Calibri,Calibri_MSFontService,sans-serif" font-weight="400" font-size="41" transform="matrix(1 0 0 1 2834.82 5641)">2</text></g><g clip-path="url(#clip9)"><text fill="#595959" font-family="Calibri,Calibri_MSFontService,sans-serif" font-weight="400" font-size="41" transform="matrix(1 0 0 1 2834.82 5439)">4</text></g><g clip-path="url(#clip10)"><text fill="#595959" font-family="Calibri,Calibri_MSFontService,sans-serif" font-weight="400" font-size="41" transform="matrix(1 0 0 1 2834.82 5237)">6</text></g><g clip-path="url(#clip11)"><text fill="#595959" font-family="Calibri,Calibri_MSFontService,sans-serif" font-weight="400" font-size="41" transform="matrix(1 0 0 1 2834.82 5035)">8</text></g><g clip-path="url(#clip12)"><text fill="#595959" font-family="Calibri,Calibri_MSFontService,sans-serif" font-weight="400" font-size="41" transform="matrix(1 0 0 1 2813.92 4833)">10</text></g><g clip-path="url(#clip13)"><text fill="#595959" font-family="Calibri,Calibri_MSFontService,sans-serif" font-weight="400" font-size="41" transform="matrix(1 0 0 1 2813.92 4631)">12</text></g><g clip-path="url(#clip14)"><text fill="#595959" font-family="Calibri,Calibri_MSFontService,sans-serif" font-weight="400" font-size="41" transform="matrix(1 0 0 1 2813.92 4429)">14</text></g><g clip-path="url(#clip15)"><text fill="#595959" font-family="Calibri,Calibri_MSFontService,sans-serif" font-weight="400" font-size="41" transform="matrix(1 0 0 1 2883.54 5896)">0</text></g><g clip-path="url(#clip16)"><text fill="#595959" font-family="Calibri,Calibri_MSFontService,sans-serif" font-weight="400" font-size="41" transform="matrix(1 0 0 1 3155.92 5896)">0.1</text></g><g clip-path="url(#clip17)"><text fill="#595959" font-family="Calibri,Calibri_MSFontService,sans-serif" font-weight="400" font-size="41" transform="matrix(1 0 0 1 3443.95 5896)">0.2</text></g><g clip-path="url(#clip18)"><text fill="#595959" font-family="Calibri,Calibri_MSFontService,sans-serif" font-weight="400" font-size="41" transform="matrix(1 0 0 1 3731.98 5896)">0.3</text></g><g clip-path="url(#clip19)"><text fill="#595959" font-family="Calibri,Calibri_MSFontService,sans-serif" font-weight="400" font-size="41" transform="matrix(1 0 0 1 4020.01 5896)">0.4</text></g><g clip-path="url(#clip20)"><text fill="#595959" font-family="Calibri,Calibri_MSFontService,sans-serif" font-weight="400" font-size="41" transform="matrix(1 0 0 1 4308.04 5896)">0.5</text></g><g clip-path="url(#clip21)"><text fill="#595959" font-family="Calibri,Calibri_MSFontService,sans-serif" font-weight="400" font-size="41" transform="matrix(1 0 0 1 4596.07 5896)">0.6</text></g><g clip-path="url(#clip22)"><text fill="#595959" font-family="Calibri,Calibri_MSFontService,sans-serif" font-weight="400" font-size="41" transform="matrix(1 0 0 1 4884.1 5896)">0.7</text></g><g clip-path="url(#clip23)"><text fill="#595959" font-family="Calibri,Calibri_MSFontService,sans-serif" font-weight="400" font-size="41" transform="matrix(1 0 0 1 5172.13 5896)">0.8</text></g><g clip-path="url(#clip24)"><text fill="#595959" font-family="Calibri,Calibri_MSFontService,sans-serif" font-weight="400" font-size="41" transform="matrix(1 0 0 1 5460.16 5896)">0.9</text></g><g clip-path="url(#clip25)"><text fill="#595959" font-family="Calibri,Calibri_MSFontService,sans-serif" font-weight="400" font-size="41" transform="matrix(1 0 0 1 5763.84 5896)">1</text></g><g clip-path="url(#clip26)"><text fill="#595959" font-family="Calibri,Calibri_MSFontService,sans-serif" font-weight="400" font-size="46" transform="matrix(6.12323e-17 -1 1 6.12323e-17 2712.55 5247)">Voltage (V)</text></g><g clip-path="url(#clip27)"><text fill="#595959" font-family="Calibri,Calibri_MSFontService,sans-serif" font-weight="400" font-size="46" transform="matrix(1 0 0 1 4247.93 5965)">Time (us)</text></g><g clip-path="url(#clip28)"><text fill="#595959" font-family="Calibri,Calibri_MSFontService,sans-serif" font-weight="400" font-size="64" transform="matrix(1 0 0 1 3906.8 4238)">ESD9X3.3ST5G At Input</text></g><g clip-path="url(#clip29)"><path d="M3816.5 4327.5 3904.5 4327.5" stroke="#ED7D31" stroke-width="6.875" stroke-linecap="round" stroke-linejoin="round" stroke-miterlimit="10" fill="none" fill-rule="evenodd"/></g><g clip-path="url(#clip30)"><text fill="#595959" font-family="Calibri,Calibri_MSFontService,sans-serif" font-weight="400" font-size="41" transform="matrix(1 0 0 1 3913.53 4339)">VDDIO (V)</text></g><g clip-path="url(#clip31)"><path d="M4146.5 4327.5 4234.5 4327.5" stroke="#A5A5A5" stroke-width="6.875" stroke-linecap="round" stroke-linejoin="round" stroke-miterlimit="10" fill="none" fill-rule="evenodd"/></g><g clip-path="url(#clip32)"><text fill="#595959" font-family="Calibri,Calibri_MSFontService,sans-serif" font-weight="400" font-size="41" transform="matrix(1 0 0 1 4244.06 4339)">Input ESD Stimulus (V)</text></g><rect x="2582.5" y="4142.5" width="3255" height="1893" stroke="#D9D9D9" stroke-width="3.4375" stroke-linejoin="round" stroke-miterlimit="10" fill="none"/></g></svg>