<svg width="3258" height="1895" xmlns="http://www.w3.org/2000/svg" xmlns:xlink="http://www.w3.org/1999/xlink" overflow="hidden"><defs><clipPath id="clip0"><rect x="2577" y="355" width="3258" height="1895"/></clipPath><clipPath id="clip1"><rect x="2578" y="355" width="3255" height="1893"/></clipPath><clipPath id="clip2"><rect x="2578" y="355" width="3255" height="1893"/></clipPath><clipPath id="clip3"><rect x="2578" y="355" width="3255" height="1893"/></clipPath><clipPath id="clip4"><rect x="2578" y="355" width="3255" height="1893"/></clipPath><clipPath id="clip5"><rect x="2890" y="630" width="2884" height="1418"/></clipPath><clipPath id="clip6"><rect x="2890" y="630" width="2884" height="1418"/></clipPath><clipPath id="clip7"><rect x="2578" y="355" width="3255" height="1893"/></clipPath><clipPath id="clip8"><rect x="2578" y="355" width="3255" height="1893"/></clipPath><clipPath id="clip9"><rect x="2578" y="355" width="3255" height="1893"/></clipPath><clipPath id="clip10"><rect x="2578" y="355" width="3255" height="1893"/></clipPath><clipPath id="clip11"><rect x="2578" y="355" width="3255" height="1893"/></clipPath><clipPath id="clip12"><rect x="2578" y="355" width="3255" height="1893"/></clipPath><clipPath id="clip13"><rect x="2578" y="355" width="3255" height="1893"/></clipPath><clipPath id="clip14"><rect x="2578" y="355" width="3255" height="1893"/></clipPath><clipPath id="clip15"><rect x="2578" y="355" width="3255" height="1893"/></clipPath><clipPath id="clip16"><rect x="2578" y="355" width="3255" height="1893"/></clipPath><clipPath id="clip17"><rect x="2578" y="355" width="3255" height="1893"/></clipPath><clipPath id="clip18"><rect x="2578" y="355" width="3255" height="1893"/></clipPath><clipPath id="clip19"><rect x="2578" y="355" width="3255" height="1893"/></clipPath><clipPath id="clip20"><rect x="2578" y="355" width="3255" height="1893"/></clipPath><clipPath id="clip21"><rect x="2578" y="355" width="3255" height="1893"/></clipPath><clipPath id="clip22"><rect x="2578" y="355" width="3255" height="1893"/></clipPath><clipPath id="clip23"><rect x="2578" y="355" width="3255" height="1893"/></clipPath><clipPath id="clip24"><rect x="2578" y="355" width="3255" height="1893"/></clipPath><clipPath id="clip25"><rect x="2578" y="355" width="3255" height="1893"/></clipPath><clipPath id="clip26"><rect x="2578" y="355" width="3255" height="1893"/></clipPath><clipPath id="clip27"><rect x="2578" y="355" width="3255" height="1893"/></clipPath><clipPath id="clip28"><rect x="2578" y="355" width="3255" height="1893"/></clipPath><clipPath id="clip29"><rect x="2578" y="355" width="3255" height="1893"/></clipPath><clipPath id="clip30"><rect x="2578" y="355" width="3255" height="1893"/></clipPath><clipPath id="clip31"><rect x="2578" y="355" width="3255" height="1893"/></clipPath><clipPath id="clip32"><rect x="2578" y="355" width="3255" height="1893"/></clipPath><clipPath id="clip33"><rect x="2578" y="355" width="3255" height="1893"/></clipPath><clipPath id="clip34"><rect x="2578" y="355" width="3255" height="1893"/></clipPath></defs><g clip-path="url(#clip0)" transform="translate(-2577 -355)"><rect x="2578" y="356" width="3255" height="1892" fill="#FFFFFF"/><g clip-path="url(#clip1)"><path d="M2890.5 1842.56 5770.5 1842.56M2890.5 1640.55 5770.5 1640.55M2890.5 1438.55 5770.5 1438.55M2890.5 1236.54 5770.5 1236.54M2890.5 1034.53 5770.5 1034.53M2890.5 832.527 5770.5 832.527M2890.5 630.5 5770.5 630.5" stroke="#D9D9D9" stroke-width="3.4375" stroke-linejoin="round" stroke-miterlimit="10" fill="none"/></g><g clip-path="url(#clip2)"><path d="M3178.6 630.5 3178.6 2044.5M3466.61 630.5 3466.61 2044.5M3754.62 630.5 3754.62 2044.5M4042.63 630.5 4042.63 2044.5M4330.64 630.5 4330.64 2044.5M4618.65 630.5 4618.65 2044.5M4906.66 630.5 4906.66 2044.5M5194.67 630.5 5194.67 2044.5M5482.68 630.5 5482.68 2044.5M5770.5 630.5 5770.5 2044.5" stroke="#D9D9D9" stroke-width="3.4375" stroke-linejoin="round" stroke-miterlimit="10" fill="none"/></g><g clip-path="url(#clip3)"><path d="M0 0 0.000360892 1414" stroke="#BFBFBF" stroke-width="3.4375" stroke-linejoin="round" stroke-miterlimit="10" fill="none" fill-rule="evenodd" transform="matrix(1 0 0 -1 2890.5 2044.5)"/></g><g clip-path="url(#clip4)"><path d="M2890.5 2044.5 5770.5 2044.5" stroke="#BFBFBF" stroke-width="3.4375" stroke-linejoin="round" stroke-miterlimit="10" fill="none" fill-rule="evenodd"/></g><g clip-path="url(#clip5)"><path d="M2890.5 2042.57 2919.6 2042.57 2919.6 2042.57 2919.6 2042.57 2919.6 2042.57 2919.6 2042.57 2919.6 2042.57 2919.6 2042.57 2919.6 2042.57 2919.6 2042.57 2919.6 2042.57 2919.6 2042.57 2919.6 2042.57 2919.6 2042.57 2919.6 2042.57 2919.6 2042.57 2919.6 2043.5 2919.6 2042.57 2919.6 2042.57 2919.6 2042.57 2919.6 2042.57 2919.6 2042.57 2919.6 2042.57 2919.6 2042.57 2919.6 2042.57 2919.6 2042.57 2919.6 2042.57 2919.6 2042.57 2919.6 2042.57 2919.6 2042.57 2919.6 2042.57 2919.6 2042.57 2919.6 2042.57 2919.6 2042.57 2919.6 2042.57 2919.6 2042.57 2919.6 2042.57 2919.6 2042.57 2919.6 2042.57 2919.6 2042.57 2919.6 2042.57 2919.6 2042.57 2919.6 2042.57 2919.6 2042.57 2919.6 2042.57 2919.6 2042.57 2919.6 2042.57 2919.6 2042.57 2919.6 2042.57 2919.6 2042.57 2919.6 2042.57 2919.6 2042.57 2919.6 2042.57 2919.6 2042.57 2919.6 2042.57 2919.6 2042.57 2919.6 2042.57 2919.6 2042.57 2919.6 2042.57 2919.6 2042.57 2919.6 2042.57 2919.6 2042.57 2919.6 2042.57 2919.6 2042.57 2919.6 2042.57 2919.6 2042.57 2919.6 2042.57 2919.6 2042.57 2919.6 2042.57 2919.6 2042.57 2919.6 2042.57 2919.6 2042.57 2919.6 2042.57 2919.6 2042.57 2919.6 2042.57 2919.6 2042.57 2919.6 2042.57 2919.6 2042.57 2919.6 2042.57 2919.6 2042.57 2919.6 2042.57 2919.6 2042.57 2919.6 2042.57 2919.6 2042.57 2919.6 2042.57 2919.6 2042.57 2919.6 2042.57 2919.6 2042.57 2919.6 2042.57 2919.6 2042.57 2919.6 2042.57 2919.6 2042.57 2919.6 2042.57 2919.6 2042.57 2919.6 2042.57 2919.6 2042.57 2919.6 2042.57 2919.6 2042.57 2919.6 2042.57 2919.6 2042.57 2919.6 2042.57 2919.6 2042.57 2919.6 2042.57 2919.6 2042.57 2919.6 2042.57 2919.6 2042.57 2919.6 2042.57 2919.6 2042.57 2919.6 2042.57 2919.6 2042.57 2919.6 2042.57 2919.6 2042.57 2919.6 2042.57 2919.6 2042.57 2919.6 2042.57 2919.6 2042.57 2919.6 2042.57 2919.6 2042.57 2919.6 2042.57 2919.6 2042.57 2919.6 2042.57 2919.6 2042.57 2919.6 2042.57 2919.6 2042.57 2919.6 2042.57 2919.6 2042.57 2919.6 2042.57 2919.6 2042.57 2919.6 2042.57 2919.6 2042.57 2919.6 2042.57 2919.6 2042.57 2919.6 2042.57 2919.6 2042.57 2919.6 2042.57 2919.6 2042.57 2919.6 2042.57 2919.6 2042.57 2919.6 2042.57 2919.6 2042.57 2919.6 2042.57 2919.6 2042.57 2919.6 2042.57 2919.6 2042.57 2919.6 2042.57 2919.6 2042.57 2919.6 2042.57 2919.6 2042.57 2919.6 2042.57 2919.6 2042.57 2919.6 2042.57 2919.6 2042.57 2919.6 2042.57 2919.6 2042.57 2919.6 2042.57 2919.6 2042.57 2919.6 2042.57 2919.6 2042.57 2919.6 2042.57 2919.6 2042.57 2919.6 2042.57 2919.6 2042.57 2919.6 2042.57 2919.6 2042.57 2919.6 2042.57 2919.6 2042.57 2919.6 2042.57 2919.6 2042.57 2919.6 2042.57 2919.6 2042.57 2919.6 2042.57 2919.6 2042.57 2919.6 2042.57 2919.6 2042.57 2919.6 2042.57 2919.6 2042.57 2919.6 2042.57 2919.6 2042.57 2919.6 2042.57 2919.6 2042.57 2919.6 2042.57 2919.6 2042.57 2919.6 2042.57 2919.6 2042.57 2919.6 2042.57 2919.6 2042.57 2919.6 2042.57 2919.6 2042.57 2919.6 2042.57 2919.6 2042.57 2919.6 2042.57 2919.6 2042.57 2919.6 2042.57 2919.6 2042.57 2919.6 2042.57 2919.6 2042.57 2919.6 2042.57 2919.6 2042.57 2919.6 2042.57 2919.6 2042.57 2919.6 2042.57 2919.6 2042.57 2919.6 2042.57 2919.6 2042.57 2919.6 2042.57 2919.6 2042.57 2919.6 2042.57 2919.6 2042.57 2919.6 2042.57 2919.6 2042.57 2919.6 2042.57 2919.6 2042.57 2919.6 2042.57 2919.6 2042.57 2919.6 2042.57 2919.6 2042.57 2919.6 2042.57 2919.6 2042.57 2919.6 2042.57 2920.6 2042.57 2920.6 2042.57 2920.6 2042.57 2920.6 2042.57 2922.6 2042.57 2924.6 2042.57 2927.6 2042.57 2930.6 2042.57 2933.6 2042.57 2936.6 2042.57 2939.6 2041.57 2941.6 2041.57 2947.6 2041.57 2951.6 2041.57 2955.6 2041.57 2959.6 2041.57 2963.6 2040.57 2967.6 2040.57 2971.6 2040.57 2975.6 2040.57 2980.6 2040.57 2986.6 2040.57 2991.6 2039.57 2996.6 2039.57 3001.6 2039.57 3006.6 2039.57 3012.6 2039.57 3023.6 2038.57 3034.6 2038.57 3045.6 2037.57 3057.6 2037.57 3068.6 2037.57 3079.6 2036.57 3090.6 2036.57 3107.6 2035.57 3124.6 2035.57 3141.6 2034.57 3158.6 2034.57 3175.6 2033.57 3192.6 2033.57 3209.61 2032.57 3240.61 2032.57 3272.61 2031.57 3304.61 2030.57 3336.61 2029.57 3367.61 2029.57 3399.61 2028.57 3431.61 2028.57 3483.61 2027.57 3536.62 2026.57 3589.62 2025.57 3641.62 2024.57 3694.62 2024.57 3747.62 2023.57 3799.62 2023.57 3852.63 2022.57 3905.63 2022.57 3957.63 2021.57 4010.63 2021.57 4062.63 2021.57 4115.64 2020.57 4168.64 2020.57 4220.64 2020.57 4273.64 2020.57 4326.64 2019.57 4378.64 2019.57 4431.65 2019.57 4484.65 2019.57 4536.65 2019.57 4589.65 2019.57 4641.65 2019.57 4694.65 2018.57 4747.66 2018.57 4799.66 2018.57 4852.66 2018.57 4905.66 2018.57 4922.66 2018.57 4939.66 2018.57 4956.66 2018.57 4974.66 2018.57 4991.66 2018.57 5008.66 2018.57 5026.67 2018.57 5028.67 2018.57 5081.67 2018.57 5134.67 2018.57 5186.67 2018.57 5239.67 2018.57 5292.67 2018.57 5344.68 2018.57 5397.68 2018.57 5449.68 2018.57 5501.68 2018.57 5554.68 2018.57 5606.68 2018.57 5658.69 2018.57 5710.69 2017.57 5763.69 2017.57 5768.69 2017.57 5770.5 2018.5" stroke="#ED7D31" stroke-width="6.875" stroke-linecap="round" stroke-linejoin="round" stroke-miterlimit="10" fill="none"/></g><g clip-path="url(#clip6)"><path d="M2890.5 2042.5 2919.6 2042.5 2919.6 2039.57 2919.6 2033.57 2919.6 2030.57 2919.6 2030.57 2919.6 2030.57 2919.6 2030.57 2919.6 2030.57 2919.6 2030.57 2919.6 2030.57 2919.6 2030.57 2919.6 2030.57 2919.6 2030.57 2919.6 2030.57 2919.6 2029.57 2919.6 2028.57 2919.6 2027.57 2919.6 2026.57 2919.6 2025.57 2919.6 2023.57 2919.6 2021.57 2919.6 2020.57 2919.6 2018.57 2919.6 2017.57 2919.6 2016.57 2919.6 2014.57 2919.6 2012.57 2919.6 2011.57 2919.6 2010.57 2919.6 2008.57 2919.6 2007.57 2919.6 2006.57 2919.6 2004.57 2919.6 2003.57 2919.6 2002.57 2919.6 2000.57 2919.6 1999.57 2919.6 1998.57 2919.6 1996.57 2919.6 1995.57 2919.6 1993.57 2919.6 1992.57 2919.6 1991.57 2919.6 1989.57 2919.6 1988.57 2919.6 1987.57 2919.6 1985.57 2919.6 1984.57 2919.6 1983.57 2919.6 1981.57 2919.6 1980.57 2919.6 1978.57 2919.6 1977.57 2919.6 1976.57 2919.6 1974.56 2919.6 1973.56 2919.6 1971.56 2919.6 1969.56 2919.6 1968.56 2919.6 1966.56 2919.6 1965.56 2919.6 1963.56 2919.6 1962.56 2919.6 1960.56 2919.6 1959.56 2919.6 1957.56 2919.6 1955.56 2919.6 1953.56 2919.6 1951.56 2919.6 1950.56 2919.6 1948.56 2919.6 1947.56 2919.6 1945.56 2919.6 1943.56 2919.6 1942.56 2919.6 1940.56 2919.6 1938.56 2919.6 1937.56 2919.6 1935.56 2919.6 1933.56 2919.6 1932.56 2919.6 1930.56 2919.6 1928.56 2919.6 1926.56 2919.6 1925.56 2919.6 1923.56 2919.6 1921.56 2919.6 1920.56 2919.6 1918.56 2919.6 1916.56 2919.6 1914.56 2919.6 1912.56 2919.6 1910.56 2919.6 1909.56 2919.6 1907.56 2919.6 1905.56 2919.6 1903.56 2919.6 1901.56 2919.6 1899.56 2919.6 1897.56 2919.6 1895.56 2919.6 1892.56 2919.6 1890.56 2919.6 1888.56 2919.6 1886.56 2919.6 1884.56 2919.6 1883.56 2919.6 1881.56 2919.6 1879.56 2919.6 1877.56 2919.6 1875.56 2919.6 1873.56 2919.6 1871.56 2919.6 1869.56 2919.6 1867.56 2919.6 1865.56 2919.6 1863.56 2919.6 1860.56 2919.6 1858.56 2919.6 1856.56 2919.6 1854.56 2919.6 1852.56 2919.6 1850.56 2919.6 1847.56 2919.6 1846.56 2919.6 1843.56 2919.6 1841.56 2919.6 1839.56 2919.6 1837.56 2919.6 1835.56 2919.6 1833.56 2919.6 1831.56 2919.6 1829.56 2919.6 1826.56 2919.6 1825.56 2919.6 1822.56 2919.6 1820.56 2919.6 1818.56 2919.6 1816.56 2919.6 1814.56 2919.6 1812.56 2919.6 1809.56 2919.6 1807.56 2919.6 1805.56 2919.6 1803.56 2919.6 1801.56 2919.6 1798.56 2919.6 1796.56 2919.6 1793.56 2919.6 1790.56 2919.6 1787.56 2919.6 1785.56 2919.6 1783.56 2919.6 1780.56 2919.6 1777.56 2919.6 1774.56 2919.6 1772.56 2919.6 1769.56 2919.6 1766.56 2919.6 1763.56 2919.6 1760.56 2919.6 1757.56 2919.6 1754.56 2919.6 1751.56 2919.6 1749.56 2919.6 1746.56 2919.6 1742.56 2919.6 1739.56 2919.6 1736.56 2919.6 1733.56 2919.6 1729.56 2919.6 1726.56 2919.6 1723.56 2919.6 1720.56 2919.6 1716.56 2919.6 1713.56 2919.6 1709.56 2919.6 1706.56 2919.6 1702.56 2919.6 1698.56 2919.6 1695.56 2919.6 1690.56 2919.6 1687.56 2919.6 1683.56 2919.6 1679.56 2919.6 1673.56 2919.6 1669.55 2919.6 1664.55 2919.6 1660.55 2919.6 1654.55 2919.6 1649.55 2919.6 1643.55 2919.6 1638.55 2919.6 1633.55 2919.6 1625.55 2919.6 1618.55 2919.6 1612.55 2919.6 1605.55 2919.6 1599.55 2919.6 1593.55 2919.6 1584.55 2919.6 1574.55 2919.6 1564.55 2919.6 1556.55 2919.6 1547.55 2919.6 1532.55 2919.6 1524.55 2919.6 1513.55 2919.6 1459.55 2919.6 1407.55 2919.6 1359.54 2919.6 1314.54 2919.6 1272.54 2919.6 1233.54 2919.6 1198.54 2919.6 1152.54 2919.6 1101.54 2919.6 1043.53 2919.6 980.532 2919.6 910.53 2919.6 846.528 2920.6 782.526 2920.6 747.525 2920.6 727.524 2920.6 724.5 2922.6 755.525 2924.6 839.528 2927.6 900.53 2930.6 944.531 2933.6 972.532 2936.6 988.533 2939.6 993.533 2941.6 990.533 2947.6 971.532 2951.6 949.531 2955.6 930.531 2959.6 915.53 2963.6 904.53 2967.6 896.53 2971.6 891.529 2975.6 890.529 2980.6 898.53 2986.6 906.53 2991.6 916.53 2996.6 927.531 3001.6 939.531 3006.6 952.531 3012.6 966.532 3023.6 987.533 3034.6 1008.53 3045.6 1028.53 3057.6 1047.53 3068.6 1066.54 3079.6 1084.54 3090.6 1101.54 3107.6 1128.54 3124.6 1153.54 3141.6 1178.54 3158.6 1202.54 3175.6 1226.54 3192.6 1248.54 3209.61 1271.54 3240.61 1310.54 3272.61 1348.54 3304.61 1384.55 3336.61 1418.55 3367.61 1450.55 3399.61 1480.55 3431.61 1509.55 3483.61 1552.55 3536.62 1593.55 3589.62 1630.55 3641.62 1664.55 3694.62 1695.56 3747.62 1723.56 3799.62 1748.56 3852.63 1771.56 3905.63 1793.56 3957.63 1812.56 4010.63 1830.56 4062.63 1847.56 4115.64 1862.56 4168.64 1875.56 4220.64 1887.56 4273.64 1898.56 4326.64 1909.56 4378.64 1918.56 4431.65 1927.56 4484.65 1935.56 4536.65 1942.56 4589.65 1948.56 4641.65 1954.56 4694.65 1960.56 4747.66 1965.56 4799.66 1970.56 4852.66 1974.56 4905.66 1977.57 4922.66 1979.57 4939.66 1980.57 4956.66 1981.57 4974.66 1982.57 4991.66 1983.57 5008.66 1984.57 5026.67 1985.57 5028.67 1985.57 5081.67 1988.57 5134.67 1990.57 5186.67 1993.57 5239.67 1995.57 5292.67 1997.57 5344.68 1999.57 5397.68 2000.57 5449.68 2002.57 5501.68 2003.57 5554.68 2004.57 5606.68 2005.57 5658.69 2006.57 5710.69 2007.57 5763.69 2008.57 5768.69 2008.57 5770.5 2008.57" stroke="#A5A5A5" stroke-width="6.875" stroke-linecap="round" stroke-linejoin="round" stroke-miterlimit="10" fill="none"/></g><g clip-path="url(#clip7)"><text fill="#595959" font-family="Calibri,Calibri_MSFontService,sans-serif" font-weight="400" font-size="41" transform="matrix(1 0 0 1 2831.38 2056)">0</text></g><g clip-path="url(#clip8)"><text fill="#595959" font-family="Calibri,Calibri_MSFontService,sans-serif" font-weight="400" font-size="41" transform="matrix(1 0 0 1 2789.58 1854)">500</text></g><g clip-path="url(#clip9)"><text fill="#595959" font-family="Calibri,Calibri_MSFontService,sans-serif" font-weight="400" font-size="41" transform="matrix(1 0 0 1 2768.68 1652)">1000</text></g><g clip-path="url(#clip10)"><text fill="#595959" font-family="Calibri,Calibri_MSFontService,sans-serif" font-weight="400" font-size="41" transform="matrix(1 0 0 1 2768.68 1450)">1500</text></g><g clip-path="url(#clip11)"><text fill="#595959" font-family="Calibri,Calibri_MSFontService,sans-serif" font-weight="400" font-size="41" transform="matrix(1 0 0 1 2768.68 1248)">2000</text></g><g clip-path="url(#clip12)"><text fill="#595959" font-family="Calibri,Calibri_MSFontService,sans-serif" font-weight="400" font-size="41" transform="matrix(1 0 0 1 2768.68 1046)">2500</text></g><g clip-path="url(#clip13)"><text fill="#595959" font-family="Calibri,Calibri_MSFontService,sans-serif" font-weight="400" font-size="41" transform="matrix(1 0 0 1 2768.68 844)">3000</text></g><g clip-path="url(#clip14)"><text fill="#595959" font-family="Calibri,Calibri_MSFontService,sans-serif" font-weight="400" font-size="41" transform="matrix(1 0 0 1 2768.68 642)">3500</text></g><g clip-path="url(#clip15)"><text fill="#595959" font-family="Calibri,Calibri_MSFontService,sans-serif" font-weight="400" font-size="41" transform="matrix(1 0 0 1 2880.1 2110)">0</text></g><g clip-path="url(#clip16)"><text fill="#595959" font-family="Calibri,Calibri_MSFontService,sans-serif" font-weight="400" font-size="41" transform="matrix(1 0 0 1 3152.48 2110)">0.1</text></g><g clip-path="url(#clip17)"><text fill="#595959" font-family="Calibri,Calibri_MSFontService,sans-serif" font-weight="400" font-size="41" transform="matrix(1 0 0 1 3440.51 2110)">0.2</text></g><g clip-path="url(#clip18)"><text fill="#595959" font-family="Calibri,Calibri_MSFontService,sans-serif" font-weight="400" font-size="41" transform="matrix(1 0 0 1 3728.54 2110)">0.3</text></g><g clip-path="url(#clip19)"><text fill="#595959" font-family="Calibri,Calibri_MSFontService,sans-serif" font-weight="400" font-size="41" transform="matrix(1 0 0 1 4016.57 2110)">0.4</text></g><g clip-path="url(#clip20)"><text fill="#595959" font-family="Calibri,Calibri_MSFontService,sans-serif" font-weight="400" font-size="41" transform="matrix(1 0 0 1 4304.6 2110)">0.5</text></g><g clip-path="url(#clip21)"><text fill="#595959" font-family="Calibri,Calibri_MSFontService,sans-serif" font-weight="400" font-size="41" transform="matrix(1 0 0 1 4592.63 2110)">0.6</text></g><g clip-path="url(#clip22)"><text fill="#595959" font-family="Calibri,Calibri_MSFontService,sans-serif" font-weight="400" font-size="41" transform="matrix(1 0 0 1 4880.66 2110)">0.7</text></g><g clip-path="url(#clip23)"><text fill="#595959" font-family="Calibri,Calibri_MSFontService,sans-serif" font-weight="400" font-size="41" transform="matrix(1 0 0 1 5168.69 2110)">0.8</text></g><g clip-path="url(#clip24)"><text fill="#595959" font-family="Calibri,Calibri_MSFontService,sans-serif" font-weight="400" font-size="41" transform="matrix(1 0 0 1 5456.72 2110)">0.9</text></g><g clip-path="url(#clip25)"><text fill="#595959" font-family="Calibri,Calibri_MSFontService,sans-serif" font-weight="400" font-size="41" transform="matrix(1 0 0 1 5760.4 2110)">1</text></g><g clip-path="url(#clip26)"><text fill="#595959" font-family="Calibri,Calibri_MSFontService,sans-serif" font-weight="400" font-size="46" transform="matrix(6.12323e-17 -1 1 6.12323e-17 2709.12 1461)">Voltage (V)</text></g><g clip-path="url(#clip27)"><text fill="#595959" font-family="Calibri,Calibri_MSFontService,sans-serif" font-weight="400" font-size="46" transform="matrix(1 0 0 1 4244.49 2179)">Time (us)</text></g><g clip-path="url(#clip28)"><text fill="#595959" font-family="Calibri,Calibri_MSFontService,sans-serif" font-weight="400" font-size="64" transform="matrix(1 0 0 1 3688.46 451)">Base Condition </text></g><g clip-path="url(#clip29)"><text fill="#595959" font-family="Calibri,Calibri_MSFontService,sans-serif" font-weight="400" font-size="64" transform="matrix(1 0 0 1 4094.13 451)">-</text></g><g clip-path="url(#clip30)"><text fill="#595959" font-family="Calibri,Calibri_MSFontService,sans-serif" font-weight="400" font-size="64" transform="matrix(1 0 0 1 4128.28 451)">Limited ESD Protection </text></g><g clip-path="url(#clip31)"><path d="M3812.5 541.5 3900.5 541.5" stroke="#ED7D31" stroke-width="6.875" stroke-linecap="round" stroke-linejoin="round" stroke-miterlimit="10" fill="none" fill-rule="evenodd"/></g><g clip-path="url(#clip32)"><text fill="#595959" font-family="Calibri,Calibri_MSFontService,sans-serif" font-weight="400" font-size="41" transform="matrix(1 0 0 1 3910.09 553)">VDDIO (V)</text></g><g clip-path="url(#clip33)"><path d="M4143.5 541.5 4231.5 541.5" stroke="#A5A5A5" stroke-width="6.875" stroke-linecap="round" stroke-linejoin="round" stroke-miterlimit="10" fill="none" fill-rule="evenodd"/></g><g clip-path="url(#clip34)"><text fill="#595959" font-family="Calibri,Calibri_MSFontService,sans-serif" font-weight="400" font-size="41" transform="matrix(1 0 0 1 4240.63 553)">Input ESD Stimulus (V)</text></g><rect x="2578.5" y="356.5" width="3255" height="1892" stroke="#D9D9D9" stroke-width="3.4375" stroke-linejoin="round" stroke-miterlimit="10" fill="none"/></g></svg>