<svg width="3258" height="1895" xmlns="http://www.w3.org/2000/svg" xmlns:xlink="http://www.w3.org/1999/xlink" overflow="hidden"><defs><clipPath id="clip0"><rect x="2577" y="2247" width="3258" height="1895"/></clipPath><clipPath id="clip1"><rect x="2578" y="2248" width="3255" height="1892"/></clipPath><clipPath id="clip2"><rect x="2578" y="2248" width="3255" height="1892"/></clipPath><clipPath id="clip3"><rect x="2578" y="2248" width="3255" height="1892"/></clipPath><clipPath id="clip4"><rect x="2578" y="2248" width="3255" height="1892"/></clipPath><clipPath id="clip5"><rect x="2890" y="2522" width="2884" height="1418"/></clipPath><clipPath id="clip6"><rect x="2890" y="2522" width="2884" height="1418"/></clipPath><clipPath id="clip7"><rect x="2578" y="2248" width="3255" height="1892"/></clipPath><clipPath id="clip8"><rect x="2578" y="2248" width="3255" height="1892"/></clipPath><clipPath id="clip9"><rect x="2578" y="2248" width="3255" height="1892"/></clipPath><clipPath id="clip10"><rect x="2578" y="2248" width="3255" height="1892"/></clipPath><clipPath id="clip11"><rect x="2578" y="2248" width="3255" height="1892"/></clipPath><clipPath id="clip12"><rect x="2578" y="2248" width="3255" height="1892"/></clipPath><clipPath id="clip13"><rect x="2578" y="2248" width="3255" height="1892"/></clipPath><clipPath id="clip14"><rect x="2578" y="2248" width="3255" height="1892"/></clipPath><clipPath id="clip15"><rect x="2578" y="2248" width="3255" height="1892"/></clipPath><clipPath id="clip16"><rect x="2578" y="2248" width="3255" height="1892"/></clipPath><clipPath id="clip17"><rect x="2578" y="2248" width="3255" height="1892"/></clipPath><clipPath id="clip18"><rect x="2578" y="2248" width="3255" height="1892"/></clipPath><clipPath id="clip19"><rect x="2578" y="2248" width="3255" height="1892"/></clipPath><clipPath id="clip20"><rect x="2578" y="2248" width="3255" height="1892"/></clipPath><clipPath id="clip21"><rect x="2578" y="2248" width="3255" height="1892"/></clipPath><clipPath id="clip22"><rect x="2578" y="2248" width="3255" height="1892"/></clipPath><clipPath id="clip23"><rect x="2578" y="2248" width="3255" height="1892"/></clipPath><clipPath id="clip24"><rect x="2578" y="2248" width="3255" height="1892"/></clipPath><clipPath id="clip25"><rect x="2578" y="2248" width="3255" height="1892"/></clipPath><clipPath id="clip26"><rect x="2578" y="2248" width="3255" height="1892"/></clipPath><clipPath id="clip27"><rect x="2578" y="2248" width="3255" height="1892"/></clipPath><clipPath id="clip28"><rect x="2578" y="2248" width="3255" height="1892"/></clipPath><clipPath id="clip29"><rect x="2578" y="2248" width="3255" height="1892"/></clipPath><clipPath id="clip30"><rect x="2578" y="2248" width="3255" height="1892"/></clipPath><clipPath id="clip31"><rect x="2578" y="2248" width="3255" height="1892"/></clipPath><clipPath id="clip32"><rect x="2578" y="2248" width="3255" height="1892"/></clipPath><clipPath id="clip33"><rect x="2578" y="2248" width="3255" height="1892"/></clipPath><clipPath id="clip34"><rect x="2578" y="2248" width="3255" height="1892"/></clipPath></defs><g clip-path="url(#clip0)" transform="translate(-2577 -2247)"><rect x="2578" y="2248" width="3255" height="1892" fill="#FFFFFF"/><g clip-path="url(#clip1)"><path d="M2890.5 3734.62 5770.5 3734.62M2890.5 3532.62 5770.5 3532.62M2890.5 3330.61 5770.5 3330.61M2890.5 3128.6 5770.5 3128.6M2890.5 2926.6 5770.5 2926.6M2890.5 2724.59 5770.5 2724.59M2890.5 2522.5 5770.5 2522.5" stroke="#D9D9D9" stroke-width="3.4375" stroke-linejoin="round" stroke-miterlimit="10" fill="none"/></g><g clip-path="url(#clip2)"><path d="M3178.6 2522.5 3178.6 3936.5M3466.61 2522.5 3466.61 3936.5M3754.62 2522.5 3754.62 3936.5M4042.63 2522.5 4042.63 3936.5M4330.64 2522.5 4330.64 3936.5M4618.65 2522.5 4618.65 3936.5M4906.66 2522.5 4906.66 3936.5M5194.67 2522.5 5194.67 3936.5M5482.68 2522.5 5482.68 3936.5M5770.5 2522.5 5770.5 3936.5" stroke="#D9D9D9" stroke-width="3.4375" stroke-linejoin="round" stroke-miterlimit="10" fill="none"/></g><g clip-path="url(#clip3)"><path d="M0 0 0.000360892 1414" stroke="#BFBFBF" stroke-width="3.4375" stroke-linejoin="round" stroke-miterlimit="10" fill="none" fill-rule="evenodd" transform="matrix(1 0 0 -1 2890.5 3936.5)"/></g><g clip-path="url(#clip4)"><path d="M2890.5 3936.5 5770.5 3936.5" stroke="#BFBFBF" stroke-width="3.4375" stroke-linejoin="round" stroke-miterlimit="10" fill="none" fill-rule="evenodd"/></g><g clip-path="url(#clip5)"><path d="M2890.5 3854.63 2919.6 3854.63 2919.6 3854.63 2919.6 3854.63 2919.6 3854.63 2919.6 3853.63 2919.6 3853.63 2919.6 3853.63 2919.6 3853.63 2919.6 3853.63 2919.6 3853.63 2919.6 3853.63 2919.6 3853.63 2919.6 3852.63 2919.6 3851.63 2919.6 3850.63 2919.6 3848.63 2919.6 3850.63 2919.6 3854.63 2919.6 3857.5 2919.6 3856.63 2919.6 3851.63 2919.6 3849.63 2919.6 3850.63 2919.6 3855.63 2919.6 3857.63 2919.6 3854.63 2919.6 3850.63 2919.6 3849.63 2919.6 3852.63 2919.6 3855.63 2919.6 3857.63 2919.6 3854.63 2919.6 3850.63 2919.6 3849.63 2919.6 3851.63 2919.6 3855.63 2919.6 3856.63 2919.6 3854.63 2919.6 3850.63 2919.6 3849.63 2919.6 3852.63 2919.6 3855.63 2919.6 3856.63 2919.6 3853.63 2919.6 3850.63 2919.6 3849.63 2919.6 3852.63 2919.6 3855.63 2919.6 3855.63 2919.6 3853.63 2919.6 3850.63 2919.6 3850.63 2919.6 3853.63 2919.6 3855.63 2919.6 3855.63 2919.6 3851.63 2919.6 3849.63 2919.6 3851.63 2919.6 3854.63 2919.6 3855.63 2919.6 3852.63 2919.6 3850.63 2919.6 3850.63 2919.6 3853.63 2919.6 3855.63 2919.6 3853.63 2919.6 3850.63 2919.6 3851.63 2919.6 3854.63 2919.6 3855.63 2919.6 3852.63 2919.6 3850.63 2919.6 3850.63 2919.6 3853.63 2919.6 3854.63 2919.6 3852.63 2919.6 3850.63 2919.6 3851.63 2919.6 3853.63 2919.6 3854.63 2919.6 3851.63 2919.6 3850.63 2919.6 3851.63 2919.6 3853.63 2919.6 3853.63 2919.6 3851.63 2919.6 3850.63 2919.6 3852.63 2919.6 3853.63 2919.6 3852.63 2919.6 3850.63 2919.6 3850.63 2919.6 3853.63 2919.6 3853.63 2919.6 3851.63 2919.6 3850.63 2919.6 3851.63 2919.6 3853.63 2919.6 3852.63 2919.6 3850.63 2919.6 3851.63 2919.6 3853.63 2919.6 3852.63 2919.6 3850.63 2919.6 3851.63 2919.6 3853.63 2919.6 3852.63 2919.6 3850.63 2919.6 3850.63 2919.6 3852.63 2919.6 3853.63 2919.6 3851.63 2919.6 3850.63 2919.6 3851.63 2919.6 3852.63 2919.6 3851.63 2919.6 3850.63 2919.6 3851.63 2919.6 3852.63 2919.6 3851.63 2919.6 3850.63 2919.6 3852.63 2919.6 3852.63 2919.6 3850.63 2919.6 3850.63 2919.6 3852.63 2919.6 3852.63 2919.6 3850.63 2919.6 3850.63 2919.6 3851.63 2919.6 3852.63 2919.6 3850.63 2919.6 3850.63 2919.6 3851.63 2919.6 3852.63 2919.6 3850.63 2919.6 3850.63 2919.6 3851.63 2919.6 3852.63 2919.6 3850.63 2919.6 3850.63 2919.6 3851.63 2919.6 3851.63 2919.6 3850.63 2919.6 3850.63 2919.6 3851.63 2919.6 3851.63 2919.6 3850.63 2919.6 3851.63 2919.6 3851.63 2919.6 3850.63 2919.6 3850.63 2919.6 3851.63 2919.6 3850.63 2919.6 3850.63 2919.6 3851.63 2919.6 3850.63 2919.6 3850.63 2919.6 3850.63 2919.6 3850.63 2919.6 3850.63 2919.6 3850.63 2919.6 3851.63 2919.6 3850.63 2919.6 3850.63 2919.6 3850.63 2919.6 3850.63 2919.6 3850.63 2919.6 3850.63 2919.6 3850.63 2919.6 3850.63 2919.6 3850.63 2919.6 3850.63 2919.6 3850.63 2919.6 3850.63 2919.6 3850.63 2919.6 3850.63 2919.6 3850.63 2919.6 3849.63 2919.6 3850.63 2919.6 3850.63 2919.6 3849.63 2919.6 3850.63 2919.6 3849.63 2919.6 3849.63 2919.6 3849.63 2919.6 3849.63 2919.6 3849.63 2919.6 3849.63 2919.6 3849.63 2919.6 3849.63 2919.6 3849.63 2919.6 3849.63 2919.6 3849.63 2919.6 3849.63 2919.6 3849.63 2919.6 3849.63 2919.6 3849.63 2919.6 3849.63 2919.6 3848.63 2919.6 3848.63 2919.6 3848.63 2919.6 3848.63 2919.6 3848.63 2919.6 3848.63 2919.6 3848.63 2919.6 3848.63 2919.6 3848.63 2919.6 3847.63 2919.6 3847.63 2919.6 3846.63 2919.6 3846.63 2919.6 3845.63 2919.6 3845.63 2919.6 3845.63 2919.6 3844.63 2919.6 3844.63 2919.6 3843.63 2919.6 3842.63 2919.6 3841.63 2919.6 3840.63 2920.6 3839.63 2920.6 3839.63 2920.6 3838.63 2920.6 3837.63 2922.6 3835.63 2924.6 3829.63 2927.6 3824.63 2930.6 3819.63 2933.6 3814.63 2936.6 3809.62 2939.6 3804.62 2941.6 3799.62 2947.6 3789.62 2951.6 3781.62 2955.6 3773.62 2959.6 3765.62 2963.6 3757.62 2967.6 3749.62 2971.6 3741.62 2975.6 3733.62 2980.6 3723.62 2986.6 3712.62 2991.6 3702.62 2996.6 3692.62 3001.6 3682.62 3006.6 3672.62 3012.6 3663.62 3023.6 3642.62 3034.6 3622.62 3045.6 3603.62 3057.6 3583.62 3068.6 3564.62 3079.6 3546.62 3090.6 3527.62 3107.6 3501.61 3124.6 3475.61 3141.6 3450.61 3158.6 3425.61 3175.6 3401.61 3192.6 3378.61 3209.61 3356.61 3240.61 3316.61 3272.61 3277.61 3304.61 3241.61 3336.61 3206.61 3367.61 3174.6 3399.61 3143.6 3431.61 3114.6 3483.61 3070.6 3536.62 3029.6 3589.62 2991.6 3641.62 2957.6 3694.62 2925.6 3747.62 2897.6 3799.62 2871.59 3852.63 2848.59 3905.63 2826.59 3957.63 2806.59 4010.63 2788.59 4062.63 2771.59 4115.64 2756.59 4168.64 2743.59 4220.64 2730.59 4273.64 2719.59 4326.64 2708.59 4378.64 2699.59 4431.65 2690.59 4484.65 2682.59 4536.65 2675.59 4589.65 2668.59 4641.65 2662.59 4694.65 2657.59 4747.66 2652.59 4799.66 2647.59 4852.66 2643.59 4905.66 2639.59 4922.66 2638.59 4939.66 2637.59 4956.66 2636.59 4974.66 2635.59 4991.66 2634.59 5008.66 2633.59 5026.67 2632.59 5028.67 2631.59 5081.67 2629.59 5134.67 2626.59 5186.67 2624.59 5239.67 2621.59 5292.67 2620.59 5344.68 2618.59 5397.68 2616.59 5449.68 2615.59 5501.68 2613.59 5554.68 2612.59 5606.68 2611.59 5658.69 2610.59 5710.69 2609.59 5763.69 2608.59 5768.69 2608.59 5770.5 2608.5" stroke="#ED7D31" stroke-width="6.875" stroke-linecap="round" stroke-linejoin="round" stroke-miterlimit="10" fill="none"/></g><g clip-path="url(#clip6)"><path d="M2890.5 3856.5 5770.5 3856.5" stroke="#4472C4" stroke-width="6.875" stroke-linecap="round" stroke-linejoin="round" stroke-miterlimit="10" stroke-dasharray="20.625 27.5" fill="none"/></g><g clip-path="url(#clip7)"><text fill="#595959" font-family="Calibri,Calibri_MSFontService,sans-serif" font-weight="400" font-size="41" transform="matrix(1 0 0 1 2831.38 3949)">0</text></g><g clip-path="url(#clip8)"><text fill="#595959" font-family="Calibri,Calibri_MSFontService,sans-serif" font-weight="400" font-size="41" transform="matrix(1 0 0 1 2810.48 3747)">10</text></g><g clip-path="url(#clip9)"><text fill="#595959" font-family="Calibri,Calibri_MSFontService,sans-serif" font-weight="400" font-size="41" transform="matrix(1 0 0 1 2810.48 3545)">20</text></g><g clip-path="url(#clip10)"><text fill="#595959" font-family="Calibri,Calibri_MSFontService,sans-serif" font-weight="400" font-size="41" transform="matrix(1 0 0 1 2810.48 3343)">30</text></g><g clip-path="url(#clip11)"><text fill="#595959" font-family="Calibri,Calibri_MSFontService,sans-serif" font-weight="400" font-size="41" transform="matrix(1 0 0 1 2810.48 3141)">40</text></g><g clip-path="url(#clip12)"><text fill="#595959" font-family="Calibri,Calibri_MSFontService,sans-serif" font-weight="400" font-size="41" transform="matrix(1 0 0 1 2810.48 2939)">50</text></g><g clip-path="url(#clip13)"><text fill="#595959" font-family="Calibri,Calibri_MSFontService,sans-serif" font-weight="400" font-size="41" transform="matrix(1 0 0 1 2810.48 2737)">60</text></g><g clip-path="url(#clip14)"><text fill="#595959" font-family="Calibri,Calibri_MSFontService,sans-serif" font-weight="400" font-size="41" transform="matrix(1 0 0 1 2810.48 2535)">70</text></g><g clip-path="url(#clip15)"><text fill="#595959" font-family="Calibri,Calibri_MSFontService,sans-serif" font-weight="400" font-size="41" transform="matrix(1 0 0 1 2880.1 4002)">0</text></g><g clip-path="url(#clip16)"><text fill="#595959" font-family="Calibri,Calibri_MSFontService,sans-serif" font-weight="400" font-size="41" transform="matrix(1 0 0 1 3152.48 4002)">0.1</text></g><g clip-path="url(#clip17)"><text fill="#595959" font-family="Calibri,Calibri_MSFontService,sans-serif" font-weight="400" font-size="41" transform="matrix(1 0 0 1 3440.51 4002)">0.2</text></g><g clip-path="url(#clip18)"><text fill="#595959" font-family="Calibri,Calibri_MSFontService,sans-serif" font-weight="400" font-size="41" transform="matrix(1 0 0 1 3728.54 4002)">0.3</text></g><g clip-path="url(#clip19)"><text fill="#595959" font-family="Calibri,Calibri_MSFontService,sans-serif" font-weight="400" font-size="41" transform="matrix(1 0 0 1 4016.57 4002)">0.4</text></g><g clip-path="url(#clip20)"><text fill="#595959" font-family="Calibri,Calibri_MSFontService,sans-serif" font-weight="400" font-size="41" transform="matrix(1 0 0 1 4304.6 4002)">0.5</text></g><g clip-path="url(#clip21)"><text fill="#595959" font-family="Calibri,Calibri_MSFontService,sans-serif" font-weight="400" font-size="41" transform="matrix(1 0 0 1 4592.63 4002)">0.6</text></g><g clip-path="url(#clip22)"><text fill="#595959" font-family="Calibri,Calibri_MSFontService,sans-serif" font-weight="400" font-size="41" transform="matrix(1 0 0 1 4880.66 4002)">0.7</text></g><g clip-path="url(#clip23)"><text fill="#595959" font-family="Calibri,Calibri_MSFontService,sans-serif" font-weight="400" font-size="41" transform="matrix(1 0 0 1 5168.69 4002)">0.8</text></g><g clip-path="url(#clip24)"><text fill="#595959" font-family="Calibri,Calibri_MSFontService,sans-serif" font-weight="400" font-size="41" transform="matrix(1 0 0 1 5456.72 4002)">0.9</text></g><g clip-path="url(#clip25)"><text fill="#595959" font-family="Calibri,Calibri_MSFontService,sans-serif" font-weight="400" font-size="41" transform="matrix(1 0 0 1 5760.4 4002)">1</text></g><g clip-path="url(#clip26)"><text fill="#595959" font-family="Calibri,Calibri_MSFontService,sans-serif" font-weight="400" font-size="46" transform="matrix(6.12323e-17 -1 1 6.12323e-17 2709.12 3353)">Voltage (V)</text></g><g clip-path="url(#clip27)"><text fill="#595959" font-family="Calibri,Calibri_MSFontService,sans-serif" font-weight="400" font-size="46" transform="matrix(1 0 0 1 4244.49 4071)">Time (us)</text></g><g clip-path="url(#clip28)"><text fill="#595959" font-family="Calibri,Calibri_MSFontService,sans-serif" font-weight="400" font-size="64" transform="matrix(1 0 0 1 3657.34 2344)">Voltage @ SAM3X VDDIO </text></g><g clip-path="url(#clip29)"><text fill="#595959" font-family="Calibri,Calibri_MSFontService,sans-serif" font-weight="400" font-size="64" transform="matrix(1 0 0 1 4328.91 2344)">-</text></g><g clip-path="url(#clip30)"><text fill="#595959" font-family="Calibri,Calibri_MSFontService,sans-serif" font-weight="400" font-size="64" transform="matrix(1 0 0 1 4363.06 2344)">Base Condition</text></g><g clip-path="url(#clip31)"><path d="M3844.5 2433.5 3960.5 2433.5" stroke="#ED7D31" stroke-width="6.875" stroke-linecap="round" stroke-linejoin="round" stroke-miterlimit="10" fill="none" fill-rule="evenodd"/></g><g clip-path="url(#clip32)"><text fill="#595959" font-family="Calibri,Calibri_MSFontService,sans-serif" font-weight="400" font-size="41" transform="matrix(1 0 0 1 3973.11 2445)">VDDIO (V)</text></g><g clip-path="url(#clip33)"><path d="M4206.5 2433.5 4321.5 2433.5" stroke="#4472C4" stroke-width="6.875" stroke-linecap="round" stroke-linejoin="round" stroke-miterlimit="10" stroke-dasharray="20.625 27.5" fill="none" fill-rule="evenodd"/></g><g clip-path="url(#clip34)"><text fill="#595959" font-family="Calibri,Calibri_MSFontService,sans-serif" font-weight="400" font-size="41" transform="matrix(1 0 0 1 4334.43 2445)">VDDIO Max (V)</text></g><rect x="2578.5" y="2248.5" width="3255" height="1892" stroke="#D9D9D9" stroke-width="3.4375" stroke-linejoin="round" stroke-miterlimit="10" fill="none"/></g></svg>