<svg width="3169" height="1895" xmlns="http://www.w3.org/2000/svg" xmlns:xlink="http://www.w3.org/1999/xlink" overflow="hidden"><defs><clipPath id="clip0"><rect x="1896" y="355" width="3169" height="1895"/></clipPath><clipPath id="clip1"><rect x="1897" y="355" width="3166" height="1893"/></clipPath><clipPath id="clip2"><rect x="1897" y="355" width="3166" height="1893"/></clipPath><clipPath id="clip3"><rect x="1897" y="355" width="3166" height="1893"/></clipPath><clipPath id="clip4"><rect x="1897" y="355" width="3166" height="1893"/></clipPath><clipPath id="clip5"><rect x="2201" y="630" width="2805" height="1418"/></clipPath><clipPath id="clip6"><rect x="2201" y="630" width="2805" height="1418"/></clipPath><clipPath id="clip7"><rect x="1897" y="355" width="3166" height="1893"/></clipPath><clipPath id="clip8"><rect x="1897" y="355" width="3166" height="1893"/></clipPath><clipPath id="clip9"><rect x="1897" y="355" width="3166" height="1893"/></clipPath><clipPath id="clip10"><rect x="1897" y="355" width="3166" height="1893"/></clipPath><clipPath id="clip11"><rect x="1897" y="355" width="3166" height="1893"/></clipPath><clipPath id="clip12"><rect x="1897" y="355" width="3166" height="1893"/></clipPath><clipPath id="clip13"><rect x="1897" y="355" width="3166" height="1893"/></clipPath><clipPath id="clip14"><rect x="1897" y="355" width="3166" height="1893"/></clipPath><clipPath id="clip15"><rect x="1897" y="355" width="3166" height="1893"/></clipPath><clipPath id="clip16"><rect x="1897" y="355" width="3166" height="1893"/></clipPath><clipPath id="clip17"><rect x="1897" y="355" width="3166" height="1893"/></clipPath><clipPath id="clip18"><rect x="1897" y="355" width="3166" height="1893"/></clipPath><clipPath id="clip19"><rect x="1897" y="355" width="3166" height="1893"/></clipPath><clipPath id="clip20"><rect x="1897" y="355" width="3166" height="1893"/></clipPath><clipPath id="clip21"><rect x="1897" y="355" width="3166" height="1893"/></clipPath><clipPath id="clip22"><rect x="1897" y="355" width="3166" height="1893"/></clipPath><clipPath id="clip23"><rect x="1897" y="355" width="3166" height="1893"/></clipPath><clipPath id="clip24"><rect x="1897" y="355" width="3166" height="1893"/></clipPath><clipPath id="clip25"><rect x="1897" y="355" width="3166" height="1893"/></clipPath><clipPath id="clip26"><rect x="1897" y="355" width="3166" height="1893"/></clipPath><clipPath id="clip27"><rect x="1897" y="355" width="3166" height="1893"/></clipPath><clipPath id="clip28"><rect x="1897" y="355" width="3166" height="1893"/></clipPath><clipPath id="clip29"><rect x="1897" y="355" width="3166" height="1893"/></clipPath><clipPath id="clip30"><rect x="1897" y="355" width="3166" height="1893"/></clipPath><clipPath id="clip31"><rect x="1897" y="355" width="3166" height="1893"/></clipPath><clipPath id="clip32"><rect x="1897" y="355" width="3166" height="1893"/></clipPath><clipPath id="clip33"><rect x="1897" y="355" width="3166" height="1893"/></clipPath><clipPath id="clip34"><rect x="1897" y="355" width="3166" height="1893"/></clipPath></defs><g clip-path="url(#clip0)" transform="translate(-1896 -355)"><rect x="1897" y="356" width="3166" height="1892" fill="#FFFFFF"/><g clip-path="url(#clip1)"><path d="M2201.5 1842.56 5002.5 1842.56M2201.5 1640.55 5002.5 1640.55M2201.5 1438.55 5002.5 1438.55M2201.5 1236.54 5002.5 1236.54M2201.5 1034.53 5002.5 1034.53M2201.5 832.527 5002.5 832.527M2201.5 630.5 5002.5 630.5" stroke="#D9D9D9" stroke-width="3.4375" stroke-linejoin="round" stroke-miterlimit="10" fill="none"/></g><g clip-path="url(#clip2)"><path d="M2481.58 630.5 2481.58 2044.5M2761.59 630.5 2761.59 2044.5M3041.6 630.5 3041.6 2044.5M3321.61 630.5 3321.61 2044.5M3601.62 630.5 3601.62 2044.5M3881.63 630.5 3881.63 2044.5M4162.64 630.5 4162.64 2044.5M4442.65 630.5 4442.65 2044.5M4722.66 630.5 4722.66 2044.5M5002.5 630.5 5002.5 2044.5" stroke="#D9D9D9" stroke-width="3.4375" stroke-linejoin="round" stroke-miterlimit="10" fill="none"/></g><g clip-path="url(#clip3)"><path d="M0 0 0.000360892 1414" stroke="#BFBFBF" stroke-width="3.4375" stroke-linejoin="round" stroke-miterlimit="10" fill="none" fill-rule="evenodd" transform="matrix(1 0 0 -1 2201.5 2044.5)"/></g><g clip-path="url(#clip4)"><path d="M2201.5 2044.5 5002.5 2044.5" stroke="#BFBFBF" stroke-width="3.4375" stroke-linejoin="round" stroke-miterlimit="10" fill="none" fill-rule="evenodd"/></g><g clip-path="url(#clip5)"><path d="M2201.5 2042.57 2229.57 2042.57 2229.57 2042.57 2229.57 2042.57 2229.57 2042.57 2229.57 2042.57 2229.57 2042.57 2229.57 2042.57 2229.57 2042.57 2229.57 2042.57 2229.57 2042.57 2229.57 2042.57 2229.57 2042.57 2229.57 2042.57 2229.57 2042.57 2229.57 2042.57 2229.57 2043.5 2229.57 2042.57 2229.57 2042.57 2229.57 2042.57 2229.57 2042.57 2229.57 2042.57 2229.57 2042.57 2229.57 2042.57 2229.57 2042.57 2229.57 2042.57 2229.57 2042.57 2229.57 2042.57 2229.57 2042.57 2229.57 2042.57 2229.57 2042.57 2229.57 2042.57 2229.57 2042.57 2229.57 2042.57 2229.57 2042.57 2229.57 2042.57 2229.57 2042.57 2229.57 2042.57 2229.57 2042.57 2229.57 2042.57 2229.57 2042.57 2229.57 2042.57 2229.57 2042.57 2229.57 2042.57 2229.57 2042.57 2229.57 2042.57 2229.57 2042.57 2229.57 2042.57 2229.57 2042.57 2229.57 2042.57 2229.57 2042.57 2229.57 2042.57 2229.57 2042.57 2229.57 2042.57 2229.57 2042.57 2229.57 2042.57 2229.57 2042.57 2229.57 2042.57 2229.57 2042.57 2229.57 2042.57 2229.57 2042.57 2229.57 2042.57 2229.57 2042.57 2229.57 2042.57 2229.57 2042.57 2229.57 2042.57 2229.57 2042.57 2229.57 2042.57 2229.57 2042.57 2229.57 2042.57 2229.57 2042.57 2229.57 2042.57 2229.57 2042.57 2229.57 2042.57 2229.57 2042.57 2229.57 2042.57 2229.57 2042.57 2229.57 2042.57 2229.57 2042.57 2229.57 2042.57 2229.57 2042.57 2229.57 2042.57 2229.57 2042.57 2229.57 2042.57 2229.57 2042.57 2229.57 2042.57 2229.57 2042.57 2229.57 2042.57 2229.57 2042.57 2229.57 2042.57 2229.57 2042.57 2229.57 2042.57 2229.57 2042.57 2229.57 2042.57 2229.57 2042.57 2229.57 2042.57 2229.57 2042.57 2229.57 2042.57 2229.57 2042.57 2229.57 2042.57 2229.57 2042.57 2229.57 2042.57 2229.57 2042.57 2229.57 2042.57 2229.57 2042.57 2229.57 2042.57 2229.57 2042.57 2229.57 2042.57 2229.57 2042.57 2229.57 2042.57 2229.57 2042.57 2229.57 2042.57 2229.57 2042.57 2229.57 2042.57 2229.57 2042.57 2229.57 2042.57 2229.57 2042.57 2229.57 2042.57 2229.57 2042.57 2229.57 2042.57 2229.57 2042.57 2229.57 2042.57 2229.57 2042.57 2229.57 2042.57 2229.57 2042.57 2229.57 2042.57 2229.57 2042.57 2229.57 2042.57 2229.57 2042.57 2229.57 2042.57 2229.57 2042.57 2229.57 2042.57 2229.57 2042.57 2229.57 2042.57 2229.57 2042.57 2229.57 2042.57 2229.57 2042.57 2229.57 2042.57 2229.57 2042.57 2229.57 2042.57 2229.57 2042.57 2229.57 2042.57 2229.57 2042.57 2229.57 2042.57 2229.57 2042.57 2229.57 2042.57 2229.57 2042.57 2229.57 2042.57 2229.57 2042.57 2229.57 2042.57 2229.57 2042.57 2229.57 2042.57 2229.57 2042.57 2229.57 2042.57 2229.57 2042.57 2229.57 2042.57 2229.57 2042.57 2229.57 2042.57 2229.57 2042.57 2229.57 2042.57 2229.57 2042.57 2229.57 2042.57 2229.57 2042.57 2229.57 2042.57 2229.57 2042.57 2229.57 2042.57 2229.57 2042.57 2229.57 2042.57 2229.57 2042.57 2229.57 2042.57 2229.57 2042.57 2229.57 2042.57 2229.57 2042.57 2229.57 2042.57 2229.57 2042.57 2229.57 2042.57 2229.57 2042.57 2229.57 2042.57 2229.57 2042.57 2229.57 2042.57 2229.57 2042.57 2229.57 2042.57 2229.57 2042.57 2229.57 2042.57 2229.57 2042.57 2229.57 2042.57 2229.57 2042.57 2229.57 2042.57 2229.57 2042.57 2229.57 2042.57 2229.57 2042.57 2229.57 2042.57 2229.57 2042.57 2229.57 2042.57 2229.57 2042.57 2229.57 2042.57 2229.57 2042.57 2229.57 2042.57 2229.57 2042.57 2229.57 2042.57 2229.57 2042.57 2229.57 2042.57 2229.57 2042.57 2229.57 2042.57 2229.57 2042.57 2229.57 2042.57 2229.57 2042.57 2229.57 2042.57 2229.57 2042.57 2229.57 2042.57 2229.57 2042.57 2229.57 2042.57 2229.57 2042.57 2229.57 2042.57 2229.57 2042.57 2229.57 2042.57 2229.57 2042.57 2229.57 2042.57 2229.57 2042.57 2230.57 2042.57 2230.57 2042.57 2230.57 2042.57 2230.57 2042.57 2232.57 2042.57 2234.57 2042.57 2237.57 2042.57 2240.57 2042.57 2243.57 2042.57 2245.57 2042.57 2248.57 2041.57 2251.57 2041.57 2256.57 2041.57 2260.57 2041.57 2264.57 2041.57 2268.57 2041.57 2272.57 2040.57 2276.57 2040.57 2280.57 2040.57 2284.57 2040.57 2289.58 2040.57 2294.58 2040.57 2299.58 2039.57 2304.58 2039.57 2309.58 2039.57 2314.58 2039.57 2319.58 2039.57 2330.58 2038.57 2341.58 2038.57 2352.58 2037.57 2363.58 2037.57 2374.58 2037.57 2385.58 2036.57 2396.58 2036.57 2412.58 2035.57 2429.58 2035.57 2445.58 2034.57 2461.58 2034.57 2478.58 2033.57 2494.58 2033.57 2511.58 2032.57 2542.58 2032.57 2572.58 2031.57 2603.59 2030.57 2634.59 2029.57 2665.59 2029.57 2696.59 2028.57 2727.59 2028.57 2778.59 2027.57 2829.59 2026.57 2880.59 2025.57 2932.6 2024.57 2983.6 2024.57 3034.6 2023.57 3085.6 2023.57 3136.6 2022.57 3187.6 2022.57 3239.61 2021.57 3290.61 2021.57 3341.61 2021.57 3392.61 2020.57 3443.61 2020.57 3495.61 2020.57 3546.62 2020.57 3597.62 2019.57 3648.62 2019.57 3699.62 2019.57 3751.62 2019.57 3802.62 2019.57 3853.63 2019.57 3904.63 2019.57 3955.63 2018.57 4007.63 2018.57 4058.63 2018.57 4109.63 2018.57 4160.64 2018.57 4177.64 2018.57 4194.64 2018.57 4211.64 2018.57 4227.64 2018.57 4244.64 2018.57 4261.64 2018.57 4278.64 2018.57 4281.64 2018.57 4332.64 2018.57 4383.64 2018.57 4434.65 2018.57 4485.65 2018.57 4536.65 2018.57 4588.65 2018.57 4639.65 2018.57 4690.65 2018.57 4740.66 2018.57 4791.66 2018.57 4842.66 2018.57 4893.66 2018.57 4944.66 2017.57 4994.66 2017.57 5000.66 2017.57 5002.5 2018.5" stroke="#ED7D31" stroke-width="6.875" stroke-linecap="round" stroke-linejoin="round" stroke-miterlimit="10" fill="none"/></g><g clip-path="url(#clip6)"><path d="M2201.5 2042.5 2229.57 2042.5 2229.57 2039.57 2229.57 2033.57 2229.57 2030.57 2229.57 2030.57 2229.57 2030.57 2229.57 2030.57 2229.57 2030.57 2229.57 2030.57 2229.57 2030.57 2229.57 2030.57 2229.57 2030.57 2229.57 2030.57 2229.57 2030.57 2229.57 2029.57 2229.57 2028.57 2229.57 2027.57 2229.57 2026.57 2229.57 2025.57 2229.57 2023.57 2229.57 2021.57 2229.57 2020.57 2229.57 2018.57 2229.57 2017.57 2229.57 2016.57 2229.57 2014.57 2229.57 2012.57 2229.57 2011.57 2229.57 2010.57 2229.57 2008.57 2229.57 2007.57 2229.57 2006.57 2229.57 2004.57 2229.57 2003.57 2229.57 2002.57 2229.57 2000.57 2229.57 1999.57 2229.57 1998.57 2229.57 1996.57 2229.57 1995.57 2229.57 1993.57 2229.57 1992.57 2229.57 1991.57 2229.57 1989.57 2229.57 1988.57 2229.57 1987.57 2229.57 1985.57 2229.57 1984.57 2229.57 1983.57 2229.57 1981.57 2229.57 1980.57 2229.57 1978.57 2229.57 1977.57 2229.57 1976.57 2229.57 1974.56 2229.57 1973.56 2229.57 1971.56 2229.57 1969.56 2229.57 1968.56 2229.57 1966.56 2229.57 1965.56 2229.57 1963.56 2229.57 1962.56 2229.57 1960.56 2229.57 1959.56 2229.57 1957.56 2229.57 1955.56 2229.57 1953.56 2229.57 1951.56 2229.57 1950.56 2229.57 1948.56 2229.57 1947.56 2229.57 1945.56 2229.57 1943.56 2229.57 1942.56 2229.57 1940.56 2229.57 1938.56 2229.57 1937.56 2229.57 1935.56 2229.57 1933.56 2229.57 1932.56 2229.57 1930.56 2229.57 1928.56 2229.57 1926.56 2229.57 1925.56 2229.57 1923.56 2229.57 1921.56 2229.57 1920.56 2229.57 1918.56 2229.57 1916.56 2229.57 1914.56 2229.57 1912.56 2229.57 1910.56 2229.57 1909.56 2229.57 1907.56 2229.57 1905.56 2229.57 1903.56 2229.57 1901.56 2229.57 1899.56 2229.57 1897.56 2229.57 1895.56 2229.57 1892.56 2229.57 1890.56 2229.57 1888.56 2229.57 1886.56 2229.57 1884.56 2229.57 1883.56 2229.57 1881.56 2229.57 1879.56 2229.57 1877.56 2229.57 1875.56 2229.57 1873.56 2229.57 1871.56 2229.57 1869.56 2229.57 1867.56 2229.57 1865.56 2229.57 1863.56 2229.57 1860.56 2229.57 1858.56 2229.57 1856.56 2229.57 1854.56 2229.57 1852.56 2229.57 1850.56 2229.57 1847.56 2229.57 1846.56 2229.57 1843.56 2229.57 1841.56 2229.57 1839.56 2229.57 1837.56 2229.57 1835.56 2229.57 1833.56 2229.57 1831.56 2229.57 1829.56 2229.57 1826.56 2229.57 1825.56 2229.57 1822.56 2229.57 1820.56 2229.57 1818.56 2229.57 1816.56 2229.57 1814.56 2229.57 1812.56 2229.57 1809.56 2229.57 1807.56 2229.57 1805.56 2229.57 1803.56 2229.57 1801.56 2229.57 1798.56 2229.57 1796.56 2229.57 1793.56 2229.57 1790.56 2229.57 1787.56 2229.57 1785.56 2229.57 1783.56 2229.57 1780.56 2229.57 1777.56 2229.57 1774.56 2229.57 1772.56 2229.57 1769.56 2229.57 1766.56 2229.57 1763.56 2229.57 1760.56 2229.57 1757.56 2229.57 1754.56 2229.57 1751.56 2229.57 1749.56 2229.57 1746.56 2229.57 1742.56 2229.57 1739.56 2229.57 1736.56 2229.57 1733.56 2229.57 1729.56 2229.57 1726.56 2229.57 1723.56 2229.57 1720.56 2229.57 1716.56 2229.57 1713.56 2229.57 1709.56 2229.57 1706.56 2229.57 1702.56 2229.57 1698.56 2229.57 1695.56 2229.57 1690.56 2229.57 1687.56 2229.57 1683.56 2229.57 1679.56 2229.57 1673.56 2229.57 1669.55 2229.57 1664.55 2229.57 1660.55 2229.57 1654.55 2229.57 1649.55 2229.57 1643.55 2229.57 1638.55 2229.57 1633.55 2229.57 1625.55 2229.57 1618.55 2229.57 1612.55 2229.57 1605.55 2229.57 1599.55 2229.57 1593.55 2229.57 1584.55 2229.57 1574.55 2229.57 1564.55 2229.57 1556.55 2229.57 1547.55 2229.57 1532.55 2229.57 1524.55 2229.57 1513.55 2229.57 1459.55 2229.57 1407.55 2229.57 1359.54 2229.57 1314.54 2229.57 1272.54 2229.57 1233.54 2229.57 1198.54 2229.57 1152.54 2229.57 1101.54 2229.57 1043.53 2229.57 980.532 2229.57 910.53 2229.57 846.528 2230.57 782.526 2230.57 747.525 2230.57 727.524 2230.57 724.5 2232.57 755.525 2234.57 839.528 2237.57 900.53 2240.57 944.531 2243.57 972.532 2245.57 988.533 2248.57 993.533 2251.57 990.533 2256.57 971.532 2260.57 949.531 2264.57 930.531 2268.57 915.53 2272.57 904.53 2276.57 896.53 2280.57 891.529 2284.57 890.529 2289.58 898.53 2294.58 906.53 2299.58 916.53 2304.58 927.531 2309.58 939.531 2314.58 952.531 2319.58 966.532 2330.58 987.533 2341.58 1008.53 2352.58 1028.53 2363.58 1047.53 2374.58 1066.54 2385.58 1084.54 2396.58 1101.54 2412.58 1128.54 2429.58 1153.54 2445.58 1178.54 2461.58 1202.54 2478.58 1226.54 2494.58 1248.54 2511.58 1271.54 2542.58 1310.54 2572.58 1348.54 2603.59 1384.55 2634.59 1418.55 2665.59 1450.55 2696.59 1480.55 2727.59 1509.55 2778.59 1552.55 2829.59 1593.55 2880.59 1630.55 2932.6 1664.55 2983.6 1695.56 3034.6 1723.56 3085.6 1748.56 3136.6 1771.56 3187.6 1793.56 3239.61 1812.56 3290.61 1830.56 3341.61 1847.56 3392.61 1862.56 3443.61 1875.56 3495.61 1887.56 3546.62 1898.56 3597.62 1909.56 3648.62 1918.56 3699.62 1927.56 3751.62 1935.56 3802.62 1942.56 3853.63 1948.56 3904.63 1954.56 3955.63 1960.56 4007.63 1965.56 4058.63 1970.56 4109.63 1974.56 4160.64 1977.57 4177.64 1979.57 4194.64 1980.57 4211.64 1981.57 4227.64 1982.57 4244.64 1983.57 4261.64 1984.57 4278.64 1985.57 4281.64 1985.57 4332.64 1988.57 4383.64 1990.57 4434.65 1993.57 4485.65 1995.57 4536.65 1997.57 4588.65 1999.57 4639.65 2000.57 4690.65 2002.57 4740.66 2003.57 4791.66 2004.57 4842.66 2005.57 4893.66 2006.57 4944.66 2007.57 4994.66 2008.57 5000.66 2008.57 5002.5 2008.57" stroke="#A5A5A5" stroke-width="6.875" stroke-linecap="round" stroke-linejoin="round" stroke-miterlimit="10" fill="none"/></g><g clip-path="url(#clip7)"><text fill="#595959" font-family="Calibri,Calibri_MSFontService,sans-serif" font-weight="400" font-size="41" transform="matrix(1 0 0 1 2142.18 2056)">0</text></g><g clip-path="url(#clip8)"><text fill="#595959" font-family="Calibri,Calibri_MSFontService,sans-serif" font-weight="400" font-size="41" transform="matrix(1 0 0 1 2100.38 1854)">500</text></g><g clip-path="url(#clip9)"><text fill="#595959" font-family="Calibri,Calibri_MSFontService,sans-serif" font-weight="400" font-size="41" transform="matrix(1 0 0 1 2079.48 1652)">1000</text></g><g clip-path="url(#clip10)"><text fill="#595959" font-family="Calibri,Calibri_MSFontService,sans-serif" font-weight="400" font-size="41" transform="matrix(1 0 0 1 2079.48 1450)">1500</text></g><g clip-path="url(#clip11)"><text fill="#595959" font-family="Calibri,Calibri_MSFontService,sans-serif" font-weight="400" font-size="41" transform="matrix(1 0 0 1 2079.48 1248)">2000</text></g><g clip-path="url(#clip12)"><text fill="#595959" font-family="Calibri,Calibri_MSFontService,sans-serif" font-weight="400" font-size="41" transform="matrix(1 0 0 1 2079.48 1046)">2500</text></g><g clip-path="url(#clip13)"><text fill="#595959" font-family="Calibri,Calibri_MSFontService,sans-serif" font-weight="400" font-size="41" transform="matrix(1 0 0 1 2079.48 844)">3000</text></g><g clip-path="url(#clip14)"><text fill="#595959" font-family="Calibri,Calibri_MSFontService,sans-serif" font-weight="400" font-size="41" transform="matrix(1 0 0 1 2079.48 642)">3500</text></g><g clip-path="url(#clip15)"><text fill="#595959" font-family="Calibri,Calibri_MSFontService,sans-serif" font-weight="400" font-size="41" transform="matrix(1 0 0 1 2190.9 2110)">0</text></g><g clip-path="url(#clip16)"><text fill="#595959" font-family="Calibri,Calibri_MSFontService,sans-serif" font-weight="400" font-size="41" transform="matrix(1 0 0 1 2455.37 2110)">0.1</text></g><g clip-path="url(#clip17)"><text fill="#595959" font-family="Calibri,Calibri_MSFontService,sans-serif" font-weight="400" font-size="41" transform="matrix(1 0 0 1 2735.49 2110)">0.2</text></g><g clip-path="url(#clip18)"><text fill="#595959" font-family="Calibri,Calibri_MSFontService,sans-serif" font-weight="400" font-size="41" transform="matrix(1 0 0 1 3015.61 2110)">0.3</text></g><g clip-path="url(#clip19)"><text fill="#595959" font-family="Calibri,Calibri_MSFontService,sans-serif" font-weight="400" font-size="41" transform="matrix(1 0 0 1 3295.73 2110)">0.4</text></g><g clip-path="url(#clip20)"><text fill="#595959" font-family="Calibri,Calibri_MSFontService,sans-serif" font-weight="400" font-size="41" transform="matrix(1 0 0 1 3575.86 2110)">0.5</text></g><g clip-path="url(#clip21)"><text fill="#595959" font-family="Calibri,Calibri_MSFontService,sans-serif" font-weight="400" font-size="41" transform="matrix(1 0 0 1 3855.98 2110)">0.6</text></g><g clip-path="url(#clip22)"><text fill="#595959" font-family="Calibri,Calibri_MSFontService,sans-serif" font-weight="400" font-size="41" transform="matrix(1 0 0 1 4136.1 2110)">0.7</text></g><g clip-path="url(#clip23)"><text fill="#595959" font-family="Calibri,Calibri_MSFontService,sans-serif" font-weight="400" font-size="41" transform="matrix(1 0 0 1 4416.22 2110)">0.8</text></g><g clip-path="url(#clip24)"><text fill="#595959" font-family="Calibri,Calibri_MSFontService,sans-serif" font-weight="400" font-size="41" transform="matrix(1 0 0 1 4696.35 2110)">0.9</text></g><g clip-path="url(#clip25)"><text fill="#595959" font-family="Calibri,Calibri_MSFontService,sans-serif" font-weight="400" font-size="41" transform="matrix(1 0 0 1 4992.12 2110)">1</text></g><g clip-path="url(#clip26)"><text fill="#595959" font-family="Calibri,Calibri_MSFontService,sans-serif" font-weight="400" font-size="46" transform="matrix(6.12323e-17 -1 1 6.12323e-17 2026.29 1461)">Voltage (V)</text></g><g clip-path="url(#clip27)"><text fill="#595959" font-family="Calibri,Calibri_MSFontService,sans-serif" font-weight="400" font-size="46" transform="matrix(1 0 0 1 3515.75 2179)">Time (ns)</text></g><g clip-path="url(#clip28)"><text fill="#595959" font-family="Calibri,Calibri_MSFontService,sans-serif" font-weight="400" font-size="64" transform="matrix(1 0 0 1 2963.15 451)">Base Condition </text></g><g clip-path="url(#clip29)"><text fill="#595959" font-family="Calibri,Calibri_MSFontService,sans-serif" font-weight="400" font-size="64" transform="matrix(1 0 0 1 3368.82 451)">-</text></g><g clip-path="url(#clip30)"><text fill="#595959" font-family="Calibri,Calibri_MSFontService,sans-serif" font-weight="400" font-size="64" transform="matrix(1 0 0 1 3402.96 451)">Limited ESD Protection </text></g><g clip-path="url(#clip31)"><path d="M3087.5 541.5 3175.5 541.5" stroke="#ED7D31" stroke-width="6.875" stroke-linecap="round" stroke-linejoin="round" stroke-miterlimit="10" fill="none" fill-rule="evenodd"/></g><g clip-path="url(#clip32)"><text fill="#595959" font-family="Calibri,Calibri_MSFontService,sans-serif" font-weight="400" font-size="41" transform="matrix(1 0 0 1 3184.78 553)">VDDIO (V)</text></g><g clip-path="url(#clip33)"><path d="M3418.5 541.5 3506.5 541.5" stroke="#A5A5A5" stroke-width="6.875" stroke-linecap="round" stroke-linejoin="round" stroke-miterlimit="10" fill="none" fill-rule="evenodd"/></g><g clip-path="url(#clip34)"><text fill="#595959" font-family="Calibri,Calibri_MSFontService,sans-serif" font-weight="400" font-size="41" transform="matrix(1 0 0 1 3515.31 553)">Input ESD Stimulus (V)</text></g><rect x="1897.5" y="356.5" width="3166" height="1892" stroke="#D9D9D9" stroke-width="3.4375" stroke-linejoin="round" stroke-miterlimit="10" fill="none"/></g></svg>