<svg width="3168" height="1895" xmlns="http://www.w3.org/2000/svg" xmlns:xlink="http://www.w3.org/1999/xlink" overflow="hidden"><defs><clipPath id="clip0"><rect x="1897" y="2247" width="3168" height="1895"/></clipPath><clipPath id="clip1"><rect x="1897" y="2248" width="3166" height="1892"/></clipPath><clipPath id="clip2"><rect x="1897" y="2248" width="3166" height="1892"/></clipPath><clipPath id="clip3"><rect x="1897" y="2248" width="3166" height="1892"/></clipPath><clipPath id="clip4"><rect x="1897" y="2248" width="3166" height="1892"/></clipPath><clipPath id="clip5"><rect x="2201" y="2522" width="2805" height="1418"/></clipPath><clipPath id="clip6"><rect x="2201" y="2522" width="2805" height="1418"/></clipPath><clipPath id="clip7"><rect x="1897" y="2248" width="3166" height="1892"/></clipPath><clipPath id="clip8"><rect x="1897" y="2248" width="3166" height="1892"/></clipPath><clipPath id="clip9"><rect x="1897" y="2248" width="3166" height="1892"/></clipPath><clipPath id="clip10"><rect x="1897" y="2248" width="3166" height="1892"/></clipPath><clipPath id="clip11"><rect x="1897" y="2248" width="3166" height="1892"/></clipPath><clipPath id="clip12"><rect x="1897" y="2248" width="3166" height="1892"/></clipPath><clipPath id="clip13"><rect x="1897" y="2248" width="3166" height="1892"/></clipPath><clipPath id="clip14"><rect x="1897" y="2248" width="3166" height="1892"/></clipPath><clipPath id="clip15"><rect x="1897" y="2248" width="3166" height="1892"/></clipPath><clipPath id="clip16"><rect x="1897" y="2248" width="3166" height="1892"/></clipPath><clipPath id="clip17"><rect x="1897" y="2248" width="3166" height="1892"/></clipPath><clipPath id="clip18"><rect x="1897" y="2248" width="3166" height="1892"/></clipPath><clipPath id="clip19"><rect x="1897" y="2248" width="3166" height="1892"/></clipPath><clipPath id="clip20"><rect x="1897" y="2248" width="3166" height="1892"/></clipPath><clipPath id="clip21"><rect x="1897" y="2248" width="3166" height="1892"/></clipPath><clipPath id="clip22"><rect x="1897" y="2248" width="3166" height="1892"/></clipPath><clipPath id="clip23"><rect x="1897" y="2248" width="3166" height="1892"/></clipPath><clipPath id="clip24"><rect x="1897" y="2248" width="3166" height="1892"/></clipPath><clipPath id="clip25"><rect x="1897" y="2248" width="3166" height="1892"/></clipPath><clipPath id="clip26"><rect x="1897" y="2248" width="3166" height="1892"/></clipPath><clipPath id="clip27"><rect x="1897" y="2248" width="3166" height="1892"/></clipPath><clipPath id="clip28"><rect x="1897" y="2248" width="3166" height="1892"/></clipPath><clipPath id="clip29"><rect x="1897" y="2248" width="3166" height="1892"/></clipPath><clipPath id="clip30"><rect x="1897" y="2248" width="3166" height="1892"/></clipPath><clipPath id="clip31"><rect x="1897" y="2248" width="3166" height="1892"/></clipPath><clipPath id="clip32"><rect x="1897" y="2248" width="3166" height="1892"/></clipPath><clipPath id="clip33"><rect x="1897" y="2248" width="3166" height="1892"/></clipPath><clipPath id="clip34"><rect x="1897" y="2248" width="3166" height="1892"/></clipPath></defs><g clip-path="url(#clip0)" transform="translate(-1897 -2247)"><rect x="1898" y="2248" width="3165" height="1892" fill="#FFFFFF"/><g clip-path="url(#clip1)"><path d="M2201.5 3734.62 5002.5 3734.62M2201.5 3532.62 5002.5 3532.62M2201.5 3330.61 5002.5 3330.61M2201.5 3128.6 5002.5 3128.6M2201.5 2926.6 5002.5 2926.6M2201.5 2724.59 5002.5 2724.59M2201.5 2522.5 5002.5 2522.5" stroke="#D9D9D9" stroke-width="3.4375" stroke-linejoin="round" stroke-miterlimit="10" fill="none"/></g><g clip-path="url(#clip2)"><path d="M2481.58 2522.5 2481.58 3936.5M2761.59 2522.5 2761.59 3936.5M3041.6 2522.5 3041.6 3936.5M3321.61 2522.5 3321.61 3936.5M3601.62 2522.5 3601.62 3936.5M3881.63 2522.5 3881.63 3936.5M4162.64 2522.5 4162.64 3936.5M4442.65 2522.5 4442.65 3936.5M4722.66 2522.5 4722.66 3936.5M5002.5 2522.5 5002.5 3936.5" stroke="#D9D9D9" stroke-width="3.4375" stroke-linejoin="round" stroke-miterlimit="10" fill="none"/></g><g clip-path="url(#clip3)"><path d="M0 0 0.000360892 1414" stroke="#BFBFBF" stroke-width="3.4375" stroke-linejoin="round" stroke-miterlimit="10" fill="none" fill-rule="evenodd" transform="matrix(1 0 0 -1 2201.5 3936.5)"/></g><g clip-path="url(#clip4)"><path d="M2201.5 3936.5 5002.5 3936.5" stroke="#BFBFBF" stroke-width="3.4375" stroke-linejoin="round" stroke-miterlimit="10" fill="none" fill-rule="evenodd"/></g><g clip-path="url(#clip5)"><path d="M2201.5 3854.63 2229.57 3854.63 2229.57 3854.63 2229.57 3854.63 2229.57 3854.63 2229.57 3853.63 2229.57 3853.63 2229.57 3853.63 2229.57 3853.63 2229.57 3853.63 2229.57 3853.63 2229.57 3853.63 2229.57 3853.63 2229.57 3852.63 2229.57 3851.63 2229.57 3850.63 2229.57 3848.63 2229.57 3850.63 2229.57 3854.63 2229.57 3857.5 2229.57 3856.63 2229.57 3851.63 2229.57 3849.63 2229.57 3850.63 2229.57 3855.63 2229.57 3857.63 2229.57 3854.63 2229.57 3850.63 2229.57 3849.63 2229.57 3852.63 2229.57 3855.63 2229.57 3857.63 2229.57 3854.63 2229.57 3850.63 2229.57 3849.63 2229.57 3851.63 2229.57 3855.63 2229.57 3856.63 2229.57 3854.63 2229.57 3850.63 2229.57 3849.63 2229.57 3852.63 2229.57 3855.63 2229.57 3856.63 2229.57 3853.63 2229.57 3850.63 2229.57 3849.63 2229.57 3852.63 2229.57 3855.63 2229.57 3855.63 2229.57 3853.63 2229.57 3850.63 2229.57 3850.63 2229.57 3853.63 2229.57 3855.63 2229.57 3855.63 2229.57 3851.63 2229.57 3849.63 2229.57 3851.63 2229.57 3854.63 2229.57 3855.63 2229.57 3852.63 2229.57 3850.63 2229.57 3850.63 2229.57 3853.63 2229.57 3855.63 2229.57 3853.63 2229.57 3850.63 2229.57 3851.63 2229.57 3854.63 2229.57 3855.63 2229.57 3852.63 2229.57 3850.63 2229.57 3850.63 2229.57 3853.63 2229.57 3854.63 2229.57 3852.63 2229.57 3850.63 2229.57 3851.63 2229.57 3853.63 2229.57 3854.63 2229.57 3851.63 2229.57 3850.63 2229.57 3851.63 2229.57 3853.63 2229.57 3853.63 2229.57 3851.63 2229.57 3850.63 2229.57 3852.63 2229.57 3853.63 2229.57 3852.63 2229.57 3850.63 2229.57 3850.63 2229.57 3853.63 2229.57 3853.63 2229.57 3851.63 2229.57 3850.63 2229.57 3851.63 2229.57 3853.63 2229.57 3852.63 2229.57 3850.63 2229.57 3851.63 2229.57 3853.63 2229.57 3852.63 2229.57 3850.63 2229.57 3851.63 2229.57 3853.63 2229.57 3852.63 2229.57 3850.63 2229.57 3850.63 2229.57 3852.63 2229.57 3853.63 2229.57 3851.63 2229.57 3850.63 2229.57 3851.63 2229.57 3852.63 2229.57 3851.63 2229.57 3850.63 2229.57 3851.63 2229.57 3852.63 2229.57 3851.63 2229.57 3850.63 2229.57 3852.63 2229.57 3852.63 2229.57 3850.63 2229.57 3850.63 2229.57 3852.63 2229.57 3852.63 2229.57 3850.63 2229.57 3850.63 2229.57 3851.63 2229.57 3852.63 2229.57 3850.63 2229.57 3850.63 2229.57 3851.63 2229.57 3852.63 2229.57 3850.63 2229.57 3850.63 2229.57 3851.63 2229.57 3852.63 2229.57 3850.63 2229.57 3850.63 2229.57 3851.63 2229.57 3851.63 2229.57 3850.63 2229.57 3850.63 2229.57 3851.63 2229.57 3851.63 2229.57 3850.63 2229.57 3851.63 2229.57 3851.63 2229.57 3850.63 2229.57 3850.63 2229.57 3851.63 2229.57 3850.63 2229.57 3850.63 2229.57 3851.63 2229.57 3850.63 2229.57 3850.63 2229.57 3850.63 2229.57 3850.63 2229.57 3850.63 2229.57 3850.63 2229.57 3851.63 2229.57 3850.63 2229.57 3850.63 2229.57 3850.63 2229.57 3850.63 2229.57 3850.63 2229.57 3850.63 2229.57 3850.63 2229.57 3850.63 2229.57 3850.63 2229.57 3850.63 2229.57 3850.63 2229.57 3850.63 2229.57 3850.63 2229.57 3850.63 2229.57 3850.63 2229.57 3849.63 2229.57 3850.63 2229.57 3850.63 2229.57 3849.63 2229.57 3850.63 2229.57 3849.63 2229.57 3849.63 2229.57 3849.63 2229.57 3849.63 2229.57 3849.63 2229.57 3849.63 2229.57 3849.63 2229.57 3849.63 2229.57 3849.63 2229.57 3849.63 2229.57 3849.63 2229.57 3849.63 2229.57 3849.63 2229.57 3849.63 2229.57 3849.63 2229.57 3849.63 2229.57 3848.63 2229.57 3848.63 2229.57 3848.63 2229.57 3848.63 2229.57 3848.63 2229.57 3848.63 2229.57 3848.63 2229.57 3848.63 2229.57 3848.63 2229.57 3847.63 2229.57 3847.63 2229.57 3846.63 2229.57 3846.63 2229.57 3845.63 2229.57 3845.63 2229.57 3845.63 2229.57 3844.63 2229.57 3844.63 2229.57 3843.63 2229.57 3842.63 2229.57 3841.63 2229.57 3840.63 2230.57 3839.63 2230.57 3839.63 2230.57 3838.63 2230.57 3837.63 2232.57 3835.63 2234.57 3829.63 2237.57 3824.63 2240.57 3819.63 2243.57 3814.63 2245.57 3809.62 2248.57 3804.62 2251.57 3799.62 2256.57 3789.62 2260.57 3781.62 2264.57 3773.62 2268.57 3765.62 2272.57 3757.62 2276.57 3749.62 2280.57 3741.62 2284.57 3733.62 2289.58 3723.62 2294.58 3712.62 2299.58 3702.62 2304.58 3692.62 2309.58 3682.62 2314.58 3672.62 2319.58 3663.62 2330.58 3642.62 2341.58 3622.62 2352.58 3603.62 2363.58 3583.62 2374.58 3564.62 2385.58 3546.62 2396.58 3527.62 2412.58 3501.61 2429.58 3475.61 2445.58 3450.61 2461.58 3425.61 2478.58 3401.61 2494.58 3378.61 2511.58 3356.61 2542.58 3316.61 2572.58 3277.61 2603.59 3241.61 2634.59 3206.61 2665.59 3174.6 2696.59 3143.6 2727.59 3114.6 2778.59 3070.6 2829.59 3029.6 2880.59 2991.6 2932.6 2957.6 2983.6 2925.6 3034.6 2897.6 3085.6 2871.59 3136.6 2848.59 3187.6 2826.59 3239.61 2806.59 3290.61 2788.59 3341.61 2771.59 3392.61 2756.59 3443.61 2743.59 3495.61 2730.59 3546.62 2719.59 3597.62 2708.59 3648.62 2699.59 3699.62 2690.59 3751.62 2682.59 3802.62 2675.59 3853.63 2668.59 3904.63 2662.59 3955.63 2657.59 4007.63 2652.59 4058.63 2647.59 4109.63 2643.59 4160.64 2639.59 4177.64 2638.59 4194.64 2637.59 4211.64 2636.59 4227.64 2635.59 4244.64 2634.59 4261.64 2633.59 4278.64 2632.59 4281.64 2631.59 4332.64 2629.59 4383.64 2626.59 4434.65 2624.59 4485.65 2621.59 4536.65 2620.59 4588.65 2618.59 4639.65 2616.59 4690.65 2615.59 4740.66 2613.59 4791.66 2612.59 4842.66 2611.59 4893.66 2610.59 4944.66 2609.59 4994.66 2608.59 5000.66 2608.59 5002.5 2608.5" stroke="#ED7D31" stroke-width="6.875" stroke-linecap="round" stroke-linejoin="round" stroke-miterlimit="10" fill="none"/></g><g clip-path="url(#clip6)"><path d="M2201.5 3856.5 5002.5 3856.5" stroke="#4472C4" stroke-width="6.875" stroke-linecap="round" stroke-linejoin="round" stroke-miterlimit="10" stroke-dasharray="20.625 27.5" fill="none"/></g><g clip-path="url(#clip7)"><text fill="#595959" font-family="Calibri,Calibri_MSFontService,sans-serif" font-weight="400" font-size="41" transform="matrix(1 0 0 1 2142.18 3949)">0</text></g><g clip-path="url(#clip8)"><text fill="#595959" font-family="Calibri,Calibri_MSFontService,sans-serif" font-weight="400" font-size="41" transform="matrix(1 0 0 1 2121.28 3747)">10</text></g><g clip-path="url(#clip9)"><text fill="#595959" font-family="Calibri,Calibri_MSFontService,sans-serif" font-weight="400" font-size="41" transform="matrix(1 0 0 1 2121.28 3545)">20</text></g><g clip-path="url(#clip10)"><text fill="#595959" font-family="Calibri,Calibri_MSFontService,sans-serif" font-weight="400" font-size="41" transform="matrix(1 0 0 1 2121.28 3343)">30</text></g><g clip-path="url(#clip11)"><text fill="#595959" font-family="Calibri,Calibri_MSFontService,sans-serif" font-weight="400" font-size="41" transform="matrix(1 0 0 1 2121.28 3141)">40</text></g><g clip-path="url(#clip12)"><text fill="#595959" font-family="Calibri,Calibri_MSFontService,sans-serif" font-weight="400" font-size="41" transform="matrix(1 0 0 1 2121.28 2939)">50</text></g><g clip-path="url(#clip13)"><text fill="#595959" font-family="Calibri,Calibri_MSFontService,sans-serif" font-weight="400" font-size="41" transform="matrix(1 0 0 1 2121.28 2737)">60</text></g><g clip-path="url(#clip14)"><text fill="#595959" font-family="Calibri,Calibri_MSFontService,sans-serif" font-weight="400" font-size="41" transform="matrix(1 0 0 1 2121.28 2535)">70</text></g><g clip-path="url(#clip15)"><text fill="#595959" font-family="Calibri,Calibri_MSFontService,sans-serif" font-weight="400" font-size="41" transform="matrix(1 0 0 1 2190.9 4002)">0</text></g><g clip-path="url(#clip16)"><text fill="#595959" font-family="Calibri,Calibri_MSFontService,sans-serif" font-weight="400" font-size="41" transform="matrix(1 0 0 1 2455.37 4002)">0.1</text></g><g clip-path="url(#clip17)"><text fill="#595959" font-family="Calibri,Calibri_MSFontService,sans-serif" font-weight="400" font-size="41" transform="matrix(1 0 0 1 2735.49 4002)">0.2</text></g><g clip-path="url(#clip18)"><text fill="#595959" font-family="Calibri,Calibri_MSFontService,sans-serif" font-weight="400" font-size="41" transform="matrix(1 0 0 1 3015.61 4002)">0.3</text></g><g clip-path="url(#clip19)"><text fill="#595959" font-family="Calibri,Calibri_MSFontService,sans-serif" font-weight="400" font-size="41" transform="matrix(1 0 0 1 3295.74 4002)">0.4</text></g><g clip-path="url(#clip20)"><text fill="#595959" font-family="Calibri,Calibri_MSFontService,sans-serif" font-weight="400" font-size="41" transform="matrix(1 0 0 1 3575.86 4002)">0.5</text></g><g clip-path="url(#clip21)"><text fill="#595959" font-family="Calibri,Calibri_MSFontService,sans-serif" font-weight="400" font-size="41" transform="matrix(1 0 0 1 3855.98 4002)">0.6</text></g><g clip-path="url(#clip22)"><text fill="#595959" font-family="Calibri,Calibri_MSFontService,sans-serif" font-weight="400" font-size="41" transform="matrix(1 0 0 1 4136.1 4002)">0.7</text></g><g clip-path="url(#clip23)"><text fill="#595959" font-family="Calibri,Calibri_MSFontService,sans-serif" font-weight="400" font-size="41" transform="matrix(1 0 0 1 4416.22 4002)">0.8</text></g><g clip-path="url(#clip24)"><text fill="#595959" font-family="Calibri,Calibri_MSFontService,sans-serif" font-weight="400" font-size="41" transform="matrix(1 0 0 1 4696.35 4002)">0.9</text></g><g clip-path="url(#clip25)"><text fill="#595959" font-family="Calibri,Calibri_MSFontService,sans-serif" font-weight="400" font-size="41" transform="matrix(1 0 0 1 4992.12 4002)">1</text></g><g clip-path="url(#clip26)"><text fill="#595959" font-family="Calibri,Calibri_MSFontService,sans-serif" font-weight="400" font-size="46" transform="matrix(6.12323e-17 -1 1 6.12323e-17 2026.29 3353)">Voltage (V)</text></g><g clip-path="url(#clip27)"><text fill="#595959" font-family="Calibri,Calibri_MSFontService,sans-serif" font-weight="400" font-size="46" transform="matrix(1 0 0 1 3515.75 4071)">Time (ns)</text></g><g clip-path="url(#clip28)"><text fill="#595959" font-family="Calibri,Calibri_MSFontService,sans-serif" font-weight="400" font-size="64" transform="matrix(1 0 0 1 2932.03 2344)">Voltage @ SAM3X VDDIO </text></g><g clip-path="url(#clip29)"><text fill="#595959" font-family="Calibri,Calibri_MSFontService,sans-serif" font-weight="400" font-size="64" transform="matrix(1 0 0 1 3603.6 2344)">-</text></g><g clip-path="url(#clip30)"><text fill="#595959" font-family="Calibri,Calibri_MSFontService,sans-serif" font-weight="400" font-size="64" transform="matrix(1 0 0 1 3637.75 2344)">Base Condition</text></g><g clip-path="url(#clip31)"><path d="M3119.5 2433.5 3235.5 2433.5" stroke="#ED7D31" stroke-width="6.875" stroke-linecap="round" stroke-linejoin="round" stroke-miterlimit="10" fill="none" fill-rule="evenodd"/></g><g clip-path="url(#clip32)"><text fill="#595959" font-family="Calibri,Calibri_MSFontService,sans-serif" font-weight="400" font-size="41" transform="matrix(1 0 0 1 3247.79 2445)">VDDIO (V)</text></g><g clip-path="url(#clip33)"><path d="M3480.5 2433.5 3596.5 2433.5" stroke="#4472C4" stroke-width="6.875" stroke-linecap="round" stroke-linejoin="round" stroke-miterlimit="10" stroke-dasharray="20.625 27.5" fill="none" fill-rule="evenodd"/></g><g clip-path="url(#clip34)"><text fill="#595959" font-family="Calibri,Calibri_MSFontService,sans-serif" font-weight="400" font-size="41" transform="matrix(1 0 0 1 3609.12 2445)">VDDIO Max (V)</text></g><rect x="1898.5" y="2248.5" width="3165" height="1892" stroke="#D9D9D9" stroke-width="3.4375" stroke-linejoin="round" stroke-miterlimit="10" fill="none"/></g></svg>