<svg width="3258" height="1896" xmlns="http://www.w3.org/2000/svg" xmlns:xlink="http://www.w3.org/1999/xlink" overflow="hidden"><defs><clipPath id="clip0"><rect x="2581" y="6035" width="3258" height="1896"/></clipPath><clipPath id="clip1"><rect x="2581" y="6036" width="3255" height="1892"/></clipPath><clipPath id="clip2"><rect x="2581" y="6036" width="3255" height="1892"/></clipPath><clipPath id="clip3"><rect x="2581" y="6036" width="3255" height="1892"/></clipPath><clipPath id="clip4"><rect x="2581" y="6036" width="3255" height="1892"/></clipPath><clipPath id="clip5"><rect x="2893" y="6311" width="2884" height="1417"/></clipPath><clipPath id="clip6"><rect x="2893" y="6311" width="2884" height="1417"/></clipPath><clipPath id="clip7"><rect x="2581" y="6036" width="3255" height="1892"/></clipPath><clipPath id="clip8"><rect x="2581" y="6036" width="3255" height="1892"/></clipPath><clipPath id="clip9"><rect x="2581" y="6036" width="3255" height="1892"/></clipPath><clipPath id="clip10"><rect x="2581" y="6036" width="3255" height="1892"/></clipPath><clipPath id="clip11"><rect x="2581" y="6036" width="3255" height="1892"/></clipPath><clipPath id="clip12"><rect x="2581" y="6036" width="3255" height="1892"/></clipPath><clipPath id="clip13"><rect x="2581" y="6036" width="3255" height="1892"/></clipPath><clipPath id="clip14"><rect x="2581" y="6036" width="3255" height="1892"/></clipPath><clipPath id="clip15"><rect x="2581" y="6036" width="3255" height="1892"/></clipPath><clipPath id="clip16"><rect x="2581" y="6036" width="3255" height="1892"/></clipPath><clipPath id="clip17"><rect x="2581" y="6036" width="3255" height="1892"/></clipPath><clipPath id="clip18"><rect x="2581" y="6036" width="3255" height="1892"/></clipPath><clipPath id="clip19"><rect x="2581" y="6036" width="3255" height="1892"/></clipPath><clipPath id="clip20"><rect x="2581" y="6036" width="3255" height="1892"/></clipPath><clipPath id="clip21"><rect x="2581" y="6036" width="3255" height="1892"/></clipPath><clipPath id="clip22"><rect x="2581" y="6036" width="3255" height="1892"/></clipPath><clipPath id="clip23"><rect x="2581" y="6036" width="3255" height="1892"/></clipPath><clipPath id="clip24"><rect x="2581" y="6036" width="3255" height="1892"/></clipPath><clipPath id="clip25"><rect x="2581" y="6036" width="3255" height="1892"/></clipPath><clipPath id="clip26"><rect x="2581" y="6036" width="3255" height="1892"/></clipPath><clipPath id="clip27"><rect x="2581" y="6036" width="3255" height="1892"/></clipPath><clipPath id="clip28"><rect x="2581" y="6036" width="3255" height="1892"/></clipPath><clipPath id="clip29"><rect x="2581" y="6036" width="3255" height="1892"/></clipPath><clipPath id="clip30"><rect x="2581" y="6036" width="3255" height="1892"/></clipPath><clipPath id="clip31"><rect x="2581" y="6036" width="3255" height="1892"/></clipPath><clipPath id="clip32"><rect x="2581" y="6036" width="3255" height="1892"/></clipPath><clipPath id="clip33"><rect x="2581" y="6036" width="3255" height="1892"/></clipPath><clipPath id="clip34"><rect x="2581" y="6036" width="3255" height="1892"/></clipPath></defs><g clip-path="url(#clip0)" transform="translate(-2581 -6035)"><rect x="2582" y="6036" width="3255" height="1893" fill="#FFFFFF"/><g clip-path="url(#clip1)"><path d="M2893.5 7522.75 5774.5 7522.75M2893.5 7320.74 5774.5 7320.74M2893.5 7118.73 5774.5 7118.73M2893.5 6916.73 5774.5 6916.73M2893.5 6714.72 5774.5 6714.72M2893.5 6512.71 5774.5 6512.71M2893.5 6311.5 5774.5 6311.5" stroke="#D9D9D9" stroke-width="3.4375" stroke-linejoin="round" stroke-miterlimit="10" fill="none"/></g><g clip-path="url(#clip2)"><path d="M3181.6 6311.5 3181.6 7725.5M3469.61 6311.5 3469.61 7725.5M3757.62 6311.5 3757.62 7725.5M4045.63 6311.5 4045.63 7725.5M4333.64 6311.5 4333.64 7725.5M4622.65 6311.5 4622.65 7725.5M4910.66 6311.5 4910.66 7725.5M5198.67 6311.5 5198.67 7725.5M5486.68 6311.5 5486.68 7725.5M5774.5 6311.5 5774.5 7725.5" stroke="#D9D9D9" stroke-width="3.4375" stroke-linejoin="round" stroke-miterlimit="10" fill="none"/></g><g clip-path="url(#clip3)"><path d="M0 0 0.000360892 1414" stroke="#BFBFBF" stroke-width="3.4375" stroke-linejoin="round" stroke-miterlimit="10" fill="none" fill-rule="evenodd" transform="matrix(1 0 0 -1 2893.5 7725.5)"/></g><g clip-path="url(#clip4)"><path d="M2893.5 7725.5 5774.5 7725.5" stroke="#BFBFBF" stroke-width="3.4375" stroke-linejoin="round" stroke-miterlimit="10" fill="none" fill-rule="evenodd"/></g><g clip-path="url(#clip5)"><path d="M2893.5 7642.75 2922.6 7642.75 2922.6 7642.75 2922.6 7642.75 2922.6 7642.75 2922.6 7642.75 2922.6 7642.75 2922.6 7642.75 2922.6 7643.5 2922.6 7642.75 2922.6 7642.75 2922.6 7642.75 2922.6 7642.75 2922.6 7642.75 2922.6 7642.75 2922.6 7642.75 2922.6 7642.75 2922.6 7642.75 2922.6 7642.75 2922.6 7642.75 2923.6 7642.75 2923.6 7642.75 2923.6 7642.75 2923.6 7642.75 2923.6 7642.75 2924.6 7642.75 2925.6 7642.75 2926.6 7642.75 2927.6 7642.75 2928.6 7642.75 2929.6 7642.75 2931.6 7642.75 2932.6 7642.75 2933.6 7642.75 2934.6 7642.75 2934.6 7642.75 2935.6 7642.75 2936.6 7642.75 2937.6 7642.75 2937.6 7642.75 2938.6 7642.75 2939.6 7642.75 2941.6 7642.75 2944.6 7642.75 2947.6 7642.75 2950.6 7642.75 2952.6 7642.75 2954.6 7642.75 2957.6 7642.75 2959.6 7642.75 2961.6 7642.75 2964.6 7642.75 2966.6 7642.75 2970.6 7642.75 2974.6 7642.75 2977.6 7642.75 2981.6 7642.75 2985.6 7642.75 2989.6 7642.75 2993.6 7642.75 2999.6 7642.75 3006.6 7642.75 3012.6 7642.75 3018.6 7642.75 3025.6 7642.75 3031.6 7642.75 3038.6 7642.75 3052.6 7642.75 3067.6 7642.75 3081.6 7642.75 3096.6 7642.75 3110.6 7642.75 3125.6 7642.75 3139.6 7642.75 3150.6 7642.75 3161.6 7642.75 3172.6 7642.75 3182.6 7642.75 3193.6 7641.75 3204.61 7641.75 3215.61 7641.75 3225.61 7641.75 3236.61 7641.75 3246.61 7641.75 3257.61 7641.75 3267.61 7641.75 3278.61 7641.75 3288.61 7641.75 3299.61 7641.75 3309.61 7641.75 3319.61 7641.75 3330.61 7641.75 3340.61 7641.75 3351.61 7641.75 3361.61 7641.75 3372.61 7641.75 3382.61 7641.75 3393.61 7641.75 3403.61 7641.75 3413.61 7641.75 3424.61 7641.75 3434.61 7641.75 3445.61 7641.75 3455.61 7641.75 3466.61 7641.75 3476.61 7641.75 3487.61 7641.75 3497.61 7641.75 3507.62 7641.75 3518.62 7641.75 3528.62 7641.75 3539.62 7641.75 3549.62 7641.75 3560.62 7641.75 3570.62 7641.75 3581.62 7641.75 3591.62 7641.75 3601.62 7641.75 3612.62 7641.75 3622.62 7641.75 3633.62 7641.75 3643.62 7641.75 3654.62 7641.75 3664.62 7641.75 3675.62 7641.75 3685.62 7641.75 3696.62 7641.75 3706.62 7641.75 3716.62 7641.75 3727.62 7641.75 3737.62 7641.75 3747.62 7641.75 3757.62 7641.75 3767.62 7641.75 3777.62 7641.75 3787.62 7641.75 3797.62 7641.75 3807.62 7641.75 3816.63 7641.75 3826.63 7641.75 3836.63 7641.75 3845.63 7641.75 3855.63 7641.75 3865.63 7641.75 3874.63 7641.75 3883.63 7641.75 3892.63 7641.75 3902.63 7641.75 3911.63 7641.75 3920.63 7641.75 3929.63 7641.75 3938.63 7641.75 3946.63 7641.75 3955.63 7641.75 3963.63 7641.75 3972.63 7641.75 3980.63 7641.75 3988.63 7641.75 3997.63 7641.75 4005.63 7641.75 4011.63 7641.75 4017.63 7641.75 4022.63 7641.75 4028.63 7641.75 4031.63 7641.75 4033.63 7641.75 4036.63 7641.75 4039.63 7641.75 4042.63 7641.75 4045.63 7641.75 4048.63 7641.75 4050.63 7641.75 4053.63 7641.75 4056.63 7641.75 4059.63 7641.75 4062.63 7641.75 4064.63 7640.75 4067.63 7640.75 4070.63 7640.75 4073.63 7640.75 4076.63 7640.75 4078.63 7640.75 4081.63 7640.75 4084.63 7640.75 4087.63 7640.75 4090.63 7640.75 4095.63 7640.75 4101.63 7640.75 4107.63 7640.75 4115.64 7640.75 4120.64 7640.75 4125.64 7640.75 4129.64 7640.75 4134.64 7640.75 4139.64 7640.75 4144.64 7640.75 4149.64 7640.75 4158.64 7640.75 4167.64 7640.75 4176.64 7640.75 4186.64 7640.75 4195.64 7640.75 4204.64 7640.75 4213.64 7640.75 4244.64 7640.75 4274.64 7640.75 4304.64 7640.75 4334.64 7640.75 4364.64 7640.75 4394.64 7640.75 4424.65 7640.75 4483.65 7640.75 4542.65 7640.75 4600.65 7640.75 4659.65 7640.75 4718.65 7640.75 4776.66 7640.75 4835.66 7640.75 4894.66 7640.75 4953.66 7640.75 5012.66 7640.75 5071.67 7640.75 5130.67 7640.75 5189.67 7640.75 5249.67 7640.75 5287.67 7640.75 5325.67 7640.75 5363.68 7640.75 5401.68 7640.75 5439.68 7640.75 5478.68 7640.75 5516.68 7640.75 5519.68 7640.75 5554.68 7640.75 5590.68 7640.75 5626.68 7640.75 5662.69 7640.75 5697.69 7640.75 5733.69 7640.75 5769.69 7640.75 5772.69 7640.5 5774.5 7640.5" stroke="#ED7D31" stroke-width="6.875" stroke-linecap="round" stroke-linejoin="round" stroke-miterlimit="10" fill="none"/></g><g clip-path="url(#clip6)"><path d="M2893.5 7644.5 5774.5 7644.5" stroke="#4472C4" stroke-width="6.875" stroke-linecap="round" stroke-linejoin="round" stroke-miterlimit="10" stroke-dasharray="20.625 27.5" fill="none"/></g><g clip-path="url(#clip7)"><text fill="#595959" font-family="Calibri,Calibri_MSFontService,sans-serif" font-weight="400" font-size="41" transform="matrix(1 0 0 1 2834.82 7737)">0</text></g><g clip-path="url(#clip8)"><text fill="#595959" font-family="Calibri,Calibri_MSFontService,sans-serif" font-weight="400" font-size="41" transform="matrix(1 0 0 1 2813.92 7535)">10</text></g><g clip-path="url(#clip9)"><text fill="#595959" font-family="Calibri,Calibri_MSFontService,sans-serif" font-weight="400" font-size="41" transform="matrix(1 0 0 1 2813.92 7333)">20</text></g><g clip-path="url(#clip10)"><text fill="#595959" font-family="Calibri,Calibri_MSFontService,sans-serif" font-weight="400" font-size="41" transform="matrix(1 0 0 1 2813.92 7131)">30</text></g><g clip-path="url(#clip11)"><text fill="#595959" font-family="Calibri,Calibri_MSFontService,sans-serif" font-weight="400" font-size="41" transform="matrix(1 0 0 1 2813.92 6929)">40</text></g><g clip-path="url(#clip12)"><text fill="#595959" font-family="Calibri,Calibri_MSFontService,sans-serif" font-weight="400" font-size="41" transform="matrix(1 0 0 1 2813.92 6727)">50</text></g><g clip-path="url(#clip13)"><text fill="#595959" font-family="Calibri,Calibri_MSFontService,sans-serif" font-weight="400" font-size="41" transform="matrix(1 0 0 1 2813.92 6525)">60</text></g><g clip-path="url(#clip14)"><text fill="#595959" font-family="Calibri,Calibri_MSFontService,sans-serif" font-weight="400" font-size="41" transform="matrix(1 0 0 1 2813.92 6323)">70</text></g><g clip-path="url(#clip15)"><text fill="#595959" font-family="Calibri,Calibri_MSFontService,sans-serif" font-weight="400" font-size="41" transform="matrix(1 0 0 1 2883.54 7790)">0</text></g><g clip-path="url(#clip16)"><text fill="#595959" font-family="Calibri,Calibri_MSFontService,sans-serif" font-weight="400" font-size="41" transform="matrix(1 0 0 1 3155.92 7790)">0.1</text></g><g clip-path="url(#clip17)"><text fill="#595959" font-family="Calibri,Calibri_MSFontService,sans-serif" font-weight="400" font-size="41" transform="matrix(1 0 0 1 3443.95 7790)">0.2</text></g><g clip-path="url(#clip18)"><text fill="#595959" font-family="Calibri,Calibri_MSFontService,sans-serif" font-weight="400" font-size="41" transform="matrix(1 0 0 1 3731.98 7790)">0.3</text></g><g clip-path="url(#clip19)"><text fill="#595959" font-family="Calibri,Calibri_MSFontService,sans-serif" font-weight="400" font-size="41" transform="matrix(1 0 0 1 4020.01 7790)">0.4</text></g><g clip-path="url(#clip20)"><text fill="#595959" font-family="Calibri,Calibri_MSFontService,sans-serif" font-weight="400" font-size="41" transform="matrix(1 0 0 1 4308.04 7790)">0.5</text></g><g clip-path="url(#clip21)"><text fill="#595959" font-family="Calibri,Calibri_MSFontService,sans-serif" font-weight="400" font-size="41" transform="matrix(1 0 0 1 4596.07 7790)">0.6</text></g><g clip-path="url(#clip22)"><text fill="#595959" font-family="Calibri,Calibri_MSFontService,sans-serif" font-weight="400" font-size="41" transform="matrix(1 0 0 1 4884.1 7790)">0.7</text></g><g clip-path="url(#clip23)"><text fill="#595959" font-family="Calibri,Calibri_MSFontService,sans-serif" font-weight="400" font-size="41" transform="matrix(1 0 0 1 5172.13 7790)">0.8</text></g><g clip-path="url(#clip24)"><text fill="#595959" font-family="Calibri,Calibri_MSFontService,sans-serif" font-weight="400" font-size="41" transform="matrix(1 0 0 1 5460.16 7790)">0.9</text></g><g clip-path="url(#clip25)"><text fill="#595959" font-family="Calibri,Calibri_MSFontService,sans-serif" font-weight="400" font-size="41" transform="matrix(1 0 0 1 5763.84 7790)">1</text></g><g clip-path="url(#clip26)"><text fill="#595959" font-family="Calibri,Calibri_MSFontService,sans-serif" font-weight="400" font-size="46" transform="matrix(6.12323e-17 -1 1 6.12323e-17 2712.55 7141)">Voltage (V)</text></g><g clip-path="url(#clip27)"><text fill="#595959" font-family="Calibri,Calibri_MSFontService,sans-serif" font-weight="400" font-size="46" transform="matrix(1 0 0 1 4247.93 7859)">Time (us)</text></g><g clip-path="url(#clip28)"><text fill="#595959" font-family="Calibri,Calibri_MSFontService,sans-serif" font-weight="400" font-size="64" transform="matrix(1 0 0 1 3584.99 6132)">Voltage @ SAM3X VDDIO </text></g><g clip-path="url(#clip29)"><text fill="#595959" font-family="Calibri,Calibri_MSFontService,sans-serif" font-weight="400" font-size="64" transform="matrix(1 0 0 1 4256.56 6132)">-</text></g><g clip-path="url(#clip30)"><text fill="#595959" font-family="Calibri,Calibri_MSFontService,sans-serif" font-weight="400" font-size="64" transform="matrix(1 0 0 1 4290.71 6132)">ESD9X3.3 TVS Added</text></g><g clip-path="url(#clip31)"><path d="M3848.5 6222.5 3963.5 6222.5" stroke="#ED7D31" stroke-width="6.875" stroke-linecap="round" stroke-linejoin="round" stroke-miterlimit="10" fill="none" fill-rule="evenodd"/></g><g clip-path="url(#clip32)"><text fill="#595959" font-family="Calibri,Calibri_MSFontService,sans-serif" font-weight="400" font-size="41" transform="matrix(1 0 0 1 3976.54 6234)">VDDIO (V)</text></g><g clip-path="url(#clip33)"><path d="M4209.5 6222.5 4325.5 6222.5" stroke="#4472C4" stroke-width="6.875" stroke-linecap="round" stroke-linejoin="round" stroke-miterlimit="10" stroke-dasharray="20.625 27.5" fill="none" fill-rule="evenodd"/></g><g clip-path="url(#clip34)"><text fill="#595959" font-family="Calibri,Calibri_MSFontService,sans-serif" font-weight="400" font-size="41" transform="matrix(1 0 0 1 4337.87 6234)">VDDIO Max (V)</text></g><rect x="2582.5" y="6036.5" width="3255" height="1893" stroke="#D9D9D9" stroke-width="3.4375" stroke-linejoin="round" stroke-miterlimit="10" fill="none"/></g></svg>