<svg width="3258" height="1895" xmlns="http://www.w3.org/2000/svg" xmlns:xlink="http://www.w3.org/1999/xlink" overflow="hidden"><defs><clipPath id="clip0"><rect x="2577" y="9834" width="3258" height="1895"/></clipPath><clipPath id="clip1"><rect x="2578" y="9834" width="3255" height="1893"/></clipPath><clipPath id="clip2"><rect x="2578" y="9834" width="3255" height="1893"/></clipPath><clipPath id="clip3"><rect x="2578" y="9834" width="3255" height="1893"/></clipPath><clipPath id="clip4"><rect x="2578" y="9834" width="3255" height="1893"/></clipPath><clipPath id="clip5"><rect x="2890" y="10109" width="2884" height="1417"/></clipPath><clipPath id="clip6"><rect x="2890" y="10109" width="2884" height="1417"/></clipPath><clipPath id="clip7"><rect x="2578" y="9834" width="3255" height="1893"/></clipPath><clipPath id="clip8"><rect x="2578" y="9834" width="3255" height="1893"/></clipPath><clipPath id="clip9"><rect x="2578" y="9834" width="3255" height="1893"/></clipPath><clipPath id="clip10"><rect x="2578" y="9834" width="3255" height="1893"/></clipPath><clipPath id="clip11"><rect x="2578" y="9834" width="3255" height="1893"/></clipPath><clipPath id="clip12"><rect x="2578" y="9834" width="3255" height="1893"/></clipPath><clipPath id="clip13"><rect x="2578" y="9834" width="3255" height="1893"/></clipPath><clipPath id="clip14"><rect x="2578" y="9834" width="3255" height="1893"/></clipPath><clipPath id="clip15"><rect x="2578" y="9834" width="3255" height="1893"/></clipPath><clipPath id="clip16"><rect x="2578" y="9834" width="3255" height="1893"/></clipPath><clipPath id="clip17"><rect x="2578" y="9834" width="3255" height="1893"/></clipPath><clipPath id="clip18"><rect x="2578" y="9834" width="3255" height="1893"/></clipPath><clipPath id="clip19"><rect x="2578" y="9834" width="3255" height="1893"/></clipPath><clipPath id="clip20"><rect x="2578" y="9834" width="3255" height="1893"/></clipPath><clipPath id="clip21"><rect x="2578" y="9834" width="3255" height="1893"/></clipPath><clipPath id="clip22"><rect x="2578" y="9834" width="3255" height="1893"/></clipPath><clipPath id="clip23"><rect x="2578" y="9834" width="3255" height="1893"/></clipPath><clipPath id="clip24"><rect x="2578" y="9834" width="3255" height="1893"/></clipPath><clipPath id="clip25"><rect x="2578" y="9834" width="3255" height="1893"/></clipPath><clipPath id="clip26"><rect x="2578" y="9834" width="3255" height="1893"/></clipPath><clipPath id="clip27"><rect x="2578" y="9834" width="3255" height="1893"/></clipPath><clipPath id="clip28"><rect x="2578" y="9834" width="3255" height="1893"/></clipPath><clipPath id="clip29"><rect x="2578" y="9834" width="3255" height="1893"/></clipPath><clipPath id="clip30"><rect x="2578" y="9834" width="3255" height="1893"/></clipPath><clipPath id="clip31"><rect x="2578" y="9834" width="3255" height="1893"/></clipPath><clipPath id="clip32"><rect x="2578" y="9834" width="3255" height="1893"/></clipPath><clipPath id="clip33"><rect x="2578" y="9834" width="3255" height="1893"/></clipPath><clipPath id="clip34"><rect x="2578" y="9834" width="3255" height="1893"/></clipPath><clipPath id="clip35"><rect x="2578" y="9834" width="3255" height="1893"/></clipPath></defs><g clip-path="url(#clip0)" transform="translate(-2577 -9834)"><rect x="2578" y="9835" width="3255" height="1892" fill="#FFFFFF"/><g clip-path="url(#clip1)"><path d="M2890.5 11523.5 5770.5 11523.5M2890.5 11169.9 5770.5 11169.9M2890.5 10992.9 5770.5 10992.9M2890.5 10816.9 5770.5 10816.9M2890.5 10639.8 5770.5 10639.8M2890.5 10462.8 5770.5 10462.8M2890.5 10285.8 5770.5 10285.8M2890.5 10109.5 5770.5 10109.5" stroke="#D9D9D9" stroke-width="3.4375" stroke-linejoin="round" stroke-miterlimit="10" fill="none"/></g><g clip-path="url(#clip2)"><path d="M3178.6 10109.5 3178.6 11523.5M3466.61 10109.5 3466.61 11523.5M3754.62 10109.5 3754.62 11523.5M4042.63 10109.5 4042.63 11523.5M4330.64 10109.5 4330.64 11523.5M4618.65 10109.5 4618.65 11523.5M4906.66 10109.5 4906.66 11523.5M5194.67 10109.5 5194.67 11523.5M5482.68 10109.5 5482.68 11523.5M5770.5 10109.5 5770.5 11523.5" stroke="#D9D9D9" stroke-width="3.4375" stroke-linejoin="round" stroke-miterlimit="10" fill="none"/></g><g clip-path="url(#clip3)"><path d="M0 0 0.000360892 1414" stroke="#BFBFBF" stroke-width="3.4375" stroke-linejoin="round" stroke-miterlimit="10" fill="none" fill-rule="evenodd" transform="matrix(1 0 0 -1 2890.5 11523.5)"/></g><g clip-path="url(#clip4)"><path d="M2890.5 11346.5 5770.5 11346.5" stroke="#BFBFBF" stroke-width="3.4375" stroke-linejoin="round" stroke-miterlimit="10" fill="none" fill-rule="evenodd"/></g><g clip-path="url(#clip5)"><path d="M2890.5 11332.5 2919.6 11332.5 2919.6 11332.9 2919.6 11332.9 2919.6 11332.9 2919.6 11332.5 2919.6 11332.5 2919.6 11332.5 2919.6 11332.5 2919.6 11332.5 2919.6 11332.9 2919.6 11332.9 2919.6 11332.9 2919.6 11332.9 2919.6 11332.9 2919.6 11332.9 2919.6 11332.9 2919.6 11332.9 2919.6 11332.9 2919.6 11332.9 2920.6 11332.9 2920.6 11332.9 2921.6 11332.9 2922.6 11332.9 2923.6 11332.9 2924.6 11332.9 2925.6 11332.9 2926.6 11332.9 2928.6 11332.9 2929.6 11332.9 2930.6 11332.9 2931.6 11332.9 2932.6 11332.9 2932.6 11332.9 2933.6 11332.9 2934.6 11332.9 2935.6 11332.9 2936.6 11332.9 2937.6 11332.9 2938.6 11332.9 2939.6 11332.9 2940.6 11332.9 2941.6 11332.9 2944.6 11332.9 2946.6 11332.9 2948.6 11332.9 2950.6 11332.9 2952.6 11332.9 2955.6 11332.9 2960.6 11332.9 2965.6 11332.9 2970.6 11332.9 2974.6 11332.9 2978.6 11332.9 2983.6 11331.9 2987.6 11331.9 2991.6 11331.9 2996.6 11331.9 3002.6 11331.9 3009.6 11331.9 3016.6 11331.9 3023.6 11331.9 3030.6 11331.9 3037.6 11331.9 3043.6 11331.9 3057.6 11331.9 3070.6 11331.9 3083.6 11331.9 3096.6 11331.9 3110.6 11331.9 3123.6 11331.9 3136.6 11331.9 3147.6 11331.9 3158.6 11331.9 3169.6 11331.9 3180.6 11331.9 3191.6 11331.9 3201.6 11331.9 3212.61 11331.9 3223.61 11331.9 3233.61 11331.9 3244.61 11331.9 3254.61 11331.9 3264.61 11331.9 3275.61 11331.9 3285.61 11331.9 3296.61 11331.9 3306.61 11331.9 3317.61 11331.9 3327.61 11331.9 3338.61 11331.9 3348.61 11331.9 3358.61 11331.9 3369.61 11331.9 3379.61 11331.9 3390.61 11331.9 3400.61 11331.9 3411.61 11331.9 3421.61 11331.9 3432.61 11331.9 3442.61 11331.9 3453.61 11331.9 3463.61 11331.9 3473.61 11331.9 3484.61 11331.9 3494.61 11331.9 3505.62 11331.9 3515.62 11331.9 3526.62 11331.9 3536.62 11331.9 3547.62 11331.9 3557.62 11331.9 3567.62 11331.9 3578.62 11331.9 3588.62 11331.9 3599.62 11331.9 3609.62 11331.9 3620.62 11331.9 3630.62 11331.9 3641.62 11331.9 3651.62 11331.9 3661.62 11331.9 3672.62 11331.9 3682.62 11331.9 3693.62 11331.9 3703.62 11331.9 3714.62 11331.9 3724.62 11331.9 3734.62 11331.9 3744.62 11331.9 3754.62 11331.9 3764.62 11331.9 3774.62 11331.9 3784.62 11331.9 3794.62 11331.9 3804.62 11331.9 3814.63 11331.9 3823.63 11331.9 3833.63 11331.9 3843.63 11331.9 3852.63 11331.9 3862.63 11331.9 3871.63 11331.9 3880.63 11331.9 3890.63 11331.9 3899.63 11331.9 3908.63 11331.9 3917.63 11331.9 3927.63 11331.9 3935.63 11331.9 3943.63 11331.9 3951.63 11331.9 3959.63 11331.9 3967.63 11331.9 3975.63 11331.9 3983.63 11331.9 3991.63 11331.9 4000.63 11331.9 4005.63 11331.9 4011.63 11331.9 4017.63 11331.9 4022.63 11331.9 4025.63 11331.9 4028.63 11331.9 4031.63 11331.9 4034.63 11331.9 4036.63 11331.9 4039.63 11331.9 4042.63 11331.9 4045.63 11331.9 4048.63 11331.9 4050.63 11331.9 4053.63 11331.9 4056.63 11331.9 4059.63 11331.9 4062.63 11331.9 4064.63 11331.9 4067.63 11331.9 4070.63 11331.9 4073.63 11331.9 4076.63 11331.9 4079.63 11331.9 4081.63 11331.9 4084.63 11331.9 4090.63 11331.9 4095.63 11331.9 4101.63 11331.9 4109.63 11331.9 4114.63 11331.9 4119.64 11331.9 4124.64 11331.9 4129.64 11331.9 4134.64 11331.9 4138.64 11331.9 4143.64 11331.9 4153.64 11331.9 4163.64 11331.9 4172.64 11331.9 4182.64 11331.9 4191.64 11331.9 4201.64 11331.9 4211.64 11331.9 4240.64 11331.9 4269.64 11331.9 4299.64 11331.9 4328.64 11331.9 4357.64 11331.9 4387.64 11331.9 4416.65 11331.9 4474.65 11331.9 4533.65 11331.9 4591.65 11331.9 4649.65 11331.9 4707.65 11331.9 4766.66 11331.9 4824.66 11331.9 4883.66 11331.9 4942.66 11331.9 5001.66 11331.9 5060.67 11331.9 5119.67 11331.9 5178.67 11331.9 5237.67 11331.9 5280.67 11331.9 5323.67 11331.9 5366.68 11331.9 5409.68 11331.9 5452.68 11331.9 5495.68 11331.9 5538.68 11331.9 5541.68 11331.9 5573.68 11331.9 5605.68 11331.9 5638.69 11331.9 5670.69 11331.9 5702.69 11331.9 5734.69 11331.9 5766.69 11331.5 5769.69 11331.5 5770.5 11331.5" stroke="#ED7D31" stroke-width="6.875" stroke-linecap="round" stroke-linejoin="round" stroke-miterlimit="10" fill="none"/></g><g clip-path="url(#clip6)"><path d="M2890.5 11332.9 2919.6 11332.9 2919.6 10998.9 2919.6 10459.8 2919.6 10177.5 2919.6 10177.8 2919.6 10177.8 2919.6 10177.8 2919.6 10177.8 2919.6 10178.8 2919.6 10178.8 2919.6 10178.8 2919.6 10179.8 2919.6 10180.8 2919.6 10184.8 2919.6 10190.8 2919.6 10199.8 2919.6 10211.8 2919.6 10229.8 2919.6 10254.8 2919.6 10259.8 2919.6 10269.8 2919.6 10288.8 2919.6 10319.8 2919.6 10382.8 2919.6 10441.8 2920.6 10535.8 2920.6 10654.8 2921.6 10856.9 2922.6 11115.9 2923.6 11284.9 2924.6 11401.9 2925.6 11456.9 2926.6 11472.5 2928.6 11456.9 2929.6 11422.9 2930.6 11395.9 2931.6 11375.9 2932.6 11357.9 2932.6 11338.9 2933.6 11323.9 2934.6 11312.9 2935.6 11303.9 2936.6 11295.9 2937.6 11289.9 2938.6 11285.9 2939.6 11283.9 2940.6 11284.9 2941.6 11285.9 2944.6 11290.9 2946.6 11293.9 2948.6 11297.9 2950.6 11299.9 2952.6 11301.9 2955.6 11303.9 2960.6 11306.9 2965.6 11308.9 2970.6 11310.9 2974.6 11311.9 2978.6 11313.9 2983.6 11314.9 2987.6 11315.9 2991.6 11316.9 2996.6 11316.9 3002.6 11317.9 3009.6 11318.9 3016.6 11319.9 3023.6 11320.9 3030.6 11320.9 3037.6 11321.9 3043.6 11321.9 3057.6 11322.9 3070.6 11322.9 3083.6 11322.9 3096.6 11323.9 3110.6 11323.9 3123.6 11324.9 3136.6 11324.9 3147.6 11324.9 3158.6 11324.9 3169.6 11324.9 3180.6 11324.9 3191.6 11325.9 3201.6 11325.9 3212.61 11325.9 3223.61 11325.9 3233.61 11325.9 3244.61 11325.9 3254.61 11325.9 3264.61 11325.9 3275.61 11325.9 3285.61 11325.9 3296.61 11325.9 3306.61 11325.9 3317.61 11325.9 3327.61 11325.9 3338.61 11325.9 3348.61 11325.9 3358.61 11326.9 3369.61 11326.9 3379.61 11326.9 3390.61 11326.9 3400.61 11326.9 3411.61 11326.9 3421.61 11326.9 3432.61 11326.9 3442.61 11326.9 3453.61 11326.9 3463.61 11326.9 3473.61 11326.9 3484.61 11326.9 3494.61 11326.9 3505.62 11326.9 3515.62 11326.9 3526.62 11326.9 3536.62 11326.9 3547.62 11326.9 3557.62 11326.9 3567.62 11326.9 3578.62 11326.9 3588.62 11326.9 3599.62 11326.9 3609.62 11326.9 3620.62 11326.9 3630.62 11326.9 3641.62 11326.9 3651.62 11326.9 3661.62 11326.9 3672.62 11326.9 3682.62 11326.9 3693.62 11326.9 3703.62 11326.9 3714.62 11326.9 3724.62 11326.9 3734.62 11326.9 3744.62 11326.9 3754.62 11326.9 3764.62 11326.9 3774.62 11326.9 3784.62 11326.9 3794.62 11326.9 3804.62 11326.9 3814.63 11326.9 3823.63 11326.9 3833.63 11326.9 3843.63 11326.9 3852.63 11326.9 3862.63 11326.9 3871.63 11326.9 3880.63 11326.9 3890.63 11326.9 3899.63 11326.9 3908.63 11326.9 3917.63 11326.9 3927.63 11326.9 3935.63 11326.9 3943.63 11326.9 3951.63 11326.9 3959.63 11326.9 3967.63 11326.9 3975.63 11326.9 3983.63 11326.9 3991.63 11326.9 4000.63 11326.9 4005.63 11326.9 4011.63 11326.9 4017.63 11326.9 4022.63 11326.9 4025.63 11326.9 4028.63 11326.9 4031.63 11326.9 4034.63 11326.9 4036.63 11326.9 4039.63 11326.9 4042.63 11326.9 4045.63 11326.9 4048.63 11326.9 4050.63 11326.9 4053.63 11326.9 4056.63 11326.9 4059.63 11326.9 4062.63 11326.9 4064.63 11326.9 4067.63 11326.9 4070.63 11326.9 4073.63 11326.9 4076.63 11326.9 4079.63 11326.9 4081.63 11326.9 4084.63 11326.9 4090.63 11326.9 4095.63 11327.9 4101.63 11327.9 4109.63 11327.9 4114.63 11327.9 4119.64 11327.9 4124.64 11327.9 4129.64 11327.9 4134.64 11327.9 4138.64 11327.9 4143.64 11327.9 4153.64 11327.9 4163.64 11327.9 4172.64 11327.9 4182.64 11327.9 4191.64 11327.9 4201.64 11327.9 4211.64 11327.9 4240.64 11327.9 4269.64 11328.9 4299.64 11328.9 4328.64 11328.9 4357.64 11328.9 4387.64 11328.9 4416.65 11328.9 4474.65 11329.9 4533.65 11329.9 4591.65 11329.9 4649.65 11329.9 4707.65 11329.9 4766.66 11329.9 4824.66 11330.9 4883.66 11330.9 4942.66 11330.9 5001.66 11330.9 5060.67 11330.9 5119.67 11330.9 5178.67 11330.9 5237.67 11330.9 5280.67 11330.9 5323.67 11330.9 5366.68 11330.9 5409.68 11331.9 5452.68 11331.9 5495.68 11331.9 5538.68 11331.9 5541.68 11331.9 5573.68 11331.9 5605.68 11331.9 5638.69 11331.9 5670.69 11331.9 5702.69 11331.9 5734.69 11331.9 5766.69 11331.9 5769.69 11331.9 5770.5 11331.9" stroke="#A5A5A5" stroke-width="6.875" stroke-linecap="round" stroke-linejoin="round" stroke-miterlimit="10" fill="none"/></g><g clip-path="url(#clip7)"><text fill="#595959" font-family="Calibri,Calibri_MSFontService,sans-serif" font-weight="400" font-size="41" transform="matrix(1 0 0 1 2797.86 11535)">-50</text></g><g clip-path="url(#clip8)"><text fill="#595959" font-family="Calibri,Calibri_MSFontService,sans-serif" font-weight="400" font-size="41" transform="matrix(1 0 0 1 2831.38 11358)">0</text></g><g clip-path="url(#clip9)"><text fill="#595959" font-family="Calibri,Calibri_MSFontService,sans-serif" font-weight="400" font-size="41" transform="matrix(1 0 0 1 2810.48 11182)">50</text></g><g clip-path="url(#clip10)"><text fill="#595959" font-family="Calibri,Calibri_MSFontService,sans-serif" font-weight="400" font-size="41" transform="matrix(1 0 0 1 2789.58 11005)">100</text></g><g clip-path="url(#clip11)"><text fill="#595959" font-family="Calibri,Calibri_MSFontService,sans-serif" font-weight="400" font-size="41" transform="matrix(1 0 0 1 2789.58 10828)">150</text></g><g clip-path="url(#clip12)"><text fill="#595959" font-family="Calibri,Calibri_MSFontService,sans-serif" font-weight="400" font-size="41" transform="matrix(1 0 0 1 2789.58 10651)">200</text></g><g clip-path="url(#clip13)"><text fill="#595959" font-family="Calibri,Calibri_MSFontService,sans-serif" font-weight="400" font-size="41" transform="matrix(1 0 0 1 2789.58 10475)">250</text></g><g clip-path="url(#clip14)"><text fill="#595959" font-family="Calibri,Calibri_MSFontService,sans-serif" font-weight="400" font-size="41" transform="matrix(1 0 0 1 2789.58 10298)">300</text></g><g clip-path="url(#clip15)"><text fill="#595959" font-family="Calibri,Calibri_MSFontService,sans-serif" font-weight="400" font-size="41" transform="matrix(1 0 0 1 2789.58 10121)">350</text></g><g clip-path="url(#clip16)"><text fill="#595959" font-family="Calibri,Calibri_MSFontService,sans-serif" font-weight="400" font-size="41" transform="matrix(1 0 0 1 2880.1 11412)">0</text></g><g clip-path="url(#clip17)"><text fill="#595959" font-family="Calibri,Calibri_MSFontService,sans-serif" font-weight="400" font-size="41" transform="matrix(1 0 0 1 3152.48 11412)">0.1</text></g><g clip-path="url(#clip18)"><text fill="#595959" font-family="Calibri,Calibri_MSFontService,sans-serif" font-weight="400" font-size="41" transform="matrix(1 0 0 1 3440.51 11412)">0.2</text></g><g clip-path="url(#clip19)"><text fill="#595959" font-family="Calibri,Calibri_MSFontService,sans-serif" font-weight="400" font-size="41" transform="matrix(1 0 0 1 3728.54 11412)">0.3</text></g><g clip-path="url(#clip20)"><text fill="#595959" font-family="Calibri,Calibri_MSFontService,sans-serif" font-weight="400" font-size="41" transform="matrix(1 0 0 1 4016.57 11412)">0.4</text></g><g clip-path="url(#clip21)"><text fill="#595959" font-family="Calibri,Calibri_MSFontService,sans-serif" font-weight="400" font-size="41" transform="matrix(1 0 0 1 4304.6 11412)">0.5</text></g><g clip-path="url(#clip22)"><text fill="#595959" font-family="Calibri,Calibri_MSFontService,sans-serif" font-weight="400" font-size="41" transform="matrix(1 0 0 1 4592.63 11412)">0.6</text></g><g clip-path="url(#clip23)"><text fill="#595959" font-family="Calibri,Calibri_MSFontService,sans-serif" font-weight="400" font-size="41" transform="matrix(1 0 0 1 4880.66 11412)">0.7</text></g><g clip-path="url(#clip24)"><text fill="#595959" font-family="Calibri,Calibri_MSFontService,sans-serif" font-weight="400" font-size="41" transform="matrix(1 0 0 1 5168.69 11412)">0.8</text></g><g clip-path="url(#clip25)"><text fill="#595959" font-family="Calibri,Calibri_MSFontService,sans-serif" font-weight="400" font-size="41" transform="matrix(1 0 0 1 5456.72 11412)">0.9</text></g><g clip-path="url(#clip26)"><text fill="#595959" font-family="Calibri,Calibri_MSFontService,sans-serif" font-weight="400" font-size="41" transform="matrix(1 0 0 1 5760.4 11412)">1</text></g><g clip-path="url(#clip27)"><text fill="#595959" font-family="Calibri,Calibri_MSFontService,sans-serif" font-weight="400" font-size="46" transform="matrix(6.12323e-17 -1 1 6.12323e-17 2709.12 10940)">Voltage (V)</text></g><g clip-path="url(#clip28)"><text fill="#595959" font-family="Calibri,Calibri_MSFontService,sans-serif" font-weight="400" font-size="46" transform="matrix(1 0 0 1 4244.49 11574)">Time (us)</text></g><g clip-path="url(#clip29)"><text fill="#595959" font-family="Calibri,Calibri_MSFontService,sans-serif" font-weight="400" font-size="64" transform="matrix(1 0 0 1 3533.8 9930)">ESD9X3.3ST5G At Input </text></g><g clip-path="url(#clip30)"><text fill="#595959" font-family="Calibri,Calibri_MSFontService,sans-serif" font-weight="400" font-size="64" transform="matrix(1 0 0 1 4153.14 9930)">-</text></g><g clip-path="url(#clip31)"><text fill="#595959" font-family="Calibri,Calibri_MSFontService,sans-serif" font-weight="400" font-size="64" transform="matrix(1 0 0 1 4187.29 9930)">Trace Inductance Modeled</text></g><g clip-path="url(#clip32)"><path d="M3812.5 10020.5 3900.5 10020.5" stroke="#ED7D31" stroke-width="6.875" stroke-linecap="round" stroke-linejoin="round" stroke-miterlimit="10" fill="none" fill-rule="evenodd"/></g><g clip-path="url(#clip33)"><text fill="#595959" font-family="Calibri,Calibri_MSFontService,sans-serif" font-weight="400" font-size="41" transform="matrix(1 0 0 1 3910.09 10032)">VDDIO (V)</text></g><g clip-path="url(#clip34)"><path d="M4143.5 10020.5 4231.5 10020.5" stroke="#A5A5A5" stroke-width="6.875" stroke-linecap="round" stroke-linejoin="round" stroke-miterlimit="10" fill="none" fill-rule="evenodd"/></g><g clip-path="url(#clip35)"><text fill="#595959" font-family="Calibri,Calibri_MSFontService,sans-serif" font-weight="400" font-size="41" transform="matrix(1 0 0 1 4240.63 10032)">Input ESD Stimulus (V)</text></g><rect x="2578.5" y="9835.5" width="3255" height="1892" stroke="#D9D9D9" stroke-width="3.4375" stroke-linejoin="round" stroke-miterlimit="10" fill="none"/></g></svg>