<svg width="3258" height="1896" xmlns="http://www.w3.org/2000/svg" xmlns:xlink="http://www.w3.org/1999/xlink" overflow="hidden"><defs><clipPath id="clip0"><rect x="2577" y="7929" width="3258" height="1896"/></clipPath><clipPath id="clip1"><rect x="2578" y="7930" width="3255" height="1892"/></clipPath><clipPath id="clip2"><rect x="2578" y="7930" width="3255" height="1892"/></clipPath><clipPath id="clip3"><rect x="2578" y="7930" width="3255" height="1892"/></clipPath><clipPath id="clip4"><rect x="2578" y="7930" width="3255" height="1892"/></clipPath><clipPath id="clip5"><rect x="2890" y="8205" width="2884" height="1417"/></clipPath><clipPath id="clip6"><rect x="2578" y="7930" width="3255" height="1892"/></clipPath><clipPath id="clip7"><rect x="2578" y="7930" width="3255" height="1892"/></clipPath><clipPath id="clip8"><rect x="2578" y="7930" width="3255" height="1892"/></clipPath><clipPath id="clip9"><rect x="2578" y="7930" width="3255" height="1892"/></clipPath><clipPath id="clip10"><rect x="2578" y="7930" width="3255" height="1892"/></clipPath><clipPath id="clip11"><rect x="2578" y="7930" width="3255" height="1892"/></clipPath><clipPath id="clip12"><rect x="2578" y="7930" width="3255" height="1892"/></clipPath><clipPath id="clip13"><rect x="2578" y="7930" width="3255" height="1892"/></clipPath><clipPath id="clip14"><rect x="2578" y="7930" width="3255" height="1892"/></clipPath><clipPath id="clip15"><rect x="2578" y="7930" width="3255" height="1892"/></clipPath><clipPath id="clip16"><rect x="2578" y="7930" width="3255" height="1892"/></clipPath><clipPath id="clip17"><rect x="2578" y="7930" width="3255" height="1892"/></clipPath><clipPath id="clip18"><rect x="2578" y="7930" width="3255" height="1892"/></clipPath><clipPath id="clip19"><rect x="2578" y="7930" width="3255" height="1892"/></clipPath><clipPath id="clip20"><rect x="2578" y="7930" width="3255" height="1892"/></clipPath><clipPath id="clip21"><rect x="2578" y="7930" width="3255" height="1892"/></clipPath><clipPath id="clip22"><rect x="2578" y="7930" width="3255" height="1892"/></clipPath><clipPath id="clip23"><rect x="2578" y="7930" width="3255" height="1892"/></clipPath><clipPath id="clip24"><rect x="2578" y="7930" width="3255" height="1892"/></clipPath><clipPath id="clip25"><rect x="2578" y="7930" width="3255" height="1892"/></clipPath><clipPath id="clip26"><rect x="2578" y="7930" width="3255" height="1892"/></clipPath><clipPath id="clip27"><rect x="2578" y="7930" width="3255" height="1892"/></clipPath><clipPath id="clip28"><rect x="2578" y="7930" width="3255" height="1892"/></clipPath><clipPath id="clip29"><rect x="2578" y="7930" width="3255" height="1892"/></clipPath><clipPath id="clip30"><rect x="2578" y="7930" width="3255" height="1892"/></clipPath><clipPath id="clip31"><rect x="2578" y="7930" width="3255" height="1892"/></clipPath><clipPath id="clip32"><rect x="2578" y="7930" width="3255" height="1892"/></clipPath><clipPath id="clip33"><rect x="2578" y="7930" width="3255" height="1892"/></clipPath><clipPath id="clip34"><rect x="2578" y="7930" width="3255" height="1892"/></clipPath></defs><g clip-path="url(#clip0)" transform="translate(-2577 -7929)"><rect x="2578" y="7930" width="3255" height="1893" fill="#FFFFFF"/><g clip-path="url(#clip1)"><path d="M2890.5 9477.81 5770.5 9477.81M2890.5 9336.81 5770.5 9336.81M2890.5 9194.8 5770.5 9194.8M2890.5 9053.8 5770.5 9053.8M2890.5 8911.79 5770.5 8911.79M2890.5 8770.79 5770.5 8770.79M2890.5 8629.78 5770.5 8629.78M2890.5 8487.78 5770.5 8487.78M2890.5 8346.77 5770.5 8346.77M2890.5 8205.5 5770.5 8205.5" stroke="#D9D9D9" stroke-width="3.4375" stroke-linejoin="round" stroke-miterlimit="10" fill="none"/></g><g clip-path="url(#clip2)"><path d="M3178.6 8205.5 3178.6 9619.5M3466.61 8205.5 3466.61 9619.5M3754.62 8205.5 3754.62 9619.5M4042.63 8205.5 4042.63 9619.5M4330.64 8205.5 4330.64 9619.5M4618.65 8205.5 4618.65 9619.5M4906.66 8205.5 4906.66 9619.5M5194.67 8205.5 5194.67 9619.5M5482.68 8205.5 5482.68 9619.5M5770.5 8205.5 5770.5 9619.5" stroke="#D9D9D9" stroke-width="3.4375" stroke-linejoin="round" stroke-miterlimit="10" fill="none"/></g><g clip-path="url(#clip3)"><path d="M0 0 0.000360892 1414" stroke="#BFBFBF" stroke-width="3.4375" stroke-linejoin="round" stroke-miterlimit="10" fill="none" fill-rule="evenodd" transform="matrix(1 0 0 -1 2890.5 9619.5)"/></g><g clip-path="url(#clip4)"><path d="M2890.5 9619.5 5770.5 9619.5" stroke="#BFBFBF" stroke-width="3.4375" stroke-linejoin="round" stroke-miterlimit="10" fill="none" fill-rule="evenodd"/></g><g clip-path="url(#clip5)"><path d="M2890.5 9618.82 2919.6 9618.82 2919.6 9618.82 2919.6 9618.82 2919.6 9617.82 2919.6 9617.82 2919.6 9617.82 2919.6 9617.82 2919.6 9617.82 2919.6 9617.82 2919.6 9617.82 2919.6 9617.82 2919.6 9616.82 2919.6 9615.82 2919.6 9614.82 2919.6 9609.82 2919.6 9603.82 2919.6 9595.82 2919.6 9578.81 2919.6 9552.81 2919.6 9546.81 2919.6 9535.81 2919.6 9513.81 2919.6 9474.81 2919.6 9395.81 2919.6 9315.81 2920.6 9179.8 2920.6 8999.8 2921.6 8695.79 2922.6 8383.78 2922.6 8275.5 2924.6 8340.77 2925.6 8503.78 2926.6 8717.79 2927.6 8909.79 2929.6 9074.8 2930.6 9155.8 2930.6 9196.8 2931.6 9222.8 2932.6 9239.8 2933.6 9251.8 2933.6 9254.8 2934.6 9253.8 2935.6 9248.8 2935.6 9238.8 2937.6 9204.8 2941.6 9133.8 2943.6 9080.8 2946.6 9039.8 2948.6 9012.8 2951.6 8988.79 2953.6 8968.79 2956.6 8951.79 2958.6 8938.79 2960.6 8930.79 2963.6 8925.79 2966.6 8921.79 2970.6 8920.79 2974.6 8923.79 2978.6 8930.79 2982.6 8941.79 2985.6 8954.79 2989.6 8971.79 2996.6 9002.8 3002.6 9033.8 3009.6 9064.8 3015.6 9095.8 3021.6 9126.8 3028.6 9157.8 3034.6 9187.8 3049.6 9248.8 3063.6 9301.81 3078.6 9346.81 3092.6 9385.81 3107.6 9418.81 3121.6 9446.81 3136.6 9469.81 3146.6 9485.81 3157.6 9498.81 3168.6 9511.81 3179.6 9522.81 3190.6 9531.81 3201.6 9540.81 3212.61 9548.81 3222.61 9554.81 3232.61 9560.81 3243.61 9566.81 3253.61 9571.81 3264.61 9575.81 3274.61 9579.81 3285.61 9582.81 3295.61 9586.81 3306.61 9589.81 3316.61 9591.81 3326.61 9594.82 3337.61 9596.82 3347.61 9598.82 3358.61 9600.82 3368.61 9601.82 3379.61 9603.82 3389.61 9604.82 3400.61 9605.82 3410.61 9607.82 3420.61 9608.82 3431.61 9608.82 3441.61 9609.82 3452.61 9610.82 3462.61 9611.82 3473.61 9611.82 3483.61 9612.82 3494.61 9613.82 3504.61 9613.82 3514.62 9614.82 3525.62 9614.82 3535.62 9614.82 3546.62 9615.82 3556.62 9615.82 3567.62 9615.82 3577.62 9616.82 3588.62 9616.82 3598.62 9616.82 3609.62 9616.82 3619.62 9616.82 3629.62 9617.82 3640.62 9617.82 3650.62 9617.82 3661.62 9617.82 3671.62 9617.82 3682.62 9617.82 3692.62 9617.82 3703.62 9617.82 3713.62 9618.82 3723.62 9618.82 3733.62 9618.82 3744.62 9618.82 3754.62 9618.82 3764.62 9618.82 3774.62 9618.82 3784.62 9618.82 3794.62 9618.82 3803.62 9618.82 3813.63 9618.82 3823.63 9618.82 3832.63 9618.82 3842.63 9618.82 3852.63 9618.82 3861.63 9618.82 3870.63 9618.82 3880.63 9618.82 3889.63 9618.82 3898.63 9618.82 3907.63 9618.82 3917.63 9618.82 3926.63 9618.82 3934.63 9618.82 3943.63 9618.82 3951.63 9618.82 3960.63 9618.82 3968.63 9618.82 3977.63 9618.82 3985.63 9618.82 3993.63 9618.82 4002.63 9618.82 4008.63 9618.82 4013.63 9618.82 4019.63 9618.82 4024.63 9618.82 4027.63 9618.82 4030.63 9618.82 4033.63 9618.82 4036.63 9618.82 4038.63 9618.82 4041.63 9618.82 4044.63 9618.82 4047.63 9618.82 4050.63 9618.82 4053.63 9618.82 4055.63 9618.82 4058.63 9618.82 4061.63 9618.82 4064.63 9618.82 4067.63 9618.82 4069.63 9618.82 4072.63 9618.82 4075.63 9618.82 4078.63 9618.82 4081.63 9618.82 4083.63 9618.82 4086.63 9618.82 4092.63 9619.5 4098.63 9619.5 4103.63 9619.5 4112.63 9619.5 4116.64 9619.5 4121.64 9619.5 4126.64 9618.82 4131.64 9618.82 4136.64 9618.82 4141.64 9618.82 4145.64 9618.82 4155.64 9618.82 4164.64 9618.82 4173.64 9618.82 4182.64 9618.82 4192.64 9618.82 4201.64 9618.82 4210.64 9618.82 4240.64 9618.82 4270.64 9618.82 4300.64 9618.82 4331.64 9618.82 4361.64 9618.82 4391.64 9618.82 4421.65 9618.82 4480.65 9618.82 4538.65 9618.82 4597.65 9618.82 4656.65 9618.82 4714.65 9618.82 4773.66 9618.82 4832.66 9618.82 4891.66 9618.82 4950.66 9618.82 5009.66 9618.82 5068.67 9618.82 5127.67 9618.82 5186.67 9618.82 5245.67 9618.82 5283.67 9618.82 5321.67 9618.82 5360.68 9618.82 5398.68 9618.82 5436.68 9618.82 5474.68 9618.82 5512.68 9618.82 5515.68 9618.82 5551.68 9618.82 5587.68 9618.82 5622.68 9618.82 5658.69 9618.82 5694.69 9618.82 5730.69 9618.82 5765.69 9618.82 5768.69 9618.82 5770.5 9618.82" stroke="#ED7D31" stroke-width="6.875" stroke-linecap="round" stroke-linejoin="round" stroke-miterlimit="10" fill="none"/></g><g clip-path="url(#clip6)"><text fill="#595959" font-family="Calibri,Calibri_MSFontService,sans-serif" font-weight="400" font-size="41" transform="matrix(1 0 0 1 2831.38 9631)">0</text></g><g clip-path="url(#clip7)"><text fill="#595959" font-family="Calibri,Calibri_MSFontService,sans-serif" font-weight="400" font-size="41" transform="matrix(1 0 0 1 2810.48 9489)">20</text></g><g clip-path="url(#clip8)"><text fill="#595959" font-family="Calibri,Calibri_MSFontService,sans-serif" font-weight="400" font-size="41" transform="matrix(1 0 0 1 2810.48 9348)">40</text></g><g clip-path="url(#clip9)"><text fill="#595959" font-family="Calibri,Calibri_MSFontService,sans-serif" font-weight="400" font-size="41" transform="matrix(1 0 0 1 2810.48 9206)">60</text></g><g clip-path="url(#clip10)"><text fill="#595959" font-family="Calibri,Calibri_MSFontService,sans-serif" font-weight="400" font-size="41" transform="matrix(1 0 0 1 2810.48 9065)">80</text></g><g clip-path="url(#clip11)"><text fill="#595959" font-family="Calibri,Calibri_MSFontService,sans-serif" font-weight="400" font-size="41" transform="matrix(1 0 0 1 2789.58 8924)">100</text></g><g clip-path="url(#clip12)"><text fill="#595959" font-family="Calibri,Calibri_MSFontService,sans-serif" font-weight="400" font-size="41" transform="matrix(1 0 0 1 2789.58 8782)">120</text></g><g clip-path="url(#clip13)"><text fill="#595959" font-family="Calibri,Calibri_MSFontService,sans-serif" font-weight="400" font-size="41" transform="matrix(1 0 0 1 2789.58 8641)">140</text></g><g clip-path="url(#clip14)"><text fill="#595959" font-family="Calibri,Calibri_MSFontService,sans-serif" font-weight="400" font-size="41" transform="matrix(1 0 0 1 2789.58 8500)">160</text></g><g clip-path="url(#clip15)"><text fill="#595959" font-family="Calibri,Calibri_MSFontService,sans-serif" font-weight="400" font-size="41" transform="matrix(1 0 0 1 2789.58 8358)">180</text></g><g clip-path="url(#clip16)"><text fill="#595959" font-family="Calibri,Calibri_MSFontService,sans-serif" font-weight="400" font-size="41" transform="matrix(1 0 0 1 2789.58 8217)">200</text></g><g clip-path="url(#clip17)"><text fill="#595959" font-family="Calibri,Calibri_MSFontService,sans-serif" font-weight="400" font-size="41" transform="matrix(1 0 0 1 2880.1 9684)">0</text></g><g clip-path="url(#clip18)"><text fill="#595959" font-family="Calibri,Calibri_MSFontService,sans-serif" font-weight="400" font-size="41" transform="matrix(1 0 0 1 3152.48 9684)">0.1</text></g><g clip-path="url(#clip19)"><text fill="#595959" font-family="Calibri,Calibri_MSFontService,sans-serif" font-weight="400" font-size="41" transform="matrix(1 0 0 1 3440.51 9684)">0.2</text></g><g clip-path="url(#clip20)"><text fill="#595959" font-family="Calibri,Calibri_MSFontService,sans-serif" font-weight="400" font-size="41" transform="matrix(1 0 0 1 3728.54 9684)">0.3</text></g><g clip-path="url(#clip21)"><text fill="#595959" font-family="Calibri,Calibri_MSFontService,sans-serif" font-weight="400" font-size="41" transform="matrix(1 0 0 1 4016.57 9684)">0.4</text></g><g clip-path="url(#clip22)"><text fill="#595959" font-family="Calibri,Calibri_MSFontService,sans-serif" font-weight="400" font-size="41" transform="matrix(1 0 0 1 4304.6 9684)">0.5</text></g><g clip-path="url(#clip23)"><text fill="#595959" font-family="Calibri,Calibri_MSFontService,sans-serif" font-weight="400" font-size="41" transform="matrix(1 0 0 1 4592.63 9684)">0.6</text></g><g clip-path="url(#clip24)"><text fill="#595959" font-family="Calibri,Calibri_MSFontService,sans-serif" font-weight="400" font-size="41" transform="matrix(1 0 0 1 4880.66 9684)">0.7</text></g><g clip-path="url(#clip25)"><text fill="#595959" font-family="Calibri,Calibri_MSFontService,sans-serif" font-weight="400" font-size="41" transform="matrix(1 0 0 1 5168.69 9684)">0.8</text></g><g clip-path="url(#clip26)"><text fill="#595959" font-family="Calibri,Calibri_MSFontService,sans-serif" font-weight="400" font-size="41" transform="matrix(1 0 0 1 5456.72 9684)">0.9</text></g><g clip-path="url(#clip27)"><text fill="#595959" font-family="Calibri,Calibri_MSFontService,sans-serif" font-weight="400" font-size="41" transform="matrix(1 0 0 1 5760.4 9684)">1</text></g><g clip-path="url(#clip28)"><text fill="#595959" font-family="Calibri,Calibri_MSFontService,sans-serif" font-weight="400" font-size="46" transform="matrix(6.12323e-17 -1 1 6.12323e-17 2709.12 9027)">Power (W)</text></g><g clip-path="url(#clip29)"><text fill="#595959" font-family="Calibri,Calibri_MSFontService,sans-serif" font-weight="400" font-size="46" transform="matrix(1 0 0 1 4244.49 9753)">Time (us)</text></g><g clip-path="url(#clip30)"><text fill="#595959" font-family="Calibri,Calibri_MSFontService,sans-serif" font-weight="400" font-size="64" transform="matrix(1 0 0 1 3824.92 8026)">Power Dissipation </text></g><g clip-path="url(#clip31)"><text fill="#595959" font-family="Calibri,Calibri_MSFontService,sans-serif" font-weight="400" font-size="64" transform="matrix(1 0 0 1 4305.75 8026)">-</text></g><g clip-path="url(#clip32)"><text fill="#595959" font-family="Calibri,Calibri_MSFontService,sans-serif" font-weight="400" font-size="64" transform="matrix(1 0 0 1 4339.9 8026)">ESD9X3.3</text></g><g clip-path="url(#clip33)"><path d="M4040.5 8116.5 4128.5 8116.5" stroke="#ED7D31" stroke-width="6.875" stroke-linecap="round" stroke-linejoin="round" stroke-miterlimit="10" fill="none" fill-rule="evenodd"/></g><g clip-path="url(#clip34)"><text fill="#595959" font-family="Calibri,Calibri_MSFontService,sans-serif" font-weight="400" font-size="41" transform="matrix(1 0 0 1 4137.35 8128)">TVS Power (W)</text></g><rect x="2578.5" y="7930.5" width="3255" height="1893" stroke="#D9D9D9" stroke-width="3.4375" stroke-linejoin="round" stroke-miterlimit="10" fill="none"/></g></svg>